<?xml version="1.0" standalone="no"?>
<!DOCTYPE svg PUBLIC "-//W3C//DTD SVG 1.1//EN" "http://www.w3.org/Graphics/SVG/1.1/DTD/svg11.dtd" >
<svg>
<metadata>
Created by FontForge 20090622 at Wed Feb  1 13:06:08 2017
 By deploy user
(URW)++,Copyright 2007 by (URW)++ Design &#38; Development
</metadata>
<defs>
<font id="VAGRundschriftD-Ita" horiz-adv-x="1024" >
  <font-face 
    font-family="VAGRundschriftD-Ita"
    font-weight="400"
    font-style="italic"
    font-stretch="normal"
    units-per-em="2048"
    panose-1="0 0 0 0 0 0 0 0 0 0"
    ascent="1586"
    descent="-462"
    x-height="1039"
    cap-height="1385"
    bbox="-347 -521 2351 1896"
    underline-thickness="233"
    underline-position="-329"
    slope="12"
    unicode-range="U+0020-U+FB04"
  />
<missing-glyph horiz-adv-x="512" 
d="M51 0v1365h410v-1365h-410zM410 51v1263h-308v-1263h308z" />
    <glyph glyph-name=".notdef" horiz-adv-x="512" 
d="M51 0v1365h410v-1365h-410zM410 51v1263h-308v-1263h308z" />
    <glyph glyph-name="glyph1" horiz-adv-x="0" 
 />
    <glyph glyph-name="glyph2" horiz-adv-x="512" 
 />
    <glyph glyph-name="space" unicode=" " horiz-adv-x="512" 
 />
    <glyph glyph-name="exclam" unicode="!" horiz-adv-x="525" 
d="M531 1199l-126 -593q-19 -88 -46 -127q-23 -33 -66 -54q-39 -20 -81 -20q-66 0 -100 50q-19 28 -19 70q0 26 12 81l126 593q18 87 46 126q23 33 66 55q39 19 81 19q66 0 100 -50q19 -28 19 -69q0 -25 -12 -81zM190 300q73 0 112 -56q23 -34 23 -79q0 -63 -42 -117
q-64 -82 -164 -82q-74 0 -112 56q-23 34 -23 80q0 64 42 116q67 82 164 82z" />
    <glyph glyph-name="quotedbl" unicode="&#x22;" horiz-adv-x="901" 
d="M209 1043l35 163q15 75 39 108q19 28 57 46q33 17 69 17q57 0 86 -43q16 -23 16 -59q0 -22 -11 -69l-34 -163q-16 -75 -39 -108q-20 -28 -57 -46q-34 -17 -70 -17q-56 0 -85 43q-16 23 -16 59q0 22 10 69zM605 1043l35 163q15 75 39 108q20 28 57 46q33 17 69 17
q57 0 86 -43q16 -24 16 -59q0 -21 -11 -69l-34 -163q-16 -75 -40 -108q-19 -28 -56 -46q-34 -17 -69 -17q-57 0 -86 43q-16 23 -16 59q0 22 10 69z" />
    <glyph glyph-name="numbersign" unicode="#" horiz-adv-x="1147" 
d="M619 926h230l111 179q15 26 24 37q23 25 58 25q25 0 40 -16t15 -36q0 -21 -24 -60l-79 -129h100q75 0 75 -54q0 -37 -33 -62q-22 -17 -70 -17h-157l-139 -226h107q74 0 74 -53q0 -36 -32 -61q-21 -16 -70 -16h-160l-112 -183q-21 -37 -38 -49q-19 -13 -44 -13t-40 15
q-16 17 -15 36q1 22 24 60l82 134h-227l-113 -183q-22 -36 -39 -49q-18 -13 -45 -13q-25 0 -40 16t-15 36q0 21 24 61l81 132h-104q-74 0 -74 53q0 36 32 61q21 16 69 16h161l140 226h-107q-75 0 -75 54q0 37 33 63q21 16 70 16h160l112 180q15 26 24 36q23 25 57 25
q25 0 40 -16t15 -34q0 -22 -25 -61zM539 793l-140 -226h228l140 226h-228z" />
    <glyph glyph-name="dollar" unicode="$" horiz-adv-x="1120" 
d="M818 1386q250 -43 250 -168q0 -53 -41 -103q-55 -67 -137 -67q-32 0 -57 8q-8 2 -68 23q-57 20 -103 20q-82 0 -138 -52q-43 -40 -43 -80q0 -25 16 -46q17 -24 86 -43q55 -16 159 -54q168 -62 223 -154q37 -63 37 -144t-32 -171q-67 -189 -225 -282q-83 -48 -222 -79
l-23 -108q-13 -59 -31 -84q-34 -49 -97 -49q-44 0 -67 33q-12 18 -12 46q0 17 8 54l20 97q-118 10 -211 48q-127 51 -127 146q0 43 28 87q55 88 145 88q32 0 62 -11l100 -36q78 -29 151 -29q109 0 169 82q29 39 29 84q0 49 -45 76q-46 28 -173 66q-138 40 -179 66
q-128 79 -128 236q0 80 35 164q74 175 238 266q77 43 204 68l21 96q12 58 30 84q35 49 98 49q43 0 66 -33q12 -18 12 -46q0 -18 -7 -54z" />
    <glyph glyph-name="percent" unicode="%" horiz-adv-x="1639" 
d="M512 1402q121 0 189 -106q49 -77 49 -198q0 -196 -103 -375q-57 -100 -141 -155q-90 -59 -187 -59q-121 0 -188 106q-49 78 -49 189q0 106 38 233q52 172 152 263q111 102 240 102zM475 1214q-104 0 -159 -199q-32 -117 -32 -198q0 -116 77 -116q91 0 144 154
q46 134 46 242q0 117 -76 117zM1343 883q122 0 189 -106q49 -77 49 -198q0 -196 -103 -375q-57 -99 -141 -154q-90 -59 -187 -59q-120 0 -188 106q-49 78 -49 189q0 106 38 232q53 172 152 263q111 102 240 102zM1305 695q-104 0 -158 -199q-32 -117 -32 -196
q0 -117 77 -117q92 0 144 153q46 134 46 242q0 117 -77 117zM385 127l722 1181q31 54 56 72q27 20 65 20q36 0 58 -23q23 -23 23 -53q0 -31 -36 -88l-723 -1182q-31 -54 -55.5 -72.5t-64.5 -18.5q-37 0 -59 23q-23 25 -22 53q1 31 36 88z" />
    <glyph glyph-name="ampersand" unicode="&#x26;" horiz-adv-x="1371" 
d="M789 747l150 -210l140 121q51 44 104 44q49 0 78 -33q27 -30 27 -74q0 -47 -28 -86q-21 -29 -108 -107l-64 -59l67 -87q50 -66 50 -109q0 -47 -34 -96q-53 -76 -153 -76q-53 0 -113 79l-72 95q-100 -71 -167 -103q-164 -80 -320 -80q-175 0 -288 110q-88 86 -88 222
q0 164 115 310q64 81 164 143q35 23 108 61q-68 97 -68 210q0 162 139 268q74 57 185 87q86 22 174 22q184 0 279 -97q64 -65 64 -162q0 -126 -103 -242q-81 -91 -238 -151zM665 911q169 78 169 165q0 34 -25 57q-25 25 -71 25q-60 0 -103 -44q-34 -35 -34 -74q0 -31 20 -61
zM479 629q-104 -71 -145 -119q-53 -59 -53 -134q0 -51 27 -82q46 -54 126 -54q76 0 175 53q28 16 83 50z" />
    <glyph glyph-name="quotesingle" unicode="'" horiz-adv-x="505" 
d="M209 1043l35 163q15 75 39 108q19 28 57 46q33 17 69 17q57 0 86 -43q16 -23 16 -59q0 -22 -11 -69l-34 -163q-16 -75 -39 -108q-20 -28 -57 -46q-34 -17 -70 -17q-56 0 -85 43q-16 23 -16 59q0 22 10 69z" />
    <glyph glyph-name="parenleft" unicode="(" horiz-adv-x="587" 
d="M542 1420q46 0 74 -27q31 -30 31 -74q0 -29 -33 -86q-159 -276 -235 -564q-78 -299 -78 -549q0 -91 20 -260q4 -29 4 -49q0 -43 -33 -81q-48 -57 -120 -57q-65 0 -87 52q-22 51 -31 125q-18 148 -18 272q0 292 108 651q63 206 206 472q61 115 109 148q38 27 83 27z" />
    <glyph glyph-name="parenright" unicode=")" horiz-adv-x="589" 
d="M373 1420q65 0 87 -52q22 -51 31 -124q18 -150 18 -273q0 -291 -108 -651q-65 -216 -205 -472q-64 -116 -109 -148q-38 -27 -83 -27q-46 0 -74 27q-31 31 -31 74q0 29 33 86q158 276 233 564q78 297 78 549q0 99 -19 260q-4 29 -4 50q0 43 33 80q51 57 120 57z" />
    <glyph glyph-name="asterisk" unicode="*" horiz-adv-x="791" 
d="M597 1182l86 68q28 22 59 22q52 0 75 -44q12 -24 12 -51q0 -75 -72 -101l-109 -40l82 -32q53 -21 53 -66q0 -44 -26 -80q-42 -56 -106 -56q-31 0 -49 17l-68 68l-6 -90q-4 -55 -29 -86q-36 -43 -97 -43q-41 0 -65 25q-18 18 -18 51q0 25 10 53l33 90l-98 -68
q-24 -17 -56 -17q-44 0 -70 38q-14 21 -14 49q0 84 92 115l95 32l-92 40q-38 16 -38 59q0 36 25 74q43 63 110 63q32 0 51 -22l58 -68l10 97q6 53 24 77q31 43 96 43q84 0 84 -66q0 -15 -12 -54z" />
    <glyph glyph-name="plus" unicode="+" horiz-adv-x="1092" 
d="M441 595h-256q-54 0 -77 13q-32 19 -32 64q0 52 48 89q30 24 101 24h256l58 270q11 55 29 79q33 47 93 47q41 0 63 -32q12 -17 12 -43q0 -16 -7 -51l-58 -270h257q64 0 86 -20q22 -22 22 -57q0 -53 -47 -89q-31 -24 -102 -24h-256l-58 -270q-11 -56 -29 -80
q-33 -47 -93 -47q-41 0 -63 32q-12 18 -12 44q0 16 7 51z" />
    <glyph glyph-name="comma" unicode="," horiz-adv-x="547" 
d="M-111 -89l252 320q53 68 133 68q57 0 89 -39q29 -36 29 -81q0 -42 -34 -86l-246 -320q-55 -72 -136 -72q-63 0 -96 40q-27 33 -27 77q0 47 36 93z" />
    <glyph glyph-name="hyphen" unicode="-" horiz-adv-x="505" 
d="M183 694h162q88 0 117 -27q30 -29 30 -77q0 -73 -64 -121q-41 -32 -137 -32h-163q-87 0 -116 28q-30 28 -30 76q0 72 64 121q41 32 137 32z" />
    <glyph glyph-name="period" unicode="." horiz-adv-x="546" 
d="M200 300q73 0 112 -56q23 -34 23 -79q0 -63 -42 -117q-64 -82 -164 -82q-74 0 -112 56q-23 34 -23 80q0 64 42 116q67 82 164 82z" />
    <glyph glyph-name="slash" unicode="/" horiz-adv-x="916" 
d="M973 1215l-885 -1413q-27 -44 -41 -60q-34 -37 -84 -37q-37 0 -58 23q-22 23 -22 49q0 32 42 99l886 1413q26 44 40 60q33 37 84 37q37 0 58 -23q22 -24 22 -50q0 -32 -42 -98z" />
    <glyph glyph-name="zero" unicode="0" horiz-adv-x="1201" 
d="M763 1399q120 0 216 -80q114 -95 148 -282q11 -60 11 -137q0 -198 -78 -407q-117 -313 -302 -430q-152 -97 -305 -97q-140 0 -245 103q-64 64 -100 174q-30 89 -30 185q0 207 78 435q107 313 304 439q152 97 303 97zM701 1093q-61 0 -123 -65q-93 -98 -145 -318
q-32 -137 -32 -235q0 -118 47 -171q27 -31 73 -31q114 0 210 214q85 190 85 390q0 216 -115 216z" />
    <glyph glyph-name="one" unicode="1" horiz-adv-x="724" 
d="M344 1089h-64q-94 0 -125 30q-33 30 -33 82q0 77 69 130q44 34 147 34h176q55 0 76 -4q55 -9 81 -59q13 -23 13 -54q0 -25 -12 -83l-208 -978q-20 -91 -48 -130q-24 -34 -69 -57q-40 -20 -84 -20q-68 0 -103 52q-20 29 -20 72q0 25 12 83z" />
    <glyph glyph-name="two" unicode="2" horiz-adv-x="1065" 
d="M447 276h296q94 0 125 -30q32 -30 32 -82q0 -77 -68 -130q-45 -34 -147 -34h-588q-71 0 -99 17q-50 31 -50 89q0 36 21 74q21 36 98 103l389 356q165 152 232 251q43 64 43 123q0 36 -18 61q-30 40 -84 40q-113 0 -182 -139q-38 -76 -51.5 -97.5t-32.5 -37.5
q-44 -37 -101 -37q-71 0 -102 46q-17 27 -17 67q0 62 40 148q84 179 259 269q127 66 262 66q180 0 283 -125q72 -87 72 -200q0 -120 -69 -250q-54 -100 -106 -155q-214 -224 -268 -277q-64 -61 -112 -87q-28 -15 -57 -29z" />
    <glyph glyph-name="three" unicode="3" horiz-adv-x="1133" 
d="M842 754q97 -65 133 -141q29 -58 29 -123q0 -94 -46 -196q-78 -172 -250 -260q-134 -68 -289 -68q-163 0 -267 79q-76 58 -115 152q-23 57 -23 110q0 85 71 138q50 38 109 38t88 -43q8 -11 33 -83q20 -54 68 -81q39 -21 83 -21q101 0 168 82q49 60 49 134q0 47 -26 73
q-31 33 -114 40q-76 7 -104 33q-31 29 -31 77q0 54 40 105q21 27 60 41q9 3 83 23q164 44 164 164q0 41 -32 64q-31 21 -69 21q-51 0 -105 -35q-23 -14 -73 -60q-81 -75 -157 -75q-57 0 -88 42q-20 29 -20 69q0 35 23 83q53 113 188 184q150 79 308 79q102 0 187 -47
q143 -80 143 -248q0 -126 -77 -232q-37 -50 -84 -83l-34 -21z" />
    <glyph glyph-name="four" unicode="4" horiz-adv-x="1092" 
d="M518 294h-397q-141 0 -141 107q0 45 33 89l562 746q64 85 123 116q66 34 132 34q95 0 137 -69q30 -48 30 -114q0 -23 -5 -47l-125 -589h33q58 0 86 -28q31 -32 31 -81q0 -59 -52 -110q-54 -54 -139 -54h-18l-25 -120q-18 -85 -44 -123q-23 -31 -65 -52q-37 -19 -78 -19
q-64 0 -97 49q-18 26 -18 67q0 25 11 78zM576 567l91 430l-317 -430h226z" />
    <glyph glyph-name="five" unicode="5" horiz-adv-x="1092" 
d="M596 1089l-57 -175q81 21 139 21q176 0 265 -124q60 -84 60 -196q0 -120 -52 -251q-80 -202 -243 -304q-150 -94 -329 -94q-194 0 -326 110q-74 61 -74 131q0 50 33 97q54 80 140 80q32 0 65 -18q10 -5 76 -51q62 -42 142 -42q111 0 190 115q50 73 50 163q0 133 -136 133
q-40 0 -81 -13q-10 -3 -94 -40q-33 -15 -69 -15q-47 0 -78 32q-26 26 -26 61q0 24 15 70l144 435q50 151 178 151h449q92 0 124 -30t32 -82q0 -78 -68 -130q-45 -34 -147 -34h-322z" />
    <glyph glyph-name="six" unicode="6" horiz-adv-x="1092" 
d="M587 863q65 19 114 19q151 0 245 -111q80 -95 80 -224q0 -105 -47 -215q-84 -196 -253 -288q-144 -78 -310 -78q-187 0 -298 108q-108 107 -108 268q0 186 161 440q163 256 433 488q82 71 137 102q49 27 100 27t86 -33t35 -80q0 -39 -27 -79q-28 -42 -65 -74l-80 -70
q-60 -52 -203 -200zM557 624q-94 0 -167 -86q-50 -59 -50 -126q0 -53 28 -89q39 -50 114 -50q93 0 166 85q51 59 51 129q0 52 -28 86q-40 51 -114 51z" />
    <glyph glyph-name="seven" unicode="7" horiz-adv-x="1010" 
d="M694 1089h-388q-93 0 -125 30t-32 82q0 77 69 130q44 34 147 34h581q140 0 140 -128q0 -45 -48 -118l-660 -1016q-52 -80 -91 -104q-43 -26 -95 -26q-58 0 -96 40q-35 36 -35 84q0 21 12 52q14 34 23 46z" />
    <glyph glyph-name="eight" unicode="8" horiz-adv-x="1120" 
d="M895 750q61 -53 85 -94q43 -70 43 -155q0 -90 -39 -186q-74 -180 -238 -267q-155 -82 -331 -82q-147 0 -255 65q-162 97 -162 291q0 140 81 263q43 67 103 112q29 22 88 53q-51 59 -67 105q-13 39 -13 85q0 84 39 171q69 155 222 229q122 59 269 59q183 0 282 -97
q86 -85 86 -210q0 -95 -51 -199q-38 -76 -79 -108q-17 -14 -63 -35zM667 1134q-80 0 -137 -70q-38 -48 -38 -99q0 -43 27 -73q32 -35 83 -35q81 0 137 70q38 48 38 99q0 43 -27 73q-31 35 -83 35zM561 632q-105 0 -179 -93q-50 -61 -50 -129q0 -57 35 -96q42 -46 109 -46
q107 0 180 93q50 62 50 130q0 55 -35 95q-42 46 -110 46z" />
    <glyph glyph-name="nine" unicode="9" horiz-adv-x="1092" 
d="M535 502q-65 -19 -113 -19q-152 0 -246 111q-79 94 -79 225q0 104 47 214q84 196 253 288q144 78 310 78q187 0 298 -108q108 -106 108 -268q0 -186 -161 -440q-163 -257 -433 -488q-82 -71 -137 -102q-49 -27 -100 -27t-86 33t-35 80q0 39 27 79q27 42 65 74l80 71
q59 51 202 199zM642 1092q-94 0 -167 -85q-51 -59 -51 -128q0 -52 28 -88q40 -50 114 -50q94 0 167 86q50 59 50 127q0 53 -27 87q-40 51 -114 51z" />
    <glyph glyph-name="colon" unicode=":" horiz-adv-x="546" 
d="M327 894q73 0 112 -56q23 -34 23 -80q0 -63 -42 -117q-65 -82 -165 -82q-73 0 -111 56q-23 34 -23 80q0 64 42 117q66 82 164 82zM201 300q73 0 112 -56q23 -34 23 -79q0 -63 -42 -117q-64 -82 -164 -82q-74 0 -112 56q-23 34 -23 80q0 64 42 116q67 82 164 82z" />
    <glyph glyph-name="semicolon" unicode=";" horiz-adv-x="547" 
d="M373 894q73 0 112 -56q23 -34 23 -79q0 -62 -42 -117q-64 -82 -164 -82q-73 0 -111 56q-23 34 -23 80q0 64 42 116q66 82 163 82zM-111 -89l252 320q53 68 133 68q57 0 89 -39q29 -36 29 -81q0 -42 -34 -86l-246 -320q-55 -72 -136 -72q-63 0 -96 40q-27 33 -27 77
q0 47 36 93z" />
    <glyph glyph-name="less" unicode="&#x3c;" 
d="M1086 1256l-54 -257l-678 -303l549 -303l-54 -256l-792 451l46 218z" />
    <glyph glyph-name="equal" unicode="=" horiz-adv-x="1092" 
d="M915 772h-693q-54 0 -76 13q-32 19 -32 65q0 52 47 88q31 24 102 24h702q53 0 76 -13q32 -18 32 -64q0 -53 -47 -89q-31 -24 -111 -24zM843 431h-693q-54 0 -77 13q-32 19 -32 64q0 53 47 89q31 24 102 24h703q53 0 76 -13q32 -19 32 -64q0 -53 -47 -89q-31 -24 -111 -24
z" />
    <glyph glyph-name="greater" unicode="&#x3e;" 
d="M-39 136l55 257l677 303l-548 303l54 256l791 -451l-46 -218z" />
    <glyph glyph-name="question" unicode="?" horiz-adv-x="988" 
d="M389 300q73 0 112 -56q23 -34 23 -79q0 -63 -42 -117q-64 -82 -163 -82q-74 0 -112 56q-23 34 -23 80q0 63 42 116q66 82 163 82zM598 566q-15 -78 -44 -118q-23 -33 -66 -54q-39 -20 -81 -20q-65 0 -100 50q-19 28 -19 70q0 25 12 80l20 97q14 62 43 89q26 24 58 32
q19 5 54 11q120 19 175 88q37 46 37 102q0 46 -36 72q-37 28 -86 28q-50 0 -89 -24q-42 -26 -86 -72t-70 -61q-40 -23 -84 -23q-59 0 -92 39q-25 29 -25 74q0 50 33 112q63 117 201 190q135 71 283 71q202 0 316 -126q81 -89 81 -216q0 -106 -49 -210q-107 -225 -386 -281z
" />
    <glyph glyph-name="at" unicode="@" horiz-adv-x="1595" 
d="M842 387q-38 -48 -81 -66q-61 -24 -130 -24q-91 0 -152 53q-85 72 -85 187q0 118 67 249q75 148 216 228q109 62 216 62q68 0 111 -34q19 -15 42 -52q55 81 136 81q31 0 52 -19q25 -23 25 -54q0 -16 -7 -38l-151 -448q-10 -32 -10 -38q0 -16 25 -16q46 0 108 70
q146 162 146 364q0 139 -79 225q-108 117 -319 117q-299 0 -530 -267q-167 -193 -167 -425q0 -108 38 -196q72 -164 271 -201q89 -16 188 -16q56 0 116 9q55 8 176 44q36 10 67 10q34 0 54 -26q12 -16 12 -35q0 -69 -105 -111q-131 -52 -377 -52q-271 0 -417 119
q-122 99 -171 258q-27 87 -27 182q0 161 76 328q124 272 357 411q215 129 462 129q261 0 409 -158q125 -132 125 -326q0 -205 -125 -388q-158 -230 -434 -230q-77 0 -107 36q-14 16 -21 58zM850 874q-85 0 -157 -86q-72 -85 -72 -187t102 -102q75 0 155 84q31 33 51 82
q24 59 24 106q0 50 -32 79q-27 24 -71 24z" />
    <glyph glyph-name="A" unicode="A" horiz-adv-x="1243" 
d="M803 261h-525l-58 -119q-41 -86 -81 -122q-46 -43 -113 -43q-53 0 -89 32q-42 37 -42 88q0 49 52 139l565 981q101 175 266 175q91 0 142 -55q45 -49 56 -120l148 -981q7 -47 7 -65q0 -87 -62 -142q-57 -52 -135 -52q-113 0 -123 165zM768 541l-55 519l-276 -519h331z
" />
    <glyph glyph-name="B" unicode="B" horiz-adv-x="1163" 
d="M857 754q102 -33 151 -88q66 -74 66 -178q0 -162 -114 -302q-74 -91 -185 -141q-103 -45 -214 -45h-374q-63 0 -87 4q-62 11 -93 67q-14 27 -14 62q0 27 14 95l194 910q25 116 65 158q65 69 173 69h38h274q129 0 195 -36q93 -50 125 -148q13 -39 13 -87q0 -123 -74 -222
q-51 -69 -153 -118zM331 273h216q76 0 116 28q84 59 84 155q0 51 -23 76q-31 35 -122 35h-209zM453 847h157q80 0 129 64q34 44 34 89q0 37 -25 59q-36 33 -100 33h-143z" />
    <glyph glyph-name="C" unicode="C" horiz-adv-x="1171" 
d="M871 1399q175 0 287 -65q79 -46 79 -122q0 -71 -53 -127q-42 -44 -107 -44q-37 0 -108 31q-78 34 -155 34q-187 0 -320 -165q-69 -86 -105 -212q-29 -100 -29 -193q0 -171 110 -235q70 -41 161 -41q81 0 133 21l102 41q40 16 72 16q50 0 80 -41q20 -29 20 -70
q0 -94 -88 -159q-72 -52 -187 -80q-89 -22 -189 -22q-228 0 -364 110q-93 75 -143 200q-44 108 -44 222q0 204 91 406q117 260 345 388q191 107 412 107z" />
    <glyph glyph-name="D" unicode="D" horiz-adv-x="1304" 
d="M8 233l193 905q25 116 65 158q65 69 173 69h38h257q264 0 407 -126q154 -136 154 -391q0 -173 -68 -343q-120 -299 -371 -423q-172 -85 -366 -82l-305 5q-62 0 -86 5q-61 11 -91 67q-14 27 -14 60q0 28 14 96zM331 273h156q222 0 355 177q63 84 94 197q23 86 23 163
q0 127 -67 199q-49 53 -124 69q-64 14 -143 14h-120z" />
    <glyph glyph-name="E" unicode="E" horiz-adv-x="943" 
d="M504 1085l-56 -260h262q95 0 126 -30q33 -31 33 -84q0 -78 -69 -131q-46 -35 -150 -35h-261l-56 -265h292q96 0 127 -30q33 -32 33 -84q0 -78 -70 -131q-45 -35 -149 -35h-379q-63 0 -87 4q-62 11 -93 67q-14 27 -14 62q0 27 14 95l194 909q25 117 65 159q65 69 173 69
h38h379q95 0 126 -30q33 -32 33 -83q0 -79 -70 -132q-45 -35 -149 -35h-292z" />
    <glyph glyph-name="F" unicode="F" horiz-adv-x="935" 
d="M504 1085l-58 -271h248q95 0 126 -30q33 -31 33 -83q0 -79 -69 -132q-46 -35 -150 -35h-247l-74 -345q-19 -91 -47 -132q-25 -34 -70 -56q-41 -21 -85 -21q-68 0 -104 52q-20 29 -20 73q0 25 12 84l202 948q25 117 65 159q65 69 173 69h38h385q95 0 126 -30
q33 -32 33 -84q0 -78 -70 -131q-45 -35 -149 -35h-298z" />
    <glyph glyph-name="G" unicode="G" horiz-adv-x="1372" 
d="M992 528h-151q-79 0 -112 19q-48 28 -48 95q0 78 70 131q45 35 149 35h305q135 0 135 -120q0 -91 -55 -225q-103 -253 -310 -383q-180 -114 -404 -114q-307 0 -456 221q-92 136 -92 314q0 187 81 375q113 260 336 396q207 127 452 127q208 0 353 -100q104 -72 104 -157
q0 -71 -62 -123q-52 -42 -108 -42q-38 0 -83 27q-10 6 -88 63q-29 22 -86 38q-50 14 -101 14q-110 0 -211 -73q-139 -100 -200 -256q-48 -122 -48 -249q0 -179 106 -250q68 -45 169 -45q241 0 355 282z" />
    <glyph glyph-name="H" unicode="H" horiz-adv-x="1399" 
d="M971 560h-580l-79 -371q-19 -91 -47 -132q-25 -34 -70 -56q-41 -21 -85 -21q-68 0 -104 52q-20 29 -20 73q0 26 12 84l210 987q20 92 48 132q25 34 70 57q41 20 85 20q68 0 104 -52q20 -29 20 -73q0 -25 -13 -84l-71 -336h580l72 336q19 92 48 132q24 34 69 57
q41 20 85 20q68 0 104 -52q20 -29 20 -73q0 -26 -12 -84l-210 -987q-20 -91 -48 -132q-25 -34 -70 -57q-41 -20 -85 -20q-68 0 -104 53q-20 28 -20 72q0 26 13 84z" />
    <glyph glyph-name="I" unicode="I" horiz-adv-x="504" 
d="M-2 189l210 987q20 92 48 132q25 34 70 57q41 20 85 20q68 0 104 -52q20 -29 20 -73q0 -26 -13 -84l-210 -987q-19 -91 -47 -132q-25 -34 -70 -56q-41 -21 -85 -21q-68 0 -104 53q-20 29 -20 72q0 26 12 84z" />
    <glyph glyph-name="J" unicode="J" horiz-adv-x="830" 
d="M848 1176l-157 -742q-53 -247 -160 -350q-57 -55 -148 -86q-92 -32 -192 -32q-156 0 -252 69q-67 49 -67 118q0 55 38 105q55 70 142 70q41 0 93 -34q53 -35 88 -35q58 0 97 54q30 42 47 121l157 742q20 92 49 132q24 34 69 57q41 20 85 20q68 0 104 -52q20 -29 20 -73
q0 -26 -13 -84z" />
    <glyph glyph-name="K" unicode="K" horiz-adv-x="1229" 
d="M404 613l-91 -424q-19 -91 -47 -132q-25 -34 -70 -56q-41 -21 -85 -21q-68 0 -104 52q-20 29 -20 73q0 26 12 84l210 987q20 92 48 132q25 34 70 57q41 20 85 20q68 0 104 -52q20 -29 20 -73q0 -26 -13 -84l-74 -349l500 452q49 52 76 68q62 39 116 39q56 0 92 -42
q26 -29 26 -74q0 -57 -29 -101q-26 -38 -103 -102l-400 -334l322 -441q58 -79 58 -125q0 -63 -34 -113q-52 -75 -145 -75q-48 0 -74 17q-36 24 -79 86z" />
    <glyph glyph-name="L" unicode="L" horiz-adv-x="848" 
d="M332 280h293q95 0 126 -30q33 -32 33 -84q0 -78 -69 -131q-46 -35 -150 -35h-370q-65 0 -90 4q-65 11 -96 70q-15 28 -15 64q0 28 15 99l200 939q19 92 48 132q24 34 69 57q41 20 85 20q68 0 104 -52q20 -29 20 -73q0 -26 -12 -84z" />
    <glyph glyph-name="M" unicode="M" horiz-adv-x="1667" 
d="M480 807l-238 -643q-33 -91 -67 -127q-52 -57 -135 -57q-37 0 -67 18q-59 34 -59 101q0 37 29 115l374 993q33 89 87 127q71 52 159 52q75 0 120 -41q42 -39 48 -93l80 -703l355 673q85 163 241 163q79 0 128 -52q51 -52 45 -106q-1 -4 -1 -5l-38 -1005q-3 -66 -12 -96
q-25 -87 -107 -124q-37 -17 -76 -17q-56 0 -90 30q-44 38 -40 112l2 42l31 643l-329 -642q-42 -81 -56.5 -103.5t-36.5 -40.5q-53 -41 -127 -41q-64 0 -100 32q-37 33 -46 116z" />
    <glyph glyph-name="N" unicode="N" horiz-adv-x="1394" 
d="M449 827l-136 -638q-19 -91 -47 -132q-25 -34 -70 -56q-41 -21 -85 -21q-68 0 -104 52q-20 29 -20 73q0 26 12 84l221 1036q15 73 64 116q49 44 126 44q74 0 114 -69l443 -759l131 619q20 91 48 132q25 34 70 57q41 20 85 20q68 0 104 -52q20 -29 20 -73q0 -26 -13 -84
l-216 -1017q-19 -89 -69 -133q-52 -46 -118 -46q-57 0 -91 39q-13 15 -47 74z" />
    <glyph glyph-name="O" unicode="O" horiz-adv-x="1418" 
d="M870 1399q302 0 450 -218q92 -134 92 -316q0 -177 -72 -359q-118 -294 -364 -435q-185 -105 -405 -105q-297 0 -447 205q-101 137 -101 324q0 189 76 376q115 284 371 425q188 103 400 103zM814 1119q-108 0 -213 -73q-129 -91 -190 -246q-49 -126 -49 -266
q0 -157 89 -229q72 -59 175 -59q193 0 332 200q116 167 116 387q0 162 -91 231q-73 55 -169 55z" />
    <glyph glyph-name="P" unicode="P" horiz-adv-x="1131" 
d="M374 448l-55 -259q-19 -91 -47 -132q-25 -34 -70 -56q-41 -21 -85 -21q-68 0 -104 52q-20 29 -20 73q0 26 12 84l202 949q25 116 65 158q65 69 173 69h38h283q152 0 237 -47q109 -60 150 -192q18 -59 18 -125q0 -91 -40 -193q-140 -360 -519 -360h-238zM433 721h158
q126 0 205 95q48 58 48 132q0 144 -158 144h-175z" />
    <glyph glyph-name="Q" unicode="Q" horiz-adv-x="1494" 
d="M924 45q-175 -79 -348 -79q-270 0 -424 174q-127 145 -127 371q0 181 75 361q115 276 344 410q198 117 430 117q278 0 428 -193q113 -144 113 -356q0 -157 -64 -322q-46 -120 -111 -210q-20 -27 -63 -79l67 -68q62 -64 62 -118q0 -35 -26 -79q-30 -52 -87 -75
q-34 -14 -67 -14q-52 0 -115 68zM730 264l-43 50q-23 27 -23 71q0 66 60 120q49 45 109 45q51 0 100 -53l37 -39q110 172 110 370q0 116 -47 189q-66 102 -216 102q-189 0 -332 -186q-60 -79 -93 -189q-31 -105 -31 -208q0 -138 71 -215q68 -75 203 -75q45 0 95 18z" />
    <glyph glyph-name="R" unicode="R" horiz-adv-x="1164" 
d="M391 556l-78 -367q-19 -91 -47 -132q-25 -34 -70 -56q-41 -21 -85 -21q-68 0 -104 52q-20 29 -20 73q0 26 12 84l202 949q25 116 65 158q65 69 173 69h38h278q206 0 312 -108q87 -88 87 -224q0 -185 -124 -325q-67 -76 -168 -112q-39 -14 -118 -29l204 -294
q48 -69 48 -115q0 -55 -42 -109q-57 -72 -150 -72q-52 0 -91 44q-22 24 -40 54zM438 774h195q97 0 162 76q43 51 43 111q0 57 -35 92q-38 39 -109 39h-189z" />
    <glyph glyph-name="S" unicode="S" horiz-adv-x="1094" 
d="M727 1399q167 0 273 -66q65 -41 65 -108q0 -49 -33 -97q-53 -75 -140 -75q-30 0 -50 7l-53 21q-67 25 -130 25q-102 0 -157 -59q-31 -34 -31 -73q0 -38 27 -59q31 -26 77 -39l78 -22q188 -55 274 -142q76 -76 76 -198q0 -83 -34 -174q-71 -189 -218 -279
q-154 -95 -375 -95q-201 0 -332 72q-87 48 -87 132q0 55 39 106q53 70 131 70q39 0 76 -15l99 -41q73 -30 148 -30q105 0 165 70q42 48 42 101q0 45 -35 71q-32 24 -80 41l-121 40q-132 42 -183 73q-116 73 -116 212q0 107 48 211q80 170 263 256q136 64 294 64z" />
    <glyph glyph-name="T" unicode="T" horiz-adv-x="993" 
d="M751 1085l-191 -896q-19 -91 -48 -132q-24 -34 -69 -56q-41 -21 -85 -21q-68 0 -104 52q-20 29 -20 73q0 26 12 84l191 896h-156q-95 0 -127 30q-33 31 -33 84q0 78 70 131q45 35 149 35h620q95 0 126 -30q33 -31 33 -84q0 -78 -70 -131q-45 -35 -149 -35h-149z" />
    <glyph glyph-name="U" unicode="U" horiz-adv-x="1352" 
d="M1384 1176l-123 -577q-42 -197 -101 -296q-98 -165 -292 -258q-164 -79 -339 -79q-177 0 -303 89q-141 99 -175 262q-9 42 -9 85q0 52 14 116l140 658q19 91 48 132q24 34 69 57q41 20 85 20q68 0 104 -52q20 -29 20 -73q0 -26 -12 -84l-131 -613q-10 -49 -10 -92
q0 -116 72 -166q66 -46 152 -46q139 0 244 109q53 55 78 119q18 48 32 112l123 577q19 91 48 132q24 34 69 57q41 20 85 20q68 0 104 -52q20 -29 20 -73q0 -26 -12 -84z" />
    <glyph glyph-name="V" unicode="V" horiz-adv-x="1223" 
d="M587 524l417 710q35 63 57 88q56 65 136 65q59 0 97 -38q37 -37 37 -86q0 -48 -57 -142l-622 -1020q-46 -75 -78 -97q-48 -31 -106 -31q-56 0 -87 34q-28 30 -36 72l-192 1042q-9 49 -9 73q0 79 56 134q60 59 141 59q105 0 130 -153z" />
    <glyph glyph-name="W" unicode="W" horiz-adv-x="1773" 
d="M918 797l-327 -630q-61 -118 -131 -156q-59 -31 -137 -31q-67 0 -114 43q-46 42 -47 96l-33 1031l-1 39q0 103 73 160q51 40 115 40q61 0 93 -37q31 -36 33 -130l13 -721l392 743q43 82 94 113q46 28 101 28q123 0 138 -141l78 -743l313 717q39 89 75 124q50 48 126 48
q42 0 74 -23q51 -37 51 -94q0 -42 -39 -126l-451 -996q-77 -171 -243 -171q-157 0 -175 171z" />
    <glyph glyph-name="X" unicode="X" horiz-adv-x="1251" 
d="M823 733l249 -459q37 -69 37 -111q0 -73 -64 -132q-57 -52 -130 -52q-60 0 -101 50q-19 24 -36 58l-194 379l-348 -377q-47 -55 -74 -75q-52 -36 -105 -36q-81 0 -116 68q-15 28 -15 63q0 65 96 165l440 459l-201 367q-36 66 -36 108q0 71 63 128q54 50 125 50
q60 0 99 -49q16 -20 35 -56l149 -288l257 281q46 55 73 75q51 37 107 37q82 0 116 -66q16 -29 16 -64q0 -67 -95 -164z" />
    <glyph glyph-name="Y" unicode="Y" horiz-adv-x="1179" 
d="M738 644l-97 -455q-19 -91 -48 -132q-24 -34 -67 -55.5t-87 -21.5q-68 0 -104 52q-20 29 -20 73q0 26 12 84l97 455l-233 451q-34 66 -34 108q0 74 66 132q54 49 125 49q62 0 101 -52q18 -23 34 -58l162 -331l315 335q47 55 74 74q51 35 103 35q83 0 117 -67
q15 -29 15 -63q0 -66 -96 -164z" />
    <glyph glyph-name="Z" unicode="Z" horiz-adv-x="1069" 
d="M328 280h478q95 0 126 -30q33 -31 33 -84q0 -78 -69 -131q-46 -35 -150 -35h-683q-78 0 -108 23q-61 44 -61 106q0 45 28 89q19 30 80 92l748 775h-443q-95 0 -126 30q-33 31 -33 84q0 78 69 131q46 35 150 35h648q66 0 90 -15q64 -39 64 -112q0 -76 -73 -153z" />
    <glyph glyph-name="bracketleft" unicode="[" horiz-adv-x="607" 
d="M503 1186l-271 -1273h57q63 0 90 -15q39 -21 39 -72q0 -60 -55 -100q-36 -26 -119 -26h-126q-90 0 -119 25q-37 31 -37 78q0 20 11 70l287 1353q15 66 30 94q30 52 89 69q32 10 100 10h126q63 0 90 -15q39 -21 39 -72q0 -60 -55 -99q-36 -27 -119 -27h-57z" />
    <glyph glyph-name="backslash" unicode="\" horiz-adv-x="916" 
d="M494 -198l-285 1413q-8 38 -8 54q0 48 32 80q36 37 86 37q51 0 72 -50q6 -15 12 -47l285 -1413q8 -39 8 -56q0 -47 -32 -79q-36 -37 -85 -37q-52 0 -72 51q-7 15 -13 47z" />
    <glyph glyph-name="bracketright" unicode="]" horiz-adv-x="607" 
d="M64 -87l271 1273h-56q-63 0 -90 15q-39 21 -39 72q0 60 55 100q36 26 119 26h126q90 0 119 -25q37 -31 37 -78q0 -20 -11 -70l-288 -1353q-14 -66 -29 -94q-30 -51 -89 -69q-32 -10 -101 -10h-125q-63 0 -90 15q-39 21 -39 72q0 60 55 100q36 26 119 26h56z" />
    <glyph glyph-name="asciicircum" unicode="^" 
d="M293 689h-271l476 684h340l185 -684h-272l-127 477z" />
    <glyph glyph-name="underscore" unicode="_" 
d="M-157 -96h1024l-50 -233h-1024z" />
    <glyph glyph-name="grave" unicode="`" 
d="M663 1169l-276 124q-58 27 -58 80q0 40 29 76q38 47 95 47q22 0 38 -7l282 -126q62 -28 62 -80q0 -36 -26 -71q-38 -51 -102 -51q-27 0 -44 8z" />
    <glyph glyph-name="a" unicode="a" horiz-adv-x="1148" 
d="M644 105q-58 -64 -106 -88q-75 -37 -169 -37q-163 0 -270 117q-105 116 -105 284q0 139 54 275q79 202 262 316q138 86 285 86q98 0 162 -46q29 -21 67 -72q36 60 73 83q48 29 100 29q57 0 93 -43q28 -33 28 -74q0 -17 -4 -37l-156 -735q-19 -87 -74 -134
q-50 -43 -116 -43q-103 0 -124 119zM572 778q-118 0 -203 -118q-69 -97 -69 -223q0 -95 50 -139q44 -38 111 -38q108 0 201 116q37 45 56 114q17 61 17 115q0 94 -59 140q-42 33 -104 33z" />
    <glyph glyph-name="b" unicode="b" horiz-adv-x="1133" 
d="M459 970q138 88 261 88q181 0 290 -154q78 -110 78 -252q0 -124 -50 -253q-90 -229 -264 -336q-134 -83 -281 -83q-101 0 -165 46q-31 22 -58 73q-66 -113 -165 -113q-60 0 -96 39q-30 32 -30 78q0 23 4 43l246 1156q18 87 46 126q23 33 66 54q39 20 81 20q65 0 100 -50
q19 -27 19 -69q0 -26 -12 -81zM627 778q-67 0 -134 -50q-141 -107 -141 -290q0 -96 60 -143q45 -35 101 -35q72 0 140 57q74 62 107 157q21 58 21 120q0 93 -48 141q-43 43 -106 43z" />
    <glyph glyph-name="c" unicode="c" horiz-adv-x="936" 
d="M634 1058q151 0 248 -62q60 -37 60 -107q0 -44 -27 -88q-48 -76 -123 -76q-30 0 -103 30q-58 23 -103 23q-118 0 -213 -117q-74 -91 -74 -224q0 -106 75 -150q48 -28 108 -28q58 0 126 29q61 26 91 26q53 0 78 -37q22 -30 22 -71q0 -64 -53 -117q-43 -43 -136 -74
q-108 -36 -219 -36q-167 0 -273 101q-127 119 -127 295q0 137 60 285q87 212 271 313q155 85 312 85z" />
    <glyph glyph-name="d" unicode="d" horiz-adv-x="1134" 
d="M814 963l72 339q18 88 46 126q23 33 66 54q39 20 81 20q66 0 100 -50q19 -28 19 -69q0 -25 -12 -81l-243 -1144q-19 -89 -74 -134q-46 -38 -109 -38q-64 0 -94 34q-21 25 -31 85q-58 -62 -114 -87q-81 -38 -172 -38q-206 0 -300 191q-53 108 -53 233q0 138 64 275
q105 220 280 311q132 68 254 68q124 0 220 -95zM577 793q-66 0 -133 -50q-142 -107 -142 -290q0 -96 60 -143q45 -35 101 -35q73 0 140 57q75 63 109 157q20 58 20 120q0 94 -48 141q-44 43 -107 43z" />
    <glyph glyph-name="e" unicode="e" horiz-adv-x="1082" 
d="M310 419q12 -90 60 -131q53 -46 139 -46q65 0 136 27q19 6 131 56q34 15 69 15q48 0 74 -37q22 -30 22 -69q0 -79 -105 -146q-73 -48 -180 -78q-105 -30 -216 -30q-218 0 -335 123q-115 122 -115 279q0 132 65 281q92 211 279 314q148 81 306 81q211 0 325 -164
q72 -104 72 -247q0 -129 -40 -180q-37 -48 -126 -48h-561zM749 624q-4 96 -34 134q-43 54 -122 54q-144 0 -250 -188h406z" />
    <glyph glyph-name="f" unicode="f" horiz-adv-x="730" 
d="M522 765l-123 -578q-19 -88 -46 -127q-23 -32 -66 -54q-40 -20 -81 -20q-65 0 -100 50q-19 28 -19 70q0 27 11 81l123 578h-13q-93 0 -124 29q-32 30 -32 81q0 77 68 129q44 34 146 34h13l30 140q33 154 147 238q106 78 246 78q81 0 121 -37q29 -27 29 -68
q0 -56 -34 -104q-40 -56 -114 -61q-48 -3 -68 -17q-25 -19 -34 -63l-22 -106h52q93 0 124 -30q32 -30 32 -81q0 -77 -68 -129q-44 -33 -146 -33h-52z" />
    <glyph glyph-name="g" unicode="g" horiz-adv-x="1126" 
d="M811 940q45 64 80 86q42 26 87 26q47 0 79 -28q38 -34 38 -90q0 -21 -6 -47l-168 -794q-52 -243 -199 -372q-81 -71 -201 -111q-118 -38 -243 -38q-203 0 -342 86q-67 42 -67 110q0 49 30 87q54 69 136 69q27 0 48 -8l79 -29q97 -35 178 -35q146 0 225 100q36 46 71 164
q-73 -71 -122 -98q-72 -38 -161 -38q-146 0 -246 93q-116 106 -116 298q0 150 66 303q92 209 267 310q130 75 265 75q61 0 98 -18q28 -14 124 -101zM565 779q-110 0 -192 -111q-75 -102 -75 -238q0 -93 59 -137q44 -33 99 -33q113 0 201 124q66 94 66 212q0 110 -62 153
q-43 30 -96 30z" />
    <glyph glyph-name="h" unicode="h" horiz-adv-x="1120" 
d="M459 971q162 87 296 87q121 0 202 -64q97 -77 97 -200q0 -50 -14 -117l-104 -490q-19 -88 -46 -127q-23 -32 -67 -54q-39 -20 -81 -20q-65 0 -100 50q-19 29 -19 70q0 25 12 81l86 405q10 45 10 82q0 63 -48 98q-36 27 -85 27q-77 0 -145 -64q-55 -52 -70 -123l-90 -425
q-19 -88 -46 -127q-23 -32 -67 -54q-39 -20 -81 -20q-66 0 -100 50q-19 28 -19 70q0 25 12 81l237 1115q19 88 46 126q23 33 67 54q39 20 80 20q66 0 100 -50q19 -27 19 -69q0 -27 -11 -81z" />
    <glyph glyph-name="i" unicode="i" horiz-adv-x="526" 
d="M446 1501q76 0 117 -59q24 -35 24 -83q0 -65 -44 -122q-67 -86 -171 -86q-77 0 -117 59q-24 35 -24 83q0 67 44 122q69 86 171 86zM13 187l141 664q19 88 46 127q23 33 67 54q39 20 81 20q66 0 100 -50q19 -28 19 -70q0 -25 -12 -81l-141 -664q-19 -88 -46 -127
q-23 -33 -67 -54q-39 -20 -81 -20q-65 0 -100 51q-19 27 -19 69q0 25 12 81z" />
    <glyph glyph-name="j" unicode="j" horiz-adv-x="529" 
d="M448 1501q76 0 117 -59q24 -35 24 -83q0 -65 -44 -122q-67 -86 -171 -86q-77 0 -117 59q-24 35 -24 83q0 67 44 122q69 86 171 86zM-61 -223l228 1074q19 88 46 127q24 33 67 54q39 20 81 20q66 0 100 -50q19 -28 19 -70q0 -24 -12 -81l-228 -1074q-19 -88 -46 -126
q-23 -33 -67 -54q-39 -20 -81 -20q-65 0 -100 50q-19 28 -19 69q0 25 12 81z" />
    <glyph glyph-name="k" unicode="k" horiz-adv-x="1041" 
d="M358 493l-65 -306q-19 -88 -46 -127q-23 -32 -67 -54q-39 -20 -81 -20q-66 0 -100 50q-19 28 -19 70q0 25 12 81l237 1115q19 88 46 126q23 33 67 54q39 20 80 20q66 0 100 -50q19 -27 19 -69q0 -27 -11 -81l-129 -605l337 283q46 47 75 60q40 19 81 19q42 0 72 -24
q44 -36 44 -91q0 -67 -52 -123q-13 -15 -60 -47l-227 -180l194 -327q39 -66 39 -107q0 -57 -45 -110q-55 -65 -140 -65q-53 0 -91 44q-19 21 -37 53z" />
    <glyph glyph-name="l" unicode="l" horiz-adv-x="477" 
d="M530 1302l-237 -1115q-19 -88 -46 -127q-23 -32 -67 -54q-39 -20 -81 -20q-65 0 -100 50q-19 28 -19 70q0 25 12 81l237 1115q18 87 46 126q23 33 67 54q39 20 80 20q66 0 100 -50q19 -28 19 -69q0 -27 -11 -81z" />
    <glyph glyph-name="m" unicode="m" horiz-adv-x="1703" 
d="M450 954q137 104 288 104q116 0 193 -50q35 -22 66 -81q88 60 147 87q98 44 199 44q152 0 234 -101q61 -75 61 -174q0 -33 -8 -72l-111 -524q-19 -88 -46 -127q-23 -32 -67 -54q-39 -20 -81 -20q-65 0 -100 50q-19 29 -19 70q0 24 12 81l97 457q6 27 6 46q0 51 -42 84
q-32 25 -84 25q-68 0 -126 -48q-53 -42 -66 -107l-97 -457q-19 -88 -46 -127q-23 -32 -67 -54q-39 -20 -81 -20q-66 0 -100 50q-19 28 -19 70q0 25 12 81l91 427q8 38 8 71q0 61 -46 92q-32 22 -78 22q-67 0 -126 -50q-51 -44 -64 -105l-97 -457q-19 -88 -46 -127
q-23 -32 -67 -54q-39 -20 -81 -20q-65 0 -100 51q-19 27 -19 69q0 25 12 81l147 692q17 80 63 124q51 49 121 49q58 0 91 -40q14 -17 36 -58z" />
    <glyph glyph-name="n" unicode="n" horiz-adv-x="1116" 
d="M446 947q77 60 133 81q79 30 168 30q124 0 201 -57q104 -78 104 -198q0 -48 -16 -124l-104 -492q-19 -88 -46 -127q-23 -32 -67 -54q-39 -20 -81 -20q-66 0 -100 50q-19 28 -19 70q0 25 12 81l90 421q7 35 7 66q0 62 -46 98q-35 27 -89 27q-77 0 -140 -62
q-55 -54 -68 -116l-92 -434q-19 -88 -46 -127q-23 -32 -67 -54q-39 -20 -81 -20q-66 0 -100 50q-19 28 -19 70q0 25 12 81l146 688q19 87 69 131q52 46 122 46q96 0 117 -105z" />
    <glyph glyph-name="o" unicode="o" horiz-adv-x="1078" 
d="M632 1058q134 0 241 -80q156 -118 156 -332q0 -129 -54 -260q-83 -204 -247 -306q-160 -100 -334 -100q-137 0 -242 80q-156 117 -156 328q0 133 54 263q83 204 247 306q160 101 335 101zM565 778q-68 0 -138 -57q-129 -107 -129 -286q0 -87 51 -134q44 -41 101 -41
q62 0 127 44q81 55 123 153q27 65 27 133q0 80 -34 126q-20 27 -58 45q-36 17 -70 17z" />
    <glyph glyph-name="p" unicode="p" horiz-adv-x="1126" 
d="M442 938q34 40 55.5 57t60.5 31q86 33 176 33q156 0 252 -119q95 -116 95 -281q0 -123 -50 -254q-89 -231 -251 -335q-138 -90 -294 -90q-78 0 -137 28q-33 15 -83 60l-61 -291q-19 -87 -46 -126q-23 -33 -67 -54q-39 -20 -81 -20q-66 0 -100 50q-19 28 -19 70
q0 24 12 80l233 1097q38 178 183 178q49 0 78 -26q27 -24 44 -88zM613 779q-110 0 -196 -115q-73 -98 -73 -226q0 -106 60 -150q39 -28 96 -28q115 0 206 128q66 92 66 200q0 66 -26 115q-40 76 -133 76z" />
    <glyph glyph-name="q" unicode="q" horiz-adv-x="1129" 
d="M809 947q47 61 83 81q42 24 86 24q57 0 91 -36q30 -33 30 -83q0 -14 -4 -32l-239 -1124q-18 -87 -45 -126q-23 -33 -67 -54q-39 -20 -81 -20q-65 0 -100 50q-19 28 -19 69q0 26 12 81l62 294q-137 -92 -260 -92q-109 0 -209 70q-156 110 -156 337q0 129 57 265
q87 206 235 309q142 99 295 99q85 0 151 -42q31 -19 78 -70zM570 779q-115 0 -203 -126q-66 -94 -66 -208q0 -103 53 -148q44 -38 102 -38q78 0 149 58q72 59 106 156q21 61 21 126q0 91 -48 136q-47 44 -114 44z" />
    <glyph glyph-name="r" unicode="r" horiz-adv-x="748" 
d="M454 945q34 41 54 57q30 23 89 42q47 15 87 15q60 0 96 -42q29 -33 29 -83q0 -59 -38 -101q-25 -27 -74 -46q-14 -6 -73 -23q-114 -34 -177 -75q-34 -23 -50 -51q-14 -26 -24 -73l-80 -378q-19 -88 -46 -127q-23 -32 -67 -54q-39 -20 -81 -20q-66 0 -100 50
q-19 28 -19 70q0 25 12 81l147 693q18 83 62 122q55 50 126 50q98 0 127 -107z" />
    <glyph glyph-name="s" unicode="s" horiz-adv-x="892" 
d="M561 1059q148 0 239 -75q61 -50 61 -112q0 -34 -25 -74q-50 -77 -120 -77q-30 0 -55 11q-11 5 -64 31q-62 30 -109 30q-43 0 -71 -22q-21 -17 -21 -42t23 -42q22 -15 111 -54q107 -46 146 -77q98 -78 98 -182q0 -61 -30 -131q-62 -144 -192 -207q-115 -56 -251 -56
q-167 0 -278 82q-65 48 -65 115q0 37 28 78q52 77 127 77q34 0 62 -13l83 -41q65 -32 113 -32q54 0 87 39q17 21 17 42q0 15 -8 25q-17 22 -90 52q-114 46 -164 75q-116 67 -116 180q0 145 99 251q141 149 365 149z" />
    <glyph glyph-name="t" unicode="t" horiz-adv-x="725" 
d="M513 765l-122 -578q-19 -88 -46 -127q-23 -32 -67 -54q-39 -20 -81 -20q-65 0 -100 50q-19 28 -19 70q0 25 12 81l123 578q-104 -1 -136 36q-25 30 -25 75q0 50 35 95q50 65 149 67h35l33 154q19 88 46 126q23 33 66 55q39 19 81 19q66 0 100 -50q19 -28 19 -69
q0 -25 -12 -81l-33 -154h56q93 0 124 -29q32 -30 32 -82q0 -77 -68 -128q-44 -34 -146 -34h-56z" />
    <glyph glyph-name="u" unicode="u" horiz-adv-x="1111" 
d="M1067 851l-95 -446q-35 -165 -121 -253q-75 -76 -189 -123q-122 -50 -251 -50q-116 0 -217 52q-85 45 -132 129q-36 65 -36 139q0 49 12 106l95 446q19 88 46 127q23 33 66 54q39 20 81 20q66 0 100 -50q19 -28 19 -70q0 -26 -12 -81l-87 -409q-7 -35 -7 -59
q0 -59 52 -94q35 -24 84 -24q67 0 128 49q60 48 77 128l87 409q18 88 46 127q23 33 66 54q39 20 81 20q66 0 100 -50q19 -28 19 -70q0 -25 -12 -81z" />
    <glyph glyph-name="v" unicode="v" horiz-adv-x="1005" 
d="M455 448l248 450q47 90 85 121q45 35 112 35q55 0 90 -34q38 -38 38 -87q0 -48 -57 -141l-393 -641q-54 -88 -85 -116q-54 -49 -129 -49q-122 0 -149 144l-125 665q-9 48 -9 71q0 79 56 133q57 55 133 55q59 0 91 -39q28 -36 38 -115z" />
    <glyph glyph-name="w" unicode="w" horiz-adv-x="1526" 
d="M1024 452l226 445q44 87 81 119q45 39 114 39q49 0 82 -29q42 -37 42 -87q0 -46 -50 -135l-340 -605q-57 -101 -83 -131q-70 -82 -169 -82q-120 0 -141 160l-48 376l-174 -323q-60 -111 -102 -154q-58 -59 -141 -59q-66 0 -100 40q-41 50 -51 120l-92 661q-6 45 -6 61
q0 84 60 138q54 49 125 49q52 0 84 -31q34 -33 41 -125l39 -449l246 465q41 80 78 105q45 32 108 32q107 0 121 -137z" />
    <glyph glyph-name="x" unicode="x" horiz-adv-x="1072" 
d="M702 544l182 -267q47 -69 47 -114q0 -53 -41 -107q-56 -72 -149 -72q-70 0 -127 94l-142 236l-244 -235q-49 -52 -78 -69q-47 -27 -93 -27q-40 0 -71 21q-55 36 -55 106q0 58 51 116q14 17 60 56l299 262l-151 213q-48 68 -48 115q0 55 42 109q57 73 149 73q52 0 91 -44
q21 -23 39 -55l106 -184l187 181q48 52 77 69q47 28 94 28q40 0 71 -21q55 -36 55 -106q0 -59 -53 -118q-14 -17 -60 -56z" />
    <glyph glyph-name="y" unicode="y" horiz-adv-x="1018" 
d="M469 466l269 442q36 62 57 86q53 59 134 59q58 0 92 -37q35 -37 35 -80q0 -50 -59 -143l-690 -1092q-35 -60 -56 -83q-52 -56 -129 -56q-58 0 -92 37q-33 37 -33 78q0 51 58 141l177 277l-148 702q-10 49 -10 74q0 73 51 125q56 57 135 57q53 0 83 -34q30 -32 44 -108z
" />
    <glyph glyph-name="z" unicode="z" horiz-adv-x="919" 
d="M363 273h295q92 0 123 -29q32 -30 32 -82q0 -76 -68 -128q-44 -34 -145 -34h-581q-59 0 -81 9q-54 22 -54 75q0 50 56 109l541 573h-269q-93 0 -124 29q-32 31 -32 82q0 76 68 129q43 33 146 33h580q48 0 76 -29q26 -27 26 -61q0 -53 -66 -123z" />
    <glyph glyph-name="braceleft" unicode="{" horiz-adv-x="667" 
d="M318 550q49 -39 64 -73q15 -33 15 -75t-12 -99l-52 -244q-14 -65 -14 -101q0 -40 68 -46q63 -6 84 -28q20 -23 20 -59q0 -57 -55 -99q-32 -25 -132 -25q-122 0 -180 36q-73 46 -73 148q0 41 12 97l64 304q10 45 10 78q0 38 -19 59q-4 4 -36 29q-25 19 -25 48q0 69 36 122
q13 19 67 49q56 31 80 144l64 303q36 168 131 228q62 40 143 49q34 4 102 4q83 0 107 -27q21 -24 21 -60q0 -38 -28 -72q-24 -29 -49 -39t-71 -14q-44 -4 -62 -15t-30 -38q-14 -37 -26 -93l-52 -244q-18 -82 -47 -135q-23 -41 -53 -67q-23 -19 -72 -45z" />
    <glyph glyph-name="bar" unicode="|" 
d="M536 1365h259l-363 -1706h-259z" />
    <glyph glyph-name="braceright" unicode="}" horiz-adv-x="667" 
d="M310 550q-49 40 -64 73t-15 76t12 98l52 244q13 63 13 101q0 40 -68 46q-63 5 -83 29q-21 23 -21 58q0 57 55 99q33 25 132 25q122 0 180 -36q73 -46 73 -148q0 -44 -11 -97l-65 -303q-10 -49 -10 -81q0 -35 19 -57q6 -5 36 -28q26 -19 26 -48q0 -70 -36 -122
q-13 -19 -67 -49q-56 -33 -80 -144l-65 -304q-35 -169 -130 -228q-62 -40 -143 -49q-34 -4 -102 -4q-83 0 -107 27q-21 24 -21 60q0 38 28 72q23 29 49 39q25 10 72 14q47 5 67 19q27 19 50 127l52 244q17 82 46 135q23 41 54 67q22 20 72 45z" />
    <glyph glyph-name="asciitilde" unicode="~" horiz-adv-x="1365" 
d="M435 1150l-123 93l23 35q54 86 81 118q111 130 264 130q70 0 203 -53q88 -36 111 -41q30 -8 56 -8q57 0 109 42q27 22 63 63l129 -85q-60 -90 -92 -128q-80 -94 -193 -128q-50 -15 -97 -15q-54 0 -196 55q-122 48 -160 48q-51 0 -98 -36q-29 -22 -80 -90z" />
    <glyph glyph-name="uni00A0" unicode="&#xa0;" horiz-adv-x="512" 
 />
    <glyph glyph-name="exclamdown" unicode="&#xa1;" horiz-adv-x="525" 
d="M423 1399q73 0 112 -56q23 -34 23 -79q0 -63 -42 -117q-64 -82 -164 -82q-73 0 -111 56q-23 34 -23 80q0 63 42 116q66 82 163 82zM438 760l-126 -594q-19 -88 -46 -126q-23 -33 -67 -54q-40 -20 -81 -20q-66 0 -100 50q-19 28 -19 70q0 24 12 80l126 594q19 88 46 126
q23 33 67 54q39 20 81 20q65 0 99 -50q19 -28 19 -70q0 -27 -11 -80z" />
    <glyph glyph-name="cent" unicode="&#xa2;" horiz-adv-x="1010" 
d="M809 1216q218 -46 218 -167q0 -73 -60 -127q-45 -40 -97 -40q-24 0 -44 8l-64 26q-44 18 -103 18q-122 0 -211 -115q-74 -96 -74 -216q0 -72 35 -117q51 -65 148 -65q52 0 181 45q22 8 45 8q48 0 75 -45q19 -31 19 -66q0 -55 -47 -112q-37 -46 -128 -76q-33 -11 -121 -32
l-15 -72q-13 -60 -31 -86q-36 -51 -101 -51q-45 0 -68 34q-13 19 -13 48q0 17 8 55l15 72q-141 30 -221 128q-93 115 -93 275q0 157 82 321q106 214 302 301q62 28 158 48l14 62q12 59 31 86q35 50 100 50q45 0 68 -34q13 -18 13 -46q0 -20 -8 -56z" />
    <glyph glyph-name="sterling" unicode="&#xa3;" horiz-adv-x="1256" 
d="M483 289h478q81 0 116 -20q49 -28 49 -97q0 -81 -72 -136q-47 -36 -155 -36h-706q-87 0 -127 53q-21 28 -21 62q0 40 20 84q13 28 57 72q86 84 121 150q17 33 49 124h-92q-100 0 -133 31q-34 33 -34 87q0 83 73 138q47 36 156 36h29q-9 50 -9 83q0 138 75 244
q87 123 255 186q131 49 274 49q202 0 329 -101q101 -81 101 -193q0 -64 -34 -112q-27 -36 -76 -61q-46 -23 -92 -23q-49 0 -82 36q-15 16 -35 66q-26 63 -70 85q-45 23 -99 23q-103 0 -166 -79q-41 -51 -41 -105q0 -31 21 -98h116q100 0 133 -31q34 -33 34 -87
q0 -82 -73 -138q-47 -36 -156 -36h-80q-12 -64 -41 -117q-30 -54 -92 -139z" />
    <glyph glyph-name="currency" unicode="&#xa4;" horiz-adv-x="1256" 
d="M973 1101l14 11q74 61 121 61q32 0 58 -19q35 -25 35 -74q0 -47 -41 -91q-11 -12 -45 -40l-12 -9q30 -75 30 -155q0 -185 -132 -351q7 -21 43 -83q3 -4 3 -12q0 -29 -30 -70q-26 -36 -71 -54q-29 -11 -50 -11q-16 0 -22 7l-44 46q-6 7 -25 13q-138 -73 -276 -73
q-132 0 -237 74q-13 -26 -23.5 -35t-39.5 -17q-35 -11 -65 -11q-32 0 -56 17q-34 26 -34 67q0 46 35 104q17 28 57 39q-26 72 -26 147q0 186 138 357l-8 10q-40 51 -40 87q0 59 53 103q42 34 92 34q44 0 92 -61l9 -11q133 67 262 67q135 0 235 -67zM694 936
q-138 0 -244 -123q-73 -85 -73 -186q0 -74 40 -125q58 -73 164 -73q136 0 242 123q73 85 73 186q0 75 -40 125q-58 73 -162 73z" />
    <glyph glyph-name="yen" unicode="&#xa5;" horiz-adv-x="1092" 
d="M346 422h-201q-59 0 -79 19q-21 19 -21 52q0 49 44 82q29 22 94 22h192l-38 112h-131q-59 0 -79 19q-21 19 -21 52q0 49 44 83q29 21 94 21h33l-84 246q-9 26 -9 76q0 74 49 124q57 57 135 57q53 0 84 -33q28 -31 44 -109l92 -361h15l244 358l19 33q63 112 171 112
q58 0 92 -37q35 -38 35 -78q0 -39 -38 -114q-10 -18 -20 -31l-187 -243h32q49 0 70 -12q30 -17 30 -59q0 -48 -43 -82q-28 -22 -94 -22h-131l-86 -112h193q60 0 79 -19q21 -19 21 -52q0 -49 -43 -82q-29 -22 -94 -22h-207l-50 -235q-19 -89 -46 -127q-23 -33 -64 -53.5
t-83 -20.5q-65 0 -100 50q-19 28 -19 70q0 25 12 81z" />
    <glyph glyph-name="brokenbar" unicode="&#xa6;" 
d="M536 1365h259l-150 -708h-260zM312 314h260l-140 -655h-259z" />
    <glyph glyph-name="section" unicode="&#xa7;" horiz-adv-x="1092" 
d="M237 827q-33 50 -33 118q0 100 51 196q75 142 244 209q109 43 230 43q169 0 275 -71q54 -37 54 -91q0 -47 -33 -88q-48 -59 -120 -59q-30 0 -52 9l-46 20q-67 29 -128 29q-84 0 -129 -44q-32 -31 -32 -71q0 -35 21 -56q26 -27 69 -43l72 -27q167 -63 248 -150
q62 -67 62 -172q0 -96 -56 -196q-41 -72 -112 -125q26 -70 26 -114q0 -79 -38 -168q-126 -296 -501 -296q-201 0 -334 79q-73 44 -73 112q0 52 38 96q48 54 114 54q37 0 74 -17l87 -40q71 -33 143 -33q85 0 137 53q42 44 42 97q0 41 -28 67q-28 27 -70 46l-111 47
q-132 56 -186 100q-80 65 -80 172q0 102 58 199q48 79 117 115zM410 729q-9 -11 -14 -16q-36 -39 -44 -62q-12 -30 -12 -59q0 -40 20 -64q30 -39 147 -87q90 -38 147 -65q61 75 61 138q0 59 -43 96q-45 39 -124 68z" />
    <glyph glyph-name="dieresis" unicode="&#xa8;" 
d="M467 1473q66 0 100 -51q21 -30 21 -71q0 -56 -38 -105q-57 -74 -147 -74q-67 0 -101 50q-20 30 -20 72q0 58 38 105q59 74 147 74zM911 1473q66 0 100 -51q21 -30 21 -71q0 -56 -38 -105q-57 -74 -147 -74q-66 0 -101 51q-20 30 -20 71q0 58 38 105q59 74 147 74z" />
    <glyph glyph-name="copyright" unicode="&#xa9;" horiz-adv-x="1638" 
d="M963 1098q105 0 173 -37q50 -27 50 -75q0 -42 -33 -76q-27 -27 -68 -27q-23 0 -67 18q-45 19 -90 19q-106 0 -179 -89q-75 -90 -75 -220q0 -69 35 -107q40 -45 121 -45q47 0 75 11l60 23q24 10 45 10q32 0 51 -25q14 -18 14 -44q0 -56 -55 -94q-84 -59 -226 -59
q-169 0 -259 102q-74 84 -74 207q0 114 52 226q69 148 205 221q113 61 245 61zM986 1396q279 0 444 -211q122 -156 122 -360q0 -154 -69 -312q-118 -269 -352 -411q-218 -133 -458 -133q-192 0 -337 106q-148 107 -205 286q-28 88 -28 183q0 151 71 311q118 267 356 411
q217 130 456 130zM961 1257q-183 0 -355 -114q-198 -131 -289 -326q-60 -128 -60 -260q0 -171 89 -286q60 -78 157 -121q96 -42 202 -42q178 0 349 116q197 133 286 326q59 127 59 260q0 168 -86 283q-60 80 -154 121q-98 43 -198 43z" />
    <glyph glyph-name="ordfeminine" unicode="&#xaa;" horiz-adv-x="791" 
d="M501 603q-47 -69 -171 -69q-104 0 -173 71q-70 70 -70 176q0 168 113 283q117 120 268 120q89 0 144 -65q41 61 110 61q38 0 62 -27q20 -21 20 -49q0 -11 -2 -21l-93 -434q-11 -55 -47 -84q-34 -27 -79 -27q-65 0 -82 65zM453 1005q-69 0 -119 -66q-41 -54 -41 -124
q0 -102 97 -102q65 0 120 65q42 50 42 127q0 55 -36 81q-26 19 -63 19z" />
    <glyph glyph-name="guillemotleft" unicode="&#xab;" horiz-adv-x="1174" 
d="M314 555l153 -201q24 -32 24 -68q0 -52 -34 -97q-48 -62 -118 -62q-32 0 -59 19q-27 18 -40 42l-122 239q-27 53 -27 97q0 72 82 159l223 239q58 61 126 61q50 0 78 -42q17 -27 17 -62q0 -68 -64 -123zM806 555l153 -201q24 -32 24 -68q0 -52 -34 -97q-48 -62 -119 -62
q-31 0 -58 19q-28 18 -40 42l-122 239q-28 54 -28 97q0 72 82 159l224 239q57 61 125 61q51 0 78 -42q18 -27 18 -62q0 -68 -65 -123z" />
    <glyph glyph-name="logicalnot" unicode="&#xac;" 
d="M559 0l65 304h-628l51 242h888l-116 -546h-260z" />
    <glyph glyph-name="uni00AD" unicode="&#xad;" horiz-adv-x="505" 
d="M183 694h162q88 0 117 -27q30 -29 30 -77q0 -73 -64 -121q-41 -32 -137 -32h-163q-87 0 -116 28q-30 28 -30 76q0 72 64 121q41 32 137 32z" />
    <glyph glyph-name="registered" unicode="&#xae;" horiz-adv-x="1638" 
d="M720 600l-40 -186q-11 -54 -28 -78q-35 -47 -97 -47q-42 0 -65 29q-15 18 -15 49q0 16 6 47l113 530q17 77 53 106q38 29 117 29h164q123 0 189 -62q54 -51 54 -131q0 -107 -73 -186q-54 -57 -160 -79l115 -156q30 -40 30 -68q0 -53 -51 -88q-31 -21 -70 -21
q-45 0 -81 57zM752 748h108q54 0 88 39q23 26 23 57q0 30 -19 48q-23 20 -61 20h-105zM986 1396q279 0 444 -211q122 -156 122 -360q0 -154 -69 -312q-118 -269 -352 -411q-218 -133 -458 -133q-192 0 -337 106q-148 107 -205 286q-28 88 -28 183q0 151 71 311
q118 267 356 411q217 130 456 130zM961 1257q-183 0 -355 -114q-198 -131 -289 -326q-60 -128 -60 -260q0 -171 89 -286q60 -78 157 -121q96 -42 202 -42q178 0 349 116q197 133 286 326q59 127 59 260q0 168 -86 283q-60 80 -154 121q-98 43 -198 43z" />
    <glyph glyph-name="macron" unicode="&#xaf;" 
d="M458 1411h436q70 0 93 -22q24 -23 24 -61q0 -58 -51 -97q-33 -25 -110 -25h-436q-70 0 -93 22q-24 23 -24 61q0 57 51 97q33 25 110 25z" />
    <glyph glyph-name="degree" unicode="&#xb0;" horiz-adv-x="846" 
d="M579 1365q124 0 199 -92q54 -67 54 -155q0 -133 -102 -245q-53 -59 -131 -93q-78 -33 -156 -33q-125 0 -199 93q-53 67 -53 156q0 134 102 245q53 58 131 91q76 33 155 33zM545 1213q-84 0 -151 -76q-46 -52 -46 -115q0 -46 25 -77q37 -46 104 -46q85 0 152 77
q45 52 45 114q0 47 -26 78q-37 45 -103 45z" />
    <glyph glyph-name="plusminus" unicode="&#xb1;" horiz-adv-x="1092" 
d="M461 690h-256q-54 0 -76 13q-32 19 -32 64q0 53 47 89q31 24 102 24h256l57 270q12 55 29 79q34 47 94 47q41 0 63 -32q12 -17 12 -43q0 -15 -8 -51l-57 -270h256q64 0 86 -20q22 -21 22 -57q0 -53 -47 -89q-30 -24 -101 -24h-257l-48 -229q-12 -56 -29 -80
q-34 -47 -94 -47q-41 0 -63 32q-12 17 -12 44q0 16 8 51zM765 61h-693q-54 0 -77 13q-32 19 -32 64q0 53 47 89q31 24 102 24h703q53 0 76 -13q32 -19 32 -64q0 -53 -47 -89q-31 -24 -111 -24z" />
    <glyph glyph-name="twosuperior" unicode="&#xb2;" horiz-adv-x="797" 
d="M428 723h169q51 0 73 -12q33 -17 33 -60q0 -50 -46 -82q-30 -22 -97 -22h-370q-100 0 -100 69q0 37 50 95q41 48 100 99l162 131q106 86 148 142q25 33 25 64q0 20 -12 35q-17 21 -48 21q-66 0 -106 -77q-35 -68 -54 -83q-29 -23 -67 -23q-82 0 -82 74q0 38 25 89
q52 108 165 162q81 40 167 40q115 0 184 -75q48 -53 48 -125q0 -121 -108 -245q-76 -87 -166 -164q-41 -34 -93 -53z" />
    <glyph glyph-name="threesuperior" unicode="&#xb3;" horiz-adv-x="797" 
d="M646 999q98 -65 98 -159q0 -55 -28 -116q-49 -104 -160 -157q-85 -41 -185 -41q-105 0 -172 48q-49 35 -75 92q-16 35 -16 69q0 53 47 86q34 24 74 24q39 0 59 -27q5 -7 23 -51q22 -57 90 -57q61 0 99 45q28 33 28 73q0 55 -84 62q-91 8 -91 71q0 36 27 67q14 17 40 26
q9 3 54 14q95 24 95 88q0 22 -19 34q-17 12 -40 12q-44 0 -106 -54q-52 -46 -103 -46q-39 0 -60 27q-15 19 -15 45q0 57 65 117q42 39 113 65q78 29 153 29q101 0 165 -58q52 -48 52 -124q0 -131 -128 -204z" />
    <glyph glyph-name="acute" unicode="&#xb4;" 
d="M557 1363l336 126q19 7 39 7q44 0 66 -32q16 -24 16 -52q0 -44 -37 -84q-15 -16 -63 -35l-330 -124q-20 -8 -46 -8q-43 0 -65 25q-20 23 -20 58q0 36 23 67q21 29 81 52z" />
    <glyph glyph-name="mu" unicode="&#xb5;" horiz-adv-x="1092" 
d="M244 5l-48 -228q-19 -87 -46 -126q-23 -33 -67 -54q-39 -20 -81 -20q-66 0 -100 50q-19 28 -19 70q0 24 12 80l228 1074q19 88 46 127q24 33 67 54q39 20 81 20q66 0 100 -50q19 -28 19 -70q0 -24 -12 -81l-87 -409q-8 -37 -8 -59q0 -59 52 -94q36 -24 84 -24
q67 0 128 49q60 47 77 128l87 409q19 88 46 127q23 33 66 54q39 20 81 20q66 0 100 -50q19 -28 19 -70q0 -25 -12 -81l-95 -446q-34 -164 -121 -253q-76 -77 -189 -123q-123 -50 -248 -50q-77 0 -160 26z" />
    <glyph glyph-name="paragraph" unicode="&#xb6;" horiz-adv-x="1092" 
d="M807 1119h-109l-259 -1218q-17 -79 -39 -115q-18 -28 -52 -48q-31 -18 -63 -18q-50 0 -75 46q-12 21 -12 56q0 24 12 79l135 638h-36q-116 0 -178 66q-76 80 -76 229q0 112 46 226q72 178 186 248q92 57 228 57h407h28q55 0 80 -30q29 -35 29 -82q0 -26 -15 -93
l-267 -1259q-17 -79 -39 -115q-18 -28 -52 -48q-31 -18 -63 -18q-50 0 -75 46q-12 21 -12 56q0 24 12 79z" />
    <glyph glyph-name="periodcentered" unicode="&#xb7;" horiz-adv-x="437" 
d="M247 778q73 0 112 -56q23 -34 23 -79q0 -63 -42 -117q-64 -82 -164 -82q-74 0 -112 56q-23 34 -23 80q0 64 42 116q67 82 164 82z" />
    <glyph glyph-name="cedilla" unicode="&#xb8;" 
d="M520 0l-219 -319q-30 -43 -86 -43q-43 0 -67 28q-19 20 -19 45q0 32 33 80l147 209h211z" />
    <glyph glyph-name="onesuperior" unicode="&#xb9;" horiz-adv-x="797" 
d="M441 1189h-34q-51 0 -73 12q-33 17 -33 60q0 50 46 83q30 21 97 21h111q65 0 86 -18q28 -23 28 -58q0 -14 -7 -49l-123 -577q-12 -55 -30 -80q-37 -49 -102 -49q-45 0 -69 30q-16 19 -16 51q0 15 7 48z" />
    <glyph glyph-name="ordmasculine" unicode="&#xba;" horiz-adv-x="747" 
d="M492 1185q134 0 211 -101q48 -63 48 -152q0 -149 -102 -266q-56 -63 -143 -99q-79 -33 -158 -33q-135 0 -212 100q-48 64 -48 152q0 149 102 267q55 62 143 99q79 33 159 33zM448 1006q-70 0 -122 -77q-34 -50 -34 -115q0 -51 32 -78q26 -23 60 -23q69 0 121 66
q43 54 43 118q0 47 -22 74q-28 35 -78 35z" />
    <glyph glyph-name="guillemotright" unicode="&#xbb;" horiz-adv-x="1174" 
d="M823 555l-153 201q-24 32 -24 68q0 51 34 97q48 62 118 62q32 0 59 -19q28 -19 40 -42l122 -239q27 -53 27 -97q0 -72 -82 -159l-223 -239q-58 -61 -126 -61q-50 0 -78 42q-17 26 -17 62q0 68 64 123zM331 555l-153 201q-24 32 -24 68q0 51 35 97q47 62 118 62
q31 0 58 -19q28 -19 40 -42l122 -239q28 -54 28 -97q0 -72 -82 -159l-224 -239q-57 -61 -125 -61q-51 0 -78 42q-18 26 -18 62q0 68 65 123z" />
    <glyph glyph-name="onequarter" unicode="&#xbc;" horiz-adv-x="1846" 
d="M441 1189h-34q-51 0 -73 12q-33 17 -33 60q0 50 46 83q30 21 97 21h111q65 0 86 -18q28 -23 28 -58q0 -14 -7 -49l-123 -577q-12 -55 -30 -80q-37 -49 -102 -49q-45 0 -69 30q-16 19 -16 51q0 15 7 48zM487 127l722 1181q32 54 56 72q27 20 65 20q36 0 58 -23
q23 -23 23 -53t-35 -88l-724 -1182q-22 -39 -36 -54q-33 -37 -84 -37q-37 0 -59 23t-22 53q0 29 36 88zM1370 173h-244q-95 0 -95 69q0 29 22 57l348 441q42 53 79 70q44 21 86 21q64 0 93 -43q20 -29 20 -72q0 -13 -3 -27l-72 -341h14q80 0 80 -70q0 -39 -34 -71
q-34 -31 -95 -34l-16 -64q-12 -54 -29 -76q-35 -45 -96 -45q-41 0 -64 28q-15 18 -15 49q0 13 7 44zM1407 348l47 221l-171 -221h124z" />
    <glyph glyph-name="onehalf" unicode="&#xbd;" horiz-adv-x="1846" 
d="M441 1189h-34q-51 0 -73 12q-33 17 -33 60q0 50 46 83q30 21 97 21h111q65 0 86 -18q28 -23 28 -58q0 -14 -7 -49l-123 -577q-12 -55 -30 -80q-37 -49 -102 -49q-45 0 -69 30q-16 19 -16 51q0 15 7 48zM487 127l722 1181q32 54 56 72q27 20 65 20q36 0 58 -23
q23 -23 23 -53t-35 -88l-724 -1182q-22 -39 -36 -54q-33 -37 -84 -37q-37 0 -59 23t-22 53q0 29 36 88zM1361 176h169q106 0 106 -72q0 -50 -46 -83q-30 -21 -97 -21h-370q-101 0 -101 69q0 37 50 95q41 48 101 99q10 9 162 132q107 86 148 141q25 33 25 65q0 21 -11 35
q-17 21 -49 21q-66 0 -106 -77q-35 -69 -54 -84q-30 -23 -68 -23q-82 0 -82 74q0 38 25 89q53 109 165 163q81 40 168 40q115 0 184 -76q48 -53 48 -125q0 -121 -108 -245q-76 -87 -166 -164q-41 -34 -93 -53z" />
    <glyph glyph-name="threequarters" unicode="&#xbe;" horiz-adv-x="1846" 
d="M646 999q98 -65 98 -159q0 -55 -28 -116q-49 -104 -160 -157q-85 -41 -185 -41q-105 0 -172 48q-49 35 -75 92q-16 35 -16 69q0 53 47 86q34 24 74 24q39 0 59 -27q5 -7 23 -51q22 -57 90 -57q61 0 99 45q28 33 28 73q0 55 -84 62q-91 8 -91 71q0 36 27 67q14 17 40 26
q9 3 54 14q95 24 95 88q0 22 -19 34q-17 12 -40 12q-44 0 -106 -54q-52 -46 -103 -46q-39 0 -60 27q-15 19 -15 45q0 57 65 117q42 39 113 65q78 29 153 29q101 0 165 -58q52 -48 52 -124q0 -131 -128 -204zM487 127l722 1181q31 54 56 72q27 20 65 20q36 0 58 -23
q23 -23 23 -53t-36 -88l-723 -1182q-31 -54 -55.5 -72.5t-64.5 -18.5q-37 0 -59 23q-23 24 -22 53q1 31 36 88zM1370 173h-244q-95 0 -95 69q0 29 22 57l348 441q42 53 79 70q44 21 86 21q64 0 93 -43q20 -30 20 -72q0 -13 -3 -27l-72 -341h14q39 0 58 -18q22 -21 22 -52
q0 -38 -35 -71q-33 -31 -94 -34l-16 -64q-12 -54 -29 -76q-35 -45 -96 -45q-41 0 -64 28q-15 18 -15 49q0 13 7 44zM1407 348l47 221l-171 -221h124z" />
    <glyph glyph-name="questiondown" unicode="&#xbf;" horiz-adv-x="988" 
d="M686 1399q73 0 112 -56q23 -34 23 -79q0 -63 -42 -117q-64 -82 -164 -82q-73 0 -111 56q-23 34 -23 80q0 63 42 116q66 82 163 82zM407 799q16 79 44 118q23 33 66 54q40 20 81 20q66 0 100 -50q19 -27 19 -69q0 -27 -11 -81l-21 -97q-13 -62 -43 -89q-26 -24 -58 -32
q-18 -5 -54 -11q-121 -20 -175 -88q-37 -46 -37 -102q0 -46 36 -72q37 -28 87 -28t89 24q41 26 85 72q45 46 70 61q40 23 84 23q59 0 92 -38q25 -29 25 -75q0 -50 -33 -112q-62 -117 -201 -190q-135 -71 -283 -71q-201 0 -316 126q-81 89 -81 216q0 106 49 210
q107 225 386 281z" />
    <glyph glyph-name="Agrave" unicode="&#xc0;" horiz-adv-x="1243" 
d="M803 261h-525l-58 -119q-41 -86 -81 -122q-46 -43 -113 -43q-53 0 -89 32q-42 37 -42 88q0 49 52 139l565 981q101 175 266 175q91 0 142 -55q45 -49 56 -120l148 -981q7 -47 7 -65q0 -87 -62 -142q-57 -52 -135 -52q-113 0 -123 165zM768 541l-55 519l-276 -519h331z
M851 1503l-279 111q-58 23 -58 80q0 42 29 75q39 46 100 46q20 0 33 -5l285 -113q63 -25 63 -80q0 -36 -25 -70q-39 -52 -102 -52q-25 0 -46 8z" />
    <glyph glyph-name="Aacute" unicode="&#xc1;" horiz-adv-x="1243" 
d="M803 261h-525l-58 -119q-41 -86 -81 -122q-46 -43 -113 -43q-53 0 -89 32q-42 37 -42 88q0 49 52 139l565 981q101 175 266 175q91 0 142 -55q45 -49 56 -120l148 -981q7 -47 7 -65q0 -87 -62 -142q-57 -52 -135 -52q-113 0 -123 165zM768 541l-55 519l-276 -519h331z
M738 1697l333 113q15 5 34 5q41 0 65 -24q22 -23 22 -58q0 -44 -37 -84q-18 -19 -64 -35l-326 -111q-24 -8 -48 -8q-42 0 -63 25q-20 24 -20 58q0 84 104 119z" />
    <glyph glyph-name="Acircumflex" unicode="&#xc2;" horiz-adv-x="1243" 
d="M803 261h-525l-58 -119q-41 -86 -81 -122q-46 -43 -113 -43q-53 0 -89 32q-42 37 -42 88q0 49 52 139l565 981q101 175 266 175q91 0 142 -55q45 -49 56 -120l148 -981q7 -47 7 -65q0 -87 -62 -142q-57 -52 -135 -52q-113 0 -123 165zM768 541l-55 519l-276 -519h331z
M827 1607l-240 -103q-20 -9 -41 -9q-44 0 -67 33q-16 24 -16 53q0 77 89 113l277 113q23 9 45 9q18 0 33 -7l227 -114q55 -27 55 -75q0 -32 -19 -63q-38 -62 -108 -62q-23 0 -37 7z" />
    <glyph glyph-name="Atilde" unicode="&#xc3;" horiz-adv-x="1243" 
d="M803 261h-525l-58 -119q-41 -86 -81 -122q-46 -43 -113 -43q-53 0 -89 32q-42 37 -42 88q0 49 52 139l565 981q101 175 266 175q91 0 142 -55q45 -49 56 -120l148 -981q7 -47 7 -65q0 -87 -62 -142q-57 -52 -135 -52q-113 0 -123 165zM768 541l-55 519l-276 -519h331z
M715 1798q53 0 109 -23q15 -6 98 -52q32 -19 65 -19q19 0 34 10q10 6 32 36q36 49 86 49q44 0 63 -32q12 -19 12 -44q0 -61 -55 -120q-80 -86 -201 -86q-67 0 -147 44q-90 50 -121 50q-26 0 -48 -21q-6 -5 -38 -44q-26 -31 -69 -31q-74 0 -74 65q0 67 47 123q36 43 92 69
q58 26 115 26z" />
    <glyph glyph-name="Adieresis" unicode="&#xc4;" horiz-adv-x="1243" 
d="M803 261h-525l-58 -119q-41 -86 -81 -122q-46 -43 -113 -43q-53 0 -89 32q-42 37 -42 88q0 49 52 139l565 981q101 175 266 175q91 0 142 -55q45 -49 56 -120l148 -981q7 -47 7 -65q0 -87 -62 -142q-57 -52 -135 -52q-113 0 -123 165zM768 541l-55 519l-276 -519h331z
M648 1807q66 0 100 -50q21 -31 21 -72q0 -56 -38 -104q-57 -74 -147 -74q-66 0 -100 50q-21 31 -21 72q0 57 38 104q59 74 147 74zM1091 1807q66 0 100 -50q21 -31 21 -72q0 -56 -38 -104q-57 -74 -146 -74q-67 0 -101 50q-20 30 -20 71q0 58 38 105q59 74 146 74z" />
    <glyph glyph-name="Aring" unicode="&#xc5;" horiz-adv-x="1243" 
d="M803 261h-525l-58 -119q-41 -86 -81 -122q-46 -43 -113 -43q-53 0 -89 32q-42 37 -42 88q0 49 52 139l565 981q101 175 266 175q91 0 142 -55q45 -49 56 -120l148 -981q7 -47 7 -65q0 -87 -62 -142q-57 -52 -135 -52q-113 0 -123 165zM768 541l-55 519l-276 -519h331z
M885 1877q87 0 134 -68q28 -41 28 -95q0 -75 -51 -140q-77 -99 -197 -99q-89 0 -134 68q-28 40 -28 95q0 78 51 140q79 99 197 99zM859 1747q-42 0 -71 -36q-20 -24 -20 -51q0 -22 14 -37q17 -18 43 -18q42 0 71 36q20 24 20 51q0 22 -14 37q-16 18 -43 18z" />
    <glyph glyph-name="AE" unicode="&#xc6;" horiz-adv-x="1616" 
d="M1165 1085l-54 -254h271q95 0 126 -30q33 -31 33 -84q0 -78 -70 -131q-45 -35 -149 -35h-271l-57 -271h303q95 0 127 -30q33 -31 33 -84q0 -78 -70 -131q-45 -35 -149 -35h-381q-65 0 -91 4q-65 12 -96 70q-15 28 -15 64q0 32 14 94h-356l-72 -117q-36 -58 -57 -81
q-51 -55 -126 -55q-59 0 -92 38q-32 35 -32 75q0 51 58 141l665 1025q43 67 83 88q34 19 110 19h678q95 0 126 -30q33 -31 33 -83q0 -79 -70 -132q-45 -35 -149 -35h-303zM729 512l118 556l-353 -556h235z" />
    <glyph glyph-name="Ccedilla" unicode="&#xc7;" horiz-adv-x="1171" 
d="M626 -32l-197 -286q-30 -44 -86 -44q-43 0 -67 28q-19 20 -19 46q0 32 33 79l133 189q-71 14 -132 46q-92 49 -149 119q-119 147 -119 358q0 199 92 401q118 262 345 389q191 106 411 106q176 0 287 -65q79 -46 79 -122q0 -71 -53 -127q-41 -44 -106 -44q-38 0 -109 31
q-78 34 -155 34q-187 0 -319 -165q-69 -86 -105 -212q-29 -100 -29 -193q0 -171 110 -235q70 -41 161 -41q81 0 132 21l102 41q40 16 72 16q50 0 80 -41q20 -29 20 -70q0 -117 -131 -185q-124 -64 -281 -74z" />
    <glyph glyph-name="Egrave" unicode="&#xc8;" horiz-adv-x="943" 
d="M504 1085l-56 -260h262q95 0 126 -30q33 -31 33 -84q0 -78 -69 -131q-46 -35 -150 -35h-261l-56 -265h292q96 0 127 -30q33 -32 33 -84q0 -78 -70 -131q-45 -35 -149 -35h-379q-63 0 -87 4q-62 11 -93 67q-14 27 -14 62q0 27 14 95l194 909q25 117 65 159q65 69 173 69
h38h379q95 0 126 -30q33 -32 33 -83q0 -79 -70 -132q-45 -35 -149 -35h-292zM722 1503l-279 111q-58 23 -58 80q0 42 29 75q38 46 100 46q20 0 32 -5l285 -113q63 -24 63 -80q0 -36 -25 -70q-39 -52 -102 -52q-25 0 -45 8z" />
    <glyph glyph-name="Eacute" unicode="&#xc9;" horiz-adv-x="943" 
d="M504 1085l-56 -260h262q95 0 126 -30q33 -31 33 -84q0 -78 -69 -131q-46 -35 -150 -35h-261l-56 -265h292q96 0 127 -30q33 -32 33 -84q0 -78 -70 -131q-45 -35 -149 -35h-379q-63 0 -87 4q-62 11 -93 67q-14 27 -14 62q0 27 14 95l194 909q25 117 65 159q65 69 173 69
h38h379q95 0 126 -30q33 -32 33 -83q0 -79 -69 -132q-46 -35 -150 -35h-292zM588 1697l333 113q15 5 34 5q41 0 65 -24q22 -23 22 -58q0 -45 -37 -84q-18 -19 -64 -35l-326 -111q-24 -8 -48 -8q-42 0 -64 25q-20 24 -20 58q0 84 105 119z" />
    <glyph glyph-name="Ecircumflex" unicode="&#xca;" horiz-adv-x="943" 
d="M504 1085l-56 -260h262q95 0 126 -30q33 -31 33 -84q0 -78 -69 -131q-46 -35 -150 -35h-261l-56 -265h292q96 0 127 -30q33 -32 33 -84q0 -78 -70 -131q-45 -35 -149 -35h-379q-63 0 -87 4q-62 11 -93 67q-14 27 -14 62q0 27 14 95l194 909q25 117 65 159q65 69 173 69
h38h379q95 0 126 -30q33 -32 33 -83q0 -79 -69 -132q-46 -35 -150 -35h-292zM691 1607l-241 -103q-20 -9 -41 -9q-44 0 -67 33q-16 23 -16 53q0 77 89 113l277 113q23 9 45 9q19 0 34 -7l227 -114q54 -27 54 -75q0 -32 -19 -63q-37 -62 -107 -62q-24 0 -38 7z" />
    <glyph glyph-name="Edieresis" unicode="&#xcb;" horiz-adv-x="943" 
d="M504 1085l-56 -260h262q95 0 126 -30q33 -31 33 -84q0 -78 -69 -131q-46 -35 -150 -35h-261l-56 -265h292q96 0 127 -30q33 -32 33 -84q0 -78 -70 -131q-45 -35 -149 -35h-379q-63 0 -87 4q-62 11 -93 67q-14 27 -14 62q0 27 14 95l194 909q25 117 65 159q65 69 173 69
h38h379q95 0 126 -30q33 -32 33 -83q0 -79 -69 -132q-46 -35 -150 -35h-292zM511 1807q66 0 100 -50q21 -31 21 -72q0 -56 -38 -104q-57 -74 -147 -74q-66 0 -100 50q-20 30 -20 72q0 57 38 104q59 74 146 74zM955 1807q65 0 100 -51q21 -30 21 -71q0 -56 -38 -104
q-58 -74 -147 -74q-66 0 -100 50q-21 31 -21 71q0 58 38 105q59 74 147 74z" />
    <glyph glyph-name="Igrave" unicode="&#xcc;" horiz-adv-x="504" 
d="M-2 189l210 987q20 92 48 132q25 34 70 57q41 20 85 20q68 0 104 -52q20 -29 20 -73q0 -26 -13 -84l-210 -987q-19 -91 -47 -132q-25 -34 -70 -56q-41 -21 -85 -21q-68 0 -104 53q-20 29 -20 72q0 26 12 84zM442 1503l-211 111q-40 21 -48 38q-10 18 -10 42q0 42 29 76
q39 45 102 45q21 0 31 -5l217 -113q42 -22 51 -37q11 -19 11 -42q0 -37 -25 -71q-39 -52 -101 -52q-31 0 -46 8z" />
    <glyph glyph-name="Iacute" unicode="&#xcd;" horiz-adv-x="504" 
d="M-2 189l210 987q20 92 48 132q25 34 70 57q41 20 85 20q68 0 104 -52q20 -29 20 -73q0 -26 -13 -84l-210 -987q-19 -91 -47 -132q-25 -34 -70 -56q-41 -21 -85 -21q-68 0 -104 53q-20 29 -20 72q0 26 12 84zM401 1697l264 113q12 5 33 5q42 0 65 -24q23 -23 23 -57
q0 -28 -15 -55q-21 -37 -41 -46l-44 -19l-258 -111q-19 -8 -46 -8q-44 0 -65 24t-21 60q0 35 23 67q20 26 39 34z" />
    <glyph glyph-name="Icircumflex" unicode="&#xce;" horiz-adv-x="504" 
d="M-2 189l210 987q20 92 48 132q25 34 70 57q41 20 85 20q68 0 104 -52q20 -29 20 -73q0 -26 -13 -84l-210 -987q-19 -91 -47 -132q-25 -34 -70 -56q-41 -21 -85 -21q-68 0 -104 53q-20 29 -20 72q0 26 12 84zM457 1607l-186 -103q-15 -9 -39 -9q-46 0 -69 33
q-16 23 -16 53q0 32 21 62q17 26 33 34l35 17l223 113q18 9 40 9q27 0 38 -7l173 -114q54 -36 54 -75q0 -55 -44 -94q-36 -32 -87 -32q-21 0 -33 8z" />
    <glyph glyph-name="Idieresis" unicode="&#xcf;" horiz-adv-x="504" 
d="M-2 189l210 987q20 92 48 132q25 34 70 57q41 20 85 20q68 0 104 -52q20 -29 20 -73q0 -26 -13 -84l-210 -987q-19 -91 -47 -132q-25 -34 -70 -56q-41 -21 -85 -21q-68 0 -104 52q-20 29 -20 73q0 26 12 84zM313 1800q62 0 95 -48q20 -29 20 -68q0 -53 -36 -100
q-55 -70 -140 -70q-63 0 -95 48q-20 29 -20 68q0 55 36 100q57 70 140 70zM683 1800q62 0 95 -48q20 -29 20 -68q0 -53 -36 -100q-55 -70 -140 -70q-63 0 -95 48q-20 29 -20 68q0 55 36 100q56 70 140 70z" />
    <glyph glyph-name="Eth" unicode="&#xd0;" horiz-adv-x="1359" 
d="M135 565h-28q-49 0 -76 29q-24 26 -24 70q0 52 34 93q45 54 119 54h27l69 327q25 116 65 158q65 69 173 69h38h257q265 0 407 -126q154 -136 154 -391q0 -173 -68 -343q-120 -299 -371 -423q-172 -85 -366 -82l-305 5q-62 0 -86 5q-62 12 -91 67q-14 27 -14 60
q0 28 15 96zM449 565l-63 -292h156q222 0 355 177q63 84 94 197q23 85 23 163q0 127 -67 200q-76 82 -267 82h-119l-60 -281h110q105 0 135 -24q28 -23 28 -67q0 -97 -65 -133q-39 -22 -150 -22h-110z" />
    <glyph glyph-name="Ntilde" unicode="&#xd1;" horiz-adv-x="1394" 
d="M449 827l-136 -638q-19 -91 -47 -132q-25 -34 -70 -56q-41 -21 -85 -21q-68 0 -104 52q-20 29 -20 73q0 26 12 84l221 1036q15 73 64 116q49 44 126 44q74 0 114 -69l443 -759l131 619q20 91 48 132q25 34 70 57q41 20 85 20q68 0 104 -52q20 -29 20 -73q0 -26 -13 -84
l-216 -1017q-19 -89 -69 -133q-52 -46 -118 -46q-57 0 -91 39q-13 15 -47 74zM790 1798q53 0 109 -23q15 -6 98 -52q32 -19 65 -19q19 0 34 10q10 6 32 36q36 49 86 49q44 0 63 -32q12 -19 12 -44q0 -61 -55 -120q-80 -86 -201 -86q-67 0 -147 44q-90 50 -121 50
q-26 0 -48 -21q-6 -5 -38 -44q-25 -31 -68 -31t-63 27q-12 15 -12 38q0 66 48 123q36 43 92 69q57 26 114 26z" />
    <glyph glyph-name="Ograve" unicode="&#xd2;" horiz-adv-x="1418" 
d="M870 1399q302 0 450 -218q92 -134 92 -316q0 -177 -72 -359q-118 -294 -364 -435q-185 -105 -405 -105q-297 0 -447 205q-101 137 -101 324q0 189 76 376q115 284 371 425q188 103 400 103zM814 1119q-108 0 -213 -73q-129 -91 -190 -246q-49 -126 -49 -266
q0 -157 89 -229q72 -59 175 -59q193 0 332 200q116 167 116 387q0 162 -91 231q-73 55 -169 55zM952 1503l-279 111q-58 23 -58 80q0 42 29 75q38 46 100 46q20 0 33 -5l285 -113q62 -24 62 -80q0 -36 -25 -70q-39 -52 -101 -52q-26 0 -46 8z" />
    <glyph glyph-name="Oacute" unicode="&#xd3;" horiz-adv-x="1418" 
d="M870 1399q302 0 450 -218q92 -134 92 -316q0 -177 -72 -359q-118 -294 -364 -435q-185 -105 -405 -105q-297 0 -447 205q-101 137 -101 324q0 189 76 376q115 284 371 425q188 103 400 103zM814 1119q-108 0 -213 -73q-129 -91 -190 -246q-49 -126 -49 -266
q0 -157 89 -229q72 -59 175 -59q193 0 332 200q116 167 116 387q0 162 -91 231q-73 55 -169 55zM825 1697l333 113q15 5 34 5q41 0 65 -24q22 -23 22 -57q0 -45 -37 -85q-18 -19 -64 -35l-326 -111q-24 -8 -48 -8q-41 0 -63 25q-20 23 -20 58q0 84 104 119z" />
    <glyph glyph-name="Ocircumflex" unicode="&#xd4;" horiz-adv-x="1418" 
d="M870 1399q302 0 450 -218q92 -134 92 -316q0 -177 -72 -359q-118 -294 -364 -435q-185 -105 -405 -105q-297 0 -447 205q-101 137 -101 324q0 189 76 376q115 284 371 425q188 103 400 103zM814 1119q-108 0 -213 -73q-129 -91 -190 -246q-49 -126 -49 -266
q0 -157 89 -229q72 -59 175 -59q193 0 332 200q116 167 116 387q0 162 -91 231q-73 55 -169 55zM914 1607l-241 -103q-19 -9 -40 -9q-44 0 -67 33q-16 23 -16 52q0 78 89 114l277 113q22 9 45 9q18 0 33 -7l227 -114q54 -27 54 -75q0 -32 -19 -63q-37 -62 -107 -62
q-24 0 -37 7z" />
    <glyph glyph-name="Otilde" unicode="&#xd5;" horiz-adv-x="1418" 
d="M870 1399q302 0 450 -218q92 -134 92 -316q0 -177 -72 -359q-118 -294 -364 -435q-185 -105 -405 -105q-297 0 -447 205q-101 137 -101 324q0 189 76 376q115 284 371 425q188 103 400 103zM814 1119q-108 0 -213 -73q-129 -91 -190 -246q-49 -126 -49 -266
q0 -157 89 -229q72 -59 175 -59q193 0 332 200q116 167 116 387q0 162 -91 231q-73 55 -169 55zM808 1798q54 0 110 -23q15 -6 97 -52q33 -19 66 -19q18 0 34 10q10 6 32 36q36 49 86 49q44 0 63 -32q12 -19 12 -44q0 -61 -55 -120q-81 -86 -201 -86q-68 0 -147 44
q-90 50 -122 50q-26 0 -48 -21q-5 -5 -38 -44q-26 -31 -68 -31q-43 0 -63 27q-12 15 -12 38q0 66 48 123q36 43 92 69q57 26 114 26z" />
    <glyph glyph-name="Odieresis" unicode="&#xd6;" horiz-adv-x="1418" 
d="M870 1399q302 0 450 -218q92 -134 92 -316q0 -177 -72 -359q-118 -294 -364 -435q-185 -105 -405 -105q-297 0 -447 205q-101 137 -101 324q0 189 76 376q115 284 371 425q188 103 400 103zM814 1119q-108 0 -213 -73q-129 -91 -190 -246q-49 -126 -49 -266
q0 -157 89 -229q72 -59 175 -59q193 0 332 200q116 167 116 387q0 162 -91 231q-73 55 -169 55zM735 1807q65 0 100 -50q21 -31 21 -72q0 -56 -38 -104q-58 -74 -147 -74q-66 0 -101 50q-20 30 -20 71q0 59 38 105q59 74 147 74zM1178 1807q66 0 100 -51q21 -30 21 -71
q0 -56 -38 -104q-57 -74 -147 -74q-66 0 -100 50q-20 31 -20 71q0 58 38 105q59 74 146 74z" />
    <glyph glyph-name="multiply" unicode="&#xd7;" horiz-adv-x="1092" 
d="M528 555l-260 -214q-61 -51 -99 -51q-27 0 -49 15q-29 21 -29 61q0 50 71 109l260 215l-169 214q-33 42 -33 72q0 48 44 85q34 28 75 28q37 0 77 -51l169 -214l260 214q62 51 100 51q27 0 48 -16q29 -21 29 -61q0 -50 -71 -108l-260 -214l169 -215q33 -42 33 -72
q0 -48 -45 -85q-33 -28 -74 -28q-38 0 -77 51z" />
    <glyph glyph-name="Oslash" unicode="&#xd8;" horiz-adv-x="1418" 
d="M1202 1306l43 41q37 40 59 53q37 21 73 21q44 0 72 -29q27 -28 27 -70q0 -54 -80 -130l-44 -42q65 -130 65 -258q0 -186 -74 -378q-107 -278 -332 -421q-200 -127 -448 -127q-120 0 -213 38q-45 18 -124 66l-30 -29q-37 -41 -59 -54q-37 -23 -75 -23q-43 0 -71 28
q-29 28 -29 71q0 54 79 131l44 43q-25 49 -35 74q-30 78 -30 176q0 200 89 408q105 247 322 381q199 123 445 123q123 0 216 -35q44 -17 110 -58zM463 293q72 -47 156 -47q138 0 248 84q135 102 191 274q39 122 39 214q0 26 -6 80zM966 1079q-65 40 -140 40
q-217 0 -359 -177q-78 -98 -114 -272q-14 -67 -14 -109q0 -23 8 -73z" />
    <glyph glyph-name="Ugrave" unicode="&#xd9;" horiz-adv-x="1352" 
d="M1384 1176l-123 -577q-42 -197 -101 -296q-98 -165 -292 -258q-164 -79 -339 -79q-177 0 -303 89q-141 99 -175 262q-9 42 -9 85q0 52 14 116l140 658q19 91 48 132q24 34 69 57q41 20 85 20q68 0 104 -52q20 -29 20 -73q0 -26 -12 -84l-131 -613q-10 -49 -10 -92
q0 -116 72 -166q66 -46 152 -46q139 0 244 109q53 55 78 119q18 48 32 112l123 577q19 91 48 132q24 34 69 57q41 20 85 20q68 0 104 -52q20 -29 20 -73q0 -26 -12 -84zM913 1503l-280 111q-57 23 -57 80q0 42 29 75q38 46 100 46q19 0 32 -5l285 -113q63 -25 63 -79
q0 -37 -25 -71q-39 -52 -102 -52q-25 0 -45 8z" />
    <glyph glyph-name="Uacute" unicode="&#xda;" horiz-adv-x="1352" 
d="M1384 1176l-123 -577q-42 -197 -101 -296q-98 -165 -292 -258q-164 -79 -339 -79q-177 0 -303 89q-141 99 -175 262q-9 42 -9 85q0 52 14 116l140 658q19 91 48 132q24 34 69 57q41 20 85 20q68 0 104 -52q20 -29 20 -73q0 -26 -12 -84l-131 -613q-10 -49 -10 -92
q0 -116 72 -166q66 -46 152 -46q139 0 244 109q53 55 78 119q18 48 32 112l123 577q19 91 48 132q24 34 69 57q41 20 85 20q68 0 104 -52q20 -29 20 -73q0 -26 -12 -84zM792 1697l333 113q15 5 34 5q41 0 65 -24q22 -23 22 -57q0 -28 -15 -55q-18 -32 -41 -46
q-14 -8 -44 -19l-327 -111q-23 -8 -48 -8q-41 0 -63 25q-20 24 -20 58q0 84 104 119z" />
    <glyph glyph-name="Ucircumflex" unicode="&#xdb;" horiz-adv-x="1352" 
d="M1384 1176l-123 -577q-42 -197 -101 -296q-98 -165 -292 -258q-164 -79 -339 -79q-177 0 -303 89q-141 99 -175 262q-9 42 -9 85q0 52 14 116l140 658q19 91 48 132q24 34 69 57q41 20 85 20q68 0 104 -52q20 -29 20 -73q0 -26 -12 -84l-131 -613q-10 -49 -10 -92
q0 -116 72 -166q66 -46 152 -46q139 0 244 109q53 55 78 119q18 48 32 112l123 577q19 91 48 132q24 34 69 57q41 20 85 20q68 0 104 -52q20 -29 20 -73q0 -26 -12 -84zM882 1607l-241 -103q-20 -9 -41 -9q-44 0 -67 33q-16 23 -16 53q0 77 89 113l277 113q23 9 45 9
q19 0 34 -7l227 -114q54 -27 54 -75q0 -33 -19 -63q-37 -62 -108 -62q-23 0 -37 7z" />
    <glyph glyph-name="Udieresis" unicode="&#xdc;" horiz-adv-x="1352" 
d="M1384 1176l-123 -577q-42 -197 -101 -296q-98 -165 -292 -258q-164 -79 -339 -79q-177 0 -303 89q-141 99 -175 262q-9 42 -9 85q0 52 14 116l140 658q19 91 48 132q24 34 69 57q41 20 85 20q68 0 104 -52q20 -29 20 -73q0 -26 -12 -84l-131 -613q-10 -49 -10 -92
q0 -116 72 -166q66 -46 152 -46q139 0 244 109q53 55 78 119q18 48 32 112l123 577q19 91 48 132q24 34 69 57q41 20 85 20q68 0 104 -52q20 -29 20 -73q0 -26 -12 -84zM702 1807q66 0 100 -50q21 -31 21 -72q0 -56 -38 -104q-57 -74 -147 -74q-67 0 -101 50q-20 30 -20 72
q0 57 38 104q59 74 147 74zM1146 1807q65 0 100 -51q21 -30 21 -70q0 -57 -38 -105q-58 -74 -147 -74q-66 0 -100 50q-21 31 -21 71q0 58 38 105q59 74 147 74z" />
    <glyph glyph-name="Yacute" unicode="&#xdd;" horiz-adv-x="1179" 
d="M738 644l-97 -455q-19 -91 -48 -132q-24 -34 -67 -55.5t-87 -21.5q-68 0 -104 52q-20 29 -20 73q0 26 12 84l97 455l-233 451q-34 66 -34 108q0 74 66 132q54 49 125 49q62 0 101 -52q18 -23 34 -58l162 -331l315 335q47 55 74 74q51 35 103 35q83 0 117 -67
q15 -29 15 -63q0 -66 -96 -164zM733 1697l333 113q15 5 34 5q41 0 65 -24q22 -23 22 -58q0 -45 -37 -84q-18 -19 -64 -35l-326 -111q-24 -8 -49 -8q-41 0 -63 25q-20 24 -20 58q0 84 105 119z" />
    <glyph glyph-name="Thorn" unicode="&#xde;" horiz-adv-x="1131" 
d="M337 270l-18 -81q-19 -91 -47 -132q-25 -34 -70 -56q-41 -21 -85 -21q-68 0 -104 52q-20 29 -20 72q0 26 12 85l210 988q20 91 48 131q25 34 70 57q41 20 84 20q68 0 104 -52q21 -30 21 -73q0 -25 -10 -72h196q152 0 237 -47q109 -60 150 -192q18 -60 18 -126
q0 -90 -40 -193q-140 -360 -519 -360h-237zM395 543h158q127 0 205 96q48 59 48 132q0 144 -157 144h-175z" />
    <glyph glyph-name="germandbls" unicode="&#xdf;" horiz-adv-x="1122" 
d="M889 830q68 -28 97 -63q75 -91 75 -211q0 -90 -41 -193q-72 -183 -238 -292q-137 -91 -284 -91q-144 0 -144 112q0 56 34 100q29 37 69 51q11 4 70 20q122 32 180 128q38 62 38 132q0 114 -119 139q-77 16 -98 31q-41 31 -41 78t26 96q20 37 51 53q22 12 65 24
q72 20 108 59q45 49 45 110q0 45 -27 74q-33 35 -89 35q-83 0 -138 -67q-40 -50 -64 -161l-171 -807q-19 -88 -46 -127q-23 -32 -67 -54q-39 -20 -81 -20q-65 0 -100 50q-19 28 -19 70q0 25 12 81l180 845q47 224 200 347q152 123 359 123q180 0 279 -117q75 -90 75 -205
q0 -94 -46 -192q-34 -74 -72 -108q-23 -21 -78 -50z" />
    <glyph glyph-name="agrave" unicode="&#xe0;" horiz-adv-x="1148" 
d="M644 105q-58 -64 -106 -88q-75 -37 -169 -37q-163 0 -270 117q-105 116 -105 284q0 139 54 275q79 202 262 316q138 86 285 86q98 0 162 -46q29 -21 67 -72q36 60 73 83q48 29 100 29q57 0 93 -43q28 -33 28 -74q0 -17 -4 -37l-156 -735q-19 -87 -74 -134
q-50 -43 -116 -43q-103 0 -124 119zM572 778q-118 0 -203 -118q-69 -97 -69 -223q0 -95 50 -139q44 -38 111 -38q108 0 201 116q37 45 56 114q17 61 17 115q0 94 -59 140q-42 33 -104 33zM753 1169l-276 124q-58 26 -58 80q0 40 29 76q38 47 95 47q22 0 37 -7l283 -126
q39 -18 51 -37q11 -20 11 -43q0 -36 -25 -71q-39 -51 -103 -51q-27 0 -44 8z" />
    <glyph glyph-name="aacute" unicode="&#xe1;" horiz-adv-x="1148" 
d="M644 105q-58 -64 -106 -88q-75 -37 -169 -37q-163 0 -270 117q-105 116 -105 284q0 139 54 275q79 202 262 316q138 86 285 86q98 0 162 -46q29 -21 67 -72q36 60 73 83q48 29 100 29q57 0 93 -43q28 -33 28 -74q0 -17 -4 -37l-156 -735q-19 -87 -74 -134
q-50 -43 -116 -43q-103 0 -124 119zM572 778q-118 0 -203 -118q-69 -97 -69 -223q0 -95 50 -139q45 -38 111 -38q106 0 201 116q37 45 56 114q17 61 17 115q0 94 -59 140q-42 33 -104 33zM619 1363l336 126q19 7 39 7q44 0 66 -32q16 -24 16 -52q0 -44 -37 -84
q-15 -16 -63 -35l-330 -124q-20 -8 -46 -8q-43 0 -65 25q-20 23 -20 58q0 36 23 67q21 29 81 52z" />
    <glyph glyph-name="acircumflex" unicode="&#xe2;" horiz-adv-x="1148" 
d="M644 105q-58 -64 -106 -88q-75 -37 -169 -37q-163 0 -270 117q-105 116 -105 284q0 139 54 275q79 202 262 316q138 86 285 86q98 0 162 -46q29 -21 67 -72q36 60 73 83q48 29 100 29q57 0 93 -43q28 -33 28 -74q0 -17 -4 -37l-156 -735q-19 -87 -74 -134
q-50 -43 -116 -43q-103 0 -124 119zM572 778q-118 0 -203 -118q-69 -97 -69 -223q0 -95 50 -139q45 -38 111 -38q106 0 201 116q37 45 56 114q17 61 17 115q0 94 -59 140q-42 33 -104 33zM725 1286l-244 -117q-16 -8 -40 -8q-45 0 -68 33q-16 23 -16 52q0 73 89 113l280 127
q21 9 44 9q22 0 35 -7l224 -127q54 -31 54 -75q0 -33 -19 -64q-37 -62 -108 -62q-24 0 -37 8z" />
    <glyph glyph-name="atilde" unicode="&#xe3;" horiz-adv-x="1148" 
d="M644 105q-58 -64 -106 -88q-75 -37 -169 -37q-163 0 -270 117q-105 116 -105 284q0 139 54 275q79 202 262 316q138 86 285 86q98 0 162 -46q29 -21 67 -72q36 60 73 83q48 29 100 29q57 0 93 -43q28 -33 28 -74q0 -17 -4 -37l-156 -735q-19 -87 -74 -134
q-50 -43 -116 -43q-103 0 -124 119zM572 778q-118 0 -203 -118q-69 -97 -69 -223q0 -95 50 -139q45 -38 111 -38q106 0 201 116q37 45 56 114q17 61 17 115q0 94 -59 140q-42 33 -104 33zM602 1463q54 0 110 -22q15 -6 97 -53q33 -18 66 -18q19 0 34 9q10 6 32 37
q36 48 86 48q44 0 63 -31q12 -20 12 -44q0 -62 -55 -120q-81 -86 -201 -86q-67 0 -147 44q-91 49 -122 49q-26 0 -48 -21q-5 -5 -38 -44q-25 -31 -68 -31t-63 27q-12 15 -12 38q0 66 48 123q35 43 92 68q58 27 114 27z" />
    <glyph glyph-name="adieresis" unicode="&#xe4;" horiz-adv-x="1148" 
d="M644 105q-58 -64 -106 -88q-75 -37 -169 -37q-163 0 -270 117q-105 116 -105 284q0 139 54 275q79 202 262 316q138 86 285 86q98 0 162 -46q29 -21 67 -72q36 60 73 83q48 29 100 29q57 0 93 -43q28 -33 28 -74q0 -17 -4 -37l-156 -735q-19 -87 -74 -134
q-50 -43 -116 -43q-103 0 -124 119zM572 778q-118 0 -203 -118q-69 -97 -69 -223q0 -95 50 -139q45 -38 111 -38q106 0 201 116q37 45 56 114q17 61 17 115q0 94 -59 140q-42 33 -104 33zM542 1473q66 0 100 -51q21 -30 21 -71q0 -56 -38 -105q-57 -74 -147 -74
q-65 0 -99 51q-21 30 -21 71q0 58 38 105q59 74 146 74zM986 1473q66 0 100 -51q21 -30 21 -71q0 -57 -38 -105q-57 -74 -147 -74q-66 0 -100 51q-21 30 -21 71q0 58 38 105q59 74 147 74z" />
    <glyph glyph-name="aring" unicode="&#xe5;" horiz-adv-x="1148" 
d="M644 105q-58 -64 -106 -88q-75 -37 -169 -37q-163 0 -270 117q-105 116 -105 284q0 139 54 275q79 202 262 316q138 86 285 86q98 0 162 -46q29 -21 67 -72q36 60 73 83q48 29 100 29q57 0 93 -43q28 -33 28 -74q0 -17 -4 -37l-156 -735q-19 -87 -74 -134
q-50 -43 -116 -43q-103 0 -124 119zM572 778q-118 0 -203 -118q-69 -97 -69 -223q0 -95 50 -139q45 -38 111 -38q106 0 201 116q37 45 56 114q17 61 17 115q0 94 -59 140q-42 33 -104 33zM776 1556q88 0 134 -68q28 -40 28 -95q0 -75 -51 -140q-77 -99 -197 -99
q-88 0 -135 67q-27 41 -27 96q0 77 50 140q80 99 198 99zM751 1432q-45 0 -77 -39q-21 -26 -21 -55q0 -24 15 -40q18 -20 47 -20q45 0 77 39q21 27 21 55q0 23 -15 40q-18 20 -47 20z" />
    <glyph glyph-name="ae" unicode="&#xe6;" horiz-adv-x="1776" 
d="M1001 433q11 -73 38 -104q59 -69 179 -69q56 0 117 17q16 5 120 40q41 14 74 14q51 0 82 -34q24 -27 24 -65q0 -77 -85 -140q-60 -44 -173 -76q-123 -36 -231 -36q-92 0 -167 24q-48 15 -108 73q-21 -91 -141 -91q-94 0 -94 78q0 16 4 44q-40 -48 -65 -66
q-35 -25 -104 -44t-125 -19q-121 0 -220 84q-130 109 -130 333q0 135 56 266q87 204 241 303q147 94 303 94q80 0 141 -34q38 -21 85 -83q15 60 42 81q36 29 102 29q47 0 72 -17q21 -15 25 -56q71 45 126 61q64 18 131 18q202 0 317 -155q92 -123 92 -278q0 -114 -44 -157
q-34 -35 -130 -35h-554zM1441 632q-8 188 -161 188q-75 0 -149 -61q-57 -47 -94 -127h404zM573 779q-120 0 -208 -126q-66 -95 -66 -222q0 -87 49 -132q44 -40 104 -40q75 0 143 54q76 60 113 165q23 69 23 134q0 96 -58 137q-43 30 -100 30z" />
    <glyph glyph-name="ccedilla" unicode="&#xe7;" horiz-adv-x="936" 
d="M464 -16l-207 -302q-31 -44 -86 -44q-43 0 -68 28q-18 20 -18 46q0 32 33 79l144 205q-90 30 -145 83q-63 62 -98 149q-28 73 -28 149q0 135 60 284q86 211 271 312q155 85 312 85q152 0 248 -62q60 -38 60 -107q0 -44 -27 -88q-48 -76 -123 -76q-30 0 -103 30
q-58 23 -103 23q-119 0 -214 -117q-73 -91 -73 -223q0 -106 75 -150q48 -28 108 -28q58 0 126 29q61 25 91 25q52 0 78 -37q22 -31 22 -71q0 -38 -20 -72q-48 -84 -198 -127q-56 -16 -117 -23z" />
    <glyph glyph-name="egrave" unicode="&#xe8;" horiz-adv-x="1082" 
d="M310 419q12 -90 60 -131q53 -46 139 -46q65 0 136 27q19 6 131 56q34 15 69 15q48 0 74 -37q22 -30 22 -69q0 -79 -105 -146q-73 -48 -180 -78q-105 -30 -216 -30q-218 0 -335 123q-115 122 -115 279q0 132 65 281q92 211 279 314q148 81 306 81q211 0 325 -164
q72 -104 72 -247q0 -129 -40 -180q-37 -48 -126 -48h-561zM749 624q-4 96 -34 134q-43 54 -122 54q-144 0 -250 -188h406zM733 1169l-276 124q-58 27 -58 80q0 40 29 76q38 47 95 47q22 0 38 -7l282 -126q40 -18 52 -37q11 -19 11 -43q0 -37 -25 -71q-39 -51 -103 -51
q-28 0 -45 8z" />
    <glyph glyph-name="eacute" unicode="&#xe9;" horiz-adv-x="1082" 
d="M310 419q12 -90 60 -131q53 -46 139 -46q65 0 136 27q19 6 131 56q34 15 69 15q48 0 74 -37q22 -30 22 -69q0 -79 -105 -146q-73 -48 -180 -78q-105 -30 -216 -30q-218 0 -335 123q-115 122 -115 279q0 132 65 281q92 211 279 314q148 81 306 81q211 0 325 -164
q72 -104 72 -247q0 -129 -40 -180q-37 -48 -126 -48h-561zM749 624q-4 96 -34 134q-43 54 -122 54q-144 0 -250 -188h406zM586 1363l336 126q18 7 39 7q44 0 66 -32q16 -24 16 -52q0 -44 -37 -84q-15 -16 -64 -35l-329 -124q-20 -8 -46 -8q-43 0 -65 25q-20 23 -20 58
q0 37 23 67q18 24 38 34q11 6 43 18z" />
    <glyph glyph-name="ecircumflex" unicode="&#xea;" horiz-adv-x="1082" 
d="M310 419q12 -90 60 -131q53 -46 139 -46q65 0 136 27q19 6 131 56q34 15 69 15q48 0 74 -37q22 -30 22 -69q0 -79 -105 -146q-73 -48 -180 -78q-105 -30 -216 -30q-218 0 -335 123q-115 122 -115 279q0 132 65 281q92 211 279 314q148 81 306 81q211 0 325 -164
q72 -104 72 -247q0 -129 -40 -180q-37 -48 -126 -48h-561zM749 624q-4 96 -34 134q-43 54 -122 54q-144 0 -250 -188h406zM678 1286l-244 -117q-16 -8 -39 -8q-46 0 -69 34q-16 22 -16 51q0 73 90 113l279 127q21 9 44 9q22 0 35 -7l224 -127q54 -31 54 -75q0 -33 -19 -64
q-37 -62 -108 -62q-23 0 -36 8z" />
    <glyph glyph-name="edieresis" unicode="&#xeb;" horiz-adv-x="1082" 
d="M310 419q12 -90 60 -131q53 -46 139 -46q65 0 136 27q19 6 131 56q34 15 69 15q48 0 74 -37q22 -30 22 -69q0 -79 -105 -146q-73 -48 -180 -78q-105 -30 -216 -30q-218 0 -335 123q-115 122 -115 279q0 132 65 281q92 211 279 314q148 81 306 81q211 0 325 -164
q72 -104 72 -247q0 -129 -40 -180q-37 -48 -126 -48h-561zM749 624q-4 96 -34 134q-43 54 -122 54q-145 0 -250 -188h406zM496 1473q65 0 100 -51q21 -30 21 -71q0 -56 -38 -105q-58 -74 -147 -74q-66 0 -100 50q-21 31 -21 72q0 58 38 105q59 74 147 74zM939 1473
q66 0 100 -51q21 -30 21 -71q0 -57 -38 -105q-57 -74 -147 -74q-66 0 -100 51q-21 30 -21 71q0 58 38 105q59 74 147 74z" />
    <glyph glyph-name="igrave" unicode="&#xec;" horiz-adv-x="527" 
d="M19 187l141 664q19 88 46 127q23 33 67 54q39 20 81 20q66 0 100 -50q19 -28 19 -70q0 -25 -12 -81l-141 -664q-19 -88 -46 -127q-23 -32 -67 -54q-39 -20 -81 -20q-65 0 -100 51q-19 27 -19 69q0 25 12 81zM378 1169l-194 124q-41 27 -50 50q-7 16 -7 34q0 40 29 76
q38 47 92 47q22 0 40 -11l200 -126q62 -39 62 -82q0 -39 -26 -73q-38 -52 -98 -52q-28 0 -48 13z" />
    <glyph glyph-name="iacute" unicode="&#xed;" horiz-adv-x="527" 
d="M14 187l141 664q19 88 46 127q23 33 67 54q39 20 81 20q66 0 100 -50q19 -28 19 -70q0 -25 -12 -81l-141 -664q-19 -88 -46 -127q-23 -32 -67 -54q-39 -20 -81 -20q-65 0 -100 51q-19 27 -19 69q0 25 12 81zM346 1363l254 126q22 11 45 11q38 0 60 -32q16 -24 16 -52
q0 -44 -37 -84q-11 -12 -64 -39l-247 -124q-25 -13 -52 -13q-39 0 -61 26q-20 23 -20 58q0 38 23 67q19 24 83 56z" />
    <glyph glyph-name="icircumflex" unicode="&#xee;" horiz-adv-x="526" 
d="M13 187l141 664q19 88 46 127q23 33 67 54q39 20 81 20q66 0 100 -50q19 -28 19 -70q0 -25 -12 -81l-141 -664q-19 -88 -46 -127q-23 -32 -67 -54q-39 -20 -81 -20q-65 0 -100 51q-19 27 -19 69q0 25 12 81zM400 1286l-189 -117q-13 -8 -40 -8q-45 0 -68 33
q-16 23 -16 52q0 64 54 94l260 145q19 10 41 10q24 0 37 -10l200 -146q25 -17 25 -54q0 -54 -44 -93q-35 -32 -88 -32q-23 0 -32 8z" />
    <glyph glyph-name="idieresis" unicode="&#xef;" horiz-adv-x="526" 
d="M13 187l141 664q19 88 46 127q23 33 67 54q39 20 81 20q66 0 100 -50q19 -28 19 -70q0 -25 -12 -81l-141 -664q-19 -88 -46 -127q-23 -32 -67 -54q-39 -20 -81 -20q-66 0 -100 50q-19 28 -19 70q0 25 12 81zM256 1465q62 0 95 -48q20 -29 20 -68q0 -53 -36 -99
q-55 -70 -139 -70q-63 0 -96 48q-19 29 -19 68q0 55 36 99q56 70 139 70zM619 1465q62 0 95 -48q20 -29 20 -68q0 -53 -36 -99q-55 -70 -140 -70q-62 0 -94 48q-20 29 -20 67q0 56 36 100q56 70 139 70z" />
    <glyph glyph-name="eth" unicode="&#xf0;" horiz-adv-x="1078" 
d="M528 1147l-149 -67q-37 -17 -63 -17q-20 0 -36 10q-37 21 -37 71q0 40 26 68q18 19 79 46l57 26q-24 35 -24 66q0 54 38 102q50 64 127 64q47 0 82 -28q41 -32 76 -75l156 70q23 11 49 11q34 0 54 -24q22 -26 22 -61q0 -65 -87 -103l-81 -36q29 -58 110 -182
q51 -80 83 -204q26 -103 26 -195q0 -150 -61 -302q-81 -202 -247 -307q-160 -100 -335 -100q-136 0 -241 80q-156 118 -156 332q0 187 106 357q101 162 264 237q98 45 226 53q6 0 40 2q-18 17 -45 45zM565 779q-68 0 -137 -57q-130 -107 -130 -287q0 -86 51 -134
q44 -41 101 -41q62 0 128 44q81 55 123 153q27 65 27 133q0 80 -34 127q-20 27 -58 45q-36 17 -71 17z" />
    <glyph glyph-name="ntilde" unicode="&#xf1;" horiz-adv-x="1116" 
d="M446 947q77 60 133 81q79 30 168 30q124 0 201 -57q104 -78 104 -198q0 -48 -16 -124l-104 -492q-19 -88 -46 -127q-23 -32 -67 -54q-39 -20 -81 -20q-66 0 -100 50q-19 28 -19 70q0 25 12 81l90 421q7 35 7 66q0 62 -46 98q-35 27 -89 27q-77 0 -140 -62
q-55 -54 -68 -116l-92 -434q-19 -88 -46 -127q-23 -32 -67 -54q-39 -20 -81 -20q-66 0 -100 50q-19 28 -19 70q0 25 12 81l146 688q19 86 69 131q52 46 121 46q97 0 118 -105zM580 1463q53 0 109 -22q15 -6 98 -53q32 -18 65 -18q19 0 35 9q9 6 32 37q35 48 85 48
q44 0 63 -32q12 -19 12 -43q0 -61 -55 -120q-80 -86 -201 -86q-67 0 -147 44q-90 49 -121 49q-26 0 -48 -21q-6 -5 -38 -44q-25 -31 -68 -31t-63 27q-12 15 -12 38q0 66 47 123q36 43 93 68q57 27 114 27z" />
    <glyph glyph-name="ograve" unicode="&#xf2;" horiz-adv-x="1078" 
d="M632 1058q134 0 241 -80q156 -118 156 -332q0 -129 -54 -260q-83 -204 -247 -306q-160 -100 -334 -100q-137 0 -242 80q-156 117 -156 328q0 133 54 263q83 204 247 306q160 101 335 101zM565 778q-68 0 -138 -57q-129 -107 -129 -286q0 -86 51 -134q44 -41 101 -41
q62 0 127 44q81 55 123 153q27 65 27 133q0 80 -34 126q-20 27 -58 45q-36 17 -70 17zM697 1169l-276 124q-58 27 -58 80q0 40 29 76q38 47 95 47q22 0 38 -7l282 -126q40 -18 52 -37q11 -19 11 -43q0 -37 -25 -71q-39 -51 -103 -51q-28 0 -45 8z" />
    <glyph glyph-name="oacute" unicode="&#xf3;" horiz-adv-x="1078" 
d="M632 1058q134 0 241 -80q156 -118 156 -332q0 -129 -54 -260q-83 -204 -247 -306q-160 -100 -334 -100q-137 0 -242 80q-156 117 -156 328q0 133 54 263q83 204 247 306q160 101 335 101zM565 778q-68 0 -138 -57q-129 -107 -129 -286q0 -86 51 -134q44 -41 101 -41
q62 0 127 44q81 55 123 153q27 65 27 133q0 80 -34 126q-20 27 -58 45q-36 17 -70 17zM584 1363l336 126q19 7 39 7q44 0 66 -32q16 -24 16 -52q0 -44 -37 -84q-15 -16 -63 -35l-330 -124q-20 -8 -46 -8q-43 0 -65 25q-20 23 -20 58q0 36 23 67q22 29 81 52z" />
    <glyph glyph-name="ocircumflex" unicode="&#xf4;" horiz-adv-x="1078" 
d="M632 1058q134 0 241 -80q156 -118 156 -332q0 -129 -54 -260q-83 -204 -247 -306q-160 -100 -334 -100q-137 0 -242 80q-156 117 -156 328q0 133 54 263q83 204 247 306q160 101 335 101zM565 778q-68 0 -138 -57q-129 -107 -129 -286q0 -86 51 -134q44 -41 101 -41
q62 0 127 44q81 55 123 153q27 65 27 133q0 80 -34 126q-20 27 -58 45q-36 17 -70 17zM676 1286l-243 -117q-17 -8 -40 -8q-45 0 -68 33q-16 23 -16 53q0 72 89 112l280 127q20 9 43 9q22 0 35 -7l224 -127q55 -31 55 -75q0 -33 -19 -64q-37 -62 -109 -62q-23 0 -36 8z" />
    <glyph glyph-name="otilde" unicode="&#xf5;" horiz-adv-x="1078" 
d="M632 1058q134 0 241 -80q156 -118 156 -332q0 -129 -54 -260q-83 -204 -247 -306q-160 -100 -334 -100q-137 0 -242 80q-156 117 -156 328q0 133 54 263q83 204 247 306q160 101 335 101zM565 778q-68 0 -138 -57q-129 -107 -129 -286q0 -87 51 -134q44 -41 101 -41
q62 0 127 44q81 55 123 153q27 65 27 133q0 80 -34 126q-20 27 -58 45q-36 17 -70 17zM567 1463q54 0 110 -22q15 -6 97 -53q33 -18 66 -18q19 0 34 9q10 6 32 37q36 48 86 48q44 0 63 -31q12 -20 12 -44q0 -62 -55 -120q-80 -86 -202 -86q-66 0 -146 44q-91 49 -122 49
q-26 0 -48 -21q-5 -5 -38 -44q-25 -31 -68 -31t-63 27q-12 15 -12 38q0 66 48 123q36 43 92 69q58 26 114 26z" />
    <glyph glyph-name="odieresis" unicode="&#xf6;" horiz-adv-x="1078" 
d="M632 1058q134 0 241 -80q156 -118 156 -332q0 -129 -54 -260q-83 -204 -247 -306q-160 -100 -334 -100q-137 0 -242 80q-156 117 -156 328q0 133 54 263q83 204 247 306q160 101 335 101zM565 778q-68 0 -138 -57q-129 -107 -129 -286q0 -86 51 -134q44 -41 101 -41
q62 0 127 44q81 55 123 153q27 65 27 133q0 80 -34 126q-20 27 -58 45q-36 17 -70 17zM494 1473q65 0 100 -51q21 -30 21 -71q0 -56 -38 -105q-58 -74 -147 -74q-66 0 -101 50q-20 31 -20 72q0 58 38 105q59 74 147 74zM938 1473q65 0 100 -51q21 -30 21 -71q0 -56 -38 -105
q-58 -74 -147 -74q-66 0 -100 51q-21 30 -21 71q0 58 38 105q60 74 147 74z" />
    <glyph glyph-name="divide" unicode="&#xf7;" horiz-adv-x="1092" 
d="M509 468q61 0 98 -46q26 -33 26 -77q0 -67 -51 -123q-56 -62 -140 -62q-61 0 -97 46q-26 34 -26 77q0 67 50 123q57 62 140 62zM670 1219q60 0 97 -46q26 -33 26 -77q0 -67 -51 -123q-56 -62 -139 -62q-62 0 -98 46q-26 33 -26 77q0 67 51 123q56 62 140 62zM878 595
h-693q-54 0 -77 13q-32 19 -32 64q0 52 48 89q30 24 101 24h703q53 0 76 -13q32 -19 32 -64q0 -53 -47 -89q-31 -24 -111 -24z" />
    <glyph glyph-name="oslash" unicode="&#xf8;" horiz-adv-x="1184" 
d="M935 982l19 16q37 38 59 49q33 17 67 17q31 0 55 -17q39 -28 39 -79q0 -56 -83 -129l-28 -24q26 -78 26 -148q0 -140 -57 -278q-89 -216 -263 -318q-156 -91 -326 -91q-147 0 -250 79l-14 -13q-37 -37 -60 -49q-32 -16 -66 -16q-32 0 -56 17q-38 27 -38 78q0 56 83 129
l25 22q-25 93 -25 166q0 125 52 251q84 203 252 309q164 105 344 105q129 0 245 -76zM415 261q37 -24 83 -24q141 0 238 136q71 100 71 247zM709 771q-43 28 -89 28q-134 0 -235 -143q-61 -88 -61 -195q0 -13 1 -39z" />
    <glyph glyph-name="ugrave" unicode="&#xf9;" horiz-adv-x="1111" 
d="M1067 851l-95 -446q-35 -165 -121 -253q-75 -76 -189 -123q-122 -50 -251 -50q-116 0 -217 52q-85 45 -132 129q-36 65 -36 139q0 49 12 106l95 446q19 88 46 127q23 33 66 54q39 20 81 20q66 0 100 -50q19 -28 19 -70q0 -26 -12 -81l-87 -409q-7 -35 -7 -59
q0 -59 52 -94q35 -24 84 -24q67 0 128 49q60 48 77 128l87 409q18 88 46 127q23 33 66 54q39 20 81 20q66 0 100 -50q19 -28 19 -70q0 -25 -12 -81zM714 1169l-276 124q-58 27 -58 80q0 40 29 76q38 47 95 47q22 0 37 -7l283 -126q39 -18 51 -37q11 -19 11 -43
q0 -36 -25 -71q-39 -51 -103 -51q-27 0 -44 8z" />
    <glyph glyph-name="uacute" unicode="&#xfa;" horiz-adv-x="1111" 
d="M1067 851l-95 -446q-35 -165 -121 -253q-75 -76 -189 -123q-122 -50 -251 -50q-116 0 -217 52q-85 45 -132 129q-36 65 -36 139q0 49 12 106l95 446q19 88 46 127q23 33 66 54q39 20 81 20q66 0 100 -50q19 -28 19 -70q0 -26 -12 -81l-87 -409q-7 -35 -7 -59
q0 -59 52 -94q35 -24 84 -24q67 0 128 49q60 48 77 128l87 409q18 88 46 127q23 33 66 54q39 20 81 20q66 0 100 -50q19 -28 19 -70q0 -25 -12 -81zM614 1363l336 126q19 7 39 7q44 0 66 -32q16 -24 16 -52q0 -44 -37 -84q-15 -16 -63 -35l-330 -124q-20 -8 -46 -8
q-85 0 -85 83q0 37 23 67q18 24 39 34q10 6 42 18z" />
    <glyph glyph-name="ucircumflex" unicode="&#xfb;" horiz-adv-x="1111" 
d="M1067 851l-95 -446q-35 -165 -121 -253q-75 -76 -189 -123q-122 -50 -251 -50q-116 0 -217 52q-85 45 -132 129q-36 65 -36 139q0 49 12 106l95 446q19 88 46 127q23 33 66 54q39 20 81 20q66 0 100 -50q19 -28 19 -70q0 -26 -12 -81l-87 -409q-7 -35 -7 -59
q0 -59 52 -94q35 -24 84 -24q67 0 128 49q60 48 77 128l87 409q18 88 46 127q23 33 66 54q39 20 81 20q66 0 100 -50q19 -28 19 -70q0 -25 -12 -81zM693 1286l-244 -117q-17 -8 -39 -8q-46 0 -69 34q-16 22 -16 51q0 73 89 113l280 127q21 9 44 9q22 0 35 -7l224 -127
q54 -31 54 -75q0 -33 -19 -64q-37 -62 -108 -62q-24 0 -37 8z" />
    <glyph glyph-name="udieresis" unicode="&#xfc;" horiz-adv-x="1111" 
d="M1067 851l-95 -446q-35 -165 -121 -253q-75 -76 -189 -123q-122 -50 -251 -50q-116 0 -217 52q-85 45 -132 129q-36 65 -36 139q0 49 12 106l95 446q19 88 46 127q23 33 66 54q39 20 81 20q66 0 100 -50q19 -28 19 -70q0 -26 -12 -81l-87 -409q-7 -35 -7 -59
q0 -59 52 -94q35 -24 84 -24q67 0 128 49q60 48 77 128l87 409q18 88 46 127q23 33 66 54q39 20 81 20q66 0 100 -50q19 -28 19 -70q0 -25 -12 -81zM510 1473q66 0 100 -51q21 -30 21 -71q0 -56 -38 -105q-57 -74 -147 -74q-66 0 -100 50q-20 30 -20 72q0 58 38 105
q59 74 146 74zM954 1473q65 0 100 -51q21 -30 21 -71q0 -57 -38 -105q-58 -74 -147 -74q-66 0 -101 51q-20 30 -20 71q0 58 38 105q59 74 147 74z" />
    <glyph glyph-name="yacute" unicode="&#xfd;" horiz-adv-x="1018" 
d="M469 466l269 442q36 62 57 86q53 59 134 59q58 0 92 -37q35 -37 35 -80q0 -50 -59 -143l-690 -1092q-35 -60 -56 -83q-52 -56 -129 -56q-58 0 -92 37q-33 37 -33 78q0 51 58 141l177 277l-148 702q-10 49 -10 74q0 73 51 125q56 57 135 57q53 0 83 -33q30 -34 44 -109z
M581 1363l336 126q19 7 39 7q44 0 66 -32q16 -24 16 -52q0 -44 -37 -84q-15 -16 -63 -35l-330 -124q-20 -8 -46 -8q-43 0 -64 25q-21 23 -21 58q0 37 23 67q17 24 38 34q11 6 43 18z" />
    <glyph glyph-name="thorn" unicode="&#xfe;" horiz-adv-x="1126" 
d="M451 938q30 40 49.5 56t58.5 31q87 34 177 34q154 0 250 -119q95 -116 95 -281q0 -123 -50 -254q-89 -231 -251 -335q-138 -90 -294 -90q-78 0 -137 28q-33 15 -83 60l-61 -291q-19 -87 -46 -126q-23 -33 -67 -54q-39 -20 -81 -20q-66 0 -100 50q-19 28 -19 70
q0 24 12 80l324 1525q19 87 46 126q23 33 67 54q39 20 80 20q66 0 100 -50q19 -27 19 -69q0 -28 -11 -81zM613 779q-110 0 -196 -115q-73 -98 -73 -226q0 -106 60 -150q39 -28 96 -28q115 0 206 128q66 92 66 200q0 66 -26 115q-40 76 -133 76z" />
    <glyph glyph-name="ydieresis" unicode="&#xff;" horiz-adv-x="1018" 
d="M469 466l269 442q36 62 57 86q53 59 134 59q58 0 92 -37q35 -37 35 -80q0 -50 -59 -143l-690 -1092q-35 -60 -56 -83q-52 -56 -129 -56q-58 0 -92 37q-33 37 -33 78q0 51 58 141l177 277l-148 702q-10 49 -10 74q0 73 51 125q56 57 135 57q53 0 83 -33q30 -34 44 -109z
M464 1473q65 0 100 -51q21 -30 21 -71q0 -56 -38 -105q-58 -74 -147 -74q-66 0 -101 50q-20 31 -20 72q0 58 38 105q60 74 147 74zM907 1473q66 0 100 -51q21 -30 21 -71q0 -56 -38 -105q-57 -74 -146 -74q-66 0 -101 51q-20 30 -20 71q0 58 38 105q59 74 146 74z" />
    <glyph glyph-name="Amacron" unicode="&#x100;" horiz-adv-x="1243" 
d="M803 261h-525l-58 -119q-41 -86 -81 -122q-46 -43 -113 -43q-53 0 -89 32q-42 37 -42 88q0 49 52 139l565 981q101 175 266 175q91 0 142 -55q45 -49 56 -120l148 -981q7 -47 7 -65q0 -87 -62 -142q-57 -52 -135 -52q-113 0 -123 165zM768 541l-55 519l-276 -519h331z
M629 1753h450q70 0 93 -22q24 -23 24 -61q0 -58 -51 -97q-33 -25 -110 -25h-450q-70 0 -93 22q-24 23 -24 61q0 57 51 97q33 25 110 25z" />
    <glyph glyph-name="amacron" unicode="&#x101;" horiz-adv-x="1148" 
d="M644 105q-58 -64 -106 -88q-75 -37 -169 -37q-163 0 -270 117q-105 116 -105 284q0 139 54 275q79 202 262 316q138 86 285 86q98 0 162 -46q29 -21 67 -72q36 60 73 83q48 29 100 29q57 0 93 -43q28 -33 28 -74q0 -17 -4 -37l-156 -735q-19 -87 -74 -134
q-50 -43 -116 -43q-103 0 -124 119zM572 778q-118 0 -203 -118q-69 -97 -69 -223q0 -95 50 -139q45 -38 111 -38q106 0 201 116q37 45 56 114q17 61 17 115q0 94 -59 140q-42 33 -104 33zM526 1411h437q70 0 93 -22q24 -23 24 -61q0 -58 -51 -97q-34 -25 -110 -25h-436
q-69 0 -93 22t-24 61q0 58 51 97q33 25 109 25z" />
    <glyph glyph-name="Abreve" unicode="&#x102;" horiz-adv-x="1243" 
d="M803 261h-525l-58 -119q-41 -86 -81 -122q-46 -43 -113 -43q-53 0 -89 32q-42 37 -42 88q0 49 52 139l565 981q101 175 266 175q91 0 142 -55q45 -49 56 -120l148 -981q7 -47 7 -65q0 -87 -62 -142q-57 -52 -135 -52q-113 0 -123 165zM768 541l-55 519l-276 -519h331z
M621 1818q35 0 59 -36q43 -62 65 -74q36 -20 91 -20q74 0 136 34q15 8 79 58q47 38 85 38q22 0 40 -11q33 -21 33 -64q0 -82 -94 -151q-48 -36 -115 -61q-97 -36 -198 -36q-155 0 -249 84q-61 55 -61 116q0 63 51 99q36 24 78 24z" />
    <glyph glyph-name="abreve" unicode="&#x103;" horiz-adv-x="1148" 
d="M644 105q-58 -64 -106 -88q-75 -37 -169 -37q-163 0 -270 117q-105 116 -105 284q0 139 54 275q79 202 262 316q138 86 285 86q98 0 162 -46q29 -21 67 -72q36 60 73 83q48 29 100 29q57 0 93 -43q28 -33 28 -74q0 -17 -4 -37l-156 -735q-19 -87 -74 -134
q-50 -43 -116 -43q-103 0 -124 119zM572 778q-118 0 -203 -118q-69 -97 -69 -223q0 -95 50 -139q44 -38 111 -38q108 0 201 116q37 45 56 114q17 61 17 115q0 94 -59 140q-42 33 -104 33zM506 1496q32 0 49 -17q8 -8 39 -70q27 -55 137 -55q80 0 130 35q14 9 77 71
q35 36 87 36q22 0 40 -9q34 -18 34 -61q0 -82 -99 -166q-46 -39 -115 -64q-98 -36 -199 -36q-158 0 -246 84q-61 59 -61 130q0 61 51 98q35 24 76 24z" />
    <glyph glyph-name="Aogonek" unicode="&#x104;" horiz-adv-x="1243" 
d="M803 261h-525l-58 -119q-41 -86 -81 -122q-46 -43 -113 -43q-53 0 -89 32q-42 37 -42 88q0 49 52 139l565 981q101 175 266 175q91 0 142 -55q45 -49 56 -120l148 -981q7 -49 7 -67q0 -59 -32 -106q-25 -36 -82 -66q-49 -35 -62 -50q-22 -28 -22 -52q0 -22 14 -38
q13 -15 32 -15q7 0 43 7q11 2 21 2q52 0 52 -51t-47 -89q-55 -46 -139 -46t-122 49q-29 37 -29 91q0 122 126 193q-37 7 -54 42q-15 29 -19 102zM768 541l-55 519l-276 -519h331z" />
    <glyph glyph-name="aogonek" unicode="&#x105;" horiz-adv-x="1148" 
d="M826 -3q-61 -57 -61 -101q0 -23 16 -39q16 -15 36 -15q8 0 48 7q12 2 23 2q59 0 59 -52q0 -51 -50 -89q-61 -45 -153 -45q-94 0 -138 49q-34 38 -34 95t39 114q24 34 98 77q-31 18 -45 41q-12 20 -20 64q-58 -63 -106 -87q-75 -38 -169 -38q-163 0 -270 117
q-105 116 -105 285q0 139 54 275q79 202 262 315q139 87 286 87q90 0 154 -51q24 -18 74 -68q36 60 73 83q47 29 100 29q57 0 93 -43q28 -33 28 -74q0 -17 -4 -37l-156 -735q-18 -83 -73 -134q-24 -22 -59 -32zM572 779q-117 0 -203 -119q-69 -96 -69 -222q0 -96 50 -140
q44 -38 111 -38q108 0 201 116q37 45 56 115q17 60 17 115q0 94 -59 140q-43 33 -104 33z" />
    <glyph glyph-name="Cacute" unicode="&#x106;" horiz-adv-x="1171" 
d="M871 1399q175 0 287 -65q79 -46 79 -122q0 -71 -53 -127q-42 -44 -107 -44q-37 0 -108 31q-78 34 -155 34q-187 0 -320 -165q-68 -84 -105 -212q-29 -100 -29 -193q0 -171 110 -235q71 -41 161 -41q81 0 133 21l102 41q40 16 72 16q50 0 80 -41q20 -28 20 -70
q0 -94 -88 -159q-72 -52 -187 -80q-89 -22 -189 -22q-228 0 -364 110q-92 75 -143 200q-44 108 -44 223q0 203 91 405q118 260 345 388q191 107 412 107zM797 1697l334 113q14 5 33 5q42 0 66 -24q22 -23 22 -57q0 -85 -101 -120l-326 -111q-24 -8 -49 -8q-41 0 -63 25
q-20 24 -20 58q0 84 104 119z" />
    <glyph glyph-name="cacute" unicode="&#x107;" horiz-adv-x="936" 
d="M634 1058q151 0 248 -62q60 -37 60 -107q0 -44 -28 -88q-47 -76 -121 -76q-31 0 -104 30q-58 23 -103 23q-119 0 -214 -117q-73 -91 -73 -224q0 -106 75 -150q48 -28 108 -28q58 0 126 29q61 26 91 26q52 0 78 -36q22 -32 22 -73q0 -62 -54 -116q-42 -43 -135 -74
q-108 -36 -219 -36q-167 0 -273 100q-127 120 -127 296q0 137 60 285q86 212 271 313q155 85 312 85zM554 1363l336 126q18 7 39 7q44 0 66 -32q16 -24 16 -52q0 -44 -37 -84q-15 -16 -64 -35l-329 -124q-20 -8 -46 -8q-44 0 -66 25q-20 23 -20 58q0 36 23 67q18 24 39 34
q11 6 43 18z" />
    <glyph glyph-name="Ccircumflex" unicode="&#x108;" horiz-adv-x="1171" 
d="M871 1399q175 0 287 -65q79 -46 79 -122q0 -71 -53 -127q-42 -44 -107 -44q-37 0 -108 31q-78 34 -155 34q-187 0 -320 -165q-68 -84 -105 -212q-29 -100 -29 -193q0 -171 110 -235q71 -41 161 -41q81 0 133 21l102 41q40 16 72 16q50 0 80 -41q20 -28 20 -70
q0 -94 -88 -159q-72 -52 -187 -80q-89 -22 -189 -22q-228 0 -364 110q-92 75 -143 200q-44 108 -44 223q0 203 91 405q118 260 345 388q191 107 412 107zM869 1587l-251 -87q-25 -9 -44 -9q-38 0 -63 34q-17 23 -17 53q0 33 20 61q25 36 69 51l287 97q26 9 40 9q12 0 37 -9
l241 -88q60 -21 60 -77q0 -35 -20 -65q-40 -61 -112 -61q-13 0 -23 4z" />
    <glyph glyph-name="Cdotaccent" unicode="&#x10a;" horiz-adv-x="1171" 
d="M871 1399q175 0 287 -65q79 -46 79 -122q0 -71 -53 -127q-42 -44 -107 -44q-37 0 -108 31q-78 34 -155 34q-187 0 -320 -165q-68 -84 -105 -212q-29 -100 -29 -193q0 -171 110 -235q71 -41 161 -41q81 0 133 21l102 41q40 16 72 16q50 0 80 -41q20 -28 20 -70
q0 -94 -88 -159q-72 -52 -187 -80q-89 -22 -189 -22q-228 0 -364 110q-92 75 -143 200q-44 108 -44 223q0 203 91 405q118 260 345 388q191 107 412 107zM943 1807q66 0 100 -50q21 -31 21 -72q0 -55 -38 -104q-57 -74 -147 -74q-66 0 -100 50q-21 31 -21 72q0 57 38 104
q59 74 147 74z" />
    <glyph glyph-name="cdotaccent" unicode="&#x10b;" horiz-adv-x="936" 
d="M634 1058q151 0 248 -62q60 -37 60 -107q0 -44 -28 -88q-47 -76 -121 -76q-31 0 -104 30q-58 23 -103 23q-119 0 -214 -117q-73 -91 -73 -224q0 -106 75 -150q48 -28 108 -28q58 0 126 29q61 26 91 26q52 0 78 -36q22 -32 22 -73q0 -62 -54 -116q-42 -43 -135 -74
q-108 -36 -219 -36q-167 0 -273 100q-127 120 -127 296q0 137 60 285q86 212 271 313q155 85 312 85zM679 1473q65 0 100 -51q21 -30 21 -71q0 -57 -38 -105q-57 -74 -147 -74q-66 0 -100 51q-21 30 -21 71q0 58 38 105q59 74 147 74z" />
    <glyph glyph-name="Ccaron" unicode="&#x10c;" horiz-adv-x="1171" 
d="M871 1399q175 0 287 -65q79 -46 79 -122q0 -71 -53 -127q-42 -44 -107 -44q-37 0 -108 31q-78 34 -155 34q-187 0 -320 -165q-68 -84 -105 -212q-29 -100 -29 -193q0 -171 110 -235q71 -41 161 -41q81 0 133 21l102 41q40 16 72 16q50 0 80 -41q20 -28 20 -70
q0 -94 -88 -159q-72 -52 -187 -80q-89 -22 -189 -22q-228 0 -364 110q-92 75 -143 200q-44 108 -44 223q0 203 91 405q118 260 345 388q191 107 412 107zM893 1704l241 103q20 9 41 9q44 0 67 -33q16 -23 16 -53q0 -77 -89 -113l-277 -113q-23 -9 -45 -9q-19 0 -34 7
l-227 114q-54 27 -54 75q0 33 19 63q37 62 107 62q24 0 38 -7z" />
    <glyph glyph-name="ccaron" unicode="&#x10d;" horiz-adv-x="936" 
d="M634 1058q151 0 248 -62q60 -37 60 -107q0 -44 -28 -88q-47 -76 -121 -76q-31 0 -104 30q-58 23 -103 23q-119 0 -214 -117q-73 -91 -73 -224q0 -106 75 -150q48 -28 108 -28q58 0 126 29q61 26 91 26q52 0 78 -36q22 -32 22 -73q0 -62 -54 -116q-42 -43 -135 -74
q-108 -36 -219 -36q-167 0 -273 100q-127 120 -127 296q0 137 60 285q86 212 271 313q155 85 312 85zM656 1369l244 118q18 8 39 8q46 0 69 -33q16 -23 16 -53q0 -73 -89 -113l-280 -126q-19 -9 -43 -9q-23 0 -36 7l-224 127q-54 31 -54 74q0 33 19 64q37 62 108 62
q25 0 37 -7z" />
    <glyph glyph-name="Dcaron" unicode="&#x10e;" horiz-adv-x="1304" 
d="M8 233l193 905q25 116 65 158q65 69 173 69h38h257q264 0 407 -126q154 -136 154 -391q0 -173 -68 -343q-120 -299 -371 -423q-172 -85 -366 -82l-305 5q-62 0 -86 5q-61 11 -91 67q-14 27 -14 60q0 28 14 96zM331 273h156q222 0 355 177q63 84 94 197q23 86 23 163
q0 127 -67 199q-49 53 -124 69q-64 14 -143 14h-120zM823 1704l240 103q20 9 41 9q44 0 67 -33q16 -23 16 -53q0 -77 -89 -113l-277 -113q-22 -9 -45 -9q-18 0 -33 7l-227 114q-55 27 -55 75q0 33 19 63q37 62 108 62q23 0 37 -7z" />
    <glyph glyph-name="dcaron" unicode="&#x10f;" horiz-adv-x="1429" 
d="M814 963l72 339q18 88 46 126q23 33 66 54q39 20 81 20q66 0 100 -50q19 -28 19 -69q0 -25 -12 -81l-243 -1144q-19 -89 -74 -134q-46 -38 -109 -38q-64 0 -94 34q-21 25 -31 85q-58 -62 -114 -87q-81 -38 -172 -38q-206 0 -300 191q-53 108 -53 233q0 138 64 275
q105 220 280 311q132 68 254 68q124 0 220 -95zM577 793q-66 0 -133 -50q-142 -107 -142 -290q0 -96 60 -143q45 -35 101 -35q73 0 140 57q75 63 109 157q20 58 20 120q0 94 -48 141q-44 43 -107 43zM1280 1235l137 214q35 54 95 54q39 0 63 -29q19 -21 19 -46
q0 -32 -20 -63l-136 -211q-36 -57 -94 -57q-48 0 -73 30q-16 20 -16 44q0 25 25 64z" />
    <glyph glyph-name="Dcroat" unicode="&#x110;" horiz-adv-x="1359" 
d="M135 565h-28q-49 0 -76 29q-24 26 -24 70q0 52 34 93q45 54 119 54h27l69 327q25 116 65 158q65 69 173 69h38h257q265 0 407 -126q154 -136 154 -391q0 -173 -68 -343q-120 -299 -371 -423q-172 -85 -366 -82l-305 5q-62 0 -86 5q-62 12 -91 67q-14 27 -14 60
q0 28 15 96zM449 565l-63 -292h156q222 0 355 177q63 84 94 197q23 85 23 163q0 127 -67 200q-76 82 -267 82h-119l-60 -281h110q105 0 135 -24q28 -23 28 -67q0 -97 -65 -133q-39 -22 -150 -22h-110z" />
    <glyph glyph-name="dcroat" unicode="&#x111;" horiz-adv-x="1195" 
d="M851 1138h-137q-58 0 -82 14q-35 20 -35 69q0 57 51 97q33 25 110 25h137q16 57 37 85q54 74 147 74q65 0 99 -50q20 -29 20 -70q0 -13 -3 -39h12q70 0 93 -22q24 -23 24 -61q0 -58 -51 -97q-33 -25 -109 -25h-13l-208 -980q-19 -89 -73 -134q-47 -38 -110 -38
q-64 0 -93 34q-21 24 -32 85q-52 -63 -112 -88q-84 -37 -175 -37q-205 0 -299 191q-53 108 -53 233q0 138 64 275q104 219 280 311q131 68 254 68q124 0 220 -95zM577 793q-66 0 -133 -50q-142 -106 -142 -290q0 -96 60 -143q45 -35 101 -35q72 0 140 57q75 62 108 157
q21 59 21 121q0 92 -48 140q-44 43 -107 43z" />
    <glyph glyph-name="Emacron" unicode="&#x112;" horiz-adv-x="943" 
d="M504 1085l-56 -260h262q95 0 126 -30q33 -31 33 -84q0 -78 -69 -131q-46 -35 -150 -35h-261l-56 -265h292q96 0 127 -30q33 -32 33 -84q0 -78 -70 -131q-45 -35 -149 -35h-379q-63 0 -87 4q-62 11 -93 67q-14 27 -14 62q0 27 14 95l194 909q25 117 65 159q65 69 173 69
h38h379q95 0 126 -30q33 -32 33 -83q0 -79 -69 -132q-46 -35 -150 -35h-292zM497 1753h450q69 0 92 -22q24 -23 24 -61q0 -58 -51 -97q-33 -25 -109 -25h-450q-69 0 -93 22q-24 23 -24 61q0 58 51 97q33 25 110 25z" />
    <glyph glyph-name="emacron" unicode="&#x113;" horiz-adv-x="1082" 
d="M310 419q12 -90 60 -131q53 -46 139 -46q65 0 136 27q19 6 131 56q34 15 69 15q48 0 74 -37q22 -30 22 -69q0 -79 -105 -146q-73 -48 -180 -78q-105 -30 -216 -30q-218 0 -335 123q-115 122 -115 279q0 132 65 281q92 211 279 314q148 81 306 81q211 0 325 -164
q72 -104 72 -247q0 -129 -40 -180q-37 -48 -126 -48h-561zM749 624q-4 96 -34 134q-43 54 -122 54q-145 0 -250 -188h406zM486 1411h437q70 0 93 -22q24 -23 24 -61q0 -58 -51 -97q-34 -25 -110 -25h-436q-70 0 -93 22q-24 22 -24 61q0 58 51 97q33 25 109 25z" />
    <glyph glyph-name="Ebreve" unicode="&#x114;" horiz-adv-x="943" 
d="M504 1085l-56 -260h262q95 0 126 -30q33 -31 33 -84q0 -78 -69 -131q-46 -35 -150 -35h-261l-56 -265h292q96 0 127 -30q33 -32 33 -84q0 -78 -70 -131q-45 -35 -149 -35h-379q-63 0 -87 4q-62 11 -93 67q-14 27 -14 62q0 27 14 95l194 909q25 117 65 159q65 69 173 69
h38h379q95 0 126 -30q33 -32 33 -83q0 -79 -70 -132q-45 -35 -149 -35h-292zM484 1818q35 0 60 -36q43 -62 64 -74q36 -20 91 -20q75 0 137 34q14 8 79 58q47 38 85 38q22 0 40 -11q33 -21 33 -64q0 -82 -94 -151q-48 -36 -115 -61q-97 -36 -198 -36q-156 0 -250 84
q-61 55 -61 116q0 63 51 99q36 24 78 24z" />
    <glyph glyph-name="ebreve" unicode="&#x115;" horiz-adv-x="1082" 
d="M310 419q12 -90 60 -131q53 -46 139 -46q65 0 136 27q19 6 131 56q34 15 69 15q48 0 74 -37q22 -30 22 -69q0 -79 -105 -146q-73 -48 -180 -78q-105 -30 -216 -30q-218 0 -335 123q-115 122 -115 279q0 132 65 281q92 211 279 314q148 81 306 81q211 0 325 -164
q72 -104 72 -247q0 -129 -40 -180q-37 -48 -126 -48h-561zM749 624q-4 96 -34 134q-43 54 -122 54q-144 0 -250 -188h406zM469 1496q32 0 48 -17q9 -8 40 -70q27 -55 137 -55q80 0 130 35q14 9 77 71q35 36 87 36q22 0 40 -9q34 -18 34 -61q0 -82 -99 -166q-46 -39 -116 -64
q-97 -36 -198 -36q-158 0 -246 84q-61 59 -61 129q0 62 51 99q35 24 76 24z" />
    <glyph glyph-name="Edotaccent" unicode="&#x116;" horiz-adv-x="943" 
d="M504 1085l-56 -260h262q95 0 126 -30q33 -31 33 -84q0 -78 -69 -131q-46 -35 -150 -35h-261l-56 -265h292q96 0 127 -30q33 -32 33 -84q0 -78 -70 -131q-45 -35 -149 -35h-379q-63 0 -87 4q-62 11 -93 67q-14 27 -14 62q0 27 14 95l194 909q25 117 65 159q65 69 173 69
h38h379q95 0 126 -30q33 -32 33 -83q0 -79 -69 -132q-46 -35 -150 -35h-292zM733 1807q65 0 100 -50q21 -31 21 -72q0 -56 -38 -104q-58 -74 -147 -74q-66 0 -100 50q-21 31 -21 71q0 58 38 105q59 74 147 74z" />
    <glyph glyph-name="edotaccent" unicode="&#x117;" horiz-adv-x="1082" 
d="M310 419q12 -90 60 -131q53 -46 139 -46q65 0 136 27q19 6 131 56q34 15 69 15q48 0 74 -37q22 -30 22 -69q0 -79 -105 -146q-73 -48 -180 -78q-105 -30 -216 -30q-218 0 -335 123q-115 122 -115 279q0 132 65 281q92 211 279 314q148 81 306 81q211 0 325 -164
q72 -104 72 -247q0 -129 -40 -180q-37 -48 -126 -48h-561zM749 624q-4 96 -34 134q-43 54 -122 54q-145 0 -250 -188h406zM718 1473q65 0 100 -51q21 -30 21 -71q0 -57 -38 -105q-57 -74 -147 -74q-66 0 -100 51q-21 30 -21 71q0 58 38 105q59 74 147 74z" />
    <glyph glyph-name="Eogonek" unicode="&#x118;" horiz-adv-x="943" 
d="M481 0h-294q-63 0 -87 4q-62 11 -93 67q-14 27 -14 62q0 27 14 95l194 909q25 117 65 159q65 69 173 69h38h379q95 0 126 -30q33 -32 33 -84q0 -78 -70 -131q-45 -35 -149 -35h-292l-56 -260h262q95 0 126 -30q33 -31 33 -84q0 -78 -69 -131q-46 -35 -150 -35h-261
l-56 -265h292q79 0 112 -19q48 -29 48 -93q0 -61 -53 -120q-18 -19 -38 -28l-44 -15q-37 -13 -62 -53q-21 -31 -21 -56q0 -22 14 -37q15 -17 39 -17q8 0 47 7q12 2 23 2q59 0 59 -52q0 -50 -51 -89q-60 -45 -151 -45q-94 0 -138 49q-34 38 -34 96q0 101 106 190z" />
    <glyph glyph-name="eogonek" unicode="&#x119;" horiz-adv-x="1082" 
d="M310 419q12 -90 60 -132q53 -46 139 -46q66 0 137 27q18 7 131 57q33 15 71 15q45 0 71 -37q23 -31 23 -68q0 -84 -136 -166q-164 -98 -164 -173q0 -22 14 -37q16 -17 39 -17q7 0 47 7q12 2 23 2q59 0 59 -53q0 -49 -50 -88q-61 -45 -153 -45q-93 0 -137 49
q-34 37 -34 96q0 82 90 176q-57 -7 -96 -7q-222 0 -339 124q-115 122 -115 278q0 133 65 282q92 211 279 314q148 81 306 81q149 0 255 -87q142 -117 142 -325q0 -128 -40 -179q-37 -48 -126 -48h-561zM749 624q-4 96 -34 134q-43 54 -122 54q-144 0 -250 -188h406z" />
    <glyph glyph-name="Ecaron" unicode="&#x11a;" horiz-adv-x="943" 
d="M504 1085l-56 -260h262q95 0 126 -30q33 -31 33 -84q0 -78 -69 -131q-46 -35 -150 -35h-261l-56 -265h292q96 0 127 -30q33 -32 33 -84q0 -78 -70 -131q-45 -35 -149 -35h-379q-63 0 -87 4q-62 11 -93 67q-14 27 -14 62q0 27 14 95l194 909q25 117 65 159q65 69 173 69
h38h379q95 0 126 -30q33 -32 33 -83q0 -79 -69 -132q-46 -35 -150 -35h-292zM711 1704l241 103q20 9 40 9q44 0 67 -33q16 -24 16 -53q0 -77 -89 -113l-277 -113q-22 -9 -45 -9q-18 0 -33 7l-227 114q-55 27 -55 74q0 33 19 64q37 62 108 62q23 0 37 -7z" />
    <glyph glyph-name="ecaron" unicode="&#x11b;" horiz-adv-x="1082" 
d="M310 419q12 -90 60 -131q53 -46 139 -46q65 0 136 27q19 6 131 56q34 15 69 15q48 0 74 -37q22 -30 22 -69q0 -79 -105 -146q-73 -48 -180 -78q-105 -30 -216 -30q-218 0 -335 123q-115 122 -115 279q0 132 65 281q92 211 279 314q148 81 306 81q211 0 325 -164
q72 -104 72 -247q0 -129 -40 -180q-37 -48 -126 -48h-561zM749 624q-4 96 -34 134q-43 54 -122 54q-144 0 -250 -188h406zM695 1369l244 118q17 8 39 8q45 0 68 -33q16 -23 16 -53q0 -73 -88 -113l-280 -126q-20 -9 -44 -9q-23 0 -35 7l-224 127q-54 30 -54 74q0 33 19 64
q37 62 108 62q25 0 37 -7z" />
    <glyph glyph-name="Gcircumflex" unicode="&#x11c;" horiz-adv-x="1372" 
d="M992 528h-151q-79 0 -112 19q-48 28 -48 95q0 78 70 131q45 35 149 35h305q135 0 135 -120q0 -91 -55 -225q-103 -253 -310 -383q-180 -114 -404 -114q-307 0 -456 221q-92 136 -92 314q0 187 81 375q113 260 336 396q207 127 452 127q208 0 353 -100q104 -72 104 -157
q0 -71 -62 -123q-52 -42 -107 -42q-39 0 -84 27q-10 6 -88 63q-29 22 -86 38q-49 14 -101 14q-110 0 -211 -73q-139 -100 -200 -256q-48 -122 -48 -249q0 -179 106 -249q67 -46 169 -46q241 0 355 282zM915 1587l-251 -87q-25 -9 -45 -9q-37 0 -62 34q-17 24 -17 53
q0 32 20 61q25 36 69 51l287 97q26 9 40 9q12 0 36 -9l242 -88q60 -21 60 -77q0 -35 -20 -65q-40 -61 -112 -61q-13 0 -23 4z" />
    <glyph glyph-name="gcircumflex" unicode="&#x11d;" horiz-adv-x="1126" 
d="M811 940q45 64 80 86q42 26 87 26q47 0 79 -28q38 -34 38 -90q0 -21 -6 -47l-168 -794q-52 -243 -199 -372q-81 -71 -201 -111q-118 -38 -243 -38q-203 0 -342 86q-67 42 -67 110q0 49 30 87q54 69 136 69q27 0 48 -8l79 -29q97 -35 178 -35q146 0 225 100q36 46 71 164
q-73 -71 -122 -98q-72 -38 -161 -38q-146 0 -246 93q-116 106 -116 298q0 150 66 303q92 209 267 310q130 75 265 75q61 0 98 -18q28 -14 124 -101zM565 779q-110 0 -192 -111q-75 -102 -75 -238q0 -93 59 -137q44 -33 99 -33q113 0 201 124q66 94 66 212q0 110 -62 153
q-43 30 -96 30zM669 1266l-251 -87q-26 -9 -45 -9q-37 0 -62 34q-17 24 -17 53q0 32 20 62q25 35 69 50l287 97q29 10 40 10q9 0 36 -10l242 -87q60 -22 60 -77q0 -37 -20 -66q-41 -61 -112 -61q-13 0 -23 4z" />
    <glyph glyph-name="Gbreve" unicode="&#x11e;" horiz-adv-x="1372" 
d="M992 528h-151q-79 0 -112 19q-48 28 -48 95q0 78 70 131q45 35 149 35h305q135 0 135 -120q0 -91 -55 -225q-103 -253 -310 -383q-180 -114 -404 -114q-307 0 -456 221q-92 136 -92 314q0 187 81 375q113 260 336 396q207 127 452 127q208 0 353 -100q104 -72 104 -157
q0 -71 -62 -123q-52 -42 -108 -42q-38 0 -83 27q-10 6 -88 63q-29 22 -86 38q-50 14 -101 14q-110 0 -211 -73q-139 -100 -200 -256q-48 -122 -48 -249q0 -179 106 -250q68 -45 169 -45q241 0 355 282zM691 1818q35 0 60 -36q43 -62 64 -74q36 -20 92 -20q74 0 136 34
q14 8 79 58q47 38 85 38q22 0 40 -11q33 -21 33 -64q0 -82 -94 -151q-48 -36 -115 -61q-97 -36 -198 -36q-156 0 -250 84q-61 55 -61 116q0 63 51 99q36 24 78 24z" />
    <glyph glyph-name="gbreve" unicode="&#x11f;" horiz-adv-x="1126" 
d="M811 940q45 64 80 86q42 26 87 26q47 0 79 -28q38 -34 38 -90q0 -21 -6 -47l-168 -794q-52 -243 -199 -372q-81 -71 -201 -111q-118 -38 -243 -38q-203 0 -342 86q-67 42 -67 110q0 49 30 87q54 69 136 69q27 0 48 -8l79 -29q97 -35 178 -35q146 0 225 100q36 46 71 164
q-73 -71 -122 -98q-72 -38 -161 -38q-146 0 -246 93q-116 106 -116 298q0 150 66 303q92 209 267 310q130 75 265 75q61 0 98 -18q28 -14 124 -101zM565 779q-110 0 -192 -111q-75 -102 -75 -238q0 -93 59 -137q44 -33 99 -33q113 0 201 124q66 94 66 212q0 110 -62 153
q-43 30 -96 30zM491 1496q32 0 49 -17q8 -8 39 -70q27 -55 137 -55q80 0 130 35q14 9 77 71q35 36 87 36q22 0 40 -9q34 -18 34 -61q0 -82 -99 -166q-46 -39 -115 -64q-98 -36 -199 -36q-158 0 -246 84q-61 59 -61 130q0 61 51 98q35 24 76 24z" />
    <glyph glyph-name="Gdotaccent" unicode="&#x120;" horiz-adv-x="1372" 
d="M992 528h-151q-79 0 -112 19q-48 28 -48 95q0 78 70 131q45 35 149 35h305q135 0 135 -120q0 -91 -55 -225q-103 -253 -310 -383q-180 -114 -404 -114q-307 0 -456 221q-92 136 -92 314q0 187 81 375q113 260 336 396q207 127 452 127q208 0 353 -100q104 -72 104 -157
q0 -71 -62 -123q-52 -42 -107 -42q-39 0 -84 27q-10 6 -88 63q-29 22 -86 38q-49 14 -101 14q-110 0 -211 -73q-139 -100 -200 -256q-48 -122 -48 -249q0 -179 106 -249q67 -46 169 -46q241 0 355 282zM961 1807q65 0 100 -51q21 -30 21 -71q0 -56 -38 -104
q-58 -74 -147 -74q-66 0 -100 50q-21 31 -21 71q0 58 38 105q59 74 147 74z" />
    <glyph glyph-name="gdotaccent" unicode="&#x121;" horiz-adv-x="1126" 
d="M811 940q45 64 80 86q42 26 87 26q47 0 79 -28q38 -34 38 -90q0 -21 -6 -47l-168 -794q-52 -243 -199 -372q-81 -71 -201 -111q-118 -38 -243 -38q-203 0 -342 86q-67 42 -67 110q0 49 30 87q54 69 136 69q27 0 48 -8l79 -29q97 -35 178 -35q146 0 225 100q36 46 71 164
q-73 -71 -122 -98q-72 -38 -161 -38q-146 0 -246 93q-116 106 -116 298q0 150 66 303q92 209 267 310q130 75 265 75q61 0 98 -18q28 -14 124 -101zM565 779q-110 0 -192 -111q-75 -102 -75 -238q0 -94 59 -137q44 -33 99 -33q113 0 201 124q66 94 66 212q0 109 -62 153
q-42 30 -96 30zM712 1473q66 0 100 -51q21 -31 21 -71q0 -56 -38 -105q-57 -74 -147 -74q-65 0 -99 51q-21 30 -21 71q0 58 38 105q59 74 146 74z" />
    <glyph glyph-name="Gcommaaccent" unicode="&#x122;" horiz-adv-x="1372" 
d="M992 528h-151q-79 0 -112 19q-48 28 -48 95q0 78 70 131q45 35 149 35h305q135 0 135 -120q0 -91 -55 -225q-103 -253 -310 -383q-180 -114 -404 -114q-307 0 -456 221q-92 136 -92 314q0 187 81 375q113 260 336 396q207 127 452 127q208 0 353 -100q104 -72 104 -157
q0 -71 -62 -123q-52 -42 -108 -42q-38 0 -83 27q-10 6 -88 63q-29 22 -86 38q-50 14 -101 14q-110 0 -211 -73q-139 -100 -200 -256q-48 -122 -48 -249q0 -179 106 -250q68 -45 169 -45q241 0 355 282zM290 -383l143 221q35 54 99 54q39 0 63 -29q19 -21 19 -47
q0 -32 -20 -62l-141 -218q-37 -57 -95 -57q-49 0 -73 28q-16 18 -16 44q0 33 21 66z" />
    <glyph glyph-name="gcommaaccent" unicode="&#x123;" horiz-adv-x="1126" 
d="M811 940q45 64 80 86q42 26 87 26q47 0 79 -28q38 -34 38 -90q0 -21 -6 -47l-168 -794q-52 -243 -199 -372q-81 -71 -201 -111q-118 -38 -243 -38q-203 0 -342 86q-67 42 -67 110q0 49 30 87q54 69 136 69q27 0 48 -8l79 -29q97 -35 178 -35q146 0 225 100q36 46 71 164
q-73 -71 -122 -98q-72 -38 -161 -38q-146 0 -246 93q-116 106 -116 298q0 150 66 303q92 209 267 310q130 75 265 75q61 0 98 -18q28 -14 124 -101zM565 779q-110 0 -192 -111q-75 -102 -75 -238q0 -93 59 -137q44 -33 99 -33q113 0 201 124q66 94 66 212q0 110 -62 153
q-43 30 -96 30zM605 1291l124 195q34 53 95 53q38 0 63 -28q19 -22 19 -47q0 -31 -21 -63l-121 -190q-36 -57 -95 -57q-47 0 -72 30q-17 20 -17 44t25 63z" />
    <glyph glyph-name="Hcircumflex" unicode="&#x124;" horiz-adv-x="1399" 
d="M971 560h-580l-79 -371q-19 -91 -47 -132q-25 -34 -70 -56q-41 -21 -85 -21q-68 0 -104 52q-20 29 -20 73q0 26 12 84l210 987q20 92 48 132q25 34 70 57q41 20 85 20q68 0 104 -52q20 -29 20 -73q0 -25 -13 -84l-71 -336h580l72 336q19 92 48 132q24 34 69 57
q41 20 85 20q68 0 104 -52q20 -29 20 -73q0 -26 -12 -84l-210 -987q-20 -91 -48 -132q-25 -34 -70 -57q-41 -20 -85 -20q-68 0 -104 52q-20 29 -20 73q0 26 13 84zM900 1587l-251 -87q-25 -9 -44 -9q-37 0 -62 34q-17 24 -17 53q0 32 20 61q25 36 68 51l288 97q26 9 39 9
t37 -9l241 -88q60 -21 60 -77q0 -35 -20 -65q-40 -61 -112 -61q-13 0 -22 4z" />
    <glyph glyph-name="Hbar" unicode="&#x126;" horiz-adv-x="1399" 
d="M171 1002q-86 9 -86 83q0 58 51 97q28 20 79 25q15 66 41 101q58 77 154 77q68 0 104 -52q21 -30 21 -73q0 -20 -6 -53h580q16 66 42 101q58 77 154 77q68 0 104 -52q21 -31 21 -73q0 -20 -7 -53q86 -10 86 -83q0 -58 -51 -96q-28 -21 -79 -26l-172 -813
q-20 -91 -48 -132q-24 -34 -70 -56q-41 -21 -85 -21q-68 0 -104 52q-20 29 -20 73q0 26 13 84l78 371h-580l-79 -371q-19 -91 -48 -132q-24 -34 -69 -57q-41 -20 -85 -20q-68 0 -104 53q-20 29 -20 72q0 25 12 84zM485 1002l-34 -162h580l34 162h-580z" />
    <glyph glyph-name="hbar" unicode="&#x127;" horiz-adv-x="1120" 
d="M194 1138q-85 9 -85 83q0 57 51 97q24 18 78 25q14 54 37 85q55 74 148 74q65 0 99 -50q20 -29 20 -70q0 -15 -4 -39h181q70 0 93 -22q24 -23 24 -61t-26 -72q-39 -50 -112 -50h-23h-180l-36 -167q162 87 296 87q122 0 202 -64q97 -77 97 -200q0 -50 -14 -117l-104 -490
q-19 -88 -46 -127q-23 -32 -67 -54q-39 -20 -81 -20q-65 0 -100 50q-19 29 -19 70q0 25 12 81l86 405q10 45 10 82q0 63 -48 98q-36 27 -85 27q-77 0 -145 -64q-55 -52 -70 -123l-90 -425q-19 -88 -46 -127q-23 -33 -67 -54q-39 -20 -81 -20q-65 0 -100 51q-19 27 -19 69
q0 25 12 81z" />
    <glyph glyph-name="Imacron" unicode="&#x12a;" horiz-adv-x="504" 
d="M-2 189l210 987q20 92 48 132q25 34 70 57q41 20 85 20q68 0 104 -52q20 -29 20 -73q0 -26 -13 -84l-210 -987q-19 -91 -47 -132q-25 -34 -70 -56q-41 -21 -85 -21q-68 0 -104 53q-20 29 -20 72q0 26 12 84zM318 1753h340q70 0 93 -22q24 -23 24 -61q0 -58 -51 -97
q-33 -25 -109 -25h-341q-70 0 -93 22q-24 23 -24 61q0 57 51 97q33 25 110 25z" />
    <glyph glyph-name="imacron" unicode="&#x12b;" horiz-adv-x="526" 
d="M13 187l141 664q19 88 46 127q23 33 67 54q39 20 81 20q66 0 100 -50q19 -28 19 -70q0 -25 -12 -81l-141 -664q-19 -88 -46 -127q-23 -32 -67 -54q-39 -20 -81 -20q-65 0 -100 51q-19 27 -19 69q0 25 12 81zM283 1411h286q70 0 93 -22q24 -23 24 -61q0 -58 -51 -97
q-33 -25 -109 -25h-286q-69 0 -93 22t-24 61q0 57 51 97q33 25 109 25z" />
    <glyph glyph-name="ibreve" unicode="&#x12d;" horiz-adv-x="526" 
d="M13 187l141 664q19 88 46 127q23 33 67 54q39 20 81 20q66 0 100 -50q19 -28 19 -70q0 -25 -12 -81l-141 -664q-19 -88 -46 -127q-23 -32 -67 -54q-39 -20 -81 -20q-65 0 -100 51q-19 27 -19 69q0 25 12 81zM237 1480q9 0 17 -3q12 -4 36 -44q44 -73 122 -73q61 0 129 59
q71 61 103 61q20 0 35 -14q25 -23 25 -64q0 -55 -58 -119q-40 -44 -107 -76q-84 -41 -171 -41q-132 0 -212 116q-27 38 -27 72q0 58 45 100q29 26 63 26z" />
    <glyph glyph-name="Iogonek" unicode="&#x12e;" horiz-adv-x="504" 
d="M45 0q-59 28 -59 107q0 24 12 82l210 987q20 92 48 132q25 34 70 57q41 20 85 20q68 0 104 -52q20 -29 20 -73q0 -26 -13 -84l-210 -987q-16 -80 -36 -114q-17 -28 -35 -46q-10 -8 -45 -30q-75 -47 -75 -103q0 -22 14 -37q16 -17 39 -17q7 0 47 7q12 2 23 2q59 0 59 -52
q0 -50 -51 -89q-60 -45 -152 -45q-93 0 -137 49q-35 38 -35 95t36 117q26 42 81 74z" />
    <glyph glyph-name="iogonek" unicode="&#x12f;" horiz-adv-x="526" 
d="M99 -12q-98 22 -98 118q0 26 12 81l142 665q18 87 46 126q23 33 66 54q39 20 81 20q66 0 100 -50q19 -28 19 -70q0 -24 -12 -80l-141 -665q-13 -59 -26 -89q-14 -32 -50 -67q-74 -71 -74 -143q0 -45 45 -45q5 0 37 7q10 2 19 2q45 0 45 -49q0 -51 -43 -91
q-50 -46 -126 -46q-81 0 -120 48q-25 32 -25 82q0 66 50 135zM443 1501q76 0 117 -59q24 -36 24 -83q0 -65 -44 -122q-67 -86 -171 -86q-77 0 -117 59q-24 35 -24 83q0 67 44 122q69 86 171 86z" />
    <glyph glyph-name="Idotaccent" unicode="&#x130;" horiz-adv-x="504" 
d="M-2 189l210 987q20 92 48 132q25 34 70 57q41 20 85 20q68 0 104 -52q20 -29 20 -73q0 -26 -13 -84l-210 -987q-19 -91 -47 -132q-25 -34 -70 -56q-41 -21 -85 -21q-68 0 -104 52q-20 29 -20 73q0 26 12 84zM500 1807q66 0 100 -50q21 -31 21 -72q0 -56 -38 -104
q-57 -74 -147 -74q-66 0 -100 50q-21 31 -21 71q0 58 38 105q59 74 147 74z" />
    <glyph glyph-name="dotlessi" unicode="&#x131;" horiz-adv-x="526" 
d="M13 187l141 664q19 88 46 127q23 33 67 54q39 20 81 20q66 0 100 -50q19 -28 19 -70q0 -25 -12 -81l-141 -664q-19 -88 -46 -127q-23 -32 -67 -54q-39 -20 -81 -20q-65 0 -100 51q-19 27 -19 69q0 25 12 81z" />
    <glyph glyph-name="IJ" unicode="&#x132;" horiz-adv-x="1334" 
d="M-2 189l210 987q20 92 48 132q25 34 70 57q41 20 85 20q68 0 104 -52q20 -29 20 -73q0 -26 -13 -84l-210 -987q-19 -91 -47 -132q-25 -34 -70 -56q-41 -21 -85 -21q-68 0 -104 53q-20 29 -20 72q0 26 12 84zM1352 1176l-158 -742q-52 -247 -159 -350q-57 -55 -148 -86.5
t-192 -31.5q-156 0 -252 69q-67 49 -67 118q0 55 38 104q55 71 142 71q41 0 93 -34q52 -35 88 -35q58 0 97 54q30 42 46 121l158 742q19 91 48 132q25 34 70 57q40 20 84 20q68 0 104 -52q20 -29 20 -73q0 -28 -12 -84z" />
    <glyph glyph-name="ij" unicode="&#x133;" horiz-adv-x="1056" 
d="M446 1501q76 0 117 -59q24 -35 24 -83q0 -65 -44 -122q-67 -86 -171 -86q-77 0 -117 59q-24 35 -24 83q0 67 44 122q69 86 171 86zM13 187l141 664q19 88 46 127q23 33 67 54q39 20 81 20q66 0 100 -50q19 -28 19 -70q0 -25 -12 -81l-141 -664q-19 -88 -46 -127
q-23 -32 -67 -54q-39 -20 -81 -20q-66 0 -100 50q-19 28 -19 70q0 25 12 81zM973 1501q76 0 117 -59q24 -35 24 -83q0 -65 -44 -122q-67 -86 -171 -86q-77 0 -117 59q-24 35 -24 83q0 67 44 122q69 86 171 86zM465 -223l228 1074q19 88 46 127q23 33 66 54q39 20 81 20
q66 0 100 -50q19 -28 19 -70q0 -26 -12 -81l-228 -1074q-19 -87 -46 -126q-23 -33 -66 -54q-39 -20 -81 -20q-66 0 -100 50q-19 28 -19 69q0 26 12 81z" />
    <glyph glyph-name="Kcommaaccent" unicode="&#x136;" horiz-adv-x="1229" 
d="M404 613l-91 -424q-19 -91 -47 -132q-25 -34 -70 -56q-41 -21 -85 -21q-68 0 -104 52q-20 29 -20 73q0 26 12 84l210 987q20 92 48 132q25 34 70 57q41 20 85 20q68 0 104 -52q20 -29 20 -73q0 -26 -13 -84l-74 -349l500 452q49 52 76 68q62 39 116 39q56 0 92 -42
q26 -29 26 -74q0 -57 -29 -101q-26 -38 -103 -102l-400 -334l322 -441q58 -79 58 -125q0 -63 -34 -113q-52 -75 -145 -75q-48 0 -74 17q-36 24 -79 86zM247 -383l143 221q34 54 98 54q39 0 64 -29q19 -21 19 -47q0 -31 -21 -62l-141 -218q-37 -57 -95 -57q-49 0 -73 28
q-16 18 -16 44q0 32 22 66z" />
    <glyph glyph-name="kcommaaccent" unicode="&#x137;" horiz-adv-x="1041" 
d="M358 493l-65 -306q-19 -88 -46 -127q-23 -32 -67 -54q-39 -20 -81 -20q-66 0 -100 50q-19 28 -19 70q0 25 12 81l237 1115q19 88 46 126q23 33 67 54q39 20 80 20q66 0 100 -50q19 -27 19 -69q0 -27 -11 -81l-129 -605l337 283q46 47 75 60q40 19 81 19q42 0 72 -24
q44 -36 44 -91q0 -67 -52 -123q-13 -15 -60 -47l-227 -180l194 -327q39 -66 39 -107q0 -57 -45 -110q-55 -65 -140 -65q-53 0 -91 44q-19 21 -37 53zM160 -349l123 194q34 54 95 54q39 0 63 -29q19 -21 19 -46q0 -32 -20 -64l-122 -190q-36 -57 -94 -57q-48 0 -73 30
q-16 20 -16 44q0 25 25 64z" />
    <glyph glyph-name="kgreenlandic" unicode="&#x138;" horiz-adv-x="1041" 
d="M358 493l-65 -306q-19 -88 -46 -127q-23 -32 -67 -54q-39 -20 -81 -20q-66 0 -100 50q-19 28 -19 70q0 25 12 81l141 664q19 88 46 127q23 33 67 54q39 20 81 20q66 0 100 -50q19 -28 19 -70q0 -25 -12 -81l-33 -154l337 283q46 47 75 60q40 19 81 19q42 0 72 -24
q44 -36 44 -91q0 -67 -52 -123q-13 -15 -60 -47l-227 -180l194 -327q39 -66 39 -107q0 -57 -45 -110q-55 -65 -140 -65q-53 0 -91 44q-19 21 -37 53z" />
    <glyph glyph-name="Lacute" unicode="&#x139;" horiz-adv-x="848" 
d="M332 280h293q95 0 126 -30q33 -32 33 -84q0 -78 -69 -131q-46 -35 -150 -35h-370q-65 0 -90 4q-65 11 -96 70q-15 28 -15 64q0 28 15 99l200 939q19 92 48 132q24 34 69 57q41 20 85 20q68 0 104 -52q20 -29 20 -73q0 -26 -12 -84zM430 1697l334 113q15 5 33 5
q41 0 65 -24q22 -23 22 -58q0 -45 -37 -84q-17 -19 -63 -35l-326 -111q-24 -8 -49 -8q-41 0 -63 25q-20 24 -20 58q0 84 104 119z" />
    <glyph glyph-name="lacute" unicode="&#x13a;" horiz-adv-x="477" 
d="M530 1302l-237 -1115q-19 -88 -46 -127q-23 -32 -67 -54q-39 -20 -81 -20q-65 0 -100 50q-19 28 -19 70q0 25 12 81l237 1115q18 87 46 126q23 33 67 54q39 20 80 20q66 0 100 -50q19 -28 19 -69q0 -27 -11 -81zM412 1778l265 113q12 5 32 5q43 0 66 -24q23 -23 23 -58
q0 -44 -36 -82q-14 -15 -65 -37l-258 -111q-19 -8 -46 -8q-44 0 -65 24t-21 60q0 35 23 67q20 26 39 34z" />
    <glyph glyph-name="Lcommaaccent" unicode="&#x13b;" horiz-adv-x="848" 
d="M332 280h293q95 0 126 -30q33 -32 33 -84q0 -78 -69 -131q-46 -35 -150 -35h-370q-65 0 -90 4q-65 11 -96 70q-15 28 -15 64q0 28 15 99l200 939q19 92 48 132q24 34 69 57q41 20 85 20q68 0 104 -52q20 -29 20 -73q0 -26 -12 -84zM82 -383l144 221q34 54 98 54
q39 0 64 -29q19 -21 19 -47q0 -30 -21 -62l-141 -218q-37 -57 -95 -57q-49 0 -73 28q-16 18 -16 44q0 32 21 66z" />
    <glyph glyph-name="lcommaaccent" unicode="&#x13c;" horiz-adv-x="477" 
d="M529 1302l-237 -1115q-19 -88 -46 -127q-23 -33 -64.5 -53.5t-83.5 -20.5q-65 0 -100 50q-19 28 -19 70q0 25 12 81l237 1115q19 87 46 126q23 33 66 54q40 20 81 20q66 0 100 -50q19 -27 19 -69q0 -28 -11 -81zM-137 -349l124 194q34 54 95 54q39 0 63 -29
q19 -21 19 -46q0 -32 -20 -64l-122 -190q-36 -57 -94 -57q-48 0 -73 30q-16 20 -16 44q0 26 24 64z" />
    <glyph glyph-name="Lcaron" unicode="&#x13d;" horiz-adv-x="848" 
d="M332 280h293q95 0 126 -30q33 -32 33 -84q0 -78 -69 -131q-46 -35 -150 -35h-370q-65 0 -90 4q-65 11 -96 70q-15 28 -15 64q0 28 15 99l200 939q19 92 48 132q24 34 69 57q41 20 85 20q68 0 104 -52q20 -29 20 -73q0 -26 -12 -84zM629 1095l146 235q34 56 92 56
q44 0 71 -30q18 -20 18 -48q0 -30 -20 -63l-145 -231q-23 -38 -44 -49q-19 -9 -45 -9q-33 0 -58 13q-38 19 -38 61q0 28 23 65z" />
    <glyph glyph-name="lcaron" unicode="&#x13e;" horiz-adv-x="772" 
d="M530 1302l-237 -1115q-19 -88 -46 -127q-23 -32 -67 -54q-39 -20 -81 -20q-65 0 -100 50q-19 28 -19 70q0 25 12 81l237 1115q18 87 46 126q23 33 67 54q39 20 80 20q66 0 100 -50q19 -28 19 -69q0 -27 -11 -81zM623 1235l138 214q34 54 94 54q39 0 64 -29q19 -21 19 -46
q0 -31 -21 -63l-135 -211q-37 -57 -95 -57q-48 0 -73 30q-16 20 -16 44t25 64z" />
    <glyph glyph-name="Ldot" unicode="&#x13f;" horiz-adv-x="848" 
d="M332 280h293q95 0 126 -30q33 -32 33 -84q0 -78 -69 -131q-46 -35 -150 -35h-370q-65 0 -90 4q-65 11 -96 70q-15 28 -15 64q0 28 15 99l200 939q19 92 48 132q24 34 69 57q41 20 85 20q68 0 104 -52q20 -29 20 -73q0 -26 -12 -84zM730 897q81 0 123 -62q26 -38 26 -88
q0 -69 -46 -128q-71 -91 -181 -91q-80 0 -123 62q-25 37 -25 87q0 71 47 129q73 91 179 91z" />
    <glyph glyph-name="ldot" unicode="&#x140;" horiz-adv-x="859" 
d="M530 1302l-237 -1115q-19 -88 -46 -127q-23 -32 -67 -54q-39 -20 -81 -20q-65 0 -100 50q-19 28 -19 70q0 25 12 81l237 1115q18 87 46 126q23 33 67 54q39 20 80 20q66 0 100 -50q19 -28 19 -69q0 -27 -11 -81zM697 778q73 0 112 -56q23 -34 23 -79q0 -63 -42 -117
q-64 -82 -164 -82q-73 0 -111 56q-23 34 -23 80q0 64 42 116q66 82 163 82z" />
    <glyph glyph-name="Lslash" unicode="&#x141;" horiz-adv-x="892" 
d="M100 456q-25 -13 -42 -13q-24 0 -46 18q-32 26 -32 73q0 46 26 82q19 26 80 61l69 39l98 460q19 92 48 132q24 34 69 57q41 20 85 20q68 0 104 -52q20 -29 20 -73q0 -27 -12 -84l-68 -321l138 79q32 18 65 18q36 0 62 -27q24 -26 24 -61q0 -53 -32 -92q-19 -22 -80 -56
l-235 -133l-65 -303h293q95 0 126 -30q33 -31 33 -84q0 -78 -69 -131q-46 -35 -149 -35h-370q-65 0 -91 4q-65 12 -96 70q-15 28 -15 64q0 28 15 99z" />
    <glyph glyph-name="lslash" unicode="&#x142;" horiz-adv-x="569" 
d="M509 990q27 16 46 16q29 0 49 -19q23 -22 23 -61q0 -43 -24 -77q-17 -24 -77 -58l-67 -38l-121 -566q-18 -88 -46 -127q-22 -32 -66 -54q-39 -20 -81 -20q-65 0 -100 51q-19 27 -19 69q0 24 12 81l95 449q-27 -12 -46 -12q-35 0 -55 25q-16 21 -16 54q0 42 23 73
q19 25 78 58l67 38l91 430q18 88 46 126q23 33 66 54q40 20 81 20q66 0 100 -50q19 -28 19 -69q0 -26 -12 -81z" />
    <glyph glyph-name="Nacute" unicode="&#x143;" horiz-adv-x="1394" 
d="M449 827l-136 -638q-19 -91 -47 -132q-25 -34 -70 -56q-41 -21 -85 -21q-68 0 -104 52q-20 29 -20 73q0 26 12 84l221 1036q15 73 64 116q49 44 126 44q74 0 114 -69l443 -759l131 619q20 91 48 132q25 34 70 57q41 20 85 20q68 0 104 -52q20 -29 20 -73q0 -26 -13 -84
l-216 -1017q-19 -89 -69 -133q-52 -46 -118 -46q-57 0 -91 39q-13 15 -47 74zM827 1697l333 113q15 5 34 5q41 0 65 -24q22 -23 22 -58q0 -45 -37 -84q-17 -19 -63 -35l-327 -111q-23 -8 -48 -8q-41 0 -63 25q-20 24 -20 58q0 84 104 119z" />
    <glyph glyph-name="nacute" unicode="&#x144;" horiz-adv-x="1116" 
d="M446 947q77 60 133 81q79 30 168 30q124 0 201 -57q104 -78 104 -198q0 -48 -16 -124l-104 -492q-19 -88 -46 -127q-23 -32 -67 -54q-39 -20 -81 -20q-66 0 -100 50q-19 28 -19 70q0 25 12 81l90 421q7 35 7 66q0 62 -46 98q-35 27 -89 27q-77 0 -140 -62
q-55 -54 -68 -116l-92 -434q-19 -88 -46 -127q-23 -32 -67 -54q-39 -20 -81 -20q-66 0 -100 50q-19 28 -19 70q0 25 12 81l146 688q19 87 69 131q52 46 122 46q96 0 117 -105zM604 1363l336 126q18 7 38 7q45 0 67 -32q16 -24 16 -52q0 -44 -37 -84q-15 -16 -64 -35
l-329 -124q-20 -8 -47 -8q-43 0 -64 25q-21 23 -21 58q0 36 23 67q18 24 39 34q10 6 43 18z" />
    <glyph glyph-name="Ncommaaccent" unicode="&#x145;" horiz-adv-x="1394" 
d="M449 827l-136 -638q-19 -91 -47 -132q-25 -34 -70 -56q-41 -21 -85 -21q-68 0 -104 52q-20 29 -20 73q0 26 12 84l221 1036q15 73 64 116q49 44 126 44q74 0 114 -69l443 -759l131 619q20 91 48 132q25 34 70 57q41 20 85 20q68 0 104 -52q20 -29 20 -73q0 -26 -13 -84
l-216 -1017q-19 -89 -69 -133q-52 -46 -118 -46q-57 0 -91 39q-13 15 -47 74zM315 -383l143 221q35 54 99 54q39 0 63 -29q19 -21 19 -47q0 -32 -20 -62l-141 -218q-37 -57 -95 -57q-49 0 -73 28q-16 18 -16 44q0 33 21 66z" />
    <glyph glyph-name="ncommaaccent" unicode="&#x146;" horiz-adv-x="1116" 
d="M446 947q77 60 133 81q79 30 168 30q124 0 201 -57q104 -78 104 -198q0 -48 -16 -124l-104 -492q-19 -88 -46 -127q-23 -32 -67 -54q-39 -20 -81 -20q-66 0 -100 50q-19 28 -19 70q0 25 12 81l90 421q7 35 7 66q0 62 -46 98q-35 27 -89 27q-77 0 -140 -62
q-55 -54 -68 -116l-92 -434q-19 -88 -46 -127q-23 -32 -67 -54q-39 -20 -81 -20q-66 0 -100 50q-19 28 -19 70q0 25 12 81l146 688q19 87 69 131q52 46 122 46q96 0 117 -105zM177 -349l124 194q34 54 94 54q39 0 64 -29q19 -21 19 -46q0 -31 -21 -64l-122 -190
q-36 -57 -94 -57q-48 0 -73 30q-16 20 -16 44q0 25 25 64z" />
    <glyph glyph-name="Ncaron" unicode="&#x147;" horiz-adv-x="1394" 
d="M449 827l-136 -638q-19 -91 -47 -132q-25 -34 -70 -56q-41 -21 -85 -21q-68 0 -104 52q-20 29 -20 73q0 26 12 84l221 1036q15 73 64 116q49 44 126 44q74 0 114 -69l443 -759l131 619q20 91 48 132q25 34 70 57q41 20 85 20q68 0 104 -52q20 -29 20 -73q0 -26 -13 -84
l-216 -1017q-19 -89 -69 -133q-52 -46 -118 -46q-57 0 -91 39q-13 15 -47 74zM909 1704l241 103q20 9 41 9q44 0 67 -33q16 -23 16 -53q0 -77 -89 -113l-277 -113q-23 -9 -45 -9q-19 0 -34 7l-227 114q-54 27 -54 75q0 33 19 63q37 62 107 62q24 0 38 -7z" />
    <glyph glyph-name="ncaron" unicode="&#x148;" horiz-adv-x="1116" 
d="M446 947q77 60 133 81q79 30 168 30q124 0 201 -57q104 -78 104 -198q0 -48 -16 -124l-104 -492q-19 -88 -46 -127q-23 -32 -67 -54q-39 -20 -81 -20q-66 0 -100 50q-19 28 -19 70q0 25 12 81l90 421q7 35 7 66q0 62 -46 98q-35 27 -89 27q-77 0 -140 -62
q-55 -54 -68 -116l-92 -434q-19 -88 -46 -127q-23 -32 -67 -54q-39 -20 -81 -20q-66 0 -100 50q-19 28 -19 70q0 25 12 81l146 688q19 87 69 131q52 46 122 46q96 0 117 -105zM706 1369l244 118q17 8 39 8q45 0 68 -33q16 -23 16 -53q0 -73 -89 -113l-279 -126
q-20 -9 -44 -9q-23 0 -35 7l-224 127q-54 30 -54 75q0 32 19 63q37 62 108 62q24 0 37 -7z" />
    <glyph glyph-name="napostrophe" unicode="&#x149;" horiz-adv-x="1482" 
d="M131 1050l226 288q48 61 120 61q52 0 80 -35q26 -32 26 -73q0 -39 -30 -77l-222 -289q-49 -64 -121 -64q-58 0 -87 36q-24 30 -24 70q0 43 32 83zM811 947q77 60 133 81q79 30 168 30q124 0 201 -57q104 -78 104 -198q0 -48 -16 -124l-105 -492q-18 -88 -45 -127
q-23 -32 -67 -54q-39 -20 -81 -20q-66 0 -100 50q-19 28 -19 70q0 25 12 81l90 421q7 35 7 66q0 62 -46 98q-35 27 -89 27q-77 0 -141 -62q-54 -53 -67 -116l-93 -434q-18 -88 -45 -127q-23 -33 -64.5 -53.5t-83.5 -20.5q-65 0 -100 51q-19 27 -19 69q0 25 12 81l146 688
q19 87 69 131q52 46 122 46q96 0 117 -105z" />
    <glyph glyph-name="Eng" unicode="&#x14a;" horiz-adv-x="1399" 
d="M535 1276q92 58 165 82q108 35 229 35q185 0 294 -81q72 -53 112 -133q36 -71 36 -147q0 -71 -21 -172l-179 -840q-52 -243 -154 -350q-53 -55 -139 -87q-85 -32 -176 -32q-139 0 -222 69q-57 48 -57 115q0 57 39 108q54 70 137 70q37 0 72 -33q40 -36 68 -36
q80 0 118 176l174 820q10 45 10 87q0 99 -84 155q-62 40 -154 40q-131 0 -238 -94q-91 -80 -111 -175l-142 -664q-19 -91 -47 -132q-25 -34 -70 -56q-41 -21 -85 -21q-68 0 -104 53q-20 29 -20 72q0 25 12 84l216 1012q19 91 71 137q55 48 128 48q101 0 122 -110z" />
    <glyph glyph-name="eng" unicode="&#x14b;" horiz-adv-x="1116" 
d="M446 947q77 60 133 81q79 30 168 30q124 0 201 -57q104 -78 104 -198q0 -48 -16 -124l-139 -654q-49 -232 -147 -334q-51 -53 -133 -84q-81 -30 -168 -30q-134 0 -213 66q-54 46 -54 110q0 55 37 103q52 67 131 67q35 0 70 -31q37 -35 64 -35q77 0 113 168l124 583
q7 35 7 66q0 62 -46 98q-35 27 -89 27q-77 0 -140 -62q-55 -54 -68 -116l-92 -434q-19 -88 -46 -127q-23 -32 -67 -54q-39 -20 -81 -20q-65 0 -100 51q-19 27 -19 69q0 25 12 81l146 688q19 87 69 131q52 46 122 46q96 0 117 -105z" />
    <glyph glyph-name="Omacron" unicode="&#x14c;" horiz-adv-x="1418" 
d="M870 1399q302 0 450 -218q92 -134 92 -316q0 -177 -72 -359q-118 -294 -364 -435q-185 -105 -405 -105q-297 0 -447 205q-101 137 -101 324q0 189 76 376q115 284 371 425q188 103 400 103zM814 1119q-108 0 -213 -73q-129 -91 -190 -246q-49 -126 -49 -266
q0 -157 89 -229q72 -59 175 -59q193 0 332 200q116 167 116 387q0 162 -91 231q-73 55 -169 55zM720 1753h450q70 0 93 -22q24 -23 24 -61q0 -58 -51 -97q-33 -25 -110 -25h-450q-70 0 -93 22q-24 23 -24 61q0 58 51 97q33 25 110 25z" />
    <glyph glyph-name="omacron" unicode="&#x14d;" horiz-adv-x="1078" 
d="M632 1058q134 0 241 -80q156 -118 156 -332q0 -129 -54 -260q-83 -204 -247 -306q-160 -100 -334 -100q-137 0 -242 80q-156 117 -156 328q0 133 54 263q83 204 247 306q160 101 335 101zM565 778q-68 0 -138 -57q-129 -107 -129 -286q0 -86 51 -134q44 -41 101 -41
q62 0 127 44q81 55 123 153q27 65 27 133q0 80 -34 126q-20 27 -58 45q-36 17 -70 17zM485 1411h436q70 0 93 -22q24 -22 24 -61q0 -58 -51 -97q-33 -25 -110 -25h-436q-70 0 -93 22q-24 23 -24 61q0 57 51 97q33 25 110 25z" />
    <glyph glyph-name="Ohungarumlaut" unicode="&#x150;" horiz-adv-x="1418" 
d="M870 1399q302 0 450 -218q92 -134 92 -316q0 -177 -72 -359q-118 -294 -364 -435q-185 -105 -405 -105q-297 0 -447 205q-101 137 -101 324q0 189 76 376q115 284 371 425q188 103 400 103zM814 1119q-108 0 -213 -73q-129 -91 -190 -246q-49 -126 -49 -266
q0 -157 89 -229q72 -59 175 -59q193 0 332 200q116 167 116 387q0 162 -91 231q-73 55 -169 55zM686 1638l233 160q25 17 55 17q37 0 53 -31q6 -12 6 -28q0 -45 -47 -78l-228 -160q-33 -23 -65 -23q-24 0 -41 19t-17 44q0 45 51 80zM1037 1638l233 160q25 17 55 17
q37 0 53 -31q6 -12 6 -28q0 -44 -47 -78l-229 -160q-32 -23 -64 -23q-24 0 -42 20q-16 18 -16 43q0 45 51 80z" />
    <glyph glyph-name="ohungarumlaut" unicode="&#x151;" horiz-adv-x="1078" 
d="M632 1058q134 0 241 -80q156 -118 156 -332q0 -129 -54 -260q-83 -204 -247 -306q-160 -100 -334 -100q-137 0 -242 80q-156 117 -156 328q0 133 54 263q83 204 247 306q160 101 335 101zM565 778q-68 0 -138 -57q-129 -107 -129 -286q0 -86 51 -134q44 -41 101 -41
q62 0 127 44q81 55 123 153q27 65 27 133q0 80 -34 126q-20 27 -58 45q-36 17 -70 17zM459 1303l236 174q23 17 55 17q37 0 53 -31q6 -12 6 -28q0 -19 -10 -41q-5 -12 -38 -37l-231 -174q-29 -22 -64 -22q-24 0 -41 19t-17 44q0 23 13 47q4 8 38 32zM789 1303l236 174
q23 17 55 17q37 0 53 -31q6 -12 6 -28q0 -19 -9 -41q-6 -12 -38 -37l-231 -174q-30 -22 -65 -22q-23 0 -41 19q-16 19 -16 44q0 23 13 47q4 8 37 32z" />
    <glyph glyph-name="OE" unicode="&#x152;" horiz-adv-x="1917" 
d="M1458 1085l-55 -258h273q95 0 126 -30q33 -31 33 -83q0 -79 -69 -132q-46 -35 -150 -35h-272l-57 -267h312q95 0 126 -30q33 -31 33 -84q0 -78 -70 -131q-45 -35 -149 -35h-482q-52 0 -70 8q-30 14 -30 43q0 14 6 35q-92 -57 -166 -81q-121 -39 -246 -39q-187 0 -321 87
q-209 137 -209 438q0 190 81 380q123 289 354 419q195 110 418 110q134 0 225 -44q52 -25 115 -91q15 57 34 75q27 25 92 25h490q95 0 126 -30q33 -31 33 -84q0 -78 -69 -131q-46 -35 -150 -35h-312zM816 1120q-119 0 -227 -83q-129 -100 -184 -267q-41 -126 -41 -245
q0 -148 87 -220q73 -59 176 -59q105 0 202 67q139 98 204 274q43 117 43 240q0 177 -101 246q-68 47 -159 47z" />
    <glyph glyph-name="oe" unicode="&#x153;" horiz-adv-x="1779" 
d="M1007 434v-10q0 -73 41 -111q57 -53 165 -53q59 0 127 19q16 4 121 40q43 15 74 15q50 0 77 -37q21 -28 21 -70q0 -81 -74 -133q-59 -41 -171 -74q-134 -40 -269 -40q-223 0 -342 146q-194 -147 -379 -147q-215 0 -325 152q-79 110 -79 259q0 126 53 257q82 206 237 307
q159 104 334 104q104 0 192 -34q70 -28 147 -106q47 55 96 78q138 62 271 62q192 0 294 -118q108 -126 108 -318q0 -111 -27 -145q-34 -43 -125 -43h-567zM1447 631q-3 88 -30 127q-41 61 -128 61q-143 0 -249 -188h407zM570 778q-115 0 -204 -124q-67 -92 -67 -221
q0 -92 57 -141q38 -33 92 -33q70 0 137 50q83 62 119 160q22 61 22 125q0 75 -30 121q-39 63 -126 63z" />
    <glyph glyph-name="Racute" unicode="&#x154;" horiz-adv-x="1164" 
d="M391 556l-78 -367q-19 -91 -47 -132q-25 -34 -70 -56q-41 -21 -85 -21q-68 0 -104 52q-20 29 -20 73q0 26 12 84l202 949q25 116 65 158q65 69 173 69h38h278q206 0 312 -108q87 -88 87 -224q0 -185 -124 -325q-67 -76 -168 -112q-39 -14 -118 -29l204 -294
q48 -69 48 -115q0 -55 -42 -109q-57 -72 -150 -72q-52 0 -91 44q-22 24 -40 54zM438 774h195q97 0 162 76q43 51 43 111q0 57 -35 92q-38 39 -109 39h-189zM644 1697l333 113q15 5 34 5q41 0 65 -24q22 -23 22 -57q0 -45 -37 -85q-17 -19 -64 -35l-326 -111q-23 -8 -48 -8
q-41 0 -63 25q-20 24 -20 58q0 84 104 119z" />
    <glyph glyph-name="racute" unicode="&#x155;" horiz-adv-x="748" 
d="M454 945q34 41 54 57q30 23 89 42q47 15 87 15q60 0 96 -42q29 -33 29 -83q0 -59 -38 -101q-25 -27 -74 -46q-14 -6 -73 -23q-114 -34 -177 -75q-34 -23 -50 -51q-14 -26 -24 -73l-80 -378q-19 -88 -46 -127q-23 -32 -67 -54q-39 -20 -81 -20q-66 0 -100 50
q-19 28 -19 70q0 25 12 81l147 693q18 83 62 122q55 50 126 50q97 0 127 -107zM433 1363l336 126q19 7 39 7q44 0 66 -32q16 -24 16 -52q0 -44 -37 -84q-15 -16 -63 -35l-330 -124q-20 -8 -46 -8q-43 0 -65 25q-20 23 -20 58q0 36 23 67q22 29 81 52z" />
    <glyph glyph-name="Rcommaaccent" unicode="&#x156;" horiz-adv-x="1164" 
d="M391 556l-78 -367q-19 -91 -47 -132q-25 -34 -70 -56q-41 -21 -85 -21q-68 0 -104 52q-20 29 -20 73q0 26 12 84l202 949q25 116 65 158q65 69 173 69h38h278q206 0 312 -108q87 -88 87 -224q0 -185 -124 -325q-67 -76 -168 -112q-39 -14 -118 -29l204 -294
q48 -69 48 -115q0 -55 -42 -109q-57 -72 -150 -72q-52 0 -91 44q-22 24 -40 54zM438 774h195q97 0 162 76q43 51 43 111q0 57 -35 92q-38 39 -109 39h-189zM200 -383l143 221q35 54 99 54q39 0 64 -29q19 -21 19 -47q0 -30 -21 -62l-141 -218q-37 -57 -95 -57q-49 0 -73 28
q-16 18 -16 44q0 32 21 66z" />
    <glyph glyph-name="rcommaaccent" unicode="&#x157;" horiz-adv-x="748" 
d="M453 945q34 41 55 57q30 23 89 42q46 15 86 15q60 0 96 -42q29 -33 29 -83q0 -59 -38 -101q-25 -27 -74 -46q-13 -5 -73 -23q-114 -34 -176 -75q-34 -23 -50 -51q-15 -26 -25 -73l-80 -378q-19 -88 -46 -127q-23 -33 -64 -53.5t-83 -20.5q-66 0 -100 50q-19 28 -19 70
q0 27 11 81l148 693q17 83 61 122q55 50 126 50q98 0 127 -107zM-138 -349l124 194q34 54 95 54q39 0 63 -29q19 -21 19 -46q0 -32 -20 -64l-122 -190q-36 -57 -94 -57q-48 0 -73 30q-16 20 -16 44q0 26 24 64z" />
    <glyph glyph-name="Rcaron" unicode="&#x158;" horiz-adv-x="1164" 
d="M391 556l-78 -367q-19 -91 -47 -132q-25 -34 -70 -56q-41 -21 -85 -21q-68 0 -104 52q-20 29 -20 73q0 26 12 84l202 949q25 116 65 158q65 69 173 69h38h278q206 0 312 -108q87 -88 87 -224q0 -185 -124 -325q-67 -76 -168 -112q-39 -14 -118 -29l204 -294
q48 -69 48 -115q0 -55 -42 -109q-57 -72 -150 -72q-52 0 -91 44q-22 24 -40 54zM438 774h195q97 0 162 76q43 51 43 111q0 57 -35 92q-38 39 -109 39h-189zM767 1704l241 103q20 9 41 9q43 0 66 -33q16 -23 16 -53q0 -77 -89 -113l-276 -113q-23 -9 -46 -9q-18 0 -33 7
l-227 114q-54 27 -54 75q0 33 19 63q37 62 107 62q23 0 38 -7z" />
    <glyph glyph-name="rcaron" unicode="&#x159;" horiz-adv-x="748" 
d="M454 945q34 41 54 57q30 23 89 42q47 15 87 15q60 0 96 -42q29 -33 29 -83q0 -59 -38 -101q-25 -27 -74 -46q-14 -6 -73 -23q-114 -34 -177 -75q-34 -23 -50 -51q-14 -26 -24 -73l-80 -378q-19 -88 -46 -127q-23 -32 -67 -54q-39 -20 -81 -20q-66 0 -100 50
q-19 28 -19 70q0 25 12 81l147 693q18 83 62 122q55 50 126 50q97 0 127 -107zM529 1369l243 118q18 8 40 8q45 0 68 -33q16 -23 16 -53q0 -73 -89 -113l-280 -126q-19 -9 -43 -9q-23 0 -35 7l-224 127q-55 31 -55 75q0 32 19 63q37 62 109 62q24 0 36 -7z" />
    <glyph glyph-name="Sacute" unicode="&#x15a;" horiz-adv-x="1094" 
d="M727 1399q167 0 273 -66q65 -41 65 -108q0 -49 -33 -97q-53 -75 -140 -75q-30 0 -50 7l-53 21q-67 25 -130 25q-102 0 -157 -59q-31 -34 -31 -73q0 -38 27 -59q31 -26 77 -39l78 -22q188 -55 274 -142q76 -76 76 -198q0 -83 -34 -174q-71 -189 -218 -279
q-154 -95 -375 -95q-201 0 -332 72q-87 48 -87 132q0 55 39 106q53 70 131 70q39 0 76 -15l99 -41q73 -30 148 -30q105 0 165 70q42 48 42 101q0 45 -34 71q-32 24 -81 41l-121 40q-132 42 -183 73q-116 73 -116 212q0 107 48 211q80 170 263 256q136 64 294 64zM649 1697
l333 113q15 5 34 5q41 0 65 -24q22 -23 22 -57q0 -45 -37 -85q-18 -19 -64 -35l-326 -111q-24 -8 -48 -8q-41 0 -63 25q-20 24 -20 58q0 84 104 119z" />
    <glyph glyph-name="sacute" unicode="&#x15b;" horiz-adv-x="892" 
d="M561 1059q148 0 239 -75q61 -50 61 -112q0 -34 -25 -74q-50 -77 -120 -77q-30 0 -55 11q-11 5 -64 31q-62 30 -109 30q-43 0 -71 -22q-21 -17 -21 -42t23 -42q22 -15 111 -54q107 -46 146 -77q98 -78 98 -182q0 -61 -30 -131q-62 -144 -192 -207q-115 -56 -251 -56
q-167 0 -278 82q-65 48 -65 115q0 37 28 78q52 77 127 77q34 0 62 -13l83 -41q65 -32 113 -32q54 0 87 39q17 21 17 42q0 15 -8 25q-17 22 -90 52q-114 46 -164 75q-116 67 -116 180q0 145 99 251q141 149 365 149zM505 1363l336 126q18 7 39 7q44 0 66 -32q16 -24 16 -52
q0 -44 -37 -84q-15 -16 -64 -35l-329 -124q-20 -8 -46 -8q-43 0 -65 25q-20 23 -20 58q0 37 23 67q22 29 81 52z" />
    <glyph glyph-name="Scircumflex" unicode="&#x15c;" horiz-adv-x="1094" 
d="M727 1399q167 0 273 -66q65 -41 65 -108q0 -49 -33 -97q-53 -75 -140 -75q-30 0 -50 7l-53 21q-67 25 -130 25q-102 0 -157 -59q-31 -34 -31 -73q0 -38 27 -59q31 -26 77 -39l78 -22q188 -55 274 -142q76 -76 76 -198q0 -83 -34 -174q-71 -189 -218 -279
q-154 -95 -375 -95q-201 0 -332 72q-87 48 -87 132q0 55 39 106q53 70 131 70q39 0 76 -15l99 -41q73 -30 148 -30q105 0 165 70q42 48 42 101q0 45 -34 71q-32 24 -81 41l-121 40q-132 42 -183 73q-116 73 -116 212q0 107 48 211q80 170 263 256q136 64 294 64zM748 1587
l-251 -87q-25 -9 -45 -9q-37 0 -62 34q-17 24 -17 53q0 32 20 61q25 36 69 51l287 97q26 9 40 9q12 0 36 -9l242 -88q60 -21 60 -77q0 -35 -20 -65q-40 -61 -112 -61q-13 0 -23 4z" />
    <glyph glyph-name="scircumflex" unicode="&#x15d;" horiz-adv-x="892" 
d="M561 1059q148 0 239 -75q61 -50 61 -112q0 -34 -25 -74q-50 -77 -120 -77q-30 0 -55 11q-11 5 -64 31q-62 30 -109 30q-43 0 -71 -22q-21 -17 -21 -42t23 -42q22 -15 111 -54q107 -46 146 -77q98 -78 98 -182q0 -61 -30 -131q-62 -144 -192 -207q-115 -56 -251 -56
q-167 0 -278 82q-65 48 -65 115q0 37 28 78q52 77 127 77q34 0 62 -13l83 -41q65 -32 113 -32q54 0 87 39q17 21 17 42q0 15 -8 25q-17 22 -90 52q-114 46 -164 75q-116 67 -116 180q0 145 99 251q141 149 365 149zM590 1286l-243 -117q-17 -8 -40 -8q-45 0 -68 33
q-16 23 -16 52q0 73 89 113l280 127q20 9 43 9q22 0 35 -7l224 -127q55 -31 55 -75q0 -33 -19 -64q-37 -62 -109 -62q-23 0 -36 8z" />
    <glyph glyph-name="Scedilla" unicode="&#x15e;" horiz-adv-x="1094" 
d="M481 -27l-201 -291q-30 -44 -85 -44q-43 0 -67 28q-19 20 -19 46q0 32 33 79l127 181q-312 42 -312 198q0 55 39 106q53 70 131 70q39 0 76 -15l99 -41q73 -30 148 -30q105 0 165 70q42 48 42 101q0 45 -34 71q-39 29 -201 82q-132 42 -182 73q-118 75 -118 216
q0 102 48 206q80 171 263 256q136 64 294 64q168 0 273 -66q65 -41 65 -108q0 -49 -33 -97q-53 -75 -140 -75q-30 0 -50 7l-53 21q-67 25 -130 25q-102 0 -157 -59q-31 -34 -31 -73q0 -38 27 -59q31 -25 77 -39l78 -22q188 -54 274 -142q76 -76 76 -198q0 -116 -64 -241
q-134 -265 -458 -300z" />
    <glyph glyph-name="scedilla" unicode="&#x15f;" horiz-adv-x="892" 
d="M406 -10l-212 -308q-30 -44 -86 -44q-43 0 -67 28q-19 20 -19 46q0 32 33 79l139 199q-106 23 -171 72q-65 48 -65 115q0 37 28 78q52 77 127 77q34 0 62 -13q8 -3 83 -41q65 -32 114 -32q54 0 87 39q17 21 17 43q0 15 -8 25q-16 21 -89 51q-116 48 -163 76
q-118 69 -118 183q0 141 99 247q141 149 364 149q149 0 239 -75q61 -51 61 -112q0 -34 -25 -74q-50 -77 -120 -77q-30 0 -54 11q-11 4 -65 31q-61 30 -108 30q-43 0 -71 -22q-21 -16 -21 -42q0 -25 23 -42q23 -15 111 -54q107 -46 145 -77q98 -79 98 -183q0 -60 -30 -131
q-61 -141 -192 -206q-53 -26 -146 -46z" />
    <glyph glyph-name="Scaron" unicode="&#x160;" horiz-adv-x="1094" 
d="M727 1399q167 0 273 -66q65 -41 65 -108q0 -49 -33 -97q-53 -75 -140 -75q-30 0 -50 7l-53 21q-67 25 -130 25q-102 0 -157 -59q-31 -34 -31 -73q0 -38 27 -59q31 -26 77 -39l78 -22q188 -55 274 -142q76 -76 76 -198q0 -83 -34 -174q-71 -189 -218 -279
q-154 -95 -375 -95q-201 0 -332 72q-87 48 -87 132q0 55 39 106q53 70 131 70q39 0 76 -15l99 -41q73 -30 148 -30q105 0 165 70q42 48 42 101q0 45 -34 71q-32 24 -81 41l-121 40q-132 42 -183 73q-116 73 -116 212q0 107 48 211q80 170 263 256q136 64 294 64zM758 1704
l241 103q20 9 41 9q44 0 67 -33q16 -23 16 -53q0 -77 -89 -113l-277 -113q-23 -9 -45 -9q-19 0 -34 7l-227 114q-54 27 -54 75q0 33 19 63q37 62 107 62q24 0 38 -7z" />
    <glyph glyph-name="scaron" unicode="&#x161;" horiz-adv-x="892" 
d="M561 1059q148 0 239 -75q61 -50 61 -112q0 -34 -25 -74q-50 -77 -120 -77q-30 0 -55 11q-11 5 -64 31q-62 30 -109 30q-43 0 -71 -22q-21 -17 -21 -42t23 -42q22 -15 111 -54q107 -46 146 -77q98 -78 98 -182q0 -61 -30 -131q-62 -144 -192 -207q-115 -56 -251 -56
q-167 0 -278 82q-65 48 -65 115q0 37 28 78q52 77 127 77q34 0 62 -13l83 -41q65 -32 113 -32q54 0 87 39q17 21 17 42q0 15 -8 25q-17 22 -90 52q-114 46 -164 75q-116 67 -116 180q0 145 99 251q141 149 365 149zM607 1369l244 118q18 8 40 8q45 0 68 -33q16 -24 16 -53
q0 -73 -89 -113l-280 -126q-19 -9 -43 -9q-23 0 -36 7l-224 127q-54 31 -54 75q0 32 19 63q37 62 108 62q25 0 37 -7z" />
    <glyph glyph-name="Tcommaaccent" unicode="&#x162;" horiz-adv-x="993" 
d="M751 1085l-191 -896q-19 -91 -48 -132q-24 -34 -67 -55.5t-87 -21.5q-68 0 -104 52q-20 29 -20 73q0 27 12 84l191 896h-156q-95 0 -127 30q-33 31 -33 84q0 78 70 131q45 35 149 35h620q95 0 126 -30q33 -32 33 -84q0 -78 -70 -131q-45 -35 -149 -35h-149zM100 -383
l143 221q35 54 99 54q38 0 63 -29q19 -21 19 -47q0 -32 -20 -62l-141 -218q-37 -57 -95 -57q-49 0 -73 28q-16 18 -16 44q0 33 21 66z" />
    <glyph glyph-name="tcommaaccent" unicode="&#x163;" horiz-adv-x="725" 
d="M513 765l-122 -578q-19 -88 -46 -127q-23 -33 -64.5 -53.5t-83.5 -20.5q-65 0 -100 50q-19 28 -19 70q0 25 12 81l123 578q-104 -1 -136 36q-25 30 -25 75q0 50 35 95q50 65 149 67h35l33 154q19 88 46 126q23 33 66 55q39 19 81 19q66 0 100 -50q19 -27 19 -69
q0 -26 -12 -81l-33 -154h56q93 0 124 -29q32 -31 32 -82q0 -76 -68 -128q-44 -34 -146 -34h-56zM-40 -349l124 194q34 54 95 54q39 0 63 -29q19 -21 19 -46q0 -32 -20 -64l-122 -190q-36 -57 -94 -57q-48 0 -73 30q-16 20 -16 44q0 26 24 64z" />
    <glyph glyph-name="Tcaron" unicode="&#x164;" horiz-adv-x="993" 
d="M751 1085l-191 -896q-19 -91 -48 -132q-24 -34 -69 -56q-41 -21 -85 -21q-68 0 -104 52q-20 29 -20 73q0 26 12 84l191 896h-156q-95 0 -127 30q-33 31 -33 84q0 78 70 131q45 35 149 35h620q95 0 126 -30q33 -31 33 -84q0 -78 -70 -131q-45 -35 -149 -35h-149zM722 1704
l240 103q20 9 41 9q44 0 67 -33q16 -24 16 -53q0 -77 -89 -113l-277 -113q-22 -9 -45 -9q-18 0 -33 7l-227 114q-55 27 -55 75q0 32 19 63q37 62 108 62q23 0 37 -7z" />
    <glyph glyph-name="tcaron" unicode="&#x165;" horiz-adv-x="870" 
d="M513 765l-122 -578q-19 -88 -46 -127q-23 -32 -67 -54q-39 -20 -81 -20q-65 0 -100 50q-19 28 -19 70q0 25 12 81l123 578q-104 -1 -136 36q-25 30 -25 75q0 50 35 95q50 65 149 67h35l33 154q19 88 46 126q23 33 66 55q39 19 81 19q66 0 100 -50q19 -28 19 -69
q0 -25 -12 -81l-33 -154h56q93 0 124 -29q32 -30 32 -82q0 -77 -68 -128q-44 -34 -146 -34h-56zM726 1255l137 215q34 53 95 53q39 0 63 -29q19 -21 19 -46q0 -31 -20 -63l-136 -211q-36 -57 -94 -57q-48 0 -73 30q-16 20 -16 44q0 25 25 64z" />
    <glyph glyph-name="Tbar" unicode="&#x166;" horiz-adv-x="993" 
d="M682 762h51q87 0 116 -28q30 -28 30 -76q0 -73 -64 -121q-41 -32 -137 -32h-51l-67 -316q-19 -91 -48 -132q-24 -34 -67 -55.5t-87 -21.5q-68 0 -104 53q-20 28 -20 72q0 26 12 84l67 316h-57q-87 0 -116 27q-30 29 -30 77q0 72 64 121q41 32 137 32h57l69 323h-156
q-95 0 -127 30q-33 31 -33 84q0 78 70 131q45 35 149 35h620q95 0 126 -30q33 -32 33 -83q0 -79 -70 -132q-45 -35 -149 -35h-149z" />
    <glyph glyph-name="tbar" unicode="&#x167;" horiz-adv-x="725" 
d="M483 626q117 -6 117 -104q0 -73 -64 -121q-38 -29 -107 -32l-39 -182q-18 -88 -46 -127q-23 -32 -66 -54q-39 -20 -81 -20q-66 0 -100 50q-19 28 -19 70q0 25 12 81l39 182q-107 12 -107 104q0 72 64 120q34 27 97 32l30 140q-104 -2 -136 36q-25 30 -25 75q0 49 35 95
q50 65 148 67h36l33 154q18 88 46 126q23 33 66 55q39 19 81 19q66 0 100 -50q19 -28 19 -69q0 -25 -12 -81l-33 -154h56q92 0 123 -29q32 -31 32 -82q0 -77 -68 -128q-44 -34 -145 -34h-56z" />
    <glyph glyph-name="utilde" unicode="&#x169;" horiz-adv-x="1111" 
d="M1067 851l-95 -446q-35 -165 -121 -253q-75 -76 -189 -123q-122 -50 -251 -50q-116 0 -217 52q-85 45 -132 129q-36 65 -36 139q0 49 12 106l95 446q19 88 46 127q23 33 66 54q39 20 81 20q66 0 100 -50q19 -28 19 -70q0 -26 -12 -81l-87 -409q-7 -35 -7 -59
q0 -59 52 -94q35 -24 84 -24q67 0 128 49q60 48 77 128l87 409q18 88 46 127q23 33 66 54q39 20 81 20q66 0 100 -50q19 -28 19 -70q0 -25 -12 -81zM577 1463q54 0 109 -22q15 -6 98 -53q32 -18 65 -18q19 0 34 9q10 6 32 37q36 48 86 48q44 0 63 -32q12 -19 12 -43
q0 -62 -55 -120q-80 -86 -201 -86q-67 0 -147 44q-90 49 -121 49q-26 0 -48 -21q-6 -5 -38 -44q-25 -31 -68 -31t-63 27q-12 15 -12 38q0 66 48 123q36 43 92 69q57 26 114 26z" />
    <glyph glyph-name="Umacron" unicode="&#x16a;" horiz-adv-x="1352" 
d="M1384 1176l-123 -577q-42 -197 -101 -296q-98 -165 -292 -258q-164 -79 -339 -79q-177 0 -303 89q-141 99 -175 262q-9 42 -9 85q0 52 14 116l140 658q19 91 48 132q24 34 69 57q41 20 85 20q68 0 104 -52q20 -29 20 -73q0 -26 -12 -84l-131 -613q-10 -49 -10 -92
q0 -116 72 -166q66 -46 152 -46q139 0 244 109q53 55 78 119q18 48 32 112l123 577q19 91 48 132q24 34 69 57q41 20 85 20q68 0 104 -52q20 -29 20 -73q0 -26 -12 -84zM688 1753h449q70 0 93 -22q24 -23 24 -61q0 -58 -51 -97q-33 -25 -109 -25h-450q-58 0 -82 14
q-35 20 -35 69q0 57 51 97q33 25 110 25z" />
    <glyph glyph-name="umacron" unicode="&#x16b;" horiz-adv-x="1111" 
d="M1067 851l-95 -446q-35 -165 -121 -253q-75 -76 -189 -123q-122 -50 -251 -50q-116 0 -217 52q-85 45 -132 129q-36 65 -36 139q0 49 12 106l95 446q19 88 46 127q23 33 66 54q39 20 81 20q66 0 100 -50q19 -28 19 -70q0 -26 -12 -81l-87 -409q-7 -35 -7 -59
q0 -59 52 -94q35 -24 84 -24q67 0 128 49q60 48 77 128l87 409q18 88 46 127q23 33 66 54q39 20 81 20q66 0 100 -50q19 -28 19 -70q0 -25 -12 -81zM501 1411h436q70 0 93 -22q24 -23 24 -61q0 -58 -51 -97q-33 -25 -109 -25h-436q-70 0 -94 22q-24 23 -24 61q0 58 51 97
q33 25 110 25z" />
    <glyph glyph-name="ubreve" unicode="&#x16d;" horiz-adv-x="1111" 
d="M1067 851l-95 -446q-35 -165 -121 -253q-75 -76 -189 -123q-122 -50 -251 -50q-116 0 -217 52q-85 45 -132 129q-36 65 -36 139q0 49 12 106l95 446q19 88 46 127q23 33 66 54q39 20 81 20q66 0 100 -50q19 -28 19 -70q0 -26 -12 -81l-87 -409q-7 -35 -7 -59
q0 -59 52 -94q35 -24 84 -24q67 0 128 49q60 48 77 128l87 409q18 88 46 127q23 33 66 54q39 20 81 20q66 0 100 -50q19 -28 19 -70q0 -25 -12 -81zM485 1480q18 0 27 -6q16 -8 42 -40q62 -74 155 -74q79 0 161 56q56 39 84 54q19 10 43 10q20 0 39 -13q35 -26 35 -69
q0 -56 -66 -115q-48 -43 -132 -76q-104 -41 -211 -41q-166 0 -271 116q-37 41 -37 78q0 34 26 69q38 51 105 51z" />
    <glyph glyph-name="Uring" unicode="&#x16e;" horiz-adv-x="1352" 
d="M1384 1176l-123 -577q-42 -197 -101 -296q-98 -165 -292 -258q-164 -79 -339 -79q-177 0 -303 89q-141 99 -175 262q-9 42 -9 85q0 52 14 116l140 658q19 91 48 132q24 34 69 57q41 20 85 20q68 0 104 -52q20 -29 20 -73q0 -26 -12 -84l-131 -613q-10 -49 -10 -92
q0 -116 72 -166q66 -46 152 -46q139 0 244 109q53 55 78 119q18 48 32 112l123 577q19 91 48 132q24 34 69 57q41 20 85 20q68 0 104 -52q20 -29 20 -73q0 -26 -12 -84zM939 1877q88 0 134 -68q28 -40 28 -95q0 -75 -51 -140q-77 -99 -197 -99q-89 0 -134 67q-28 41 -28 96
q0 77 51 140q79 99 197 99zM913 1747q-42 0 -71 -36q-20 -24 -20 -50q0 -23 14 -38q16 -18 43 -18q42 0 71 36q20 24 20 51q0 22 -14 37q-16 18 -43 18z" />
    <glyph glyph-name="uring" unicode="&#x16f;" horiz-adv-x="1111" 
d="M1067 851l-95 -446q-35 -165 -121 -253q-75 -76 -189 -123q-122 -50 -251 -50q-116 0 -217 52q-85 45 -132 129q-36 65 -36 139q0 49 12 106l95 446q19 88 46 127q23 33 66 54q39 20 81 20q66 0 100 -50q19 -28 19 -70q0 -26 -12 -81l-87 -409q-7 -35 -7 -59
q0 -59 52 -94q35 -24 84 -24q67 0 128 49q60 48 77 128l87 409q18 88 46 127q23 33 66 54q39 20 81 20q66 0 100 -50q19 -28 19 -70q0 -25 -12 -81zM750 1556q88 0 134 -68q28 -40 28 -95q0 -75 -51 -140q-77 -99 -196 -99q-89 0 -135 67q-27 40 -27 96q0 78 50 140
q79 99 197 99zM725 1432q-44 0 -76 -39q-21 -26 -21 -55q0 -24 15 -40q18 -20 46 -20q45 0 77 39q21 27 21 55q0 23 -15 40q-18 20 -47 20z" />
    <glyph glyph-name="Uhungarumlaut" unicode="&#x170;" horiz-adv-x="1352" 
d="M1384 1176l-123 -577q-42 -197 -101 -296q-98 -165 -292 -258q-164 -79 -339 -79q-177 0 -303 89q-141 99 -175 262q-9 42 -9 85q0 52 14 116l140 658q19 91 48 132q24 34 69 57q41 20 85 20q68 0 104 -52q20 -29 20 -73q0 -26 -12 -84l-131 -613q-10 -49 -10 -92
q0 -116 72 -166q66 -46 152 -46q139 0 244 109q53 55 78 119q18 48 32 112l123 577q19 91 48 132q24 34 69 57q41 20 85 20q68 0 104 -52q20 -29 20 -73q0 -26 -12 -84zM653 1638l233 160q25 17 55 17q37 0 53 -31q6 -12 6 -27q0 -46 -47 -79l-228 -160q-32 -23 -64 -23
q-24 0 -41 19t-17 45q0 44 50 79zM1004 1638l233 160q25 17 55 17q38 0 53 -31q6 -12 6 -27q0 -46 -47 -79l-228 -160q-33 -23 -65 -23q-24 0 -41 20q-17 18 -17 44q0 44 51 79z" />
    <glyph glyph-name="uhungarumlaut" unicode="&#x171;" horiz-adv-x="1111" 
d="M1067 851l-95 -446q-35 -165 -121 -253q-75 -76 -189 -123q-122 -50 -251 -50q-116 0 -217 52q-85 45 -132 129q-36 65 -36 139q0 49 12 106l95 446q19 88 46 127q23 33 66 54q39 20 81 20q66 0 100 -50q19 -28 19 -70q0 -26 -12 -81l-87 -409q-7 -35 -7 -59
q0 -59 52 -94q35 -24 84 -24q67 0 128 49q60 48 77 128l87 409q18 88 46 127q23 33 66 54q39 20 81 20q66 0 100 -50q19 -28 19 -70q0 -25 -12 -81zM469 1303l236 174q23 17 55 17q37 0 53 -31q6 -13 6 -28q0 -19 -10 -41q-5 -12 -38 -37l-231 -174q-30 -22 -64 -22
q-24 0 -41 19t-17 44q0 22 13 47q4 8 38 32zM799 1303l236 174q23 17 55 17q37 0 53 -31q6 -13 6 -28q0 -19 -10 -41q-5 -13 -37 -37l-231 -174q-30 -22 -65 -22q-24 0 -41 19t-17 44q0 23 13 47q4 8 38 32z" />
    <glyph glyph-name="Uogonek" unicode="&#x172;" horiz-adv-x="1352" 
d="M716 -11q-110 -23 -185 -23q-286 0 -423 212q-66 102 -66 224q0 52 14 116l140 658q19 91 48 132q24 34 69 57q41 20 85 20q68 0 104 -52q20 -29 20 -73q0 -26 -12 -84l-131 -613q-10 -49 -10 -92q0 -116 72 -166q66 -46 152 -46q139 0 244 109q53 55 78 119
q18 48 32 112l123 577q19 91 48 132q24 34 69 57q41 20 85 20q68 0 104 -52q20 -29 20 -73q0 -26 -12 -84l-123 -577q-42 -197 -102 -294q-68 -111 -256 -263q-59 -48 -79 -70q-33 -37 -33 -75q0 -23 13 -38q16 -17 40 -17q7 0 46 7q13 2 24 2q59 0 59 -53q0 -50 -51 -88
q-60 -45 -152 -45q-93 0 -137 49q-34 37 -34 96q0 44 19 86q16 35 36 53t62 40z" />
    <glyph glyph-name="uogonek" unicode="&#x173;" horiz-adv-x="1111" 
d="M546 -8q-105 -13 -147 -13q-179 0 -292 121q-81 86 -81 199q0 49 12 106l95 446q19 88 46 127q23 33 66 54q39 20 81 20q66 0 100 -50q19 -28 19 -70q0 -25 -12 -81l-87 -409q-7 -35 -7 -59q0 -59 52 -94q35 -24 84 -24q67 0 128 49q59 47 76 128l87 409q19 88 46 127
q24 33 67 54q39 20 81 20q66 0 100 -50q19 -28 19 -69q0 -25 -12 -82l-95 -446q-34 -161 -116 -249q-34 -37 -135 -108q-106 -75 -106 -148q0 -26 17 -43q15 -15 39 -15q5 0 44 7q12 2 23 2q59 0 59 -53q0 -50 -50 -88q-61 -45 -152 -45q-92 0 -137 49q-34 36 -34 88
q0 46 23 93q18 38 36 55q19 19 63 42z" />
    <glyph glyph-name="Wcircumflex" unicode="&#x174;" horiz-adv-x="1773" 
d="M918 797l-327 -630q-61 -118 -131 -156q-59 -31 -137 -31q-67 0 -114 43q-46 42 -47 96l-33 1031l-1 39q0 103 73 160q51 40 115 40q61 0 93 -37q31 -36 33 -130l13 -721l392 743q43 82 94 113q46 28 101 28q123 0 138 -141l78 -743l313 717q39 89 75 124q50 48 126 48
q42 0 74 -23q51 -37 51 -94q0 -42 -39 -126l-451 -996q-77 -171 -243 -171q-157 0 -175 171zM1087 1587l-251 -87q-24 -9 -44 -9q-38 0 -62 34q-17 23 -17 53q0 33 20 61q25 36 69 51l287 97q26 9 39 9t37 -9l241 -88q61 -22 61 -77q0 -35 -20 -65q-40 -61 -112 -61
q-14 0 -23 4z" />
    <glyph glyph-name="Ycircumflex" unicode="&#x176;" horiz-adv-x="1179" 
d="M738 644l-97 -455q-19 -91 -48 -132q-24 -34 -67 -55.5t-87 -21.5q-68 0 -104 52q-20 29 -20 73q0 26 12 84l97 455l-233 451q-34 66 -34 108q0 74 66 132q54 49 125 49q62 0 101 -52q18 -23 34 -58l162 -331l315 335q47 55 74 74q51 35 103 35q83 0 117 -67
q15 -29 15 -63q0 -66 -96 -164zM790 1587l-251 -87q-24 -9 -44 -9q-37 0 -62 34q-17 23 -17 53q0 32 20 61q25 36 69 51l287 97q26 9 39 9t37 -9l241 -88q61 -22 61 -77q0 -35 -20 -65q-40 -61 -112 -61q-14 0 -23 4z" />
    <glyph glyph-name="ycircumflex" unicode="&#x177;" horiz-adv-x="1018" 
d="M469 466l269 442q36 62 57 86q53 59 134 59q58 0 92 -37q35 -37 35 -80q0 -50 -59 -143l-690 -1092q-35 -60 -56 -83q-52 -56 -129 -56q-58 0 -92 37q-33 37 -33 78q0 51 58 141l177 277l-148 702q-10 49 -10 74q0 73 51 125q56 57 135 57q53 0 83 -33q30 -34 44 -109z
M642 1266l-251 -87q-25 -9 -45 -9q-37 0 -62 34q-17 23 -17 53q0 33 20 62q25 35 69 50l287 97q29 10 40 10q10 0 37 -10l241 -87q60 -22 60 -77q0 -36 -20 -66q-18 -28 -53 -46q-29 -15 -59 -15q-13 0 -23 4z" />
    <glyph glyph-name="Ydieresis" unicode="&#x178;" horiz-adv-x="1179" 
d="M738 644l-97 -455q-19 -91 -48 -132q-24 -34 -67 -55.5t-87 -21.5q-68 0 -104 52q-20 29 -20 73q0 26 12 84l97 455l-233 451q-34 66 -34 108q0 74 66 132q54 49 125 49q62 0 101 -52q18 -23 34 -58l162 -331l315 335q47 55 74 74q51 35 103 35q83 0 117 -67
q15 -29 15 -63q0 -66 -96 -164zM615 1807q66 0 100 -50q21 -31 21 -72q0 -56 -38 -104q-58 -74 -148 -74q-65 0 -99 50q-21 31 -21 72q0 57 38 104q59 74 147 74zM1059 1807q66 0 100 -50q21 -31 21 -72q0 -56 -38 -104q-58 -74 -147 -74q-66 0 -100 50q-21 31 -21 71
q0 58 38 105q59 74 147 74z" />
    <glyph glyph-name="Zacute" unicode="&#x179;" horiz-adv-x="1069" 
d="M328 280h478q95 0 126 -30q33 -31 33 -84q0 -78 -69 -131q-46 -35 -150 -35h-683q-78 0 -108 23q-61 44 -61 106q0 45 28 89q19 30 80 92l748 775h-443q-95 0 -126 30q-33 31 -33 84q0 78 69 131q46 35 150 35h648q66 0 90 -15q64 -39 64 -112q0 -76 -73 -153zM665 1697
l333 113q15 5 34 5q41 0 65 -24q22 -23 22 -57q0 -28 -16 -55q-18 -32 -40 -46q-14 -8 -45 -19l-326 -111q-24 -8 -49 -8q-41 0 -63 25q-20 23 -20 58q0 84 105 119z" />
    <glyph glyph-name="zacute" unicode="&#x17a;" horiz-adv-x="919" 
d="M363 273h295q92 0 123 -29q32 -30 32 -82q0 -76 -68 -128q-44 -34 -145 -34h-581q-59 0 -81 9q-54 22 -54 75q0 50 56 109l541 573h-269q-93 0 -124 29q-32 31 -32 82q0 76 68 129q43 33 146 33h580q48 0 76 -29q26 -27 26 -61q0 -53 -66 -123zM518 1363l336 126
q18 7 38 7q44 0 66 -32q16 -24 16 -52q0 -44 -37 -84q-15 -16 -63 -35l-329 -124q-20 -8 -47 -8q-43 0 -64 25q-21 23 -21 58q0 36 23 67q18 24 39 34q11 6 43 18z" />
    <glyph glyph-name="Zdotaccent" unicode="&#x17b;" horiz-adv-x="1069" 
d="M328 280h478q95 0 126 -30q33 -31 33 -84q0 -78 -69 -131q-46 -35 -150 -35h-683q-78 0 -108 23q-61 44 -61 106q0 45 28 89q19 30 80 92l748 775h-443q-95 0 -126 30q-33 31 -33 84q0 78 69 131q46 35 150 35h648q66 0 90 -15q64 -39 64 -112q0 -76 -73 -153zM789 1807
q66 0 100 -50q21 -31 21 -72q0 -56 -38 -104q-57 -74 -147 -74q-65 0 -100 50q-20 30 -20 71q0 58 38 105q59 74 146 74z" />
    <glyph glyph-name="zdotaccent" unicode="&#x17c;" horiz-adv-x="919" 
d="M363 273h295q92 0 123 -29q32 -30 32 -82q0 -76 -68 -128q-44 -34 -145 -34h-581q-59 0 -81 9q-54 22 -54 75q0 50 56 109l541 573h-269q-93 0 -124 29q-32 31 -32 82q0 76 68 129q43 33 146 33h580q48 0 76 -29q26 -27 26 -61q0 -53 -66 -123zM636 1473q66 0 100 -51
q21 -30 21 -71q0 -56 -38 -105q-57 -74 -147 -74q-66 0 -100 51q-21 30 -21 71q0 58 38 105q59 74 147 74z" />
    <glyph glyph-name="Zcaron" unicode="&#x17d;" horiz-adv-x="1069" 
d="M328 280h478q95 0 126 -30q33 -31 33 -84q0 -78 -69 -131q-46 -35 -150 -35h-683q-78 0 -108 23q-61 44 -61 106q0 45 28 89q19 30 80 92l748 775h-443q-95 0 -126 30q-33 31 -33 84q0 78 69 131q46 35 150 35h648q66 0 90 -15q64 -39 64 -112q0 -76 -73 -153zM767 1704
l241 103q20 9 41 9q44 0 67 -33q16 -24 16 -53q0 -77 -89 -113l-277 -113q-23 -9 -45 -9q-19 0 -34 7l-227 114q-54 27 -54 75q0 33 19 63q37 62 107 62q24 0 38 -7z" />
    <glyph glyph-name="zcaron" unicode="&#x17e;" horiz-adv-x="919" 
d="M363 273h295q92 0 123 -29q32 -30 32 -82q0 -76 -68 -128q-44 -34 -145 -34h-581q-59 0 -81 9q-54 22 -54 75q0 50 56 109l541 573h-269q-93 0 -124 29q-32 31 -32 82q0 76 68 129q43 33 146 33h580q48 0 76 -29q26 -27 26 -61q0 -53 -66 -123zM613 1369l244 118
q17 8 39 8q46 0 69 -33q16 -23 16 -53q0 -72 -89 -113l-280 -126q-20 -9 -44 -9q-22 0 -35 7l-224 127q-54 31 -54 75q0 32 19 63q37 62 108 62q25 0 37 -7z" />
    <glyph glyph-name="florin" unicode="&#x192;" horiz-adv-x="1010" 
d="M438 893h-13q-93 0 -124 29q-32 31 -32 82q0 76 68 128q44 34 146 34h61l58 149q61 156 187 237q121 78 273 78q84 0 123 -37q30 -27 30 -68q0 -71 -48 -121q-44 -45 -122 -45q-5 0 -53 3q-25 2 -57 -19q-29 -19 -46 -63l-44 -114h53q93 0 124 -29q32 -31 32 -82
q0 -77 -68 -128q-44 -34 -146 -34h-102l-317 -817q-69 -178 -206 -271q-116 -78 -255 -78q-82 0 -121 36q-29 27 -29 69q0 70 48 123q33 34 82 42q8 1 47 4q51 4 83 21q38 22 61 81z" />
    <glyph glyph-name="uni01CD" unicode="&#x1cd;" horiz-adv-x="1243" 
d="M803 261h-525l-58 -119q-41 -86 -81 -122q-46 -43 -113 -43q-53 0 -89 32q-42 37 -42 88q0 49 52 139l565 981q101 175 266 175q91 0 142 -55q45 -49 56 -120l148 -981q7 -47 7 -65q0 -87 -62 -142q-57 -52 -135 -52q-113 0 -123 165zM768 541l-55 519l-276 -519h331z
M847 1697l261 87q13 4 25 4q49 0 75 -41q12 -19 12 -43q0 -88 -102 -120l-279 -88q-29 -9 -40 -9q-13 0 -36 9l-246 97q-26 10 -41 38q-9 17 -9 37q0 29 19 59q41 65 107 65q20 0 39 -8z" />
    <glyph glyph-name="uni01CE" unicode="&#x1ce;" horiz-adv-x="1148" 
d="M644 105q-58 -64 -106 -88q-75 -37 -169 -37q-163 0 -270 117q-105 116 -105 284q0 139 54 275q79 202 262 316q138 86 285 86q98 0 162 -46q29 -21 67 -72q36 60 73 83q48 29 100 29q57 0 93 -43q28 -33 28 -74q0 -17 -4 -37l-156 -735q-19 -87 -74 -134
q-50 -43 -116 -43q-103 0 -124 119zM572 778q-118 0 -203 -118q-69 -97 -69 -223q0 -95 50 -139q45 -38 111 -38q106 0 201 116q37 45 56 114q17 61 17 115q0 94 -59 140q-42 33 -104 33zM688 1369l261 87q12 4 26 4q48 0 74 -41q12 -19 12 -43q0 -88 -102 -120l-278 -87
q-31 -10 -41 -10q-12 0 -36 9l-246 98q-25 9 -39 37q-10 18 -10 38q0 28 19 58q41 66 106 66q19 0 40 -9z" />
    <glyph glyph-name="uni01D1" unicode="&#x1d1;" horiz-adv-x="525" 
d="M353 1072q73 0 112 -56q23 -34 23 -79q0 -63 -42 -117q-64 -82 -163 -82q-74 0 -112 56q-23 34 -23 80q0 63 42 116q66 82 163 82zM368 432l-126 -594q-19 -88 -46 -126q-23 -32 -67 -54q-40 -20 -81 -20q-66 0 -100 50q-19 28 -19 70q0 25 12 80l126 594q19 87 46 126
q24 33 67 54q39 20 81 20q65 0 99 -50q19 -27 19 -69q0 -28 -11 -81z" />
    <glyph glyph-name="uni01D3" unicode="&#x1d3;" horiz-adv-x="1352" 
d="M1384 1176l-123 -577q-42 -197 -101 -296q-98 -165 -292 -258q-164 -79 -339 -79q-177 0 -303 89q-141 99 -175 262q-9 42 -9 85q0 52 14 116l140 658q19 91 48 132q24 34 69 57q41 20 85 20q68 0 104 -52q20 -29 20 -73q0 -26 -12 -84l-131 -613q-10 -49 -10 -92
q0 -116 72 -166q66 -46 152 -46q139 0 244 109q53 55 78 119q18 48 32 112l123 577q19 91 48 132q24 34 69 57q41 20 85 20q68 0 104 -52q20 -29 20 -73q0 -26 -12 -84zM901 1704l241 103q20 9 41 9q44 0 67 -33q16 -23 16 -53q0 -77 -89 -113l-277 -113q-22 -9 -45 -9
q-19 0 -33 7l-228 114q-54 27 -54 75q0 32 19 63q37 62 108 62q23 0 37 -7z" />
    <glyph glyph-name="uni01D4" unicode="&#x1d4;" horiz-adv-x="1111" 
d="M1067 851l-95 -446q-35 -165 -121 -253q-75 -76 -189 -123q-122 -50 -251 -50q-116 0 -217 52q-85 45 -132 129q-36 65 -36 139q0 49 12 106l95 446q19 88 46 127q23 33 66 54q39 20 81 20q66 0 100 -50q19 -28 19 -70q0 -26 -12 -81l-87 -409q-7 -35 -7 -59
q0 -59 52 -94q35 -24 84 -24q67 0 128 49q60 48 77 128l87 409q18 88 46 127q23 33 66 54q39 20 81 20q66 0 100 -50q19 -28 19 -70q0 -25 -12 -81zM710 1369l244 118q17 8 39 8q45 0 68 -33q16 -23 16 -53q0 -73 -89 -113l-279 -126q-20 -9 -44 -9q-23 0 -35 7l-224 127
q-55 31 -55 74q0 33 19 64q38 62 109 62q24 0 36 -7z" />
    <glyph glyph-name="Gcaron" unicode="&#x1e6;" horiz-adv-x="1372" 
d="M992 528h-151q-79 0 -112 19q-48 28 -48 95q0 78 70 131q45 35 149 35h305q135 0 135 -120q0 -91 -55 -225q-103 -253 -310 -383q-180 -114 -404 -114q-307 0 -456 221q-92 136 -92 314q0 187 81 375q113 260 336 396q207 127 452 127q208 0 353 -100q104 -72 104 -157
q0 -71 -62 -123q-52 -42 -107 -42q-39 0 -84 27q-10 6 -88 63q-29 22 -86 38q-49 14 -101 14q-110 0 -211 -73q-139 -100 -200 -256q-48 -122 -48 -249q0 -179 106 -249q67 -46 169 -46q241 0 355 282zM952 1697l261 87q13 4 26 4q48 0 74 -41q12 -20 12 -43
q0 -88 -102 -120l-279 -88q-29 -9 -40 -9q-13 0 -36 9l-246 97q-25 10 -40 38q-9 17 -9 37q0 29 19 59q40 65 106 65q20 0 40 -8z" />
    <glyph glyph-name="gcaron" unicode="&#x1e7;" horiz-adv-x="1126" 
d="M811 940q45 64 80 86q42 26 87 26q47 0 79 -28q38 -34 38 -90q0 -21 -6 -47l-168 -794q-52 -243 -199 -372q-81 -71 -201 -111q-118 -38 -243 -38q-203 0 -342 86q-67 42 -67 110q0 49 30 87q54 69 136 69q27 0 48 -8l79 -29q97 -35 178 -35q146 0 225 100q36 46 71 164
q-73 -71 -122 -98q-72 -38 -161 -38q-146 0 -246 93q-116 106 -116 298q0 150 66 303q92 209 267 310q130 75 265 75q61 0 98 -18q28 -14 124 -101zM565 779q-110 0 -192 -111q-75 -102 -75 -238q0 -93 59 -137q44 -33 99 -33q113 0 201 124q66 94 66 212q0 110 -62 153
q-43 30 -96 30zM694 1383l261 87q13 4 25 4q49 0 75 -41q12 -19 12 -43q0 -88 -102 -120l-279 -88q-29 -9 -40 -9q-13 0 -36 9l-246 97q-25 10 -40 38q-9 17 -9 38q0 28 18 58q41 65 107 65q20 0 39 -8z" />
    <glyph glyph-name="uni01F4" unicode="&#x1f4;" horiz-adv-x="1372" 
d="M992 528h-151q-79 0 -112 19q-48 28 -48 95q0 78 70 131q45 35 149 35h305q135 0 135 -120q0 -91 -55 -225q-103 -253 -310 -383q-180 -114 -404 -114q-307 0 -456 221q-92 136 -92 314q0 187 81 375q113 260 336 396q207 127 452 127q208 0 353 -100q104 -72 104 -157
q0 -71 -62 -123q-52 -42 -107 -42q-39 0 -84 27q-10 6 -88 63q-29 22 -86 38q-49 14 -101 14q-110 0 -211 -73q-139 -100 -200 -256q-48 -122 -48 -249q0 -179 106 -249q67 -46 169 -46q241 0 355 282zM779 1715l343 95q18 5 37 5q41 0 65 -29q19 -22 19 -52q0 -27 -16 -55
q-26 -48 -85 -65l-337 -97q-30 -9 -51 -9q-39 0 -61 26q-19 23 -19 58q0 94 105 123z" />
    <glyph glyph-name="Scommaaccent" unicode="&#x218;" horiz-adv-x="1094" 
d="M727 1399q167 0 273 -66q65 -41 65 -108q0 -49 -33 -97q-53 -75 -140 -75q-30 0 -50 7l-53 21q-67 25 -130 25q-102 0 -157 -59q-31 -34 -31 -73q0 -38 27 -59q31 -26 77 -39l78 -22q188 -55 274 -142q76 -76 76 -198q0 -83 -34 -174q-71 -189 -218 -279
q-154 -95 -375 -95q-201 0 -332 72q-87 48 -87 132q0 55 39 106q53 70 131 70q39 0 76 -15l99 -41q73 -30 148 -30q105 0 165 70q42 48 42 101q0 45 -35 71q-32 24 -80 41l-121 40q-132 42 -183 73q-116 73 -116 212q0 107 48 211q80 170 263 256q136 64 294 64zM123 -383
l144 221q34 54 98 54q39 0 64 -29q19 -21 19 -47q0 -30 -21 -62l-141 -218q-37 -57 -95 -57q-49 0 -73 28q-16 18 -16 44q0 32 21 66z" />
    <glyph glyph-name="scommaaccent" unicode="&#x219;" horiz-adv-x="892" 
d="M561 1059q148 0 239 -75q61 -50 61 -112q0 -34 -25 -74q-50 -77 -120 -77q-30 0 -55 11q-11 5 -64 31q-62 30 -109 30q-43 0 -71 -22q-21 -17 -21 -42t23 -42q22 -15 111 -54q107 -46 146 -77q98 -78 98 -182q0 -61 -30 -131q-62 -144 -192 -207q-115 -56 -251 -56
q-167 0 -278 82q-65 48 -65 115q0 37 28 78q52 77 127 77q34 0 62 -13l83 -41q65 -32 113 -32q54 0 87 39q17 21 17 42q0 15 -8 25q-17 22 -90 52q-114 46 -164 75q-116 67 -116 180q0 145 99 251q141 149 365 149zM58 -349l123 194q35 54 95 54q39 0 63 -29q19 -21 19 -46
q0 -32 -20 -64l-122 -190q-36 -57 -94 -57q-48 0 -73 30q-16 20 -16 44q0 25 25 64z" />
    <glyph glyph-name="uni021A" unicode="&#x21a;" horiz-adv-x="993" 
d="M751 1085l-191 -896q-19 -91 -48 -132q-24 -34 -67 -55.5t-87 -21.5q-68 0 -104 52q-20 29 -20 73q0 27 12 84l191 896h-156q-95 0 -127 30q-33 31 -33 84q0 78 70 131q45 35 149 35h620q95 0 126 -30q33 -32 33 -84q0 -78 -70 -131q-45 -35 -149 -35h-149zM100 -383
l143 221q35 54 99 54q38 0 63 -29q19 -21 19 -47q0 -32 -20 -62l-141 -218q-37 -57 -95 -57q-49 0 -73 28q-16 18 -16 44q0 33 21 66z" />
    <glyph glyph-name="uni021B" unicode="&#x21b;" horiz-adv-x="725" 
d="M513 765l-122 -578q-19 -88 -46 -127q-23 -33 -64.5 -53.5t-83.5 -20.5q-65 0 -100 50q-19 28 -19 70q0 25 12 81l123 578q-104 -1 -136 36q-25 30 -25 75q0 50 35 95q50 65 149 67h35l33 154q19 88 46 126q23 33 66 55q39 19 81 19q66 0 100 -50q19 -27 19 -69
q0 -26 -12 -81l-33 -154h56q93 0 124 -29q32 -31 32 -82q0 -76 -68 -128q-44 -34 -146 -34h-56zM-40 -349l124 194q34 54 95 54q39 0 63 -29q19 -21 19 -46q0 -32 -20 -64l-122 -190q-36 -57 -94 -57q-48 0 -73 30q-16 20 -16 44q0 26 24 64z" />
    <glyph glyph-name="Adotaccent" unicode="&#x226;" horiz-adv-x="1243" 
d="M803 261h-525l-58 -119q-41 -86 -81 -122q-46 -43 -113 -43q-53 0 -89 32q-42 37 -42 88q0 49 52 139l565 981q101 175 266 175q91 0 142 -55q45 -49 56 -120l148 -981q7 -47 7 -65q0 -87 -62 -142q-57 -52 -135 -52q-113 0 -123 165zM768 541l-55 519l-276 -519h331z
M870 1807q66 0 100 -50q21 -31 21 -72q0 -56 -38 -104q-57 -74 -147 -74q-66 0 -101 50q-20 30 -20 71q0 59 38 105q59 74 147 74z" />
    <glyph glyph-name="adotaccent" unicode="&#x227;" horiz-adv-x="1148" 
d="M644 105q-58 -64 -106 -88q-75 -37 -169 -37q-163 0 -270 117q-105 116 -105 284q0 139 54 275q79 202 262 316q138 86 285 86q98 0 162 -46q29 -21 67 -72q36 60 73 83q48 29 100 29q57 0 93 -43q28 -33 28 -74q0 -17 -4 -37l-156 -735q-19 -87 -74 -134
q-50 -43 -116 -43q-103 0 -124 119zM572 778q-118 0 -203 -118q-69 -97 -69 -223q0 -95 50 -139q45 -38 111 -38q106 0 201 116q37 45 56 114q17 61 17 115q0 94 -59 140q-42 33 -104 33zM723 1473q66 0 100 -51q21 -30 21 -71q0 -57 -38 -105q-57 -74 -146 -74
q-66 0 -100 51q-21 30 -21 71q0 58 38 105q59 74 146 74z" />
    <glyph glyph-name="dotlessj" unicode="&#x237;" horiz-adv-x="529" 
d="M-61 -223l228 1074q19 88 46 127q24 33 67 54q39 20 81 20q66 0 100 -50q19 -28 19 -70q0 -24 -12 -81l-228 -1074q-19 -87 -46 -126q-23 -33 -67 -54q-39 -20 -81 -20q-65 0 -100 50q-19 28 -19 69q0 25 12 81z" />
    <glyph glyph-name="afii57929" unicode="&#x2bc;" horiz-adv-x="502" 
d="M131 1050l226 288q48 61 120 61q52 0 80 -35q26 -32 26 -73q0 -39 -30 -77l-222 -289q-49 -64 -121 -64q-58 0 -87 36q-24 30 -24 70q0 43 32 83z" />
    <glyph glyph-name="circumflex" unicode="&#x2c6;" 
d="M649 1286l-244 -117q-17 -8 -40 -8q-45 0 -68 33q-16 23 -16 52q0 73 89 113l280 127q21 9 43 9q23 0 36 -7l224 -127q54 -31 54 -75q0 -34 -19 -64q-37 -62 -108 -62q-24 0 -37 8z" />
    <glyph glyph-name="caron" unicode="&#x2c7;" 
d="M666 1369l244 118q18 8 40 8q45 0 68 -33q16 -24 16 -53q0 -73 -89 -113l-280 -126q-19 -9 -43 -9q-23 0 -36 7l-224 127q-54 31 -54 75q0 33 19 63q37 62 108 62q25 0 37 -7z" />
    <glyph glyph-name="uni02C9" unicode="&#x2c9;" 
d="M458 1411h436q70 0 93 -22q24 -23 24 -61q0 -58 -51 -97q-33 -25 -110 -25h-436q-70 0 -93 22q-24 23 -24 61q0 57 51 97q33 25 110 25z" />
    <glyph glyph-name="breve" unicode="&#x2d8;" 
d="M440 1496q32 0 49 -17q8 -8 39 -70q27 -55 137 -55q80 0 130 35q14 9 77 71q35 36 87 36q22 0 40 -9q34 -18 34 -61q0 -82 -99 -166q-46 -39 -115 -64q-98 -36 -199 -36q-158 0 -246 84q-61 59 -61 130q0 61 51 98q35 24 76 24z" />
    <glyph glyph-name="dotaccent" unicode="&#x2d9;" 
d="M689 1473q66 0 100 -51q21 -30 21 -71q0 -56 -38 -105q-57 -74 -147 -74q-67 0 -101 50q-20 30 -20 72q0 58 38 105q59 74 147 74z" />
    <glyph glyph-name="ring" unicode="&#x2da;" 
d="M706 1556q88 0 134 -68q28 -40 28 -95q0 -75 -51 -140q-77 -99 -196 -99q-89 0 -135 68q-27 40 -27 95q0 78 50 140q79 99 197 99zM682 1432q-45 0 -77 -39q-21 -26 -21 -55q0 -24 15 -40q18 -20 46 -20q45 0 77 39q21 27 21 55q0 23 -15 40q-18 20 -46 20z" />
    <glyph glyph-name="ogonek" unicode="&#x2db;" 
d="M527 0h151q-65 -59 -65 -104q0 -22 14 -37q15 -17 39 -17q7 0 47 7q12 2 23 2q59 0 59 -52q0 -50 -50 -89q-61 -45 -153 -45q-93 0 -137 49q-34 38 -34 96q0 101 106 190z" />
    <glyph glyph-name="tilde" unicode="&#x2dc;" 
d="M533 1463q53 0 109 -22q15 -6 98 -53q32 -18 65 -18q19 0 35 9q9 6 32 37q35 48 85 48q44 0 63 -31q12 -20 12 -44q0 -61 -55 -120q-80 -86 -201 -86q-67 0 -147 44q-91 49 -121 49q-26 0 -48 -21q-5 -5 -38 -44q-25 -31 -68 -31t-63 27q-12 15 -12 38q0 66 48 123
q35 43 92 68q57 27 114 27z" />
    <glyph glyph-name="hungarumlaut" unicode="&#x2dd;" 
d="M418 1303l236 174q23 17 55 17q37 0 53 -31q6 -12 6 -27q0 -20 -10 -42q-5 -12 -38 -37l-231 -174q-29 -22 -64 -22q-24 0 -42 19q-16 19 -16 44q0 23 13 47q4 8 38 32zM748 1303l236 174q23 17 56 17q36 0 52 -31q6 -12 6 -28q0 -19 -9 -41q-6 -13 -38 -37l-231 -174
q-30 -22 -65 -22q-23 0 -41 19q-16 19 -16 44q0 23 13 47q4 8 37 32z" />
    <glyph glyph-name="uni0387" unicode="&#x387;" horiz-adv-x="437" 
d="M247 778q73 0 112 -56q23 -34 23 -79q0 -63 -42 -117q-64 -82 -164 -82q-74 0 -112 56q-23 34 -23 80q0 64 42 116q67 82 164 82z" />
    <glyph glyph-name="Fdotaccent" unicode="&#x1e1e;" horiz-adv-x="935" 
d="M504 1085l-58 -271h248q95 0 126 -30q33 -31 33 -83q0 -79 -69 -132q-46 -35 -150 -35h-247l-74 -345q-19 -91 -47 -132q-25 -34 -70 -56q-41 -21 -85 -21q-68 0 -104 52q-20 29 -20 73q0 25 12 84l202 948q25 117 65 159q65 69 173 69h38h385q95 0 126 -30
q33 -31 33 -84q0 -78 -69 -131q-46 -35 -150 -35h-298zM716 1807q66 0 100 -50q21 -31 21 -72q0 -56 -38 -104q-58 -74 -147 -74q-66 0 -100 50q-21 31 -21 71q0 58 38 105q59 74 147 74z" />
    <glyph glyph-name="Wacute" unicode="&#x1e82;" horiz-adv-x="642" 
d="M251 694h162q88 0 117 -27q30 -29 30 -77q0 -73 -64 -121q-41 -32 -137 -32h-163q-87 0 -116 28q-30 28 -30 76q0 72 64 121q41 32 137 32z" />
    <glyph glyph-name="Wdieresis" unicode="&#x1e84;" horiz-adv-x="1773" 
d="M918 797l-327 -630q-61 -118 -131 -156q-59 -31 -137 -31q-67 0 -114 43q-46 42 -47 96l-33 1031l-1 39q0 103 73 160q51 40 115 40q61 0 93 -37q31 -36 33 -130l13 -721l392 743q43 82 94 113q46 28 101 28q123 0 138 -141l78 -743l313 717q39 89 75 124q50 48 126 48
q42 0 74 -23q51 -37 51 -94q0 -42 -39 -126l-451 -996q-77 -171 -243 -171q-157 0 -175 171zM871 1807q66 0 100 -50q21 -31 21 -72q0 -56 -38 -104q-57 -74 -147 -74q-66 0 -100 50q-21 31 -21 72q0 57 38 104q59 74 147 74zM1397 1807q65 0 100 -51q21 -30 21 -71
q0 -56 -38 -104q-58 -74 -147 -74q-66 0 -100 50q-21 31 -21 71q0 58 38 105q59 74 147 74z" />
    <glyph glyph-name="uni2007" unicode="&#x2007;" horiz-adv-x="1092" 
 />
    <glyph glyph-name="uni2011" unicode="&#x2011;" horiz-adv-x="505" 
d="M183 694h162q88 0 117 -27q30 -29 30 -77q0 -73 -64 -121q-41 -32 -137 -32h-163q-87 0 -116 28q-30 28 -30 76q0 72 64 121q41 32 137 32z" />
    <glyph glyph-name="figuredash" unicode="&#x2012;" horiz-adv-x="1092" 
d="M278 694h558q87 0 116 -27q30 -29 30 -77q0 -73 -63 -121q-42 -32 -137 -32h-559q-87 0 -116 28q-30 28 -30 76q0 72 64 121q41 32 137 32z" />
    <glyph glyph-name="endash" unicode="&#x2013;" horiz-adv-x="1092" 
d="M278 694h558q87 0 116 -27q30 -29 30 -77q0 -73 -63 -121q-42 -32 -137 -32h-559q-87 0 -116 28q-30 28 -30 76q0 72 64 121q41 32 137 32z" />
    <glyph glyph-name="emdash" unicode="&#x2014;" horiz-adv-x="1529" 
d="M183 694h1186q88 0 117 -27q30 -29 30 -77q0 -73 -64 -121q-41 -32 -137 -32h-1187q-87 0 -116 28q-30 28 -30 76q0 72 64 121q41 32 137 32z" />
    <glyph glyph-name="afii00208" unicode="&#x2015;" horiz-adv-x="1529" 
d="M183 694h1186q88 0 117 -27q30 -29 30 -77q0 -73 -64 -121q-41 -32 -137 -32h-1187q-87 0 -116 28q-30 28 -30 76q0 72 64 121q41 32 137 32z" />
    <glyph glyph-name="quoteleft" unicode="&#x2018;" horiz-adv-x="502" 
d="M296 922l-104 288q-7 19 -7 38q0 42 29 81q50 70 134 70q43 0 67 -23t30 -41l100 -288q6 -19 6 -36q0 -38 -28 -78q-51 -72 -131 -72q-39 0 -64 20q-24 19 -32 41z" />
    <glyph glyph-name="quoteright" unicode="&#x2019;" horiz-adv-x="502" 
d="M140 1047l216 274q46 58 113 58q49 0 76 -33q25 -31 25 -70q0 -37 -28 -74l-211 -273q-47 -62 -115 -62q-55 0 -83 35q-23 28 -23 66q0 40 30 79z" />
    <glyph glyph-name="quotesinglbase" unicode="&#x201a;" horiz-adv-x="502" 
d="M-108 -122l216 274q45 58 113 58q49 0 76 -33q25 -31 25 -70q0 -37 -28 -73l-211 -274q-47 -61 -115 -61q-55 0 -83 34q-23 28 -23 66q0 41 30 79z" />
    <glyph glyph-name="quotedblleft" unicode="&#x201c;" horiz-adv-x="939" 
d="M296 922l-104 288q-7 19 -7 38q0 42 29 81q50 70 134 70q43 0 67 -23t30 -41l100 -288q6 -19 6 -36q0 -38 -28 -78q-51 -72 -131 -72q-39 0 -64 20q-24 19 -32 41zM733 922l-104 288q-7 19 -7 38q0 42 29 82q50 69 134 69q43 0 67 -23t30 -41l100 -288q6 -19 6 -36
q0 -38 -28 -78q-51 -72 -131 -72q-39 0 -64 20q-24 19 -32 41z" />
    <glyph glyph-name="quotedblright" unicode="&#x201d;" horiz-adv-x="939" 
d="M131 1050l226 288q48 61 120 61q52 0 80 -35q26 -32 26 -73q0 -39 -30 -77l-222 -289q-49 -64 -121 -64q-58 0 -87 36q-24 30 -24 70q0 43 32 83zM568 1050l226 288q48 61 120 61q51 0 80 -35q26 -32 26 -73q0 -38 -30 -77l-222 -289q-49 -64 -122 -64q-57 0 -87 36
q-24 30 -24 70q0 42 33 83z" />
    <glyph glyph-name="quotedblbase" unicode="&#x201e;" horiz-adv-x="939" 
d="M-110 -83l227 288q47 61 119 61q51 0 80 -35q26 -32 26 -73q0 -39 -30 -77l-222 -289q-49 -64 -121 -64q-57 0 -87 36q-24 30 -24 70q0 43 32 83zM327 -83l227 288q47 61 119 61q52 0 80 -35q26 -32 26 -73q0 -38 -30 -77l-222 -289q-49 -64 -122 -64q-57 0 -87 36
q-24 30 -24 70q0 41 33 83z" />
    <glyph glyph-name="dagger" unicode="&#x2020;" horiz-adv-x="1092" 
d="M753 1012h132q72 0 102 -17q44 -26 44 -87q0 -72 -64 -121q-41 -32 -137 -32h-132l-192 -903q-15 -76 -38 -109q-20 -28 -57 -46q-34 -17 -70 -17q-56 0 -85 43q-16 24 -16 59q0 25 10 70l192 903h-132q-87 0 -116 28q-30 28 -30 76q0 72 64 121q41 32 136 32h132l43 203
q16 75 40 108q20 28 57 46q33 17 69 17q56 0 85 -43q16 -24 16 -59q0 -23 -10 -69z" />
    <glyph glyph-name="daggerdbl" unicode="&#x2021;" horiz-adv-x="1092" 
d="M753 1012h132q72 0 102 -17q44 -26 44 -87q0 -72 -64 -121q-42 -32 -137 -32h-132l-94 -444h132q87 0 116 -28q30 -29 30 -77q0 -72 -64 -120q-42 -32 -137 -32h-132l-43 -203q-16 -75 -39 -108q-20 -28 -57 -46q-34 -17 -70 -17q-56 0 -85 43q-16 24 -16 60q0 21 10 68
l44 203h-132q-88 0 -116 27q-30 29 -30 77q0 73 64 121q42 32 136 32h132l94 444h-131q-88 0 -117 27q-30 29 -30 77q0 72 64 121q42 32 137 32h132l43 203q16 75 40 108q19 28 56 46q34 17 69 17q57 0 86 -43q16 -23 16 -59q0 -23 -10 -69z" />
    <glyph glyph-name="bullet" unicode="&#x2022;" horiz-adv-x="1366" 
d="M757 982q111 0 177 -85q48 -62 48 -143q0 -125 -93 -229q-49 -53 -118 -84t-139 -31q-111 0 -177 84q-49 63 -49 146q0 123 94 228q49 53 120 84q67 30 137 30z" />
    <glyph glyph-name="ellipsis" unicode="&#x2026;" horiz-adv-x="1638" 
d="M200 300q73 0 112 -56q23 -34 23 -79q0 -63 -42 -117q-64 -82 -164 -82q-74 0 -112 56q-23 34 -23 80q0 64 42 116q67 82 164 82zM745 300q73 0 112 -56q23 -34 23 -79q0 -63 -42 -117q-64 -82 -163 -82q-74 0 -112 56q-23 34 -23 80q0 64 42 116q66 82 163 82zM1291 300
q73 0 112 -56q23 -34 23 -79q0 -63 -42 -117q-64 -82 -164 -82q-73 0 -111 56q-23 34 -23 80q0 64 42 116q66 82 163 82z" />
    <glyph glyph-name="perthousand" unicode="&#x2030;" horiz-adv-x="2457" 
d="M1389 883q122 0 189 -106q49 -77 49 -198q0 -196 -103 -375q-57 -99 -141 -154q-90 -59 -187 -59q-120 0 -188 106q-49 78 -49 189q0 106 38 232q53 172 152 263q111 102 240 102zM1351 695q-104 0 -158 -199q-32 -117 -32 -197q0 -116 77 -116q91 0 144 153
q46 134 46 242q0 117 -77 117zM558 1402q121 0 189 -106q49 -77 49 -198q0 -196 -103 -375q-57 -100 -141 -155q-90 -59 -187 -59q-121 0 -188 106q-49 78 -49 189q0 106 38 233q52 172 152 263q111 102 240 102zM521 1214q-104 0 -159 -199q-32 -117 -32 -198
q0 -116 77 -116q91 0 144 154q46 134 46 242q0 117 -76 117zM2113 883q122 0 189 -106q49 -77 49 -198q0 -196 -103 -375q-57 -99 -141 -154q-90 -59 -187 -59q-121 0 -188 106q-49 78 -49 189q0 106 38 232q53 172 152 263q111 102 240 102zM2076 695q-105 0 -159 -199
q-32 -116 -32 -196q0 -117 77 -117q92 0 144 153q46 134 46 242q0 117 -76 117zM410 127l722 1181q32 54 57 72q27 20 65 20q36 0 58 -23q23 -23 23 -53q0 -31 -36 -88l-724 -1182q-31 -54 -55 -72.5t-64 -18.5q-37 0 -59 23t-22 53q0 29 35 88z" />
    <glyph glyph-name="guilsinglleft" unicode="&#x2039;" horiz-adv-x="682" 
d="M314 555l153 -201q24 -32 24 -68q0 -52 -34 -97q-48 -62 -118 -62q-32 0 -59 19q-27 18 -40 42l-122 239q-27 53 -27 97q0 72 82 159l223 239q58 61 126 61q50 0 78 -42q17 -27 17 -62q0 -68 -64 -123z" />
    <glyph glyph-name="guilsinglright" unicode="&#x203a;" horiz-adv-x="682" 
d="M331 555l-153 201q-24 32 -24 68q0 51 34 97q48 62 119 62q31 0 58 -19q28 -19 40 -42l122 -239q28 -54 28 -97q0 -72 -82 -159l-224 -239q-57 -61 -126 -61q-50 0 -77 42q-18 26 -18 62q0 68 65 123z" />
    <glyph glyph-name="exclamdbl" unicode="&#x203c;" horiz-adv-x="1051" 
d="M531 1199l-126 -593q-19 -88 -46 -127q-23 -33 -66 -54q-39 -20 -81 -20q-66 0 -100 50q-19 28 -19 70q0 26 12 81l126 593q18 87 46 126q23 33 66 55q39 19 81 19q66 0 100 -50q19 -28 19 -69q0 -25 -12 -81zM190 300q73 0 112 -56q23 -34 23 -79q0 -63 -42 -117
q-64 -82 -164 -82q-74 0 -112 56q-23 34 -23 80q0 64 42 116q67 82 164 82zM1056 1199l-126 -593q-18 -88 -46 -127q-23 -33 -66 -54q-39 -20 -81 -20q-66 0 -100 50q-19 28 -19 70q0 25 12 81l126 593q19 87 46 126q23 33 66 55q39 19 81 19q66 0 100 -50q19 -28 19 -69
q0 -27 -12 -81zM716 300q72 0 111 -56q23 -34 23 -79q0 -63 -42 -117q-64 -82 -164 -82q-73 0 -111 56q-23 34 -23 80q0 64 42 116q66 82 164 82z" />
    <glyph glyph-name="uni203E" unicode="&#x203e;" 
d="M227 1706h1024l-50 -233h-1024z" />
    <glyph glyph-name="fraction" unicode="&#x2044;" horiz-adv-x="252" 
d="M-312 127l722 1181q32 54 56 72q27 20 65 20q36 0 58 -23q23 -23 23 -53q0 -31 -35 -88l-724 -1182q-22 -38 -35 -53q-33 -38 -84 -38q-37 0 -59 23t-22 53t35 88z" />
    <glyph glyph-name="zerosuperior" unicode="&#x2070;" horiz-adv-x="797" 
d="M557 1385q77 0 140 -48q106 -81 106 -259q0 -116 -46 -236q-72 -185 -191 -258q-96 -58 -195 -58q-92 0 -159 62q-43 39 -67 106q-20 57 -20 117q0 122 46 252q65 187 192 263q97 59 194 59zM517 1191q-69 0 -121 -112q-54 -115 -54 -240q0 -118 69 -118q80 0 139 153
q36 94 36 189q0 128 -69 128z" />
    <glyph glyph-name="foursuperior" unicode="&#x2074;" horiz-adv-x="797" 
d="M437 719h-244q-95 0 -95 69q0 29 22 57l348 441q42 53 79 71q43 20 86 20q64 0 93 -43q20 -30 20 -73q0 -13 -3 -26l-72 -341h14q80 0 80 -70q0 -38 -34 -71q-33 -31 -95 -34l-16 -64q-11 -53 -29 -76q-34 -45 -96 -45q-41 0 -64 28q-15 18 -15 49q0 13 7 44zM474 894
l47 221l-171 -221h124z" />
    <glyph glyph-name="fivesuperior" unicode="&#x2075;" horiz-adv-x="797" 
d="M492 1189l-29 -88q43 11 78 11q115 0 173 -75q41 -52 41 -123q0 -66 -26.5 -136t-72.5 -123q-57 -66 -145 -101q-73 -28 -152 -28q-124 0 -210 66q-50 38 -50 83q0 31 21 61q36 50 95 50q22 0 44 -11q6 -3 49 -30q38 -24 87 -24q65 0 111 64q29 40 29 89q0 76 -81 76
q-34 0 -108 -31q-21 -9 -46 -9q-32 0 -53 20q-19 18 -19 40q0 15 10 44l87 256q32 95 118 95h283q51 0 73 -12q33 -17 33 -60q0 -50 -46 -83q-30 -21 -97 -21h-197z" />
    <glyph glyph-name="sixsuperior" unicode="&#x2076;" horiz-adv-x="797" 
d="M505 1074q26 6 51 6q99 0 161 -67q53 -58 53 -140q0 -133 -104 -237q-109 -110 -283 -110q-122 0 -193 65q-72 66 -72 165q0 110 98 265q71 114 154 194q83 79 179 139q49 31 91 31q35 0 58 -20q25 -22 25 -53q0 -36 -41 -79q-9 -9 -69 -58q-36 -30 -108 -101zM465 914
q-55 0 -97 -47q-29 -32 -29 -69q0 -29 17 -49q24 -28 68 -28q55 0 97 47q29 32 29 70q0 29 -17 48q-25 28 -68 28z" />
    <glyph glyph-name="sevensuperior" unicode="&#x2077;" horiz-adv-x="797" 
d="M562 1189h-233q-51 0 -73 12q-33 17 -33 61q0 49 46 82q30 21 98 21h366q94 0 94 -82q0 -28 -30 -73l-407 -600q-34 -48 -60 -63q-29 -17 -62 -17q-40 0 -67 25q-24 23 -24 54q0 29 23 62z" />
    <glyph glyph-name="eightsuperior" unicode="&#x2078;" horiz-adv-x="797" 
d="M682 997q79 -66 79 -151q0 -116 -91 -208q-53 -55 -136 -84q-79 -28 -159 -28q-144 0 -220 82q-52 55 -52 137q0 84 50 157q39 56 113 95q-48 53 -48 112q0 108 88 189q96 87 250 87q117 0 183 -59q58 -51 58 -129q0 -59 -32 -117q-29 -51 -83 -83zM523 1218
q-45 0 -77 -39q-21 -27 -21 -56q0 -24 15 -40q18 -20 47 -20q45 0 77 39q21 27 21 55q0 24 -15 41q-18 20 -47 20zM461 923q-60 0 -103 -53q-28 -36 -28 -75q0 -32 20 -54q24 -27 63 -27q61 0 103 53q28 36 28 75q0 32 -20 54q-24 27 -63 27z" />
    <glyph glyph-name="ninesuperior" unicode="&#x2079;" horiz-adv-x="797" 
d="M433 837q-24 -5 -51 -5q-99 0 -160 67q-53 58 -53 140q0 132 104 236q109 110 283 110q121 0 193 -65q72 -66 72 -166q0 -109 -97 -264q-72 -113 -156 -193q-83 -80 -179 -140q-48 -31 -90 -31q-36 0 -59 21q-25 21 -25 52q0 36 41 79q9 9 69 59q40 33 108 100zM515 1190
q-55 0 -97 -47q-29 -32 -29 -68q0 -30 17 -49q23 -28 68 -28q56 0 98 47q28 32 28 68q0 30 -17 49q-24 28 -68 28z" />
    <glyph glyph-name="zeroinferior" unicode="&#x2080;" horiz-adv-x="797" 
d="M442 840q76 0 139 -48q106 -81 106 -260q0 -116 -46 -235q-72 -186 -191 -259q-96 -58 -195 -58q-91 0 -159 62q-43 39 -67 107q-20 56 -20 117q0 122 46 252q65 186 192 263q97 59 195 59zM402 646q-70 0 -122 -112q-31 -67 -47 -163q-7 -44 -7 -78q0 -70 30 -101
q16 -17 40 -17q79 0 138 153q36 95 36 189q0 129 -68 129z" />
    <glyph glyph-name="oneinferior" unicode="&#x2081;" horiz-adv-x="797" 
d="M325 643h-34q-51 0 -73 12q-33 17 -33 60q0 50 46 83q30 21 97 21h111q65 0 86 -18q28 -23 28 -58q0 -14 -7 -49l-123 -577q-12 -55 -30 -80q-36 -49 -102 -49q-45 0 -69 30q-16 19 -16 52q0 14 7 47z" />
    <glyph glyph-name="twoinferior" unicode="&#x2082;" horiz-adv-x="797" 
d="M312 176h169q106 0 106 -72q0 -50 -46 -82q-30 -22 -97 -22h-370q-100 0 -100 69q0 37 50 95q41 48 100 99l162 132q107 86 148 141q25 34 25 65q0 20 -11 35q-17 21 -49 21q-65 0 -106 -77q-35 -69 -54 -84q-29 -23 -67 -23q-82 0 -82 74q0 38 25 89q52 108 165 163
q81 40 167 40q116 0 184 -76q48 -54 48 -125q0 -121 -108 -245q-76 -87 -166 -164q-41 -34 -93 -53z" />
    <glyph glyph-name="threeinferior" unicode="&#x2083;" horiz-adv-x="797" 
d="M530 453q98 -64 98 -159q0 -55 -28 -116q-49 -104 -160 -157q-85 -41 -185 -41q-105 0 -172 48q-49 35 -75 92q-16 35 -16 69q0 53 47 86q34 24 74 24q39 0 59 -27q5 -7 23 -51q22 -57 90 -57q61 0 99 45q28 32 28 73q0 55 -84 62q-91 8 -91 71q0 35 27 67q14 17 40 26
q8 3 54 14q95 24 95 88q0 22 -19 34q-18 12 -40 12q-44 0 -106 -54q-52 -46 -103 -46q-39 0 -60 27q-15 19 -15 45q0 58 65 117q42 39 113 65q78 29 153 29q101 0 165 -58q52 -48 52 -124q0 -131 -128 -204z" />
    <glyph glyph-name="fourinferior" unicode="&#x2084;" horiz-adv-x="797" 
d="M321 173h-244q-95 0 -95 69q0 29 22 57l348 441q42 53 79 71q43 20 86 20q64 0 93 -43q20 -30 20 -72q0 -13 -3 -27l-72 -341h14q80 0 80 -70q0 -38 -34 -71q-33 -31 -95 -34l-16 -64q-11 -53 -29 -76q-34 -45 -96 -45q-41 0 -64 28q-15 18 -15 49q0 13 7 44zM358 348
l47 221l-171 -221h124z" />
    <glyph glyph-name="fiveinferior" unicode="&#x2085;" horiz-adv-x="797" 
d="M376 643l-29 -88q44 11 78 11q115 0 173 -75q41 -52 41 -124q0 -144 -99 -258q-57 -66 -145 -100q-73 -29 -152 -29q-124 0 -210 66q-50 38 -50 83q0 31 21 61q36 50 95 50q22 0 44 -11q6 -3 49 -30q38 -24 87 -24q66 0 111 64q29 40 29 90q0 75 -81 75q-34 0 -108 -31
q-21 -9 -46 -9q-32 0 -53 20q-19 18 -19 40q0 15 10 44l87 256q32 95 118 95h283q51 0 73 -12q33 -17 33 -60q0 -50 -46 -83q-30 -21 -97 -21h-197z" />
    <glyph glyph-name="sixinferior" unicode="&#x2086;" horiz-adv-x="797" 
d="M389 528q25 6 51 6q99 0 161 -67q53 -58 53 -140q0 -132 -104 -237q-109 -110 -283 -110q-122 0 -193 65q-72 66 -72 166q0 110 98 264q72 115 154 194q82 80 179 140q49 31 91 31q35 0 58 -21q25 -21 25 -52q0 -36 -41 -79q-9 -9 -69 -59q-36 -30 -108 -101zM350 368
q-56 0 -98 -47q-29 -33 -29 -69q0 -29 17 -49q24 -28 68 -28q56 0 98 47q29 32 29 70q0 29 -17 48q-25 28 -68 28z" />
    <glyph glyph-name="seveninferior" unicode="&#x2087;" horiz-adv-x="797" 
d="M446 643h-233q-51 0 -73 12q-33 17 -33 61q0 49 46 82q30 21 97 21h367q94 0 94 -81q0 -29 -30 -74l-408 -600q-33 -48 -59 -63q-29 -17 -62 -17q-40 0 -67 25q-24 23 -24 54q0 29 23 62z" />
    <glyph glyph-name="eightinferior" unicode="&#x2088;" horiz-adv-x="797" 
d="M566 450q79 -65 79 -150q0 -116 -91 -209q-53 -54 -137 -83q-78 -28 -159 -28q-144 0 -220 82q-52 55 -52 136q0 84 50 157q39 57 114 95q-48 54 -48 112q0 110 88 190q95 88 250 88q117 0 183 -59q58 -52 58 -130q0 -60 -33 -117q-29 -52 -82 -84zM407 673
q-45 0 -77 -40q-21 -26 -21 -56q0 -24 15 -40q18 -20 47 -20q45 0 77 40q21 27 21 55q0 24 -15 41q-18 20 -47 20zM345 377q-61 0 -104 -53q-28 -36 -28 -75q0 -32 20 -55q24 -26 63 -26q61 0 104 53q28 36 28 75q0 32 -20 54q-24 27 -63 27z" />
    <glyph glyph-name="nineinferior" unicode="&#x2089;" horiz-adv-x="797" 
d="M317 291q-25 -6 -51 -6q-99 0 -160 67q-53 59 -53 140q0 132 104 237q109 110 283 110q121 0 193 -65q72 -66 72 -166q0 -110 -97 -264q-72 -113 -156 -194q-82 -79 -179 -139q-48 -31 -90 -31q-36 0 -59 20q-25 22 -25 53q0 36 41 79q9 9 69 58q39 32 108 101zM399 644
q-55 0 -97 -47q-29 -32 -29 -69q0 -29 17 -49q24 -28 68 -28q56 0 97 47q29 33 29 69q0 29 -17 49q-24 28 -68 28z" />
    <glyph glyph-name="franc" unicode="&#x20a3;" horiz-adv-x="1547" 
d="M504 1085l-58 -271h193q95 0 127 -30q33 -31 33 -83q0 -79 -70 -132q-45 -35 -149 -35h-193l-74 -345q-19 -91 -47 -132q-25 -34 -70 -56q-41 -21 -85 -21q-68 0 -104 52q-20 29 -20 73q0 25 12 84l202 948q25 117 65 159q65 69 173 69h38h385q95 0 126 -30
q33 -32 33 -84q0 -78 -70 -131q-45 -35 -149 -35h-298zM1206 728q32 38 52 54t55 30q69 29 123 29q60 0 96 -42q29 -33 29 -82q0 -59 -38 -101q-25 -28 -73 -47q-14 -5 -74 -22q-113 -34 -176 -76q-35 -23 -50 -50q-15 -26 -25 -73l-34 -161q-19 -88 -46 -127
q-22 -32 -66 -54q-40 -20 -81 -20q-65 0 -100 50q-19 28 -19 69q0 27 12 82l101 476q17 82 61 121q55 50 126 50q98 0 127 -106z" />
    <glyph glyph-name="lira" unicode="&#x20a4;" horiz-adv-x="1092" 
d="M148 393h-33q-57 0 -75 18q-20 18 -20 49q0 47 41 78q27 21 89 21h68q11 50 11 107h-57q-56 0 -75 18q-20 18 -20 49q0 30 21 58q31 39 91 41h24q-9 54 -9 88q0 138 75 245q86 122 255 185q131 49 274 49q202 0 328 -101q102 -81 102 -193q0 -64 -35 -112
q-26 -36 -75 -61q-46 -23 -91 -23q-49 0 -82 36q-16 16 -36 66q-26 64 -70 85q-44 23 -98 23q-103 0 -167 -79q-40 -50 -40 -106q0 -32 12 -71q6 -21 8 -31h179q57 0 75 -18q20 -18 20 -49q0 -47 -41 -78q-27 -21 -89 -21h-141q-3 -32 -24 -107h142q57 0 76 -18
q20 -18 20 -49q0 -46 -41 -78q-27 -21 -90 -21h-174q-29 -47 -71 -104h477q98 0 131 -31q34 -32 34 -86q0 -81 -72 -136q-47 -36 -154 -36h-706q-87 0 -127 53q-21 28 -21 62q0 40 20 84q13 28 57 72q68 67 104 122z" />
    <glyph glyph-name="peseta" unicode="&#x20a7;" horiz-adv-x="2105" 
d="M333 448l-55 -259q-19 -90 -46 -132q-22 -34 -64 -56q-37 -21 -77 -21q-62 0 -93 53q-16 26 -16 67q0 28 13 89l202 949q24 116 61 158q60 69 158 69h34h254q138 0 213 -48q96 -61 130 -192q14 -53 14 -113q0 -97 -40 -203q-135 -361 -474 -361h-214zM391 721h142
q113 0 186 95q46 60 46 137q0 139 -138 139h-157zM1257 451l-71 -334q-11 -54 -29 -78q-35 -47 -99 -47q-43 0 -67 29q-15 18 -15 50q0 13 7 46l71 334q-62 1 -83 23q-18 20 -18 50q0 48 46 81q30 21 92 21l18 84q12 54 30 78q35 47 99 47q44 0 67 -32q14 -18 14 -46
q0 -15 -7 -47l-18 -84h28q61 0 82 -18q23 -21 23 -54q0 -49 -45 -82q-31 -21 -97 -21h-28zM1805 638q96 0 155 -45q41 -32 41 -71q0 -41 -41 -75q-26 -22 -58 -22q-22 0 -77 25q-38 17 -66 17q-49 0 -49 -29q0 -12 13 -20q13 -9 70 -32q94 -38 129 -79q29 -35 29 -80
q0 -87 -75 -160q-82 -79 -228 -79q-82 0 -145 30q-78 36 -78 92q0 24 19 50q35 49 85 49q23 0 42 -8q3 -1 53 -24q40 -18 69 -18q30 0 48 20q8 9 8 19q0 12 -14 21q-11 7 -93 38q-77 30 -110 68q-24 28 -24 72q0 88 63 151q91 90 234 90z" />
    <glyph glyph-name="Euro" unicode="&#x20ac;" horiz-adv-x="1260" 
d="M257 902q68 147 128 223q108 139 256 207q148 67 311 67q199 0 328 -81q81 -51 81 -127q0 -56 -40 -108q-49 -66 -127 -66q-49 0 -116 54q-41 33 -69 47q-44 23 -105 23q-186 0 -332 -239h468q49 0 70 -9q25 -12 25 -44q0 -101 -127 -101h-496q-11 -30 -24 -93l-3 -15
h367q49 0 70 -10q25 -11 25 -42q0 -102 -127 -102h-348q6 -97 32 -154q53 -112 205 -112q52 0 101 16q35 12 105 47q100 51 150 51q38 0 62 -24q27 -28 27 -72q0 -98 -97 -165q-56 -39 -156 -68q-128 -36 -261 -36q-244 0 -369 145q-80 93 -102 222q-8 51 -8 150h-45
q-93 0 -93 55q0 61 46 85q30 14 109 14q11 55 25 108h-35q-93 0 -93 54q0 53 36 79q31 22 107 22l28 -1h11z" />
    <glyph glyph-name="uni2101" unicode="&#x2101;" horiz-adv-x="1986" 
d="M614 703h-357l-37 -71q-29 -54 -53 -74q-30 -25 -77 -25q-48 0 -75 33q-16 19 -16 40q0 29 33 82l368 589q65 104 180 104q59 0 94 -33q33 -30 41 -71l117 -589q6 -29 6 -43q0 -50 -40 -82q-40 -31 -90 -31q-77 0 -87 100zM585 871l-46 312l-179 -312h225zM1669 840
q113 0 187 -40q46 -25 46 -67q0 -48 -47 -80q-30 -21 -68 -21q-21 0 -70 17q-45 15 -89 15q-70 0 -106 -35q-20 -21 -20 -43q0 -23 20 -37q22 -15 107 -36q128 -33 189 -85q55 -48 55 -125q0 -108 -84 -203q-108 -120 -333 -120q-104 0 -181 24q-108 35 -108 99q0 32 25 62
q35 42 88 42q27 0 120 -33q50 -18 102 -18q70 0 110 42q27 28 27 59q0 28 -25 44q-26 18 -139 49q-90 25 -124 44q-84 45 -84 133q0 132 112 221q115 92 290 92zM624 127l722 1181q31 54 56 72q27 20 65 20q36 0 58 -23q23 -23 23 -53t-36 -88l-723 -1182
q-31 -54 -55.5 -72.5t-64.5 -18.5q-37 0 -59 23t-22 53q0 29 36 88z" />
    <glyph glyph-name="afii61248" unicode="&#x2105;" horiz-adv-x="546" 
d="M325 883q67 0 107 -50q29 -37 29 -85q0 -74 -56 -135q-62 -68 -153 -68q-68 0 -107 51q-29 36 -29 84q0 74 55 135q62 68 154 68z" />
    <glyph glyph-name="uni2117" unicode="&#x2117;" horiz-adv-x="400" 
d="M371 1445q51 0 78 -37q17 -24 17 -54q0 -41 -28 -75q-45 -54 -114 -54q-51 0 -78 37q-17 23 -17 54q0 41 28 75q45 54 114 54zM101 663l84 392q25 125 128 125q44 0 68 -32q13 -18 13 -46q0 -16 -7 -47l-83 -392q-12 -54 -29 -78q-35 -47 -99 -47q-43 0 -67 29
q-15 19 -15 50q0 14 7 46z" />
    <glyph glyph-name="trademark" unicode="&#x2122;" horiz-adv-x="1610" 
d="M532 1195l-105 -495q-26 -124 -126 -124q-42 0 -65 29q-15 18 -15 49q0 13 7 46l105 495h-85q-101 0 -101 70q0 47 44 79q29 21 93 21h366q100 0 100 -69q0 -48 -44 -80q-29 -21 -93 -21h-81zM950 1018l-126 -334q-20 -53 -40 -74q-33 -34 -86 -34q-24 0 -42 10
q-38 21 -38 63q0 23 17 65l213 557q41 106 153 106q46 0 74 -24q27 -24 31 -56l49 -375l195 358q52 96 148 96q50 0 80 -30q30 -29 29 -67l-17 -563q-2 -72 -36 -105q-36 -35 -85 -35q-83 0 -83 86v22l14 333l-176 -333q-36 -68 -57 -84q-33 -25 -79 -25q-82 0 -93 88z" />
    <glyph glyph-name="uni2126" unicode="&#x2126;" horiz-adv-x="1365" 
d="M-78 0l50 233h284q-64 49 -103 99q-88 114 -88 264t61 304q95 239 296 372q192 126 421 126q269 0 410 -200q93 -131 93 -293q0 -171 -76 -338q-65 -144 -164 -229q-55 -48 -169 -105h283l-50 -233h-551l44 207q155 84 246 195q82 98 127 241q37 114 37 220
q0 141 -83 223q-79 79 -190 79q-187 0 -345 -194q-72 -90 -106 -218q-25 -97 -25 -195q0 -163 74 -255q38 -48 121 -96l-44 -207h-553z" />
    <glyph glyph-name="onethird" unicode="&#x2153;" horiz-adv-x="1846" 
d="M441 1189h-34q-51 0 -73 12q-33 17 -33 60q0 50 46 83q30 21 97 21h111q65 0 86 -18q28 -23 28 -58q0 -14 -7 -49l-123 -577q-12 -55 -30 -80q-37 -49 -102 -49q-45 0 -69 30q-16 19 -16 51q0 15 7 48zM487 127l722 1181q32 54 56 72q27 20 65 20q36 0 58 -23
q23 -23 23 -53t-35 -88l-724 -1182q-22 -39 -36 -54q-33 -37 -84 -37q-37 0 -59 23t-22 53q0 29 36 88zM1579 453q98 -64 98 -159q0 -55 -28 -116q-49 -104 -160 -157q-85 -41 -185 -41q-105 0 -172 48q-49 35 -75 92q-16 35 -16 69q0 53 47 86q34 24 74 24q39 0 59 -27
q6 -7 23 -51q22 -57 90 -57q61 0 99 45q28 32 28 73q0 55 -84 62q-91 8 -91 71q0 35 27 67q14 17 40 26q7 3 54 14q95 24 95 88q0 13 -5 21q-16 25 -54 25q-30 0 -63 -19q-9 -6 -43 -36q-52 -45 -103 -45q-40 0 -60 27q-15 19 -15 45q0 58 65 117q42 39 113 65q78 29 153 29
q101 0 165 -58q52 -48 52 -124q0 -131 -128 -204z" />
    <glyph glyph-name="twothirds" unicode="&#x2154;" horiz-adv-x="1846" 
d="M428 723h169q51 0 73 -12q33 -17 33 -60q0 -50 -46 -82q-30 -22 -97 -22h-370q-100 0 -100 69q0 37 50 95q41 48 100 99l162 131q106 86 148 142q25 33 25 64q0 20 -12 35q-17 21 -48 21q-66 0 -106 -77q-35 -68 -54 -83q-29 -23 -67 -23q-82 0 -82 74q0 38 25 89
q52 108 165 162q81 40 167 40q115 0 184 -75q48 -53 48 -125q0 -121 -108 -245q-76 -87 -166 -164q-41 -34 -93 -53zM487 127l722 1181q32 54 57 72q27 20 65 20q36 0 58 -23q23 -23 23 -53t-36 -88l-724 -1182q-31 -54 -55 -72.5t-64 -18.5q-37 0 -59 23t-22 53q0 29 35 88
zM1579 453q98 -64 98 -159q0 -55 -28 -116q-49 -104 -160 -157q-85 -41 -184 -41q-106 0 -173 48q-49 35 -75 92q-16 35 -16 69q0 53 47 86q34 24 74 24q39 0 59 -27q6 -7 23 -51q22 -57 91 -57q60 0 99 45q27 32 27 73q0 55 -84 62q-91 8 -91 71q0 36 27 67q14 17 40 26
q8 3 54 14q95 24 95 88q0 13 -5 21q-17 25 -54 25q-30 0 -63 -19q-9 -6 -43 -36q-52 -45 -103 -45q-39 0 -60 27q-15 19 -15 45q0 58 65 117q42 39 113 65q78 29 153 29q101 0 165 -58q52 -48 52 -124q0 -131 -128 -204z" />
    <glyph glyph-name="onefifth" unicode="&#x2155;" horiz-adv-x="1846" 
d="M441 1189h-34q-51 0 -73 12q-33 17 -33 60q0 50 46 83q30 21 97 21h111q65 0 86 -18q28 -23 28 -58q0 -14 -7 -49l-123 -577q-12 -55 -30 -80q-37 -49 -102 -49q-45 0 -69 30q-16 19 -16 51q0 15 7 48zM487 127l722 1181q32 54 56 72q27 20 65 20q36 0 58 -23
q23 -23 23 -53t-35 -88l-724 -1182q-22 -39 -36 -54q-33 -37 -84 -37q-37 0 -59 23t-22 53q0 29 36 88zM1425 643l-29 -88q44 11 78 11q115 0 174 -75q40 -52 40 -123q0 -145 -99 -259q-57 -67 -145 -101q-73 -28 -152 -28q-124 0 -210 66q-50 38 -50 83q0 31 21 60
q37 51 95 51q22 0 44 -11q6 -3 49 -30q38 -24 87 -24q66 0 111 64q29 40 29 90q0 75 -81 75q-34 0 -108 -31q-21 -9 -46 -9q-32 0 -53 20q-19 18 -19 40q0 14 10 44l87 256q32 95 118 95h283q106 0 106 -72q0 -50 -46 -83q-30 -21 -97 -21h-197z" />
    <glyph glyph-name="twofifth" unicode="&#x2156;" horiz-adv-x="1846" 
d="M428 723h169q51 0 73 -12q33 -17 33 -60q0 -50 -46 -82q-30 -22 -97 -22h-370q-100 0 -100 69q0 37 50 95q41 48 100 99l162 131q106 86 148 142q25 33 25 64q0 20 -12 35q-17 21 -48 21q-66 0 -106 -77q-35 -68 -54 -83q-29 -23 -67 -23q-82 0 -82 74q0 38 25 89
q52 108 165 162q81 40 167 40q115 0 184 -75q48 -53 48 -125q0 -121 -108 -245q-76 -87 -166 -164q-41 -34 -93 -53zM487 127l722 1181q32 54 57 72q27 20 65 20q36 0 58 -23q23 -23 23 -53t-36 -88l-724 -1182q-31 -54 -55 -72.5t-64 -18.5q-37 0 -59 23t-22 53q0 29 35 88
zM1426 643l-30 -88q45 11 78 11q115 0 173 -75q41 -53 41 -123q0 -72 -31 -148q-50 -122 -155 -184q-96 -56 -210 -56q-124 0 -210 66q-50 38 -50 83q0 31 21 60q37 51 96 51q21 0 43 -11q6 -3 49 -30q38 -24 87 -24q65 0 111 64q29 41 29 90q0 75 -81 75q-34 0 -108 -31
q-21 -9 -46 -9q-31 0 -52 20q-19 17 -19 40q0 17 9 44l87 256q32 95 119 95h282q106 0 106 -72q0 -50 -46 -83q-30 -21 -97 -21h-196z" />
    <glyph glyph-name="threefifth" unicode="&#x2157;" horiz-adv-x="1846" 
d="M646 999q98 -65 98 -159q0 -55 -28 -116q-49 -104 -160 -157q-85 -41 -185 -41q-105 0 -172 48q-49 35 -75 92q-16 35 -16 69q0 53 47 86q34 24 74 24q39 0 59 -27q5 -7 23 -51q22 -57 90 -57q61 0 99 45q28 33 28 73q0 55 -84 62q-91 8 -91 71q0 36 27 67q14 17 40 26
q9 3 54 14q95 24 95 88q0 22 -19 34q-17 12 -40 12q-44 0 -106 -54q-52 -46 -103 -46q-39 0 -60 27q-15 19 -15 45q0 57 65 117q42 39 113 65q78 29 153 29q101 0 165 -58q52 -48 52 -124q0 -131 -128 -204zM487 127l722 1181q31 54 56 72q27 20 65 20q36 0 58 -23
q23 -23 23 -53t-36 -88l-723 -1182q-31 -54 -55.5 -72.5t-64.5 -18.5q-37 0 -59 23q-23 24 -22 53q1 31 36 88zM1425 643l-29 -88q44 11 78 11q115 0 173 -75q41 -52 41 -123q0 -72 -31 -148q-50 -122 -155 -184q-96 -56 -210 -56q-124 0 -210 66q-50 38 -50 83q0 31 21 61
q37 50 96 50q21 0 43 -11q6 -3 49 -30q38 -24 87 -24q66 0 111 64q29 40 29 90q0 75 -81 75q-34 0 -108 -31q-21 -9 -47 -9q-31 0 -52 20q-19 18 -19 40q0 14 10 44l87 256q32 95 118 95h283q51 0 73 -12q33 -17 33 -60q0 -50 -46 -83q-30 -21 -97 -21h-197z" />
    <glyph glyph-name="fourfifth" unicode="&#x2158;" horiz-adv-x="1846" 
d="M437 719h-244q-95 0 -95 69q0 29 22 57l348 441q42 53 79 71q43 20 86 20q64 0 93 -43q20 -30 20 -73q0 -13 -3 -26l-72 -341h14q80 0 80 -70q0 -38 -34 -71q-33 -31 -95 -34l-16 -64q-11 -53 -29 -76q-34 -45 -96 -45q-41 0 -64 28q-15 18 -15 49q0 13 7 44zM474 894
l47 221l-171 -221h124zM487 127l722 1181q32 54 56 72q26 20 65 20q36 0 58 -23q23 -23 23 -53t-35 -88l-724 -1182q-31 -54 -55.5 -72.5t-64.5 -18.5q-37 0 -58 23q-23 24 -23 53t36 88zM1425 643l-29 -88q44 11 78 11q115 0 174 -75q40 -52 40 -123q0 -72 -31 -148
q-50 -122 -155 -184q-96 -56 -210 -56q-124 0 -210 66q-50 38 -50 83q0 31 21 60q37 51 95 51q22 0 44 -11q6 -3 49 -30q38 -24 87 -24q65 0 111 64q29 40 29 90q0 75 -81 75q-34 0 -108 -31q-21 -9 -46 -9q-32 0 -53 20q-19 18 -19 40q0 14 10 44l87 256q32 95 118 95h283
q51 0 73 -12q33 -17 33 -60q0 -50 -46 -83q-30 -21 -97 -21h-197z" />
    <glyph glyph-name="onesixth" unicode="&#x2159;" horiz-adv-x="1846" 
d="M441 1189h-34q-51 0 -73 12q-33 17 -33 60q0 50 46 83q30 21 97 21h111q65 0 86 -18q28 -23 28 -58q0 -14 -7 -49l-123 -577q-12 -55 -30 -80q-37 -49 -102 -49q-45 0 -69 30q-16 19 -16 51q0 15 7 48zM487 127l722 1181q32 54 56 72q27 20 65 20q36 0 58 -23
q23 -23 23 -53t-35 -88l-724 -1182q-22 -39 -36 -54q-33 -37 -84 -37q-37 0 -59 23t-22 53q0 29 36 88zM1438 528q25 6 51 6q99 0 161 -67q53 -59 53 -141q0 -131 -104 -236q-109 -110 -284 -110q-121 0 -192 65q-72 66 -72 165q0 111 97 265q72 114 155 194t179 140
q49 31 91 31q35 0 58 -21q25 -21 25 -52q0 -36 -41 -79q-9 -9 -69 -59q-34 -28 -108 -101zM1398 368q-56 0 -98 -47q-28 -32 -28 -69q0 -29 17 -49q24 -28 68 -28q55 0 97 47q29 32 29 69q0 30 -17 49q-25 28 -68 28z" />
    <glyph glyph-name="fivesixth" unicode="&#x215a;" horiz-adv-x="1846" 
d="M492 1189l-29 -88q43 11 78 11q115 0 173 -75q41 -52 41 -123q0 -66 -26.5 -136t-72.5 -123q-57 -66 -145 -101q-73 -28 -152 -28q-124 0 -210 66q-50 38 -50 83q0 31 21 61q36 50 95 50q22 0 44 -11q6 -3 49 -30q38 -24 87 -24q65 0 111 64q29 40 29 89q0 76 -81 76
q-34 0 -108 -31q-21 -9 -46 -9q-32 0 -53 20q-19 18 -19 40q0 15 10 44l87 256q32 95 118 95h283q51 0 73 -12q33 -17 33 -60q0 -50 -46 -83q-30 -21 -97 -21h-197zM487 127l722 1181q31 54 56 72q27 20 65 20q36 0 58 -23q23 -23 23 -53t-36 -88l-723 -1182
q-31 -54 -55.5 -72.5t-64.5 -18.5q-37 0 -59 23t-22 53q0 29 36 88zM1438 528q25 6 51 6q99 0 161 -67q53 -58 53 -141q0 -131 -104 -236q-109 -110 -284 -110q-120 0 -192 65q-72 66 -72 166q0 111 97 264q72 114 155 194t179 140q49 31 91 31q35 0 58 -21q25 -21 25 -52
q0 -36 -41 -79q-9 -9 -69 -59q-34 -28 -108 -101zM1398 368q-56 0 -97 -47q-29 -33 -29 -69q0 -29 17 -49q24 -28 68 -28q55 0 97 47q29 32 29 69q0 30 -17 49q-25 28 -68 28z" />
    <glyph glyph-name="oneeighth" unicode="&#x215b;" horiz-adv-x="1846" 
d="M441 1189h-34q-51 0 -73 12q-33 17 -33 60q0 50 46 83q30 21 97 21h111q65 0 86 -18q28 -23 28 -58q0 -14 -7 -49l-123 -577q-12 -55 -30 -80q-37 -49 -102 -49q-45 0 -69 30q-16 19 -16 51q0 15 7 48zM487 127l722 1181q32 54 56 72q27 20 65 20q36 0 58 -23
q23 -23 23 -53t-35 -88l-724 -1182q-22 -39 -36 -54q-33 -37 -84 -37q-37 0 -59 23t-22 53q0 29 36 88zM1615 450q79 -64 79 -150q0 -116 -91 -209q-53 -54 -137 -84q-78 -27 -159 -27q-144 0 -220 82q-52 55 -52 136q0 84 50 157q39 57 114 95q-48 53 -48 112q0 110 88 190
q96 88 250 88q117 0 182 -59q58 -51 58 -130q0 -60 -32 -117q-29 -52 -82 -84zM1456 673q-45 0 -77 -40q-21 -26 -21 -55q0 -25 15 -41q18 -20 46 -20q46 0 77 40q21 26 21 55q0 24 -15 41q-17 20 -46 20zM1393 377q-60 0 -103 -53q-28 -36 -28 -75q0 -32 20 -54
q24 -27 63 -27q60 0 103 53q28 36 28 75q0 32 -20 54q-24 27 -63 27z" />
    <glyph glyph-name="threeeighths" unicode="&#x215c;" horiz-adv-x="1846" 
d="M646 999q98 -65 98 -159q0 -55 -28 -116q-49 -104 -160 -157q-85 -41 -185 -41q-105 0 -172 48q-49 35 -75 92q-16 35 -16 69q0 53 47 86q34 24 74 24q39 0 59 -27q5 -7 23 -51q22 -57 90 -57q61 0 99 45q28 33 28 73q0 55 -84 62q-91 8 -91 71q0 36 27 67q14 17 40 26
q9 3 54 14q95 24 95 88q0 22 -19 34q-17 12 -40 12q-44 0 -106 -54q-52 -46 -103 -46q-39 0 -60 27q-15 19 -15 45q0 57 65 117q42 39 113 65q78 29 153 29q101 0 165 -58q52 -48 52 -124q0 -131 -128 -204zM487 127l722 1181q31 54 56 72q27 20 65 20q36 0 58 -23
q23 -23 23 -53t-36 -88l-723 -1182q-31 -54 -55.5 -72.5t-64.5 -18.5q-37 0 -59 23q-23 25 -22 53q1 31 36 88zM1615 450q79 -64 79 -150q0 -116 -91 -209q-54 -54 -137 -84q-78 -27 -158 -27q-145 0 -221 82q-52 55 -52 136q0 84 50 157q38 57 114 95q-48 53 -48 112
q0 110 88 190q96 88 250 88q117 0 182 -59q58 -51 58 -130q0 -60 -32 -117q-30 -52 -82 -84zM1456 673q-45 0 -77 -40q-21 -26 -21 -55q0 -25 15 -41q17 -20 47 -20q45 0 76 40q21 27 21 55q0 24 -15 41q-18 20 -46 20zM1394 377q-61 0 -103 -53q-29 -36 -29 -75
q0 -32 20 -55q24 -26 63 -26q61 0 103 53q29 36 29 75q0 32 -20 54q-24 27 -63 27z" />
    <glyph glyph-name="fiveeighths" unicode="&#x215d;" horiz-adv-x="1846" 
d="M492 1189l-29 -88q43 11 78 11q115 0 173 -75q41 -52 41 -123q0 -66 -26.5 -136t-72.5 -123q-57 -66 -145 -101q-73 -28 -152 -28q-124 0 -210 66q-50 38 -50 83q0 31 21 61q36 50 95 50q22 0 44 -11q6 -3 49 -30q38 -24 87 -24q65 0 111 64q29 40 29 89q0 76 -81 76
q-34 0 -108 -31q-21 -9 -46 -9q-32 0 -53 20q-19 18 -19 40q0 15 10 44l87 256q32 95 118 95h283q51 0 73 -12q33 -17 33 -60q0 -50 -46 -83q-30 -21 -97 -21h-197zM487 127l722 1181q31 54 56 72q27 20 65 20q36 0 58 -23q23 -23 23 -53t-36 -88l-723 -1182
q-31 -54 -55.5 -72.5t-64.5 -18.5q-37 0 -59 23t-22 53q0 29 36 88zM1615 450q79 -65 79 -150q0 -116 -91 -209q-53 -54 -137 -83q-78 -28 -159 -28q-144 0 -220 82q-52 55 -52 137t50 156q38 57 114 95q-48 53 -48 112q0 110 88 190q96 88 250 88q117 0 182 -59
q58 -51 58 -130q0 -59 -32 -117q-29 -52 -82 -84zM1456 673q-45 0 -77 -40q-21 -26 -21 -55q0 -25 15 -41q17 -20 46 -20q46 0 77 40q21 26 21 55q0 24 -15 41q-17 20 -46 20zM1393 377q-60 0 -103 -53q-28 -36 -28 -75q0 -32 20 -54q24 -27 63 -27q61 0 103 53q28 36 28 75
q0 32 -20 54q-24 27 -63 27z" />
    </font>
</defs>
</svg>
