<?xml version="1.0" standalone="no"?>
<!DOCTYPE svg PUBLIC "-//W3C//DTD SVG 1.1//EN" "http://www.w3.org/Graphics/SVG/1.1/DTD/svg11.dtd" >
<svg>
<metadata>
Created by FontForge 20090622 at Wed Feb  1 13:07:04 2017
 By deploy user
(URW)++,Copyright 2006 by (URW)++ Design &#38; Development
</metadata>
<defs>
<font id="VAGRundschriftD" horiz-adv-x="1024" >
  <font-face 
    font-family="VAGRundschriftD"
    font-weight="400"
    font-stretch="normal"
    units-per-em="2048"
    panose-1="0 0 0 0 0 0 0 0 0 0"
    ascent="1586"
    descent="-462"
    x-height="1039"
    cap-height="1385"
    bbox="-220 -521 2379 1896"
    underline-thickness="233"
    underline-position="-329"
    unicode-range="U+0020-U+FB04"
  />
<missing-glyph horiz-adv-x="512" 
d="M51 0v1365h410v-1365h-410zM410 51v1263h-308v-1263h308z" />
    <glyph glyph-name=".notdef" horiz-adv-x="512" 
d="M51 0v1365h410v-1365h-410zM410 51v1263h-308v-1263h308z" />
    <glyph glyph-name="glyph1" horiz-adv-x="0" 
 />
    <glyph glyph-name="glyph2" horiz-adv-x="512" 
 />
    <glyph glyph-name="space" unicode=" " horiz-adv-x="512" 
 />
    <glyph glyph-name="exclam" unicode="!" horiz-adv-x="525" 
d="M412 1199v-593q0 -86 -20 -126q-17 -33 -55 -55q-35 -20 -75 -20q-56 0 -101 38q-42 38 -48 110l-1 53v593q0 85 20 125q17 33 55 55q35 20 75 20q56 0 101 -38q42 -37 48 -110q1 -9 1 -52zM265 301q72 0 122 -55q43 -48 43 -112q0 -75 -55 -125q-48 -43 -112 -43
q-75 0 -125 55q-43 48 -43 114q0 72 56 123q47 43 114 43z" />
    <glyph glyph-name="quotedbl" unicode="&#x22;" horiz-adv-x="901" 
d="M124 1043v163q0 73 17 107q14 28 47 47q30 17 64 17q49 0 87 -33q36 -31 41 -93q1 -8 1 -45v-163q0 -72 -17 -107q-14 -28 -47 -47q-30 -17 -65 -17q-48 0 -86 33q-36 31 -41 94q-1 8 -1 44zM520 1043v163q0 73 17 107q14 28 47 47q30 17 64 17q49 0 87 -33
q36 -31 41 -93q1 -8 1 -45v-163q0 -72 -17 -107q-14 -28 -47 -47q-30 -17 -64 -17q-49 0 -87 33q-36 32 -41 94q-1 8 -1 44z" />
    <glyph glyph-name="numbersign" unicode="#" horiz-adv-x="1147" 
d="M558 926h230l73 179q25 62 71 62q24 0 42 -16q24 -19 24 -48q0 -17 -13 -48l-51 -129h100q88 0 88 -66q0 -67 -88 -67h-157l-91 -226h107q87 0 87 -65t-87 -65h-160l-73 -183q-25 -63 -70 -63q-24 0 -43 15q-23 20 -23 49q0 16 13 48l53 134h-227l-74 -183
q-26 -63 -71 -63q-25 0 -43 16q-24 20 -24 49q0 18 12 49l53 132h-104q-87 0 -87 65t87 65h160l92 226h-107q-88 0 -88 67q0 66 88 66h160l73 180q25 61 70 61q24 0 42 -15q23 -20 23 -48q0 -17 -13 -48zM507 793l-92 -226h229l91 226h-228z" />
    <glyph glyph-name="dollar" unicode="$" horiz-adv-x="1120" 
d="M661 1386q287 -47 287 -190q0 -68 -52 -115q-37 -33 -94 -33q-35 0 -130 31q-62 20 -107 20q-65 0 -107 -31q-48 -35 -48 -84q0 -35 28 -63q21 -22 96 -42q230 -62 326 -121q177 -108 177 -325q0 -172 -102 -290q-82 -95 -208 -132q-29 -8 -66 -17v-108q0 -57 -13 -83
q-25 -50 -86 -50q-62 0 -87 50q-13 26 -13 83v97q-122 10 -223 47q-159 59 -159 174q0 57 39 102q41 46 100 46q32 0 63 -11l108 -36q84 -29 158 -29q85 0 132 52q33 36 33 86q0 69 -65 103q-53 28 -188 65q-146 40 -195 66q-101 54 -148 156q-35 74 -35 158q0 173 127 298
q81 78 184 108q29 8 69 16v96q0 57 13 83q25 50 86 50q62 0 87 -50q13 -26 13 -83v-94z" />
    <glyph glyph-name="percent" unicode="%" horiz-adv-x="1639" 
d="M349 1401q107 0 192 -81q75 -71 106 -199q20 -79 20 -166q0 -167 -67 -290q-39 -69 -108 -114q-67 -42 -143 -42q-108 0 -193 81q-124 119 -124 370q0 170 66 285q40 71 108 114q66 42 143 42zM349 1213q-115 0 -115 -256t115 -256q116 0 116 256t-116 256zM1291 883
q107 0 192 -81q75 -71 106 -199q20 -79 20 -166q0 -167 -67 -290q-39 -69 -108 -114q-67 -42 -143 -42q-108 0 -193 81q-124 119 -124 370q0 170 66 285q40 71 108 114q66 42 143 42zM1291 695q-115 0 -115 -256t115 -256q116 0 116 256t-116 256zM494 127l471 1181
q20 51 42 71q24 21 61 21q35 0 62 -23q35 -28 35 -71q0 -25 -18 -70l-472 -1182q-21 -51 -43 -71t-59 -20q-36 0 -63 23q-34 28 -34 69q0 26 18 72z" />
    <glyph glyph-name="ampersand" unicode="&#x26;" horiz-adv-x="1371" 
d="M766 747l195 -210l114 121q42 44 97 44q52 0 89 -38q39 -39 39 -97q0 -46 -31 -90q-8 -11 -66 -75l-52 -59l86 -87q75 -77 75 -135q0 -61 -44 -104q-43 -42 -105 -42q-57 0 -133 79l-92 95q-86 -71 -146 -103q-146 -80 -298 -80q-182 0 -318 109q-142 113 -142 308
q0 148 95 264q66 80 192 165q-121 131 -121 277q0 99 72 179q66 73 187 108q79 23 167 23q186 0 302 -95q102 -85 102 -221q0 -119 -95 -220q-64 -69 -169 -116zM607 911q58 28 84 49q53 42 53 95q0 50 -44 82q-30 21 -72 21q-48 0 -79 -26q-35 -29 -35 -73q0 -40 35 -80z
M482 629q-68 -48 -99 -83q-49 -55 -49 -129t50 -122q56 -55 137 -55q75 0 162 53q25 16 72 50z" />
    <glyph glyph-name="quotesingle" unicode="'" horiz-adv-x="505" 
d="M124 1043v163q0 73 17 107q14 28 47 47q30 17 64 17q49 0 87 -33q36 -31 41 -93q1 -8 1 -45v-163q0 -72 -17 -107q-14 -28 -47 -47q-30 -17 -65 -17q-48 0 -86 33q-36 31 -41 94q-1 8 -1 44z" />
    <glyph glyph-name="parenleft" unicode="(" horiz-adv-x="587" 
d="M378 1420q50 0 86 -33q41 -37 41 -83q0 -25 -17 -71q-117 -327 -117 -687q0 -358 117 -686q17 -46 17 -71q0 -56 -54 -93q-32 -23 -73 -23q-53 0 -85 35q-48 50 -111 271q-41 145 -58 275t-17 306q0 288 75 554q63 221 111 271q33 35 85 35z" />
    <glyph glyph-name="parenright" unicode=")" horiz-adv-x="589" 
d="M209 1420q52 0 85 -35q47 -50 110 -271q41 -145 58 -275t17 -306q0 -290 -75 -554q-63 -221 -110 -271q-33 -35 -85 -35q-50 0 -87 33q-40 37 -40 83q0 25 16 71q117 327 117 687q0 238 -44 438q-24 111 -73 248q-16 47 -16 71q0 55 53 93q32 23 74 23z" />
    <glyph glyph-name="asterisk" unicode="*" horiz-adv-x="791" 
d="M481 1182l72 68q24 22 55 22q53 0 84 -43q25 -35 25 -74q0 -58 -53 -79l-100 -40l88 -32q70 -25 70 -89q0 -53 -36 -85q-32 -28 -69 -28q-32 0 -53 17l-83 68l13 -90q2 -11 2 -28q0 -55 -37 -81q-29 -20 -64 -20q-43 0 -73 27q-28 25 -28 74q0 17 2 28l13 90l-83 -68
q-21 -17 -53 -17q-45 0 -78 37q-27 30 -27 76q0 64 70 89l88 32l-100 40q-53 21 -53 79q0 46 33 83q30 34 76 34q31 0 55 -22l72 -68l-10 97q-2 23 -2 38q0 38 27 60q26 22 71 22q52 0 78 -28q20 -22 20 -54q0 -15 -2 -38z" />
    <glyph glyph-name="plus" unicode="+" horiz-adv-x="1092" 
d="M451 595h-256q-54 0 -79 13q-48 24 -48 82t48 82q25 13 79 13h256v270q0 54 13 79q24 47 82 47t82 -47q13 -25 13 -79v-270h256q54 0 80 -13q47 -24 47 -82t-47 -82q-25 -13 -80 -13h-256v-270q0 -54 -13 -79q-24 -48 -82 -48t-82 48q-13 25 -13 79v270z" />
    <glyph glyph-name="comma" unicode="," horiz-adv-x="547" 
d="M45 -89l184 320q39 68 119 68q66 0 107 -49q38 -44 38 -93q0 -33 -18 -64l-178 -320q-40 -72 -121 -72q-70 0 -113 48q-37 42 -37 94q0 35 19 68z" />
    <glyph glyph-name="hyphen" unicode="-" horiz-adv-x="505" 
d="M171 694h163q73 0 107 -17q28 -14 47 -47q17 -30 17 -64q0 -49 -33 -87q-31 -36 -93 -41l-45 -1h-163q-72 0 -107 17q-28 14 -47 47q-17 30 -17 65q0 48 33 86q31 36 93 41q9 1 45 1z" />
    <glyph glyph-name="period" unicode="." horiz-adv-x="546" 
d="M276 301q72 0 122 -55q43 -48 43 -112q0 -75 -55 -125q-48 -43 -112 -43q-75 0 -125 55q-43 48 -43 114q0 72 56 123q47 43 114 43z" />
    <glyph glyph-name="slash" unicode="/" horiz-adv-x="916" 
d="M852 1215l-585 -1413q-25 -59 -47 -78q-23 -20 -58 -20q-36 0 -63 23q-33 29 -33 68q0 27 22 81l586 1413q17 42 29 59q27 38 75 38q36 0 63 -23q33 -28 33 -68q0 -27 -22 -80z" />
    <glyph glyph-name="zero" unicode="0" horiz-adv-x="1201" 
d="M599 1399q124 0 240 -78q134 -90 206 -279q61 -164 61 -359q0 -232 -84 -412q-79 -172 -218 -249q-101 -56 -204 -56q-124 0 -240 76q-263 174 -263 651q0 353 168 546q70 80 170 124q83 36 164 36zM603 1093q-72 0 -122 -81q-63 -103 -63 -324q0 -252 75 -353
q47 -63 110 -63q68 0 117 87q32 56 50 154q15 82 15 170q0 119 -28 224q-49 186 -154 186z" />
    <glyph glyph-name="one" unicode="1" horiz-adv-x="724" 
d="M248 1089h-65q-77 0 -114 19q-30 15 -50 50q-19 32 -19 69q0 52 35 93q34 39 101 44l47 1h176q75 0 107 -11q36 -13 65 -51q28 -38 28 -138v-978q0 -88 -21 -129q-17 -34 -57 -57q-36 -21 -77 -21q-59 0 -105 40q-44 38 -50 113q-1 10 -1 54v902z" />
    <glyph glyph-name="two" unicode="2" horiz-adv-x="1065" 
d="M525 276h296q78 0 115 -18q30 -16 51 -51q18 -32 18 -69q0 -52 -35 -93q-34 -39 -101 -44l-48 -1h-588q-72 0 -103 17q-71 37 -71 114q0 40 19 70q21 36 65 82l243 275q169 194 217 272q52 86 52 150q0 60 -42 99q-36 35 -89 35q-113 0 -150 -137q-30 -110 -55 -136
q-35 -38 -94 -38q-73 0 -114 52q-31 38 -31 101q0 128 79 243q77 111 202 164q86 36 180 36q185 0 314 -123q121 -116 121 -289q0 -128 -67 -253q-49 -91 -226 -291q-74 -85 -158 -167z" />
    <glyph glyph-name="three" unicode="3" horiz-adv-x="1133" 
d="M818 754q76 -42 112 -75q115 -110 115 -270q0 -203 -153 -331q-134 -112 -330 -112q-164 0 -286 78q-89 57 -146 151q-49 80 -49 148q0 59 47 101q43 39 101 39q59 0 97 -42q10 -11 51 -83q32 -54 85 -81q42 -22 87 -22q79 0 131 53q44 46 44 122q0 75 -46 114
q-39 32 -123 39q-78 7 -111 33q-49 40 -49 106q0 59 35 93q18 18 49 27q17 6 67 20q130 35 130 135q0 63 -49 93q-34 22 -76 22q-82 0 -161 -89q-45 -51 -73 -65q-30 -16 -62 -16q-62 0 -101 48q-32 39 -32 88q0 70 49 140q56 80 170 131q110 50 222 50q167 0 281 -95
q126 -104 126 -272q0 -126 -74 -211q-17 -19 -78 -67z" />
    <glyph glyph-name="four" unicode="4" horiz-adv-x="1092" 
d="M591 294h-397q-77 0 -120 33q-46 35 -46 96q0 35 17 67l403 746q80 149 223 149q98 0 154 -67q57 -68 57 -162v-589h33q60 0 94 -28q49 -40 49 -104q0 -61 -50 -104q-43 -37 -108 -37h-18v-120q0 -83 -19 -121q-16 -32 -54 -54q-34 -19 -72 -19q-55 0 -98 37
q-42 36 -47 106l-1 51v120zM591 567v430l-226 -430h226z" />
    <glyph glyph-name="five" unicode="5" horiz-adv-x="1092" 
d="M501 1089l-19 -175q76 21 135 21q181 0 294 -122q111 -120 111 -319q0 -225 -128 -369q-142 -159 -373 -159q-194 0 -350 109q-103 71 -103 160q0 65 47 111q38 38 93 38q31 0 68 -18q11 -5 87 -51q70 -42 154 -42q87 0 139 71q45 62 45 148q0 91 -51 145q-45 47 -120 47
q-39 0 -78 -13q-9 -3 -85 -40q-30 -15 -66 -15q-47 0 -85 31q-42 34 -42 89q0 16 3 43l52 435q8 73 46 111q41 40 99 40h449q78 0 115 -19q30 -15 51 -50q18 -32 18 -69q0 -52 -35 -93q-34 -39 -101 -44l-48 -1h-322z" />
    <glyph glyph-name="six" unicode="6" horiz-adv-x="1092" 
d="M540 863q61 19 110 19q155 0 271 -109q135 -127 135 -325q0 -144 -74 -263q-72 -117 -202 -174q-102 -45 -222 -45q-189 0 -323 107q-94 75 -139 188q-33 84 -33 172q0 183 103 388q86 172 316 440q68 80 109 109q40 29 89 29q55 0 99 -38q47 -40 47 -97q0 -49 -39 -104
q-10 -14 -88 -97q-49 -54 -159 -200zM559 624q-73 0 -124 -51q-51 -52 -51 -122q0 -74 51 -126t125 -52q72 0 124 52q51 51 51 124q0 74 -51 124q-53 51 -125 51z" />
    <glyph glyph-name="seven" unicode="7" horiz-adv-x="1010" 
d="M599 1089h-388q-78 0 -115 19q-30 15 -50 50q-19 32 -19 69q0 52 35 93q34 39 101 44q9 1 48 1h581q83 0 125 -43q45 -46 45 -114q0 -31 -25 -89l-445 -1016q-32 -75 -70 -102q-38 -28 -88 -28q-59 0 -106 39q-54 46 -54 105q0 43 16 78z" />
    <glyph glyph-name="eight" unicode="8" horiz-adv-x="1120" 
d="M872 750q94 -63 136 -131q55 -90 55 -207q0 -189 -131 -312q-70 -66 -174 -101q-96 -33 -198 -33q-148 0 -272 64q-126 66 -186 187q-45 90 -45 196q0 116 55 206q42 68 136 131q-64 59 -89 104q-40 72 -40 162q0 178 136 287q120 96 305 96t305 -96q136 -109 136 -287
q0 -104 -53 -183q-22 -33 -76 -83zM562 1134q-63 0 -105 -46q-36 -39 -36 -91q0 -63 46 -104q40 -36 93 -36q62 0 103 46q36 39 36 93q0 60 -46 102q-39 36 -91 36zM563 632q-83 0 -138 -60q-47 -52 -47 -120q0 -83 60 -137q52 -47 122 -47q81 0 135 60q47 52 47 122
q0 80 -60 135q-52 47 -119 47z" />
    <glyph glyph-name="nine" unicode="9" horiz-adv-x="1092" 
d="M566 502q-62 -19 -110 -19q-155 0 -271 109q-135 127 -135 325q0 144 74 263q72 117 202 174q102 45 222 45q189 0 323 -107q94 -75 139 -188q33 -84 33 -172q0 -183 -103 -388q-87 -172 -316 -440q-68 -80 -110 -109q-40 -29 -89 -29q-55 0 -99 38q-47 40 -47 97
q0 49 39 104q10 14 88 98q50 53 160 199zM546 1092q-72 0 -124 -51q-51 -52 -51 -125q0 -72 51 -124q52 -51 125 -51t124 51q51 53 51 122q0 76 -51 127q-53 51 -125 51z" />
    <glyph glyph-name="colon" unicode=":" horiz-adv-x="546" 
d="M276 894q71 0 122 -55q43 -48 43 -112q0 -75 -56 -125q-48 -43 -112 -43q-74 0 -124 55q-43 48 -43 114q0 72 55 123q48 43 115 43zM276 301q72 0 122 -55q43 -48 43 -112q0 -75 -55 -125q-48 -43 -112 -43q-75 0 -125 55q-43 48 -43 114q0 72 56 123q47 43 114 43z" />
    <glyph glyph-name="semicolon" unicode=";" horiz-adv-x="547" 
d="M323 895q72 0 122 -55q43 -48 43 -112q0 -75 -55 -125q-48 -43 -112 -43q-75 0 -125 55q-43 48 -43 114q0 72 56 123q47 43 114 43zM45 -89l184 320q39 68 119 68q66 0 107 -49q38 -44 38 -93q0 -33 -18 -64l-178 -320q-40 -72 -121 -72q-70 0 -113 48q-37 42 -37 94
q0 35 19 68z" />
    <glyph glyph-name="less" unicode="&#x3c;" 
d="M955 1256v-257l-613 -303l613 -303v-256l-887 451v218z" />
    <glyph glyph-name="equal" unicode="=" horiz-adv-x="1092" 
d="M888 772h-693q-54 0 -79 13q-48 24 -48 82t48 82q24 13 79 13h702q54 0 79 -13q48 -23 48 -82q0 -58 -47 -82q-26 -13 -89 -13zM888 431h-693q-54 0 -79 13q-48 24 -48 82t48 82q24 13 79 13h702q54 0 79 -13q48 -24 48 -82t-47 -82q-26 -13 -89 -13z" />
    <glyph glyph-name="greater" unicode="&#x3e;" 
d="M68 136v257l613 303l-613 303v256l887 -451v-218z" />
    <glyph glyph-name="question" unicode="?" horiz-adv-x="988" 
d="M465 301q71 0 122 -55q43 -48 43 -112q0 -75 -55 -125q-48 -43 -112 -43q-75 0 -125 55q-43 48 -43 114q0 72 56 123q47 43 114 43zM614 566q1 -12 1 -17q0 -60 -20 -100q-17 -33 -55 -55q-35 -20 -75 -20q-57 0 -101 38q-43 38 -49 110q-1 9 -1 52v97q0 60 25 88
q22 24 51 32q19 5 53 10q172 29 172 158q0 70 -55 106q-43 28 -94 28q-86 0 -155 -94q-35 -48 -55 -62q-35 -24 -79 -24q-62 0 -104 44q-39 39 -39 99q0 121 116 224q134 119 326 119q135 0 252 -61q123 -64 182 -180q44 -86 44 -193q0 -185 -136 -302q-81 -70 -204 -97z
" />
    <glyph glyph-name="at" unicode="@" horiz-adv-x="1595" 
d="M896 387q-42 -45 -72 -62q-51 -28 -118 -28q-121 0 -205 83q-94 94 -94 247q0 180 105 302q126 147 286 147q72 0 121 -34q23 -15 53 -52q44 81 118 81q42 0 70 -30q25 -27 25 -64q0 -11 -1 -17l-55 -448q-3 -25 -3 -31q0 -22 29 -22q50 0 96 68q77 112 77 261
q0 202 -141 327q-133 119 -343 119q-237 0 -396 -161q-164 -167 -164 -405q0 -178 97 -321q112 -167 310 -201q95 -17 190 -17q55 0 114 9q54 9 167 44q34 10 64 10q36 0 61 -26q20 -20 20 -47q0 -73 -111 -108q-135 -43 -338 -43q-274 0 -447 117q-143 97 -223 256
q-79 156 -79 329q0 206 110 386q105 173 283 262q152 77 333 77q266 0 447 -155q104 -89 157 -217q47 -111 47 -234q0 -211 -120 -357q-115 -139 -322 -139q-78 0 -115 35q-17 16 -33 59zM800 874q-90 0 -139 -85q-36 -60 -36 -137q0 -61 26 -101q35 -52 104 -52
q83 0 138 83q37 55 37 143q0 63 -31 102q-37 47 -99 47z" />
    <glyph glyph-name="A" unicode="A" horiz-adv-x="1243" 
d="M884 261h-525l-33 -119q-23 -84 -56 -121q-40 -45 -103 -45q-53 0 -97 32q-63 45 -63 120q0 37 26 108l357 981q63 175 232 175q168 0 231 -175l357 -981q26 -71 26 -109q0 -84 -77 -129q-39 -22 -83 -22q-64 0 -103 45q-33 37 -56 121zM789 541l-165 519l-166 -519h331z
" />
    <glyph glyph-name="B" unicode="B" horiz-adv-x="1163" 
d="M833 754q112 -34 171 -86q111 -99 111 -261q0 -156 -102 -270q-123 -137 -316 -137h-374q-86 0 -123 13q-40 15 -72 57q-29 38 -33 103v55v910q0 63 4 89q12 65 66 106q44 32 120 32h38h274q130 0 205 -35q102 -49 154 -147q39 -72 39 -159q0 -127 -78 -207
q-26 -28 -84 -63zM409 273h216q71 0 100 18q65 41 65 125q0 151 -173 151h-208v-294zM409 847h157q61 0 98 38q34 35 34 91q0 52 -40 83q-43 33 -106 33h-143v-245z" />
    <glyph glyph-name="C" unicode="C" horiz-adv-x="1171" 
d="M712 1399q139 0 250 -42q157 -59 157 -178q0 -53 -30 -93q-35 -45 -98 -45q-36 0 -114 31q-85 34 -164 34q-141 0 -227 -85q-118 -117 -118 -342t116 -334q91 -85 231 -85q59 0 86 7.5t132 54.5q37 16 69 16q56 0 94 -47q34 -40 34 -95q0 -94 -97 -152q-130 -78 -317 -78
q-289 0 -473 176q-210 202 -210 546q0 167 64 323q81 198 280 307q148 81 335 81z" />
    <glyph glyph-name="D" unicode="D" horiz-adv-x="1304" 
d="M95 233v905q0 63 4 89q12 65 66 106q44 32 120 32h38h256q269 0 438 -124q130 -95 194 -255q58 -147 58 -311q0 -228 -103 -395q-99 -161 -274 -232q-123 -50 -266 -48l-306 5q-85 1 -121 14q-41 15 -72 57q-28 38 -32 102v55zM409 273h156q171 0 260 91q109 112 109 320
q0 213 -124 324q-60 54 -137 70q-65 14 -144 14h-120v-819z" />
    <glyph glyph-name="E" unicode="E" horiz-adv-x="943" 
d="M409 1085v-260h261q80 0 117 -19q31 -15 51 -51q19 -33 19 -70q0 -38 -19.5 -72t-50.5 -49q-37 -19 -117 -19h-261v-265h293q79 0 116 -19q31 -15 51 -51q19 -33 19 -70q0 -53 -36 -94q-34 -40 -101 -45q-9 -1 -49 -1h-379q-86 0 -123 13q-40 15 -72 57q-29 38 -33 103
v55v909q0 64 4 90q11 64 66 106q44 32 120 32h38h379q79 0 116 -19q31 -15 51 -51q19 -33 19 -70q0 -53 -36 -94q-34 -40 -101 -45q-9 -1 -49 -1h-293z" />
    <glyph glyph-name="F" unicode="F" horiz-adv-x="935" 
d="M409 1085v-271h248q79 0 116 -19q31 -15 51 -51q19 -33 19 -70q0 -38 -19.5 -72t-50.5 -49q-37 -19 -116 -19h-248v-345q0 -89 -21 -131q-17 -34 -57 -57q-37 -21 -79 -21q-59 0 -105 40q-45 39 -51 114l-1 55v948q0 64 4 90q11 64 66 106q44 32 120 32h38h384
q80 0 117 -19q31 -15 51 -51q19 -33 19 -70q0 -53 -36 -94q-34 -40 -102 -45l-49 -1h-298z" />
    <glyph glyph-name="G" unicode="G" horiz-adv-x="1372" 
d="M1016 528h-151q-79 0 -117 19q-31 15 -51 51q-19 33 -19 70q0 38 20 72t50 49q37 19 117 19h305q80 0 118 -37q50 -48 50 -160q0 -272 -178 -461q-173 -184 -448 -184q-315 0 -506 218q-172 195 -172 491q0 314 194 517q199 207 506 207q206 0 374 -99q138 -81 138 -184
q0 -55 -41 -96q-43 -43 -97 -43q-37 0 -89 27q-11 6 -101 63q-34 21 -94 38q-53 14 -104 14q-149 0 -245 -112q-106 -124 -106 -325q0 -213 115 -338q89 -98 242 -98q145 0 223 104q46 61 67 178z" />
    <glyph glyph-name="H" unicode="H" horiz-adv-x="1399" 
d="M989 560h-580v-371q0 -89 -21 -131q-17 -34 -57 -57q-37 -21 -79 -21q-59 0 -105 40q-45 39 -51 114l-1 55v987q0 89 21 131q18 34 58 57q36 21 78 21q59 0 105 -40q45 -39 51 -114q1 -10 1 -55v-336h580v336q0 89 21 131q18 34 58 57q36 21 78 21q59 0 105 -40
q45 -39 51 -114q1 -10 1 -55v-987q0 -89 -21 -131q-17 -34 -57 -57q-37 -21 -79 -21q-59 0 -105 40q-45 39 -51 114l-1 55v371z" />
    <glyph glyph-name="I" unicode="I" horiz-adv-x="504" 
d="M95 189v987q0 89 21 131q18 34 58 57q36 21 78 21q59 0 105 -40q45 -39 51 -114q1 -10 1 -55v-987q0 -89 -21 -131q-17 -34 -57 -57q-37 -21 -79 -21q-59 0 -105 40q-45 39 -51 114z" />
    <glyph glyph-name="J" unicode="J" horiz-adv-x="830" 
d="M735 1176v-742q0 -152 -31 -240q-45 -127 -158 -183q-92 -45 -212 -45q-156 0 -267 68q-94 59 -94 147q0 64 47 109q39 38 101 38q39 0 98 -34q60 -35 96 -35q106 0 106 175v742q0 89 21 131q18 34 57 57q37 21 79 21q59 0 105 -40q45 -39 51 -114q1 -10 1 -55z" />
    <glyph glyph-name="K" unicode="K" horiz-adv-x="1229" 
d="M409 613v-424q0 -89 -21 -131q-17 -34 -57 -57q-37 -21 -79 -21q-59 0 -105 40q-45 39 -51 114l-1 55v987q0 89 21 131q18 34 58 57q36 21 78 21q59 0 105 -40q45 -39 51 -114q1 -10 1 -55v-349l403 452q44 48 66 65q53 42 105 42q60 0 106 -46q40 -40 40 -106
q0 -59 -41 -111q-11 -15 -52 -56l-329 -334l416 -441q44 -47 60 -70q28 -43 28 -95q0 -70 -43 -111q-40 -37 -103 -37q-65 0 -119 48q-14 12 -53 55z" />
    <glyph glyph-name="L" unicode="L" horiz-adv-x="848" 
d="M409 280h293q79 0 116 -19q31 -15 51 -51q19 -33 19 -70q0 -53 -36 -94q-34 -40 -101 -45q-9 -1 -49 -1h-370q-89 0 -127 14q-43 15 -76 59q-30 39 -34 107v57v939q0 89 21 131q18 34 58 57q36 21 78 21q59 0 105 -40q45 -39 51 -114l1 -55v-896z" />
    <glyph glyph-name="M" unicode="M" horiz-adv-x="1667" 
d="M445 807l-102 -643q-14 -88 -41 -126q-41 -58 -122 -58q-55 0 -99 35q-56 45 -56 124q0 22 9 75l162 993q14 85 61 126q61 53 149 53q74 0 128 -40q48 -35 67 -94l230 -703l211 673q25 80 85 124q53 39 122 39q79 0 140 -50q55 -47 66 -113l175 -1005q10 -56 10 -80
q0 -75 -55 -121q-45 -36 -101 -36q-80 0 -123 58q-28 37 -42 126l-105 643l-193 -642q-22 -71 -34 -97.5t-30 -44.5q-45 -43 -120 -43q-66 0 -110 36q-39 30 -65 112z" />
    <glyph glyph-name="N" unicode="N" horiz-adv-x="1394" 
d="M409 827v-638q0 -89 -21 -131q-17 -34 -57 -57q-37 -21 -79 -21q-59 0 -105 40q-45 39 -51 114l-1 55v1036q0 69 41 115q41 45 115 45t129 -69l604 -759v619q0 89 21 131q18 34 57 57q37 21 79 21q59 0 105 -40q45 -39 51 -114q1 -10 1 -55v-1017q0 -67 -18 -98
q-46 -81 -132 -81q-57 0 -99 38q-12 10 -62 75z" />
    <glyph glyph-name="O" unicode="O" horiz-adv-x="1418" 
d="M709 1399q207 0 374 -106q171 -109 247 -302q54 -139 54 -307q0 -350 -225 -555q-179 -163 -446 -163q-304 0 -493 201q-186 198 -186 528q0 144 49 284q78 219 298 339q147 81 328 81zM711 1119q-143 0 -241 -109q-101 -114 -101 -313q0 -207 94 -331q42 -56 111 -89
q65 -31 139 -31q138 0 225 96q111 124 111 342q0 211 -101 328q-40 47 -100 76q-65 31 -137 31z" />
    <glyph glyph-name="P" unicode="P" horiz-adv-x="1131" 
d="M416 448v-259q0 -89 -21 -131q-17 -34 -57 -57q-37 -21 -79 -21q-59 0 -105 40q-45 39 -51 114l-1 55v949q0 63 4 89q12 65 66 106q44 32 120 32h38h282q228 0 349 -114q68 -64 106 -158q37 -92 37 -189q0 -181 -105 -311q-118 -145 -345 -145h-238zM416 721h159
q100 0 156 56q52 52 52 127q0 82 -53 137q-51 51 -139 51h-175v-371z" />
    <glyph glyph-name="Q" unicode="Q" horiz-adv-x="1494" 
d="M1051 45q-158 -79 -331 -79q-277 0 -465 171q-114 105 -169 253q-52 141 -52 296q0 328 205 529q189 184 475 184q285 0 473 -189q202 -203 202 -530q0 -149 -46 -281q-23 -67 -81 -160l82 -68q46 -38 62 -61q27 -37 27 -79q0 -54 -35 -95q-44 -51 -110 -51
q-52 0 -130 68zM811 264l-54 50q-41 38 -41 96q0 64 55 109q38 31 81 31q52 0 112 -53l46 -39q44 107 44 235q0 202 -104 322q-91 104 -237 104q-141 0 -231 -97q-113 -121 -113 -335q0 -178 75 -295q93 -146 276 -146q45 0 91 18z" />
    <glyph glyph-name="R" unicode="R" horiz-adv-x="1164" 
d="M409 556v-367q0 -89 -21 -131q-17 -34 -57 -57q-37 -21 -79 -21q-59 0 -105 40q-45 39 -51 114l-1 55v949q0 63 4 89q12 65 66 106q44 32 120 32h38h278q209 0 337 -106q142 -118 142 -317q0 -174 -106 -276q-58 -56 -135 -79q-34 -10 -79 -20l266 -294q75 -83 75 -142
q0 -70 -55 -117q-43 -37 -103 -37q-54 0 -101 43q-15 13 -49 55zM409 774h195q78 0 124 46q45 45 45 107q0 76 -59 125q-48 40 -117 40h-188v-318z" />
    <glyph glyph-name="S" unicode="S" horiz-adv-x="1094" 
d="M568 1399q165 0 286 -65q90 -49 90 -136q0 -65 -47 -110q-37 -35 -92 -35q-30 0 -51 7l-57 21q-72 25 -140 25q-76 0 -124 -40q-33 -28 -33 -72q0 -50 42 -79q37 -25 86 -38l83 -22q201 -54 305 -141q124 -103 124 -290t-116 -313q-135 -145 -405 -145q-200 0 -347 71
q-117 58 -117 160q0 62 42 108q39 41 94 41q39 0 79 -15l108 -41q79 -30 155 -30q82 0 129 42q43 40 43 101q0 65 -53 98q-46 30 -218 81q-140 42 -198 74q-171 94 -171 309q0 139 81 247q77 103 213 152q95 35 209 35z" />
    <glyph glyph-name="T" unicode="T" horiz-adv-x="993" 
d="M657 1085v-896q0 -89 -21 -131q-17 -34 -57 -57q-37 -21 -79 -21q-59 0 -105 40q-45 39 -51 114l-1 55v896h-156q-79 0 -117 19q-31 15 -51 51q-19 33 -19 70q0 53 36 94q35 40 102 45q9 1 49 1h619q80 0 117 -19q31 -15 51 -51q19 -33 19 -70q0 -53 -36 -94
q-34 -40 -102 -45q-9 -1 -49 -1h-149z" />
    <glyph glyph-name="U" unicode="U" horiz-adv-x="1352" 
d="M1270 1176v-577q0 -194 -41 -290q-72 -167 -239 -262q-144 -81 -316 -81q-178 0 -327 88q-163 96 -228 261q-37 92 -37 203v658q0 89 21 131q18 34 58 57q36 21 78 21q59 0 105 -40q45 -39 51 -114q1 -10 1 -55v-613q0 -133 64 -210q35 -42 96 -68q57 -26 120 -26
q94 0 170 55q74 53 97 146q13 53 13 139v577q0 89 21 131q18 34 57 57q37 21 79 21q59 0 105 -40q45 -39 51 -114q1 -10 1 -55z" />
    <glyph glyph-name="V" unicode="V" horiz-adv-x="1223" 
d="M611 524l267 710q30 82 66 116q39 37 97 37q57 0 103 -37q57 -46 57 -115q0 -39 -30 -114l-405 -1020q-28 -72 -59 -97q-41 -32 -99 -32q-101 0 -144 107l-413 1042q-30 74 -30 114q0 79 71 125q41 27 89 27q58 0 97 -37q36 -34 66 -116z" />
    <glyph glyph-name="W" unicode="W" horiz-adv-x="1773" 
d="M885 797l-192 -630q-35 -114 -101 -155q-53 -33 -125 -33q-71 0 -127 43q-53 40 -67 97l-251 1031q-16 61 -16 92q0 62 46 106q45 42 106 42q71 0 112 -48q30 -36 49 -120l166 -721l234 743q44 141 166 141q60 0 103 -33q39 -30 64 -108l236 -743l161 717q20 86 50 122
q41 50 113 50q62 0 107 -43q47 -43 47 -109q0 -30 -15 -91l-239 -996q-19 -79 -72 -125q-52 -46 -135 -46q-77 0 -128 38q-54 40 -84 133z" />
    <glyph glyph-name="X" unicode="X" horiz-adv-x="1252" 
d="M804 733l346 -459q64 -85 64 -144q0 -52 -41 -98q-46 -54 -119 -54q-61 0 -111 50q-14 14 -47 59l-274 379l-268 -377q-37 -52 -61 -73q-44 -37 -97 -37q-81 0 -129 66q-31 43 -31 85q0 58 64 144l343 459l-279 367q-59 78 -62 135q-2 52 40 100q45 51 116 51
q60 0 108 -48q14 -14 45 -57l211 -288l196 281q37 53 60 74q43 38 100 38q81 0 128 -64q32 -43 32 -92q0 -55 -63 -138z" />
    <glyph glyph-name="Y" unicode="Y" horiz-adv-x="1179" 
d="M738 644v-455q0 -89 -21 -131q-17 -34 -57 -57q-37 -21 -79 -21q-59 0 -105 40q-45 39 -51 114q-1 10 -1 55v455l-329 451q-61 84 -61 136q0 58 42 104q46 50 117 50q62 0 111 -51q14 -15 45 -60l232 -331l244 335q38 52 61 72q42 36 96 36q82 0 128 -66q31 -43 31 -85
q0 -59 -63 -142z" />
    <glyph glyph-name="Z" unicode="Z" horiz-adv-x="1069" 
d="M405 280h478q79 0 116 -19q31 -15 51 -51q19 -33 19 -70q0 -53 -36 -94q-34 -40 -102 -45q-8 -1 -48 -1h-684q-79 0 -114 22q-85 53 -85 135q0 44 28 93q6 10 45 60l582 775h-442q-80 0 -117 19q-31 15 -51 51q-19 33 -19 70q0 53 36 94q34 40 102 45l49 1h648
q73 0 108 -23q76 -50 76 -137q0 -61 -44 -120z" />
    <glyph glyph-name="bracketleft" unicode="[" horiz-adv-x="607" 
d="M388 1186v-1273h57q63 0 93 -14q24 -12 41 -39q15 -25 15 -53q0 -41 -29 -72q-32 -35 -120 -35h-126q-68 0 -98 10q-54 18 -73 70q-11 28 -11 93v1353q0 65 11 93q19 52 73 70q30 10 98 10h126q63 0 93 -14q24 -12 41 -39q15 -25 15 -53q0 -40 -29 -72q-32 -35 -120 -35
h-57z" />
    <glyph glyph-name="backslash" unicode="\" horiz-adv-x="916" 
d="M673 -198l-585 1413q-22 53 -22 80q0 46 41 74q25 17 55 17q53 0 82 -49q7 -11 22 -48l586 -1413q22 -54 22 -81q0 -46 -41 -74q-25 -17 -55 -17q-35 0 -58 20q-23 19 -47 78z" />
    <glyph glyph-name="bracketright" unicode="]" horiz-adv-x="607" 
d="M220 -87v1273h-57q-63 0 -93 15q-24 11 -41 39q-15 24 -15 53q0 40 29 71q32 35 120 35h126q68 0 98 -10q54 -18 73 -70q11 -28 11 -93v-1353q0 -65 -11 -93q-19 -52 -73 -70q-30 -10 -98 -10h-126q-63 0 -93 14q-24 12 -40 38t-16 55q0 40 29 71q32 35 120 35h57z" />
    <glyph glyph-name="asciicircum" unicode="^" 
d="M283 689h-271l330 684h340l331 -684h-272l-229 477z" />
    <glyph glyph-name="underscore" unicode="_" 
d="M0 -96h1024v-233h-1024v233z" />
    <glyph glyph-name="grave" unicode="`" 
d="M552 1169l-303 124q-77 32 -77 100q0 46 35 79q27 24 66 24q21 0 38 -7l309 -126q45 -19 60 -37q22 -27 22 -62q0 -49 -38 -82q-26 -21 -66 -21q-28 0 -46 8z" />
    <glyph glyph-name="a" unicode="a" horiz-adv-x="1148" 
d="M758 105q-51 -62 -90 -86q-65 -39 -159 -39q-167 0 -297 115q-178 157 -178 429q0 242 157 398q138 136 314 136q100 0 174 -46q32 -21 82 -72q25 59 56 82q41 30 93 30q58 0 103 -42q46 -44 46 -112v-735q0 -83 -46 -132q-42 -45 -105 -45q-105 0 -150 119zM542 778
q-94 0 -152 -72q-56 -72 -56 -184q0 -117 56 -189q58 -73 153 -73q83 0 142 65q66 73 66 196t-64 192q-60 65 -145 65z" />
    <glyph glyph-name="b" unicode="b" horiz-adv-x="1133" 
d="M388 970q63 47 106 63q67 26 137 26q186 0 325 -151q142 -154 142 -385q0 -255 -159 -414q-128 -129 -305 -129q-103 0 -177 46q-34 22 -73 73q-46 -113 -142 -113q-59 0 -104 38q-50 44 -50 122v1156q0 85 20 125q17 33 55 55q35 20 75 20q56 0 101 -38q42 -37 48 -110
q1 -9 1 -52v-332zM594 779q-86 0 -148 -73q-60 -72 -60 -183q0 -118 60 -190q62 -73 149 -73q92 0 148 78q55 78 55 182t-55 180q-57 79 -149 79z" />
    <glyph glyph-name="c" unicode="c" horiz-adv-x="936" 
d="M549 1059q147 0 260 -61q41 -23 66 -68q18 -31 18 -69q0 -59 -40 -102q-32 -34 -79 -34q-29 0 -109 30q-63 24 -108 24q-89 0 -154 -66q-69 -72 -69 -195q0 -125 69 -195q64 -64 160 -64q58 0 121 29q55 26 86 26q59 0 94 -46q31 -41 31 -90q0 -68 -58 -111
q-53 -41 -134.5 -64.5t-166.5 -23.5q-221 0 -365 156q-137 149 -137 387q0 256 157 399q76 69 177 105q91 33 181 33z" />
    <glyph glyph-name="d" unicode="d" horiz-adv-x="1134" 
d="M746 963v339q0 85 20 125q17 33 55 55q35 20 75 20q56 0 101 -38q42 -37 48 -110l1 -52v-1144q0 -85 -47 -132q-39 -40 -103 -40q-66 0 -104 40q-22 23 -42 79q-45 -62 -96 -88q-73 -37 -163 -37q-213 0 -344 188q-113 164 -113 358q0 168 93 315q76 121 204 178
q89 40 171 40q129 0 244 -96zM543 794q-86 0 -148 -73q-60 -72 -60 -183q0 -118 60 -190q62 -73 149 -73q92 0 148 78q55 78 55 182q0 105 -55 180q-57 79 -149 79z" />
    <glyph glyph-name="e" unicode="e" horiz-adv-x="1082" 
d="M358 419q32 -88 89 -130q63 -47 149 -47q64 0 129 26q17 7 119 57q31 15 67 15q54 0 90 -47q30 -38 30 -76q0 -85 -121 -154q-145 -83 -329 -83q-275 0 -433 191q-114 138 -114 332q0 263 169 420q146 135 346 135q175 0 311 -108q131 -105 174 -285q15 -64 15 -127
q0 -119 -131 -119h-560zM753 624q-19 73 -44 109q-54 79 -152 79q-84 0 -143 -61q-38 -40 -67 -127h406z" />
    <glyph glyph-name="f" unicode="f" horiz-adv-x="730" 
d="M495 765v-578q0 -86 -20 -126q-16 -32 -53 -53.5t-77 -21.5q-56 0 -100 39q-43 37 -49 109q-1 10 -1 53v578h-13q-77 0 -114 18q-30 15 -50 50q-18 32 -18 68q0 51 35 92q33 39 99 44q9 1 48 1h13v140q0 149 99 236q91 80 228 80q81 0 128 -36q46 -36 46 -102
q0 -52 -27 -87q-31 -40 -90 -44q-47 -2 -63 -18q-21 -19 -21 -63v-106h53q77 0 114 -19q30 -15 50 -49q18 -32 18 -69q0 -51 -35 -91q-34 -39 -100 -45h-47h-53z" />
    <glyph glyph-name="g" unicode="g" horiz-adv-x="1126" 
d="M748 940q33 63 63 85q37 27 82 27q61 0 103 -44q42 -45 42 -121v-794q0 -232 -125 -368q-142 -153 -408 -153q-203 0 -360 86q-92 50 -92 135q0 57 42 93q42 38 95 38q26 0 49 -8l85 -29q104 -35 185 -35q151 0 205 99q25 47 34 165q-57 -71 -101 -98q-63 -38 -151 -38
q-127 0 -237 68q-126 78 -183 226q-42 109 -42 237q0 266 165 424q130 124 300 124q97 0 169 -48q32 -21 80 -71zM536 779q-79 0 -134 -57q-67 -71 -67 -202q0 -123 60 -192q59 -68 144 -68q84 0 139 64q64 75 64 194q0 126 -70 202q-55 59 -136 59z" />
    <glyph glyph-name="h" unicode="h" horiz-adv-x="1120" 
d="M388 971q144 87 276 87q159 0 265 -100q67 -63 88 -145q14 -58 14 -136v-490q0 -86 -20 -126q-17 -32 -55 -55q-35 -20 -75 -20q-56 0 -100 39q-43 37 -49 109l-1 53v405q0 97 -42 148q-49 59 -126 59q-81 0 -133 -62q-42 -50 -42 -125v-425q0 -85 -20 -126
q-17 -33 -55 -55q-35 -20 -75 -20q-56 0 -101 39q-42 37 -48 109q-1 10 -1 53v1115q0 85 20 125q17 33 55 55q35 20 75 20q56 0 101 -38q42 -37 48 -110q1 -9 1 -52v-331z" />
    <glyph glyph-name="i" unicode="i" horiz-adv-x="526" 
d="M267 1501q75 0 127 -58q45 -50 45 -117q0 -78 -58 -130q-50 -45 -117 -45q-78 0 -130 58q-45 50 -45 118q0 76 58 129q49 45 120 45zM111 187v664q0 85 20 126q17 33 55 55q35 20 75 20q56 0 101 -38q42 -37 48 -110l1 -53v-664q0 -86 -20 -126q-16 -32 -55 -55
q-35 -20 -75 -20q-56 0 -101 39q-42 37 -48 109z" />
    <glyph glyph-name="j" unicode="j" horiz-adv-x="529" 
d="M268 1501q75 0 127 -58q45 -50 45 -117q0 -78 -58 -130q-50 -45 -117 -45q-78 0 -130 58q-45 50 -45 118q0 76 58 129q49 45 120 45zM123 -223v1074q0 85 20 126q17 33 55 55q35 20 75 20q57 0 101 -38q42 -37 48 -110q1 -10 1 -53v-1074q0 -85 -20 -125q-17 -33 -55 -55
q-35 -20 -75 -20q-56 0 -100 38q-43 38 -49 110z" />
    <glyph glyph-name="k" unicode="k" horiz-adv-x="1041" 
d="M388 493v-306q0 -85 -20 -126q-17 -33 -55 -55q-35 -20 -75 -20q-56 0 -101 39q-42 37 -48 109q-1 10 -1 53v1115q0 85 20 125q17 33 55 55q35 20 75 20q56 0 101 -38q42 -37 48 -110q1 -9 1 -52v-605l276 283q77 79 138 79t104 -44q43 -43 43 -106q0 -58 -81 -135
l-188 -180l263 -327q65 -80 65 -133q0 -71 -57 -117q-41 -32 -96 -32q-53 0 -100 43q-14 13 -46 54z" />
    <glyph glyph-name="l" unicode="l" horiz-adv-x="477" 
d="M388 1302v-1115q0 -86 -20 -126q-17 -33 -55 -55q-35 -20 -75 -20q-56 0 -100 39q-43 37 -49 109l-1 53v1115q0 85 20 125q17 33 55 55q35 20 75 20q57 0 101 -38q42 -37 48 -110q1 -9 1 -52z" />
    <glyph glyph-name="m" unicode="m" horiz-adv-x="1703" 
d="M382 954q53 47 97 68q75 36 169 36q117 0 205 -50q39 -22 83 -81q75 61 128 88q88 43 189 43q156 0 258 -99q103 -101 103 -248v-524q0 -86 -20 -126q-17 -32 -55 -55q-35 -20 -75 -20q-56 0 -100 39q-43 37 -49 109l-1 53v457q0 66 -40 107q-45 48 -114 48
q-70 0 -117 -47q-42 -41 -42 -108v-457q0 -85 -20 -126q-17 -33 -55 -55q-35 -20 -75 -20q-56 0 -100 39q-43 37 -49 109l-1 53v427q0 91 -43 138t-113 47q-69 0 -117 -49q-40 -42 -40 -106v-457q0 -85 -20 -126q-17 -33 -55 -55q-35 -20 -75 -20q-56 0 -101 39
q-42 37 -48 109q-1 10 -1 53v692q0 76 38 122q42 51 110 51q58 0 99 -39q19 -17 47 -59z" />
    <glyph glyph-name="n" unicode="n" horiz-adv-x="1116" 
d="M380 947q65 60 117 82q71 29 161 29q157 0 260 -91q71 -62 92 -136q17 -58 17 -152v-492q0 -86 -20 -126q-16 -32 -55 -55q-35 -20 -75 -20q-56 0 -101 39q-42 37 -48 109l-1 53v421q0 86 -43 135q-49 56 -126 56q-80 0 -129 -60q-41 -51 -41 -118v-434q0 -85 -20 -126
q-17 -33 -55 -55q-35 -20 -75 -20q-56 0 -101 39q-42 37 -48 109q-1 10 -1 53v688q0 83 42 129q44 48 111 48q56 0 94 -33q25 -21 45 -72z" />
    <glyph glyph-name="o" unicode="o" horiz-adv-x="1078" 
d="M539 1058q140 0 266 -79q124 -78 186 -212q51 -112 51 -248q0 -227 -134 -375q-75 -83 -182 -126q-92 -38 -186 -38q-143 0 -268 78q-124 78 -186 213q-51 112 -51 255q0 150 68 275q70 129 208 200q109 57 228 57zM534 778q-90 0 -151 -85q-50 -69 -50 -171
q0 -108 50 -178q60 -84 151 -84q81 0 142 64q70 72 70 195q0 122 -70 195q-60 64 -142 64z" />
    <glyph glyph-name="p" unicode="p" horiz-adv-x="1126" 
d="M378 938q55 61 104 85q73 36 163 36q162 0 282 -116q164 -160 164 -414q0 -234 -136 -397q-128 -152 -328 -152q-79 0 -144 28q-36 15 -95 60v-291q0 -85 -20 -125q-17 -33 -55 -55q-35 -20 -75 -20q-56 0 -101 38q-42 38 -48 110q-1 9 -1 52v1097q0 79 35 127
q38 51 110 51q49 0 84 -25q32 -23 61 -89zM582 779q-85 0 -138 -63q-65 -76 -65 -193q0 -124 65 -200q53 -63 138 -63q93 0 149 77q59 80 59 183q0 104 -59 182q-58 77 -149 77z" />
    <glyph glyph-name="q" unicode="q" horiz-adv-x="1129" 
d="M744 947q37 60 67 80q37 25 81 25q57 0 98 -36q50 -43 50 -115v-1124q0 -85 -20 -125q-17 -33 -55 -55q-35 -20 -75 -20q-56 0 -101 38q-42 38 -48 110q-1 9 -1 52v294q-118 -92 -242 -92q-109 0 -226 69q-126 74 -188 217q-50 116 -50 246q0 223 132 386q67 83 161 125
q78 36 162 36q90 0 166 -39q38 -20 89 -72zM541 778q-90 0 -146 -73q-60 -77 -60 -183q0 -113 59 -190q56 -73 147 -73q67 0 122 45q87 69 87 215q0 106 -52 178q-24 33 -62 55q-46 26 -95 26z" />
    <glyph glyph-name="r" unicode="r" horiz-adv-x="748" 
d="M388 945q59 59 96 81q56 33 111 33q66 0 112 -49q42 -44 42 -107q0 -55 -36 -85q-29 -25 -117 -53q-106 -34 -160 -76q-29 -23 -39 -51q-9 -26 -9 -73v-378q0 -85 -20 -126q-17 -33 -55 -55q-35 -20 -75 -20q-56 0 -101 39q-42 37 -48 109q-1 10 -1 53v693q0 79 37 121
q45 51 113 51q101 0 150 -107z" />
    <glyph glyph-name="s" unicode="s" horiz-adv-x="892" 
d="M473 1059q150 0 256 -74q85 -59 85 -132q0 -51 -40 -96q-31 -36 -77 -36q-28 0 -55 11q-11 4 -71 31q-68 30 -115 30q-44 0 -66 -21q-13 -12 -13 -32q0 -32 34 -52q26 -15 123 -53q118 -46 163 -77q140 -93 140 -241q0 -94 -53 -178q-55 -85 -158 -126q-85 -33 -186 -33
q-167 0 -294 81q-91 57 -91 137q0 56 46 101q35 33 79 33q33 0 64 -13q6 -2 91 -41q72 -32 121 -32q43 0 69 26q18 19 18 43q0 22 -15 37q-21 22 -100 51q-179 67 -241 113q-101 75 -101 217q0 122 87 209q118 117 300 117z" />
    <glyph glyph-name="t" unicode="t" horiz-adv-x="725" 
d="M487 765v-578q0 -85 -20 -126q-17 -33 -53.5 -54t-76.5 -21q-56 0 -101 39q-42 37 -48 109q-1 10 -1 53v578q-113 -1 -152 45q-35 41 -35 91q0 61 45 102q37 35 142 35v154q0 85 20 125q17 33 55 55q35 20 75 20q57 0 101 -38q42 -37 48 -109l1 -53v-154h56q77 0 114 -18
q30 -15 50 -50q18 -32 18 -68q0 -52 -35 -92q-34 -39 -100 -44q-8 -1 -47 -1h-56z" />
    <glyph glyph-name="u" unicode="u" horiz-adv-x="1111" 
d="M1022 851v-446q0 -153 -73 -248q-62 -80 -160 -126q-110 -52 -234 -52q-174 0 -305 93q-102 72 -138 172q-24 68 -24 161v446q0 85 20 126q17 33 55 55q35 20 75 20q57 0 101 -38q42 -37 48 -110l1 -53v-409q0 -63 20 -95q51 -82 147 -82q70 0 119 48q48 46 48 129v409
q0 86 20 126q17 33 55 55q35 20 75 20q57 0 101 -38q42 -37 48 -110q1 -10 1 -53z" />
    <glyph glyph-name="v" unicode="v" horiz-adv-x="1005" 
d="M497 448l152 450q29 85 62 118q40 38 103 38q54 0 97 -34q58 -46 58 -116q0 -39 -29 -112l-257 -641q-33 -81 -62 -115q-44 -50 -118 -50q-121 0 -179 144l-266 665q-29 73 -29 112q0 79 71 123q37 24 83 24q62 0 101 -38q33 -33 61 -116z" />
    <glyph glyph-name="w" unicode="w" horiz-adv-x="1526" 
d="M1064 452l132 445q25 84 57 117q39 41 104 41q50 0 90 -29q61 -45 61 -118q0 -36 -23 -104l-212 -605q-32 -93 -57 -128q-58 -85 -150 -85q-62 0 -106 39q-39 34 -69 121l-128 376l-105 -323q-34 -106 -70 -152q-49 -61 -129 -61q-128 0 -184 160l-232 661
q-24 69 -24 104q0 81 74 124q35 20 76 20q64 0 103 -41q31 -33 56 -115l134 -449l146 465q24 75 59 104q39 33 100 33q106 0 149 -137z" />
    <glyph glyph-name="x" unicode="x" horiz-adv-x="1072" 
d="M722 544l240 -267q74 -83 74 -140q0 -70 -53 -116q-44 -38 -103 -38q-50 0 -98 41q-16 15 -48 54l-192 236l-195 -235q-40 -49 -65 -67q-40 -29 -85 -29q-59 0 -103 39q-53 47 -53 119q0 59 77 141l244 262l-196 213q-77 82 -77 142q0 71 54 117q44 38 103 38
q54 0 102 -43q15 -13 48 -56l146 -184l148 181q40 50 65 68q40 29 85 29q60 0 105 -40q52 -47 52 -118q0 -60 -80 -143z" />
    <glyph glyph-name="y" unicode="y" horiz-adv-x="1018" 
d="M506 466l176 442q32 82 66 112q38 33 95 33t100 -36q53 -45 53 -110q0 -41 -31 -114l-458 -1092q-24 -57 -41 -81q-43 -58 -117 -58q-56 0 -99 37q-51 44 -51 106q0 41 31 113l118 277l-297 702q-30 72 -30 113q0 72 65 117q38 26 86 26q56 0 93 -32q33 -30 65 -110z" />
    <glyph glyph-name="z" unicode="z" horiz-adv-x="919" 
d="M442 273h295q77 0 114 -18q30 -15 50 -50q18 -32 18 -68q0 -52 -35 -92q-34 -39 -100 -44q-8 -1 -47 -1h-581q-82 0 -119 28q-36 29 -36 75q0 42 35 90l419 573h-269q-78 0 -114 18q-30 15 -50 50q-18 32 -18 69q0 51 35 91q33 39 99 44l48 1h580q49 0 83 -29
q40 -33 40 -80t-42 -104z" />
    <glyph glyph-name="braceleft" unicode="{" horiz-adv-x="667" 
d="M337 550q58 -37 80 -71q40 -61 40 -176v-244q0 -87 13 -116q12 -25 73 -31q70 -6 95 -34q29 -32 29 -72q0 -46 -37 -80q-27 -25 -118 -25q-102 0 -154 17q-105 36 -137 131q-18 54 -18 133v304q0 72 -17 106q-10 22 -27 34l-37 25q-19 12 -25 22q-15 22 -15 70
q0 67 28 97q5 5 44 30q49 32 49 145v303q0 163 84 227q53 40 132 50q34 4 98 4q91 0 121 -34q29 -32 29 -71q0 -47 -37 -80q-22 -20 -87 -26q-61 -6 -73 -31q-13 -29 -13 -116v-244q0 -82 -19 -133q-23 -63 -101 -114z" />
    <glyph glyph-name="bar" unicode="|" 
d="M382 1365h259v-1706h-259v1706z" />
    <glyph glyph-name="braceright" unicode="}" horiz-adv-x="667" 
d="M330 550q-58 38 -80 72q-40 60 -40 175v244q0 87 -13 116q-12 25 -73 31q-70 6 -95 34q-29 32 -29 72q0 46 37 80q27 25 119 25q101 0 153 -17q105 -35 137 -131q18 -54 18 -133v-303q0 -73 17 -107q10 -21 27 -34l37 -25q19 -12 25 -21q15 -23 15 -71q0 -67 -28 -97
q-5 -5 -43 -30q-50 -32 -50 -144v-304q0 -163 -84 -227q-53 -40 -132 -50q-34 -4 -98 -4q-91 0 -121 34q-29 32 -29 71q0 47 37 80q22 21 87 27q61 5 73 30q13 29 13 116v244q0 82 19 133q22 63 101 114z" />
    <glyph glyph-name="asciitilde" unicode="~" horiz-adv-x="1365" 
d="M328 1150l-143 93q10 23 16 35q36 83 58 115q88 133 236 133q67 0 212 -53q97 -36 119 -41q33 -8 60 -8q61 0 101 39q19 19 47 66l147 -85q-41 -86 -67 -125q-99 -146 -257 -146q-54 0 -208 55q-132 48 -170 48q-53 0 -92 -35q-22 -20 -59 -91z" />
    <glyph glyph-name="uni00A0" unicode="&#xa0;" horiz-adv-x="512" 
 />
    <glyph glyph-name="exclamdown" unicode="&#xa1;" horiz-adv-x="525" 
d="M265 1399q71 0 121 -55q43 -48 43 -112q0 -75 -55 -124q-48 -43 -112 -43q-74 0 -124 55q-43 48 -43 113q0 72 55 123q47 43 115 43zM412 760v-594q0 -85 -20 -125q-17 -33 -55 -55q-35 -20 -75 -20q-56 0 -101 38q-42 38 -48 110l-1 52v594q0 85 20 125q17 33 55 55
q35 20 75 20q57 0 101 -38q42 -38 48 -110q1 -10 1 -52z" />
    <glyph glyph-name="cent" unicode="&#xa2;" horiz-adv-x="1010" 
d="M687 1216q256 -52 256 -196q0 -56 -37 -97q-38 -41 -87 -41q-24 0 -116 34q-47 18 -109 18q-91 0 -150 -62q-70 -73 -70 -196q0 -119 68 -188q66 -67 161 -67q53 0 172 45q20 8 44 8q49 0 85 -44q35 -42 35 -92q0 -65 -44 -106q-45 -43 -122 -66q-38 -11 -86 -23v-72
q0 -58 -14 -86q-25 -51 -88 -51t-89 51q-14 28 -14 86v72q-151 30 -252 126q-162 153 -162 405q0 165 74 298q85 152 233 212q40 17 107 32v62q0 58 14 85q26 51 89 51t88 -51q14 -27 14 -85v-62z" />
    <glyph glyph-name="sterling" unicode="&#xa3;" horiz-adv-x="1256" 
d="M559 289h477q82 0 121 -19q31 -16 53 -53q19 -34 19 -72q0 -55 -37 -97q-36 -42 -106 -47l-50 -1h-706q-89 0 -139 52q-37 38 -37 98q0 44 15 75q8 15 33 46q67 84 88 150q11 32 23 124h-92q-83 0 -122 20q-32 16 -53 53q-20 34 -20 73q0 55 37 98q36 42 107 47l51 1h29
q-37 97 -37 176q0 114 74 208t215 142q104 36 225 36q203 0 350 -99q71 -48 113 -120q32 -54 32 -115q0 -69 -50 -112q-51 -44 -114 -44q-49 0 -90 35q-19 16 -51 66q-41 63 -87 85q-49 24 -104 24q-85 0 -131 -53q-38 -43 -38 -100q0 -43 44 -129h116q83 0 122 -20
q32 -16 53 -53q20 -34 20 -73t-20.5 -74.5t-52.5 -51.5q-39 -20 -122 -20h-79v-14q0 -90 -79 -242z" />
    <glyph glyph-name="currency" unicode="&#xa4;" horiz-adv-x="1256" 
d="M877 1101l11 11q61 61 107 61q48 0 82 -34t34 -84q0 -45 -61 -106l-9 -9q73 -121 73 -257q0 -131 -68 -249q65 -63 65 -111t-34 -82t-84 -34q-44 0 -108 63q-123 -73 -256 -73q-136 0 -257 74q-62 -65 -111 -65q-48 0 -82 34t-34 85q0 46 66 110q-68 117 -68 248
q0 134 73 256l-10 10q-61 61 -61 108q0 48 34 82t85 34q43 0 104 -61l11 -11q119 67 249 67q134 0 249 -67zM632 936q-109 0 -183 -74t-74 -180q0 -104 74 -178q75 -75 180 -75q104 0 179 75q74 74 74 179q0 107 -74 179q-76 74 -176 74z" />
    <glyph glyph-name="yen" unicode="&#xa5;" horiz-adv-x="1092" 
d="M392 422h-201q-116 0 -116 88q0 87 116 87h193l-62 112h-131q-116 0 -116 88q0 87 116 87h34l-137 246q-30 55 -30 119q0 68 65 112q38 26 85 26q56 0 93 -32q34 -29 54 -79q12 -30 12 -31l168 -361h15l168 358q1 2 13 32q44 113 149 113q56 0 99 -36q53 -45 53 -105
q0 -34 -17 -88q-6 -19 -13 -31l-136 -243h33q116 0 116 -87q0 -88 -116 -88h-131l-62 -112h193q116 0 116 -87q0 -88 -116 -88h-207v-235q0 -86 -20 -126q-17 -32 -55 -55q-35 -20 -75 -20q-56 0 -100 39q-43 37 -49 109q-1 10 -1 53v235z" />
    <glyph glyph-name="brokenbar" unicode="&#xa6;" 
d="M382 1365h259v-708h-259v708zM382 314h259v-655h-259v655z" />
    <glyph glyph-name="section" unicode="&#xa7;" horiz-adv-x="1092" 
d="M198 827q-66 77 -66 194q0 194 162 297q119 75 278 75q168 0 289 -70q75 -44 75 -115q0 -60 -48 -98q-32 -26 -77 -26q-30 0 -104 29q-73 29 -134 29q-64 0 -104 -28q-34 -24 -34 -67q0 -46 36 -76q33 -27 78 -42l78 -27q182 -64 280 -149q57 -49 85 -131q19 -54 19 -113
q0 -156 -107 -251q28 -47 38 -72q20 -52 20 -117q0 -174 -120 -283q-116 -106 -331 -106q-199 0 -349 78q-99 52 -99 136q0 57 43 96q35 31 80 31q37 0 77 -17l96 -40q79 -33 151 -33q65 0 104 30q45 35 45 95q0 57 -45 91q-35 27 -81 45l-121 47q-192 74 -257 140
q-72 74 -72 203q0 159 115 245zM392 729q-44 -41 -44 -104q0 -60 37 -96q40 -40 165 -88q96 -37 161 -65q35 53 35 103q0 74 -51 116q-48 41 -136 76q-18 7 -95 33z" />
    <glyph glyph-name="dieresis" unicode="&#xa8;" 
d="M293 1472q63 0 108 -50q39 -42 39 -100q0 -67 -50 -112q-42 -38 -100 -38q-67 0 -112 50q-38 42 -38 101q0 65 50 110q42 39 103 39zM737 1472q63 0 108 -50q39 -42 39 -100q0 -67 -50 -112q-42 -38 -100 -38q-67 0 -112 50q-38 42 -38 101q0 65 50 110q42 39 103 39z
" />
    <glyph glyph-name="copyright" unicode="&#xa9;" horiz-adv-x="1638" 
d="M868 1098q146 0 212 -58q35 -30 35 -73q0 -32 -20 -56q-22 -28 -62 -28q-23 0 -70 18q-49 19 -95 19q-80 0 -128 -46q-68 -63 -68 -188q0 -122 66 -181q52 -46 132 -46q45 0 71 11l55 23q23 10 44 10q36 0 60 -28q22 -25 22 -59q0 -56 -61 -91q-79 -44 -190 -44
q-174 0 -284 100q-126 116 -126 311q0 135 66 236q61 93 171 138q77 32 170 32zM831 1396q191 0 360 -105q170 -106 260 -284q78 -153 78 -325q0 -200 -104 -372q-104 -171 -281 -262q-152 -79 -323 -79q-198 0 -369 104q-172 104 -264 285q-79 154 -79 324q0 202 105 376
q103 169 286 262q151 76 331 76zM828 1257q-236 0 -401 -166q-165 -167 -165 -409q0 -238 166 -407q164 -167 392 -167q230 0 393 169q163 168 163 405q0 162 -82 301q-80 136 -220 211q-117 63 -246 63z" />
    <glyph glyph-name="ordfeminine" unicode="&#xaa;" horiz-adv-x="791" 
d="M510 603q-28 -32 -51 -45q-43 -24 -104 -24q-107 0 -191 69q-115 95 -115 259q0 146 101 240q89 82 203 82q89 0 159 -65q31 61 96 61q40 0 69 -26q32 -28 32 -71v-434q0 -52 -31 -83q-29 -28 -71 -28q-68 0 -97 65zM376 1005q-56 0 -90 -40t-34 -104q0 -68 34 -108
t91 -40q49 0 84 36q40 42 40 109q0 72 -38 111q-36 36 -87 36z" />
    <glyph glyph-name="guillemotleft" unicode="&#xab;" horiz-adv-x="1174" 
d="M333 555l196 -201q41 -43 41 -96q0 -60 -43 -100q-34 -31 -78 -31q-67 0 -112 61l-173 239q-51 70 -51 128t51 128l173 239q45 61 112 61q52 0 88 -41q33 -38 33 -90q0 -53 -41 -96zM824 555l196 -201q42 -43 42 -96q0 -60 -43 -100q-34 -31 -79 -31q-67 0 -111 61
l-173 239q-51 70 -51 128t51 128l173 239q44 61 111 61q53 0 89 -41q33 -38 33 -90q0 -53 -42 -96z" />
    <glyph glyph-name="logicalnot" unicode="&#xac;" 
d="M696 0v304h-628v242h887v-546h-259z" />
    <glyph glyph-name="uni00AD" unicode="&#xad;" horiz-adv-x="505" 
d="M171 694h163q73 0 107 -17q28 -14 47 -47q17 -30 17 -64q0 -49 -33 -87q-31 -36 -93 -41l-45 -1h-163q-72 0 -107 17q-28 14 -47 47q-17 30 -17 65q0 48 33 86q31 36 93 41q9 1 45 1z" />
    <glyph glyph-name="registered" unicode="&#xae;" horiz-adv-x="1638" 
d="M729 600v-186q0 -125 -99 -125q-61 0 -87 48q-13 25 -13 77v530q0 50 8 71q16 42 59 56q23 8 74 8h164q125 0 204 -61q86 -67 86 -183q0 -174 -183 -214l149 -156q46 -48 46 -84q0 -42 -35 -71q-27 -22 -65 -22q-45 0 -93 57zM729 748h108q44 0 69 24q24 23 24 55
q0 39 -32 64q-27 21 -65 21h-104v-164zM831 1396q191 0 360 -105q170 -106 260 -284q78 -153 78 -325q0 -200 -104 -372q-104 -171 -281 -262q-152 -79 -323 -79q-198 0 -369 104q-172 104 -264 285q-79 154 -79 324q0 202 105 376q103 169 286 262q151 76 331 76zM828 1257
q-236 0 -401 -166q-165 -167 -165 -409q0 -238 166 -407q164 -167 392 -167q230 0 393 169q163 168 163 405q0 162 -82 301q-80 136 -220 211q-117 63 -246 63z" />
    <glyph glyph-name="macron" unicode="&#xaf;" 
d="M294 1411h436q58 0 86 -14q51 -25 51 -88t-51 -89q-28 -14 -86 -14h-436q-58 0 -86 14q-51 26 -51 89q0 38 26 68q29 34 111 34z" />
    <glyph glyph-name="degree" unicode="&#xb0;" horiz-adv-x="846" 
d="M423 1365q130 0 222 -90t92 -218t-91 -218q-92 -92 -223 -92t-223 92q-91 90 -91 222q0 126 91 213q95 91 223 91zM423 1213q-66 0 -113 -46q-46 -46 -46 -108q0 -68 46 -113q47 -47 113 -47q65 0 113 47q46 45 46 110q0 66 -47 111q-48 46 -112 46z" />
    <glyph glyph-name="plusminus" unicode="&#xb1;" horiz-adv-x="1092" 
d="M451 690h-256q-54 0 -79 13q-48 24 -48 82t48 82q24 13 79 13h256v270q0 54 13 79q24 47 82 47t82 -47q13 -25 13 -79v-270h256q54 0 80 -13q47 -24 47 -82t-47 -82q-25 -13 -80 -13h-256v-229q0 -54 -13 -79q-24 -48 -82 -48t-82 48q-13 25 -13 79v229zM888 61h-693
q-54 0 -79 13q-48 24 -48 82t48 82q24 13 79 13h702q54 0 79 -13q48 -24 48 -82t-47 -82q-26 -13 -89 -13z" />
    <glyph glyph-name="twosuperior" unicode="&#xb2;" horiz-adv-x="797" 
d="M411 723h169q123 0 123 -88t-123 -88h-370q-63 0 -91 27q-25 24 -25 57q0 39 55 94q15 15 152 162q105 111 136 160q32 48 32 84q0 32 -24 53q-21 19 -51 19q-66 0 -89 -76q-20 -67 -36 -83q-25 -24 -64 -24q-49 0 -77 33q-21 25 -21 64q0 120 105 203q83 65 192 65
q118 0 203 -74q78 -69 78 -176q0 -76 -43 -152q-55 -97 -231 -260z" />
    <glyph glyph-name="threesuperior" unicode="&#xb3;" horiz-adv-x="797" 
d="M570 999q137 -74 137 -205q0 -123 -99 -200q-86 -68 -212 -68q-106 0 -184 47q-57 35 -94 91q-32 49 -32 92q0 37 32 65q29 24 68 24q40 0 66 -26q7 -7 33 -51q36 -58 102 -58q47 0 78 29q26 25 26 67q0 75 -100 84q-107 10 -107 89q0 38 24 60q15 13 76 29q76 19 76 74
q0 32 -28 48q-20 12 -44 12q-48 0 -96 -50q-47 -50 -89 -50t-69 30q-22 25 -22 57q0 71 69 124q93 72 215 72q105 0 182 -57q81 -62 81 -166q0 -77 -48 -129q-11 -12 -41 -34z" />
    <glyph glyph-name="acute" unicode="&#xb4;" 
d="M404 1363l309 126q17 7 37 7q46 0 74 -32q28 -31 28 -71q0 -68 -77 -100l-303 -124q-19 -8 -46 -8q-47 0 -75 31q-29 31 -29 72t28 69q13 13 54 30z" />
    <glyph glyph-name="mu" unicode="&#xb5;" horiz-adv-x="1092" 
d="M379 5v-228q0 -85 -20 -125q-17 -33 -55 -55q-35 -20 -75 -20q-56 0 -101 38q-42 38 -48 110q-1 9 -1 52v1074q0 85 20 126q17 33 55 55q35 20 75 20q57 0 101 -38q42 -37 48 -110l1 -53v-409q0 -63 20 -95q51 -82 147 -82q70 0 119 48q48 46 48 129v409q0 86 20 126
q17 33 55 55q35 20 75 20q57 0 101 -38q42 -37 48 -110q1 -10 1 -53v-446q0 -153 -73 -248q-62 -80 -160 -126q-110 -52 -236 -52q-76 0 -165 26z" />
    <glyph glyph-name="paragraph" unicode="&#xb6;" horiz-adv-x="1092" 
d="M705 1119h-109v-1218q0 -77 -15 -114q-13 -29 -42 -49q-27 -18 -58 -18q-43 0 -77 35q-37 38 -37 146v638h-37q-167 0 -251 131q-77 120 -77 280q0 187 105 313q85 102 254 102h407h28q83 0 120 -74q18 -35 18 -131v-1259q0 -77 -15 -114q-13 -29 -42 -49
q-27 -18 -58 -18q-43 0 -77 35q-37 38 -37 146v1218z" />
    <glyph glyph-name="periodcentered" unicode="&#xb7;" horiz-adv-x="437" 
d="M221 779q72 0 122 -55q43 -48 43 -112q0 -75 -55 -125q-48 -43 -112 -43q-75 0 -125 55q-43 48 -43 114q0 72 56 123q47 43 114 43z" />
    <glyph glyph-name="cedilla" unicode="&#xb8;" 
d="M657 0l-152 -319q-21 -43 -78 -43q-53 0 -84 39q-18 24 -18 53q0 24 18 61l103 209h211z" />
    <glyph glyph-name="onesuperior" unicode="&#xb9;" horiz-adv-x="797" 
d="M324 1189h-34q-122 0 -122 88t122 88h111q74 0 103 -28q25 -23 29 -58q1 -10 1 -39v-577q0 -54 -14 -80q-27 -49 -91 -49t-91 49q-14 26 -14 80v526z" />
    <glyph glyph-name="ordmasculine" unicode="&#xba;" horiz-adv-x="747" 
d="M374 1185q141 0 237 -99q87 -89 87 -227q0 -136 -87 -226q-95 -99 -236 -99q-143 0 -238 99q-87 90 -87 231q0 135 87 222q98 99 237 99zM371 1006q-54 0 -90 -47q-30 -39 -30 -98q0 -61 30 -101q36 -47 90 -47q48 0 85 36q42 41 42 110q0 70 -42 111q-37 36 -85 36z" />
    <glyph glyph-name="guillemotright" unicode="&#xbb;" horiz-adv-x="1174" 
d="M842 555l-196 201q-41 43 -41 96q0 60 43 100q34 31 78 31q67 0 112 -61l173 -239q51 -71 51 -128t-51 -128l-173 -239q-45 -61 -112 -61q-52 0 -88 41q-33 38 -33 90q0 54 41 96zM350 555l-195 201q-42 43 -42 96q0 60 43 100q34 31 79 31q67 0 111 -61l173 -239
q51 -70 51 -128t-51 -128l-173 -239q-44 -61 -111 -61q-53 0 -89 41q-33 38 -33 90q0 53 42 96z" />
    <glyph glyph-name="onequarter" unicode="&#xbc;" horiz-adv-x="1846" 
d="M324 1189h-34q-122 0 -122 88t122 88h111q74 0 103 -28q25 -23 29 -58q1 -10 1 -39v-577q0 -54 -14 -80q-27 -49 -91 -49t-91 49q-14 26 -14 80v526zM597 127l471 1181q20 51 42 71q24 21 60 21t63 -23q35 -28 35 -71q0 -24 -19 -70l-472 -1182q-20 -51 -42.5 -71
t-59.5 -20q-35 0 -63 23q-34 28 -34 69q0 25 19 72zM1469 173h-243q-51 0 -80 21q-31 22 -31 62q0 24 11 43l254 441q52 91 146 91q65 0 102 -42q38 -41 38 -100v-341h14q40 0 63 -18q34 -25 34 -66q0 -40 -34 -68q-26 -21 -75 -23l-2 -64q0 -51 -13 -75q-26 -46 -86 -46
q-98 0 -98 121v64zM1469 348v221l-124 -221h124z" />
    <glyph glyph-name="onehalf" unicode="&#xbd;" horiz-adv-x="1846" 
d="M324 1189h-34q-122 0 -122 88t122 88h111q74 0 103 -28q25 -23 29 -58q1 -10 1 -39v-577q0 -54 -14 -80q-27 -49 -91 -49t-91 49q-14 26 -14 80v526zM597 127l471 1181q20 51 42 71q24 21 60 21t63 -23q35 -28 35 -71q0 -24 -19 -70l-472 -1182q-20 -51 -42.5 -71
t-59.5 -20q-35 0 -63 23q-34 28 -34 69q0 25 19 72zM1460 176h169q123 0 123 -88t-123 -88h-370q-63 0 -91 27q-25 24 -25 57q0 40 55 94q17 17 152 162q105 113 136 160q32 49 32 84q0 33 -24 54q-21 19 -51 19q-66 0 -89 -76q-20 -68 -36 -84q-25 -24 -64 -24
q-49 0 -77 33q-21 25 -21 64q0 120 105 203q83 66 192 66q118 0 203 -74q78 -69 78 -176q0 -77 -43 -153q-55 -97 -231 -260z" />
    <glyph glyph-name="threequarters" unicode="&#xbe;" horiz-adv-x="1846" 
d="M570 999q137 -74 137 -205q0 -123 -99 -200q-86 -68 -212 -68q-106 0 -184 47q-57 35 -94 91q-32 49 -32 92q0 37 32 65q29 24 68 24q40 0 66 -26q7 -7 33 -51q36 -58 102 -58q47 0 78 29q26 25 26 67q0 75 -100 84q-107 10 -107 89q0 38 24 60q15 13 76 29q76 19 76 74
q0 32 -28 48q-20 12 -44 12q-48 0 -96 -50q-47 -50 -89 -50t-69 30q-22 25 -22 57q0 71 69 124q93 72 215 72q105 0 182 -57q81 -62 81 -166q0 -77 -48 -129q-11 -12 -41 -34zM597 127l471 1181q20 51 42 71q24 21 61 21q35 0 62 -23q35 -28 35 -71q0 -24 -18 -70
l-472 -1182q-21 -51 -43 -70q-24 -21 -60 -21q-35 0 -63 23q-34 28 -34 69q0 26 19 72zM1470 173h-243q-51 0 -80 21q-31 22 -31 62q0 24 11 43l254 441q52 91 146 91q64 0 102 -42t38 -100v-341h14q40 0 63 -18q34 -25 34 -66q0 -40 -34 -68q-26 -21 -75 -23l-2 -64
q0 -51 -13 -75q-26 -46 -86 -46q-98 0 -98 121v64zM1470 348v221l-124 -221h124z" />
    <glyph glyph-name="questiondown" unicode="&#xbf;" horiz-adv-x="988" 
d="M529 1399q71 0 121 -55q43 -48 43 -112q0 -74 -55 -124q-48 -43 -112 -43q-74 0 -124 55q-43 48 -43 113q0 72 55 123q47 43 115 43zM374 799q-1 13 -1 17q0 60 20 100q17 33 55 55q36 20 76 20q56 0 101 -38q42 -37 48 -110q1 -9 1 -52v-97q0 -61 -25 -88
q-22 -24 -51 -31q-19 -6 -53 -11q-172 -29 -172 -158q0 -70 55 -106q43 -28 94 -28q86 0 155 94q35 48 55 62q35 24 79 24q62 0 104 -44q39 -39 39 -99q0 -121 -116 -224q-134 -119 -326 -119q-135 0 -252 61q-123 64 -182 180q-44 86 -44 193q0 185 136 302q82 70 204 97z
" />
    <glyph glyph-name="Agrave" unicode="&#xc0;" horiz-adv-x="1243" 
d="M884 261h-525l-33 -119q-23 -84 -56 -121q-40 -45 -103 -45q-53 0 -97 32q-63 45 -63 120q0 37 26 108l357 981q63 175 232 175q168 0 231 -175l357 -981q26 -71 26 -109q0 -84 -77 -129q-39 -22 -83 -22q-64 0 -103 45q-33 37 -56 121zM789 541l-165 519l-166 -519h331z
M668 1503l-302 111q-78 29 -78 101q0 50 40 79q28 21 67 21q19 0 33 -5l309 -113q81 -29 81 -99q0 -49 -38 -82q-26 -21 -66 -21q-24 0 -46 8z" />
    <glyph glyph-name="Aacute" unicode="&#xc1;" horiz-adv-x="1243" 
d="M884 261h-525l-33 -119q-23 -84 -56 -121q-40 -45 -103 -45q-53 0 -97 32q-63 45 -63 120q0 37 26 108l357 981q63 175 232 175q168 0 231 -175l357 -981q26 -71 26 -109q0 -84 -77 -129q-39 -22 -83 -22q-64 0 -103 45q-33 37 -56 121zM789 541l-165 519l-166 -519h331z
M514 1697l309 113q14 5 32 5q46 0 76 -28q31 -30 31 -72q0 -72 -77 -101l-303 -111q-22 -8 -46 -8q-47 0 -75 31q-29 31 -29 72q0 70 82 99z" />
    <glyph glyph-name="Acircumflex" unicode="&#xc2;" horiz-adv-x="1243" 
d="M884 261h-525l-33 -119q-23 -84 -56 -121q-40 -45 -103 -45q-53 0 -97 32q-63 45 -63 120q0 37 26 108l357 981q63 175 232 175q168 0 231 -175l357 -981q26 -71 26 -109q0 -84 -77 -129q-39 -22 -83 -22q-64 0 -103 45q-33 37 -56 121zM789 541l-165 519l-166 -519h331z
M622 1607l-219 -103q-18 -9 -39 -9q-49 0 -79 39q-24 31 -24 66q0 64 67 94l253 113q21 9 42 9q19 0 36 -7l251 -114q73 -33 73 -97q0 -42 -27 -72q-30 -32 -76 -32q-21 0 -38 8z" />
    <glyph glyph-name="Atilde" unicode="&#xc3;" horiz-adv-x="1243" 
d="M884 261h-525l-33 -119q-23 -84 -56 -121q-40 -45 -103 -45q-53 0 -97 32q-63 45 -63 120q0 37 26 108l357 981q63 175 232 175q168 0 231 -175l357 -981q26 -71 26 -109q0 -84 -77 -129q-39 -22 -83 -22q-64 0 -103 45q-33 37 -56 121zM789 541l-165 519l-166 -519h331z
M470 1798q52 0 114 -23q16 -6 108 -52q36 -19 70 -19q18 0 32 9q9 6 25 36q26 50 77 50q41 0 67 -31q23 -27 23 -64q0 -87 -80 -145q-58 -42 -135 -42q-66 0 -155 44q-101 50 -133 50q-26 0 -44 -20q-4 -5 -28 -44q-20 -32 -64 -32q-42 0 -69 29q-20 22 -20 66q0 83 69 138
q62 50 143 50z" />
    <glyph glyph-name="Adieresis" unicode="&#xc4;" horiz-adv-x="1243" 
d="M884 261h-525l-33 -119q-23 -84 -56 -121q-40 -45 -103 -45q-53 0 -97 32q-63 45 -63 120q0 37 26 108l357 981q63 175 232 175q168 0 231 -175l357 -981q26 -71 26 -109q0 -84 -77 -129q-39 -22 -83 -22q-64 0 -103 45q-33 37 -56 121zM789 541l-165 519l-166 -519h331z
M402 1807q64 0 109 -50q39 -42 39 -100q0 -67 -50 -112q-42 -38 -100 -38q-67 0 -112 50q-38 42 -38 101q0 65 50 110q42 39 102 39zM845 1807q64 0 109 -50q39 -42 39 -100q0 -67 -50 -112q-42 -38 -100 -38q-67 0 -112 50q-38 42 -38 101q0 65 50 110q42 39 102 39z" />
    <glyph glyph-name="Aring" unicode="&#xc5;" horiz-adv-x="1243" 
d="M884 261h-525l-33 -119q-23 -84 -56 -121q-40 -45 -103 -45q-53 0 -97 32q-63 45 -63 120q0 37 26 108l357 981q63 175 232 175q168 0 231 -175l357 -981q26 -71 26 -109q0 -84 -77 -129q-39 -22 -83 -22q-64 0 -103 45q-33 37 -56 121zM789 541l-165 519l-166 -519h331z
M625 1877q86 0 146 -67q52 -57 52 -134q0 -89 -67 -149q-57 -52 -134 -52q-90 0 -150 66q-52 58 -52 137q0 87 67 147q57 52 138 52zM623 1747q-33 0 -54 -24q-19 -20 -19 -46q0 -32 24 -54q20 -18 48 -18q29 0 50 21t21 50q0 31 -24 53q-20 18 -46 18z" />
    <glyph glyph-name="AE" unicode="&#xc6;" horiz-adv-x="1616" 
d="M1071 1085v-254h271q79 0 116 -19q31 -15 51 -51q19 -33 19 -70q0 -53 -36 -94q-34 -40 -101 -45q-9 -1 -49 -1h-271v-271h304q79 0 116 -19q31 -15 51 -51q19 -33 19 -70q0 -53 -36 -94q-24 -27 -54 -36.5t-96 -9.5h-381q-112 0 -152 26q-77 49 -84 152q-1 13 -1 54
h-356l-48 -117q-21 -52 -41 -79q-43 -57 -115 -57q-57 0 -99 37q-50 44 -50 104q0 40 32 113l446 1025q28 63 66 87q31 20 105 20h678q79 0 116 -19q31 -15 51 -51q19 -33 19 -70q0 -38 -19.5 -72t-50.5 -49q-37 -19 -116 -19h-304zM757 512v556l-235 -556h235z" />
    <glyph glyph-name="Ccedilla" unicode="&#xc7;" horiz-adv-x="1171" 
d="M769 -32l-136 -286q-21 -44 -78 -44q-53 0 -84 39q-18 23 -18 53q0 24 18 61l92 189q-133 24 -253 108q-145 101 -217 275q-60 144 -60 318q0 337 206 536q187 182 473 182q140 0 250 -42q157 -59 157 -178q0 -53 -30 -93q-35 -45 -98 -45q-36 0 -114 31q-85 34 -164 34
q-141 0 -227 -85q-118 -117 -118 -342t116 -334q91 -85 231 -85q59 0 86 7.5t132 54.5q37 16 69 16q56 0 94 -47q34 -40 34 -96q0 -120 -171 -187q-85 -33 -190 -40z" />
    <glyph glyph-name="Egrave" unicode="&#xc8;" horiz-adv-x="943" 
d="M409 1085v-260h261q80 0 117 -19q31 -15 51 -51q19 -33 19 -70q0 -38 -19.5 -72t-50.5 -49q-37 -19 -117 -19h-261v-265h293q79 0 116 -19q31 -15 51 -51q19 -33 19 -70q0 -53 -36 -94q-34 -40 -101 -45q-9 -1 -49 -1h-379q-86 0 -123 13q-40 15 -72 57q-29 38 -33 103
v55v909q0 64 4 90q11 64 66 106q44 32 120 32h38h379q79 0 116 -19q31 -15 51 -51q19 -33 19 -70q0 -53 -36 -94q-34 -40 -101 -45q-9 -1 -49 -1h-293zM538 1503l-302 111q-78 29 -78 101q0 50 40 79q29 21 67 21q19 0 33 -5l309 -113q81 -29 81 -99q0 -49 -38 -82
q-26 -21 -66 -21q-24 0 -46 8z" />
    <glyph glyph-name="Eacute" unicode="&#xc9;" horiz-adv-x="943" 
d="M409 1085v-260h261q80 0 117 -19q31 -15 51 -51q19 -33 19 -70q0 -38 -19.5 -72t-50.5 -49q-37 -19 -117 -19h-261v-265h293q79 0 116 -19q31 -15 51 -51q19 -33 19 -70q0 -53 -36 -94q-34 -40 -101 -45q-9 -1 -49 -1h-379q-86 0 -123 13q-40 15 -72 57q-29 38 -33 103
v55v909q0 64 4 90q11 64 66 106q44 32 120 32h38h379q79 0 116 -19q31 -15 51 -51q19 -33 19 -70q0 -53 -36 -94q-34 -40 -101 -45q-9 -1 -49 -1h-293zM363 1697l309 113q14 5 33 5q46 0 76 -28q31 -30 31 -72q0 -72 -78 -101l-302 -111q-22 -8 -46 -8q-47 0 -75 31
q-29 31 -29 72q0 70 81 99z" />
    <glyph glyph-name="Ecircumflex" unicode="&#xca;" horiz-adv-x="943" 
d="M409 1085v-260h261q80 0 117 -19q31 -15 51 -51q19 -33 19 -70q0 -38 -19.5 -72t-50.5 -49q-37 -19 -117 -19h-261v-265h293q79 0 116 -19q31 -15 51 -51q19 -33 19 -70q0 -53 -36 -94q-34 -40 -101 -45q-9 -1 -49 -1h-379q-86 0 -123 13q-40 15 -72 57q-29 38 -33 103
v55v909q0 64 4 90q11 64 66 106q44 32 120 32h38h379q79 0 116 -19q31 -15 51 -51q19 -33 19 -70q0 -53 -36 -94q-34 -40 -101 -45q-9 -1 -49 -1h-293zM485 1607l-219 -103q-17 -9 -39 -9q-49 0 -79 39q-24 30 -24 66q0 64 67 94l253 113q21 9 42 9q20 0 36 -7l252 -114
q72 -32 72 -97q0 -42 -27 -72q-30 -32 -76 -32q-20 0 -38 8z" />
    <glyph glyph-name="Edieresis" unicode="&#xcb;" horiz-adv-x="943" 
d="M409 1085v-260h261q80 0 117 -19q31 -15 51 -51q19 -33 19 -70q0 -38 -19.5 -72t-50.5 -49q-37 -19 -117 -19h-261v-265h293q79 0 116 -19q31 -15 51 -51q19 -33 19 -70q0 -53 -36 -94q-34 -40 -101 -45q-9 -1 -49 -1h-379q-86 0 -123 13q-40 15 -72 57q-29 38 -33 103
v55v909q0 64 4 90q11 64 66 106q44 32 120 32h38h379q79 0 116 -19q31 -15 51 -51q19 -33 19 -70q0 -53 -36 -94q-34 -40 -101 -45q-9 -1 -49 -1h-293zM265 1807q64 0 109 -50q39 -42 39 -100q0 -67 -50 -112q-42 -38 -100 -38q-67 0 -112 50q-38 42 -38 101q0 65 50 110
q42 39 102 39zM709 1807q64 0 109 -50q39 -42 39 -100q0 -67 -50 -112q-42 -38 -100 -38q-67 0 -112 50q-38 42 -38 101q0 65 50 110q42 39 102 39z" />
    <glyph glyph-name="Igrave" unicode="&#xcc;" horiz-adv-x="504" 
d="M95 189v987q0 89 21 131q18 34 58 57q36 21 78 21q59 0 105 -40q45 -39 51 -114q1 -10 1 -55v-987q0 -89 -21 -131q-17 -34 -55.5 -56t-80.5 -22q-59 0 -105 40q-45 39 -51 114zM259 1503l-234 111q-35 17 -43.5 23.5t-17.5 21.5q-16 27 -16 56q0 50 40 79q28 21 67 21
q21 0 32 -5l241 -113q48 -22 59 -36q22 -28 22 -63q0 -49 -38 -82q-26 -21 -68 -21q-27 0 -44 8z" />
    <glyph glyph-name="Iacute" unicode="&#xcd;" horiz-adv-x="504" 
d="M95 189v987q0 89 21 131q18 34 58 57q36 21 78 21q59 0 105 -40q45 -39 51 -114q1 -10 1 -55v-987q0 -89 -21 -131q-17 -34 -57 -57q-37 -21 -79 -21q-59 0 -105 40q-45 39 -51 114zM177 1697l240 113q11 5 33 5q46 0 76 -28q31 -30 31 -72q0 -35 -22 -65
q-10 -14 -56 -36l-234 -111q-17 -8 -44 -8q-49 0 -77 31q-29 31 -29 72q0 39 28 70q7 7 54 29z" />
    <glyph glyph-name="Icircumflex" unicode="&#xce;" horiz-adv-x="504" 
d="M95 189v987q0 89 21 131q18 34 57 57q37 21 79 21q59 0 105 -40q45 -39 51 -114q1 -10 1 -55v-987q0 -89 -21 -131q-17 -34 -55.5 -56t-80.5 -22q-59 0 -105 40q-45 39 -51 114zM253 1607l-165 -103q-13 -9 -38 -9q-50 0 -80 39q-24 31 -24 66q0 36 24 64q8 10 43 30
l199 113q16 9 42 9q23 0 36 -7l196 -114q40 -22 51 -35q22 -24 22 -62q0 -42 -27 -72q-30 -32 -78 -32q-23 0 -36 8z" />
    <glyph glyph-name="Idieresis" unicode="&#xcf;" horiz-adv-x="504" 
d="M95 189v987q0 89 21 131q18 34 57 57q37 21 79 21q59 0 105 -40q45 -39 51 -114q1 -10 1 -55v-987q0 -89 -21 -131q-17 -34 -55.5 -56t-80.5 -22q-59 0 -105 40q-45 39 -51 114zM69 1799q61 0 103 -47q37 -40 37 -95q0 -64 -47 -106q-41 -37 -95 -37q-64 0 -106 47
q-37 41 -37 97q0 61 47 104q41 37 98 37zM439 1799q60 0 103 -47q37 -40 37 -95q0 -64 -47 -106q-41 -37 -95 -37q-64 0 -107 47q-36 41 -36 97q0 61 47 104q40 37 98 37z" />
    <glyph glyph-name="Eth" unicode="&#xd0;" horiz-adv-x="1359" 
d="M151 565h-27q-54 0 -88 33q-36 36 -36 91q0 63 45 97q32 25 79 25h27v327q0 63 4 89q12 65 66 106q44 32 120 32h38h256q269 0 438 -124q130 -95 194 -255q58 -147 58 -311q0 -228 -103 -395q-99 -161 -274 -232q-123 -50 -266 -48l-306 5q-85 1 -121 14q-41 15 -72 57
q-28 38 -32 102v55v332zM465 565v-292h156q171 0 260 91q109 112 109 320q0 214 -124 324q-60 54 -137 70q-65 14 -144 14h-120v-281h110q106 0 141 -24q46 -31 46 -102q0 -79 -53 -104q-35 -16 -134 -16h-110z" />
    <glyph glyph-name="Ntilde" unicode="&#xd1;" horiz-adv-x="1394" 
d="M409 827v-638q0 -89 -21 -131q-17 -34 -57 -57q-37 -21 -79 -21q-59 0 -105 40q-45 39 -51 114l-1 55v1036q0 69 41 115q41 45 115 45t129 -69l604 -759v619q0 89 21 131q18 34 57 57q37 21 79 21q59 0 105 -40q45 -39 51 -114q1 -10 1 -55v-1017q0 -67 -18 -98
q-46 -81 -132 -81q-57 0 -99 38q-12 10 -62 75zM545 1798q52 0 113 -23q17 -6 108 -52q37 -19 70 -19q18 0 32 9q9 6 25 36q26 50 77 50q42 0 67 -31q23 -27 23 -64q0 -87 -80 -145q-57 -42 -134 -42q-67 0 -156 44q-100 50 -132 50q-26 0 -44 -20q-4 -5 -29 -44
q-19 -32 -63 -32q-42 0 -69 29q-20 22 -20 66q0 83 68 138q63 50 144 50z" />
    <glyph glyph-name="Ograve" unicode="&#xd2;" horiz-adv-x="1418" 
d="M709 1399q207 0 374 -106q171 -109 247 -302q54 -139 54 -307q0 -350 -225 -555q-179 -163 -446 -163q-304 0 -493 201q-186 198 -186 528q0 144 49 284q78 219 298 339q147 81 328 81zM711 1119q-143 0 -241 -109q-101 -114 -101 -313q0 -207 94 -331q42 -56 111 -89
q65 -31 139 -31q138 0 225 96q111 124 111 342q0 211 -101 328q-40 47 -100 76q-65 31 -137 31zM769 1503l-302 111q-78 29 -78 101q0 50 40 79q28 21 67 21q19 0 33 -5l309 -113q81 -29 81 -99q0 -49 -38 -82q-26 -21 -66 -21q-24 0 -46 8z" />
    <glyph glyph-name="Oacute" unicode="&#xd3;" horiz-adv-x="1418" 
d="M709 1399q207 0 374 -106q171 -109 247 -302q54 -139 54 -307q0 -350 -225 -555q-179 -163 -446 -163q-304 0 -493 201q-186 198 -186 528q0 144 49 284q78 219 298 339q147 81 328 81zM711 1119q-143 0 -241 -109q-101 -114 -101 -313q0 -207 94 -331q42 -56 111 -89
q65 -31 139 -31q138 0 225 96q111 124 111 342q0 211 -101 328q-40 47 -100 76q-65 31 -137 31zM601 1697l309 113q14 5 33 5q45 0 75 -28q31 -29 31 -72q0 -73 -77 -101l-303 -111q-22 -8 -46 -8q-46 0 -74 31q-29 31 -29 72q0 70 81 99z" />
    <glyph glyph-name="Ocircumflex" unicode="&#xd4;" horiz-adv-x="1418" 
d="M709 1399q207 0 374 -106q171 -109 247 -302q54 -139 54 -307q0 -350 -225 -555q-179 -163 -446 -163q-304 0 -493 201q-186 198 -186 528q0 144 49 284q78 219 298 339q147 81 328 81zM711 1119q-143 0 -241 -109q-101 -114 -101 -313q0 -207 94 -331q42 -56 111 -89
q65 -31 139 -31q138 0 225 96q111 124 111 342q0 211 -101 328q-40 47 -100 76q-65 31 -137 31zM710 1607l-219 -103q-18 -9 -40 -9q-49 0 -79 39q-24 30 -24 66q0 64 67 94l253 113q21 9 43 9q19 0 36 -7l251 -114q72 -32 72 -97q0 -42 -27 -72q-30 -32 -76 -32
q-20 0 -38 8z" />
    <glyph glyph-name="Otilde" unicode="&#xd5;" horiz-adv-x="1418" 
d="M709 1399q207 0 374 -106q171 -109 247 -302q54 -139 54 -307q0 -350 -225 -555q-179 -163 -446 -163q-304 0 -493 201q-186 198 -186 528q0 144 49 284q78 219 298 339q147 81 328 81zM711 1119q-143 0 -241 -109q-101 -114 -101 -313q0 -207 94 -331q42 -56 111 -89
q65 -31 139 -31q138 0 225 96q111 124 111 342q0 211 -101 328q-40 47 -100 76q-65 31 -137 31zM564 1798q52 0 114 -23q16 -6 108 -52q36 -19 70 -19q18 0 32 9q9 6 25 36q26 50 77 50q42 0 67 -31q23 -27 23 -64q0 -87 -80 -145q-57 -42 -135 -42q-66 0 -155 44
q-101 50 -133 50q-26 0 -44 -20q-4 -5 -28 -44q-20 -32 -64 -32q-42 0 -69 29q-20 22 -20 66q0 83 68 138q63 50 144 50z" />
    <glyph glyph-name="Odieresis" unicode="&#xd6;" horiz-adv-x="1418" 
d="M709 1399q207 0 374 -106q171 -109 247 -302q54 -139 54 -307q0 -350 -225 -555q-179 -163 -446 -163q-304 0 -493 201q-186 198 -186 528q0 144 49 284q78 219 298 339q147 81 328 81zM711 1119q-143 0 -241 -109q-101 -114 -101 -313q0 -207 94 -331q42 -56 111 -89
q65 -31 139 -31q138 0 225 96q111 124 111 342q0 211 -101 328q-40 47 -100 76q-65 31 -137 31zM489 1807q64 0 109 -50q39 -42 39 -100q0 -67 -50 -112q-42 -38 -100 -38q-67 0 -112 50q-38 42 -38 101q0 65 50 110q42 39 102 39zM933 1807q64 0 109 -50q39 -42 39 -100
q0 -67 -50 -112q-42 -38 -100 -38q-67 0 -112 50q-38 42 -38 101q0 65 50 110q42 39 102 39z" />
    <glyph glyph-name="multiply" unicode="&#xd7;" horiz-adv-x="1092" 
d="M546 555l-215 -214q-50 -51 -88 -51q-40 0 -68 28t-28 70q0 37 50 87l214 215l-214 214q-50 50 -50 89q0 40 28 68t70 28q36 0 86 -51l215 -214l214 214q51 51 89 51q40 0 68 -28t28 -70q0 -37 -50 -87l-215 -214l215 -215q50 -50 50 -88q0 -41 -28 -69t-70 -28
q-36 0 -87 51z" />
    <glyph glyph-name="Oslash" unicode="&#xd8;" horiz-adv-x="1418" 
d="M1061 1306l34 41q32 38 50 51q31 23 67 23q45 0 79 -28q43 -36 43 -93q0 -43 -54 -108l-36 -42q66 -92 94 -167q47 -126 47 -289q0 -322 -183 -521q-189 -207 -495 -207q-120 0 -222 38q-48 18 -137 66l-24 -29q-31 -38 -49 -52q-32 -24 -69 -24q-44 0 -78 27
q-45 37 -45 94q0 42 53 108l35 43q-73 100 -101 188q-36 113 -36 256q0 331 196 527q190 191 487 191q121 0 222 -35q47 -17 122 -58zM538 293q81 -47 166 -47q181 0 279 129q88 116 88 317q0 103 -35 206zM873 1079q-73 40 -149 40q-160 0 -259 -94q-92 -87 -111 -251
q-6 -48 -6 -98q0 -100 32 -188z" />
    <glyph glyph-name="Ugrave" unicode="&#xd9;" horiz-adv-x="1352" 
d="M1270 1176v-577q0 -194 -41 -290q-72 -167 -239 -262q-144 -81 -316 -81q-178 0 -327 88q-163 96 -228 261q-37 92 -37 203v658q0 89 21 131q18 34 58 57q36 21 78 21q59 0 105 -40q45 -39 51 -114q1 -10 1 -55v-613q0 -133 64 -210q35 -42 96 -68q57 -26 120 -26
q94 0 170 55q74 53 97 146q13 53 13 139v577q0 89 21 131q18 34 57 57q37 21 79 21q59 0 105 -40q45 -39 51 -114q1 -10 1 -55zM729 1503l-302 111q-78 29 -78 101q0 50 40 79q28 21 67 21q19 0 33 -5l309 -113q81 -29 81 -99q0 -50 -38 -82q-26 -21 -66 -21q-24 0 -46 8z
" />
    <glyph glyph-name="Uacute" unicode="&#xda;" horiz-adv-x="1352" 
d="M1270 1176v-577q0 -194 -41 -290q-72 -167 -239 -262q-144 -81 -316 -81q-178 0 -327 88q-163 96 -228 261q-37 92 -37 203v658q0 89 21 131q18 34 58 57q36 21 78 21q59 0 105 -40q45 -39 51 -114q1 -10 1 -55v-613q0 -133 64 -210q35 -42 96 -68q57 -26 120 -26
q94 0 170 55q74 53 97 146q13 53 13 139v577q0 89 21 131q18 34 57 57q37 21 79 21q59 0 105 -40q45 -39 51 -114q1 -10 1 -55zM568 1697l309 113q14 5 33 5q45 0 75 -28q31 -29 31 -72q0 -72 -77 -101l-303 -111q-22 -8 -46 -8q-47 0 -75 31q-29 31 -29 72q0 69 82 99z" />
    <glyph glyph-name="Ucircumflex" unicode="&#xdb;" horiz-adv-x="1352" 
d="M1270 1176v-577q0 -194 -41 -290q-72 -167 -239 -262q-144 -81 -316 -81q-178 0 -327 88q-163 96 -228 261q-37 92 -37 203v658q0 89 21 131q18 34 58 57q36 21 78 21q59 0 105 -40q45 -39 51 -114q1 -10 1 -55v-613q0 -133 64 -210q35 -42 96 -68q57 -26 120 -26
q94 0 170 55q74 53 97 146q13 53 13 139v577q0 89 21 131q18 34 57 57q37 21 79 21q59 0 105 -40q45 -39 51 -114q1 -10 1 -55zM676 1607l-218 -103q-18 -9 -40 -9q-49 0 -79 39q-24 30 -24 66q0 64 67 94l253 113q21 9 43 9q19 0 35 -7l252 -114q72 -32 72 -97
q0 -42 -27 -72q-30 -32 -76 -32q-20 0 -38 8z" />
    <glyph glyph-name="Udieresis" unicode="&#xdc;" horiz-adv-x="1352" 
d="M1270 1176v-577q0 -194 -41 -290q-72 -167 -239 -262q-144 -81 -316 -81q-178 0 -327 88q-163 96 -228 261q-37 92 -37 203v658q0 89 21 131q18 34 58 57q36 21 78 21q59 0 105 -40q45 -39 51 -114q1 -10 1 -55v-613q0 -133 64 -210q35 -42 96 -68q57 -26 120 -26
q94 0 170 55q74 53 97 146q13 53 13 139v577q0 89 21 131q18 34 57 57q37 21 79 21q59 0 105 -40q45 -39 51 -114q1 -10 1 -55zM457 1807q63 0 108 -50q39 -42 39 -100q0 -67 -50 -112q-42 -38 -100 -38q-67 0 -112 50q-38 42 -38 101q0 65 50 110q42 39 103 39zM901 1807
q63 0 108 -50q39 -42 39 -100q0 -67 -50 -112q-42 -38 -100 -38q-67 0 -112 50q-38 42 -38 101q0 65 50 110q42 39 103 39z" />
    <glyph glyph-name="Yacute" unicode="&#xdd;" horiz-adv-x="1179" 
d="M738 644v-455q0 -89 -21 -131q-17 -34 -57 -57q-37 -21 -79 -21q-59 0 -105 40q-45 39 -51 114q-1 10 -1 55v455l-329 451q-61 84 -61 136q0 58 42 104q46 50 117 50q62 0 111 -51q14 -15 45 -60l232 -331l244 335q38 52 61 72q42 36 96 36q82 0 128 -66q31 -43 31 -85
q0 -59 -63 -142zM509 1697l309 113q14 5 33 5q45 0 75 -28q31 -29 31 -72q0 -72 -77 -101l-303 -111q-22 -8 -46 -8q-47 0 -75 31q-29 31 -29 72q0 69 82 99z" />
    <glyph glyph-name="Thorn" unicode="&#xde;" horiz-adv-x="1131" 
d="M416 270v-81q0 -89 -21 -131q-17 -34 -57 -57q-37 -21 -79 -21q-59 0 -105 40q-45 39 -51 114l-1 55v988q0 88 21 130q18 34 58 57q36 21 78 21q70 0 117 -51q40 -44 40 -146h196q227 0 349 -114q68 -64 106 -158q37 -92 37 -189q0 -182 -105 -312q-118 -145 -345 -145
h-238zM416 543h159q100 0 156 56q52 53 52 128q0 82 -53 136q-51 52 -139 52h-175v-372z" />
    <glyph glyph-name="germandbls" unicode="&#xdf;" horiz-adv-x="1122" 
d="M848 830q75 -28 112 -61q127 -118 127 -306q0 -185 -127 -328q-138 -155 -318 -155q-86 0 -130 38q-45 39 -45 105q0 67 48 103q18 14 94 35q89 24 131 88q35 54 35 123q0 156 -155 189q-75 15 -92 24q-73 37 -73 122q0 60 29 95q21 24 81 41q119 34 119 138
q0 70 -54 111q-38 30 -90 30q-85 0 -123 -65q-29 -49 -29 -163v-807q0 -86 -20 -126q-17 -33 -55 -55q-35 -20 -75 -20q-56 0 -100 39q-43 37 -49 109l-1 53v845q0 216 131 344q129 126 330 126q182 0 304 -115q125 -118 125 -289q0 -99 -41 -173q-24 -42 -89 -95z" />
    <glyph glyph-name="agrave" unicode="&#xe0;" horiz-adv-x="1148" 
d="M758 105q-51 -62 -90 -86q-65 -39 -159 -39q-167 0 -297 115q-178 157 -178 429q0 242 157 398q138 136 314 136q100 0 174 -46q32 -21 82 -72q25 59 56 82q41 30 93 30q58 0 103 -42q46 -44 46 -112v-735q0 -83 -46 -132q-42 -45 -105 -45q-105 0 -150 119zM542 778
q-94 0 -152 -72q-56 -72 -56 -184q0 -117 56 -189q58 -73 153 -73q83 0 142 65q66 73 66 196t-64 192q-60 65 -145 65zM641 1169l-303 124q-77 32 -77 100q0 46 35 79q27 24 66 24q21 0 38 -7l309 -126q45 -19 60 -37q22 -27 22 -62q0 -49 -38 -82q-26 -21 -66 -21
q-28 0 -46 8z" />
    <glyph glyph-name="aacute" unicode="&#xe1;" horiz-adv-x="1148" 
d="M758 105q-51 -62 -90 -86q-65 -39 -159 -39q-167 0 -297 115q-178 157 -178 429q0 242 157 398q138 136 314 136q100 0 174 -46q32 -21 82 -72q25 59 56 82q41 30 93 30q58 0 103 -42q46 -44 46 -112v-735q0 -83 -46 -132q-42 -45 -105 -45q-105 0 -150 119zM542 778
q-94 0 -152 -72q-56 -72 -56 -184q0 -117 56 -189q58 -73 153 -73q83 0 142 65q66 73 66 196t-64 192q-60 65 -145 65zM466 1363l309 126q17 7 38 7q45 0 73 -32q28 -31 28 -71q0 -68 -77 -100l-303 -124q-18 -8 -46 -8q-47 0 -75 31q-29 31 -29 72t28 69q13 13 54 30z" />
    <glyph glyph-name="acircumflex" unicode="&#xe2;" horiz-adv-x="1148" 
d="M758 105q-51 -62 -90 -86q-65 -39 -159 -39q-167 0 -297 115q-178 157 -178 429q0 242 157 398q138 136 314 136q100 0 174 -46q32 -21 82 -72q25 59 56 82q41 30 93 30q58 0 103 -42q46 -44 46 -112v-735q0 -83 -46 -132q-42 -45 -105 -45q-105 0 -150 119zM542 778
q-94 0 -152 -72q-56 -72 -56 -184q0 -117 56 -189q58 -73 153 -73q83 0 142 65q66 73 66 196t-64 192q-60 65 -145 65zM588 1286l-219 -117q-15 -8 -39 -8q-49 0 -80 39q-23 30 -23 66q0 60 67 93l253 127q18 9 42 9q21 0 36 -7l251 -127q73 -37 73 -98q0 -41 -27 -71
q-30 -32 -76 -32q-24 0 -38 8z" />
    <glyph glyph-name="atilde" unicode="&#xe3;" horiz-adv-x="1148" 
d="M758 105q-51 -62 -90 -86q-65 -39 -159 -39q-167 0 -297 115q-178 157 -178 429q0 242 157 398q138 136 314 136q100 0 174 -46q32 -21 82 -72q25 59 56 82q41 30 93 30q58 0 103 -42q46 -44 46 -112v-735q0 -83 -46 -132q-42 -45 -105 -45q-105 0 -150 119zM542 778
q-94 0 -152 -72q-56 -72 -56 -184q0 -117 56 -189q58 -73 153 -73q83 0 142 65q66 73 66 196t-64 192q-60 65 -145 65zM429 1463q53 0 114 -22q16 -6 108 -53q36 -18 70 -18q18 0 32 9q9 6 25 36q26 49 77 49q42 0 67 -31q23 -27 23 -63q0 -87 -80 -146q-57 -41 -135 -41
q-66 0 -155 44q-102 49 -133 49q-26 0 -44 -20q-4 -5 -28 -45q-20 -31 -64 -31q-42 0 -69 29q-20 22 -20 66q0 83 69 138q62 50 143 50z" />
    <glyph glyph-name="adieresis" unicode="&#xe4;" horiz-adv-x="1148" 
d="M758 105q-51 -62 -90 -86q-65 -39 -159 -39q-167 0 -297 115q-178 157 -178 429q0 242 157 398q138 136 314 136q100 0 174 -46q32 -21 82 -72q25 59 56 82q41 30 93 30q58 0 103 -42q46 -44 46 -112v-735q0 -83 -46 -132q-42 -45 -105 -45q-105 0 -150 119zM542 778
q-94 0 -152 -72q-56 -72 -56 -184q0 -117 56 -189q58 -73 153 -73q83 0 142 65q66 73 66 196t-64 192q-60 65 -145 65zM369 1472q63 0 108 -50q39 -42 39 -100q0 -67 -50 -112q-42 -38 -100 -38q-67 0 -112 50q-38 42 -38 101q0 65 50 110q42 39 103 39zM811 1472
q64 0 109 -50q39 -42 39 -100q0 -67 -50 -112q-42 -38 -100 -38q-67 0 -112 50q-38 42 -38 101q0 65 50 110q42 39 102 39z" />
    <glyph glyph-name="aring" unicode="&#xe5;" horiz-adv-x="1148" 
d="M758 105q-51 -62 -90 -86q-65 -39 -159 -39q-167 0 -297 115q-178 157 -178 429q0 242 157 398q138 136 314 136q100 0 174 -46q32 -21 82 -72q25 59 56 82q41 30 93 30q58 0 103 -42q46 -44 46 -112v-735q0 -83 -46 -132q-42 -45 -105 -45q-105 0 -150 119zM542 778
q-94 0 -152 -72q-56 -72 -56 -184q0 -117 56 -189q58 -73 153 -73q83 0 142 65q66 73 66 196t-64 192q-60 65 -145 65zM584 1556q86 0 146 -66q52 -58 52 -135q0 -89 -67 -149q-57 -52 -134 -52q-90 0 -150 66q-52 58 -52 137q0 87 67 147q56 52 138 52zM582 1432
q-35 0 -59 -26q-20 -22 -20 -50q0 -35 26 -58q22 -20 52 -20q34 0 57 26q20 22 20 51q0 34 -26 57q-22 20 -50 20z" />
    <glyph glyph-name="ae" unicode="&#xe6;" horiz-adv-x="1776" 
d="M1045 433q29 -74 61 -103q76 -70 193 -70q56 0 114 17q15 5 112 40q37 14 70 14q53 0 90 -33q40 -36 40 -89q0 -85 -98 -141q-67 -39 -150 -61q-103 -27 -192 -27q-91 0 -171 24q-52 16 -122 73q-3 -91 -124 -91q-68 0 -95 42q-16 25 -19 80q-35 -45 -57 -63
q-35 -28 -95 -47t-116 -19q-121 0 -240 81q-108 74 -166 223q-46 121 -46 243q0 226 137 379q70 78 164 118q83 36 170 36q84 0 154 -32q45 -21 99 -85q2 58 26 81q31 29 95 29q48 0 76 -17q24 -14 37 -56q61 46 113 61q59 18 127 18q207 0 354 -152q78 -80 121 -192
q35 -89 35 -176q0 -57 -33 -82q-30 -23 -110 -23h-554zM1443 632q-50 188 -202 188q-79 0 -138 -59q-44 -44 -64 -129h404zM542 779q-94 0 -153 -76q-55 -72 -55 -182q0 -114 52 -184q58 -78 150 -78q62 0 117 41q92 69 92 231q0 118 -60 186q-55 62 -143 62z" />
    <glyph glyph-name="ccedilla" unicode="&#xe7;" horiz-adv-x="936" 
d="M605 -16l-144 -302q-21 -44 -78 -44q-53 0 -84 39q-18 24 -18 53q0 24 18 61l101 205q-140 43 -229 140q-137 149 -137 378q0 262 157 407q75 69 177 105q91 33 181 33q148 0 260 -61q42 -23 66 -68q18 -31 18 -69q0 -59 -40 -102q-32 -34 -79 -34q-29 0 -108 30
q-64 24 -109 24q-88 0 -153 -66q-69 -71 -69 -194q0 -126 69 -195q64 -64 160 -64q57 0 120 29q55 26 87 26q58 0 93 -46q31 -42 31 -90q0 -95 -128 -152q-75 -33 -162 -43z" />
    <glyph glyph-name="egrave" unicode="&#xe8;" horiz-adv-x="1082" 
d="M358 419q32 -88 89 -130q63 -47 149 -47q64 0 129 26q17 7 119 57q31 15 67 15q54 0 90 -47q30 -38 30 -76q0 -85 -121 -154q-145 -83 -329 -83q-275 0 -433 191q-114 138 -114 332q0 263 169 420q146 135 346 135q175 0 311 -108q131 -105 174 -285q15 -64 15 -127
q0 -119 -131 -119h-560zM753 624q-19 73 -44 109q-54 79 -152 79q-84 0 -143 -61q-38 -40 -67 -127h406zM622 1169l-303 124q-77 32 -77 100q0 46 35 79q27 24 67 24q20 0 37 -7l309 -126q45 -19 60 -37q22 -27 22 -62q0 -49 -38 -82q-26 -21 -66 -21q-28 0 -46 8z" />
    <glyph glyph-name="eacute" unicode="&#xe9;" horiz-adv-x="1082" 
d="M358 419q32 -88 89 -130q63 -47 149 -47q64 0 129 26q17 7 119 57q31 15 67 15q54 0 90 -47q30 -38 30 -76q0 -85 -121 -154q-145 -83 -329 -83q-275 0 -433 191q-114 138 -114 332q0 263 169 420q146 135 346 135q175 0 311 -108q131 -105 174 -285q15 -64 15 -127
q0 -119 -131 -119h-560zM753 624q-19 73 -44 109q-54 79 -152 79q-84 0 -143 -61q-38 -40 -67 -127h406zM433 1363l309 126q17 7 38 7q45 0 74 -32q28 -31 28 -71q0 -35 -22 -64q-14 -18 -56 -36l-302 -124q-19 -8 -46 -8q-47 0 -75 31q-29 31 -29 72t28 69q13 13 53 30z
" />
    <glyph glyph-name="ecircumflex" unicode="&#xea;" horiz-adv-x="1082" 
d="M358 419q32 -88 89 -130q63 -47 149 -47q64 0 129 26q17 7 119 57q31 15 67 15q54 0 90 -47q30 -38 30 -76q0 -85 -121 -154q-145 -83 -329 -83q-275 0 -433 191q-114 138 -114 332q0 263 169 420q146 135 346 135q175 0 311 -108q131 -105 174 -285q15 -64 15 -127
q0 -119 -131 -119h-560zM753 624q-19 73 -44 109q-54 79 -152 79q-84 0 -143 -61q-38 -40 -67 -127h406zM542 1286l-219 -117q-15 -8 -40 -8q-49 0 -79 39q-24 30 -24 66q0 60 68 93l253 127q18 9 42 9q21 0 36 -7l251 -127q72 -37 72 -98q0 -41 -27 -71q-29 -32 -76 -32
q-23 0 -38 8z" />
    <glyph glyph-name="edieresis" unicode="&#xeb;" horiz-adv-x="1082" 
d="M358 419q32 -88 89 -130q63 -47 149 -47q64 0 129 26q17 7 119 57q31 15 67 15q54 0 90 -47q30 -38 30 -76q0 -85 -121 -154q-145 -83 -329 -83q-275 0 -433 191q-114 138 -114 332q0 263 169 420q146 135 346 135q175 0 311 -108q131 -105 174 -285q15 -64 15 -127
q0 -119 -131 -119h-560zM753 624q-19 73 -44 109q-54 79 -152 79q-84 0 -143 -61q-38 -40 -67 -127h406zM321 1472q64 0 109 -50q39 -42 39 -100q0 -67 -50 -112q-42 -38 -100 -38q-67 0 -112 50q-38 42 -38 101q0 65 50 110q42 39 102 39zM765 1472q64 0 109 -50
q39 -42 39 -100q0 -67 -50 -112q-42 -38 -100 -38q-67 0 -111 50q-39 42 -39 101q0 65 50 110q42 39 102 39z" />
    <glyph glyph-name="igrave" unicode="&#xec;" horiz-adv-x="527" 
d="M116 187v664q0 86 20 126q17 33 55 55q35 20 75 20q57 0 101 -38q42 -37 48 -110q1 -10 1 -53v-664q0 -85 -20 -126q-17 -33 -53.5 -54t-76.5 -21q-56 0 -101 39q-42 37 -48 109q-1 10 -1 53zM267 1169l-221 124q-48 28 -61 49q-16 27 -16 55q0 46 35 79q27 24 62 24
q22 0 42 -11l227 -126q43 -24 59 -41q23 -25 23 -62q0 -50 -38 -82q-27 -22 -62 -22q-28 0 -50 13z" />
    <glyph glyph-name="iacute" unicode="&#xed;" horiz-adv-x="527" 
d="M110 187v664q0 85 20 126q17 33 55 55q35 20 75 20q57 0 101 -38q42 -37 48 -110l1 -53v-664q0 -85 -20 -126q-17 -33 -55 -55q-35 -20 -75 -20q-56 0 -101 39q-42 37 -48 109q-1 10 -1 53zM192 1363l227 126q19 11 42 11q40 0 69 -32q28 -31 28 -71q0 -34 -22 -64
q-11 -15 -55 -40l-221 -124q-22 -13 -50 -13q-43 0 -71 31q-29 31 -29 73q0 41 30 68q15 14 52 35z" />
    <glyph glyph-name="icircumflex" unicode="&#xee;" horiz-adv-x="526" 
d="M110 187v664q0 86 20 126q17 33 55 55q35 20 75 20q57 0 101 -38q42 -37 48 -110q1 -10 1 -53v-664q0 -85 -20 -126q-17 -33 -53.5 -54t-76.5 -21q-56 0 -101 39q-42 37 -48 109q-1 10 -1 53zM264 1286l-165 -117q-11 -8 -38 -8q-50 0 -80 39q-24 30 -24 66q0 51 37 74
l229 145q16 10 39 10t39 -10l231 -146q38 -24 38 -75q0 -58 -46 -87q-26 -17 -62 -17q-22 0 -33 8z" />
    <glyph glyph-name="idieresis" unicode="&#xef;" horiz-adv-x="526" 
d="M110 187v664q0 85 20 126q17 33 55 55q35 20 75 20q56 0 101 -38q42 -37 48 -110l1 -53v-664q0 -86 -20 -126q-17 -32 -53.5 -53.5t-76.5 -21.5q-56 0 -100 39q-43 37 -49 109q-1 10 -1 53zM84 1465q61 0 103 -47q37 -40 37 -95q0 -64 -47 -106q-41 -37 -95 -37
q-64 0 -106 47q-37 41 -37 97q0 61 47 104q41 37 98 37zM447 1465q60 0 103 -47q37 -41 37 -95q0 -64 -47 -106q-41 -37 -96 -37q-63 0 -106 47q-36 41 -36 97q0 62 47 104q40 37 98 37z" />
    <glyph glyph-name="eth" unicode="&#xf0;" horiz-adv-x="1078" 
d="M420 1147l-134 -67q-33 -17 -60 -17q-21 0 -38 9q-54 30 -54 92q0 40 33 66q14 10 49 28l53 26q-42 46 -42 94q0 59 43 102q36 36 91 36q74 0 179 -103l141 70q21 11 47 11q45 0 73 -38q23 -32 23 -69q0 -48 -67 -81l-74 -36q153 -147 239 -303q120 -215 120 -435
q0 -240 -135 -388q-74 -83 -181 -126q-92 -38 -187 -38q-142 0 -267 78q-124 78 -186 213q-51 112 -51 243q0 199 111 342q128 166 339 181q17 1 62 4q-22 17 -54 45zM534 779q-90 0 -151 -85q-50 -69 -50 -171q0 -108 50 -178q60 -85 151 -85q81 0 142 64q70 73 70 196
q0 121 -70 195q-60 64 -142 64z" />
    <glyph glyph-name="ntilde" unicode="&#xf1;" horiz-adv-x="1116" 
d="M380 947q65 60 117 82q71 29 161 29q157 0 260 -91q71 -62 92 -136q17 -58 17 -152v-492q0 -86 -20 -126q-16 -32 -55 -55q-35 -20 -75 -20q-56 0 -101 39q-42 37 -48 109l-1 53v421q0 86 -43 135q-49 56 -126 56q-80 0 -129 -60q-41 -51 -41 -118v-434q0 -85 -20 -126
q-17 -33 -55 -55q-35 -20 -75 -20q-56 0 -101 39q-42 37 -48 109q-1 10 -1 53v688q0 83 42 129q44 48 111 48q56 0 94 -33q25 -21 45 -72zM406 1463q53 0 114 -22q16 -6 108 -53q36 -18 70 -18q18 0 32 9q9 6 25 36q26 49 77 49q41 0 67 -31q23 -27 23 -63q0 -87 -80 -146
q-57 -41 -135 -41q-66 0 -155 44q-102 49 -133 49q-26 0 -44 -20q-4 -5 -28 -45q-20 -31 -64 -31q-42 0 -69 29q-20 22 -20 66q0 83 69 138q62 50 143 50z" />
    <glyph glyph-name="ograve" unicode="&#xf2;" horiz-adv-x="1078" 
d="M539 1058q140 0 266 -79q124 -78 186 -212q51 -112 51 -248q0 -227 -134 -375q-75 -83 -182 -126q-92 -38 -186 -38q-143 0 -268 78q-124 78 -186 213q-51 112 -51 255q0 150 68 275q70 129 208 200q109 57 228 57zM534 778q-90 0 -151 -85q-50 -69 -50 -171
q0 -108 50 -178q60 -84 151 -84q81 0 142 64q70 72 70 195q0 122 -70 195q-60 64 -142 64zM585 1169l-302 124q-47 20 -62 45q-16 27 -16 55q0 46 36 79q26 24 66 24q20 0 38 -7l309 -126q44 -19 59 -37q22 -27 22 -62q0 -49 -38 -82q-26 -21 -66 -21q-27 0 -46 8z" />
    <glyph glyph-name="oacute" unicode="&#xf3;" horiz-adv-x="1078" 
d="M539 1058q140 0 266 -79q124 -78 186 -212q51 -112 51 -248q0 -227 -134 -375q-75 -83 -182 -126q-92 -38 -186 -38q-143 0 -268 78q-124 78 -186 213q-51 112 -51 255q0 150 68 275q70 129 208 200q109 57 228 57zM534 778q-90 0 -151 -85q-50 -69 -50 -171
q0 -108 50 -178q60 -84 151 -84q81 0 142 64q70 72 70 195q0 122 -70 195q-60 64 -142 64zM431 1363l309 126q17 7 37 7q46 0 74 -32q28 -31 28 -71q0 -68 -77 -100l-303 -124q-18 -8 -46 -8q-47 0 -75 31q-29 31 -29 72t28 69q13 13 54 30z" />
    <glyph glyph-name="ocircumflex" unicode="&#xf4;" horiz-adv-x="1078" 
d="M539 1058q140 0 266 -79q124 -78 186 -212q51 -112 51 -248q0 -227 -134 -375q-75 -83 -182 -126q-92 -38 -186 -38q-143 0 -268 78q-124 78 -186 213q-51 112 -51 255q0 150 68 275q70 129 208 200q109 57 228 57zM534 778q-90 0 -151 -85q-50 -69 -50 -171
q0 -108 50 -178q60 -84 151 -84q81 0 142 64q70 72 70 195q0 122 -70 195q-60 64 -142 64zM539 1286l-219 -117q-15 -8 -39 -8q-49 0 -79 39q-24 30 -24 66q0 60 67 93l253 127q18 9 42 9q22 0 36 -7l251 -127q73 -37 73 -98q0 -41 -27 -71q-29 -32 -76 -32q-24 0 -38 8z
" />
    <glyph glyph-name="otilde" unicode="&#xf5;" horiz-adv-x="1078" 
d="M539 1058q140 0 266 -79q124 -78 186 -212q51 -112 51 -248q0 -227 -134 -375q-75 -83 -182 -126q-92 -38 -186 -38q-143 0 -268 78q-124 78 -186 213q-51 112 -51 255q0 150 68 275q70 129 208 200q109 57 228 57zM534 778q-90 0 -151 -85q-50 -69 -50 -171
q0 -108 50 -178q60 -84 151 -84q81 0 142 64q70 72 70 195q0 122 -70 195q-60 64 -142 64zM394 1463q52 0 113 -22q16 -6 108 -53q37 -18 70 -18q19 0 32 9q9 6 25 36q26 49 77 49q42 0 67 -31q23 -27 23 -63q0 -88 -80 -146q-57 -41 -134 -41q-67 0 -156 44
q-101 49 -132 49q-27 0 -44 -20q-5 -5 -28 -45q-20 -31 -64 -31q-43 0 -69 29q-20 22 -20 66q0 83 68 138q63 50 144 50z" />
    <glyph glyph-name="odieresis" unicode="&#xf6;" horiz-adv-x="1078" 
d="M539 1058q140 0 266 -79q124 -78 186 -212q51 -112 51 -248q0 -227 -134 -375q-75 -83 -182 -126q-92 -38 -186 -38q-143 0 -268 78q-124 78 -186 213q-51 112 -51 255q0 150 68 275q70 129 208 200q109 57 228 57zM534 778q-90 0 -151 -85q-50 -69 -50 -171
q0 -108 50 -178q60 -84 151 -84q81 0 142 64q70 72 70 195q0 122 -70 195q-60 64 -142 64zM319 1472q64 0 109 -50q39 -42 39 -100q0 -67 -50 -112q-42 -38 -100 -38q-67 0 -112 50q-38 42 -38 101q0 65 50 110q42 39 102 39zM762 1472q64 0 109 -50q39 -42 39 -100
q0 -67 -50 -112q-43 -38 -100 -38q-67 0 -112 50q-38 42 -38 101q0 65 50 110q42 39 102 39z" />
    <glyph glyph-name="divide" unicode="&#xf7;" horiz-adv-x="1092" 
d="M546 467q63 0 108 -45q45 -44 45 -108t-45 -109t-108 -45q-64 0 -109 45t-45 110q0 63 45 107q46 45 109 45zM546 1218q63 0 108 -45t45 -108q0 -64 -45 -109t-108 -45q-64 0 -109 45t-45 110q0 63 45 107q46 45 109 45zM888 595h-693q-54 0 -79 13q-48 24 -48 82t48 82
q25 13 79 13h702q54 0 79 -13q48 -24 48 -82t-47 -82q-26 -13 -89 -13z" />
    <glyph glyph-name="oslash" unicode="&#xf8;" horiz-adv-x="1184" 
d="M863 982l15 16q62 66 112 66q46 0 80 -32q38 -35 38 -87q0 -43 -59 -106l-22 -24q72 -133 72 -291q0 -241 -149 -393q-75 -77 -180 -117q-91 -34 -187 -34q-146 0 -265 79l-12 -13q-61 -65 -111 -65q-46 0 -80 32q-37 35 -37 87q0 43 57 105l20 22q-73 153 -73 292
q0 216 135 367q80 88 190 133q94 39 196 39q128 0 260 -76zM496 261q43 -24 92 -24q117 0 184 95q52 74 52 184q0 47 -12 104zM682 771q-49 28 -94 28q-106 0 -171 -83q-62 -79 -62 -184q0 -45 18 -110z" />
    <glyph glyph-name="ugrave" unicode="&#xf9;" horiz-adv-x="1111" 
d="M1022 851v-446q0 -153 -73 -248q-62 -80 -160 -126q-110 -52 -234 -52q-174 0 -305 93q-102 72 -138 172q-24 68 -24 161v446q0 85 20 126q17 33 55 55q35 20 75 20q57 0 101 -38q42 -37 48 -110l1 -53v-409q0 -63 20 -95q51 -82 147 -82q70 0 119 48q48 46 48 129v409
q0 86 20 126q17 33 55 55q35 20 75 20q57 0 101 -38q42 -37 48 -110q1 -10 1 -53zM602 1169l-303 124q-77 32 -77 100q0 46 35 79q27 24 66 24q21 0 38 -7l309 -126q44 -18 59 -37q22 -27 22 -62q0 -49 -38 -82q-25 -21 -66 -21q-27 0 -45 8z" />
    <glyph glyph-name="uacute" unicode="&#xfa;" horiz-adv-x="1111" 
d="M1022 851v-446q0 -153 -73 -248q-62 -80 -160 -126q-110 -52 -234 -52q-174 0 -305 93q-102 72 -138 172q-24 68 -24 161v446q0 85 20 126q17 33 55 55q35 20 75 20q57 0 101 -38q42 -37 48 -110l1 -53v-409q0 -63 20 -95q51 -82 147 -82q70 0 119 48q48 46 48 129v409
q0 86 20 126q17 33 55 55q35 20 75 20q57 0 101 -38q42 -37 48 -110q1 -10 1 -53zM461 1363l309 126q17 7 37 7q46 0 74 -32q28 -31 28 -71q0 -68 -77 -100l-303 -124q-19 -8 -46 -8q-47 0 -75 31q-29 31 -29 72t28 69q13 13 54 30z" />
    <glyph glyph-name="ucircumflex" unicode="&#xfb;" horiz-adv-x="1111" 
d="M1022 851v-446q0 -153 -73 -248q-62 -80 -160 -126q-110 -52 -234 -52q-174 0 -305 93q-102 72 -138 172q-24 68 -24 161v446q0 85 20 126q17 33 55 55q35 20 75 20q57 0 101 -38q42 -37 48 -110l1 -53v-409q0 -63 20 -95q51 -82 147 -82q70 0 119 48q48 46 48 129v409
q0 86 20 126q17 33 55 55q35 20 75 20q57 0 101 -38q42 -37 48 -110q1 -10 1 -53zM555 1286l-218 -117q-15 -8 -40 -8q-49 0 -79 39q-24 30 -24 66q0 60 67 93l253 127q19 9 43 9q21 0 35 -7l252 -127q72 -37 72 -98q0 -41 -27 -71q-29 -32 -76 -32q-23 0 -38 8z" />
    <glyph glyph-name="udieresis" unicode="&#xfc;" horiz-adv-x="1111" 
d="M1022 851v-446q0 -153 -73 -248q-62 -80 -160 -126q-110 -52 -234 -52q-174 0 -305 93q-102 72 -138 172q-24 68 -24 161v446q0 85 20 126q17 33 55 55q35 20 75 20q57 0 101 -38q42 -37 48 -110l1 -53v-409q0 -63 20 -95q51 -82 147 -82q70 0 119 48q48 46 48 129v409
q0 86 20 126q17 33 55 55q35 20 75 20q57 0 101 -38q42 -37 48 -110q1 -10 1 -53zM335 1472q64 0 109 -50q39 -42 39 -100q0 -67 -50 -112q-42 -38 -100 -38q-67 0 -112 50q-38 42 -38 101q0 65 50 110q42 39 102 39zM779 1472q64 0 109 -50q39 -42 39 -100q0 -67 -50 -112
q-42 -38 -100 -38q-67 0 -112 50q-38 42 -38 101q0 65 50 110q42 39 102 39z" />
    <glyph glyph-name="yacute" unicode="&#xfd;" horiz-adv-x="1018" 
d="M506 466l176 442q32 82 66 112q38 33 95 33t100 -36q53 -45 53 -110q0 -41 -31 -114l-458 -1092q-24 -57 -41 -81q-43 -58 -117 -58q-56 0 -99 37q-51 44 -51 106q0 41 31 113l118 277l-297 702q-30 72 -30 113q0 72 65 117q38 26 86 26q56 0 93 -32q33 -30 65 -110z
M428 1363l309 126q17 7 38 7q45 0 73 -32q28 -31 28 -71q0 -68 -77 -100l-303 -124q-18 -8 -46 -8q-47 0 -75 31q-29 31 -29 72t28 69q13 13 54 30z" />
    <glyph glyph-name="thorn" unicode="&#xfe;" horiz-adv-x="1126" 
d="M388 938q42 61 93 85q76 36 166 36q160 0 280 -116q164 -160 164 -414q0 -234 -136 -397q-128 -152 -328 -152q-79 0 -144 28q-36 15 -95 60v-291q0 -85 -20 -125q-17 -33 -55 -55q-35 -20 -75 -20q-56 0 -101 38q-42 38 -48 110q-1 9 -1 52v1525q0 85 20 125
q17 33 55 55q35 20 75 20q56 0 101 -38q42 -37 48 -110q1 -9 1 -52v-364zM582 779q-85 0 -138 -63q-65 -76 -65 -193q0 -124 65 -200q53 -63 138 -63q93 0 149 77q59 80 59 183q0 104 -59 182q-58 77 -149 77z" />
    <glyph glyph-name="ydieresis" unicode="&#xff;" horiz-adv-x="1018" 
d="M506 466l176 442q32 82 66 112q38 33 95 33t100 -36q53 -45 53 -110q0 -41 -31 -114l-458 -1092q-24 -57 -41 -81q-43 -58 -117 -58q-56 0 -99 37q-51 44 -51 106q0 41 31 113l118 277l-297 702q-30 72 -30 113q0 72 65 117q38 26 86 26q56 0 93 -32q33 -30 65 -110z
M289 1472q64 0 109 -50q39 -42 39 -100q0 -67 -50 -112q-42 -38 -100 -38q-67 0 -112 50q-38 42 -38 101q0 65 50 110q42 39 102 39zM732 1472q64 0 109 -50q39 -42 39 -100q0 -67 -50 -112q-42 -38 -100 -38q-67 0 -112 50q-38 42 -38 101q0 65 50 110q42 39 102 39z" />
    <glyph glyph-name="Amacron" unicode="&#x100;" horiz-adv-x="1243" 
d="M884 261h-525l-33 -119q-23 -84 -56 -121q-40 -45 -103 -45q-53 0 -97 32q-63 45 -63 120q0 37 26 108l357 981q63 175 232 175q168 0 231 -175l357 -981q26 -71 26 -109q0 -84 -77 -129q-39 -22 -83 -22q-64 0 -103 45q-33 37 -56 121zM789 541l-165 519l-166 -519h331z
M393 1753h450q58 0 85 -14q51 -25 51 -88t-51 -89q-27 -14 -85 -14h-450q-58 0 -86 14q-51 26 -51 89q0 38 26 68q29 34 111 34z" />
    <glyph glyph-name="amacron" unicode="&#x101;" horiz-adv-x="1148" 
d="M758 105q-51 -62 -90 -86q-65 -39 -159 -39q-167 0 -297 115q-178 157 -178 429q0 242 157 398q138 136 314 136q100 0 174 -46q32 -21 82 -72q25 59 56 82q41 30 93 30q58 0 103 -42q46 -44 46 -112v-735q0 -83 -46 -132q-42 -45 -105 -45q-105 0 -150 119zM542 778
q-94 0 -152 -72q-56 -72 -56 -184q0 -117 56 -189q58 -73 153 -73q83 0 142 65q66 73 66 196t-64 192q-60 65 -145 65zM363 1411h436q58 0 86 -14q51 -25 51 -88t-51 -89q-28 -14 -86 -14h-436q-58 0 -86 14q-51 26 -51 89q0 38 26 68q29 34 111 34z" />
    <glyph glyph-name="Abreve" unicode="&#x102;" horiz-adv-x="1243" 
d="M884 261h-525l-33 -119q-23 -84 -56 -121q-40 -45 -103 -45q-53 0 -97 32q-63 45 -63 120q0 37 26 108l357 981q63 175 232 175q168 0 231 -175l357 -981q26 -71 26 -109q0 -84 -77 -129q-39 -22 -83 -22q-64 0 -103 45q-33 37 -56 121zM789 541l-165 519l-166 -519h331z
M371 1818q29 0 54 -22q7 -6 60 -63q42 -45 129 -45q73 0 128 34q13 8 66 58q40 37 78 37q40 0 66 -28t26 -74q0 -61 -68 -121q-112 -99 -290 -99q-126 0 -228 57q-127 71 -127 166q0 46 34 74q31 26 72 26z" />
    <glyph glyph-name="abreve" unicode="&#x103;" horiz-adv-x="1148" 
d="M758 105q-51 -62 -90 -86q-65 -39 -159 -39q-167 0 -297 115q-178 157 -178 429q0 242 157 398q138 136 314 136q100 0 174 -46q32 -21 82 -72q25 59 56 82q41 30 93 30q58 0 103 -42q46 -44 46 -112v-735q0 -83 -46 -132q-42 -45 -105 -45q-105 0 -150 119zM542 778
q-94 0 -152 -72q-56 -72 -56 -184q0 -117 56 -189q58 -73 153 -73q83 0 142 65q66 73 66 196t-64 192q-60 65 -145 65zM326 1497q32 0 56 -20q7 -7 49 -67q41 -56 149 -56q80 0 123 33q13 10 62 72q28 37 79 37q39 0 64 -24q27 -26 27 -74q0 -65 -70 -135q-40 -40 -101 -66
q-88 -37 -188 -37q-128 0 -227 57q-77 44 -111 116q-17 35 -17 64q0 47 34 74q31 26 71 26z" />
    <glyph glyph-name="Aogonek" unicode="&#x104;" horiz-adv-x="1243" 
d="M884 261h-525l-33 -119q-23 -84 -56 -121q-40 -45 -103 -45q-53 0 -97 32q-63 45 -63 120q0 37 26 108l357 981q63 175 232 175q168 0 231 -175l357 -981q26 -72 26 -109q0 -47 -27 -84q-16 -21 -56 -44q-39 -32 -46 -43q-16 -26 -16 -48q0 -29 23 -50q17 -16 35 -16
q7 0 41 7q11 2 21 2q23 0 40 -13q24 -18 24 -55q0 -52 -49 -86q-45 -32 -110 -32q-84 0 -133 48q-51 51 -51 131q0 91 89 154q-40 8 -63 41q-21 29 -41 103zM789 541l-165 519l-166 -519h331z" />
    <glyph glyph-name="aogonek" unicode="&#x105;" horiz-adv-x="1148" 
d="M963 -3q-41 -47 -41 -88q0 -31 26 -52q19 -15 39 -15q7 0 45 7q13 2 23 2q26 0 45 -13q27 -18 27 -55q0 -52 -54 -86q-51 -32 -123 -32q-94 0 -147 48q-57 51 -57 129q0 56 31 98q16 21 68 60q-35 18 -53 40q-17 20 -34 65q-51 -62 -90 -86q-65 -39 -159 -39
q-167 0 -297 115q-178 157 -178 429q0 242 157 398q138 136 314 136q100 0 174 -46q32 -21 82 -72q25 59 56 82q41 30 93 30q58 0 103 -42q46 -44 46 -112v-735q0 -79 -46 -132q-22 -25 -50 -34zM542 778q-94 0 -152 -72q-56 -72 -56 -184q0 -117 56 -189q58 -73 153 -73
q83 0 142 65q66 73 66 196t-64 192q-60 65 -145 65z" />
    <glyph glyph-name="Cacute" unicode="&#x106;" horiz-adv-x="1171" 
d="M712 1399q139 0 250 -42q157 -59 157 -178q0 -53 -30 -93q-35 -45 -98 -45q-36 0 -114 31q-85 34 -164 34q-141 0 -227 -85q-118 -117 -118 -342t116 -334q91 -85 231 -85q59 0 86 7.5t132 54.5q37 16 69 16q56 0 94 -47q34 -40 34 -95q0 -94 -97 -152q-130 -78 -317 -78
q-289 0 -473 176q-210 202 -210 546q0 167 64 323q81 198 280 307q148 81 335 81zM573 1697l309 113q14 5 33 5q46 0 76 -28q31 -30 31 -72q0 -72 -78 -101l-302 -111q-22 -8 -46 -8q-47 0 -75 31q-29 31 -29 72q0 70 81 99z" />
    <glyph glyph-name="cacute" unicode="&#x107;" horiz-adv-x="936" 
d="M549 1059q147 0 260 -61q41 -23 66 -68q18 -31 18 -69q0 -59 -40 -102q-32 -34 -79 -34q-29 0 -109 30q-63 24 -108 24q-89 0 -154 -66q-69 -72 -69 -195q0 -125 69 -195q64 -64 160 -64q58 0 121 29q55 26 86 26q59 0 94 -46q31 -41 31 -90q0 -68 -58 -111
q-53 -41 -134.5 -64.5t-166.5 -23.5q-221 0 -365 156q-137 149 -137 387q0 256 157 399q76 69 177 105q91 33 181 33zM401 1363l309 126q17 7 38 7q45 0 74 -32q28 -31 28 -71q0 -34 -22 -64q-14 -18 -56 -36l-302 -124q-19 -8 -46 -8q-47 0 -75 31q-29 31 -29 72t28 69
q13 13 53 30z" />
    <glyph glyph-name="Ccircumflex" unicode="&#x108;" horiz-adv-x="1171" 
d="M712 1399q139 0 250 -42q157 -59 157 -178q0 -53 -30 -93q-35 -45 -98 -45q-36 0 -114 31q-85 34 -164 34q-141 0 -227 -85q-118 -117 -118 -342t116 -334q91 -85 231 -85q59 0 86 7.5t132 54.5q37 16 69 16q56 0 94 -47q34 -40 34 -95q0 -94 -97 -152q-130 -78 -317 -78
q-289 0 -473 176q-210 202 -210 546q0 167 64 323q81 198 280 307q148 81 335 81zM668 1587l-232 -87q-23 -9 -43 -9q-43 0 -75 39q-25 31 -25 67q0 35 24 63q19 21 43 30l267 97q24 9 38 9q12 0 38 -9l260 -88q79 -26 79 -98q0 -44 -32 -74q-33 -31 -75 -31q-14 0 -24 4z
" />
    <glyph glyph-name="Cdotaccent" unicode="&#x10a;" horiz-adv-x="1171" 
d="M712 1399q139 0 250 -42q157 -59 157 -178q0 -53 -30 -93q-35 -45 -98 -45q-36 0 -114 31q-85 34 -164 34q-141 0 -227 -85q-118 -117 -118 -342t116 -334q91 -85 231 -85q59 0 86 7.5t132 54.5q37 16 69 16q56 0 94 -47q34 -40 34 -95q0 -94 -97 -152q-130 -78 -317 -78
q-289 0 -473 176q-210 202 -210 546q0 167 64 323q81 198 280 307q148 81 335 81zM698 1807q63 0 108 -50q39 -42 39 -100q0 -67 -50 -112q-42 -38 -100 -38q-67 0 -112 50q-38 42 -38 101q0 65 50 110q42 39 103 39z" />
    <glyph glyph-name="cdotaccent" unicode="&#x10b;" horiz-adv-x="936" 
d="M549 1059q147 0 260 -61q41 -23 66 -68q18 -31 18 -69q0 -59 -40 -102q-32 -34 -79 -34q-29 0 -109 30q-63 24 -108 24q-89 0 -154 -66q-69 -72 -69 -195q0 -125 69 -195q64 -64 160 -64q58 0 121 29q55 26 86 26q59 0 94 -46q31 -41 31 -90q0 -68 -58 -111
q-53 -41 -134.5 -64.5t-166.5 -23.5q-221 0 -365 156q-137 149 -137 387q0 256 157 399q76 69 177 105q91 33 181 33zM504 1472q64 0 109 -50q39 -42 39 -100q0 -67 -50 -112q-42 -38 -100 -38q-67 0 -112 50q-38 42 -38 101q0 65 50 110q42 39 102 39z" />
    <glyph glyph-name="Ccaron" unicode="&#x10c;" horiz-adv-x="1171" 
d="M712 1399q139 0 250 -42q157 -59 157 -178q0 -53 -30 -93q-35 -45 -98 -45q-36 0 -114 31q-85 34 -164 34q-141 0 -227 -85q-118 -117 -118 -342t116 -334q91 -85 231 -85q59 0 86 7.5t132 54.5q37 16 69 16q56 0 94 -47q34 -40 34 -95q0 -94 -97 -152q-130 -78 -317 -78
q-289 0 -473 176q-210 202 -210 546q0 167 64 323q81 198 280 307q148 81 335 81zM667 1704l219 103q18 9 40 9q49 0 79 -39q24 -31 24 -66q0 -64 -68 -94l-253 -113q-20 -9 -42 -9q-19 0 -36 7l-251 114q-73 33 -73 97q0 41 27 71q30 32 76 32q23 0 39 -7z" />
    <glyph glyph-name="ccaron" unicode="&#x10d;" horiz-adv-x="936" 
d="M549 1059q147 0 260 -61q41 -23 66 -68q18 -31 18 -69q0 -59 -40 -102q-32 -34 -79 -34q-29 0 -109 30q-63 24 -108 24q-89 0 -154 -66q-69 -72 -69 -195q0 -125 69 -195q64 -64 160 -64q58 0 121 29q55 26 86 26q59 0 94 -46q31 -41 31 -90q0 -68 -58 -111
q-53 -41 -134.5 -64.5t-166.5 -23.5q-221 0 -365 156q-137 149 -137 387q0 256 157 399q76 69 177 105q91 33 181 33zM502 1369l219 118q16 8 39 8q49 0 80 -39q23 -30 23 -66q0 -60 -67 -94l-253 -126q-17 -9 -42 -9q-22 0 -36 7l-251 127q-73 37 -73 97q0 41 27 71
q29 32 76 32q25 0 38 -7z" />
    <glyph glyph-name="Dcaron" unicode="&#x10e;" horiz-adv-x="1304" 
d="M95 233v905q0 63 4 89q12 65 66 106q44 32 120 32h38h256q269 0 438 -124q130 -95 194 -255q58 -147 58 -311q0 -228 -103 -395q-99 -161 -274 -232q-123 -50 -266 -48l-306 5q-85 1 -121 14q-41 15 -72 57q-28 38 -32 102v55zM409 273h156q171 0 260 91q109 112 109 320
q0 213 -124 324q-60 54 -137 70q-65 14 -144 14h-120v-819zM596 1704l219 103q18 9 40 9q49 0 79 -39q24 -30 24 -66q0 -64 -68 -94l-253 -113q-20 -9 -42 -9q-19 0 -36 7l-251 114q-72 32 -72 97q0 41 27 71q30 32 76 32q22 0 38 -7z" />
    <glyph glyph-name="dcaron" unicode="&#x10f;" horiz-adv-x="1429" 
d="M746 963v339q0 85 20 125q17 33 55 55q35 20 75 20q56 0 101 -38q42 -37 48 -110l1 -52v-1144q0 -85 -47 -132q-39 -40 -103 -40q-66 0 -104 40q-22 23 -42 79q-45 -62 -96 -88q-73 -37 -163 -37q-213 0 -344 188q-113 164 -113 358q0 168 93 315q76 121 204 178
q89 40 171 40q129 0 244 -96zM543 794q-86 0 -148 -73q-60 -72 -60 -183q0 -118 60 -190q62 -73 149 -73q92 0 148 78q55 78 55 182q0 105 -55 180q-57 79 -149 79zM1154 1235l92 214q22 54 83 54q40 0 70 -28t30 -67q0 -23 -9 -43l-91 -211q-24 -57 -83 -57q-47 0 -78 29
q-27 25 -27 57q0 22 13 52z" />
    <glyph glyph-name="Dcroat" unicode="&#x110;" horiz-adv-x="1359" 
d="M151 565h-27q-54 0 -88 33q-36 36 -36 91q0 63 45 97q32 25 79 25h27v327q0 63 4 89q12 65 66 106q44 32 120 32h38h256q269 0 438 -124q130 -95 194 -255q58 -147 58 -311q0 -228 -103 -395q-99 -161 -274 -232q-123 -50 -266 -48l-306 5q-85 1 -121 14q-41 15 -72 57
q-28 38 -32 102v55v332zM465 565v-292h156q171 0 260 91q109 112 109 320q0 214 -124 324q-60 54 -137 70q-65 14 -144 14h-120v-281h110q106 0 141 -24q46 -31 46 -102q0 -79 -53 -104q-35 -16 -134 -16h-110z" />
    <glyph glyph-name="dcroat" unicode="&#x111;" horiz-adv-x="1195" 
d="M746 1138h-137q-58 0 -85 14q-52 26 -52 89q0 38 26 68q29 34 111 34h137q5 54 20 84q18 34 55 55q35 20 75 20q57 0 101 -38q44 -39 49 -121h13q58 0 85 -14q52 -25 52 -88t-51 -89q-28 -14 -86 -14h-13v-980q0 -85 -47 -132q-39 -40 -103 -40q-66 0 -104 40
q-22 23 -42 79q-45 -62 -96 -88q-73 -37 -163 -37q-213 0 -344 188q-113 164 -113 358q0 168 93 315q76 121 204 178q89 40 171 40q129 0 244 -96v175zM543 794q-86 0 -148 -73q-60 -72 -60 -183q0 -118 60 -190q62 -73 149 -73q92 0 148 78q55 78 55 182q0 105 -55 180
q-57 79 -149 79z" />
    <glyph glyph-name="Emacron" unicode="&#x112;" horiz-adv-x="943" 
d="M409 1085v-260h261q80 0 117 -19q31 -15 51 -51q19 -33 19 -70q0 -38 -19.5 -72t-50.5 -49q-37 -19 -117 -19h-261v-265h293q79 0 116 -19q31 -15 51 -51q19 -33 19 -70q0 -53 -36 -94q-34 -40 -101 -45q-9 -1 -49 -1h-379q-86 0 -123 13q-40 15 -72 57q-29 38 -33 103
v55v909q0 64 4 90q11 64 66 106q44 32 120 32h38h379q79 0 116 -19q31 -15 51 -51q19 -33 19 -70q0 -53 -36 -94q-34 -40 -101 -45q-9 -1 -49 -1h-293zM260 1753h450q58 0 86 -14q51 -25 51 -88t-51 -89q-28 -14 -86 -14h-450q-58 0 -86 14q-51 26 -51 89q0 38 26 68
q29 34 111 34z" />
    <glyph glyph-name="emacron" unicode="&#x113;" horiz-adv-x="1082" 
d="M358 419q32 -88 89 -130q63 -47 149 -47q64 0 129 26q17 7 119 57q31 15 67 15q54 0 90 -47q30 -38 30 -76q0 -85 -121 -154q-145 -83 -329 -83q-275 0 -433 191q-114 138 -114 332q0 263 169 420q146 135 346 135q175 0 311 -108q131 -105 174 -285q15 -64 15 -127
q0 -119 -131 -119h-560zM753 624q-19 73 -44 109q-54 79 -152 79q-84 0 -143 -61q-38 -40 -67 -127h406zM323 1411h436q59 0 86 -14q51 -25 51 -88q0 -64 -51 -89q-28 -14 -86 -14h-436q-58 0 -85 14q-52 26 -52 89q0 38 26 68q29 34 111 34z" />
    <glyph glyph-name="Ebreve" unicode="&#x114;" horiz-adv-x="943" 
d="M409 1085v-260h261q80 0 117 -19q31 -15 51 -51q19 -33 19 -70q0 -38 -19.5 -72t-50.5 -49q-37 -19 -117 -19h-261v-265h293q79 0 116 -19q31 -15 51 -51q19 -33 19 -70q0 -53 -36 -94q-34 -40 -101 -45q-9 -1 -49 -1h-379q-86 0 -123 13q-40 15 -72 57q-29 38 -33 103
v55v909q0 64 4 90q11 64 66 106q44 32 120 32h38h379q79 0 116 -19q31 -15 51 -51q19 -33 19 -70q0 -53 -36 -94q-34 -40 -101 -45q-9 -1 -49 -1h-293zM234 1818q29 0 54 -22q7 -6 60 -63q41 -45 129 -45q73 0 128 34q13 8 66 58q40 37 78 37q40 0 66 -28t26 -74
q0 -61 -68 -121q-113 -99 -290 -99q-127 0 -228 57q-127 71 -127 166q0 47 34 74q31 26 72 26z" />
    <glyph glyph-name="ebreve" unicode="&#x115;" horiz-adv-x="1082" 
d="M358 419q32 -88 89 -130q63 -47 149 -47q64 0 129 26q17 7 119 57q31 15 67 15q54 0 90 -47q30 -38 30 -76q0 -85 -121 -154q-145 -83 -329 -83q-275 0 -433 191q-114 138 -114 332q0 263 169 420q146 135 346 135q175 0 311 -108q131 -105 174 -285q15 -64 15 -127
q0 -119 -131 -119h-560zM753 624q-19 73 -44 109q-54 79 -152 79q-84 0 -143 -61q-38 -40 -67 -127h406zM290 1497q32 0 56 -20q7 -7 49 -67q41 -56 149 -56q80 0 123 33q13 10 62 72q28 37 79 37q39 0 64 -24q27 -26 27 -74q0 -65 -70 -135q-40 -40 -101 -66
q-88 -37 -188 -37q-128 0 -227 57q-77 44 -111 116q-17 35 -17 64q0 47 34 74q31 26 71 26z" />
    <glyph glyph-name="Edotaccent" unicode="&#x116;" horiz-adv-x="943" 
d="M409 1085v-260h261q80 0 117 -19q31 -15 51 -51q19 -33 19 -70q0 -38 -19.5 -72t-50.5 -49q-37 -19 -117 -19h-261v-265h293q79 0 116 -19q31 -15 51 -51q19 -33 19 -70q0 -53 -36 -94q-34 -40 -101 -45q-9 -1 -49 -1h-379q-86 0 -123 13q-40 15 -72 57q-29 38 -33 103
v55v909q0 64 4 90q11 64 66 106q44 32 120 32h38h379q79 0 116 -19q31 -15 51 -51q19 -33 19 -70q0 -53 -36 -94q-34 -40 -101 -45q-9 -1 -49 -1h-293zM487 1807q64 0 109 -50q39 -42 39 -100q0 -67 -50 -112q-42 -38 -100 -38q-67 0 -112 50q-38 42 -38 101q0 65 50 110
q42 39 102 39z" />
    <glyph glyph-name="edotaccent" unicode="&#x117;" horiz-adv-x="1082" 
d="M358 419q32 -88 89 -130q63 -47 149 -47q64 0 129 26q17 7 119 57q31 15 67 15q54 0 90 -47q30 -38 30 -76q0 -85 -121 -154q-145 -83 -329 -83q-275 0 -433 191q-114 138 -114 332q0 263 169 420q146 135 346 135q175 0 311 -108q131 -105 174 -285q15 -64 15 -127
q0 -119 -131 -119h-560zM753 624q-19 73 -44 109q-54 79 -152 79q-84 0 -143 -61q-38 -40 -67 -127h406zM543 1472q64 0 109 -50q39 -42 39 -100q0 -67 -50 -112q-42 -38 -100 -38q-67 0 -112 50q-38 42 -38 101q0 65 50 110q42 39 102 39z" />
    <glyph glyph-name="Eogonek" unicode="&#x118;" horiz-adv-x="943" 
d="M617 0h-294q-86 0 -123 13q-40 15 -72 57q-29 38 -33 103v55v909q0 64 4 90q11 64 66 106q44 32 120 32h38h379q79 0 116 -19q31 -15 51 -51q19 -33 19 -70q0 -53 -36 -94q-34 -40 -101 -45q-9 -1 -49 -1h-293v-260h261q80 0 117 -19q31 -15 51 -51q19 -33 19 -70
q0 -38 -19.5 -72t-50.5 -49q-37 -19 -117 -19h-261v-265h293q79 0 116 -19q30 -15 51 -51q19 -32 19 -66q0 -65 -42 -107q-12 -12 -62 -31q-27 -10 -41 -35q-19 -32 -19 -60q0 -33 26 -54q19 -15 39 -15q7 0 45 7q13 2 23 2q25 0 45 -13q27 -18 27 -55q0 -53 -55 -86
q-51 -32 -122 -32q-94 0 -148 48q-57 51 -57 134q0 82 70 153z" />
    <glyph glyph-name="eogonek" unicode="&#x119;" horiz-adv-x="1082" 
d="M358 419q32 -89 89 -131q63 -47 149 -47q64 0 129 27q17 6 119 57q31 15 69 15q52 0 88 -47q30 -38 30 -78q0 -71 -106 -143q-125 -84 -125 -162q0 -32 26 -53q19 -15 39 -15q7 0 45 7q13 2 23 2q25 0 45 -13q27 -18 27 -55q0 -53 -54 -86q-51 -32 -123 -32
q-122 0 -174 79q-31 46 -31 105q0 61 57 137q-56 -7 -95 -7q-280 0 -437 192q-114 138 -114 331q0 264 169 421q146 135 346 135q175 0 311 -108q131 -105 174 -285q15 -64 15 -127q0 -119 -131 -119h-560zM753 624q-19 73 -44 109q-54 79 -152 79q-84 0 -143 -61
q-38 -40 -67 -127h406z" />
    <glyph glyph-name="Ecaron" unicode="&#x11a;" horiz-adv-x="943" 
d="M409 1085v-260h261q80 0 117 -19q31 -15 51 -51q19 -33 19 -70q0 -38 -19.5 -72t-50.5 -49q-37 -19 -117 -19h-261v-265h293q79 0 116 -19q31 -15 51 -51q19 -33 19 -70q0 -53 -36 -94q-34 -40 -101 -45q-9 -1 -49 -1h-379q-86 0 -123 13q-40 15 -72 57q-29 38 -33 103
v55v909q0 64 4 90q11 64 66 106q44 32 120 32h38h379q79 0 116 -19q31 -15 51 -51q19 -33 19 -70q0 -53 -36 -94q-34 -40 -101 -45q-9 -1 -49 -1h-293zM485 1704l218 103q19 9 40 9q49 0 79 -39q24 -30 24 -66q0 -64 -67 -94l-253 -113q-21 -9 -43 -9q-19 0 -35 7l-252 114
q-72 32 -72 97q0 41 27 71q30 32 76 32q22 0 38 -7z" />
    <glyph glyph-name="ecaron" unicode="&#x11b;" horiz-adv-x="1082" 
d="M358 419q32 -88 89 -130q63 -47 149 -47q64 0 129 26q17 7 119 57q31 15 67 15q54 0 90 -47q30 -38 30 -76q0 -85 -121 -154q-145 -83 -329 -83q-275 0 -433 191q-114 138 -114 332q0 263 169 420q146 135 346 135q175 0 311 -108q131 -105 174 -285q15 -64 15 -127
q0 -119 -131 -119h-560zM753 624q-19 73 -44 109q-54 79 -152 79q-84 0 -143 -61q-38 -40 -67 -127h406zM541 1369l219 118q15 8 39 8q49 0 79 -39q24 -30 24 -66q0 -60 -67 -94l-253 -126q-18 -9 -42 -9q-22 0 -36 7l-251 127q-73 37 -73 97q0 41 27 71q29 32 76 32
q25 0 38 -7z" />
    <glyph glyph-name="Gcircumflex" unicode="&#x11c;" horiz-adv-x="1372" 
d="M1016 528h-151q-79 0 -117 19q-31 15 -51 51q-19 33 -19 70q0 38 20 72t50 49q37 19 117 19h305q80 0 118 -37q50 -48 50 -160q0 -272 -178 -461q-173 -184 -448 -184q-315 0 -506 218q-172 195 -172 491q0 314 194 517q199 207 506 207q206 0 374 -99q138 -81 138 -184
q0 -55 -41 -96q-43 -43 -97 -43q-37 0 -89 27q-11 6 -101 63q-34 21 -94 38q-53 14 -104 14q-149 0 -245 -112q-106 -124 -106 -325q0 -213 115 -338q89 -98 242 -98q145 0 223 104q46 61 67 178zM714 1587l-233 -87q-23 -9 -42 -9q-43 0 -75 39q-25 31 -25 67q0 35 24 63
q19 21 43 30l267 97q24 9 38 9q12 0 38 -9l260 -88q79 -26 79 -98q0 -44 -32 -74q-33 -31 -76 -31q-13 0 -23 4z" />
    <glyph glyph-name="gcircumflex" unicode="&#x11d;" horiz-adv-x="1126" 
d="M748 940q33 63 63 85q37 27 82 27q61 0 103 -44q42 -45 42 -121v-794q0 -232 -125 -368q-142 -153 -408 -153q-203 0 -360 86q-92 50 -92 135q0 57 42 93q42 38 95 38q26 0 49 -8l85 -29q104 -35 185 -35q151 0 205 99q25 47 34 165q-57 -71 -101 -98q-63 -38 -151 -38
q-127 0 -237 68q-126 78 -183 226q-42 109 -42 237q0 266 165 424q130 124 300 124q97 0 169 -48q32 -21 80 -71zM536 779q-79 0 -134 -57q-67 -71 -67 -202q0 -123 60 -192q59 -68 144 -68q84 0 139 64q64 75 64 194q0 126 -70 202q-55 59 -136 59zM536 1266l-232 -87
q-24 -9 -43 -9q-43 0 -75 39q-25 31 -25 67q0 35 24 63q19 21 43 30l267 97q27 10 38 10q9 0 38 -10l260 -87q79 -27 79 -99q0 -44 -32 -74q-33 -31 -75 -31q-13 0 -24 4z" />
    <glyph glyph-name="Gbreve" unicode="&#x11e;" horiz-adv-x="1372" 
d="M1016 528h-151q-79 0 -117 19q-31 15 -51 51q-19 33 -19 70q0 38 20 72t50 49q37 19 117 19h305q80 0 118 -37q50 -48 50 -160q0 -272 -178 -461q-173 -184 -448 -184q-315 0 -506 218q-172 195 -172 491q0 314 194 517q199 207 506 207q206 0 374 -99q138 -81 138 -184
q0 -55 -41 -96q-43 -43 -97 -43q-37 0 -89 27q-11 6 -101 63q-34 21 -94 38q-53 14 -104 14q-149 0 -245 -112q-106 -124 -106 -325q0 -213 115 -338q89 -98 242 -98q145 0 223 104q46 61 67 178zM442 1818q29 0 54 -22q7 -6 60 -63q42 -45 130 -45q72 0 127 34q13 8 66 58
q40 37 78 37q40 0 66 -28t26 -74q0 -61 -68 -121q-113 -99 -290 -99q-127 0 -228 57q-127 71 -127 166q0 47 34 74q31 26 72 26z" />
    <glyph glyph-name="gbreve" unicode="&#x11f;" horiz-adv-x="1126" 
d="M748 940q33 63 63 85q37 27 82 27q61 0 103 -44q42 -45 42 -121v-794q0 -232 -125 -368q-142 -153 -408 -153q-203 0 -360 86q-92 50 -92 135q0 57 42 93q42 38 95 38q26 0 49 -8l85 -29q104 -35 185 -35q151 0 205 99q25 47 34 165q-57 -71 -101 -98q-63 -38 -151 -38
q-127 0 -237 68q-126 78 -183 226q-42 109 -42 237q0 266 165 424q130 124 300 124q97 0 169 -48q32 -21 80 -71zM536 779q-79 0 -134 -57q-67 -71 -67 -202q0 -123 60 -192q59 -68 144 -68q84 0 139 64q64 75 64 194q0 126 -70 202q-55 59 -136 59zM311 1497q32 0 56 -20
q7 -7 49 -67q41 -56 149 -56q80 0 123 33q13 10 62 72q28 37 79 37q39 0 64 -24q27 -26 27 -74q0 -65 -70 -135q-40 -40 -101 -66q-88 -37 -188 -37q-128 0 -227 57q-77 44 -111 116q-17 35 -17 64q0 47 34 74q31 26 71 26z" />
    <glyph glyph-name="Gdotaccent" unicode="&#x120;" horiz-adv-x="1372" 
d="M1016 528h-151q-79 0 -117 19q-31 15 -51 51q-19 33 -19 70q0 38 20 72t50 49q37 19 117 19h305q80 0 118 -37q50 -48 50 -160q0 -272 -178 -461q-173 -184 -448 -184q-315 0 -506 218q-172 195 -172 491q0 314 194 517q199 207 506 207q206 0 374 -99q138 -81 138 -184
q0 -55 -41 -96q-43 -43 -97 -43q-37 0 -89 27q-11 6 -101 63q-34 21 -94 38q-53 14 -104 14q-149 0 -245 -112q-106 -124 -106 -325q0 -213 115 -338q89 -98 242 -98q145 0 223 104q46 61 67 178zM715 1807q64 0 109 -50q39 -42 39 -100q0 -67 -50 -112q-42 -38 -100 -38
q-67 0 -112 50q-38 42 -38 101q0 65 50 110q42 39 102 39z" />
    <glyph glyph-name="gdotaccent" unicode="&#x121;" horiz-adv-x="1126" 
d="M748 940q33 63 63 85q37 27 82 27q61 0 103 -44q42 -45 42 -121v-794q0 -232 -125 -368q-142 -153 -408 -153q-203 0 -360 86q-92 50 -92 135q0 57 42 93q42 38 95 38q26 0 49 -8l85 -29q104 -35 185 -35q151 0 205 99q25 47 34 165q-57 -71 -101 -98q-63 -38 -151 -38
q-127 0 -237 68q-126 78 -183 226q-42 109 -42 237q0 266 165 424q130 124 300 124q97 0 169 -48q32 -21 80 -71zM536 779q-79 0 -134 -57q-67 -71 -67 -202q0 -123 60 -192q59 -68 144 -68q84 0 139 64q64 75 64 194q0 126 -70 202q-55 59 -136 59zM538 1472q64 0 109 -50
q39 -42 39 -100q0 -67 -50 -112q-42 -38 -100 -38q-67 0 -112 50q-38 42 -38 101q0 65 50 110q42 39 102 39z" />
    <glyph glyph-name="Gcommaaccent" unicode="&#x122;" horiz-adv-x="1372" 
d="M1016 528h-151q-79 0 -117 19q-31 15 -51 51q-19 33 -19 70q0 38 20 72t50 49q37 19 117 19h305q80 0 118 -37q50 -48 50 -160q0 -272 -178 -461q-173 -184 -448 -184q-315 0 -506 218q-172 195 -172 491q0 314 194 517q199 207 506 207q206 0 374 -99q138 -81 138 -184
q0 -55 -41 -96q-43 -43 -97 -43q-37 0 -89 27q-11 6 -101 63q-34 21 -94 38q-53 14 -104 14q-149 0 -245 -112q-106 -124 -106 -325q0 -213 115 -338q89 -98 242 -98q145 0 223 104q46 61 67 178zM508 -383l96 221q23 54 88 54q39 0 70 -28q30 -28 30 -67q0 -22 -9 -43
l-95 -218q-25 -57 -85 -57q-46 0 -77 28q-27 23 -27 64q0 24 9 46z" />
    <glyph glyph-name="gcommaaccent" unicode="&#x123;" horiz-adv-x="1126" 
d="M748 940q33 63 63 85q37 27 82 27q61 0 103 -44q42 -45 42 -121v-794q0 -232 -125 -368q-142 -153 -408 -153q-203 0 -360 86q-92 50 -92 135q0 57 42 93q42 38 95 38q26 0 49 -8l85 -29q104 -35 185 -35q151 0 205 99q25 47 34 165q-57 -71 -101 -98q-63 -38 -151 -38
q-127 0 -237 68q-126 78 -183 226q-42 109 -42 237q0 266 165 424q130 124 300 124q97 0 169 -48q32 -21 80 -71zM536 779q-79 0 -134 -57q-67 -71 -67 -202q0 -123 60 -192q59 -68 144 -68q84 0 139 64q64 75 64 194q0 126 -70 202q-55 59 -136 59zM467 1291l83 195
q22 54 83 54q40 0 70 -28t30 -67q0 -23 -9 -44l-81 -190q-24 -57 -84 -57q-46 0 -77 29q-27 25 -27 57q0 22 12 51z" />
    <glyph glyph-name="Hcircumflex" unicode="&#x124;" horiz-adv-x="1399" 
d="M989 560h-580v-371q0 -89 -21 -131q-17 -34 -57 -57q-37 -21 -79 -21q-59 0 -105 40q-45 39 -51 114l-1 55v987q0 89 21 131q18 34 58 57q36 21 78 21q59 0 105 -40q45 -39 51 -114q1 -10 1 -55v-336h580v336q0 89 21 131q18 34 58 57q36 21 78 21q59 0 105 -40
q45 -39 51 -114q1 -10 1 -55v-987q0 -89 -21 -131q-17 -34 -57 -57q-37 -21 -79 -21q-59 0 -105 40q-45 39 -51 114l-1 55v371zM700 1587l-233 -87q-23 -9 -42 -9q-43 0 -75 39q-25 31 -25 67q0 35 24 63q19 21 43 30l267 97q24 9 38 9q12 0 38 -9l260 -88q79 -26 79 -98
q0 -44 -32 -74q-33 -31 -76 -31q-13 0 -23 4z" />
    <glyph glyph-name="Hbar" unicode="&#x126;" horiz-adv-x="1399" 
d="M95 1002q-36 4 -54 14q-52 28 -52 89t51 88q19 10 55 14q1 63 21 100q19 35 57 57q37 21 79 21q60 0 105 -40q51 -44 52 -138h580q1 63 21 100q19 35 57 57q37 21 79 21q60 0 105 -40q51 -44 52 -138q106 -12 106 -102q0 -61 -51 -89q-19 -10 -55 -14v-813
q0 -89 -21 -131q-17 -34 -57 -57q-37 -21 -79 -21q-59 0 -105 40q-45 39 -51 114l-1 55v371h-580v-371q0 -89 -21 -131q-17 -34 -55.5 -56t-80.5 -22q-59 0 -105 40q-45 39 -51 114l-1 55v813zM409 1002v-162h580v162h-580z" />
    <glyph glyph-name="hbar" unicode="&#x127;" horiz-adv-x="1120" 
d="M88 1138q-29 3 -43 9q-26 10 -43 33q-19 28 -19 61q0 88 105 102q3 50 20 84q17 33 55 55q35 20 75 20q57 0 101 -38q43 -39 49 -121h181q59 0 86 -14q23 -11 38 -37q14 -24 14 -52q0 -45 -34 -76q-28 -26 -81 -26h-23h-181v-167q144 87 277 87q160 0 265 -100
q67 -63 88 -145q14 -58 14 -136v-490q0 -85 -20 -126q-17 -33 -55 -55q-35 -20 -75 -20q-56 0 -100 39q-43 37 -49 109l-1 53v405q0 97 -42 148q-49 59 -126 59q-82 0 -134 -62q-42 -50 -42 -125v-425q0 -85 -20 -126q-17 -33 -53.5 -54t-76.5 -21q-56 0 -101 39
q-42 37 -48 109q-1 10 -1 53v951z" />
    <glyph glyph-name="Imacron" unicode="&#x12a;" horiz-adv-x="504" 
d="M95 189v987q0 89 21 131q18 34 58 57q36 21 78 21q59 0 105 -40q45 -39 51 -114q1 -10 1 -55v-987q0 -89 -21 -131q-17 -34 -55.5 -56t-80.5 -22q-59 0 -105 40q-45 39 -51 114q-1 10 -1 55zM82 1753h341q58 0 85 -14q51 -25 51 -88t-51 -89q-27 -14 -85 -14h-341
q-58 0 -86 14q-51 26 -51 89q0 38 26 68q29 34 111 34z" />
    <glyph glyph-name="imacron" unicode="&#x12b;" horiz-adv-x="526" 
d="M110 187v664q0 85 20 126q17 33 55 55q35 20 75 20q56 0 101 -38q42 -37 48 -110l1 -53v-664q0 -86 -20 -126q-16 -32 -53 -53.5t-77 -21.5q-56 0 -101 39q-42 37 -48 109zM120 1411h286q58 0 86 -14q22 -11 37 -37q14 -24 14 -51q0 -63 -51 -89q-28 -14 -86 -14h-286
q-58 0 -86 14q-51 26 -51 89q0 38 26 68q29 34 111 34z" />
    <glyph glyph-name="ibreve" unicode="&#x12d;" horiz-adv-x="526" 
d="M111 187v664q0 85 20 126q17 33 55 55q35 20 75 20q57 0 101 -38q42 -37 48 -110q1 -10 1 -53v-664q0 -85 -20 -126q-17 -33 -53.5 -54t-76.5 -21q-56 0 -100 39q-43 37 -49 109zM60 1481q27 0 65 -47q60 -74 136 -74q63 0 119 56q54 54 70 60q10 4 20 4q27 0 49 -26
q27 -32 27 -78q0 -41 -38 -90q-37 -46 -91 -77q-75 -43 -156 -43q-112 0 -202 75q-83 68 -83 136q0 45 27 77q24 27 57 27z" />
    <glyph glyph-name="Iogonek" unicode="&#x12e;" horiz-adv-x="504" 
d="M182 0q-48 20 -66 58q-21 46 -21 131v987q0 89 21 131q18 34 58 57q36 21 78 21q59 0 105 -40q45 -39 51 -114q1 -10 1 -55v-987q0 -80 -13 -113q-10 -28 -26 -45q-9 -9 -39 -31q-52 -37 -52 -89q0 -33 26 -54q19 -15 39 -15q7 0 46 7q12 2 22 2q26 0 45 -13
q27 -18 27 -55q0 -53 -54 -86q-51 -32 -123 -32q-94 0 -148 48q-57 51 -57 133q0 94 80 154z" />
    <glyph glyph-name="iogonek" unicode="&#x12f;" horiz-adv-x="526" 
d="M239 -12q-58 13 -93 52q-35 40 -35 147v665q0 84 20 125q17 33 55 55q35 20 75 20q56 0 101 -38q42 -37 48 -110q1 -10 1 -52v-665q0 -59 -7 -89q-7 -31 -36 -67q-46 -56 -46 -114q0 -74 57 -74q6 0 36 7q9 2 19 2q20 0 35 -13q22 -18 22 -55q0 -52 -43 -86
q-40 -32 -99 -32q-83 0 -131 48q-45 45 -45 118q0 71 37 119q25 31 29 37zM264 1501q75 0 127 -58q45 -50 45 -117q0 -78 -58 -130q-50 -45 -117 -45q-78 0 -130 58q-45 50 -45 118q0 76 58 129q49 45 120 45z" />
    <glyph glyph-name="Idotaccent" unicode="&#x130;" horiz-adv-x="504" 
d="M95 189v987q0 89 21 131q18 34 58 57q36 21 78 21q59 0 105 -40q45 -39 51 -114q1 -10 1 -55v-987q0 -89 -21 -131q-17 -34 -57 -57q-37 -21 -79 -21q-59 0 -105 40q-45 39 -51 114zM254 1807q64 0 109 -50q39 -42 39 -100q0 -67 -50 -112q-42 -38 -100 -38
q-67 0 -112 50q-38 42 -38 101q0 65 50 110q42 39 102 39z" />
    <glyph glyph-name="dotlessi" unicode="&#x131;" horiz-adv-x="526" 
d="M110 187v664q0 85 20 126q17 33 55 55q35 20 75 20q57 0 101 -38q42 -37 48 -110l1 -53v-664q0 -85 -20 -126q-17 -33 -55 -55q-35 -20 -75 -20q-56 0 -101 39q-42 37 -48 109q-1 10 -1 53z" />
    <glyph glyph-name="IJ" unicode="&#x132;" horiz-adv-x="1334" 
d="M95 189v987q0 89 21 131q18 34 58 57q36 21 78 21q59 0 105 -40q45 -39 51 -114q1 -10 1 -55v-987q0 -89 -21 -131q-17 -34 -57 -57q-37 -21 -79 -21q-59 0 -105 40q-45 39 -51 114zM1239 1176v-742q0 -152 -31 -240q-45 -127 -158 -183q-92 -45 -212 -45q-156 0 -267 68
q-94 59 -94 147q0 64 47 109q39 38 101 38q39 0 98 -34q60 -35 96 -35q106 0 106 175v742q0 89 21 131q18 34 57 57q37 21 79 21q59 0 105 -40q45 -39 51 -114q1 -10 1 -55z" />
    <glyph glyph-name="ij" unicode="&#x133;" horiz-adv-x="1056" 
d="M267 1501q75 0 127 -58q45 -50 45 -117q0 -78 -58 -130q-50 -45 -117 -45q-78 0 -130 58q-45 50 -45 118q0 76 58 129q49 45 120 45zM111 187v664q0 85 20 126q17 33 55 55q35 20 75 20q56 0 101 -38q42 -37 48 -110l1 -53v-664q0 -86 -20 -126q-16 -32 -55 -55
q-35 -20 -75 -20q-56 0 -101 39q-42 37 -48 109zM795 1501q75 0 127 -58q45 -50 45 -117q0 -78 -58 -130q-50 -45 -117 -45q-78 0 -130 58q-45 50 -45 118q0 76 58 129q49 45 120 45zM650 -223v1074q0 85 20 126q17 33 55 55q35 20 75 20q57 0 101 -38q42 -37 48 -110l1 -53
v-1074q0 -85 -20 -125q-17 -33 -55 -55q-35 -20 -75 -20q-56 0 -101 38q-42 38 -48 110q-1 10 -1 52z" />
    <glyph glyph-name="Kcommaaccent" unicode="&#x136;" horiz-adv-x="1229" 
d="M409 613v-424q0 -89 -21 -131q-17 -34 -57 -57q-37 -21 -79 -21q-59 0 -105 40q-45 39 -51 114l-1 55v987q0 89 21 131q18 34 58 57q36 21 78 21q59 0 105 -40q45 -39 51 -114q1 -10 1 -55v-349l403 452q44 48 66 65q53 42 105 42q60 0 106 -46q40 -40 40 -106
q0 -59 -41 -111q-11 -15 -52 -56l-329 -334l416 -441q44 -47 60 -70q28 -43 28 -95q0 -70 -43 -111q-40 -37 -103 -37q-65 0 -119 48q-14 12 -53 55zM464 -383l96 221q23 54 88 54q39 0 69 -28t30 -67q0 -24 -9 -43l-94 -218q-25 -57 -85 -57q-47 0 -78 28q-27 23 -27 64
q0 23 10 46z" />
    <glyph glyph-name="kcommaaccent" unicode="&#x137;" horiz-adv-x="1041" 
d="M388 493v-306q0 -85 -20 -126q-17 -33 -55 -55q-35 -20 -75 -20q-56 0 -101 39q-42 37 -48 109q-1 10 -1 53v1115q0 85 20 125q17 33 55 55q35 20 75 20q56 0 101 -38q42 -37 48 -110q1 -9 1 -52v-605l276 283q77 79 138 79t104 -44q43 -43 43 -106q0 -58 -81 -135
l-188 -180l263 -327q65 -80 65 -133q0 -71 -57 -117q-41 -32 -96 -32q-53 0 -100 43q-14 13 -46 54zM369 -349l83 194q23 54 83 54q40 0 70 -28t30 -67q0 -23 -9 -44l-81 -190q-24 -57 -84 -57q-46 0 -77 29q-27 25 -27 57q0 22 12 52z" />
    <glyph glyph-name="kgreenlandic" unicode="&#x138;" horiz-adv-x="1041" 
d="M388 493v-306q0 -85 -20 -126q-17 -33 -55 -55q-35 -20 -75 -20q-56 0 -101 39q-42 37 -48 109q-1 10 -1 53v664q0 85 20 126q17 33 55 55q35 20 75 20q57 0 101 -38q42 -37 48 -110l1 -53v-154l276 283q77 79 138 79t104 -44q43 -43 43 -106q0 -58 -81 -135l-188 -180
l263 -327q65 -80 65 -133q0 -71 -57 -117q-41 -32 -96 -32q-53 0 -100 43q-14 13 -46 54z" />
    <glyph glyph-name="Lacute" unicode="&#x139;" horiz-adv-x="848" 
d="M409 280h293q79 0 116 -19q31 -15 51 -51q19 -33 19 -70q0 -53 -36 -94q-34 -40 -101 -45q-9 -1 -49 -1h-370q-89 0 -127 14q-43 15 -76 59q-30 39 -34 107v57v939q0 89 21 131q18 34 58 57q36 21 78 21q59 0 105 -40q45 -39 51 -114l1 -55v-896zM206 1697l309 113
q14 5 33 5q46 0 76 -28q31 -30 31 -72q0 -72 -78 -101l-302 -111q-22 -8 -46 -8q-47 0 -75 31q-29 31 -29 72q0 70 81 99z" />
    <glyph glyph-name="lacute" unicode="&#x13a;" horiz-adv-x="477" 
d="M389 1302v-1115q0 -86 -20 -126q-17 -33 -55 -55q-35 -20 -75 -20q-56 0 -100 39q-43 37 -49 109l-1 53v1115q0 85 20 125q17 33 55 55q35 20 75 20q57 0 101 -38q42 -37 48 -110q1 -9 1 -52zM171 1778l240 113q11 5 33 5q46 0 76 -28q31 -30 31 -73q0 -34 -21 -62
q-14 -18 -57 -38l-234 -111q-17 -8 -44 -8q-49 0 -77 31q-29 31 -29 72q0 39 28 70q7 7 54 29z" />
    <glyph glyph-name="Lcommaaccent" unicode="&#x13b;" horiz-adv-x="848" 
d="M409 280h293q79 0 116 -19q31 -15 51 -51q19 -33 19 -70q0 -53 -36 -94q-34 -40 -101 -45q-9 -1 -49 -1h-370q-89 0 -127 14q-43 15 -76 59q-30 39 -34 107v57v939q0 89 21 131q18 34 58 57q36 21 78 21q59 0 105 -40q45 -39 51 -114l1 -55v-896zM300 -383l96 221
q24 54 88 54q39 0 70 -28q30 -28 30 -67q0 -23 -9 -43l-95 -218q-25 -57 -84 -57q-47 0 -78 28q-27 23 -27 64q0 24 9 46z" />
    <glyph glyph-name="lcommaaccent" unicode="&#x13c;" horiz-adv-x="477" 
d="M388 1302v-1115q0 -86 -20 -126q-17 -32 -55 -55q-35 -20 -75 -20q-56 0 -100 39q-43 37 -49 109l-1 53v1115q0 85 20 125q17 33 55 55q35 20 75 20q56 0 101 -38q42 -37 48 -110zM74 -349l83 194q23 54 83 54q40 0 70 -28t30 -67q0 -23 -9 -44l-81 -190q-24 -57 -84 -57
q-46 0 -77 29q-27 25 -27 57q0 22 12 52z" />
    <glyph glyph-name="Lcaron" unicode="&#x13d;" horiz-adv-x="848" 
d="M409 280h293q79 0 116 -19q31 -15 51 -51q19 -33 19 -70q0 -53 -36 -94q-34 -40 -101 -45q-9 -1 -49 -1h-370q-89 0 -127 14q-43 15 -76 59q-30 39 -34 107v57v939q0 89 21 131q18 34 58 57q36 21 78 21q59 0 105 -40q45 -39 51 -114l1 -55v-896zM532 1095l96 235
q23 56 81 56q44 0 78 -30q29 -26 29 -67q0 -22 -9 -44l-95 -231q-23 -58 -77 -58q-33 0 -61 13q-52 24 -52 77q0 23 10 49z" />
    <glyph glyph-name="lcaron" unicode="&#x13e;" horiz-adv-x="772" 
d="M388 1302v-1115q0 -86 -20 -126q-17 -33 -55 -55q-35 -20 -75 -20q-56 0 -100 39q-43 37 -49 109l-1 53v1115q0 85 20 125q17 33 55 55q35 20 75 20q57 0 101 -38q42 -37 48 -110q1 -9 1 -52zM496 1235l92 214q23 54 84 54q40 0 70 -28t30 -67q0 -22 -9 -43l-91 -211
q-24 -57 -84 -57q-46 0 -77 29q-27 25 -27 57q0 22 12 52z" />
    <glyph glyph-name="Ldot" unicode="&#x13f;" horiz-adv-x="848" 
d="M409 280h293q79 0 116 -19q31 -15 51 -51q19 -33 19 -70q0 -53 -36 -94q-34 -40 -101 -45q-9 -1 -49 -1h-370q-89 0 -127 14q-43 15 -76 59q-30 39 -34 107v57v939q0 89 21 131q18 34 58 57q36 21 78 21q59 0 105 -40q45 -39 51 -114l1 -55v-896zM679 897q79 0 135 -61
q47 -53 47 -123q0 -83 -61 -138q-53 -47 -124 -47q-82 0 -137 61q-47 53 -47 125q0 80 61 136q52 47 126 47z" />
    <glyph glyph-name="ldot" unicode="&#x140;" horiz-adv-x="859" 
d="M388 1302v-1115q0 -86 -20 -126q-17 -33 -55 -55q-35 -20 -75 -20q-56 0 -100 39q-43 37 -49 109l-1 53v1115q0 85 20 125q17 33 55 55q35 20 75 20q57 0 101 -38q42 -37 48 -110q1 -9 1 -52zM671 779q72 0 122 -55q43 -48 43 -112q0 -75 -55 -125q-48 -43 -112 -43
q-75 0 -125 55q-43 48 -43 114q0 72 56 123q47 43 114 43z" />
    <glyph glyph-name="Lslash" unicode="&#x141;" horiz-adv-x="892" 
d="M139 456q-22 -13 -38 -13q-26 0 -51 17q-50 35 -50 101q0 47 31 79q14 15 47 37l61 39v460q0 89 21 131q18 34 57 57q37 21 79 21q59 0 105 -40q45 -39 51 -114l1 -55v-321l121 79q29 18 61 18q39 0 70 -27q39 -34 39 -87q0 -39 -18 -64q-18 -28 -66 -58l-207 -133v-303
h293q79 0 116 -19q31 -15 51 -51q19 -33 19 -70q0 -53 -36 -94q-34 -40 -102 -45q-8 -1 -48 -1h-370q-89 0 -127 14q-43 15 -76 59q-30 39 -34 107v57v219z" />
    <glyph glyph-name="lslash" unicode="&#x142;" horiz-adv-x="569" 
d="M434 990q24 16 43 16q30 0 53 -18q39 -30 39 -88q0 -45 -29 -74q-11 -12 -47 -35l-59 -38v-566q0 -86 -20 -126q-17 -32 -53.5 -53.5t-76.5 -21.5q-56 0 -100 39q-43 37 -49 109q-1 10 -1 53v449q-25 -12 -43 -12q-39 0 -65 29q-26 30 -26 74q0 45 31 74q12 12 44 33
l59 38v430q0 85 20 125q17 33 55 55q35 20 75 20q56 0 101 -38q42 -37 48 -110l1 -52v-312z" />
    <glyph glyph-name="Nacute" unicode="&#x143;" horiz-adv-x="1394" 
d="M409 827v-638q0 -89 -21 -131q-17 -34 -57 -57q-37 -21 -79 -21q-59 0 -105 40q-45 39 -51 114l-1 55v1036q0 69 41 115q41 45 115 45t129 -69l604 -759v619q0 89 21 131q18 34 57 57q37 21 79 21q59 0 105 -40q45 -39 51 -114q1 -10 1 -55v-1017q0 -67 -18 -98
q-46 -81 -132 -81q-57 0 -99 38q-12 10 -62 75zM602 1697l309 113q14 5 33 5q45 0 75 -28q31 -29 31 -72q0 -73 -77 -101l-303 -111q-21 -8 -46 -8q-46 0 -74 31q-29 31 -29 72q0 70 81 99z" />
    <glyph glyph-name="nacute" unicode="&#x144;" horiz-adv-x="1116" 
d="M380 947q65 60 117 82q71 29 161 29q157 0 260 -91q71 -62 92 -136q17 -58 17 -152v-492q0 -86 -20 -126q-16 -32 -55 -55q-35 -20 -75 -20q-56 0 -101 39q-42 37 -48 109l-1 53v421q0 86 -43 135q-49 56 -126 56q-80 0 -129 -60q-41 -51 -41 -118v-434q0 -85 -20 -126
q-17 -33 -55 -55q-35 -20 -75 -20q-56 0 -101 39q-42 37 -48 109q-1 10 -1 53v688q0 83 42 129q44 48 111 48q56 0 94 -33q25 -21 45 -72zM450 1363l309 126q17 7 37 7q46 0 74 -32q28 -31 28 -71q0 -68 -77 -100l-303 -124q-18 -8 -46 -8q-47 0 -75 31q-29 31 -29 72t28 69
q13 13 54 30z" />
    <glyph glyph-name="Ncommaaccent" unicode="&#x145;" horiz-adv-x="1394" 
d="M409 827v-638q0 -89 -21 -131q-17 -34 -57 -57q-37 -21 -79 -21q-59 0 -105 40q-45 39 -51 114l-1 55v1036q0 69 41 115q41 45 115 45t129 -69l604 -759v619q0 89 21 131q18 34 57 57q37 21 79 21q59 0 105 -40q45 -39 51 -114q1 -10 1 -55v-1017q0 -67 -18 -98
q-46 -81 -132 -81q-57 0 -99 38q-12 10 -62 75zM532 -383l96 221q24 54 88 54q40 0 70 -28t30 -67q0 -23 -9 -43l-95 -218q-24 -57 -84 -57q-47 0 -78 28q-27 23 -27 64q0 24 9 46z" />
    <glyph glyph-name="ncommaaccent" unicode="&#x146;" horiz-adv-x="1116" 
d="M380 947q65 60 117 82q71 29 161 29q157 0 260 -91q71 -62 92 -136q17 -58 17 -152v-492q0 -86 -20 -126q-16 -32 -55 -55q-35 -20 -75 -20q-56 0 -101 39q-42 37 -48 109l-1 53v421q0 86 -43 135q-49 56 -126 56q-80 0 -129 -60q-41 -51 -41 -118v-434q0 -85 -20 -126
q-17 -33 -55 -55q-35 -20 -75 -20q-56 0 -101 39q-42 37 -48 109q-1 10 -1 53v688q0 83 42 129q44 48 111 48q56 0 94 -33q25 -21 45 -72zM387 -349l82 194q23 54 84 54q40 0 70 -28t30 -67q0 -22 -9 -44l-82 -190q-24 -57 -84 -57q-46 0 -77 29q-27 25 -27 57q0 22 13 52z
" />
    <glyph glyph-name="Ncaron" unicode="&#x147;" horiz-adv-x="1394" 
d="M409 827v-638q0 -89 -21 -131q-17 -34 -57 -57q-37 -21 -79 -21q-59 0 -105 40q-45 39 -51 114l-1 55v1036q0 69 41 115q41 45 115 45t129 -69l604 -759v619q0 89 21 131q18 34 57 57q37 21 79 21q59 0 105 -40q45 -39 51 -114q1 -10 1 -55v-1017q0 -67 -18 -98
q-46 -81 -132 -81q-57 0 -99 38q-12 10 -62 75zM683 1704l218 103q19 9 40 9q49 0 79 -39q24 -30 24 -66q0 -64 -67 -94l-253 -113q-21 -9 -43 -9q-19 0 -35 7l-252 114q-72 32 -72 97q0 41 27 71q30 32 76 32q22 0 38 -7z" />
    <glyph glyph-name="ncaron" unicode="&#x148;" horiz-adv-x="1116" 
d="M380 947q65 60 117 82q71 29 161 29q157 0 260 -91q71 -62 92 -136q17 -58 17 -152v-492q0 -86 -20 -126q-16 -32 -55 -55q-35 -20 -75 -20q-56 0 -101 39q-42 37 -48 109l-1 53v421q0 86 -43 135q-49 56 -126 56q-80 0 -129 -60q-41 -51 -41 -118v-434q0 -85 -20 -126
q-17 -33 -55 -55q-35 -20 -75 -20q-56 0 -101 39q-42 37 -48 109q-1 10 -1 53v688q0 83 42 129q44 48 111 48q56 0 94 -33q25 -21 45 -72zM550 1369l219 118q16 8 40 8q49 0 79 -39q24 -30 24 -66q0 -60 -67 -94l-253 -126q-18 -9 -43 -9q-22 0 -36 7l-251 127
q-72 36 -72 97q0 41 27 71q29 32 76 32q24 0 38 -7z" />
    <glyph glyph-name="napostrophe" unicode="&#x149;" horiz-adv-x="1482" 
d="M44 1050l165 288q35 61 107 61q60 0 97 -44q34 -40 34 -84q0 -30 -15 -57l-161 -289q-36 -64 -109 -64q-63 0 -101 43q-34 38 -34 85q0 32 17 61zM746 947q65 60 117 82q71 29 161 29q157 0 260 -91q71 -62 92 -136q17 -59 17 -152v-492q0 -85 -20 -126q-17 -33 -55 -55
q-35 -20 -75 -20q-56 0 -101 39q-42 37 -48 109q-1 10 -1 53v421q0 86 -43 135q-49 56 -126 56q-80 0 -129 -60q-41 -51 -41 -118v-434q0 -86 -20 -126q-17 -32 -55 -55q-35 -20 -75 -20q-56 0 -100 39q-43 37 -49 109l-1 53v688q0 83 42 129q44 48 110 48q99 0 140 -105z
" />
    <glyph glyph-name="Eng" unicode="&#x14a;" horiz-adv-x="1399" 
d="M401 1276q80 58 148 82q99 35 222 35q230 0 377 -128q100 -87 131 -192q24 -82 24 -213v-840q0 -236 -84 -347q-43 -58 -118 -89q-79 -33 -168 -33q-140 0 -238 68q-83 59 -83 147q0 65 47 110q39 37 95 37q37 0 79 -33q47 -36 76 -36q80 0 80 176v820q0 127 -73 200
q-83 82 -216 82q-136 0 -220 -91q-71 -77 -71 -178v-664q0 -89 -21 -131q-17 -34 -57 -57q-37 -21 -79 -21q-59 0 -105 40q-45 39 -51 114l-1 55v1012q0 87 44 135q45 50 116 50q103 0 146 -110z" />
    <glyph glyph-name="eng" unicode="&#x14b;" horiz-adv-x="1116" 
d="M380 947q65 60 117 82q71 29 161 29q157 0 260 -91q71 -62 92 -136q17 -58 17 -152v-654q0 -225 -80 -331q-41 -56 -113 -86q-75 -31 -161 -31q-134 0 -227 65q-80 57 -80 140q0 62 45 105q37 36 90 36q36 0 77 -31q45 -34 72 -34q77 0 77 167v583q0 86 -43 135
q-49 56 -126 56q-80 0 -129 -60q-41 -51 -41 -118v-434q0 -85 -20 -126q-17 -33 -55 -55q-35 -20 -75 -20q-56 0 -101 39q-42 37 -48 109q-1 10 -1 53v688q0 83 42 129q44 48 111 48q56 0 94 -33q25 -21 45 -72z" />
    <glyph glyph-name="Omacron" unicode="&#x14c;" horiz-adv-x="1418" 
d="M709 1399q207 0 374 -106q171 -109 247 -302q54 -139 54 -307q0 -350 -225 -555q-179 -163 -446 -163q-304 0 -493 201q-186 198 -186 528q0 144 49 284q78 219 298 339q147 81 328 81zM711 1119q-143 0 -241 -109q-101 -114 -101 -313q0 -207 94 -331q42 -56 111 -89
q65 -31 139 -31q138 0 225 96q111 124 111 342q0 211 -101 328q-40 47 -100 76q-65 31 -137 31zM484 1753h450q58 0 86 -14q51 -25 51 -88t-51 -89q-28 -14 -86 -14h-450q-58 0 -85 14q-52 26 -52 89q0 38 26 68q29 34 111 34z" />
    <glyph glyph-name="omacron" unicode="&#x14d;" horiz-adv-x="1078" 
d="M539 1058q140 0 266 -79q124 -78 186 -212q51 -112 51 -248q0 -227 -134 -375q-75 -83 -182 -126q-92 -38 -186 -38q-143 0 -268 78q-124 78 -186 213q-51 112 -51 255q0 150 68 275q70 129 208 200q109 57 228 57zM534 778q-90 0 -151 -85q-50 -69 -50 -171
q0 -108 50 -178q60 -84 151 -84q81 0 142 64q70 72 70 195q0 122 -70 195q-60 64 -142 64zM321 1411h436q58 0 86 -14q22 -11 37 -37q14 -24 14 -51q0 -63 -51 -89q-28 -14 -86 -14h-436q-58 0 -86 14q-51 26 -51 89q0 38 26 68q29 34 111 34z" />
    <glyph glyph-name="Ohungarumlaut" unicode="&#x150;" horiz-adv-x="1418" 
d="M709 1399q207 0 374 -106q171 -109 247 -302q54 -139 54 -307q0 -350 -225 -555q-179 -163 -446 -163q-304 0 -493 201q-186 198 -186 528q0 144 49 284q78 219 298 339q147 81 328 81zM711 1119q-143 0 -241 -109q-101 -114 -101 -313q0 -207 94 -331q42 -56 111 -89
q65 -31 139 -31q138 0 225 96q111 124 111 342q0 211 -101 328q-40 47 -100 76q-65 31 -137 31zM475 1638l199 160q21 17 50 17q39 0 60 -30q14 -20 14 -44q0 -36 -32 -63l-194 -160q-28 -23 -58 -23q-40 0 -63 38q-12 20 -12 42q0 34 36 63zM825 1638l200 160q21 17 50 17
q39 0 60 -30q14 -20 14 -44q0 -36 -32 -63l-194 -160q-28 -23 -58 -23q-40 0 -63 38q-12 20 -12 42q0 34 35 63z" />
    <glyph glyph-name="ohungarumlaut" unicode="&#x151;" horiz-adv-x="1078" 
d="M539 1058q140 0 266 -79q124 -78 186 -212q51 -112 51 -248q0 -227 -134 -375q-75 -83 -182 -126q-92 -38 -186 -38q-143 0 -268 78q-124 78 -186 213q-51 112 -51 255q0 150 68 275q70 129 208 200q109 57 228 57zM534 778q-90 0 -151 -85q-50 -69 -50 -171
q0 -108 50 -178q60 -84 151 -84q81 0 142 64q70 72 70 195q0 122 -70 195q-60 64 -142 64zM318 1303l199 174q19 17 51 17q39 0 60 -30q14 -20 14 -44q0 -33 -33 -63l-194 -174q-26 -23 -58 -23q-40 0 -63 38q-12 20 -12 42q0 32 36 63zM648 1303l200 174q19 17 50 17
q39 0 60 -30q14 -20 14 -44q0 -33 -32 -63l-194 -174q-27 -23 -59 -23q-39 0 -62 38q-12 20 -12 42q0 32 35 63z" />
    <glyph glyph-name="OE" unicode="&#x152;" horiz-adv-x="1917" 
d="M1364 1085v-258h272q80 0 117 -19q31 -15 51 -51q19 -33 19 -70q0 -53 -36 -94q-34 -40 -102 -45l-49 -1h-272v-267h312q79 0 116 -19q31 -15 51 -51q19 -33 19 -70q0 -53 -36 -94q-23 -27 -53.5 -36.5t-96.5 -9.5h-483q-50 0 -66 6q-46 16 -46 70v10q-80 -57 -149 -81
q-112 -39 -237 -39q-188 0 -344 86q-169 94 -251 282q-66 154 -66 337q0 231 103 411q100 174 283 257q136 61 294 61q134 0 234 -44q58 -26 133 -91q3 55 20 74q22 26 85 26h490q79 0 116 -19q31 -15 51 -51q19 -33 19 -70q0 -53 -36 -94q-34 -40 -101 -45q-9 -1 -49 -1
h-312zM714 1120q-156 0 -251 -121q-89 -115 -89 -310q0 -206 89 -322q94 -121 251 -121q139 0 226 97q112 126 112 340q0 215 -112 340q-87 97 -226 97z" />
    <glyph glyph-name="oe" unicode="&#x153;" horiz-adv-x="1779" 
d="M1051 434q14 -63 39 -93q69 -81 205 -81q59 0 122 19q15 4 112 41q41 15 72 15q55 0 91 -45q32 -39 32 -91q0 -77 -83 -125q-162 -94 -375 -94q-229 0 -379 146q-163 -147 -349 -147q-220 0 -360 149q-144 153 -144 390q0 224 128 372q70 81 170 126q95 42 199 42
q102 0 198 -34q76 -28 170 -106q139 140 341 140q276 0 416 -235q63 -105 82 -247q6 -40 6 -61q0 -81 -126 -81h-567zM1449 631q-22 86 -57 126q-57 62 -142 62q-78 0 -135 -54q-41 -40 -72 -134h406zM540 778q-88 0 -147 -70q-59 -71 -59 -187q0 -118 62 -193
q56 -69 135 -69q91 0 152 71q61 73 61 187q0 120 -65 197q-55 64 -139 64z" />
    <glyph glyph-name="Racute" unicode="&#x154;" horiz-adv-x="1164" 
d="M409 556v-367q0 -89 -21 -131q-17 -34 -57 -57q-37 -21 -79 -21q-59 0 -105 40q-45 39 -51 114l-1 55v949q0 63 4 89q12 65 66 106q44 32 120 32h38h278q209 0 337 -106q142 -118 142 -317q0 -174 -106 -276q-58 -56 -135 -79q-34 -10 -79 -20l266 -294q75 -83 75 -142
q0 -70 -55 -117q-43 -37 -103 -37q-54 0 -101 43q-15 13 -49 55zM409 774h195q78 0 124 46q45 45 45 107q0 76 -59 125q-48 40 -117 40h-188v-318zM419 1697l309 113q14 5 33 5q45 0 75 -28q31 -29 31 -72q0 -73 -77 -101l-303 -111q-22 -8 -46 -8q-47 0 -75 31
q-29 31 -29 72q0 69 82 99z" />
    <glyph glyph-name="racute" unicode="&#x155;" horiz-adv-x="748" 
d="M388 945q59 59 96 81q56 33 111 33q66 0 112 -49q42 -44 42 -107q0 -55 -36 -85q-29 -25 -117 -53q-106 -34 -160 -76q-29 -23 -39 -51q-9 -26 -9 -73v-378q0 -85 -20 -126q-17 -33 -55 -55q-35 -20 -75 -20q-56 0 -101 39q-42 37 -48 109q-1 10 -1 53v693q0 79 37 121
q45 51 113 51q101 0 150 -107zM279 1363l309 126q17 7 38 7q45 0 74 -32q28 -31 28 -71q0 -34 -22 -64q-13 -18 -56 -36l-302 -124q-19 -8 -46 -8q-47 0 -75 31q-29 31 -29 72t28 69q13 13 53 30z" />
    <glyph glyph-name="Rcommaaccent" unicode="&#x156;" horiz-adv-x="1164" 
d="M409 556v-367q0 -89 -21 -131q-17 -34 -57 -57q-37 -21 -79 -21q-59 0 -105 40q-45 39 -51 114l-1 55v949q0 63 4 89q12 65 66 106q44 32 120 32h38h278q209 0 337 -106q142 -118 142 -317q0 -174 -106 -276q-58 -56 -135 -79q-34 -10 -79 -20l266 -294q75 -83 75 -142
q0 -70 -55 -117q-43 -37 -103 -37q-54 0 -101 43q-15 13 -49 55zM409 774h195q78 0 124 46q45 45 45 107q0 76 -59 125q-48 40 -117 40h-188v-318zM418 -383l96 221q23 54 87 54q40 0 70 -28t30 -67q0 -24 -9 -43l-95 -218q-24 -57 -84 -57q-47 0 -78 28q-27 23 -27 64
q0 23 10 46z" />
    <glyph glyph-name="rcommaaccent" unicode="&#x157;" horiz-adv-x="748" 
d="M389 945q59 59 96 81q56 33 111 33q66 0 112 -49q42 -44 42 -107q0 -55 -36 -85q-29 -25 -117 -53q-106 -34 -160 -76q-29 -23 -39 -51q-9 -26 -9 -73v-378q0 -86 -20 -126q-16 -32 -55 -55q-35 -20 -75 -20q-56 0 -101 39q-42 37 -48 109l-1 53v693q0 79 37 121
q45 51 113 51q101 0 150 -107zM73 -349l83 194q23 54 83 54q40 0 70 -28t30 -67q0 -23 -9 -44l-81 -190q-24 -57 -84 -57q-46 0 -77 29q-27 25 -27 57q0 22 12 52z" />
    <glyph glyph-name="Rcaron" unicode="&#x158;" horiz-adv-x="1164" 
d="M409 556v-367q0 -89 -21 -131q-17 -34 -57 -57q-37 -21 -79 -21q-59 0 -105 40q-45 39 -51 114l-1 55v949q0 63 4 89q12 65 66 106q44 32 120 32h38h278q209 0 337 -106q142 -118 142 -317q0 -174 -106 -276q-58 -56 -135 -79q-34 -10 -79 -20l266 -294q75 -83 75 -142
q0 -70 -55 -117q-43 -37 -103 -37q-54 0 -101 43q-15 13 -49 55zM409 774h195q78 0 124 46q45 45 45 107q0 76 -59 125q-48 40 -117 40h-188v-318zM540 1704l219 103q18 9 40 9q49 0 79 -39q24 -31 24 -66q0 -64 -68 -94l-253 -113q-20 -9 -42 -9q-19 0 -36 7l-251 114
q-72 32 -72 97q0 41 27 71q30 32 76 32q22 0 38 -7z" />
    <glyph glyph-name="rcaron" unicode="&#x159;" horiz-adv-x="748" 
d="M388 945q59 59 96 81q56 33 111 33q66 0 113 -49q41 -43 41 -107q0 -55 -36 -85q-29 -25 -117 -53q-107 -34 -160 -76q-29 -23 -39 -51q-9 -26 -9 -73v-378q0 -86 -20 -126q-17 -32 -55 -55q-35 -20 -75 -20q-56 0 -100 39q-43 37 -49 109q-1 10 -1 53v693q0 79 37 121
q45 51 113 51q101 0 150 -107zM373 1369l219 118q16 8 40 8q49 0 79 -39q24 -30 24 -66q0 -60 -67 -94l-253 -126q-18 -9 -43 -9q-22 0 -36 7l-251 127q-72 36 -72 97q0 41 27 71q29 32 76 32q24 0 38 -7z" />
    <glyph glyph-name="Sacute" unicode="&#x15a;" horiz-adv-x="1094" 
d="M568 1399q165 0 286 -65q90 -49 90 -136q0 -65 -47 -110q-37 -35 -92 -35q-30 0 -51 7l-57 21q-72 25 -140 25q-76 0 -124 -40q-33 -28 -33 -72q0 -50 42 -79q37 -25 86 -38l83 -22q201 -54 305 -141q124 -103 124 -290t-116 -313q-135 -145 -405 -145q-200 0 -347 71
q-117 58 -117 160q0 62 42 108q39 41 94 41q39 0 79 -15l108 -41q79 -30 155 -30q82 0 129 42q43 40 43 101q0 65 -53 98q-46 30 -218 81q-140 42 -198 74q-171 94 -171 309q0 139 81 247q77 103 213 152q95 35 209 35zM425 1697l310 113q13 5 32 5q46 0 76 -28
q31 -30 31 -72q0 -72 -77 -101l-303 -111q-22 -8 -46 -8q-47 0 -75 31q-29 31 -29 72q0 70 81 99z" />
    <glyph glyph-name="sacute" unicode="&#x15b;" horiz-adv-x="892" 
d="M473 1059q150 0 256 -74q85 -59 85 -132q0 -51 -40 -96q-31 -36 -77 -36q-28 0 -55 11q-11 4 -71 31q-68 30 -115 30q-44 0 -66 -21q-13 -12 -13 -32q0 -32 34 -52q26 -15 123 -53q118 -46 163 -77q140 -93 140 -241q0 -94 -53 -178q-55 -85 -158 -126q-85 -33 -186 -33
q-167 0 -294 81q-91 57 -91 137q0 56 46 101q35 33 79 33q33 0 64 -13q6 -2 91 -41q72 -32 121 -32q43 0 69 26q18 19 18 43q0 22 -15 37q-21 22 -100 51q-179 67 -241 113q-101 75 -101 217q0 122 87 209q118 117 300 117zM352 1363l309 126q17 7 38 7q45 0 73 -32
q28 -31 28 -71q0 -68 -77 -100l-303 -124q-18 -8 -46 -8q-47 0 -75 31q-29 31 -29 72t28 69q13 13 54 30z" />
    <glyph glyph-name="Scircumflex" unicode="&#x15c;" horiz-adv-x="1094" 
d="M568 1399q165 0 286 -65q90 -49 90 -136q0 -65 -47 -110q-37 -35 -92 -35q-30 0 -51 7l-57 21q-72 25 -140 25q-76 0 -124 -40q-33 -28 -33 -72q0 -50 42 -79q37 -25 86 -38l83 -22q201 -54 305 -141q124 -103 124 -290t-116 -313q-135 -145 -405 -145q-200 0 -347 71
q-117 58 -117 160q0 62 42 108q39 41 94 41q39 0 79 -15l108 -41q79 -30 155 -30q82 0 129 42q43 40 43 101q0 65 -53 98q-46 30 -218 81q-140 42 -198 74q-171 94 -171 309q0 139 81 247q77 103 213 152q95 35 209 35zM548 1587l-233 -87q-23 -9 -42 -9q-43 0 -75 39
q-25 31 -25 67q0 35 24 63q19 21 43 30l267 97q23 9 38 9q12 0 38 -9l260 -88q79 -26 79 -98q0 -44 -32 -74q-33 -31 -76 -31q-13 0 -23 4z" />
    <glyph glyph-name="scircumflex" unicode="&#x15d;" horiz-adv-x="892" 
d="M473 1059q150 0 256 -74q85 -59 85 -132q0 -51 -40 -96q-31 -36 -77 -36q-28 0 -55 11q-11 4 -71 31q-68 30 -115 30q-44 0 -66 -21q-13 -12 -13 -32q0 -32 34 -52q26 -15 123 -53q118 -46 163 -77q140 -93 140 -241q0 -94 -53 -178q-55 -85 -158 -126q-85 -33 -186 -33
q-167 0 -294 81q-91 57 -91 137q0 56 46 101q35 33 79 33q33 0 64 -13q6 -2 91 -41q72 -32 121 -32q43 0 69 26q18 19 18 43q0 22 -15 37q-21 22 -100 51q-179 67 -241 113q-101 75 -101 217q0 122 87 209q118 117 300 117zM453 1286l-218 -117q-16 -8 -40 -8q-49 0 -79 39
q-24 30 -24 66q0 60 67 93l253 127q19 9 43 9q21 0 35 -7l252 -127q72 -37 72 -98q0 -41 -27 -71q-29 -32 -76 -32q-23 0 -38 8z" />
    <glyph glyph-name="Scedilla" unicode="&#x15e;" horiz-adv-x="1094" 
d="M624 -27l-139 -291q-20 -44 -78 -44q-53 0 -84 39q-18 24 -18 53q0 23 19 61l88 181q-145 18 -240 66q-117 58 -117 160q0 61 42 107q39 41 94 41q39 0 79 -15l108 -41q79 -30 155 -30q82 0 129 42q43 40 43 101q0 65 -53 98q-46 30 -218 81q-140 42 -198 74
q-171 94 -171 302q0 210 163 335q137 106 340 106q167 0 286 -65q90 -49 90 -136q0 -65 -47 -110q-37 -35 -92 -35q-30 0 -51 7l-57 21q-72 25 -140 25q-76 0 -124 -40q-33 -28 -33 -72q0 -50 42 -79q37 -25 86 -38l83 -22q201 -54 305 -141q124 -103 124 -290
q0 -139 -70 -252q-77 -125 -241 -177q-45 -15 -105 -22z" />
    <glyph glyph-name="scedilla" unicode="&#x15f;" horiz-adv-x="892" 
d="M544 -10l-146 -308q-21 -44 -78 -44q-53 0 -84 39q-18 24 -18 53q0 24 18 61l97 199q-112 22 -187 71q-91 58 -91 137q0 56 46 101q35 33 79 33q33 0 64 -13q6 -2 91 -41q72 -32 121 -32q43 0 69 26q18 19 18 43q0 22 -15 37q-21 22 -100 51q-179 67 -241 113
q-101 75 -101 212q0 125 87 214q115 117 300 117q150 0 256 -74q85 -59 85 -132q0 -51 -40 -96q-31 -36 -77 -36q-28 0 -55 11q-11 4 -71 31q-68 30 -115 30q-44 0 -66 -21q-13 -12 -13 -32q0 -32 34 -52q26 -16 123 -54q119 -46 163 -76q140 -93 140 -241q0 -94 -53 -178
q-56 -88 -157 -126q-28 -11 -83 -23z" />
    <glyph glyph-name="Scaron" unicode="&#x160;" horiz-adv-x="1094" 
d="M568 1399q165 0 286 -65q90 -49 90 -136q0 -65 -47 -110q-37 -35 -92 -35q-30 0 -51 7l-57 21q-72 25 -140 25q-76 0 -124 -40q-33 -28 -33 -72q0 -50 42 -79q37 -25 86 -38l83 -22q201 -54 305 -141q124 -103 124 -290t-116 -313q-135 -145 -405 -145q-200 0 -347 71
q-117 58 -117 160q0 62 42 108q39 41 94 41q39 0 79 -15l108 -41q79 -30 155 -30q82 0 129 42q43 40 43 101q0 65 -53 98q-46 30 -218 81q-140 42 -198 74q-171 94 -171 309q0 139 81 247q77 103 213 152q95 35 209 35zM533 1704l219 103q18 9 39 9q49 0 79 -39
q24 -30 24 -66q0 -64 -67 -94l-253 -113q-20 -9 -42 -9q-20 0 -36 7l-251 114q-73 33 -73 97q0 41 27 71q30 32 76 32q23 0 39 -7z" />
    <glyph glyph-name="scaron" unicode="&#x161;" horiz-adv-x="892" 
d="M473 1059q150 0 256 -74q85 -59 85 -132q0 -51 -40 -96q-31 -36 -77 -36q-28 0 -55 11q-11 4 -71 31q-68 30 -115 30q-44 0 -66 -21q-13 -12 -13 -32q0 -32 34 -52q26 -15 123 -53q118 -46 163 -77q140 -93 140 -241q0 -94 -53 -178q-55 -85 -158 -126q-85 -33 -186 -33
q-167 0 -294 81q-91 57 -91 137q0 56 46 101q35 33 79 33q33 0 64 -13q6 -2 91 -41q72 -32 121 -32q43 0 69 26q18 19 18 43q0 22 -15 37q-21 22 -100 51q-179 67 -241 113q-101 75 -101 217q0 122 87 209q118 117 300 117zM453 1369l218 118q16 8 40 8q49 0 79 -39
q24 -30 24 -66q0 -60 -67 -94l-253 -126q-18 -9 -43 -9q-22 0 -35 7l-252 127q-72 36 -72 97q0 41 27 71q29 32 76 32q24 0 38 -7z" />
    <glyph glyph-name="Tcommaaccent" unicode="&#x162;" horiz-adv-x="993" 
d="M657 1085v-896q0 -89 -21 -131q-17 -34 -57 -57q-37 -21 -79 -21q-59 0 -105 40q-45 39 -51 114l-1 55v896h-156q-79 0 -117 19q-31 15 -51 51q-19 33 -19 70q0 53 36 94q35 40 102 45q9 1 49 1h619q80 0 117 -19q31 -15 51 -51q19 -33 19 -70q0 -53 -36 -94
q-34 -40 -102 -45q-9 -1 -49 -1h-149zM319 -383l96 221q23 54 87 54q40 0 70 -28t30 -67q0 -23 -9 -43l-95 -218q-24 -57 -84 -57q-47 0 -78 28q-27 23 -27 64q0 24 10 46z" />
    <glyph glyph-name="tcommaaccent" unicode="&#x163;" horiz-adv-x="725" 
d="M487 765v-578q0 -85 -20 -126q-17 -33 -53.5 -54t-76.5 -21q-56 0 -101 39q-42 37 -48 109q-1 10 -1 53v578q-113 -1 -152 45q-35 41 -35 91q0 61 45 102q37 35 142 35v154q0 85 20 125q17 33 55 55q35 20 75 20q57 0 101 -38q42 -37 48 -109l1 -53v-154h56q77 0 114 -18
q30 -15 50 -50q18 -32 18 -68q0 -52 -35 -92q-34 -39 -100 -44q-8 -1 -47 -1h-56zM171 -349l82 194q23 54 84 54q40 0 70 -28t30 -67q0 -22 -9 -44l-81 -190q-24 -57 -84 -57q-46 0 -78 29q-26 25 -26 57q0 23 12 52z" />
    <glyph glyph-name="Tcaron" unicode="&#x164;" horiz-adv-x="993" 
d="M657 1085v-896q0 -89 -21 -131q-17 -34 -57 -57q-37 -21 -79 -21q-59 0 -105 40q-45 39 -51 114l-1 55v896h-156q-79 0 -117 19q-31 15 -51 51q-19 33 -19 70q0 53 36 94q35 40 102 45q9 1 49 1h619q80 0 117 -19q31 -15 51 -51q19 -33 19 -70q0 -53 -36 -94
q-34 -40 -102 -45q-9 -1 -49 -1h-149zM496 1704l219 103q18 9 39 9q49 0 79 -39q24 -30 24 -66q0 -64 -67 -94l-253 -113q-21 -9 -42 -9q-20 0 -36 7l-251 114q-73 33 -73 97q0 41 27 71q30 32 76 32q23 0 38 -7z" />
    <glyph glyph-name="tcaron" unicode="&#x165;" horiz-adv-x="870" 
d="M487 765v-578q0 -85 -20 -126q-17 -33 -53.5 -54t-76.5 -21q-56 0 -101 39q-42 37 -48 109q-1 10 -1 53v578q-113 -1 -152 45q-35 41 -35 91q0 61 45 102q37 35 142 35v154q0 85 20 125q17 33 55 55q35 20 75 20q57 0 101 -38q42 -37 48 -109l1 -53v-154h56q77 0 114 -18
q30 -15 50 -50q18 -32 18 -68q0 -52 -35 -92q-34 -39 -100 -44q-8 -1 -47 -1h-56zM595 1255l92 215q23 54 84 54q40 0 70 -28t30 -67q0 -23 -9 -44l-91 -211q-24 -57 -84 -57q-46 0 -77 29q-27 26 -27 57q0 23 12 52z" />
    <glyph glyph-name="Tbar" unicode="&#x166;" horiz-adv-x="993" 
d="M657 762h51q73 0 107 -17q28 -15 47 -47q17 -30 17 -65q0 -48 -33 -86q-31 -36 -93 -41q-9 -1 -45 -1h-51v-316q0 -89 -21 -131q-17 -34 -57 -57q-37 -21 -79 -21q-59 0 -105 40q-45 39 -51 114l-1 55v316h-58q-72 0 -107 17q-28 14 -47 47q-17 30 -17 64q0 49 33 86
q32 37 94 42q8 1 44 1h58v323h-156q-79 0 -117 19q-31 15 -51 51q-19 33 -19 70q0 53 36 94q35 40 102 45q9 1 49 1h619q80 0 117 -19q31 -15 51 -51q19 -33 19 -70q0 -53 -36 -94q-34 -40 -102 -45q-9 -1 -49 -1h-149v-323z" />
    <glyph glyph-name="tbar" unicode="&#x167;" horiz-adv-x="725" 
d="M487 626q50 -3 77 -18q64 -34 64 -111q0 -76 -64 -111q-27 -15 -77 -17v-182q0 -85 -20 -126q-17 -33 -53.5 -54t-76.5 -21q-56 0 -101 39q-42 37 -48 109q-1 10 -1 53v182q-45 5 -68 17q-64 35 -64 111t64 111q23 13 68 17v140q-113 -1 -152 45q-35 41 -35 91
q0 61 45 102q37 35 142 35v154q0 85 20 125q17 33 55 55q35 20 75 20q57 0 101 -38q42 -37 48 -109l1 -53v-154h56q77 0 114 -18q30 -15 50 -50q18 -32 18 -68q0 -52 -35 -92q-34 -39 -100 -44q-8 -1 -47 -1h-56v-139z" />
    <glyph glyph-name="utilde" unicode="&#x169;" horiz-adv-x="1111" 
d="M1022 851v-446q0 -153 -73 -248q-62 -80 -160 -126q-110 -52 -234 -52q-174 0 -305 93q-102 72 -138 172q-24 68 -24 161v446q0 85 20 126q17 33 55 55q35 20 75 20q57 0 101 -38q42 -37 48 -110l1 -53v-409q0 -63 20 -95q51 -82 147 -82q70 0 119 48q48 46 48 129v409
q0 86 20 126q17 33 55 55q35 20 75 20q57 0 101 -38q42 -37 48 -110q1 -10 1 -53zM403 1463q53 0 114 -22q16 -6 108 -53q36 -18 70 -18q18 0 32 9q9 6 25 36q26 49 77 49q41 0 67 -31q23 -27 23 -63q0 -87 -80 -146q-57 -41 -135 -41q-66 0 -155 44q-102 49 -133 49
q-26 0 -44 -20q-4 -5 -28 -45q-20 -31 -64 -31q-42 0 -69 29q-20 22 -20 66q0 83 69 138q62 50 143 50z" />
    <glyph glyph-name="Umacron" unicode="&#x16a;" horiz-adv-x="1352" 
d="M1270 1176v-577q0 -194 -41 -290q-72 -167 -239 -262q-144 -81 -316 -81q-178 0 -327 88q-163 96 -228 261q-37 92 -37 203v658q0 89 21 131q18 34 58 57q36 21 78 21q59 0 105 -40q45 -39 51 -114q1 -10 1 -55v-613q0 -133 64 -210q35 -42 96 -68q57 -26 120 -26
q94 0 170 55q74 53 97 146q13 53 13 139v577q0 89 21 131q18 34 57 57q37 21 79 21q59 0 105 -40q45 -39 51 -114q1 -10 1 -55zM451 1753h450q58 0 86 -14q51 -25 51 -88t-51 -89q-28 -14 -86 -14h-450q-58 0 -85 14q-52 26 -52 89q0 38 26 68q29 34 111 34z" />
    <glyph glyph-name="umacron" unicode="&#x16b;" horiz-adv-x="1111" 
d="M1022 851v-446q0 -153 -73 -248q-62 -80 -160 -126q-110 -52 -234 -52q-174 0 -305 93q-102 72 -138 172q-24 68 -24 161v446q0 85 20 126q17 33 55 55q35 20 75 20q57 0 101 -38q42 -37 48 -110l1 -53v-409q0 -63 20 -95q51 -82 147 -82q70 0 119 48q48 46 48 129v409
q0 86 20 126q17 33 55 55q35 20 75 20q57 0 101 -38q42 -37 48 -110q1 -10 1 -53zM337 1411h436q59 0 86 -14q51 -25 51 -88t-51 -89q-28 -14 -86 -14h-436q-58 0 -85 14q-52 26 -52 89q0 38 26 68q29 34 111 34z" />
    <glyph glyph-name="ubreve" unicode="&#x16d;" horiz-adv-x="1111" 
d="M1022 851v-446q0 -153 -73 -248q-62 -80 -160 -126q-110 -52 -234 -52q-174 0 -305 93q-102 72 -138 172q-24 68 -24 161v446q0 85 20 126q17 33 55 55q35 20 75 20q57 0 101 -38q42 -37 48 -110l1 -53v-409q0 -63 20 -95q51 -82 147 -82q70 0 119 48q48 46 48 129v409
q0 86 20 126q17 33 55 55q35 20 75 20q57 0 101 -38q42 -37 48 -110q1 -10 1 -53zM305 1481q31 0 79 -46q78 -75 171 -75q79 0 149 55q50 40 73 54q17 10 41 10q32 0 60 -26q34 -32 34 -78q0 -41 -48 -89q-46 -47 -115 -78q-93 -42 -194 -42q-138 0 -251 74
q-106 69 -106 137q0 46 34 77q31 27 73 27z" />
    <glyph glyph-name="Uring" unicode="&#x16e;" horiz-adv-x="1352" 
d="M1270 1176v-577q0 -194 -41 -290q-72 -167 -239 -262q-144 -81 -316 -81q-178 0 -327 88q-163 96 -228 261q-37 92 -37 203v658q0 89 21 131q18 34 58 57q36 21 78 21q59 0 105 -40q45 -39 51 -114q1 -10 1 -55v-613q0 -133 64 -210q35 -42 96 -68q57 -26 120 -26
q94 0 170 55q74 53 97 146q13 53 13 139v577q0 89 21 131q18 34 57 57q37 21 79 21q59 0 105 -40q45 -39 51 -114q1 -10 1 -55zM679 1877q86 0 146 -67q52 -57 52 -134q0 -89 -66 -149q-58 -52 -135 -52q-90 0 -149 66q-52 58 -52 137q0 87 67 147q56 52 137 52zM677 1747
q-30 0 -51 -20.5t-21 -49.5q0 -32 24 -54q20 -18 47 -18q29 0 50 21t21 50q0 31 -24 53q-20 18 -46 18z" />
    <glyph glyph-name="uring" unicode="&#x16f;" horiz-adv-x="1111" 
d="M1022 851v-446q0 -153 -73 -248q-62 -80 -160 -126q-110 -52 -234 -52q-174 0 -305 93q-102 72 -138 172q-24 68 -24 161v446q0 85 20 126q17 33 55 55q35 20 75 20q57 0 101 -38q42 -37 48 -110l1 -53v-409q0 -63 20 -95q51 -82 147 -82q70 0 119 48q48 46 48 129v409
q0 86 20 126q17 33 55 55q35 20 75 20q57 0 101 -38q42 -37 48 -110q1 -10 1 -53zM558 1556q86 0 146 -66q52 -58 52 -135q0 -89 -66 -149q-58 -52 -135 -52q-90 0 -149 66q-52 58 -52 137q0 87 67 147q56 52 137 52zM556 1432q-32 0 -55 -22.5t-23 -53.5q0 -35 26 -58
q22 -20 51 -20q34 0 57 26q20 22 20 51q0 34 -26 57q-21 20 -50 20z" />
    <glyph glyph-name="Uhungarumlaut" unicode="&#x170;" horiz-adv-x="1352" 
d="M1270 1176v-577q0 -194 -41 -290q-72 -167 -239 -262q-144 -81 -316 -81q-178 0 -327 88q-163 96 -228 261q-37 92 -37 203v658q0 89 21 131q18 34 58 57q36 21 78 21q59 0 105 -40q45 -39 51 -114q1 -10 1 -55v-613q0 -133 64 -210q35 -42 96 -68q57 -26 120 -26
q94 0 170 55q74 53 97 146q13 53 13 139v577q0 89 21 131q18 34 57 57q37 21 79 21q59 0 105 -40q45 -39 51 -114q1 -10 1 -55zM441 1638l200 160q21 17 50 17q39 0 60 -30q14 -19 14 -44q0 -36 -32 -63l-194 -160q-28 -23 -58 -23q-40 0 -63 38q-12 20 -12 42q0 34 35 63z
M792 1638l200 160q21 17 50 17q39 0 60 -30q14 -20 14 -44q0 -36 -32 -63l-194 -160q-28 -23 -58 -23q-40 0 -63 38q-12 20 -12 42q0 34 35 63z" />
    <glyph glyph-name="uhungarumlaut" unicode="&#x171;" horiz-adv-x="1111" 
d="M1022 851v-446q0 -153 -73 -248q-62 -80 -160 -126q-110 -52 -234 -52q-174 0 -305 93q-102 72 -138 172q-24 68 -24 161v446q0 85 20 126q17 33 55 55q35 20 75 20q57 0 101 -38q42 -37 48 -110l1 -53v-409q0 -63 20 -95q51 -82 147 -82q70 0 119 48q48 46 48 129v409
q0 86 20 126q17 33 55 55q35 20 75 20q57 0 101 -38q42 -37 48 -110q1 -10 1 -53zM327 1303l200 174q19 17 50 17q39 0 60 -30q14 -20 14 -44q0 -33 -32 -63l-194 -174q-26 -23 -59 -23q-40 0 -62 38q-12 20 -12 42q0 32 35 63zM658 1303l199 174q19 17 51 17q39 0 60 -30
q14 -20 14 -44q0 -33 -33 -63l-194 -174q-26 -23 -58 -23q-40 0 -63 38q-12 20 -12 42q0 32 36 63z" />
    <glyph glyph-name="Uogonek" unicode="&#x172;" horiz-adv-x="1352" 
d="M855 -11q-105 -23 -179 -23q-180 0 -329 88q-163 96 -228 261q-37 92 -37 203v658q0 89 21 131q18 34 58 57q36 21 78 21q59 0 105 -40q45 -39 51 -114q1 -10 1 -55v-613q0 -133 64 -210q35 -42 96 -68q57 -26 120 -26q94 0 170 55q74 53 97 146q13 53 13 139v577
q0 89 21 131q18 34 57 57q37 21 79 21q59 0 105 -40q45 -39 51 -114q1 -10 1 -55v-577q0 -175 -30 -261q-32 -93 -101 -171q-19 -21 -73 -72q-118 -112 -118 -177q0 -25 11 -43q21 -33 55 -33q7 0 45 7q13 2 23 2q25 0 45 -13q27 -18 27 -55q0 -52 -55 -86q-50 -32 -122 -32
q-123 0 -175 79q-31 47 -31 106q0 42 20 76q16 26 64 63z" />
    <glyph glyph-name="uogonek" unicode="&#x173;" horiz-adv-x="1111" 
d="M684 -8q-102 -13 -140 -13q-162 0 -294 94q-102 72 -138 171q-24 68 -24 161v446q0 85 20 126q17 33 55 55q35 20 75 20q57 0 101 -38q42 -37 48 -110l1 -53v-409q0 -63 20 -95q51 -82 147 -82q70 0 119 48q48 46 48 129v409q0 86 20 126q17 33 55 55q35 20 75 20
q57 0 101 -38q42 -37 48 -110q1 -10 1 -53v-446q0 -123 -42 -203q-26 -48 -98 -113q-54 -50 -76 -79q-35 -47 -35 -91q0 -25 13 -44q21 -33 54 -33q7 0 46 7q12 2 22 2q25 0 45 -13q27 -18 27 -55q0 -52 -54 -86q-51 -32 -123 -32q-92 0 -147 48q-56 48 -56 126q0 47 21 88
q15 28 65 65z" />
    <glyph glyph-name="Wcircumflex" unicode="&#x174;" horiz-adv-x="1773" 
d="M885 797l-192 -630q-35 -114 -101 -155q-53 -33 -125 -33q-71 0 -127 43q-53 40 -67 97l-251 1031q-16 61 -16 92q0 62 46 106q45 42 106 42q71 0 112 -48q30 -36 49 -120l166 -721l234 743q44 141 166 141q60 0 103 -33q39 -30 64 -108l236 -743l161 717q20 86 50 122
q41 50 113 50q62 0 107 -43q47 -43 47 -109q0 -30 -15 -91l-239 -996q-19 -79 -72 -125q-52 -46 -135 -46q-77 0 -128 38q-54 40 -84 133zM887 1587l-233 -87q-23 -9 -42 -9q-43 0 -75 39q-25 31 -25 67q0 35 24 63q19 21 43 30l267 97q24 9 38 9q12 0 38 -9l260 -88
q79 -26 79 -98q0 -44 -32 -74q-33 -31 -75 -31q-14 0 -24 4z" />
    <glyph glyph-name="Ycircumflex" unicode="&#x176;" horiz-adv-x="1179" 
d="M738 644v-455q0 -89 -21 -131q-17 -34 -57 -57q-37 -21 -79 -21q-59 0 -105 40q-45 39 -51 114q-1 10 -1 55v455l-329 451q-61 84 -61 136q0 58 42 104q46 50 117 50q62 0 111 -51q14 -15 45 -60l232 -331l244 335q38 52 61 72q42 36 96 36q82 0 128 -66q31 -43 31 -85
q0 -59 -63 -142zM590 1587l-233 -87q-23 -9 -42 -9q-43 0 -75 39q-25 31 -25 67q0 35 24 63q19 21 43 30l267 97q24 9 38 9q12 0 38 -9l260 -88q79 -26 79 -98q0 -44 -32 -74q-33 -31 -75 -31q-14 0 -24 4z" />
    <glyph glyph-name="ycircumflex" unicode="&#x177;" horiz-adv-x="1018" 
d="M506 466l176 442q32 82 66 112q38 33 95 33t100 -36q53 -45 53 -110q0 -41 -31 -114l-458 -1092q-24 -57 -41 -81q-43 -58 -117 -58q-56 0 -99 37q-51 44 -51 106q0 41 31 113l118 277l-297 702q-30 72 -30 113q0 72 65 117q38 26 86 26q56 0 93 -32q33 -30 65 -110z
M509 1266l-232 -87q-24 -9 -42 -9q-44 0 -76 39q-25 31 -25 67q0 35 24 63q19 21 43 30l267 97q27 10 38 10q9 0 38 -10l260 -87q79 -27 79 -99q0 -45 -32 -74q-33 -31 -75 -31q-13 0 -24 4z" />
    <glyph glyph-name="Ydieresis" unicode="&#x178;" horiz-adv-x="1179" 
d="M738 644v-455q0 -89 -21 -131q-17 -34 -57 -57q-37 -21 -79 -21q-59 0 -105 40q-45 39 -51 114q-1 10 -1 55v455l-329 451q-61 84 -61 136q0 58 42 104q46 50 117 50q62 0 111 -51q14 -15 45 -60l232 -331l244 335q38 52 61 72q42 36 96 36q82 0 128 -66q31 -43 31 -85
q0 -59 -63 -142zM370 1807q64 0 109 -50q39 -42 39 -100q0 -67 -50 -112q-42 -38 -100 -38q-67 0 -112 50q-38 42 -38 101q0 65 50 110q42 39 102 39zM813 1807q64 0 109 -50q39 -42 39 -100q0 -67 -50 -112q-42 -38 -100 -38q-67 0 -112 50q-38 42 -38 101q0 65 50 110
q42 39 102 39z" />
    <glyph glyph-name="Zacute" unicode="&#x179;" horiz-adv-x="1069" 
d="M405 280h478q79 0 116 -19q31 -15 51 -51q19 -33 19 -70q0 -53 -36 -94q-34 -40 -102 -45q-8 -1 -48 -1h-684q-79 0 -114 22q-85 53 -85 135q0 44 28 93q6 10 45 60l582 775h-442q-80 0 -117 19q-31 15 -51 51q-19 33 -19 70q0 53 36 94q34 40 102 45l49 1h648
q73 0 108 -23q76 -50 76 -137q0 -61 -44 -120zM440 1697l309 113q14 5 33 5q45 0 75 -28q31 -29 31 -72q0 -73 -77 -101l-303 -111q-21 -8 -46 -8q-46 0 -74 31q-29 31 -29 72q0 70 81 99z" />
    <glyph glyph-name="zacute" unicode="&#x17a;" horiz-adv-x="919" 
d="M442 273h295q77 0 114 -18q30 -15 50 -50q18 -32 18 -68q0 -52 -35 -92q-34 -39 -100 -44q-8 -1 -47 -1h-581q-82 0 -119 28q-36 29 -36 75q0 42 35 90l419 573h-269q-78 0 -114 18q-30 15 -50 50q-18 32 -18 69q0 51 35 91q33 39 99 44l48 1h580q49 0 83 -29
q40 -33 40 -80t-42 -104zM365 1363l309 126q17 7 38 7q45 0 73 -32q28 -31 28 -71q0 -68 -77 -100l-303 -124q-18 -8 -46 -8q-47 0 -75 31q-29 31 -29 72t28 69q13 13 54 30z" />
    <glyph glyph-name="Zdotaccent" unicode="&#x17b;" horiz-adv-x="1069" 
d="M405 280h478q79 0 116 -19q31 -15 51 -51q19 -33 19 -70q0 -53 -36 -94q-34 -40 -102 -45q-8 -1 -48 -1h-684q-79 0 -114 22q-85 53 -85 135q0 44 28 93q6 10 45 60l582 775h-442q-80 0 -117 19q-31 15 -51 51q-19 33 -19 70q0 53 36 94q34 40 102 45l49 1h648
q73 0 108 -23q76 -50 76 -137q0 -61 -44 -120zM543 1807q64 0 109 -50q39 -42 39 -100q0 -67 -50 -112q-42 -38 -100 -38q-67 0 -112 50q-38 42 -38 101q0 65 50 110q42 39 102 39z" />
    <glyph glyph-name="zdotaccent" unicode="&#x17c;" horiz-adv-x="919" 
d="M442 273h295q77 0 114 -18q30 -15 50 -50q18 -32 18 -68q0 -52 -35 -92q-34 -39 -100 -44q-8 -1 -47 -1h-581q-82 0 -119 28q-36 29 -36 75q0 42 35 90l419 573h-269q-78 0 -114 18q-30 15 -50 50q-18 32 -18 69q0 51 35 91q33 39 99 44l48 1h580q49 0 83 -29
q40 -33 40 -80t-42 -104zM461 1472q64 0 109 -50q39 -42 39 -100q0 -67 -50 -112q-42 -38 -100 -38q-67 0 -112 50q-38 42 -38 101q0 65 50 110q42 39 102 39z" />
    <glyph glyph-name="Zcaron" unicode="&#x17d;" horiz-adv-x="1069" 
d="M405 280h478q79 0 116 -19q31 -15 51 -51q19 -33 19 -70q0 -53 -36 -94q-34 -40 -102 -45q-8 -1 -48 -1h-684q-79 0 -114 22q-85 53 -85 135q0 44 28 93q6 10 45 60l582 775h-442q-80 0 -117 19q-31 15 -51 51q-19 33 -19 70q0 53 36 94q34 40 102 45l49 1h648
q73 0 108 -23q76 -50 76 -137q0 -61 -44 -120zM541 1704l219 103q18 9 39 9q49 0 80 -39q23 -30 23 -66q0 -64 -67 -94l-253 -113q-20 -9 -42 -9q-20 0 -36 7l-251 114q-73 33 -73 97q0 41 27 71q30 32 76 32q23 0 38 -7z" />
    <glyph glyph-name="zcaron" unicode="&#x17e;" horiz-adv-x="919" 
d="M442 273h295q77 0 114 -18q30 -15 50 -50q18 -32 18 -68q0 -52 -35 -92q-34 -39 -100 -44q-8 -1 -47 -1h-581q-82 0 -119 28q-36 29 -36 75q0 42 35 90l419 573h-269q-78 0 -114 18q-30 15 -50 50q-18 32 -18 69q0 51 35 91q33 39 99 44l48 1h580q49 0 83 -29
q40 -33 40 -80t-42 -104zM459 1369l219 118q15 8 39 8q49 0 80 -39q23 -30 23 -66q0 -60 -67 -94l-253 -126q-18 -9 -42 -9q-22 0 -36 7l-251 127q-73 37 -73 97q0 41 27 71q30 32 76 32q25 0 38 -7z" />
    <glyph glyph-name="florin" unicode="&#x192;" horiz-adv-x="1010" 
d="M386 893h-13q-78 0 -114 18q-31 15 -51 50q-18 32 -18 68q0 52 35 92q34 39 100 44l48 1h61l26 149q34 192 207 276q81 40 188 40q83 0 130 -36q46 -36 46 -102q0 -78 -54 -113q-33 -21 -83 -21q-7 0 -55 4q-25 2 -53 -19q-23 -18 -32 -64l-20 -114h53q78 0 114 -18
q30 -15 50 -50q18 -32 18 -68q0 -52 -35 -92q-33 -39 -99 -44q-9 -1 -48 -1h-101l-144 -817q-29 -167 -152 -267q-102 -82 -236 -82q-81 0 -128 36q-46 36 -46 102q0 78 53 114q24 16 92 21q50 4 77 22q34 21 45 81z" />
    <glyph glyph-name="uni01CD" unicode="&#x1cd;" horiz-adv-x="1243" 
d="M884 261h-525l-33 -119q-23 -84 -56 -121q-40 -45 -103 -45q-53 0 -97 32q-63 45 -63 120q0 37 26 108l357 981q63 175 232 175q168 0 231 -175l357 -981q26 -71 26 -109q0 -84 -77 -129q-39 -22 -83 -22q-64 0 -103 45q-33 37 -56 121zM789 541l-165 519l-166 -519h331z
M622 1697l243 87q12 4 24 4q50 0 84 -41q23 -27 23 -64q0 -72 -79 -99l-260 -88q-27 -9 -38 -9q-13 0 -38 9l-267 97q-28 11 -48 37q-19 26 -19 56q0 45 36 78q30 28 65 28q20 0 42 -8z" />
    <glyph glyph-name="uni01CE" unicode="&#x1ce;" horiz-adv-x="1148" 
d="M758 105q-51 -62 -90 -86q-65 -39 -159 -39q-167 0 -297 115q-178 157 -178 429q0 242 157 398q138 136 314 136q100 0 174 -46q32 -21 82 -72q25 59 56 82q41 30 93 30q58 0 103 -42q46 -44 46 -112v-735q0 -83 -46 -132q-42 -45 -105 -45q-105 0 -150 119zM542 778
q-94 0 -152 -72q-56 -72 -56 -184q0 -117 56 -189q58 -73 153 -73q83 0 142 65q66 73 66 196t-64 192q-60 65 -145 65zM533 1369l243 87q11 4 24 4q51 0 85 -41q23 -26 23 -64q0 -72 -80 -99l-259 -87q-29 -10 -38 -10q-13 0 -39 9l-266 98q-29 10 -48 37q-19 25 -19 56
q0 45 35 78q30 28 65 28q19 0 42 -9z" />
    <glyph glyph-name="uni01D1" unicode="&#x1d1;" horiz-adv-x="525" 
d="M265 1073q72 0 122 -55q43 -48 43 -112q0 -75 -55 -125q-48 -43 -112 -43q-75 0 -125 55q-43 48 -43 114q0 72 56 123q47 43 114 43zM412 432v-594q0 -85 -20 -125q-17 -33 -55 -55q-35 -20 -75 -20q-56 0 -101 39q-42 37 -48 109l-1 52v594q0 85 20 125q17 33 55 55
q35 20 75 20q57 0 101 -38q42 -37 48 -110z" />
    <glyph glyph-name="uni01D3" unicode="&#x1d3;" horiz-adv-x="1352" 
d="M1270 1176v-577q0 -194 -41 -290q-72 -167 -239 -262q-144 -81 -316 -81q-178 0 -327 88q-163 96 -228 261q-37 92 -37 203v658q0 89 21 131q18 34 58 57q36 21 78 21q59 0 105 -40q45 -39 51 -114q1 -10 1 -55v-613q0 -133 64 -210q35 -42 96 -68q57 -26 120 -26
q94 0 170 55q74 53 97 146q13 53 13 139v577q0 89 21 131q18 34 57 57q37 21 79 21q59 0 105 -40q45 -39 51 -114q1 -10 1 -55zM676 1704l219 103q18 9 39 9q49 0 79 -39q24 -30 24 -66q0 -64 -67 -94l-253 -113q-21 -9 -42 -9q-20 0 -36 7l-252 114q-72 32 -72 97
q0 41 27 71q30 32 76 32q22 0 38 -7z" />
    <glyph glyph-name="uni01D4" unicode="&#x1d4;" horiz-adv-x="1111" 
d="M1022 851v-446q0 -153 -73 -248q-62 -80 -160 -126q-110 -52 -234 -52q-174 0 -305 93q-102 72 -138 172q-24 68 -24 161v446q0 85 20 126q17 33 55 55q35 20 75 20q57 0 101 -38q42 -37 48 -110l1 -53v-409q0 -63 20 -95q51 -82 147 -82q70 0 119 48q48 46 48 129v409
q0 86 20 126q17 33 55 55q35 20 75 20q57 0 101 -38q42 -37 48 -110q1 -10 1 -53zM555 1369l219 118q15 8 39 8q49 0 79 -39q24 -30 24 -66q0 -60 -67 -94l-253 -126q-18 -9 -43 -9q-22 0 -35 7l-252 127q-72 37 -72 97q0 41 27 71q29 32 76 32q24 0 38 -7z" />
    <glyph glyph-name="Gcaron" unicode="&#x1e6;" horiz-adv-x="1372" 
d="M1016 528h-151q-79 0 -117 19q-31 15 -51 51q-19 33 -19 70q0 38 20 72t50 49q37 19 117 19h305q80 0 118 -37q50 -48 50 -160q0 -272 -178 -461q-173 -184 -448 -184q-315 0 -506 218q-172 195 -172 491q0 314 194 517q199 207 506 207q206 0 374 -99q138 -81 138 -184
q0 -55 -41 -96q-43 -43 -97 -43q-37 0 -89 27q-11 6 -101 63q-34 21 -94 38q-53 14 -104 14q-149 0 -245 -112q-106 -124 -106 -325q0 -213 115 -338q89 -98 242 -98q145 0 223 104q46 61 67 178zM727 1697l243 87q12 4 24 4q50 0 84 -41q23 -27 23 -64q0 -72 -79 -99
l-259 -88q-28 -9 -39 -9q-13 0 -38 9l-266 97q-29 11 -49 37q-19 26 -19 56q0 45 36 78q30 28 65 28q20 0 42 -8z" />
    <glyph glyph-name="gcaron" unicode="&#x1e7;" horiz-adv-x="1126" 
d="M748 940q33 63 63 85q37 27 82 27q61 0 103 -44q42 -45 42 -121v-794q0 -232 -125 -368q-142 -153 -408 -153q-203 0 -360 86q-92 50 -92 135q0 57 42 93q42 38 95 38q26 0 49 -8l85 -29q104 -35 185 -35q151 0 205 99q25 47 34 165q-57 -71 -101 -98q-63 -38 -151 -38
q-127 0 -237 68q-126 78 -183 226q-42 109 -42 237q0 266 165 424q130 124 300 124q97 0 169 -48q32 -21 80 -71zM536 779q-79 0 -134 -57q-67 -71 -67 -202q0 -123 60 -192q59 -68 144 -68q84 0 139 64q64 75 64 194q0 126 -70 202q-55 59 -136 59zM536 1383l243 87
q12 4 24 4q50 0 84 -41q23 -27 23 -64q0 -72 -79 -99l-260 -88q-27 -9 -38 -9q-13 0 -38 9l-267 97q-28 11 -48 37q-19 26 -19 56q0 45 36 78q30 28 65 28q20 0 42 -8z" />
    <glyph glyph-name="uni01F4" unicode="&#x1f4;" horiz-adv-x="1372" 
d="M1016 528h-151q-79 0 -117 19q-31 15 -51 51q-19 33 -19 70q0 38 20 72t50 49q37 19 117 19h305q80 0 118 -37q50 -48 50 -160q0 -272 -178 -461q-173 -184 -448 -184q-315 0 -506 218q-172 195 -172 491q0 314 194 517q199 207 506 207q206 0 374 -99q138 -81 138 -184
q0 -55 -41 -96q-43 -43 -97 -43q-37 0 -89 27q-11 6 -101 63q-34 21 -94 38q-53 14 -104 14q-149 0 -245 -112q-106 -124 -106 -325q0 -213 115 -338q89 -98 242 -98q145 0 223 104q46 61 67 178zM551 1715l322 95q17 5 35 5q43 0 74 -28q31 -29 31 -72q0 -77 -78 -101
l-316 -97q-28 -9 -50 -9q-43 0 -71 31q-29 31 -29 75q0 77 82 101z" />
    <glyph glyph-name="Scommaaccent" unicode="&#x218;" horiz-adv-x="1094" 
d="M568 1399q165 0 286 -65q90 -49 90 -136q0 -65 -47 -110q-37 -35 -92 -35q-30 0 -51 7l-57 21q-72 25 -140 25q-76 0 -124 -40q-33 -28 -33 -72q0 -50 42 -79q37 -25 86 -38l83 -22q201 -54 305 -141q124 -103 124 -290t-116 -313q-135 -145 -405 -145q-200 0 -347 71
q-117 58 -117 160q0 62 42 108q39 41 94 41q39 0 79 -15l108 -41q79 -30 155 -30q82 0 129 42q43 40 43 101q0 65 -53 98q-46 30 -218 81q-140 42 -198 74q-171 94 -171 309q0 139 81 247q77 103 213 152q95 35 209 35zM342 -383l96 221q23 54 88 54q40 0 70 -28t30 -67
q0 -22 -9 -43l-95 -218q-25 -57 -85 -57q-46 0 -77 28q-27 23 -27 64q0 24 9 46z" />
    <glyph glyph-name="scommaaccent" unicode="&#x219;" horiz-adv-x="892" 
d="M473 1059q150 0 256 -74q85 -59 85 -132q0 -51 -40 -96q-31 -36 -77 -36q-28 0 -55 11q-11 4 -71 31q-68 30 -115 30q-44 0 -66 -21q-13 -12 -13 -32q0 -32 34 -52q26 -15 123 -53q118 -46 163 -77q140 -93 140 -241q0 -94 -53 -178q-55 -85 -158 -126q-85 -33 -186 -33
q-167 0 -294 81q-91 57 -91 137q0 56 46 101q35 33 79 33q33 0 64 -13q6 -2 91 -41q72 -32 121 -32q43 0 69 26q18 19 18 43q0 22 -15 37q-21 22 -100 51q-179 67 -241 113q-101 75 -101 217q0 122 87 209q118 117 300 117zM268 -349l83 194q23 54 83 54q40 0 70 -28t30 -67
q0 -23 -9 -44l-81 -190q-24 -57 -84 -57q-46 0 -77 29q-27 25 -27 57q0 22 12 52z" />
    <glyph glyph-name="uni021A" unicode="&#x21a;" horiz-adv-x="993" 
d="M657 1085v-896q0 -89 -21 -131q-17 -34 -57 -57q-37 -21 -79 -21q-59 0 -105 40q-45 39 -51 114l-1 55v896h-156q-79 0 -117 19q-31 15 -51 51q-19 33 -19 70q0 53 36 94q35 40 102 45q9 1 49 1h619q80 0 117 -19q31 -15 51 -51q19 -33 19 -70q0 -53 -36 -94
q-34 -40 -102 -45q-9 -1 -49 -1h-149zM319 -383l96 221q23 54 87 54q40 0 70 -28t30 -67q0 -23 -9 -43l-95 -218q-24 -57 -84 -57q-47 0 -78 28q-27 23 -27 64q0 24 10 46z" />
    <glyph glyph-name="uni021B" unicode="&#x21b;" horiz-adv-x="725" 
d="M487 765v-578q0 -85 -20 -126q-17 -33 -53.5 -54t-76.5 -21q-56 0 -101 39q-42 37 -48 109q-1 10 -1 53v578q-113 -1 -152 45q-35 41 -35 91q0 61 45 102q37 35 142 35v154q0 85 20 125q17 33 55 55q35 20 75 20q57 0 101 -38q42 -37 48 -109l1 -53v-154h56q77 0 114 -18
q30 -15 50 -50q18 -32 18 -68q0 -52 -35 -92q-34 -39 -100 -44q-8 -1 -47 -1h-56zM171 -349l82 194q23 54 84 54q40 0 70 -28t30 -67q0 -22 -9 -44l-81 -190q-24 -57 -84 -57q-46 0 -78 29q-26 25 -26 57q0 23 12 52z" />
    <glyph glyph-name="Adotaccent" unicode="&#x226;" horiz-adv-x="1243" 
d="M884 261h-525l-33 -119q-23 -84 -56 -121q-40 -45 -103 -45q-53 0 -97 32q-63 45 -63 120q0 37 26 108l357 981q63 175 232 175q168 0 231 -175l357 -981q26 -71 26 -109q0 -84 -77 -129q-39 -22 -83 -22q-64 0 -103 45q-33 37 -56 121zM789 541l-165 519l-166 -519h331z
M623 1807q64 0 109 -50q39 -42 39 -100q0 -67 -50 -112q-42 -38 -100 -38q-67 0 -112 50q-38 42 -38 101q0 65 50 110q42 39 102 39z" />
    <glyph glyph-name="adotaccent" unicode="&#x227;" horiz-adv-x="1148" 
d="M758 105q-51 -62 -90 -86q-65 -39 -159 -39q-167 0 -297 115q-178 157 -178 429q0 242 157 398q138 136 314 136q100 0 174 -46q32 -21 82 -72q25 59 56 82q41 30 93 30q58 0 103 -42q46 -44 46 -112v-735q0 -83 -46 -132q-42 -45 -105 -45q-105 0 -150 119zM542 778
q-94 0 -152 -72q-56 -72 -56 -184q0 -117 56 -189q58 -73 153 -73q83 0 142 65q66 73 66 196t-64 192q-60 65 -145 65zM549 1472q64 0 109 -50q39 -42 39 -100q0 -67 -50 -112q-42 -38 -100 -38q-67 0 -111 50q-39 42 -39 101q0 65 50 110q42 39 102 39z" />
    <glyph glyph-name="dotlessj" unicode="&#x237;" horiz-adv-x="529" 
d="M123 -223v1074q0 85 20 126q17 33 55 55q35 20 75 20q57 0 101 -38q42 -37 48 -110l1 -53v-1074q0 -85 -20 -125q-17 -33 -55 -55q-35 -20 -75 -20q-56 0 -101 38q-42 38 -48 110q-1 10 -1 52z" />
    <glyph glyph-name="afii57929" unicode="&#x2bc;" horiz-adv-x="502" 
d="M44 1050l165 288q35 61 107 61q60 0 97 -44q34 -40 34 -84q0 -30 -15 -57l-161 -289q-36 -64 -109 -64q-63 0 -101 43q-34 38 -34 85q0 32 17 61z" />
    <glyph glyph-name="circumflex" unicode="&#x2c6;" 
d="M512 1286l-219 -117q-15 -8 -39 -8q-49 0 -79 39q-24 30 -24 66q0 60 67 93l253 127q18 9 42 9q22 0 36 -7l251 -127q73 -37 73 -98q0 -41 -27 -71q-29 -32 -76 -32q-23 0 -38 8z" />
    <glyph glyph-name="caron" unicode="&#x2c7;" 
d="M511 1369l219 118q16 8 40 8q49 0 79 -39q24 -30 24 -66q0 -60 -67 -94l-253 -126q-18 -9 -43 -9q-22 0 -36 7l-251 127q-72 36 -72 97q0 41 27 71q29 32 76 32q24 0 38 -7z" />
    <glyph glyph-name="uni02C9" unicode="&#x2c9;" 
d="M294 1411h436q58 0 86 -14q51 -25 51 -88t-51 -89q-28 -14 -86 -14h-436q-58 0 -86 14q-51 26 -51 89q0 38 26 68q29 34 111 34z" />
    <glyph glyph-name="breve" unicode="&#x2d8;" 
d="M261 1497q32 0 56 -20q7 -7 49 -67q41 -56 149 -56q80 0 123 33q13 10 62 72q28 37 79 37q39 0 64 -24q27 -26 27 -74q0 -65 -70 -135q-40 -40 -101 -66q-88 -37 -188 -37q-128 0 -227 57q-77 44 -111 116q-17 35 -17 64q0 47 34 74q31 26 71 26z" />
    <glyph glyph-name="dotaccent" unicode="&#x2d9;" 
d="M515 1472q63 0 108 -50q39 -42 39 -100q0 -67 -50 -112q-42 -38 -100 -38q-67 0 -112 50q-38 42 -38 101q0 65 50 110q42 39 103 39z" />
    <glyph glyph-name="ring" unicode="&#x2da;" 
d="M516 1556q86 0 146 -66q52 -57 52 -135q0 -90 -67 -149q-57 -52 -134 -52q-90 0 -150 66q-52 58 -52 137q0 87 67 147q56 52 138 52zM514 1432q-36 0 -59 -26q-20 -22 -20 -50q0 -35 26 -58q22 -20 52 -20q34 0 57 26q20 21 20 51q0 34 -26 57q-22 20 -50 20z" />
    <glyph glyph-name="ogonek" unicode="&#x2db;" 
d="M664 0h151q-44 -49 -44 -91q0 -31 26 -52q19 -15 39 -15q7 0 45 7q13 2 23 2q25 0 45 -13q27 -18 27 -55q0 -53 -54 -86q-51 -32 -123 -32q-94 0 -148 48q-57 51 -57 134q0 81 70 153z" />
    <glyph glyph-name="tilde" unicode="&#x2dc;" 
d="M360 1463q53 0 114 -22q16 -6 108 -53q36 -18 70 -18q18 0 32 9q9 6 25 36q26 49 77 49q42 0 67 -31q23 -27 23 -63q0 -87 -80 -146q-57 -41 -135 -41q-66 0 -155 44q-101 49 -133 49q-26 0 -44 -20q-4 -5 -28 -45q-20 -31 -64 -31q-42 0 -69 29q-20 22 -20 66
q0 83 68 138q63 50 144 50z" />
    <glyph glyph-name="hungarumlaut" unicode="&#x2dd;" 
d="M277 1303l199 174q20 17 51 17q39 0 60 -30q14 -20 14 -44q0 -33 -33 -63l-194 -174q-26 -23 -58 -23q-41 0 -63 38q-12 19 -12 42q0 32 36 63zM607 1303l200 174q19 17 50 17q39 0 60 -30q14 -20 14 -44q0 -34 -32 -63l-194 -174q-26 -23 -58 -23q-41 0 -63 38
q-12 20 -12 42q0 32 35 63z" />
    <glyph glyph-name="uni0387" unicode="&#x387;" horiz-adv-x="437" 
d="M221 779q72 0 122 -55q43 -48 43 -112q0 -75 -55 -125q-48 -43 -112 -43q-75 0 -125 55q-43 48 -43 114q0 72 56 123q47 43 114 43z" />
    <glyph glyph-name="Fdotaccent" unicode="&#x1e1e;" horiz-adv-x="935" 
d="M409 1085v-271h248q79 0 116 -19q31 -15 51 -51q19 -33 19 -70q0 -38 -19.5 -72t-50.5 -49q-37 -19 -116 -19h-248v-345q0 -89 -21 -131q-17 -34 -57 -57q-37 -21 -79 -21q-59 0 -105 40q-45 39 -51 114l-1 55v948q0 64 4 90q11 64 66 106q44 32 120 32h38h384
q80 0 117 -19q31 -15 51 -51q19 -33 19 -70q0 -53 -36 -94q-34 -40 -102 -45l-49 -1h-298zM470 1807q63 0 108 -50q39 -42 39 -100q0 -67 -50 -112q-42 -38 -100 -38q-67 0 -112 50q-38 42 -38 101q0 65 50 110q42 39 103 39z" />
    <glyph glyph-name="Wacute" unicode="&#x1e82;" horiz-adv-x="642" 
d="M239 694h163q73 0 107 -17q28 -14 47 -47q17 -30 17 -64q0 -49 -33 -87q-31 -36 -93 -41l-45 -1h-163q-72 0 -107 17q-28 14 -47 47q-17 30 -17 65q0 48 33 86q31 36 93 41q9 1 45 1z" />
    <glyph glyph-name="Wdieresis" unicode="&#x1e84;" horiz-adv-x="1773" 
d="M885 797l-192 -630q-35 -114 -101 -155q-53 -33 -125 -33q-71 0 -127 43q-53 40 -67 97l-251 1031q-16 61 -16 92q0 62 46 106q45 42 106 42q71 0 112 -48q30 -36 49 -120l166 -721l234 743q44 141 166 141q60 0 103 -33q39 -30 64 -108l236 -743l161 717q20 86 50 122
q41 50 113 50q62 0 107 -43q47 -43 47 -109q0 -30 -15 -91l-239 -996q-19 -79 -72 -125q-52 -46 -135 -46q-77 0 -128 38q-54 40 -84 133zM625 1807q64 0 109 -50q39 -42 39 -100q0 -67 -50 -112q-42 -38 -100 -38q-67 0 -112 50q-38 42 -38 101q0 65 50 110q42 39 102 39z
M1151 1807q64 0 109 -50q39 -42 39 -100q0 -67 -50 -112q-42 -38 -100 -38q-67 0 -112 50q-38 42 -38 101q0 65 50 110q42 39 102 39z" />
    <glyph glyph-name="uni2007" unicode="&#x2007;" horiz-adv-x="1092" 
 />
    <glyph glyph-name="uni2011" unicode="&#x2011;" horiz-adv-x="505" 
d="M171 694h163q73 0 107 -17q28 -14 47 -47q17 -30 17 -64q0 -49 -33 -87q-31 -36 -93 -41l-45 -1h-163q-72 0 -107 17q-28 14 -47 47q-17 30 -17 65q0 48 33 86q31 36 93 41q9 1 45 1z" />
    <glyph glyph-name="figuredash" unicode="&#x2012;" horiz-adv-x="1092" 
d="M267 694h559q73 0 107 -17q28 -14 47 -47q17 -30 17 -64q0 -49 -33 -87q-31 -36 -93 -41l-45 -1h-559q-72 0 -107 17q-28 14 -47 47q-17 30 -17 65q0 48 33 86q31 36 93 41q9 1 45 1z" />
    <glyph glyph-name="endash" unicode="&#x2013;" horiz-adv-x="1092" 
d="M267 694h559q73 0 107 -17q28 -14 47 -47q17 -30 17 -64q0 -49 -33 -87q-31 -36 -93 -41l-45 -1h-559q-72 0 -107 17q-28 14 -47 47q-17 30 -17 65q0 48 33 86q31 36 93 41q9 1 45 1z" />
    <glyph glyph-name="emdash" unicode="&#x2014;" horiz-adv-x="1529" 
d="M171 694h1187q73 0 107 -17q28 -14 47 -47q17 -30 17 -64q0 -49 -33 -87q-31 -36 -93 -41l-45 -1h-1187q-72 0 -107 17q-28 14 -47 47q-17 30 -17 65q0 48 33 86q31 36 93 41q9 1 45 1z" />
    <glyph glyph-name="afii00208" unicode="&#x2015;" horiz-adv-x="1529" 
d="M171 694h1187q73 0 107 -17q28 -14 47 -47q17 -30 17 -64q0 -49 -33 -87q-31 -36 -93 -41l-45 -1h-1187q-72 0 -107 17q-28 14 -47 47q-17 30 -17 65q0 48 33 86q31 36 93 41q9 1 45 1z" />
    <glyph glyph-name="quoteleft" unicode="&#x2018;" horiz-adv-x="502" 
d="M237 922l-165 288q-17 30 -17 61q0 57 45 96q36 32 90 32q73 0 109 -64l161 -288q15 -28 15 -58q0 -55 -47 -97q-34 -31 -84 -31q-72 0 -107 61z" />
    <glyph glyph-name="quoteright" unicode="&#x2019;" horiz-adv-x="502" 
d="M55 1047l157 274q34 58 102 58q56 0 92 -42q32 -38 32 -80q0 -28 -15 -55l-152 -273q-34 -62 -103 -62q-61 0 -97 41q-32 37 -32 81q0 30 16 58z" />
    <glyph glyph-name="quotesinglbase" unicode="&#x201a;" horiz-adv-x="502" 
d="M55 -122l157 274q33 58 102 58q56 0 92 -42q32 -38 32 -79q0 -29 -15 -55l-152 -274q-34 -61 -103 -61q-61 0 -97 41q-32 36 -32 80q0 30 16 58z" />
    <glyph glyph-name="quotedblleft" unicode="&#x201c;" horiz-adv-x="939" 
d="M237 922l-165 288q-17 30 -17 61q0 57 45 96q36 32 90 32q73 0 109 -64l161 -288q15 -28 15 -58q0 -55 -47 -97q-34 -31 -84 -31q-72 0 -107 61zM674 922l-165 288q-17 29 -17 61q0 57 45 96q36 32 90 32q73 0 109 -64l160 -288q16 -28 16 -58q0 -55 -47 -97
q-33 -31 -84 -31q-72 0 -107 61z" />
    <glyph glyph-name="quotedblright" unicode="&#x201d;" horiz-adv-x="939" 
d="M44 1050l165 288q35 61 107 61q60 0 97 -44q34 -40 34 -84q0 -30 -15 -57l-161 -289q-36 -64 -109 -64q-63 0 -101 43q-34 38 -34 85q0 32 17 61zM481 1050l165 288q35 61 107 61q60 0 97 -44q34 -40 34 -84q0 -29 -16 -57l-160 -289q-36 -64 -109 -64q-63 0 -101 43
q-34 38 -34 85q0 32 17 61z" />
    <glyph glyph-name="quotedblbase" unicode="&#x201e;" horiz-adv-x="939" 
d="M44 -83l165 288q35 61 107 61q60 0 97 -44q34 -40 34 -84q0 -30 -15 -57l-161 -289q-36 -64 -109 -64q-63 0 -101 43q-34 38 -34 85q0 32 17 61zM481 -83l165 288q35 61 107 61q60 0 97 -44q34 -40 34 -84q0 -29 -16 -57l-160 -289q-36 -64 -109 -64q-63 0 -101 43
q-34 38 -34 85q0 32 17 61z" />
    <glyph glyph-name="dagger" unicode="&#x2020;" horiz-adv-x="1092" 
d="M675 1012h132q72 0 107 -17q28 -14 47 -47q17 -30 17 -64q0 -49 -33 -87q-32 -36 -94 -41q-8 -1 -44 -1h-132v-903q0 -73 -17 -108q-14 -28 -47 -47q-30 -17 -64 -17q-48 0 -87 33q-36 32 -41 94l-1 45v903h-132q-72 0 -107 17q-28 14 -47 47q-17 30 -17 64q0 49 33 87
q31 36 94 41q8 1 44 1h132v203q0 72 17 107q15 28 47 47q30 17 65 17q48 0 86 -33q36 -32 41 -94l1 -44v-203z" />
    <glyph glyph-name="daggerdbl" unicode="&#x2021;" horiz-adv-x="1092" 
d="M675 1012h132q72 0 107 -17q28 -14 47 -47q17 -30 17 -64q0 -49 -33 -87q-32 -36 -94 -41q-8 -1 -44 -1h-132v-444h132q72 0 107 -17q28 -15 47 -47q17 -30 17 -65q0 -48 -33 -86q-32 -36 -94 -41q-8 -1 -44 -1h-132v-203q0 -73 -17 -107q-14 -28 -47 -47
q-30 -17 -64 -17q-49 0 -87 33q-36 32 -41 93q-1 8 -1 45v203h-132q-73 0 -107 17q-28 14 -47 47q-17 30 -17 65q0 48 33 86q32 36 94 41q8 1 44 1h132v444h-132q-72 0 -107 17q-28 14 -47 47q-17 30 -17 64q0 49 33 87q31 36 94 41q8 1 44 1h132v203q0 72 17 107
q15 28 47 47q30 17 65 17q48 0 86 -33q36 -32 41 -94l1 -44v-203z" />
    <glyph glyph-name="bullet" unicode="&#x2022;" horiz-adv-x="1365" 
d="M689 978q113 0 196 -83q84 -83 84 -201t-83 -201t-201 -83q-116 0 -199 82q-85 84 -85 202q0 121 84 202q86 82 204 82z" />
    <glyph glyph-name="ellipsis" unicode="&#x2026;" horiz-adv-x="1638" 
d="M276 301q72 0 122 -55q43 -48 43 -112q0 -75 -55 -125q-48 -43 -112 -43q-75 0 -125 55q-43 48 -43 114q0 72 56 123q47 43 114 43zM822 301q72 0 122 -55q43 -48 43 -112q0 -75 -55 -125q-48 -43 -112 -43q-75 0 -125 55q-43 48 -43 114q0 72 56 123q47 43 114 43z
M1368 301q72 0 122 -55q43 -48 43 -112q0 -75 -55 -125q-48 -43 -112 -43q-75 0 -125 55q-43 48 -43 114q0 72 56 123q47 43 114 43z" />
    <glyph glyph-name="perthousand" unicode="&#x2030;" horiz-adv-x="2457" 
d="M1337 883q107 0 192 -81q75 -71 106 -199q20 -79 20 -166q0 -167 -67 -290q-39 -69 -108 -114q-67 -42 -143 -42q-108 0 -193 81q-124 119 -124 370q0 170 66 285q40 71 108 114q66 42 143 42zM1337 695q-115 0 -115 -256t115 -256q116 0 116 256t-116 256zM395 1401
q107 0 192 -81q75 -71 106 -199q20 -79 20 -166q0 -167 -67 -290q-39 -69 -108 -114q-67 -42 -143 -42q-108 0 -193 81q-124 119 -124 370q0 170 66 285q40 71 108 114q66 42 143 42zM395 1213q-115 0 -115 -256t115 -256q116 0 116 256t-116 256zM2061 883q107 0 192 -81
q75 -71 106 -199q20 -79 20 -166q0 -167 -67 -290q-39 -69 -108 -114q-67 -42 -143 -42q-108 0 -193 81q-124 119 -124 370q0 170 66 285q40 71 108 114q66 42 143 42zM2061 695q-115 0 -115 -256t115 -256q116 0 116 256t-116 256zM520 127l471 1181q20 51 42 71
q24 21 60 21t63 -23q35 -28 35 -71q0 -24 -19 -70l-472 -1182q-20 -51 -42.5 -71t-59.5 -20q-35 0 -63 23q-34 28 -34 69q0 25 19 72z" />
    <glyph glyph-name="guilsinglleft" unicode="&#x2039;" horiz-adv-x="682" 
d="M333 555l196 -201q41 -43 41 -96q0 -60 -43 -100q-34 -31 -78 -31q-67 0 -112 61l-173 239q-51 70 -51 128t51 128l173 239q45 61 112 61q52 0 88 -41q33 -38 33 -90q0 -53 -41 -96z" />
    <glyph glyph-name="guilsinglright" unicode="&#x203a;" horiz-adv-x="682" 
d="M350 555l-195 201q-42 43 -42 96q0 60 43 100q34 31 79 31q67 0 111 -61l173 -239q51 -70 51 -128t-51 -128l-173 -239q-44 -61 -111 -61q-53 0 -89 41q-33 38 -33 90q0 53 42 96z" />
    <glyph glyph-name="exclamdbl" unicode="&#x203c;" horiz-adv-x="1051" 
d="M412 1199v-593q0 -86 -20 -126q-17 -33 -55 -55q-35 -20 -75 -20q-56 0 -101 38q-42 38 -48 110l-1 53v593q0 85 20 125q17 33 55 55q35 20 75 20q56 0 101 -38q42 -37 48 -110q1 -9 1 -52zM265 301q72 0 122 -55q43 -48 43 -112q0 -75 -55 -125q-48 -43 -112 -43
q-75 0 -125 55q-43 48 -43 114q0 72 56 123q47 43 114 43zM938 1199v-593q0 -86 -20 -126q-17 -33 -55 -55q-35 -20 -75 -20q-56 0 -101 38q-42 38 -48 110l-1 53v593q0 85 20 125q17 33 55 55q35 20 75 20q57 0 101 -38q42 -37 48 -110zM790 301q72 0 122 -55
q43 -48 43 -112q0 -75 -55 -125q-48 -43 -112 -43q-75 0 -125 55q-43 48 -43 114q0 72 56 123q47 43 114 43z" />
    <glyph glyph-name="uni203E" unicode="&#x203e;" 
d="M0 1706h1024v-233h-1024v233z" />
    <glyph glyph-name="fraction" unicode="&#x2044;" horiz-adv-x="252" 
d="M-202 127l471 1181q20 51 42 71q24 21 61 21q35 0 62 -23q35 -28 35 -71q0 -25 -18 -70l-472 -1182q-21 -51 -42 -70q-24 -21 -60 -21t-63 23q-34 28 -34 69q0 26 18 72z" />
    <glyph glyph-name="zerosuperior" unicode="&#x2070;" horiz-adv-x="797" 
d="M397 1385q80 0 154 -47q87 -54 133 -168q39 -97 39 -215q0 -208 -111 -332q-43 -48 -107 -75q-53 -22 -107 -22q-127 0 -216 96q-108 116 -108 340q0 212 108 327q90 96 215 96zM399 1190q-41 0 -70 -44q-39 -59 -39 -188q0 -145 46 -202q27 -35 63 -35q40 0 68 48
q40 67 40 187q0 133 -47 198q-27 36 -61 36z" />
    <glyph glyph-name="foursuperior" unicode="&#x2074;" horiz-adv-x="797" 
d="M420 719h-243q-51 0 -80 21q-31 22 -31 62q0 24 11 43l254 441q52 91 146 91q64 0 102 -42t38 -100v-341h14q40 0 63 -18q34 -25 34 -66q0 -40 -34 -68q-26 -21 -75 -23l-2 -64q0 -51 -13 -75q-26 -46 -86 -46q-98 0 -98 121v64zM420 894v221l-124 -221h124z" />
    <glyph glyph-name="fivesuperior" unicode="&#x2075;" horiz-adv-x="797" 
d="M376 1189l-11 -88q42 11 77 11q117 0 190 -74q72 -73 72 -193q0 -136 -83 -223q-91 -96 -239 -96q-124 0 -224 65q-68 44 -68 100q0 42 32 71q26 24 63 24q27 0 100 -41q44 -24 94 -24q51 0 82 39q27 35 27 84q0 50 -30 80q-26 26 -71 26q-23 0 -46 -7q-6 -2 -54 -24
q-19 -9 -44 -9q-32 0 -57 20q-29 22 -29 57q0 13 2 27l32 256q12 95 99 95h282q123 0 123 -88t-123 -88h-196z" />
    <glyph glyph-name="sixsuperior" unicode="&#x2076;" horiz-adv-x="797" 
d="M413 1074q25 6 51 6q101 0 176 -66q87 -77 87 -197q0 -130 -96 -214q-88 -77 -225 -77q-122 0 -207 64q-111 84 -111 218q0 142 97 285q75 109 192 233q55 59 107 59q37 0 67 -24q32 -26 32 -63q0 -31 -26 -65q-7 -9 -56 -58q-29 -29 -88 -101zM407 914q-43 0 -73 -28
q-30 -29 -30 -67q0 -41 30 -70q30 -28 74 -28q43 0 73 28q30 29 30 69t-30 68q-31 28 -74 28z" />
    <glyph glyph-name="sevensuperior" unicode="&#x2077;" horiz-adv-x="797" 
d="M447 1189h-233q-123 0 -123 88t123 88h366q55 0 83 -27q31 -29 31 -72q0 -19 -17 -56l-280 -600q-37 -80 -105 -80q-40 0 -71 25q-37 29 -37 67q0 27 11 49z" />
    <glyph glyph-name="eightsuperior" unicode="&#x2078;" horiz-adv-x="797" 
d="M607 997q116 -75 116 -200q0 -117 -85 -190q-95 -81 -239 -81t-239 81q-85 72 -85 190q0 124 116 200q-77 68 -77 155q0 110 89 175q78 58 195 58q118 0 196 -58q89 -65 89 -175q0 -87 -76 -155zM400 1218q-36 0 -59 -26q-20 -21 -20 -51q0 -35 26 -58q22 -20 52 -20
q34 0 57 26q20 22 20 51q0 34 -26 58q-22 20 -50 20zM401 923q-48 0 -79 -35q-27 -29 -27 -69q0 -47 34 -78q30 -27 70 -27q46 0 77 35q27 29 27 69q0 46 -34 78q-30 27 -68 27z" />
    <glyph glyph-name="ninesuperior" unicode="&#x2079;" horiz-adv-x="797" 
d="M392 837q-23 -5 -50 -5q-101 0 -176 66q-87 77 -87 196q0 130 96 214q88 77 224 77q122 0 208 -64q111 -84 111 -218q0 -141 -98 -285q-73 -109 -191 -233q-55 -59 -107 -59q-37 0 -67 24q-32 26 -32 63q0 31 26 65q7 9 56 59q32 32 87 100zM398 1190q-42 0 -73 -28
q-30 -28 -30 -68t30 -68t74 -28q43 0 73 28q30 29 30 67q0 41 -30 69q-31 28 -74 28z" />
    <glyph glyph-name="zeroinferior" unicode="&#x2080;" horiz-adv-x="797" 
d="M397 840q80 0 154 -47q87 -54 133 -168q39 -98 39 -215q0 -209 -111 -333q-43 -47 -107 -74q-53 -23 -107 -23q-127 0 -216 97q-108 115 -108 339q0 212 108 327q90 97 215 97zM399 645q-41 0 -70 -44q-39 -59 -39 -188q0 -146 46 -203q27 -35 63 -35q40 0 68 48
q40 67 40 187q0 134 -47 199q-27 36 -61 36z" />
    <glyph glyph-name="oneinferior" unicode="&#x2081;" horiz-adv-x="797" 
d="M324 643h-34q-122 0 -122 88t122 88h111q74 0 103 -28q25 -23 29 -58q1 -10 1 -39v-577q0 -54 -14 -80q-27 -49 -91 -49t-91 49q-14 26 -14 80v526z" />
    <glyph glyph-name="twoinferior" unicode="&#x2082;" horiz-adv-x="797" 
d="M411 176h169q123 0 123 -88t-123 -88h-370q-63 0 -91 27q-25 24 -25 57q0 40 55 94q17 17 152 162q105 113 136 160q32 49 32 84q0 33 -24 54q-21 19 -51 19q-66 0 -89 -76q-20 -68 -36 -84q-25 -24 -64 -24q-49 0 -77 33q-21 25 -21 64q0 120 105 203q83 66 192 66
q118 0 203 -74q78 -69 78 -176q0 -77 -43 -153q-55 -97 -231 -260z" />
    <glyph glyph-name="threeinferior" unicode="&#x2083;" horiz-adv-x="797" 
d="M570 453q137 -74 137 -205q0 -123 -99 -200q-86 -68 -212 -68q-106 0 -184 47q-57 35 -94 91q-32 49 -32 92q0 37 32 65q29 24 68 24q40 0 66 -26q7 -7 33 -51q36 -58 102 -58q47 0 78 29q26 25 26 67q0 75 -100 84q-107 10 -107 89q0 38 24 60q15 13 76 29q76 19 76 74
q0 32 -28 48q-20 12 -44 12q-48 0 -96 -50q-47 -50 -89 -50t-69 30q-22 25 -22 57q0 71 69 124q93 72 215 72q105 0 182 -57q81 -62 81 -166q0 -77 -48 -129q-11 -12 -41 -34z" />
    <glyph glyph-name="fourinferior" unicode="&#x2084;" horiz-adv-x="797" 
d="M420 173h-243q-51 0 -80 21q-31 22 -31 62q0 24 11 43l254 441q52 91 146 91q64 0 102 -42t38 -100v-341h14q40 0 63 -18q34 -25 34 -66q0 -40 -34 -68q-26 -21 -75 -23l-2 -64q0 -51 -13 -75q-26 -46 -86 -46q-98 0 -98 121v64zM420 348v221l-124 -221h124z" />
    <glyph glyph-name="fiveinferior" unicode="&#x2085;" horiz-adv-x="797" 
d="M376 643l-11 -88q43 11 77 11q117 0 190 -74q72 -73 72 -193q0 -136 -83 -223q-91 -96 -239 -96q-124 0 -224 65q-68 44 -68 100q0 42 32 71q26 24 63 24q27 0 100 -41q44 -24 94 -24q51 0 82 39q27 35 27 84q0 50 -30 80q-26 26 -71 26q-24 0 -46 -7q-6 -2 -54 -25
q-19 -9 -44 -9q-32 0 -57 20q-29 22 -29 58q0 13 2 27l32 256q12 95 99 95h282q123 0 123 -88t-123 -88h-196z" />
    <glyph glyph-name="sixinferior" unicode="&#x2086;" horiz-adv-x="797" 
d="M413 528q25 6 51 6q101 0 176 -66q87 -77 87 -197q0 -130 -96 -214q-88 -77 -225 -77q-121 0 -207 64q-111 84 -111 218q0 142 97 286q75 110 192 233q55 59 107 59q37 0 67 -24q32 -26 32 -63q0 -31 -26 -65q-7 -9 -56 -59q-30 -29 -88 -101zM407 368q-43 0 -73 -28
q-30 -29 -30 -67q0 -41 30 -70q30 -28 74 -28q43 0 73 28q30 29 30 69t-30 68q-31 28 -74 28z" />
    <glyph glyph-name="seveninferior" unicode="&#x2087;" horiz-adv-x="797" 
d="M447 643h-233q-123 0 -123 88t123 88h366q55 0 83 -27q31 -29 31 -72q0 -19 -17 -56l-280 -600q-37 -80 -105 -80q-40 0 -71 25q-37 29 -37 67q0 27 11 49z" />
    <glyph glyph-name="eightinferior" unicode="&#x2088;" horiz-adv-x="797" 
d="M607 450q116 -74 116 -199q0 -118 -85 -190q-94 -81 -239 -81t-239 81q-85 72 -85 189q0 125 116 200q-77 69 -77 156q0 110 89 176q78 58 195 58q118 0 196 -58q89 -66 89 -176q0 -87 -76 -156zM400 673q-36 0 -59 -26q-20 -22 -20 -51q0 -36 26 -59q22 -20 52 -20
q34 0 57 26q20 22 20 52q0 34 -26 58q-21 20 -50 20zM401 377q-48 0 -79 -35q-27 -29 -27 -69q0 -47 34 -78q30 -27 70 -27q46 0 77 35q27 29 27 69q0 46 -34 78q-30 27 -68 27z" />
    <glyph glyph-name="nineinferior" unicode="&#x2089;" horiz-adv-x="797" 
d="M392 291q-24 -6 -50 -6q-101 0 -176 66q-87 77 -87 197q0 130 96 214q88 77 224 77q122 0 208 -64q111 -84 111 -218q0 -142 -98 -285q-73 -108 -191 -233q-55 -59 -107 -59q-38 0 -67 24q-32 26 -32 63q0 30 26 65q7 9 56 58q32 32 87 101zM398 644q-42 0 -73 -28
q-30 -29 -30 -69q0 -39 30 -68q30 -28 74 -28q43 0 73 28q30 29 30 67q0 42 -30 70q-31 28 -74 28z" />
    <glyph glyph-name="franc" unicode="&#x20a3;" horiz-adv-x="1547" 
d="M409 1085v-271h193q79 0 117 -19q31 -15 51 -51q19 -33 19 -70q0 -53 -36 -94q-40 -46 -151 -46h-193v-345q0 -89 -21 -131q-17 -34 -57 -57q-37 -21 -79 -21q-59 0 -105 40q-45 39 -51 114l-1 55v948q0 64 4 90q11 64 66 106q44 32 120 32h38h384q80 0 117 -19
q31 -15 51 -51q19 -33 19 -70q0 -53 -36 -94q-34 -40 -102 -45l-49 -1h-298zM1187 728q59 58 96 80q56 33 111 33q66 0 113 -49q41 -43 41 -107q0 -54 -36 -85q-29 -25 -117 -53q-107 -33 -160 -75q-29 -23 -39 -51q-9 -26 -9 -73v-161q0 -85 -20 -126q-17 -32 -55 -55
q-35 -20 -75 -20q-56 0 -100 39q-42 36 -49 109q-1 15 -1 53v476q0 78 37 120q45 51 113 51q101 0 150 -106z" />
    <glyph glyph-name="lira" unicode="&#x20a4;" horiz-adv-x="1092" 
d="M202 393h-34q-111 0 -111 83t111 83h68q0 51 -11 107h-57q-111 0 -111 83q0 36 27 62q23 21 89 21q-38 101 -38 182q0 113 74 207q75 94 215 142q104 36 225 36q203 0 350 -99q71 -48 113 -120q32 -54 32 -115q0 -69 -50 -112q-51 -44 -114 -44q-49 0 -91 35
q-18 16 -50 66q-41 63 -87 85q-49 24 -104 24q-85 0 -131 -53q-38 -43 -38 -99q0 -46 30 -104l16 -31h179q111 0 111 -83t-111 -83h-141q2 -24 2 -39q0 -12 -1 -33q-2 -18 -2 -35h142q111 0 111 -83t-111 -83h-174q-19 -45 -49 -104h477q82 0 121 -19q31 -16 53 -53
q19 -34 19 -72q0 -55 -37 -97q-36 -42 -106 -47q-9 -1 -50 -1h-706q-89 0 -139 52q-37 38 -37 98q0 44 15 75q8 15 33 46q54 68 78 122z" />
    <glyph glyph-name="peseta" unicode="&#x20a7;" horiz-adv-x="2105" 
d="M375 448v-259q0 -88 -19 -131q-15 -34 -52 -57q-33 -21 -70 -21q-54 0 -96 40q-40 39 -45 114l-1 55v949q0 114 29 157q48 70 142 70h34h254q207 0 314 -114q129 -137 129 -347q0 -178 -95 -311q-104 -145 -310 -145h-214zM375 721h143q90 0 140 56q47 52 47 128
q0 80 -48 136q-45 51 -124 51h-158v-371zM1298 451v-334q0 -125 -101 -125q-62 0 -89 48q-13 25 -13 77v334q-118 2 -118 87q0 55 47 77q25 11 71 11v84q0 52 13 77q27 48 89 48q61 0 87 -48q14 -24 14 -77v-84h28q122 0 122 -87q0 -88 -122 -88h-28zM1807 638q97 0 165 -45
q57 -37 57 -83q0 -34 -27 -62q-22 -23 -53 -23q-22 0 -82 25q-42 17 -70 17q-43 0 -43 -24q0 -12 12 -21q11 -9 83 -35q103 -38 146 -79q49 -46 49 -115q0 -92 -74 -150q-68 -55 -183 -55q-107 0 -190 48q-60 36 -60 87q0 37 32 65q23 21 54 21q23 0 100 -32q44 -18 74 -18
q24 0 39 14q9 9 9 20q0 15 -19 26q-12 7 -102 38q-82 29 -123 68q-44 40 -44 114q0 75 57 128q76 71 193 71z" />
    <glyph glyph-name="Euro" unicode="&#x20ac;" horiz-adv-x="1260" 
d="M202 902q38 141 84 218q169 279 508 279q197 0 344 -80q110 -60 110 -157q0 -55 -34 -97q-39 -48 -100 -48q-49 0 -127 54q-46 32 -79 47q-48 23 -110 23q-106 0 -179 -68q-58 -54 -102 -171h469q50 0 72 -9q36 -16 36 -66q0 -46 -32 -65q-24 -14 -76 -14h-496
q-4 -31 -4 -93v-15h367q50 0 73 -9q36 -16 36 -66q0 -46 -32 -65q-24 -14 -77 -14h-347q74 -266 293 -266q52 0 98 16q33 12 95 47q89 51 138 51q45 0 76 -31q38 -37 38 -96q0 -101 -108 -159q-147 -79 -351 -79q-250 0 -405 143q-98 91 -146 222q-18 51 -39 152h-45
q-107 0 -107 76q0 53 44 69q25 9 92 9v13v21q0 27 2 74h-35q-45 0 -68 10q-39 16 -39 66q0 46 34 64q26 15 91 15l28 -1h10z" />
    <glyph glyph-name="uni2101" unicode="&#x2101;" horiz-adv-x="1986" 
d="M601 703h-357l-22 -71q-31 -100 -109 -100q-35 0 -65 19q-43 27 -43 72q0 23 17 65l243 589q43 104 158 104q114 0 157 -104l243 -589q17 -42 17 -65q0 -51 -53 -78q-26 -13 -56 -13q-76 0 -108 100zM537 871l-113 312l-113 -312h226zM1628 840q112 0 195 -39
q61 -29 61 -82q0 -39 -32 -66q-26 -21 -63 -21q-21 0 -74 17q-48 15 -92 15q-55 0 -87 -24q-23 -17 -23 -43q0 -30 29 -47q26 -15 115 -37q136 -32 208 -84q85 -62 85 -175q0 -112 -79 -187q-93 -87 -275 -87q-103 0 -186 24q-130 39 -130 114q0 38 29 65q26 24 63 24
q28 0 128 -33q53 -18 105 -18q55 0 87 25q30 25 30 61q0 39 -36 59q-31 18 -149 49q-140 37 -191 80q-60 52 -60 149q0 125 111 197q97 64 231 64zM733 127l471 1181q20 51 42 71q24 21 61 21q35 0 62 -23q35 -29 35 -71q0 -24 -18 -70l-472 -1182q-21 -51 -43 -70
q-23 -21 -59 -21t-63 23q-34 28 -34 69q0 26 18 72z" />
    <glyph glyph-name="afii61248" unicode="&#x2105;" horiz-adv-x="546" 
d="M273 883q70 0 120 -49q49 -50 49 -120t-49 -119q-50 -50 -119 -50q-71 0 -120 50q-50 49 -50 121q0 69 50 118t119 49z" />
    <glyph glyph-name="uni2117" unicode="&#x2117;" horiz-adv-x="400" 
d="M202 1445q50 0 85 -36q30 -31 30 -74q0 -49 -39 -82q-33 -28 -78 -28q-52 0 -87 36q-30 32 -30 75q0 48 39 81q33 28 80 28zM97 663v392q0 125 102 125q61 0 87 -48q14 -25 14 -77v-392q0 -52 -13 -77q-26 -48 -88 -48q-102 0 -102 125z" />
    <glyph glyph-name="trademark" unicode="&#x2122;" horiz-adv-x="1610" 
d="M415 1195v-495q0 -124 -99 -124q-61 0 -87 47q-13 25 -13 77v495h-85q-117 0 -117 85t117 85h365q117 0 117 -85t-117 -85h-81zM871 1018l-55 -334q-9 -51 -26 -73q-27 -35 -78 -35q-35 0 -62 21q-36 27 -36 75q0 12 6 42l95 557q19 106 131 106q94 0 122 -80l128 -375
l119 358q31 96 128 96q50 0 87 -29q35 -28 42 -68l103 -563q6 -31 6 -46q0 -45 -35 -73q-28 -22 -64 -22q-51 0 -78 35q-17 22 -26 74l-57 333l-106 -333q-21 -66 -40 -83q-28 -26 -74 -26q-80 0 -110 88z" />
    <glyph glyph-name="uni2126" unicode="&#x2126;" horiz-adv-x="1365" 
d="M59 0v233h284q-119 75 -178 155q-106 143 -106 362q0 269 168 452q180 196 456 196q277 0 457 -196q167 -182 167 -452q0 -229 -113 -373q-59 -75 -170 -144h283v-233h-551v207q119 67 179 147q106 142 106 367q0 175 -80 290q-50 72 -122 112q-74 42 -155 42
q-146 0 -251 -119q-108 -123 -108 -326q0 -235 118 -379q61 -74 169 -134v-207h-553z" />
    <glyph glyph-name="onethird" unicode="&#x2153;" horiz-adv-x="1846" 
d="M324 1189h-34q-122 0 -122 88t122 88h111q74 0 103 -28q25 -23 29 -58q1 -10 1 -39v-577q0 -54 -14 -80q-27 -49 -91 -49t-91 49q-14 26 -14 80v526zM597 127l471 1181q20 51 42 71q24 21 60 21t63 -23q35 -28 35 -71q0 -24 -19 -70l-472 -1182q-20 -51 -42.5 -71
t-59.5 -20q-35 0 -63 23q-34 28 -34 69q0 25 19 72zM1619 453q136 -74 136 -205q0 -123 -99 -200q-86 -68 -212 -68q-105 0 -183 47q-57 35 -94 91q-32 49 -32 92q0 38 32 65q29 24 68 24q40 0 65 -26q7 -7 34 -51q35 -58 102 -58q46 0 77 29q26 25 26 67q0 75 -100 84
q-107 10 -107 89q0 38 24 60q15 13 76 29q77 20 77 74q0 32 -28 48q-20 12 -44 12q-48 0 -97 -50q-47 -50 -89 -50t-69 30q-22 25 -22 57q0 71 69 124q93 72 216 72q105 0 181 -57q82 -62 82 -166q0 -77 -48 -129q-11 -12 -41 -34z" />
    <glyph glyph-name="twothirds" unicode="&#x2154;" horiz-adv-x="1846" 
d="M411 723h169q123 0 123 -88t-123 -88h-370q-63 0 -91 27q-25 24 -25 57q0 39 55 94q15 15 152 162q105 111 136 160q32 48 32 84q0 32 -24 53q-21 19 -51 19q-66 0 -89 -76q-20 -67 -36 -83q-25 -24 -64 -24q-49 0 -77 33q-21 25 -21 64q0 120 105 203q83 65 192 65
q118 0 203 -74q78 -69 78 -176q0 -76 -43 -152q-55 -97 -231 -260zM597 127l471 1181q20 51 42 71q24 21 60 21t63 -23q35 -28 35 -71q0 -24 -19 -70l-472 -1182q-20 -51 -42 -70q-24 -21 -60 -21q-35 0 -63 23q-34 28 -34 69q0 25 19 72zM1619 453q137 -74 137 -205
q0 -123 -99 -200q-86 -68 -212 -68q-105 0 -184 47q-57 35 -94 91q-32 49 -32 92q0 37 32 65q29 24 68 24q40 0 66 -26q7 -7 33 -51q36 -58 103 -58q46 0 77 29q26 25 26 67q0 75 -101 84q-107 10 -107 89q0 38 24 60q15 13 76 29q77 20 77 74q0 32 -28 48q-20 12 -44 12
q-48 0 -97 -50q-47 -50 -89 -50t-69 30q-22 25 -22 57q0 71 69 124q93 72 216 72q105 0 181 -57q82 -62 82 -166q0 -77 -48 -129q-11 -12 -41 -34z" />
    <glyph glyph-name="onefifth" unicode="&#x2155;" horiz-adv-x="1846" 
d="M324 1189h-34q-122 0 -122 88t122 88h111q74 0 103 -28q25 -23 29 -58q1 -10 1 -39v-577q0 -54 -14 -80q-27 -49 -91 -49t-91 49q-14 26 -14 80v526zM597 127l471 1181q20 51 42 71q24 21 60 21t63 -23q35 -28 35 -71q0 -24 -19 -70l-472 -1182q-20 -51 -42.5 -71
t-59.5 -20q-35 0 -63 23q-34 28 -34 69q0 25 19 72zM1425 643l-11 -88q43 11 77 11q118 0 191 -74q72 -73 72 -193q0 -136 -83 -223q-91 -96 -240 -96q-124 0 -224 65q-68 44 -68 100q0 42 32 71q26 24 63 24q27 0 101 -41q43 -24 94 -24t82 39q27 34 27 84t-30 80
q-26 26 -71 26q-24 0 -47 -7q-6 -2 -53 -25q-20 -9 -45 -9q-32 0 -57 20q-29 22 -29 58q0 12 2 27l32 256q12 95 99 95h283q122 0 122 -88t-122 -88h-197z" />
    <glyph glyph-name="twofifth" unicode="&#x2156;" horiz-adv-x="1846" 
d="M411 723h169q123 0 123 -88t-123 -88h-370q-63 0 -91 27q-25 24 -25 57q0 39 55 94q15 15 152 162q105 111 136 160q32 48 32 84q0 32 -24 53q-21 19 -51 19q-66 0 -89 -76q-20 -67 -36 -83q-25 -24 -64 -24q-49 0 -77 33q-21 25 -21 64q0 120 105 203q83 65 192 65
q118 0 203 -74q78 -69 78 -176q0 -76 -43 -152q-55 -97 -231 -260zM597 127l471 1181q20 51 42 71q24 21 60 21t63 -23q35 -28 35 -71q0 -24 -19 -70l-472 -1182q-20 -51 -42 -70q-24 -21 -60 -21q-35 0 -63 23q-34 28 -34 69q0 25 19 72zM1425 643l-10 -88q42 11 76 11
q118 0 191 -74q72 -73 72 -193q0 -136 -83 -223q-91 -96 -240 -96q-124 0 -224 65q-68 44 -68 100q0 42 32 71q26 24 63 24q27 0 101 -41q43 -24 94 -24t82 39q27 34 27 84t-30 80q-26 26 -71 26q-24 0 -47 -7q-6 -2 -53 -25q-20 -9 -45 -9q-32 0 -57 20q-29 22 -29 58
q0 11 2 27l33 256q12 95 98 95h283q122 0 122 -88t-122 -88h-197z" />
    <glyph glyph-name="threefifth" unicode="&#x2157;" horiz-adv-x="1846" 
d="M570 999q137 -74 137 -205q0 -123 -99 -200q-86 -68 -212 -68q-106 0 -184 47q-57 35 -94 91q-32 49 -32 92q0 37 32 65q29 24 68 24q40 0 66 -26q7 -7 33 -51q36 -58 102 -58q47 0 78 29q26 25 26 67q0 75 -100 84q-107 10 -107 89q0 38 24 60q15 13 76 29q76 19 76 74
q0 32 -28 48q-20 12 -44 12q-48 0 -96 -50q-47 -50 -89 -50t-69 30q-22 25 -22 57q0 71 69 124q93 72 215 72q105 0 182 -57q81 -62 81 -166q0 -77 -48 -129q-11 -12 -41 -34zM597 127l471 1181q20 51 42 71q24 21 61 21q35 0 62 -23q35 -28 35 -71q0 -24 -18 -70
l-472 -1182q-21 -51 -43 -70q-24 -21 -60 -21q-35 0 -63 23q-34 28 -34 69q0 26 19 72zM1426 643l-11 -88q42 11 76 11q118 0 191 -74q72 -73 72 -193q0 -136 -83 -223q-91 -96 -239 -96q-124 0 -224 65q-68 44 -68 100q0 42 32 71q26 24 63 24q27 0 100 -41q43 -24 94 -24
t82 39q27 35 27 84q0 50 -30 80q-26 26 -71 26q-24 0 -47 -7q-6 -2 -53 -25q-20 -9 -45 -9q-31 0 -57 20q-29 22 -29 58q0 7 2 27l33 256q12 95 98 95h283q123 0 123 -88t-123 -88h-196z" />
    <glyph glyph-name="fourfifth" unicode="&#x2158;" horiz-adv-x="1846" 
d="M420 719h-243q-51 0 -80 21q-31 22 -31 62q0 24 11 43l254 441q52 91 146 91q64 0 102 -42t38 -100v-341h14q40 0 63 -18q34 -25 34 -66q0 -40 -34 -68q-26 -21 -75 -23l-2 -64q0 -51 -13 -75q-26 -46 -86 -46q-98 0 -98 121v64zM420 894v221l-124 -221h124zM597 127
l471 1181q20 51 42 71q24 21 61 21q35 0 62 -23q35 -28 35 -71q0 -24 -18 -70l-473 -1182q-20 -51 -42 -70q-24 -21 -60 -21q-35 0 -63 23q-34 28 -34 69q0 25 19 72zM1425 643l-10 -88q42 11 76 11q118 0 191 -74q72 -73 72 -193q0 -136 -83 -223q-91 -96 -239 -96
q-124 0 -224 65q-68 44 -68 100q0 42 32 71q26 24 63 24q27 0 100 -41q44 -24 94 -24q52 0 82 39q27 35 27 84q0 50 -30 80q-26 26 -71 26q-24 0 -47 -7q-6 -2 -53 -25q-20 -9 -45 -9q-31 0 -57 20q-29 22 -29 58q0 8 2 27l33 256q12 95 98 95h283q123 0 123 -88t-123 -88
h-197z" />
    <glyph glyph-name="onesixth" unicode="&#x2159;" horiz-adv-x="1846" 
d="M324 1189h-34q-122 0 -122 88t122 88h111q74 0 103 -28q25 -23 29 -58q1 -10 1 -39v-577q0 -54 -14 -80q-27 -49 -91 -49t-91 49q-14 26 -14 80v526zM597 127l471 1181q20 51 42 71q24 21 60 21t63 -23q35 -28 35 -71q0 -24 -19 -70l-472 -1182q-20 -51 -42.5 -71
t-59.5 -20q-35 0 -63 23q-34 28 -34 69q0 25 19 72zM1462 528q24 6 50 6q102 0 177 -66q87 -77 87 -197q0 -130 -96 -214q-88 -77 -225 -77q-122 0 -208 64q-111 84 -111 218q0 142 98 286q74 110 191 233q55 59 107 59q37 0 67 -24q32 -26 32 -63q0 -31 -26 -65
q-7 -9 -56 -59q-30 -30 -87 -101zM1456 368q-43 0 -74 -28q-30 -29 -30 -67q0 -41 30 -70q31 -28 74 -28t74 28q30 29 30 69t-30 68q-31 28 -74 28z" />
    <glyph glyph-name="fivesixth" unicode="&#x215a;" horiz-adv-x="1846" 
d="M376 1189l-11 -88q42 11 77 11q117 0 190 -74q72 -73 72 -193q0 -136 -83 -223q-91 -96 -239 -96q-124 0 -224 65q-68 44 -68 100q0 42 32 71q26 24 63 24q27 0 100 -41q44 -24 94 -24q51 0 82 39q27 35 27 84q0 50 -30 80q-26 26 -71 26q-23 0 -46 -7q-6 -2 -54 -24
q-19 -9 -44 -9q-32 0 -57 20q-29 22 -29 57q0 13 2 27l32 256q12 95 99 95h282q123 0 123 -88t-123 -88h-196zM597 127l471 1181q19 51 42 71q24 21 60 21t63 -23q35 -28 35 -71q0 -24 -19 -70l-472 -1182q-20 -51 -42 -70q-24 -21 -60 -21q-35 0 -63 23q-34 28 -34 69
q0 25 19 72zM1462 528q24 6 50 6q102 0 177 -66q87 -77 87 -197q0 -130 -96 -214q-88 -77 -225 -77q-122 0 -208 64q-111 84 -111 218q0 142 98 286q74 110 191 233q56 59 107 59q37 0 67 -24q32 -26 32 -63q0 -31 -26 -65q-6 -9 -56 -59q-30 -30 -87 -101zM1455 368
q-42 0 -73 -28q-30 -29 -30 -67q0 -41 30 -70q31 -28 74 -28t74 28q30 29 30 69t-30 68q-31 28 -75 28z" />
    <glyph glyph-name="oneeighth" unicode="&#x215b;" horiz-adv-x="1846" 
d="M324 1189h-34q-122 0 -122 88t122 88h111q74 0 103 -28q25 -23 29 -58q1 -10 1 -39v-577q0 -54 -14 -80q-27 -49 -91 -49t-91 49q-14 26 -14 80v526zM597 127l471 1181q20 51 42 71q24 21 60 21t63 -23q35 -28 35 -71q0 -24 -19 -70l-472 -1182q-20 -51 -42.5 -71
t-59.5 -20q-35 0 -63 23q-34 28 -34 69q0 25 19 72zM1655 450q116 -74 116 -199q0 -117 -85 -190q-94 -81 -239 -81q-144 0 -238 81q-85 72 -85 189q0 125 115 200q-76 69 -76 156q0 110 89 176q78 58 195 58q118 0 196 -58q89 -66 89 -176q0 -87 -77 -156zM1449 673
q-36 0 -59 -26q-20 -22 -20 -51q0 -36 26 -59q22 -20 52 -20q34 0 57 26q20 22 20 52q0 34 -26 58q-21 20 -50 20zM1449 377q-47 0 -78 -35q-27 -29 -27 -69q0 -47 34 -78q30 -27 69 -27q46 0 77 35q27 29 27 69q0 46 -34 78q-30 27 -68 27z" />
    <glyph glyph-name="threeeighths" unicode="&#x215c;" horiz-adv-x="1846" 
d="M570 999q137 -74 137 -205q0 -123 -99 -200q-86 -68 -212 -68q-106 0 -184 47q-57 35 -94 91q-32 49 -32 92q0 37 32 65q29 24 68 24q40 0 66 -26q7 -7 33 -51q36 -58 102 -58q47 0 78 29q26 25 26 67q0 75 -100 84q-107 10 -107 89q0 38 24 60q15 13 76 29q76 19 76 74
q0 32 -28 48q-20 12 -44 12q-48 0 -96 -50q-47 -50 -89 -50t-69 30q-22 25 -22 57q0 71 69 124q93 72 215 72q105 0 182 -57q81 -62 81 -166q0 -77 -48 -129q-11 -12 -41 -34zM597 127l471 1181q20 51 42 71q24 21 61 21q35 0 62 -23q35 -28 35 -71q0 -24 -18 -70
l-472 -1182q-21 -51 -43 -70q-24 -21 -60 -21q-35 0 -63 23q-34 28 -34 69q0 26 19 72zM1656 450q116 -74 116 -199q0 -118 -85 -190q-95 -81 -239 -81q-145 0 -239 81q-85 72 -85 189q0 125 116 200q-76 69 -76 156q0 111 88 176q78 58 196 58t196 -58q88 -66 88 -176
q0 -87 -76 -156zM1449 673q-35 0 -58 -26q-20 -22 -20 -51q0 -36 25 -59q22 -20 52 -20q34 0 57 26q20 22 20 52q0 34 -26 58q-21 20 -50 20zM1450 377q-48 0 -79 -35q-27 -29 -27 -69q0 -47 34 -78q30 -27 70 -27q46 0 77 35q27 29 27 69q0 47 -34 78q-30 27 -68 27z" />
    <glyph glyph-name="fiveeighths" unicode="&#x215d;" horiz-adv-x="1846" 
d="M376 1189l-11 -88q42 11 77 11q117 0 190 -74q72 -73 72 -193q0 -136 -83 -223q-91 -96 -239 -96q-124 0 -224 65q-68 44 -68 100q0 42 32 71q26 24 63 24q27 0 100 -41q44 -24 94 -24q51 0 82 39q27 35 27 84q0 50 -30 80q-26 26 -71 26q-23 0 -46 -7q-6 -2 -54 -24
q-19 -9 -44 -9q-32 0 -57 20q-29 22 -29 57q0 13 2 27l32 256q12 95 99 95h282q123 0 123 -88t-123 -88h-196zM597 127l471 1181q19 51 42 71q24 21 60 21t63 -23q35 -28 35 -71q0 -24 -19 -70l-472 -1182q-20 -51 -42 -70q-24 -21 -60 -21q-35 0 -63 23q-34 28 -34 69
q0 25 19 72zM1655 450q116 -74 116 -199q0 -117 -85 -190q-94 -81 -239 -81q-144 0 -238 81q-85 72 -85 189q0 125 115 200q-76 69 -76 156q0 110 88 176q79 58 196 58q118 0 196 -58q89 -66 89 -176q0 -87 -77 -156zM1449 673q-36 0 -59 -26q-20 -22 -20 -51q0 -36 26 -59
q22 -20 52 -20q34 0 57 26q20 22 20 52q0 34 -26 58q-21 20 -50 20zM1449 377q-47 0 -78 -35q-27 -29 -27 -69q0 -47 34 -78q30 -27 70 -27q46 0 76 35q27 29 27 69q0 46 -34 78q-29 27 -68 27z" />
    <glyph glyph-name="seveneighths" unicode="&#x215e;" horiz-adv-x="1846" 
d="M447 1189h-233q-123 0 -123 88t123 88h366q55 0 83 -27q31 -29 31 -72q0 -19 -17 -56l-280 -600q-37 -80 -105 -80q-40 0 -71 25q-37 29 -37 67q0 27 11 49zM597 127l471 1181q20 51 42 71q24 21 61 21q35 0 62 -23q35 -28 35 -71q0 -24 -18 -70l-473 -1182
q-20 -51 -42 -70q-24 -21 -60 -21q-35 0 -63 23q-34 28 -34 69q0 25 19 72zM1656 450q116 -74 116 -199q0 -118 -85 -190q-94 -81 -239 -81t-239 81q-85 72 -85 189q0 125 116 200q-77 69 -77 156q0 110 89 176q78 58 195 58q118 0 196 -58q89 -66 89 -176q0 -87 -76 -156z
M1449 673q-36 0 -59 -26q-20 -22 -20 -51q0 -36 26 -59q22 -20 52 -20q34 0 57 26q20 22 20 52q0 34 -26 58q-21 20 -50 20zM1450 377q-48 0 -79 -35q-27 -29 -27 -69q0 -47 34 -78q30 -27 70 -27q46 0 77 35q27 29 27 69q0 46 -34 78q-30 27 -68 27z" />
    <glyph glyph-name="partialdiff" unicode="&#x2202;" 
d="M131 1136l33 225q196 -22 340 -77q183 -70 309 -221q176 -211 176 -516q0 -311 -184 -463q-124 -103 -297 -103q-142 0 -257 74q-79 51 -133 129q-84 122 -84 266q0 183 121 309t303 126q152 0 252 -96q-47 103 -116 167q-164 150 -463 180zM511 696q-84 0 -143 -60
q-71 -73 -71 -194q0 -124 74 -204q57 -63 139 -63t141 62q72 77 72 202q0 129 -78 203q-56 54 -134 54z" />
    <glyph glyph-name="emptyset" unicode="&#x2205;" horiz-adv-x="1266" 
d="M899 1365l98 -51l-98 -181q231 -161 231 -416q0 -141 -75 -262q-65 -105 -170 -167q-119 -69 -263 -69q-94 0 -162 33l-128 -251l-100 51l126 249q-221 162 -221 414q0 228 171 376q140 121 328 121q82 0 166 -29zM514 353q66 -18 119 -18q168 0 283 123q100 108 100 257
q0 150 -100 260q-25 28 -64 52zM749 1079q-57 17 -110 17q-184 0 -299 -138q-89 -107 -89 -242q0 -183 159 -310z" />
    <glyph glyph-name="Delta" unicode="&#x2206;" horiz-adv-x="1365" 
d="M35 0l503 1365h281l512 -1365h-1296zM406 242h548l-274 807z" />
    <glyph glyph-name="product" unicode="&#x220f;" horiz-adv-x="1498" 
d="M82 1536h1335v-242h-172v-1564h172v-242h-594v242h163v1564h-475v-1564h163v-242h-592v242h170v1564h-170v242z" />
    <glyph glyph-name="summation" unicode="&#x2211;" horiz-adv-x="1365" 
d="M1267 1536v-512h-232l-28 270h-671l511 -747l-511 -817h691l15 267h244v-509h-1243v268l499 791l-499 721v268h1224z" />
    <glyph glyph-name="minus" unicode="&#x2212;" horiz-adv-x="1092" 
d="M888 595h-693q-54 0 -79 13q-48 24 -48 82t48 82q25 13 79 13h702q54 0 79 -13q48 -24 48 -82t-47 -82q-26 -13 -89 -13z" />
    <glyph glyph-name="radical" unicode="&#x221a;" horiz-adv-x="1365" 
d="M1365 1702v-242h-367l-344 -1460h-343l-119 558h-192v242h406l39 -184q24 -110 29 -301h22q18 283 93 603l183 784h593z" />
    <glyph glyph-name="infinity" unicode="&#x221e;" horiz-adv-x="1365" 
d="M689 529q-148 -165 -322 -165q-156 0 -253 108q-80 89 -80 225q0 162 113 255q93 77 219 77q166 0 311 -162q141 162 320 162q169 0 266 -121q68 -85 68 -210q0 -158 -106 -251q-94 -83 -225 -83q-173 0 -311 165zM810 697q76 -114 152 -114q49 0 83 35q31 32 31 78
q0 54 -41 87q-33 27 -74 27q-60 0 -114 -63q-14 -17 -28 -37zM554 697q-75 112 -151 112q-49 0 -82 -34q-32 -32 -32 -79q0 -53 41 -86q33 -27 74 -27q60 0 114 63q15 17 28 38q9 12 8 13z" />
    <glyph glyph-name="integral" unicode="&#x222b;" 
d="M104 -491l48 231q69 -19 114 -19q72 0 100 52q16 29 16 129l1 89v991q0 119 2 199q11 355 350 355q71 0 185 -21l-47 -231q-70 19 -114 19q-90 0 -108 -71q-9 -33 -9 -197v-135v-858q0 -220 -10 -281q-19 -128 -105 -200q-86 -73 -237 -73q-81 0 -186 21z" />
    <glyph glyph-name="uni2236" unicode="&#x2236;" horiz-adv-x="546" 
d="M273 536q63 0 108 -45t45 -108q0 -64 -45 -109t-108 -45q-64 0 -109 45t-45 110q0 63 45 107q46 45 109 45zM273 1150q63 0 108 -45t45 -108q0 -64 -45 -109t-108 -45q-64 0 -109 45t-45 110q0 63 45 107q46 45 109 45z" />
    <glyph glyph-name="approxequal" unicode="&#x2248;" 
d="M157 712l-143 94q51 122 101 185q76 96 210 96q65 0 211 -54q99 -36 119 -41q31 -7 59 -7q63 0 102 40q20 20 47 66l147 -85q-45 -95 -75.5 -139t-73.5 -74q-81 -59 -175 -59q-55 0 -208 55q-131 48 -171 48q-52 0 -91 -34q-23 -20 -59 -91zM157 300l-143 94
q52 125 101 186q77 97 209 97q68 0 212 -54q95 -36 119 -41q32 -8 60 -8q61 0 101 40q19 19 47 66l147 -86q-41 -86 -67 -125q-99 -146 -257 -146q-54 0 -208 56q-132 48 -170 48q-53 0 -92 -35q-23 -20 -59 -92z" />
    <glyph glyph-name="notequal" unicode="&#x2260;" horiz-adv-x="1092" 
d="M720 772l-106 -151h283q54 0 79 -13q48 -24 48 -82t-47 -82q-26 -13 -89 -13h-407l-98 -140q-46 -66 -95 -66q-48 0 -76 38q-20 27 -20 56q0 31 35 82l22 30h-54q-54 0 -79 13q-48 24 -48 82t48 82q24 13 79 13h187l106 151h-293q-54 0 -79 13q-48 24 -48 82t48 82
q24 13 79 13h426l88 126q46 66 95 66q48 0 76 -38q20 -26 20 -55q0 -31 -41 -90l-6 -9h44q54 0 79 -13q48 -23 48 -82q0 -58 -47 -82q-26 -13 -89 -13h-168z" />
    <glyph glyph-name="lessequal" unicode="&#x2264;" 
d="M955 1363v-244l-613 -284l613 -283v-245l-887 415v218zM955 249v-242h-887v242h887z" />
    <glyph glyph-name="greaterequal" unicode="&#x2265;" 
d="M68 307v245l613 284l-613 283v244l887 -424v-218zM68 7v242h887v-242h-887z" />
    <glyph glyph-name="dotmath" unicode="&#x22c5;" horiz-adv-x="437" 
d="M221 779q72 0 122 -55q43 -48 43 -112q0 -75 -55 -125q-48 -43 -112 -43q-75 0 -125 55q-43 48 -43 114q0 72 56 123q47 43 114 43z" />
    <glyph glyph-name="triagrt" unicode="&#x25ba;" horiz-adv-x="1365" 
d="M1301 689l-1158 -409v819z" />
    <glyph glyph-name="triaglf" unicode="&#x25c4;" horiz-adv-x="1365" 
d="M63 689l1158 410v-819z" />
    <glyph glyph-name="lozenge" unicode="&#x25ca;" horiz-adv-x="1365" 
d="M683 1419l531 -736l-531 -736l-532 736zM683 1238l-404 -555l404 -554l403 554z" />
    <glyph glyph-name="musicalnotedbl" unicode="&#x266b;" horiz-adv-x="1365" 
d="M440 1320l780 -115v-912q0 -139 -58 -222q-51 -72 -135 -107q-56 -23 -114 -23q-79 0 -117 44q-28 32 -28 80q0 75 53 142q75 95 197 95q56 0 109 -23v751l-594 90v-713q0 -138 -58 -221q-51 -73 -135 -107q-56 -23 -113 -23q-79 0 -117 44q-28 32 -28 80q0 75 53 142
q74 95 196 95q56 0 109 -23v926z" />
    <glyph glyph-name="ff" unicode="&#xfb00;" horiz-adv-x="1365" 
d="M495 1038h335v141q0 148 99 235q91 80 228 80q81 0 128 -36q46 -36 46 -102q0 -52 -27 -87q-31 -40 -90 -43q-47 -3 -63 -18q-21 -20 -21 -63v-107h53q77 0 114 -18q30 -15 50 -50q18 -32 18 -68q0 -52 -35 -92q-34 -39 -100 -44l-47 -1h-53v-578q0 -86 -20 -126
q-16 -32 -55 -55q-35 -20 -75 -20q-56 0 -101 39q-42 37 -48 109l-1 53v578h-335v-578q0 -86 -20 -126q-16 -32 -53 -53.5t-77 -21.5q-56 0 -100 39q-43 37 -49 109l-1 53v578h-13q-77 0 -114 18q-30 15 -50 50q-18 32 -18 69q0 51 35 91q33 39 99 44q9 1 48 1h13v141
q0 148 99 235q91 80 228 80q81 0 128 -36q46 -35 46 -102q0 -52 -27 -87q-31 -40 -90 -43q-47 -3 -63 -18q-21 -20 -21 -63v-107z" />
    </font>
</defs>
</svg>
