<?xml version="1.0" standalone="no"?>
<!DOCTYPE svg PUBLIC "-//W3C//DTD SVG 1.1//EN" "http://www.w3.org/Graphics/SVG/1.1/DTD/svg11.dtd" >
<svg>
<metadata>
Created by FontForge 20090622 at Wed Feb  1 11:31:14 2017
 By deploy user
Copyright 1990-2003 Bitstream Inc. All rights reserved.
</metadata>
<defs>
<font id="Gothic821CondensedBT-Regular" horiz-adv-x="1024" >
  <font-face 
    font-family="Gothic821CondensedBT-Regular"
    font-weight="400"
    font-stretch="condensed"
    units-per-em="2048"
    panose-1="2 15 8 6 2 2 4 4 2 4"
    ascent="1638"
    descent="-410"
    x-height="1176"
    cap-height="1475"
    bbox="-289 -483 2048 1972"
    underline-thickness="231"
    underline-position="-328"
    unicode-range="U+0020-U+F002"
  />
<missing-glyph horiz-adv-x="1229" 
d="M102 -362v1806h1024v-1806h-1024zM217 -248h795v1577h-795v-1577z" />
    <glyph glyph-name=".notdef" horiz-adv-x="1229" 
d="M102 -362v1806h1024v-1806h-1024zM217 -248h795v1577h-795v-1577z" />
    <glyph glyph-name=".null" horiz-adv-x="0" 
 />
    <glyph glyph-name="nonmarkingreturn" horiz-adv-x="457" 
 />
    <glyph glyph-name="space" unicode=" " horiz-adv-x="457" 
 />
    <glyph glyph-name="exclam" unicode="!" horiz-adv-x="516" 
d="M135 531l-55 858q0 2 -1 15.5t-1 25.5q0 35 18 48t66 13h192q49 0 67.5 -13.5t18.5 -47.5q0 -12 -0.5 -22t-1.5 -19l-57 -858q-3 -48 -14.5 -62t-55.5 -14h-104q-45 0 -57 11.5t-15 64.5zM422 63q0 -35 -16 -49t-60 -14h-182q-40 0 -55 16t-15 58v227q0 36 16.5 50
t59.5 14h182q40 0 55 -16.5t15 -57.5v-228z" />
    <glyph glyph-name="quotedbl" unicode="&#x22;" horiz-adv-x="678" 
d="M406 1438h192v-559h-192v559zM80 1438h192v-559h-192v559z" />
    <glyph glyph-name="numbersign" unicode="#" horiz-adv-x="1575" 
d="M709 848l-88 -244h251l86 244h-249zM709 1464h221l-146 -415h242l148 415h221l-148 -415h283l-74 -201h-280l-84 -242h290l-71 -200h-291l-148 -416h-221l148 416h-244l-149 -416h-220l146 416h-287l76 200h282l86 242h-299l74 201h297z" />
    <glyph glyph-name="dollar" unicode="$" horiz-adv-x="915" 
d="M61 143l-2 174v9q0 55 22.5 78.5t74.5 23.5q29 0 74 -35t89 -35q73 0 104.5 19.5t31.5 62.5q0 54 -123 155q-58 48 -90 77q-96 88 -138.5 176t-42.5 199q0 180 79 289t220 124v127q0 17 5 21t22 4h109q18 -1 24 -7.5t6 -25.5v-106q20 1 40 1.5t55 0.5q91 0 116 -22.5
t25 -104.5v-146q0 -58 -15.5 -78t-60.5 -20q-25 0 -76 12t-78 12q-45 0 -67.5 -15.5t-22.5 -47.5q0 -60 132 -176q66 -59 104 -96q87 -86 121.5 -164.5t34.5 -188.5q0 -188 -72.5 -286.5t-235.5 -135.5v-141q0 -19 -6 -25.5t-24 -7.5h-109q-17 0 -22 4t-5 21v8v129
q-10 -1 -18.5 -1.5t-15.5 -0.5q-74 0 -141.5 15t-98.5 36q-14 11 -19.5 24t-5.5 46v18z" />
    <glyph glyph-name="percent" unicode="%" horiz-adv-x="1343" 
d="M1081 211v324q0 29 -10.5 41t-36.5 12q-25 0 -36 -12.5t-11 -40.5v-324q0 -28 11.5 -41.5t35.5 -13.5q25 0 36 13t11 42zM772 416q0 215 58.5 290.5t205.5 75.5q139 0 200.5 -73t61.5 -240v-166q0 -189 -61.5 -262.5t-210.5 -73.5q-65 0 -116.5 21.5t-84.5 62.5
q-29 38 -41 107t-12 258zM232 10q-10 5 -15.5 16t-5.5 25q0 8 3 17t9 20l743 1398q10 18 20.5 26.5t23.5 9.5q4 0 10 -2t11 -5l84 -41q6 -3 10.5 -12.5t4.5 -19.5q0 -5 -9 -23l-5 -10l-735 -1399q-11 -20 -23.5 -30.5t-25.5 -10.5q-5 0 -16 3q-3 1 -5 1zM354 938v324
q0 28 -11 40.5t-36 12.5t-36 -12.5t-11 -40.5v-324q0 -30 11 -42.5t36 -12.5q26 0 36.5 12.5t10.5 42.5zM45 1141q0 216 58.5 292t205.5 76q66 0 120.5 -21.5t86.5 -60.5q31 -37 43 -109t12 -298q0 -181 -62 -254.5t-210 -73.5q-65 0 -116.5 21.5t-84.5 62.5q-29 38 -41 107
t-12 258z" />
    <glyph glyph-name="ampersand" unicode="&#x26;" horiz-adv-x="1071" 
d="M510 991q66 72 86 108.5t20 71.5q0 45 -23 71t-65 26q-43 0 -67.5 -26.5t-24.5 -72.5q0 -34 18 -77.5t56 -100.5zM399 616q-37 -31 -57 -73.5t-20 -89.5q0 -67 43 -119.5t98 -52.5q21 0 44.5 6.5t51.5 21.5zM672 78q-47 -48 -106.5 -71t-137.5 -23q-176 0 -285.5 126
t-109.5 330q0 131 55 232t184 202q-49 78 -72.5 145t-23.5 128q0 149 98.5 245.5t253.5 96.5q142 0 228 -83t86 -218q0 -93 -52 -191t-159 -209l96 -204l14 8q3 22 4.5 36t2.5 19v21q0 88 12 109.5t47 21.5q12 0 31 -1t26 -1q15 0 42.5 1t37.5 1q42 0 64 -17.5t22 -50.5
q0 -94 -39.5 -218t-103.5 -220l106 -199q9 -14 12 -22.5t3 -16.5q0 -27 -17 -42t-47 -15q-15 0 -59 4t-74 4q-20 0 -44.5 -3t-29.5 -3q-17 0 -34.5 20.5t-30.5 57.5z" />
    <glyph glyph-name="quotesingle" unicode="'" horiz-adv-x="352" 
d="M80 1438h192v-559h-192v559z" />
    <glyph glyph-name="parenleft" unicode="(" horiz-adv-x="588" 
d="M559 1434v-230q0 -42 -34.5 -68.5t-41.5 -36.5q-37 -50 -53 -136t-16 -258q0 -184 15 -301t46 -177q9 -16 46.5 -45.5t37.5 -75.5v-215q0 -36 -16 -53.5t-49 -17.5q-74 0 -155 54.5t-132 139.5q-71 118 -104 275t-33 373q0 381 118 609t308 228q31 0 47 -16.5t16 -48.5z
" />
    <glyph glyph-name="parenright" unicode=")" horiz-adv-x="588" 
d="M23 -117v230q0 43 42 75q22 17 31 29q39 52 55.5 140.5t16.5 256.5q0 184 -15 301t-47 177q-8 16 -45.5 45.5t-37.5 74.5v215q0 37 14.5 53.5t48.5 16.5q74 0 155.5 -54t133.5 -140q70 -119 103.5 -274.5t33.5 -371.5q0 -378 -119 -608.5t-305 -230.5q-34 0 -49.5 15.5
t-15.5 49.5z" />
    <glyph glyph-name="asterisk" unicode="*" 
d="M426 1168q-1 72 -13 154t-12 93q0 40 26.5 61t76.5 21q55 0 84.5 -23t29.5 -65q0 -35 -9 -96.5t-27 -141.5l133.5 81t83.5 46q30 0 60 -41.5t30 -87.5q0 -57 -184 -110l-56 -17l97 -47q135 -64 135 -106q0 -43 -39 -86t-74 -43q-20 0 -157 117l-35 30q4 -44 19 -131
t15 -127q0 -37 -21.5 -51t-76.5 -14q-50 0 -74 21.5t-24 66.5q0 13 8 90t12 141l-90 -61q-94 -66 -121 -66q-25 0 -55.5 42.5t-30.5 80.5q0 37 22.5 59.5t59.5 22.5q3 0 55 17t104 31q-53 25 -134 56q-113 44 -113 89q0 43 36.5 87t70.5 44q12 0 74 -50.5t114 -86.5z" />
    <glyph glyph-name="plus" unicode="+" horiz-adv-x="1706" 
d="M752 1221h202v-510h498v-199h-498v-512h-202v512h-498v199h498v510z" />
    <glyph glyph-name="comma" unicode="," horiz-adv-x="455" 
d="M391 63q0 -27 -20 -61q-6 -9 -9 -14l-83 -150q-8 -14 -23.5 -21t-36.5 -7h-84q-18 0 -27.5 6t-9.5 18q0 9 30.5 64t51.5 102h-33q-54 0 -69 14t-15 60v227q0 36 16.5 50t59.5 14h183q39 0 54 -16.5t15 -57.5v-228z" />
    <glyph glyph-name="hyphen" unicode="-" horiz-adv-x="569" 
d="M57 459v270h453v-270h-453z" />
    <glyph glyph-name="period" unicode="." horiz-adv-x="455" 
d="M391 63q0 -35 -16 -49t-60 -14h-182q-40 0 -55 16t-15 58v227q0 36 16.5 50t59.5 14h183q39 0 54 -16.5t15 -57.5v-228z" />
    <glyph glyph-name="slash" unicode="/" horiz-adv-x="569" 
d="M585 1569q9 -4 15 -13t6 -18q0 -4 -3 -15t-5 -17l-481 -1656q-8 -24 -20.5 -36.5t-28.5 -12.5q-6 0 -9 0.5t-5 1.5l-95 25q-9 3 -18 16.5t-9 26.5q0 5 1.5 13t4.5 19l490 1653q6 21 17.5 32t27.5 11q6 0 9.5 -0.5t5.5 -1.5z" />
    <glyph glyph-name="zero" unicode="0" horiz-adv-x="915" 
d="M377 1049v-627q0 -57 18.5 -84t57.5 -27t55 28t16 97v602q0 78 -17.5 112t-55.5 34q-39 0 -56.5 -31.5t-17.5 -103.5zM55 827q0 242 19 346.5t63 176.5q50 77 130.5 115t193.5 38q118 0 208 -53t134 -147q30 -65 42.5 -171.5t12.5 -375.5v-56v-127q0 -186 -19 -277
t-63 -159q-55 -84 -134.5 -123t-197.5 -39q-99 0 -177 40t-128 116q-46 71 -65 197t-19 499z" />
    <glyph glyph-name="one" unicode="1" horiz-adv-x="915" 
d="M403 1485h226q31 0 44 -19.5t13 -66.5v-1274q0 -89 -17.5 -107t-74.5 -18h-191q-28 0 -39.5 16t-11.5 64q0 6 -2 52t-2 85t2 100t2 82q0 58 -2 157t-2 140q0 37 2 123.5t2 136.5q0 44 -0.5 67.5t-1.5 43.5l-88 -121q-7 -8 -18 -14t-21 -6q-9 0 -21 5.5t-24 16.5l-82 72
q-15 14 -21.5 23t-6.5 16q0 10 5 21.5t15 23.5z" />
    <glyph glyph-name="two" unicode="2" horiz-adv-x="915" 
d="M78 225q0 73 84 145q46 39 69 66q128 148 200.5 304t72.5 280q0 90 -17.5 124t-60.5 34q-33 0 -47 -26.5t-14 -92.5v-68q0 -67 -13.5 -84.5t-48.5 -17.5h-156q-38 0 -52.5 20.5t-14.5 94.5v28q0 248 90 358.5t291 110.5q175 0 271.5 -116.5t96.5 -329.5q0 -173 -78 -347
t-241 -366h217q62 0 77 -19t15 -83v-170q0 -37 -20.5 -53.5t-69.5 -16.5h-588q-31 0 -47 18.5t-16 53.5v153z" />
    <glyph glyph-name="three" unicode="3" horiz-adv-x="915" 
d="M35 223l106 168q9 15 24.5 24t33.5 9q22 0 72 -40t96 -40q54 0 85 37t31 102q0 82 -29.5 121t-91.5 39q-1 0 -24.5 -1t-46.5 -1q-36 0 -49 15t-15 65l-6 164v4q0 34 20.5 49.5t63.5 15.5q4 0 11.5 -1t11.5 -1q62 0 102.5 33t40.5 84q0 47 -31 78t-78 31q-52 0 -87.5 -44
t-49.5 -44t-24.5 6t-28.5 28l-103 120q-7 9 -11.5 21.5t-4.5 26.5q0 24 24 52.5t77 66.5q62 43 133 65.5t147 22.5q166 0 266.5 -103t100.5 -272q0 -97 -37 -170t-111 -120q87 -36 134 -129t47 -230q0 -215 -121.5 -354t-306.5 -139q-73 0 -142.5 22t-171.5 82q-3 2 -8 5
q-68 39 -68 87q0 16 15 39q3 5 4 6z" />
    <glyph glyph-name="four" unicode="4" horiz-adv-x="915" 
d="M432 631v366l-151 -366h151zM416 317h-320q-37 0 -49 14.5t-12 61.5v166q0 9 3.5 22.5t10.5 28.5l227 508q59 131 95 204.5t67 125.5q14 24 26.5 30.5t51.5 6.5h184q27 0 39.5 -16.5t12.5 -53.5v-786h71q19 0 29 -14t10 -40v-190q0 -38 -12.5 -53t-44.5 -15h-53v-233
q0 -54 -16 -69t-81 -15h-166q-45 0 -59 12.5t-14 65.5v31v208z" />
    <glyph glyph-name="five" unicode="5" horiz-adv-x="915" 
d="M121 866v432q0 8 -1 28.5t-1 33.5q0 68 22.5 96.5t73.5 28.5h461q71 0 91.5 -16t20.5 -58v-174q0 -29 -13.5 -40t-57.5 -11h-262q-25 0 -36 -21t-11 -69q0 -30 9 -43t32 -13q1 0 18.5 1t34.5 1q166 0 252 -126t86 -371q0 -260 -123 -415t-324 -155q-69 0 -140.5 24
t-148.5 73q-43 27 -64.5 53.5t-21.5 50.5q0 9 5 21t18 34l86 156q15 27 31 38t39 11q19 0 34.5 -9t34.5 -32l11 -14q33 -45 81 -45q66 0 100 55t34 162q0 97 -36.5 144.5t-111.5 47.5q-45 0 -86 -27.5t-49 -27.5q-31 0 -62.5 22t-31.5 48q0 4 3 28t3 43v35z" />
    <glyph glyph-name="six" unicode="6" horiz-adv-x="915" 
d="M463 696q-39 0 -54.5 -37t-15.5 -180q0 -114 16.5 -155t59.5 -41q40 0 57 24.5t17 83.5v76q0 151 -17 190t-63 39zM418 961l6 -9q35 22 73.5 32.5t82.5 10.5q69 0 123 -28t92 -84q32 -48 45.5 -133t13.5 -277q0 -253 -97 -375.5t-298 -122.5t-302.5 156.5t-101.5 464.5
q0 455 141 679t427 224q107 0 145.5 -26t38.5 -97v-151q0 -37 -15 -55.5t-44 -18.5q-5 0 -42 10t-69 10q-95 0 -152 -54.5t-67 -155.5z" />
    <glyph glyph-name="seven" unicode="7" horiz-adv-x="915" 
d="M254 0q-46 0 -63 20t-17 72q0 118 78 389.5t231 689.5h-313q-53 0 -64.5 20t-11.5 136q0 111 16 134.5t85 23.5h534q62 0 76 -11t14 -42q0 -4 2 -50t2 -90q0 -4 -81.5 -272t-139.5 -559q-19 -98 -29 -187.5t-10 -173.5v-14v-15q-5 -39 -19 -55t-55 -16h-20h-215z" />
    <glyph glyph-name="eight" unicode="8" horiz-adv-x="915" 
d="M475 983q34 29 52 68.5t18 85.5q0 45 -22.5 70.5t-61.5 25.5q-40 0 -63 -26.5t-23 -71.5q0 -44 26 -83.5t74 -68.5zM459 649q-43 -32 -68.5 -86.5t-25.5 -113.5q0 -64 24 -99t68 -35q42 0 67 32t25 87q0 78 -22.5 131.5t-67.5 83.5zM225 793l4 12q-79 66 -116 139.5
t-37 167.5q0 180 111 282.5t305 102.5q161 0 261.5 -104.5t100.5 -272.5q0 -90 -38.5 -173t-108.5 -142v-8q85 -56 128.5 -147.5t43.5 -215.5q0 -210 -117 -331t-320 -121q-178 0 -291.5 122.5t-113.5 313.5q0 129 47.5 223.5t140.5 151.5z" />
    <glyph glyph-name="nine" unicode="9" horiz-adv-x="915" 
d="M444 778q43 0 58.5 35t15.5 158q0 131 -18 172t-66 41q-37 0 -54.5 -25.5t-17.5 -81.5v-86q0 -135 18 -174t64 -39zM492 512l-7 8q-37 -23 -74.5 -34t-80.5 -11q-70 0 -123 28.5t-92 86.5q-33 47 -46.5 132t-13.5 277q0 253 97 374.5t299 121.5q205 0 304 -158.5
t99 -488.5q0 -432 -142.5 -653.5t-420.5 -221.5q-113 0 -151 25.5t-38 95.5v154q0 36 15 53.5t45 17.5q4 0 41 -10t69 -10q95 0 152 55.5t68 157.5z" />
    <glyph glyph-name="colon" unicode=":" horiz-adv-x="516" 
d="M422 721q0 -36 -16 -50t-60 -14h-182q-40 0 -55 16.5t-15 57.5v227q0 36 16.5 50t59.5 14h182q40 0 55 -16t15 -58v-227zM422 63q0 -35 -16 -49t-60 -14h-182q-40 0 -55 16t-15 58v227q0 36 16.5 50t59.5 14h182q40 0 55 -16.5t15 -57.5v-228z" />
    <glyph glyph-name="semicolon" unicode=";" horiz-adv-x="516" 
d="M422 721q0 -36 -16 -50t-60 -14h-182q-40 0 -55 16.5t-15 57.5v227q0 36 16.5 50t59.5 14h182q40 0 55 -16t15 -58v-227zM422 63q0 -27 -20 -61q-6 -9 -9 -14l-84 -150q-8 -14 -23 -21t-36 -7h-84q-19 0 -28 6t-9 18q0 9 30.5 64t51.5 102h-33q-54 0 -69 14t-15 60v227
q0 36 16.5 50t59.5 14h182q40 0 55 -16.5t15 -57.5v-228z" />
    <glyph glyph-name="less" unicode="&#x3c;" horiz-adv-x="1706" 
d="M1442 1194v-219l-893 -365l893 -364v-219l-1178 485v199z" />
    <glyph glyph-name="equal" unicode="=" horiz-adv-x="1706" 
d="M254 496h1198v-199h-1198v199zM254 926h1198v-199h-1198v199z" />
    <glyph glyph-name="greater" unicode="&#x3e;" horiz-adv-x="1706" 
d="M264 1194l1178 -483v-199l-1178 -485v219l895 364l-895 365v219z" />
    <glyph glyph-name="question" unicode="?" horiz-adv-x="664" 
d="M225 455q-33 0 -48 46.5t-15 153.5q0 108 28.5 240t28.5 154q0 44 -15.5 67t-45.5 23q-10 0 -28 -5.5t-28 -5.5q-36 0 -51.5 49.5t-15.5 163.5q0 84 50.5 122t160.5 38q162 0 244.5 -77t82.5 -228q0 -109 -86 -311l-20 -47q-22 -53 -33.5 -102.5t-11.5 -90.5
q0 -24 4 -65.5t4 -57.5q0 -38 -15.5 -52.5t-64.5 -14.5h-125zM475 63q0 -35 -16 -49t-60 -14h-182q-40 0 -55 16t-15 58v227q0 36 16.5 50t59.5 14h183q39 0 54 -16.5t15 -57.5v-228z" />
    <glyph glyph-name="at" unicode="@" horiz-adv-x="2048" 
d="M1167 272q-55 -84 -127 -123.5t-170 -39.5q-158 0 -240.5 86t-82.5 254q0 239 139.5 401t343.5 162q80 0 139 -33t97 -98l53 98h178l-147 -598q-3 -11 -5 -22.5t-2 -18.5q0 -35 24 -52.5t71 -17.5q39 0 81.5 20t79.5 56q86 80 130.5 187t44.5 235q0 240 -185.5 394.5
t-478.5 154.5q-141 0 -262.5 -34t-220.5 -101q-170 -114 -261.5 -285t-91.5 -375q0 -307 207 -490.5t553 -183.5q162 0 316.5 49t287.5 142l82 -117q-153 -115 -324.5 -173t-357.5 -58q-192 0 -353 48.5t-286 143.5q-155 121 -232 279t-77 358q0 167 52.5 318.5t154.5 275.5
q148 181 356 274t463 93q169 0 317.5 -45.5t258.5 -128.5q135 -105 201.5 -239.5t66.5 -303.5q0 -165 -65.5 -304.5t-188.5 -238.5q-70 -56 -152.5 -85.5t-171.5 -29.5q-106 0 -159.5 42t-55.5 124zM1217 700q-13 81 -57.5 123.5t-117.5 42.5q-114 0 -198 -124t-84 -298
q0 -92 40.5 -140t117.5 -48q83 0 151.5 63t93.5 164z" />
    <glyph glyph-name="A" unicode="A" horiz-adv-x="895" 
d="M438 1110l-57 -416q-6 -45 -10 -69q0 -20 21.5 -31.5t58.5 -11.5q39 0 56 12.5t17 44.5q0 7 -0.5 15.5t-3.5 30.5l-65 427zM12 202l64 298q5 24 9 77.5t9 81.5l70.5 376t46.5 268v1q31 171 90 171h252q38 0 54 -5.5t26 -19.5q14 -21 65 -264q34 -165 58 -271
q12 -55 38 -230t48 -292q9 -51 36 -160t27 -155q0 -35 -26 -56.5t-68 -21.5h-180q-20 0 -38 14t-24 34q-6 25 -9.5 72.5t-8.5 67.5q-9 39 -29 54.5t-59 15.5q-54 0 -85.5 -17t-31.5 -46q0 -14 1 -37.5t1 -34.5q0 -73 -20.5 -98t-75.5 -25h-189q-41 0 -59 14t-18 45
q0 29 16 100q7 29 10 43z" />
    <glyph glyph-name="B" unicode="B" horiz-adv-x="934" 
d="M528 1475q166 0 248 -88.5t82 -266.5q0 -137 -32 -208t-105 -99q84 -35 121 -119.5t37 -247.5q0 -232 -97.5 -339t-310.5 -107h-283q-40 0 -62 4.5t-38 13.5q-14 9 -19.5 43.5t-5.5 165.5q0 58 4.5 159t4.5 144q0 64 -4.5 185.5t-4.5 177.5q0 49 3.5 177t3.5 208
q0 20 -3.5 61t-3.5 62q0 38 34 58t100 20q20 0 49 -2t39 -2h243zM381 387q0 -44 16 -64t52 -20q53 0 82.5 43t29.5 121q0 83 -26.5 120.5t-85.5 37.5q-35 0 -51.5 -16.5t-16.5 -51.5v-170zM387 977q0 -17 11 -27t28 -10q61 0 92 33t31 98q0 53 -27 85t-71 32
q-33 0 -48.5 -11t-15.5 -34v-166z" />
    <glyph glyph-name="C" unicode="C" horiz-adv-x="725" 
d="M43 760q0 415 112.5 565t409.5 150q67 0 91 -23.5t24 -85.5q0 -7 -1 -36.5t-1 -51.5q0 -9 2 -34.5t2 -41.5q0 -35 -9 -54t-32 -32q-7 -3 -17.5 -4.5t-35.5 -1.5q-29 0 -44 -2t-28 -6q-65 -21 -89 -87.5t-24 -281.5q0 -246 30.5 -317.5t109.5 -71.5q18 0 45.5 2t36.5 2
q28 0 43.5 -21.5t15.5 -62.5q0 -74 4 -145v-15q0 -62 -31 -86t-112 -24q-161 0 -243.5 36.5t-143.5 125.5t-88 225t-27 379z" />
    <glyph glyph-name="D" unicode="D" horiz-adv-x="973" 
d="M461 1473h8q242 0 343 -181.5t101 -642.5q0 -333 -92.5 -493t-285.5 -160q-15 0 -37 2t-29 2l-135 -2q-3 0 -19 -1q-77 -3 -153 -3q-62 0 -81.5 27t-19.5 157v19q0 8 1 54q6 272 6 550q0 279 -9 538q-2 38 -2 43q0 48 26.5 69.5t86.5 21.5q7 0 52.5 -1.5t84.5 -1.5z
M385 442q0 -6 -1 -19.5t-1 -21.5q0 -52 16 -74t56 -22q62 0 84 52t22 245v127q0 277 -24.5 343.5t-94.5 66.5q-33 0 -48 -17.5t-15 -56.5q0 -37 2 -86t2 -61z" />
    <glyph glyph-name="E" unicode="E" horiz-adv-x="768" 
d="M68 1323q0 3 -1 20t-1 31q0 59 25.5 80t127.5 21h320q3 0 15 -1t19 -1h6q18 2 33 2q63 0 86 -22.5t23 -84.5q0 -51 2 -107v-18q0 -57 -20.5 -78.5t-79.5 -21.5q-11 0 -36 1t-40 1h-94q-34 0 -47 -18t-13 -64v-27q0 -68 14.5 -85t57.5 -17q14 0 61 3t78 3q64 0 85.5 -23.5
t21.5 -113.5v-60q0 -71 -20.5 -104t-63.5 -33q-14 0 -68.5 4t-97.5 4q-36 0 -49 -11t-13 -58l-2 -121q0 -51 12.5 -63.5t57.5 -12.5q73 0 156 2h24q54 0 72 -26t18 -129q0 -138 -21.5 -166.5t-86.5 -28.5q-35 0 -147.5 4t-190.5 4q-20 0 -69 -4t-77 -4q-44 0 -69 23t-25 63
q0 31 7.5 111.5t9.5 132.5v993z" />
    <glyph glyph-name="F" unicode="F" horiz-adv-x="725" 
d="M61 178v1102q0 12 -1 44.5t-1 51.5q0 56 20 77.5t71 21.5q9 0 27.5 -1t27.5 -1t28 1t29 1h289q18 0 40 1t25 1q55 0 75 -23t20 -84q0 -13 -2 -45.5t-2 -50.5q0 -80 -24.5 -101.5t-160.5 -21.5h-57q-51 0 -63.5 -20t-12.5 -95q0 -78 15 -91t100 -13h14q25 0 64.5 4t54.5 4
q32 0 45.5 -20t13.5 -70q0 -13 -1 -40t-1 -40v-51q0 -70 -21 -93.5t-77 -23.5q-15 0 -55.5 2t-65.5 2q-51 0 -66.5 -19.5t-15.5 -84.5v-297q0 -38 3 -82.5t3 -50.5q0 -42 -18.5 -60t-61.5 -18q-18 0 -59.5 4t-64.5 4q-15 0 -43.5 -3t-42.5 -3q-29 0 -39.5 13.5t-10.5 62.5
v41q0 11 1 33t1 32z" />
    <glyph glyph-name="G" unicode="G" horiz-adv-x="948" 
d="M885 156q0 -58 -6.5 -80.5t-22.5 -34.5q-42 -32 -110.5 -49t-155.5 -17q-257 0 -407 194t-150 527q0 359 159.5 569t430.5 210q141 0 193 -32.5t52 -117.5q0 -142 -16 -177.5t-59 -35.5q-11 0 -56 11.5t-80 11.5q-140 0 -208 -94.5t-68 -288.5q0 -217 38 -316.5
t120 -99.5q34 0 48.5 24t14.5 89v114q0 16 -13 29.5t-37 22.5q-32 13 -46 39t-14 75q0 146 23 181.5t118 35.5h119q76 0 104.5 -31t28.5 -114v-43v-602z" />
    <glyph glyph-name="H" unicode="H" horiz-adv-x="934" 
d="M188 1475h64q93 0 122 -21t29 -80v-14l-12 -324q0 -7 -1 -21t-1 -20q0 -55 18.5 -76.5t61.5 -21.5q45 0 63.5 31t18.5 108q0 56 -5 111l-5 55q0 19 4 54.5t4 54.5q0 16 -2 42.5t-2 37.5q0 48 23.5 66t111.5 18h96q55 0 75.5 -17.5t20.5 -60.5q0 -4 -1 -22q-5 -92 -5 -183
q0 -11 1 -80t1 -127q0 -42 -2 -241t-2 -357q0 -88 3 -178.5t3 -93.5q0 -60 -22.5 -87.5t-71.5 -27.5h-145q-49 0 -71.5 28.5t-22.5 90.5v180q0 42 9 108.5t9 90.5q0 35 -15 52t-46 17q-55 0 -77 -25.5t-22 -101.5v-323q0 -74 -24.5 -95.5t-104.5 -21.5h-80q-84 0 -103.5 19
t-19.5 73q0 5 1 27q4 110 4 215q0 110 -3.5 320.5t-3.5 310.5q0 45 2.5 157.5t2.5 180.5v51q0 82 22.5 101.5t99.5 19.5z" />
    <glyph glyph-name="I" unicode="I" horiz-adv-x="465" 
d="M279 1475q47 -1 67.5 -5.5t32.5 -15.5q11 -11 15.5 -38t4.5 -97v-123q0 -223 -3 -506.5t-3 -343.5q0 -29 2 -103.5t2 -121.5q0 -73 -21.5 -97t-109.5 -24h-71q-90 0 -112 21t-22 114q0 18 2 108q7 465 7 922q0 98 -4 197v20q0 57 18.5 75t99.5 18h95z" />
    <glyph glyph-name="J" unicode="J" horiz-adv-x="573" 
d="M395 1475q61 0 82 -21t21 -82q0 -5 -1 -27q-3 -119 -3 -239q0 -29 1 -135.5t1 -184.5v-401q0 -234 -53 -316.5t-195 -82.5q-147 0 -183 20t-36 125v27q0 112 11 138t46 30q4 0 11 1q49 5 57 28q4 13 6 50.5t2 163.5v166q0 123 -1 336.5t-1 304.5q0 62 17.5 80.5
t74.5 18.5h143z" />
    <glyph glyph-name="K" unicode="K" horiz-adv-x="891" 
d="M303 1475q47 0 63.5 -19.5t16.5 -75.5v-14l-8 -399h31l34 138q78 307 88 332q8 20 25.5 29t46.5 9h188q52 0 67 -8.5t15 -30.5q0 -25 -22 -76q-7 -14 -10 -22l-174 -420q-2 -4 -4 -10q-13 -35 -13 -54q0 -24 103 -350l6 -19l74 -229q61 -182 61 -215q0 -19 -17.5 -30
t-48.5 -11q-6 0 -38 2t-58 2q-9 0 -34 -2t-42 -2q-75 0 -92 14.5t-37 96.5l-118 505h-27v-501q0 -75 -19.5 -95t-72.5 -20h-97q-92 0 -109.5 24t-17.5 113q0 11 1 62q2 257 2 508q0 288 -2 598q-1 69 -1 84q0 51 21.5 68.5t97.5 17.5h121z" />
    <glyph glyph-name="L" unicode="L" horiz-adv-x="702" 
d="M193 0q-7 0 -24 -2t-28 -2q-46 0 -63 31.5t-17 160.5v21q0 95 2.5 318t2.5 352q0 61 -1.5 213t-1.5 243q0 93 14 116.5t54 23.5q2 0 13 -1q40 -1 79 -1q27 0 63 2t46 2q15 0 23.5 -2t14.5 -6q12 -10 16.5 -30t4.5 -71v-30q-2 -126 -2 -244q0 -433 2 -549.5t6 -140.5
q6 -37 23.5 -51.5t54.5 -14.5q10 0 37 3t43 3q52 0 72 -25.5t20 -99.5v-108q0 -57 -28 -85t-87 -28q-19 0 -47 1t-36 1h-256z" />
    <glyph glyph-name="M" unicode="M" horiz-adv-x="1186" 
d="M70 186v889q0 21 2 86.5t2 110.5q0 23 -3 64.5t-3 60.5q0 46 20 62t84 16h190q60 0 83 -27t40 -105l99 -434h24l119 490q11 41 29 58.5t51 17.5h225q50 0 67 -24.5t17 -107.5q0 -32 -4 -168.5t-4 -240.5q0 -46 2 -254.5t2 -370.5q0 -86 4 -172v-18q0 -69 -13.5 -94
t-49.5 -25h-185q-40 0 -56.5 23t-16.5 83v394q0 80 -2.5 152.5t-6.5 129.5h-30q-43 -205 -80.5 -303t-73.5 -98q-52 0 -183 391l-3 10h-25v-82v-86v-430q0 -16 -2 -54t-2 -60q0 -48 -19 -59t-89 -11h-134q-38 0 -56.5 29t-18.5 88v69z" />
    <glyph glyph-name="N" unicode="N" 
d="M63 139v1184q0 97 21 124.5t76 27.5h186q38 0 53 -10.5t25 -43.5q3 -10 13 -48q77 -292 175 -595h41l4 574q0 79 16.5 101t61.5 22h127q59 0 77.5 -17t18.5 -67q0 -4 -1 -19t-1 -26v-580q0 -27 -3 -95.5t-3 -111.5q0 -7 1 -40q3 -174 3 -347q0 -113 -19.5 -142.5
t-70.5 -29.5h-166q-60 0 -78.5 17.5t-44.5 107.5l-165 571h-41v-571q0 -82 -20 -103.5t-79 -21.5h-104q-62 0 -82.5 20t-20.5 119z" />
    <glyph glyph-name="O" unicode="O" horiz-adv-x="1034" 
d="M416 526q0 -114 19.5 -155t70.5 -41q64 0 87 51t23 268v25v321q0 74 -26 116t-72 42q-56 0 -79 -48t-23 -171v-408zM51 725q0 261 18.5 374.5t61.5 194.5q53 102 158.5 154.5t255.5 52.5q227 0 331.5 -137.5t104.5 -439.5v-66q0 -313 -12.5 -436t-42.5 -199
q-49 -119 -162 -183.5t-275 -64.5q-238 0 -338 166t-100 584z" />
    <glyph glyph-name="P" unicode="P" horiz-adv-x="1014" 
d="M395 1057q0 -114 3 -201.5t7 -109.5q4 -18 26 -29.5t54 -11.5q66 0 92.5 46t26.5 177q0 140 -27 196t-92 56q-47 0 -68.5 -29.5t-21.5 -93.5zM94 131q0 6 -1 61t-1 103q0 88 4 314.5t4 363.5q0 169 -8 348q-2 39 -2 47q0 53 19 78.5t59 28.5h9q150 12 347 12
q215 0 317.5 -132t102.5 -409q0 -257 -110 -411t-291 -154q-6 0 -19.5 1t-19.5 1q-57 0 -77.5 -18.5t-20.5 -67.5q0 -92 6 -191q2 -24 2 -28q0 -42 -17.5 -60t-58.5 -18q-10 0 -36 3t-42 3q-21 0 -58 -5t-52 -5q-30 0 -44 17t-14 53q0 16 1 38t1 27z" />
    <glyph glyph-name="Q" unicode="Q" horiz-adv-x="1063" 
d="M801 66q-66 -48 -140.5 -69.5t-177.5 -21.5q-132 0 -220 55t-138 169q-37 83 -53.5 224t-16.5 404q0 366 113 520t375 154q225 0 328.5 -138t103.5 -439q0 -263 -8 -457v-12q-7 -62 -24 -112q-3 -8 -3 -9q0 -5 8 -10t37 -17q13 -5 34 -10q42 -9 42 -53q0 -19 -2 -47
t-2 -37q0 -10 2 -40t2 -50q0 -35 -16 -51.5t-50 -16.5q-44 0 -95.5 16.5t-98.5 47.5zM410 621v-109q0 -115 18.5 -149.5t67.5 -34.5q9 0 21.5 2.5t29.5 7.5q-36 32 -48 50.5t-12 37.5q0 24 15.5 40.5t38.5 16.5q20 0 41 -10.5t41 -30.5v160v113v280q0 79 -26 118.5t-77 39.5
q-62 0 -86 -46t-24 -173v-313z" />
    <glyph glyph-name="R" unicode="R" horiz-adv-x="1053" 
d="M401 913q0 -118 20.5 -144t78.5 -26q52 0 83 38t31 100q0 189 -26.5 238.5t-98.5 49.5q-46 0 -69 -27.5t-23 -82.5q0 -11 2 -59.5t2 -86.5zM76 133v1217q0 80 23.5 104.5t88.5 24.5q35 0 88 -2t72 -2q29 0 104.5 3t120.5 3q203 0 288 -116.5t85 -391.5q0 -211 -35 -312.5
t-118 -144.5l186 -426q5 -12 7.5 -21t2.5 -16q0 -26 -19 -41.5t-52 -15.5q-7 0 -22 2t-24 2h-174q-59 0 -86 77l-12 32l-158 407h-36v-432q0 -44 -16.5 -64t-51.5 -20h-182q-48 0 -64 22t-16 111z" />
    <glyph glyph-name="S" unicode="S" horiz-adv-x="887" 
d="M68 119l-2 155v9q0 56 21 80t71 24q9 0 64.5 -25.5t117.5 -25.5q55 0 79.5 21.5t24.5 68.5q0 69 -125 176q-52 45 -79 72q-91 88 -131.5 179.5t-40.5 209.5q0 207 115 311.5t345 104.5q142 0 176.5 -19t34.5 -112v-150q0 -64 -13.5 -82t-57.5 -18q-26 0 -75 13t-75 13
q-46 0 -70 -21t-24 -61q0 -54 135 -179l107 -101q76 -76 108.5 -154t32.5 -188q0 -228 -106 -336.5t-330 -108.5q-84 0 -155 11.5t-109 29.5q-22 11 -30.5 28t-8.5 60v15z" />
    <glyph glyph-name="T" unicode="T" horiz-adv-x="807" 
d="M549 1051l2 -830q0 -36 3 -81t3 -54q0 -46 -17 -66t-57 -20q-3 0 -19.5 1t-29.5 1q-15 0 -58 -3t-71 -3q-49 0 -70.5 19t-21.5 63q0 17 2 53.5t2 54.5v531q0 16 -2 50.5t-2 53.5q0 8 1 39q5 121 5 230q0 21 -3.5 28.5t-12.5 9.5q-23 6 -78 7t-82 12q-21 9 -29 46.5
t-8 166.5q0 55 23.5 81.5t72.5 26.5q136 0 270 4q23 1 27 1q33 0 85 -3.5t71 -3.5q20 0 57 2t54 2q60 0 76 -18t16 -82v-24q0 -140 -15.5 -175.5t-56.5 -35.5h-68q-38 0 -53.5 -10.5t-15.5 -39.5v-18v-16z" />
    <glyph glyph-name="U" unicode="U" horiz-adv-x="1010" 
d="M57 539v790q0 95 17 120.5t61 25.5h168q51 0 69.5 -19.5t18.5 -93.5v-899q0 -73 26.5 -107t82.5 -34q55 0 82.5 28t27.5 84v924q0 67 21 92t78 25h159q39 0 56.5 -25t17.5 -82v-893q0 -260 -113.5 -380t-359.5 -120q-117 0 -201 35.5t-135 106.5q-41 56 -58.5 142
t-17.5 280z" />
    <glyph glyph-name="V" unicode="V" horiz-adv-x="920" 
d="M477 412l26 360q44 638 77 680q9 13 27 19t46 6q34 0 89.5 -1t76.5 -1h19q52 0 67 -8.5t15 -28.5q0 -47 -79 -492l-85 -487q-14 -82 -32 -212q-35 -249 -103 -249q-8 0 -28 3t-32 3q-33 0 -71.5 -2t-43.5 -2q-12 0 -35.5 2t-35.5 2q-15 0 -36.5 -1t-27.5 -1
q-58 0 -86 201l-14 96q-17 105 -68 355.5t-75 398.5l-43 239t-23 133q0 30 17.5 41t70.5 11h80h125q32 0 47 -7.5t21 -24.5q14 -46 37 -313t51 -720h26z" />
    <glyph glyph-name="W" unicode="W" horiz-adv-x="1337" 
d="M369 1313l75 -692h25l90 346l-78 424q0 2 -1 7q-3 17 -3 21q0 25 18 42.5t44 17.5q34 0 74 -2t46 -2q14 0 41.5 2t40.5 2q41 0 56 -21.5t20 -95.5l57 -741h23l90 735v12v18q0 47 22.5 67t77.5 20q25 0 73 -2.5t71 -2.5q19 0 40.5 1t24.5 1q24 0 32.5 -9t8.5 -31
q0 -17 -17 -103l-3 -16l-221 -1186l-3 -15q-20 -112 -87 -112q-10 0 -32.5 3t-35.5 3q-14 0 -37 -4t-33 -4q-78 0 -109 162l-1 7l-78 404h-23l-69 -466q-10 -64 -35 -83.5t-82 -19.5q-5 0 -22 1t-29 1q-10 0 -32.5 -2t-35.5 -2q-95 0 -120 146q-3 18 -5 29l-196 1143l-10 54
q-11 55 -11 72q0 15 18 23t54 8q82 0 165 3q17 1 21 1q83 0 100 -161z" />
    <glyph glyph-name="X" unicode="X" horiz-adv-x="920" 
d="M246 768l-139.5 415.5t-77.5 241.5q0 23 16 36.5t43 13.5q29 0 66 -1t45 -1q12 0 46 1t56 1q35 0 54.5 -16t27.5 -52l72 -330h22l64 336q6 32 23.5 48t45.5 16q14 0 56 -5.5t71 -5.5q23 0 55 3.5t44 3.5q25 0 39 -12t14 -34q0 -14 -16 -56q-9 -22 -13 -34l-207 -569
l244 -664q1 -3 4 -11q17 -45 17 -64q0 -17 -17 -24t-61 -7q-10 0 -46.5 2t-64.5 2q-37 0 -74 -2l-37 -2q-29 0 -44 13.5t-25 56.5l-94 352h-19l-78 -357q-7 -34 -25.5 -48.5t-58.5 -14.5q-14 0 -49 3t-57 3q-17 0 -55.5 -2t-59.5 -2q-42 0 -50.5 6.5t-8.5 26.5q0 9 4.5 27.5
t13.5 43.5z" />
    <glyph glyph-name="Y" unicode="Y" horiz-adv-x="891" 
d="M373 1392l73 -468h17l65 415q10 66 21 91.5t31 31.5q18 6 73.5 9.5t147.5 3.5q50 0 74 -13.5t24 -40.5q0 -9 -5 -29.5t-13 -47.5l-226 -685q-1 -5 -6 -18q-33 -86 -33 -190v-13l5 -282q0 -21 2 -50.5t2 -37.5q0 -38 -19 -53t-69 -15q-22 0 -52 1t-36 1q-36 0 -74 -2
t-39 -2q-30 0 -42.5 13t-12.5 44v24q4 137 4 286v157q0 46 -26 122l-3 9l-233 688q-9 26 -13 44.5t-4 31.5q0 31 19.5 44.5t62.5 13.5q5 0 34 -2.5t54 -2.5q8 0 46 1.5t69 1.5q37 0 55.5 -17.5t26.5 -63.5z" />
    <glyph glyph-name="Z" unicode="Z" horiz-adv-x="834" 
d="M39 78l2 168q0 57 60 197q20 47 30 73q68 172 161 375t93 229q0 14 -19 19.5t-87 5.5q-54 0 -116 -3q-17 -1 -22 -1q-47 0 -65.5 23.5t-18.5 88.5q0 12 1 26t1 15q0 3 -1 35.5t-1 63.5q0 42 25 59.5t86 17.5h545q21 0 32.5 -2.5t17.5 -8.5q12 -11 16.5 -34.5t4.5 -83.5
v-69q0 -8 -6 -32t-16 -50l-322 -787q-2 -5 -6 -14q-10 -24 -10 -35q0 -8 21.5 -12t86.5 -4h56q43 0 91.5 4t51.5 4q25 0 41 -21t16 -53q0 -24 -2 -64t-2 -54q0 -6 1 -25.5t1 -34.5q0 -53 -15.5 -73.5t-59.5 -20.5q-59 0 -154 2t-131 2q-29 0 -98 -2t-109 -2h-45
q-31 0 -66 -3q-8 -1 -10 -1q-32 0 -45.5 18.5t-13.5 63.5z" />
    <glyph glyph-name="bracketleft" unicode="[" horiz-adv-x="588" 
d="M80 -80v1434q0 82 17.5 101.5t64.5 19.5h287q36 0 51.5 -18.5t15.5 -63.5v-150q0 -32 -11.5 -45.5t-37.5 -13.5q-4 0 -12.5 1t-14.5 1q-21 0 -32 -19t-11 -57v-922q0 -32 9.5 -44.5t33.5 -14.5q46 -2 61 -14t15 -39v-201q0 -23 -13 -32t-54 -9h-312q-34 0 -45.5 13
t-11.5 73z" />
    <glyph glyph-name="backslash" unicode="\" horiz-adv-x="569" 
d="M69 1597q2 1 5.5 1.5t9.5 0.5q16 0 27.5 -11t17.5 -32l490 -1653q3 -11 4.5 -19t1.5 -13q0 -13 -9 -26.5t-18 -16.5l-95 -25q-2 -1 -5 -1.5t-9 -0.5q-16 0 -28.5 12.5t-20.5 36.5l-481 1655l-5 18t-3 15q0 9 6 18t15 13z" />
    <glyph glyph-name="bracketright" unicode="]" horiz-adv-x="588" 
d="M502 -80q0 -58 -12 -72t-46 -14h-309q-42 0 -55.5 9t-13.5 32v201q0 27 14 39t61 14q25 2 34 14.5t9 44.5v922q0 37 -10.5 56.5t-32.5 19.5q-5 0 -13.5 -1t-12.5 -1q-27 0 -38 13t-11 46v150q0 45 15.5 63.5t53.5 18.5h287q46 0 63 -18t17 -91v-12v-1434z" />
    <glyph glyph-name="asciicircum" unicode="^" horiz-adv-x="2048" 
d="M897 1460h252l481 -561h-235l-371 371l-373 -371h-235z" />
    <glyph glyph-name="underscore" unicode="_" 
d="M0 -279h1024v-204h-1024v204z" />
    <glyph glyph-name="grave" unicode="`" 
d="M259 1443q-4 3 -6.5 7t-2.5 8q0 7 6 11.5t16 5.5h234q19 0 35.5 -7t21.5 -16l99 -172l3 -7.5l1 -2.5q-1 -9 -6 -13.5t-15 -5.5h-145q-18 0 -30.5 4.5t-20.5 12.5z" />
    <glyph glyph-name="a" unicode="a" horiz-adv-x="846" 
d="M334 483v-131q0 -52 18 -77t56 -25q41 0 57 24.5t16 92.5v122q0 57 -15.5 81t-51.5 24q-40 0 -60 -27.5t-20 -83.5zM485 76h-14q-17 -47 -56.5 -70.5t-99.5 -23.5q-120 0 -194 114.5t-74 302.5q0 196 79 314t206 118q32 0 75 -13t54 -13q15 0 21.5 8.5t6.5 30.5
q0 45 -33.5 71.5t-90.5 26.5q-50 0 -111 -18.5t-72 -18.5q-26 0 -37.5 15t-11.5 53v102q0 39 7.5 52.5t25.5 21.5q42 19 116 32t150 13q190 0 266 -66.5t76 -236.5v-92v-693q0 -8 1 -21t1 -17q0 -44 -13 -56t-79 -12h-141q-41 0 -48.5 10.5t-9.5 65.5z" />
    <glyph glyph-name="b" unicode="b" horiz-adv-x="868" 
d="M367 723v-303q0 -60 18.5 -90.5t54.5 -30.5q41 0 56.5 30t15.5 124v288q0 83 -15.5 109.5t-56.5 26.5t-57 -29t-16 -125zM78 1391q0 72 11.5 84t72.5 12h129q53 0 69.5 -15t16.5 -90v-241q31 26 69 39.5t82 13.5q144 0 210.5 -143.5t66.5 -452.5q0 -324 -62 -466
t-200 -142q-53 0 -95 20t-83 64q-7 -50 -19.5 -62t-56.5 -12h-123q-54 0 -73 16.5t-19 63.5q0 17 2 59t2 68v1184z" />
    <glyph glyph-name="c" unicode="c" horiz-adv-x="584" 
d="M528 1112v-168q0 -72 -67 -80q-8 -1 -13 -2q-51 -7 -69.5 -52t-18.5 -214q0 -155 19 -200.5t70 -45.5h22q34 0 45.5 -14t11.5 -57v-213q0 -39 -22 -57.5t-68 -18.5q-217 0 -302 124t-85 453q0 366 84 496.5t303 130.5q51 0 70.5 -18t19.5 -64z" />
    <glyph glyph-name="d" unicode="d" horiz-adv-x="868" 
d="M356 745v-290q0 -96 16 -126t56 -30q37 0 55.5 30.5t18.5 92.5v305q0 97 -16 125.5t-58 28.5q-40 0 -56 -26.5t-16 -109.5zM487 1382q0 72 17 88.5t71 16.5h130q60 0 71.5 -13t11.5 -83v-1184q0 -23 2.5 -65.5t2.5 -61.5q0 -46 -20.5 -63t-74.5 -17h-120q-45 0 -58.5 13
t-19.5 61q-41 -44 -83.5 -64t-94.5 -20q-137 0 -199 142.5t-62 465.5q0 309 67 452.5t210 143.5q44 0 81 -13t68 -40v241z" />
    <glyph glyph-name="e" unicode="e" horiz-adv-x="834" 
d="M387 709h64q30 0 40.5 12t10.5 53q0 83 -20 115.5t-68 32.5q-36 0 -53 -27.5t-17 -87.5q0 -62 9 -80t34 -18zM768 270v-157q0 -24 -6 -42t-15 -24q-34 -25 -109 -44t-149 -19q-235 0 -342.5 146t-107.5 470q0 312 91.5 452t293.5 140q105 0 183 -44.5t128 -133.5
q27 -48 38 -123t11 -258q0 -100 -16.5 -132t-58.5 -32h-330q-10 0 -21.5 -9t-11.5 -18q0 -78 42.5 -113.5t137.5 -35.5q51 0 105.5 26.5t64.5 26.5q34 0 53 -20t19 -56z" />
    <glyph glyph-name="f" unicode="f" horiz-adv-x="573" 
d="M530 1270q0 -31 -12.5 -46.5t-38.5 -15.5q-7 0 -19.5 2t-17.5 2q-21 0 -31 -13t-10 -42q0 -11 3 -36q1 -7 2 -11h77q25 0 36 -15t11 -51v-149q0 -41 -16.5 -55.5t-64.5 -14.5h-29v-739q0 -59 -16 -74.5t-64 -15.5q-17 0 -41 2t-29 2q-13 0 -38.5 -3t-38.5 -3
q-38 0 -51 16.5t-13 85.5v725q-6 -1 -11 -1.5t-16 -0.5q-29 0 -39 14t-10 70v141q0 39 12 53.5t41 14.5q3 0 11 -1t12 -1v186q0 99 52 149t155 50h84q79 0 94.5 -15t15.5 -63v-147z" />
    <glyph glyph-name="g" unicode="g" horiz-adv-x="844" 
d="M768 240v-50q0 -114 -18 -165t-60 -86q-63 -52 -147 -80.5t-176 -28.5q-167 0 -207.5 26.5t-40.5 157.5q0 50 17 79.5t46 29.5q11 0 63 -22.5t97 -22.5q74 0 105.5 28.5t31.5 96.5q0 17 -0.5 27t-1.5 17q-36 -29 -74.5 -44t-80.5 -15q-125 0 -196 130t-71 362
q0 255 71.5 384.5t211.5 129.5q36 0 69 -17.5t72 -58.5v19q0 24 8.5 35.5t26.5 11.5q2 0 13 -1q35 -1 69 -1q38 0 76 1t39 1q36 0 46.5 -16t10.5 -91v-18v-819zM414 887q-44 0 -61 -41t-17 -160q0 -126 18.5 -170.5t65.5 -44.5q38 0 52.5 28t14.5 124q0 30 -2 87t-2 85
q0 44 -18 68t-51 24z" />
    <glyph glyph-name="h" unicode="h" horiz-adv-x="930" 
d="M670 0q-80 0 -103.5 19.5t-23.5 95.5v536q0 143 -16.5 180t-57.5 37q-44 0 -66 -37.5t-22 -113.5v-443q0 -33 5 -94.5t5 -89.5q0 -53 -17 -71.5t-87 -18.5h-137q-46 0 -61 21t-15 90v1128q0 8 -2 48.5t-2 72.5q0 81 23.5 102t105.5 21h116q39 0 54.5 -9.5t15.5 -31.5
q0 -3 -1 -9.5t-1 -11.5l6 -327l10 -2q40 52 89 77t112 25q129 0 188.5 -95.5t59.5 -303.5v-631q0 -107 -21.5 -135.5t-78.5 -28.5h-78z" />
    <glyph glyph-name="i" unicode="i" horiz-adv-x="469" 
d="M219 1235q-102 0 -125.5 20.5t-23.5 128.5q0 72 16.5 91.5t69.5 19.5q10 0 38 -1t46 -1q11 0 33 1t32 1q57 0 72.5 -19t15.5 -108q0 -83 -18.5 -108t-100.5 -25h-55zM70 131v852q0 12 -1 43t-1 49q0 54 20 73t90 19h39q13 0 41 1t43 1q54 0 72 -13t18 -48v-74v-938
q0 -65 -14.5 -81.5t-61.5 -16.5q-19 0 -48.5 1t-39.5 1q-30 0 -63 -1t-37 -1q-33 0 -45 16t-12 76v41z" />
    <glyph glyph-name="j" unicode="j" horiz-adv-x="502" 
d="M428 1034v-909q0 -166 -58 -230.5t-206 -64.5q-96 0 -128 22.5t-32 112.5q0 3 1 29.5t1 50.5q0 7 -1 29.5t-1 38.5q0 55 49 60q17 2 24 3q17 3 23 21t6 77v709q0 11 -1 42t-1 52q0 54 22 73t89 19q2 0 16 -1t25 -1q13 0 40 1t42 1q54 0 72 -13t18 -48v-74zM250 1235
q-95 0 -119.5 20t-24.5 131q0 69 17 89t70 20q9 0 37.5 -1t45.5 -1q12 0 34 1t32 1q56 0 72 -21t16 -106q0 -83 -19 -108t-98 -25h-63z" />
    <glyph glyph-name="k" unicode="k" horiz-adv-x="895" 
d="M84 1309q0 11 -1 40t-1 48q0 58 20.5 78t87.5 20h6q20 -2 35 -2q11 0 40.5 1t47.5 1q35 0 49.5 -13t14.5 -44v-9q-2 -34 -2 -69v-588h27q62 116 106 288q14 51 21 70q7 25 22 34.5t55 9.5h70q107 0 132.5 -15t25.5 -57q0 -39 -42.5 -155t-135.5 -333l190 -520
q7 -20 9.5 -32t2.5 -21q0 -23 -10 -32t-49 -9h-197q-34 0 -52.5 20t-37.5 82l-102 363h-35v-371q0 -65 -14 -80.5t-58 -15.5q-12 0 -37.5 1t-40.5 1q-23 0 -53 -1t-37 -1q-33 0 -45 18t-12 84v31v1178z" />
    <glyph glyph-name="l" unicode="l" horiz-adv-x="469" 
d="M78 1309q0 11 -1 40t-1 48q0 58 21 78t89 20h6q20 -2 35 -2q6 0 38.5 1t60.5 1q35 0 49 -14.5t14 -50.5v-70v-1266q0 -63 -14 -78.5t-60 -15.5h-88h-90q-34 0 -46.5 18.5t-12.5 96.5v16v1178z" />
    <glyph glyph-name="m" unicode="m" horiz-adv-x="1389" 
d="M399 1092q40 51 87.5 75.5t109.5 24.5q78 0 134.5 -31t103.5 -98q52 69 106 100t123 31q128 0 188 -95.5t60 -303.5v-631q0 -107 -21.5 -135.5t-79.5 -28.5h-77q-80 0 -103.5 19.5t-23.5 95.5v536q0 143 -16.5 180t-57.5 37q-44 0 -64 -33.5t-20 -105.5v-565
q0 -107 -21.5 -135.5t-78.5 -28.5h-78q-80 0 -103.5 19.5t-23.5 95.5v536q0 143 -16.5 180t-57.5 37q-44 0 -66 -37.5t-22 -113.5v-443q0 -33 3 -94.5t3 -89.5q0 -54 -16 -72t-84 -18h-137q-46 0 -61 21t-15 90v825q0 8 -2 48.5t-2 72.5q0 81 23.5 102t105.5 21h116
q46 0 60 -14t14 -58v-14z" />
    <glyph glyph-name="n" unicode="n" horiz-adv-x="924" 
d="M670 0q-80 0 -103.5 19.5t-23.5 95.5v536q0 143 -16.5 180t-57.5 37q-44 0 -66 -37.5t-22 -113.5v-443q0 -33 5 -94.5t5 -89.5q0 -53 -17 -71.5t-87 -18.5h-137q-46 0 -61 21t-15 90v825q0 8 -2 48.5t-2 72.5q0 81 23.5 102t105.5 21h116q46 0 60 -14t14 -58v-14l10 -2
q40 52 89 77t112 25q129 0 188.5 -95.5t59.5 -303.5v-631q0 -107 -21.5 -135.5t-78.5 -28.5h-78z" />
    <glyph glyph-name="o" unicode="o" horiz-adv-x="848" 
d="M352 393q0 -46 17 -70t51 -24q42 0 60 24t18 80v340q0 83 -17.5 108.5t-62.5 25.5q-34 0 -50 -24t-16 -75v-385zM57 594q0 215 15.5 308.5t52.5 146.5q52 77 123 111t182 34q196 0 278.5 -122t82.5 -423q0 -242 -10.5 -334t-35.5 -143q-48 -98 -128 -144t-201 -46
q-196 0 -277.5 133.5t-81.5 478.5z" />
    <glyph glyph-name="p" unicode="p" horiz-adv-x="862" 
d="M365 455q0 -99 16 -127.5t59 -28.5q40 0 55 26.5t15 108.5v291q0 96 -15.5 126t-56.5 30q-36 0 -54.5 -30.5t-18.5 -90.5v-305zM78 -84v1139q0 2 -1 18t-1 29q0 45 18 59.5t72 14.5h123q44 0 57.5 -14t18.5 -60q43 45 84.5 64.5t93.5 19.5q137 0 199.5 -142t62.5 -462
q0 -308 -66.5 -450t-210.5 -142q-45 0 -83.5 13.5t-67.5 39.5v-119q0 -72 -16.5 -88t-69.5 -16h-129q-61 0 -72.5 12t-11.5 84z" />
    <glyph glyph-name="q" unicode="q" horiz-adv-x="858" 
d="M354 725v-289q0 -82 15.5 -107.5t56.5 -25.5q42 0 58 29.5t16 124.5v303q0 59 -18.5 89t-55.5 30q-40 0 -56 -30t-16 -124zM485 43q-31 -27 -68.5 -40t-80.5 -13q-143 0 -210 142t-67 450q0 322 62 463t201 141q50 0 91.5 -19.5t86.5 -64.5q4 47 17.5 60.5t57.5 13.5h123
q53 0 73 -16.5t20 -61.5q0 -20 -2.5 -64t-2.5 -65v-1053q0 -70 -11.5 -83t-72.5 -13h-129q-53 0 -70.5 16t-17.5 88v119z" />
    <glyph glyph-name="r" unicode="r" horiz-adv-x="588" 
d="M147 0q-46 0 -60.5 21.5t-14.5 87.5v827q0 9 -2 49t-2 70q0 80 23 101.5t104 21.5h100q63 0 65 -111v-10l15 -2q20 66 49.5 105.5t58.5 39.5q35 0 49.5 -25t14.5 -92v-219q0 -74 -50 -83q-3 0 -6 -1q-59 -9 -82.5 -38.5t-23.5 -94.5v-375q0 -36 4 -93.5t4 -78.5
q0 -64 -13.5 -82t-68.5 -18h-164z" />
    <glyph glyph-name="s" unicode="s" horiz-adv-x="682" 
d="M49 76l-4 133v31q0 51 12 70.5t41 19.5q8 0 48.5 -11.5t74.5 -11.5q51 0 72.5 17.5t21.5 56.5q0 51 -82 121q-25 22 -38 35q-76 71 -112 148.5t-36 170.5q0 153 91 246.5t237 93.5q145 0 179.5 -21t35.5 -82l2 -118q0 -43 -16.5 -64.5t-49.5 -21.5q-10 0 -37 5t-45 5
q-33 0 -53 -18.5t-20 -49.5q0 -33 78 -114q39 -41 61 -66q66 -73 96.5 -146.5t30.5 -156.5q0 -175 -96.5 -271.5t-270.5 -96.5q-114 0 -167.5 19.5t-53.5 61.5v15z" />
    <glyph glyph-name="t" unicode="t" horiz-adv-x="584" 
d="M121 322v499h-12q-61 0 -80 21t-19 98q0 119 21 146.5t84 27.5h6v172q0 86 17 104.5t81 18.5h33q7 0 45.5 1t69.5 1q38 0 52.5 -18t14.5 -84v-193h15q55 0 74.5 -17t19.5 -69v-121q0 -62 -18 -76t-91 -14v-444q0 -26 8.5 -36.5t28.5 -10.5q46 0 55 -13.5t9 -66.5v-160
q0 -50 -18.5 -69t-67.5 -19h-82q-97 0 -135.5 8.5t-61.5 28.5q-27 26 -38 74.5t-11 179.5v31z" />
    <glyph glyph-name="u" unicode="u" horiz-adv-x="924" 
d="M244 1176q80 0 103.5 -19.5t23.5 -93.5v-539q0 -142 16 -179.5t57 -37.5q44 0 66 38.5t22 113.5v442q0 32 -5 93.5t-5 90.5q0 53 17.5 72t87.5 19h137q46 0 61 -20.5t15 -88.5v-827q0 -10 2 -50t2 -71q0 -81 -24 -102t-105 -21h-117q-45 0 -59.5 14t-14.5 58v14l-10 2
q-39 -52 -88 -76t-113 -24q-128 0 -187.5 95t-59.5 302v631q0 107 21 135.5t79 28.5h78z" />
    <glyph glyph-name="v" unicode="v" horiz-adv-x="797" 
d="M78 1176h160q73 -1 81 -97v-12l66 -711h21l71 731q6 54 26 71.5t95 17.5h127q32 0 47.5 -14.5t15.5 -43.5q0 -13 -44 -253.5t-103 -532.5q-10 -50 -25 -133q-27 -147 -43 -174q-8 -14 -24 -19.5t-68 -5.5h-188q-59 0 -74.5 17t-28.5 85l-116 613q-74 388 -74 418
q0 19 21 31t57 12z" />
    <glyph glyph-name="w" unicode="w" horiz-adv-x="1165" 
d="M700 0q-38 0 -52 16.5t-21 79.5l-35 312h-31l-53 -359q-4 -28 -20 -38.5t-72 -10.5h-150q-81 0 -98 93l-6 31q-3 9 -28.5 183l-57.5 406l-43.5 314.5t-12.5 92.5q0 33 30.5 43.5t166.5 10.5h37q29 0 40 -14.5t17 -65.5l80 -658h35l53 264l-45 386q-1 5 -1.5 10.5
t-0.5 15.5q0 34 17 49t55 15h135q71 -1 75 -93q0 -13 1 -20l35 -627h38l70 626q2 14 3 35q7 78 71 79h147q38 0 54 -10t16 -33q0 -33 -49.5 -354.5t-118.5 -700.5q-10 -56 -20.5 -67t-51.5 -11h-26h-183z" />
    <glyph glyph-name="x" unicode="x" horiz-adv-x="854" 
d="M449 854l59 270q6 28 20.5 40t55.5 12h184q31 0 43 -10.5t12 -35.5q0 -24 -27 -89l-1 -3l-166 -401l178 -502q8 -25 12 -44t4 -34q0 -29 -14 -44t-41 -15q-2 0 -9 1t-11 1h-156q-45 0 -65.5 20.5t-30.5 71.5l-56 283h-24l-62 -303q-8 -42 -29.5 -57t-88.5 -15h-173
q-22 0 -34.5 12t-12.5 33q0 22 19 68q3 7 4 10l215 506l-207 444q-6 14 -9 29t-3 31q0 24 15.5 33.5t62.5 9.5h190q31 0 46 -8.5t20 -26.5l59 -287h21z" />
    <glyph glyph-name="y" unicode="y" horiz-adv-x="786" 
d="M45 76q0 39 12 57.5t37 18.5q18 0 35 -9.5t23 -9.5q22 0 31.5 7t9.5 24q0 10 -2 24.5t-5 29.5l-170 854q-1 7 -4.5 23.5t-3.5 20.5q0 27 19.5 43.5t52.5 16.5h176q51 0 59 -84v0l68 -732h37l57 758q3 33 18 45.5t54 12.5h149q41 0 61.5 -16t20.5 -48q0 -9 -2 -23t-6 -30
l-205 -965q-33 -151 -103 -215.5t-202 -64.5q-115 0 -166 20t-51 66v176z" />
    <glyph glyph-name="z" unicode="z" horiz-adv-x="653" 
d="M43 270l94 254q31 81 82 199t51 143q0 9 -5.5 15t-12.5 6q-4 0 -9 -1l-5 -1l-117 -2h-12q-42 0 -55 12t-13 70v20q0 41 -3 84q-1 9 -1 10q0 59 23 80t94 21q22 0 103.5 -4.5t139.5 -4.5q70 0 144 7q19 2 22 2q29 0 40 -20.5t11 -80.5v-49q0 -88 -39 -169q-8 -18 -12 -28
l-166 -440q-6 -16 -9 -28.5t-3 -18.5q0 -14 18 -19t80 -5q26 0 58.5 5t40.5 5q26 0 36.5 -31t10.5 -125v-55q0 -78 -12 -99.5t-44 -21.5q-5 0 -28 2q-79 6 -146 6q-127 0 -269 -11q-37 -3 -46 -3q-42 0 -53 22t-11 134q0 71 20 113q2 5 3 7z" />
    <glyph glyph-name="braceleft" unicode="{" 
d="M883 1477v-209q-9 0 -25 1t-22 1q-101 0 -136.5 -38.5t-35.5 -162.5v-240q0 -148 -45 -210t-162 -89q117 -27 162 -88t45 -209v-241q0 -123 35 -161t137 -38q6 0 22 1t25 1v-209q-14 0 -39 -1t-37 -1q-100 0 -167 12t-114 37q-57 34 -80.5 91.5t-23.5 199.5v252
q0 137 -51 194.5t-172 57.5q-6 0 -20 -1t-21 -1v209q7 0 21 -1t20 -1q120 0 171.5 58t51.5 196v250q0 143 23.5 201t80.5 92q47 25 114 37t167 12q12 0 37 -1t39 -1z" />
    <glyph glyph-name="bar" unicode="|" 
d="M410 1565h206v-2048h-206v2048z" />
    <glyph glyph-name="braceright" unicode="}" 
d="M143 1477h68q110 0 177 -12t112 -38q57 -32 80.5 -91.5t23.5 -198.5v-252q0 -137 51 -194.5t172 -57.5q6 0 20 1t21 1v-209h-37q-125 0 -176 -56t-51 -194v-252q0 -143 -23.5 -201t-80.5 -90q-47 -25 -114 -37t-167 -12q-12 0 -37 1t-39 1v209q9 0 25 -1t22 -1
q101 0 136.5 38.5t35.5 160.5v239q0 150 45 211.5t162 87.5q-117 27 -162 89t-45 210v242q0 122 -35.5 160.5t-136.5 38.5q-6 0 -22 -1t-25 -1v209z" />
    <glyph glyph-name="asciitilde" unicode="~" horiz-adv-x="1706" 
d="M1530 803v-221q-104 -71 -196.5 -104.5t-182.5 -33.5q-46 0 -92 8t-92 23q-24 8 -71 25q-219 75 -333 75q-85 0 -177.5 -37.5t-207.5 -119.5v221q107 72 204 107.5t183 35.5q117 0 291 -58l4 -1l55 -19q155 -55 240 -55t175 37t200 117z" />
    <glyph glyph-name="Euro" horiz-adv-x="915" 
d="M686 684q38 0 55 -8t17 -27q0 -2 -1 -6t-1 -6l-11 -85q-2 -17 -12.5 -24.5t-40.5 -7.5h-172q11 -106 42.5 -153.5t90.5 -47.5q18 0 84.5 2.5t75.5 2.5q29 0 44 -22t15 -62q0 -74 4 -141q1 -10 1 -13q0 -55 -50.5 -83t-148.5 -28q-160 0 -243 37t-144 125
q-45 67 -70.5 161t-34.5 222h-94q-30 0 -41.5 6.5t-11.5 20.5v6l10 75q4 31 18 43.5t64 12.5h47v113h-86q-28 0 -40.5 6.5t-12.5 19.5v6l12 86q4 29 14 37.5t50 8.5h69q23 298 140 420t374 122q84 0 127 -27.5t43 -80.5q0 -7 -1 -25.5t-1 -40.5q0 -9 3 -28.5t3 -34.5
q0 -34 -9.5 -52.5t-32.5 -31.5q-6 -3 -28.5 -4.5t-66.5 -1.5t-70 -2.5t-38 -6.5q-44 -13 -69 -62t-36 -144h217q33 0 47.5 -9t14.5 -28q0 -5 -0.5 -8t-1.5 -6l-13 -81q-2 -18 -13.5 -25t-39.5 -7h-219v-113h172z" />
    <glyph glyph-name="Euro" unicode="&#x20ac;" horiz-adv-x="915" 
d="M686 684q38 0 55 -8t17 -27q0 -2 -1 -6t-1 -6l-11 -85q-2 -17 -12.5 -24.5t-40.5 -7.5h-172q11 -106 42.5 -153.5t90.5 -47.5q18 0 84.5 2.5t75.5 2.5q29 0 44 -22t15 -62q0 -74 4 -141q1 -10 1 -13q0 -55 -50.5 -83t-148.5 -28q-160 0 -243 37t-144 125
q-45 67 -70.5 161t-34.5 222h-94q-30 0 -41.5 6.5t-11.5 20.5v6l10 75q4 31 18 43.5t64 12.5h47v113h-86q-28 0 -40.5 6.5t-12.5 19.5v6l12 86q4 29 14 37.5t50 8.5h69q23 298 140 420t374 122q84 0 127 -27.5t43 -80.5q0 -7 -1 -25.5t-1 -40.5q0 -9 3 -28.5t3 -34.5
q0 -34 -9.5 -52.5t-32.5 -31.5q-6 -3 -28.5 -4.5t-66.5 -1.5t-70 -2.5t-38 -6.5q-44 -13 -69 -62t-36 -144h217q33 0 47.5 -9t14.5 -28q0 -5 -0.5 -8t-1.5 -6l-13 -81q-2 -18 -13.5 -25t-39.5 -7h-219v-113h172z" />
    <glyph glyph-name="nonbreakingspace" unicode="&#xa0;" horiz-adv-x="915" 
 />
    <glyph glyph-name="exclamdown" unicode="&#xa1;" horiz-adv-x="516" 
d="M381 946l57 -858q1 -10 1.5 -19.5t0.5 -21.5q0 -34 -18.5 -47.5t-67.5 -13.5h-192q-49 0 -66.5 13.5t-17.5 51.5q0 14 0.5 22t1.5 16l55 857q3 46 15 61t57 15h104q44 0 55 -10t15 -66zM94 1413q0 36 16.5 50t59.5 14h182q40 0 55 -16.5t15 -57.5v-227q0 -36 -16 -50
t-60 -14h-182q-41 0 -55.5 15.5t-14.5 56.5v229z" />
    <glyph glyph-name="cent" unicode="&#xa2;" horiz-adv-x="915" 
d="M430 1178v133q0 16 5 20t22 4h108q18 0 24.5 -7t6.5 -25v-119q70 0 91.5 -14.5t21.5 -57.5v-168q0 -47 -20.5 -65.5t-76.5 -18.5h-30q-69 0 -91 -41t-22 -223q0 -168 22 -208t89 -40q8 0 31.5 2t37.5 2q34 0 47 -15t13 -58v-213q0 -38 -20.5 -56t-61.5 -18q-12 0 -19 0.5
t-12 0.5v-116q0 -19 -7 -26t-24 -7h-108q-17 0 -22 4t-5 21v8v123q-145 21 -209.5 153.5t-64.5 415.5q0 313 62.5 448t211.5 161z" />
    <glyph glyph-name="sterling" unicode="&#xa3;" horiz-adv-x="915" 
d="M76 584q-11 0 -17 4.5t-6 13.5v164q1 10 6 15t15 5h71q-29 88 -44 164.5t-15 143.5q0 189 102 300t275 111q198 0 288.5 -114t90.5 -367v-14q0 -78 -15 -97.5t-55 -19.5h-160q-36 0 -49.5 16.5t-13.5 81.5v39q0 97 -14 124.5t-50 27.5q-35 0 -50 -39t-15 -133
q0 -43 13 -100t38 -124h231q18 0 25.5 -7.5t7.5 -24.5v-140q0 -14 -7 -22t-19 -8h-213q0 -7 1 -18q3 -42 3 -58q0 -45 -9.5 -85.5t-29.5 -80.5h297q63 0 78.5 -19t15.5 -83v-170q0 -37 -21 -53.5t-71 -16.5h-654q-15 0 -24.5 11.5t-9.5 31.5v150q0 34 34 67q6 5 9 8
q37 37 50 75t13 106q0 54 -1 82t-3 53h-98z" />
    <glyph glyph-name="currency" unicode="&#xa4;" horiz-adv-x="915" 
d="M686 684q38 0 55 -8t17 -27q0 -2 -1 -6t-1 -6l-11 -85q-2 -17 -12.5 -24.5t-40.5 -7.5h-172q11 -106 42.5 -153.5t90.5 -47.5q18 0 84.5 2.5t75.5 2.5q29 0 44 -22t15 -62q0 -74 4 -141q1 -10 1 -13q0 -55 -50.5 -83t-148.5 -28q-160 0 -243 37t-144 125
q-45 67 -70.5 161t-34.5 222h-94q-30 0 -41.5 6.5t-11.5 20.5v6l10 75q4 31 18 43.5t64 12.5h47v113h-86q-28 0 -40.5 6.5t-12.5 19.5v6l12 86q4 29 14 37.5t50 8.5h69q23 298 140 420t374 122q84 0 127 -27.5t43 -80.5q0 -7 -1 -25.5t-1 -40.5q0 -9 3 -28.5t3 -34.5
q0 -34 -9.5 -52.5t-32.5 -31.5q-6 -3 -28.5 -4.5t-66.5 -1.5t-70 -2.5t-38 -6.5q-44 -13 -69 -62t-36 -144h217q33 0 47.5 -9t14.5 -28q0 -5 -0.5 -8t-1.5 -6l-13 -81q-2 -18 -13.5 -25t-39.5 -7h-219v-113h172z" />
    <glyph glyph-name="yen" unicode="&#xa5;" horiz-adv-x="915" 
d="M291 139v336q0 62 -4 88t-13 47h-151q-33 0 -43 7t-10 26v139q0 19 11 26t42 7h92l-188 535q-9 26 -13 44t-4 31q0 31 18.5 44.5t63.5 13.5q8 0 44 -1t63 -1q30 0 66 1t42 1q34 0 51.5 -17t22.5 -53l70 -555h22l66 506q10 74 28 95.5t74 21.5q11 0 40.5 -1t49.5 -1
q15 0 42 2t40 2q46 0 68 -12t22 -37q0 -8 -5 -32.5t-13 -49.5l-178 -537h84q30 0 41.5 -7t11.5 -26v-139q0 -18 -11 -25.5t-42 -7.5h-142q-16 -42 -23.5 -83t-7.5 -89v-32l9 -248q0 -15 2 -42q2 -36 2 -46q0 -35 -18.5 -52.5t-55.5 -17.5h-203q-41 0 -53 12.5t-12 46.5v12
q2 37 2 68z" />
    <glyph glyph-name="brokenbar" unicode="&#xa6;" 
d="M410 408h206v-758h-206v758zM410 1432h206v-758h-206v758z" />
    <glyph glyph-name="section" unicode="&#xa7;" 
d="M395 668q0 -42 47 -83.5t97 -41.5q30 0 52.5 23.5t22.5 54.5q0 38 -49 82.5t-96 44.5q-29 0 -51.5 -24t-22.5 -56zM205 -100v190q0 18 18.5 30.5t46.5 12.5q12 0 60.5 -22.5t89.5 -22.5q38 0 62 18t24 46q0 50 -110 112q-66 38 -105 66q-110 77 -150.5 143.5t-40.5 159.5
q0 105 44.5 181.5t127.5 113.5q-52 57 -77 114.5t-25 120.5q0 159 110.5 246.5t311.5 87.5q139 0 188 -22.5t49 -83.5v-5l-2 -161q0 -30 -17.5 -51t-41.5 -21q-13 0 -67 38t-105 38q-41 0 -67.5 -21.5t-26.5 -54.5q0 -51 131 -139l65 -45q147 -103 185.5 -163t38.5 -144
q0 -89 -48.5 -160.5t-138.5 -118.5q54 -35 81.5 -94.5t27.5 -141.5q0 -149 -103 -235t-284 -86q-149 0 -200.5 16t-51.5 58z" />
    <glyph glyph-name="dieresis" unicode="&#xa8;" 
d="M795 1296q0 -19 -11.5 -26.5t-42.5 -7.5h-127q-27 0 -37 8.5t-10 29.5v127q0 21 12 29t42 8h124q29 0 39.5 -9t10.5 -32v-127zM457 1296q0 -19 -11.5 -26.5t-42.5 -7.5h-124q-29 0 -39.5 8.5t-10.5 29.5v127q0 21 12 29t42 8h125q28 0 38.5 -9t10.5 -32v-127z" />
    <glyph glyph-name="copyright" unicode="&#xa9;" horiz-adv-x="1706" 
d="M1212 897h-188q-8 70 -53 108.5t-119 38.5q-91 0 -143 -81.5t-52 -227.5q0 -147 52 -224t151 -77q73 0 117 42t53 119l193 1q-8 -139 -109 -223t-260 -84q-186 0 -293.5 118t-107.5 322q0 206 109.5 328.5t293.5 122.5q152 0 250.5 -78t105.5 -205zM854 1356
q-128 0 -239.5 -46t-198.5 -134q-89 -90 -136 -203.5t-47 -237.5q0 -125 47 -237t136 -201q88 -88 201 -135t237 -47t237.5 47t204.5 137q88 86 133.5 197t45.5 239q0 126 -46.5 238.5t-134.5 200.5q-89 89 -201 135.5t-239 46.5zM852 1479q152 0 287.5 -56t242.5 -163
q105 -105 160 -240.5t55 -286.5q0 -152 -54.5 -284t-160.5 -236q-111 -108 -248 -165.5t-282 -57.5q-147 0 -280.5 56.5t-241.5 164.5q-107 106 -163 240.5t-56 281.5q0 149 56 284.5t163 244.5q105 106 238 161.5t284 55.5z" />
    <glyph glyph-name="ordfeminine" unicode="&#xaa;" horiz-adv-x="635" 
d="M250 989v-92q0 -36 14 -54t41 -18q31 0 43 17.5t12 64.5v86q0 40 -11 57t-38 17q-30 0 -45.5 -19.5t-15.5 -58.5zM365 705h-11q-14 -33 -43 -49.5t-73 -16.5q-91 0 -147 80t-56 213q0 137 59 219t156 82q24 0 55.5 -9.5t40.5 -9.5q11 1 16 7.5t5 19.5q0 32 -25 51t-68 19
q-37 0 -82.5 -13.5t-54.5 -13.5q-20 0 -28.5 11t-8.5 38v72q1 27 6.5 36.5t18.5 14.5q32 13 87 22t112 9q143 0 200.5 -46.5t57.5 -164.5v-66v-485v-27q0 -30 -10 -38.5t-58 -8.5h-106q-41 0 -43 53v1z" />
    <glyph glyph-name="guillemotleft" unicode="&#xab;" horiz-adv-x="901" 
d="M819 772q0 -12 -5.5 -26.5t-10.5 -20.5l-105 -111q-6 -6 -9 -11t-3 -9q0 -5 1.5 -9t6.5 -10l101 -110q12 -15 19 -29.5t7 -27.5v-252q0 -9 -6 -15t-14 -6q-6 0 -10.5 2.5t-10.5 7.5l-274 273q-8 7 -13.5 20t-5.5 23v256q0 12 5 24t12 19l280 280q3 3 8.5 6t8.5 3
q7 0 12.5 -6t5.5 -13v-258zM406 772q0 -12 -5.5 -26.5t-11.5 -20.5l-104 -111q-7 -6 -10 -11t-3 -9q0 -5 2 -9.5t7 -9.5l100 -110q13 -15 20 -29.5t7 -27.5v-252q0 -9 -6.5 -15t-14.5 -6q-5 0 -10 2.5t-10 7.5l-275 273q-7 7 -12.5 20t-5.5 23v256q0 12 4.5 24t11.5 19
l281 280q2 3 8 6t8 3q7 0 13 -6t6 -13v-258z" />
    <glyph glyph-name="logicalnot" unicode="&#xac;" horiz-adv-x="1706" 
d="M254 864h1198v-502h-199v306h-999v196z" />
    <glyph glyph-name="sfthyphen" unicode="&#xad;" horiz-adv-x="569" 
d="M57 459v270h453v-270h-453z" />
    <glyph glyph-name="registered" unicode="&#xae;" horiz-adv-x="1706" 
d="M745 1034v-239h99q88 0 129 28t41 88q0 63 -44 93t-136 30h-89zM545 1161h323q176 0 264.5 -59.5t88.5 -177.5q0 -82 -48 -140t-133 -79l185 -369h-224l-157 338h-99v-338h-200v825zM854 1356q-127 0 -236 -44.5t-196 -131.5q-91 -91 -140 -206.5t-49 -238.5
q0 -124 46 -235.5t133 -198.5q89 -91 203 -139.5t237 -48.5q120 0 233.5 47t206.5 135q87 84 135 196t48 232q0 133 -44.5 245t-132.5 201q-90 93 -202.5 140t-241.5 47zM852 1479q154 0 290.5 -57.5t243.5 -166.5q103 -104 157 -238t54 -284q0 -152 -56 -287.5t-163 -238.5
q-107 -105 -243.5 -161t-282.5 -56q-149 0 -285 58t-243 167q-104 105 -158.5 238.5t-54.5 279.5q0 102 27 198.5t81 188.5q101 170 267 264.5t366 94.5z" />
    <glyph glyph-name="macron" unicode="&#xaf;" 
d="M727 1446q28 0 38.5 -7.5t10.5 -25.5v-100q0 -16 -11 -22.5t-42 -6.5h-424q-29 0 -38 7t-9 26v100q0 16 10.5 22.5t42.5 6.5h422z" />
    <glyph glyph-name="degree" unicode="&#xb0;" horiz-adv-x="674" 
d="M338 1335q-73 0 -124.5 -51t-51.5 -123q0 -74 51 -125t125 -51q72 0 123 52t51 124t-51 123t-123 51zM338 1464q126 0 214.5 -89.5t88.5 -215.5q0 -125 -89 -214t-216 -89q-126 0 -213.5 88t-87.5 215t88.5 216t214.5 89z" />
    <glyph glyph-name="plusminus" unicode="&#xb1;" horiz-adv-x="1706" 
d="M254 197h1198v-199h-1198v199zM752 1223h202v-326h498v-199h-498v-325h-202v325h-498v199h498v326z" />
    <glyph glyph-name="twosuperior" unicode="&#xb2;" horiz-adv-x="604" 
d="M51 727q0 44 57 88q30 23 46 39q83 90 130.5 183t47.5 167q0 55 -11.5 74.5t-39.5 19.5q-23 0 -32 -15.5t-9 -55.5v-41q0 -41 -9 -51.5t-30 -10.5h-103q-25 0 -35 12t-10 58v16q0 150 59.5 216.5t192.5 66.5q115 0 178.5 -70t63.5 -198q0 -105 -52 -209.5t-159 -218.5
h143q42 0 52 -11.5t10 -50.5v-102q0 -22 -14 -31.5t-46 -9.5h-387q-21 0 -32 10.5t-11 32.5v92z" />
    <glyph glyph-name="threesuperior" unicode="&#xb3;" horiz-adv-x="604" 
d="M23 725l71 102q6 9 16 14t21 5q15 0 47.5 -23.5t63.5 -23.5q36 0 56.5 22.5t20.5 61.5q0 47 -19.5 70.5t-59.5 23.5h-47q-24 0 -32.5 8.5t-11.5 39.5l-4 97v2q0 21 14 31t42 10q3 0 8 -1t8 -1q41 0 67.5 20t26.5 50q0 28 -20.5 46.5t-50.5 18.5q-35 0 -58.5 -26.5
t-31.5 -26.5q-9 0 -16.5 3.5t-20.5 17.5l-68 71q-5 7 -7.5 14.5t-2.5 16.5q0 14 16.5 31t50.5 39q40 26 87 39.5t98 13.5q109 0 175 -62t66 -163q0 -57 -24 -101t-72 -73q57 -22 88 -77.5t31 -137.5q0 -129 -80.5 -212t-202.5 -83q-48 0 -94 13t-113 48q-3 2 -10 6
q-41 22 -41 49q0 11 10 24z" />
    <glyph glyph-name="acute" unicode="&#xb4;" 
d="M377 1251q-10 1 -15 5.5t-6 13.5l1 2.5l3 7.5l99 172q5 9 21.5 16t35.5 7h234q10 -1 16 -5.5t6 -11.5q0 -4 -2.5 -8t-6.5 -7l-188 -175q-9 -8 -23 -12.5t-30 -4.5h-145z" />
    <glyph glyph-name="mu" unicode="&#xb5;" horiz-adv-x="1249" 
d="M205 1092h289l-76 -435q-15 -80 -23 -151.5t-8 -116.5q0 -93 42 -138.5t128 -45.5q100 0 155.5 82t92.5 291l90 514h289l-193 -1092h-268l18 117q-42 -78 -93.5 -114t-121.5 -36q-67 0 -119 29.5t-94 91.5l-90 -526h-286z" />
    <glyph glyph-name="paragraph" unicode="&#xb6;" 
d="M983 1479v-111h-113v-1368h-151v1368h-158v-1368h-153v784q-167 6 -267 101t-100 245q0 158 107 253.5t284 95.5h551z" />
    <glyph glyph-name="glyph195" unicode="&#xb7;" horiz-adv-x="455" 
d="M227 897q66 0 112 -46.5t46 -111.5q0 -66 -46 -111.5t-112 -45.5t-112.5 46t-46.5 111q0 66 46.5 112t112.5 46z" />
    <glyph glyph-name="cedilla" unicode="&#xb8;" 
d="M569 0q-1 -7 -1.5 -13.5t-0.5 -17.5q1 -34 65 -37q32 -2 52 -4q58 -6 94.5 -44.5t36.5 -94.5q0 -82 -71 -120t-228 -38q-156 0 -203 20t-47 77q0 19 8.5 29t24.5 10q6 0 80 -14.5t143 -14.5q40 0 58 10.5t18 34.5t-17 36.5t-51 12.5h-12q-45 0 -56 10t-11 37l2 121h116z
" />
    <glyph glyph-name="onesuperior" unicode="&#xb9;" horiz-adv-x="604" 
d="M266 1483h148q21 0 30 -11.5t9 -39.5v-764q0 -54 -11.5 -65t-50.5 -11h-125q-19 0 -27 9.5t-8 37.5q0 4 -1 32t-1 52q0 23 1 59.5t1 48.5q0 35 -1 94.5t-1 84.5q0 22 1 73.5t1 81.5q0 26 -0.5 41t-1.5 26l-57 -73q-5 -5 -12.5 -8.5t-14.5 -3.5q-4 0 -12.5 4t-15.5 10
l-54 43q0 1 -3 3q-17 14 -17 20q0 7 3.5 13.5t11.5 13.5z" />
    <glyph glyph-name="ordmasculine" unicode="&#xba;" horiz-adv-x="637" 
d="M264 926q0 -33 13 -49.5t38 -16.5q31 0 44.5 17t13.5 57v237q0 59 -13 77t-47 18q-24 0 -36.5 -17.5t-12.5 -52.5v-270zM43 1067q0 153 11.5 217t39.5 100q39 55 92 79t138 24q146 0 208 -85.5t62 -295.5q0 -167 -8 -232.5t-27 -101.5q-36 -69 -95.5 -101t-152.5 -32
q-146 0 -207 93t-61 335z" />
    <glyph glyph-name="guillemotright" unicode="&#xbb;" horiz-adv-x="901" 
d="M489 1030q0 8 5.5 13.5t13.5 5.5q3 0 8 -3t8 -6l281 -280q7 -7 11.5 -19t4.5 -24v-256q0 -10 -5.5 -23t-12.5 -20l-275 -273q-5 -5 -10 -7.5t-10 -2.5q-8 0 -14.5 6t-6.5 15v252q0 13 7 27.5t20 29.5l100 110q4 4 6 8.5t3 10.5q0 4 -3 9t-10 11l-104 111q-6 6 -11.5 20.5
t-5.5 26.5v258zM84 1030q0 8 5.5 13.5t12.5 5.5q3 0 8.5 -3t8.5 -6l280 -280q8 -7 12.5 -19t4.5 -24v-256q0 -10 -5.5 -23t-13.5 -20l-276 -273q-7 -6 -10.5 -8t-8.5 -2q-8 0 -14 6t-6 15v252q0 13 7 27.5t20 29.5l100 110q4 5 6 9.5t2 9.5q0 4 -3 9t-9 11l-105 111
q-5 6 -10.5 20.5t-5.5 26.5v258z" />
    <glyph glyph-name="onequarter" unicode="&#xbc;" horiz-adv-x="1495" 
d="M1190 352v207l-96 -207h96zM1180 178h-201q-24 0 -31.5 8t-7.5 35v92q0 6 2 13.5t6 15.5l144 285q32 65 56.5 108.5t45.5 75.5q9 13 17 16.5t32 3.5h115q18 0 25 -8.5t8 -29.5v-441h45q12 0 18 -7.5t6 -22.5v-107q0 -21 -7.5 -29t-27.5 -8h-34v-131q0 -31 -9.5 -39
t-50.5 -8h-104q-29 0 -38 6.5t-9 36.5v18v117zM308 10q-9 5 -15 17t-6 24q0 9 2.5 18.5t7.5 18.5l745 1398q10 18 20.5 26.5t22.5 9.5q5 0 11 -2t9 -4l84 -41q6 -3 10.5 -12.5t4.5 -20.5q0 -5 -2.5 -12.5t-9.5 -20.5l-735 -1399q-11 -20 -23.5 -30.5t-25.5 -10.5q-5 0 -16 3
q-3 1 -5 1zM254 1483h141q20 0 28.5 -11.5t8.5 -37.5v-713q0 -49 -11.5 -59.5t-47.5 -10.5h-119q-18 0 -25.5 9.5t-7.5 35.5q0 3 -1 29t-1 47q0 22 1 56.5t1 45.5q0 33 -1 88t-1 78q0 22 1 70.5t1 77.5q0 23 -0.5 36.5t-1.5 24.5l-55 -67q-3 -5 -10 -8.5t-15 -4.5
q-6 0 -13.5 3.5t-14.5 9.5l-52 41q-9 6 -13.5 11.5t-4.5 10.5t3.5 11.5t10.5 13.5z" />
    <glyph glyph-name="onehalf" unicode="&#xbd;" horiz-adv-x="1495" 
d="M967 127q0 40 52 80q29 22 44 37q81 83 126.5 170.5t45.5 156.5q0 51 -11 69.5t-38 18.5q-21 0 -30 -14.5t-9 -50.5v-39q0 -39 -8.5 -48t-30.5 -9h-98q-24 0 -32.5 11t-8.5 52v17q0 139 56.5 200.5t182.5 61.5q110 0 171 -65.5t61 -184.5q0 -96 -49 -193t-152 -204h137
q38 -1 47.5 -11t10.5 -47v-96q0 -21 -13 -30t-45 -9h-370q-19 0 -29 10.5t-10 30.5v86zM308 10q-9 5 -15 17t-6 24q0 9 2.5 18.5t7.5 18.5l745 1398q10 18 20.5 26.5t22.5 9.5q5 0 11 -2t9 -4l84 -41q6 -3 10.5 -12.5t4.5 -20.5q0 -5 -2.5 -12.5t-9.5 -20.5l-735 -1399
q-11 -20 -23.5 -30.5t-25.5 -10.5q-5 0 -16 3q-3 1 -5 1zM254 1483h141q20 0 28.5 -11.5t8.5 -37.5v-713q0 -49 -11.5 -59.5t-47.5 -10.5h-119q-18 0 -25.5 9.5t-7.5 35.5q0 3 -1 29t-1 47q0 22 1 56.5t1 45.5q0 33 -1 88t-1 78q0 22 1 70.5t1 77.5q0 23 -0.5 36.5
t-1.5 24.5l-55 -67q-3 -5 -10 -8.5t-15 -4.5q-6 0 -13.5 3.5t-14.5 9.5l-52 41q-9 6 -13.5 11.5t-4.5 10.5t3.5 11.5t10.5 13.5z" />
    <glyph glyph-name="threequarters" unicode="&#xbe;" horiz-adv-x="1495" 
d="M1192 352v207l-96 -207h96zM1182 178h-201q-24 0 -31.5 8t-7.5 35v92q0 6 2 13.5t6 15.5l144 285q32 65 56.5 108.5t45.5 75.5q9 13 17 16.5t32 3.5h115q18 0 25 -8.5t8 -29.5v-441h45q12 0 18 -7.5t6 -22.5v-107q0 -21 -7.5 -29t-27.5 -8h-34v-131q0 -31 -9.5 -39
t-50.5 -8h-104q-29 0 -38 6.5t-9 36.5v18v117zM310 10q-9 5 -15 17t-6 24q0 9 2.5 18.5t7.5 18.5l745 1398q10 18 20.5 26.5t22.5 9.5q5 0 11 -2t9 -4l84 -41q7 -4 11 -13t4 -20q0 -5 -2.5 -12.5t-9.5 -20.5l-735 -1399q-11 -20 -23.5 -30.5t-25.5 -10.5q-5 0 -16 3
q-3 1 -5 1zM23 776l65 94q6 9 16 14t21 5q14 0 45.5 -22.5t60.5 -22.5q35 0 54.5 20.5t19.5 57.5q0 45 -18.5 67.5t-57.5 22.5q-2 0 -17 -1t-30 -1q-21 0 -28.5 7.5t-10.5 37.5l-4 92v2q0 19 13 28t41 9q1 0 5.5 -1t8.5 -1q39 0 64.5 18.5t25.5 46.5q0 27 -19.5 44.5
t-48.5 17.5q-33 0 -55.5 -24.5t-32.5 -24.5q-7 0 -14 3t-18 15l-66 68q-5 5 -7.5 11.5t-2.5 14.5q0 14 15 29.5t48 38.5q38 24 83.5 36.5t94.5 12.5q104 0 167 -57.5t63 -153.5q0 -54 -23.5 -95t-68.5 -67q54 -20 83 -72t29 -128q0 -122 -75.5 -199.5t-192.5 -77.5
q-48 0 -93 13t-106 46q-31 15 -39 25t-8 27q0 8 10 21z" />
    <glyph glyph-name="questiondown" unicode="&#xbf;" horiz-adv-x="664" 
d="M412 1022q33 0 48 -47t15 -154q0 -103 -28.5 -238t-28.5 -163q0 -39 16.5 -60.5t44.5 -21.5q9 0 27.5 5t28.5 5q36 0 51.5 -50t15.5 -165q0 -85 -52 -121.5t-173 -36.5q-152 0 -234 79.5t-82 226.5q0 106 86 304l23 54q22 53 33.5 102t11.5 90q0 27 -4 67.5t-4 53.5
q0 40 16 55t64 15h125zM162 1413q0 36 16.5 50t59.5 14h182q39 0 53 -16t14 -58v-227q0 -36 -16 -50t-59 -14h-183q-39 0 -53 15t-14 57v229z" />
    <glyph glyph-name="Agrave" unicode="&#xc0;" horiz-adv-x="895" 
d="M438 1110l-57 -416q-6 -45 -10 -69q0 -20 21.5 -31.5t58.5 -11.5q39 0 56 12.5t17 44.5q0 7 -0.5 15.5t-3.5 30.5l-65 427zM12 202l64 298q5 24 9 77.5t9 81.5l70.5 376t46.5 268v1q31 171 90 171h252q38 0 54 -5.5t26 -19.5q14 -21 65 -264q34 -165 58 -271
q12 -55 38 -230t48 -292q9 -51 36 -160t27 -155q0 -35 -26 -56.5t-68 -21.5h-180q-20 0 -38 14t-24 34q-6 25 -9.5 72.5t-8.5 67.5q-9 39 -29 54.5t-59 15.5q-54 0 -85.5 -17t-31.5 -46q0 -14 1 -37.5t1 -34.5q0 -73 -20.5 -98t-75.5 -25h-189q-41 0 -59 14t-18 45
q0 29 16 100q7 29 10 43zM193 1748q-4 3 -6.5 7t-2.5 8q0 7 6 11.5t16 5.5h234q19 0 35.5 -7t21.5 -16l99 -172l3 -7.5l1 -2.5q-1 -9 -6 -13.5t-15 -5.5h-145q-18 0 -30.5 4.5t-20.5 12.5z" />
    <glyph glyph-name="Aacute" unicode="&#xc1;" horiz-adv-x="895" 
d="M438 1110l-57 -416q-6 -45 -10 -69q0 -20 21.5 -31.5t58.5 -11.5q39 0 56 12.5t17 44.5q0 7 -0.5 15.5t-3.5 30.5l-65 427zM12 202l64 298q5 24 9 77.5t9 81.5l70.5 376t46.5 268v1q31 171 90 171h252q38 0 54 -5.5t26 -19.5q14 -21 65 -264q34 -165 58 -271
q12 -55 38 -230t48 -292q9 -51 36 -160t27 -155q0 -35 -26 -56.5t-68 -21.5h-180q-20 0 -38 14t-24 34q-6 25 -9.5 72.5t-8.5 67.5q-9 39 -29 54.5t-59 15.5q-54 0 -85.5 -17t-31.5 -46q0 -14 1 -37.5t1 -34.5q0 -73 -20.5 -98t-75.5 -25h-189q-41 0 -59 14t-18 45
q0 29 16 100q7 29 10 43zM311 1556q-10 1 -15 5.5t-6 13.5l1 2.5l3 7.5l99 172q5 9 21.5 16t35.5 7h234q10 -1 16 -5.5t6 -11.5q0 -4 -2.5 -8t-6.5 -7l-188 -175q-9 -8 -23 -12.5t-30 -4.5h-145z" />
    <glyph glyph-name="Acircumflex" unicode="&#xc2;" horiz-adv-x="895" 
d="M438 1110l-57 -416q-6 -45 -10 -69q0 -20 21.5 -31.5t58.5 -11.5q39 0 56 12.5t17 44.5q0 7 -0.5 15.5t-3.5 30.5l-65 427zM12 202l64 298q5 24 9 77.5t9 81.5l70.5 376t46.5 268v1q31 171 90 171h252q38 0 54 -5.5t26 -19.5q14 -21 65 -264q34 -165 58 -271
q12 -55 38 -230t48 -292q9 -51 36 -160t27 -155q0 -35 -26 -56.5t-68 -21.5h-180q-20 0 -38 14t-24 34q-6 25 -9.5 72.5t-8.5 67.5q-9 39 -29 54.5t-59 15.5q-54 0 -85.5 -17t-31.5 -46q0 -14 1 -37.5t1 -34.5q0 -73 -20.5 -98t-75.5 -25h-189q-41 0 -59 14t-18 45
q0 29 16 100q7 29 10 43zM321 1757q9 12 21 17.5t30 5.5h150q16 0 28.5 -6t22.5 -17l139 -172q2 -2 3 -4.5t1 -5.5q0 -9 -5 -14t-13 -5h-135q-15 0 -29 5t-20 12l-54 57q-4 4 -7.5 6t-6.5 2t-6.5 -2t-7.5 -6l-58 -57q-6 -7 -20 -12t-29 -5h-135q-9 0 -13.5 5t-4.5 14
q0 4 0.5 6t3.5 4z" />
    <glyph glyph-name="Atilde" unicode="&#xc3;" horiz-adv-x="895" 
d="M438 1110l-57 -416q-6 -45 -10 -69q0 -20 21.5 -31.5t58.5 -11.5q39 0 56 12.5t17 44.5q0 7 -0.5 15.5t-3.5 30.5l-65 427zM12 202l64 298q5 24 9 77.5t9 81.5l70.5 376t46.5 268v1q31 171 90 171h252q38 0 54 -5.5t26 -19.5q14 -21 65 -264q34 -165 58 -271
q12 -55 38 -230t48 -292q9 -51 36 -160t27 -155q0 -35 -26 -56.5t-68 -21.5h-180q-20 0 -38 14t-24 34q-6 25 -9.5 72.5t-8.5 67.5q-9 39 -29 54.5t-59 15.5q-54 0 -85.5 -17t-31.5 -46q0 -14 1 -37.5t1 -34.5q0 -73 -20.5 -98t-75.5 -25h-189q-41 0 -59 14t-18 45
q0 29 16 100q7 29 10 43zM720 1769q14 0 20.5 -9t6.5 -28q0 -68 -54 -116.5t-134 -48.5q-53 0 -127.5 31.5t-98.5 31.5q-39 0 -53 -34t-31 -34h-86q-8 0 -13 6.5t-5 16.5q0 85 51 134.5t137 49.5q53 0 127.5 -31.5t98.5 -31.5q39 0 52 31.5t28 31.5h81z" />
    <glyph glyph-name="Adieresis" unicode="&#xc4;" horiz-adv-x="895" 
d="M438 1110l-57 -416q-6 -45 -10 -69q0 -20 21.5 -31.5t58.5 -11.5q39 0 56 12.5t17 44.5q0 7 -0.5 15.5t-3.5 30.5l-65 427zM12 202l64 298q5 24 9 77.5t9 81.5l70.5 376t46.5 268v1q31 171 90 171h252q38 0 54 -5.5t26 -19.5q14 -21 65 -264q34 -165 58 -271
q12 -55 38 -230t48 -292q9 -51 36 -160t27 -155q0 -35 -26 -56.5t-68 -21.5h-180q-20 0 -38 14t-24 34q-6 25 -9.5 72.5t-8.5 67.5q-9 39 -29 54.5t-59 15.5q-54 0 -85.5 -17t-31.5 -46q0 -14 1 -37.5t1 -34.5q0 -73 -20.5 -98t-75.5 -25h-189q-41 0 -59 14t-18 45
q0 29 16 100q7 29 10 43zM729 1601q0 -19 -11.5 -26.5t-42.5 -7.5h-127q-27 0 -37 8.5t-10 29.5v127q0 21 12 29t42 8h124q29 0 39.5 -9t10.5 -32v-127zM391 1601q0 -19 -11.5 -26.5t-42.5 -7.5h-124q-29 0 -39.5 8.5t-10.5 29.5v127q0 21 12 29t42 8h125q28 0 38.5 -9
t10.5 -32v-127z" />
    <glyph glyph-name="Aring" unicode="&#xc5;" horiz-adv-x="895" 
d="M358 1757q0 -34 24.5 -57t59.5 -23q34 0 57 23.5t23 56.5q0 35 -23 58.5t-57 23.5q-35 0 -59.5 -24t-24.5 -58zM227 1757q0 89 63 152t152 63q88 0 150.5 -63t62.5 -152t-62 -151t-151 -62q-90 0 -152.5 62t-62.5 151zM12 202l64 298q5 24 9 77.5t9 81.5l70.5 376
t46.5 268v1q31 171 90 171h252q38 0 54 -5.5t26 -19.5q14 -21 65 -264q34 -165 58 -271q12 -55 38 -230t48 -292q9 -51 36 -160t27 -155q0 -35 -26 -56.5t-68 -21.5h-180q-20 0 -38 14t-24 34q-6 25 -9.5 72.5t-8.5 67.5q-9 39 -29 54.5t-59 15.5q-54 0 -85.5 -17t-31.5 -46
q0 -14 1 -37.5t1 -34.5q0 -73 -20.5 -98t-75.5 -25h-189q-41 0 -59 14t-18 45q0 29 16 100q7 29 10 43zM438 1110l-57 -416q-6 -45 -10 -69q0 -20 21.5 -31.5t58.5 -11.5q39 0 56 12.5t17 44.5q0 7 -0.5 15.5t-3.5 30.5l-65 427z" />
    <glyph glyph-name="AE" unicode="&#xc6;" horiz-adv-x="1190" 
d="M457 1128l-68 -412q-3 -20 -4.5 -36t-1.5 -29q0 -43 17 -62.5t55 -19.5q33 0 52 20t19 54q0 12 -1 26.5t-3 30.5l-47 428h-18zM29 201l225 1161q2 11 5 29q12 79 85 79h676q63 0 82.5 -18.5t19.5 -71.5v-118q0 -62 -22.5 -91.5t-69.5 -29.5q-9 0 -100 5t-174 5
q-14 0 -19.5 -3t-5.5 -11v-13l29 -184h274q38 0 56 -13t18 -40v-189q0 -42 -25 -64t-73 -22q-8 0 -20.5 1t-16.5 1h-158l45 -260h213q35 0 52.5 -26t17.5 -78v-172q0 -42 -29 -61t-96 -19q-39 0 -118.5 4t-121.5 4q-39 0 -89 -3t-60 -3q-41 0 -56.5 15t-17.5 59q-1 23 -1 64
q-2 177 -93 177q-60 0 -80 -15.5t-27 -76.5q-3 -32 -5 -85q-6 -134 -89 -134q-7 0 -36.5 1t-51.5 1q-34 0 -72 -2t-43 -2q-29 0 -43 17t-14 53q0 24 12.5 68t16.5 61z" />
    <glyph glyph-name="Ccedilla" unicode="&#xc7;" horiz-adv-x="725" 
d="M43 760q0 415 112.5 565t409.5 150q67 0 91 -23.5t24 -85.5q0 -7 -1 -36.5t-1 -51.5q0 -9 2 -34.5t2 -41.5q0 -35 -9 -54t-32 -32q-7 -3 -17.5 -4.5t-35.5 -1.5q-29 0 -44 -2t-28 -6q-65 -21 -89 -87.5t-24 -281.5q0 -246 30.5 -317.5t109.5 -71.5q18 0 45.5 2t36.5 2
q28 0 43.5 -21.5t15.5 -62.5q0 -74 4 -145v-15q0 -62 -31 -86t-112 -24q-161 0 -243.5 36.5t-143.5 125.5t-88 225t-27 379zM491 0q-1 -7 -1.5 -13.5t-0.5 -17.5q1 -34 65 -37q32 -2 52 -4q58 -6 94.5 -44.5t36.5 -94.5q0 -82 -71 -120t-228 -38q-156 0 -203 20t-47 77
q0 19 8.5 29t24.5 10q6 0 80 -14.5t143 -14.5q40 0 58 10.5t18 34.5t-17 36.5t-51 12.5h-12q-45 0 -56 10t-11 37l2 121h116z" />
    <glyph glyph-name="Egrave" unicode="&#xc8;" horiz-adv-x="768" 
d="M68 1323q0 3 -1 20t-1 31q0 59 25.5 80t127.5 21h320q3 0 15 -1t19 -1h6q18 2 33 2q63 0 86 -22.5t23 -84.5q0 -51 2 -107v-18q0 -57 -20.5 -78.5t-79.5 -21.5q-11 0 -36 1t-40 1h-94q-34 0 -47 -18t-13 -64v-27q0 -68 14.5 -85t57.5 -17q14 0 61 3t78 3q64 0 85.5 -23.5
t21.5 -113.5v-60q0 -71 -20.5 -104t-63.5 -33q-14 0 -68.5 4t-97.5 4q-36 0 -49 -11t-13 -58l-2 -121q0 -51 12.5 -63.5t57.5 -12.5q73 0 156 2h24q54 0 72 -26t18 -129q0 -138 -21.5 -166.5t-86.5 -28.5q-35 0 -147.5 4t-190.5 4q-20 0 -69 -4t-77 -4q-44 0 -69 23t-25 63
q0 31 7.5 111.5t9.5 132.5v993zM130 1748q-4 3 -6.5 7t-2.5 8q0 7 6 11.5t16 5.5h234q19 0 35.5 -7t21.5 -16l99 -172l3 -7.5l1 -2.5q-1 -9 -6 -13.5t-15 -5.5h-145q-18 0 -30.5 4.5t-20.5 12.5z" />
    <glyph glyph-name="Eacute" unicode="&#xc9;" horiz-adv-x="768" 
d="M68 1323q0 3 -1 20t-1 31q0 59 25.5 80t127.5 21h320q3 0 15 -1t19 -1h6q18 2 33 2q63 0 86 -22.5t23 -84.5q0 -51 2 -107v-18q0 -57 -20.5 -78.5t-79.5 -21.5q-11 0 -36 1t-40 1h-94q-34 0 -47 -18t-13 -64v-27q0 -68 14.5 -85t57.5 -17q14 0 61 3t78 3q64 0 85.5 -23.5
t21.5 -113.5v-60q0 -71 -20.5 -104t-63.5 -33q-14 0 -68.5 4t-97.5 4q-36 0 -49 -11t-13 -58l-2 -121q0 -51 12.5 -63.5t57.5 -12.5q73 0 156 2h24q54 0 72 -26t18 -129q0 -138 -21.5 -166.5t-86.5 -28.5q-35 0 -147.5 4t-190.5 4q-20 0 -69 -4t-77 -4q-44 0 -69 23t-25 63
q0 31 7.5 111.5t9.5 132.5v993zM248 1556q-10 1 -15 5.5t-6 13.5l1 2.5l3 7.5l99 172q5 9 21.5 16t35.5 7h234q10 -1 16 -5.5t6 -11.5q0 -4 -2.5 -8t-6.5 -7l-188 -175q-9 -8 -23 -12.5t-30 -4.5h-145z" />
    <glyph glyph-name="Ecircumflex" unicode="&#xca;" horiz-adv-x="768" 
d="M68 1323q0 3 -1 20t-1 31q0 59 25.5 80t127.5 21h320q3 0 15 -1t19 -1h6q18 2 33 2q63 0 86 -22.5t23 -84.5q0 -51 2 -107v-18q0 -57 -20.5 -78.5t-79.5 -21.5q-11 0 -36 1t-40 1h-94q-34 0 -47 -18t-13 -64v-27q0 -68 14.5 -85t57.5 -17q14 0 61 3t78 3q64 0 85.5 -23.5
t21.5 -113.5v-60q0 -71 -20.5 -104t-63.5 -33q-14 0 -68.5 4t-97.5 4q-36 0 -49 -11t-13 -58l-2 -121q0 -51 12.5 -63.5t57.5 -12.5q73 0 156 2h24q54 0 72 -26t18 -129q0 -138 -21.5 -166.5t-86.5 -28.5q-35 0 -147.5 4t-190.5 4q-20 0 -69 -4t-77 -4q-44 0 -69 23t-25 63
q0 31 7.5 111.5t9.5 132.5v993zM258 1757q9 12 21 17.5t30 5.5h150q16 0 28.5 -6t22.5 -17l139 -172q2 -2 3 -4.5t1 -5.5q0 -9 -5 -14t-13 -5h-135q-15 0 -29 5t-20 12l-54 57q-4 4 -7.5 6t-6.5 2t-6.5 -2t-7.5 -6l-58 -57q-6 -7 -20 -12t-29 -5h-135q-9 0 -13.5 5t-4.5 14
q0 4 0.5 6t3.5 4z" />
    <glyph glyph-name="Edieresis" unicode="&#xcb;" horiz-adv-x="768" 
d="M68 1323q0 3 -1 20t-1 31q0 59 25.5 80t127.5 21h320q3 0 15 -1t19 -1h6q18 2 33 2q63 0 86 -22.5t23 -84.5q0 -51 2 -107v-18q0 -57 -20.5 -78.5t-79.5 -21.5q-11 0 -36 1t-40 1h-94q-34 0 -47 -18t-13 -64v-27q0 -68 14.5 -85t57.5 -17q14 0 61 3t78 3q64 0 85.5 -23.5
t21.5 -113.5v-60q0 -71 -20.5 -104t-63.5 -33q-14 0 -68.5 4t-97.5 4q-36 0 -49 -11t-13 -58l-2 -121q0 -51 12.5 -63.5t57.5 -12.5q73 0 156 2h24q54 0 72 -26t18 -129q0 -138 -21.5 -166.5t-86.5 -28.5q-35 0 -147.5 4t-190.5 4q-20 0 -69 -4t-77 -4q-44 0 -69 23t-25 63
q0 31 7.5 111.5t9.5 132.5v993zM666 1601q0 -19 -11.5 -26.5t-42.5 -7.5h-127q-27 0 -37 8.5t-10 29.5v127q0 21 12 29t42 8h124q29 0 39.5 -9t10.5 -32v-127zM328 1601q0 -19 -11.5 -26.5t-42.5 -7.5h-124q-29 0 -39.5 8.5t-10.5 29.5v127q0 21 12 29t42 8h125
q28 0 38.5 -9t10.5 -32v-127z" />
    <glyph glyph-name="Igrave" unicode="&#xcc;" horiz-adv-x="465" 
d="M279 1475q47 -1 67.5 -5.5t32.5 -15.5q11 -11 15.5 -38t4.5 -97v-123q0 -223 -3 -506.5t-3 -343.5q0 -29 2 -103.5t2 -121.5q0 -73 -21.5 -97t-109.5 -24h-71q-90 0 -112 21t-22 114q0 18 2 108q7 465 7 922q0 98 -4 197v20q0 57 18.5 75t99.5 18h95zM-22 1748
q-4 3 -6.5 7t-2.5 8q0 7 6 11.5t16 5.5h234q19 0 35.5 -7t21.5 -16l99 -172l3 -7.5l1 -2.5q-1 -9 -6 -13.5t-15 -5.5h-145q-18 0 -30.5 4.5t-20.5 12.5z" />
    <glyph glyph-name="Iacute" unicode="&#xcd;" horiz-adv-x="465" 
d="M279 1475q47 -1 67.5 -5.5t32.5 -15.5q11 -11 15.5 -38t4.5 -97v-123q0 -223 -3 -506.5t-3 -343.5q0 -29 2 -103.5t2 -121.5q0 -73 -21.5 -97t-109.5 -24h-71q-90 0 -112 21t-22 114q0 18 2 108q7 465 7 922q0 98 -4 197v20q0 57 18.5 75t99.5 18h95zM96 1556
q-10 1 -15 5.5t-6 13.5l1 2.5l3 7.5l99 172q5 9 21.5 16t35.5 7h234q10 -1 16 -5.5t6 -11.5q0 -4 -2.5 -8t-6.5 -7l-188 -175q-9 -8 -23 -12.5t-30 -4.5h-145z" />
    <glyph glyph-name="Icircumflex" unicode="&#xce;" horiz-adv-x="465" 
d="M279 1475q47 -1 67.5 -5.5t32.5 -15.5q11 -11 15.5 -38t4.5 -97v-123q0 -223 -3 -506.5t-3 -343.5q0 -29 2 -103.5t2 -121.5q0 -73 -21.5 -97t-109.5 -24h-71q-90 0 -112 21t-22 114q0 18 2 108q7 465 7 922q0 98 -4 197v20q0 57 18.5 75t99.5 18h95zM106 1757
q9 12 21 17.5t30 5.5h150q16 0 28.5 -6t22.5 -17l139 -172q2 -2 3 -4.5t1 -5.5q0 -9 -5 -14t-13 -5h-135q-15 0 -29 5t-20 12l-54 57q-4 4 -7.5 6t-6.5 2t-6.5 -2t-7.5 -6l-58 -57q-6 -7 -20 -12t-29 -5h-135q-9 0 -13.5 5t-4.5 14q0 4 0.5 6t3.5 4z" />
    <glyph glyph-name="Idieresis" unicode="&#xcf;" horiz-adv-x="465" 
d="M279 1475q47 -1 67.5 -5.5t32.5 -15.5q11 -11 15.5 -38t4.5 -97v-123q0 -223 -3 -506.5t-3 -343.5q0 -29 2 -103.5t2 -121.5q0 -73 -21.5 -97t-109.5 -24h-71q-90 0 -112 21t-22 114q0 18 2 108q7 465 7 922q0 98 -4 197v20q0 57 18.5 75t99.5 18h95zM514 1601
q0 -19 -11.5 -26.5t-42.5 -7.5h-127q-27 0 -37 8.5t-10 29.5v127q0 21 12 29t42 8h124q29 0 39.5 -9t10.5 -32v-127zM176 1601q0 -19 -11.5 -26.5t-42.5 -7.5h-124q-29 0 -39.5 8.5t-10.5 29.5v127q0 21 12 29t42 8h125q28 0 38.5 -9t10.5 -32v-127z" />
    <glyph glyph-name="Eth" unicode="&#xd0;" horiz-adv-x="1004" 
d="M422 442q0 -6 -1 -19.5t-1 -21.5q0 -52 16 -74t56 -22q62 0 84 52t22 245v127q0 277 -24.5 343.5t-94.5 66.5q-33 0 -48 -17.5t-15 -56.5q0 -38 2 -87.5t2 -59.5v-89h29q38 0 54.5 -7.5t16.5 -24.5v-176q0 -17 -16.5 -26t-48.5 -9q-14 0 -21.5 0.5t-13.5 0.5zM500 1473h8
q240 0 341 -181t101 -637q0 -339 -92.5 -499t-286.5 -160q-14 0 -36 2t-29 2l-135 -2q-3 0 -19 -1q-77 -3 -153 -3q-62 0 -81.5 27t-19.5 157v19q0 2 2.5 131t3.5 260q-6 0 -16.5 -1t-15.5 -1q-35 0 -50.5 8t-15.5 27v176q0 18 14.5 25t53.5 7h30q0 256 -8 504q-2 42 -2 49
q0 48 26.5 69.5t86.5 21.5q7 0 52.5 -1.5t84.5 -1.5z" />
    <glyph glyph-name="Ntilde" unicode="&#xd1;" 
d="M63 139v1184q0 97 21 124.5t76 27.5h186q38 0 53 -10.5t25 -43.5q3 -10 13 -48q77 -292 175 -595h41l4 574q0 79 16.5 101t61.5 22h127q59 0 77.5 -17t18.5 -67q0 -4 -1 -19t-1 -26v-580q0 -27 -3 -95.5t-3 -111.5q0 -7 1 -40q3 -174 3 -347q0 -113 -19.5 -142.5
t-70.5 -29.5h-166q-60 0 -78.5 17.5t-44.5 107.5l-165 571h-41v-571q0 -82 -20 -103.5t-79 -21.5h-104q-62 0 -82.5 20t-20.5 119zM786 1769q14 0 20.5 -9t6.5 -28q0 -68 -54 -116.5t-134 -48.5q-53 0 -127.5 31.5t-98.5 31.5q-39 0 -53 -34t-31 -34h-86q-8 0 -13 6.5
t-5 16.5q0 85 51 134.5t137 49.5q53 0 127.5 -31.5t98.5 -31.5q39 0 52 31.5t28 31.5h81z" />
    <glyph glyph-name="Ograve" unicode="&#xd2;" horiz-adv-x="1034" 
d="M416 526q0 -114 19.5 -155t70.5 -41q64 0 87 51t23 268v25v321q0 74 -26 116t-72 42q-56 0 -79 -48t-23 -171v-408zM51 725q0 261 18.5 374.5t61.5 194.5q53 102 158.5 154.5t255.5 52.5q227 0 331.5 -137.5t104.5 -439.5v-66q0 -313 -12.5 -436t-42.5 -199
q-49 -119 -162 -183.5t-275 -64.5q-238 0 -338 166t-100 584zM263 1748q-4 3 -6.5 7t-2.5 8q0 7 6 11.5t16 5.5h234q19 0 35.5 -7t21.5 -16l99 -172l3 -7.5l1 -2.5q-1 -9 -6 -13.5t-15 -5.5h-145q-18 0 -30.5 4.5t-20.5 12.5z" />
    <glyph glyph-name="Oacute" unicode="&#xd3;" horiz-adv-x="1034" 
d="M416 526q0 -114 19.5 -155t70.5 -41q64 0 87 51t23 268v25v321q0 74 -26 116t-72 42q-56 0 -79 -48t-23 -171v-408zM51 725q0 261 18.5 374.5t61.5 194.5q53 102 158.5 154.5t255.5 52.5q227 0 331.5 -137.5t104.5 -439.5v-66q0 -313 -12.5 -436t-42.5 -199
q-49 -119 -162 -183.5t-275 -64.5q-238 0 -338 166t-100 584zM381 1556q-10 1 -15 5.5t-6 13.5l1 2.5l3 7.5l99 172q5 9 21.5 16t35.5 7h234q10 -1 16 -5.5t6 -11.5q0 -4 -2.5 -8t-6.5 -7l-188 -175q-9 -8 -23 -12.5t-30 -4.5h-145z" />
    <glyph glyph-name="Ocircumflex" unicode="&#xd4;" horiz-adv-x="1034" 
d="M416 526q0 -114 19.5 -155t70.5 -41q64 0 87 51t23 268v25v321q0 74 -26 116t-72 42q-56 0 -79 -48t-23 -171v-408zM51 725q0 261 18.5 374.5t61.5 194.5q53 102 158.5 154.5t255.5 52.5q227 0 331.5 -137.5t104.5 -439.5v-66q0 -313 -12.5 -436t-42.5 -199
q-49 -119 -162 -183.5t-275 -64.5q-238 0 -338 166t-100 584zM391 1757q9 12 21 17.5t30 5.5h150q16 0 28.5 -6t22.5 -17l139 -172q2 -2 3 -4.5t1 -5.5q0 -9 -5 -14t-13 -5h-135q-15 0 -29 5t-20 12l-54 57q-4 4 -7.5 6t-6.5 2t-6.5 -2t-7.5 -6l-58 -57q-6 -7 -20 -12
t-29 -5h-135q-9 0 -13.5 5t-4.5 14q0 4 0.5 6t3.5 4z" />
    <glyph glyph-name="Otilde" unicode="&#xd5;" horiz-adv-x="1034" 
d="M416 526q0 -114 19.5 -155t70.5 -41q64 0 87 51t23 268v25v321q0 74 -26 116t-72 42q-56 0 -79 -48t-23 -171v-408zM51 725q0 261 18.5 374.5t61.5 194.5q53 102 158.5 154.5t255.5 52.5q227 0 331.5 -137.5t104.5 -439.5v-66q0 -313 -12.5 -436t-42.5 -199
q-49 -119 -162 -183.5t-275 -64.5q-238 0 -338 166t-100 584zM790 1769q14 0 20.5 -9t6.5 -28q0 -68 -54 -116.5t-134 -48.5q-53 0 -127.5 31.5t-98.5 31.5q-39 0 -53 -34t-31 -34h-86q-8 0 -13 6.5t-5 16.5q0 85 51 134.5t137 49.5q53 0 127.5 -31.5t98.5 -31.5
q39 0 52 31.5t28 31.5h81z" />
    <glyph glyph-name="Odieresis" unicode="&#xd6;" horiz-adv-x="1034" 
d="M416 526q0 -114 19.5 -155t70.5 -41q64 0 87 51t23 268v25v321q0 74 -26 116t-72 42q-56 0 -79 -48t-23 -171v-408zM51 725q0 261 18.5 374.5t61.5 194.5q53 102 158.5 154.5t255.5 52.5q227 0 331.5 -137.5t104.5 -439.5v-66q0 -313 -12.5 -436t-42.5 -199
q-49 -119 -162 -183.5t-275 -64.5q-238 0 -338 166t-100 584zM799 1601q0 -19 -11.5 -26.5t-42.5 -7.5h-127q-27 0 -37 8.5t-10 29.5v127q0 21 12 29t42 8h124q29 0 39.5 -9t10.5 -32v-127zM461 1601q0 -19 -11.5 -26.5t-42.5 -7.5h-124q-29 0 -39.5 8.5t-10.5 29.5v127
q0 21 12 29t42 8h125q28 0 38.5 -9t10.5 -32v-127z" />
    <glyph glyph-name="multiply" unicode="&#xd7;" horiz-adv-x="1706" 
d="M416 1202l450 -450l451 450l141 -139l-450 -453l450 -450l-141 -140l-451 451l-450 -451l-140 140l451 450l-451 453z" />
    <glyph glyph-name="Oslash" unicode="&#xd8;" horiz-adv-x="1034" 
d="M82 -94l86 194q-68 89 -96.5 217.5t-28.5 452.5v29q0 393 113 547.5t389 154.5q58 0 107 -8t89 -25l54 131q6 14 14 20.5t16 6.5q3 0 5.5 -0.5t7.5 -3.5l80 -33q11 -5 16.5 -11t5.5 -13q0 -3 -3 -11q-1 -3 -1 -4l-68 -168q61 -62 92 -178t31 -280v-115
q0 -272 -12.5 -391.5t-42.5 -194.5q-48 -118 -166 -184t-283 -66q-66 0 -113 8.5t-83 26.5l-72 -162q-4 -10 -11.5 -16t-14.5 -6q-3 0 -10 2q-4 2 -5 2l-80 35q-7 3 -12.5 12t-5.5 19q0 5 0.5 7.5t1.5 4.5zM416 532q0 -110 19.5 -150t70.5 -40q64 0 87 51.5t23 282.5v313
q0 71 -26 111.5t-72 40.5q-56 0 -79 -46t-23 -165v-398z" />
    <glyph glyph-name="Ugrave" unicode="&#xd9;" horiz-adv-x="1010" 
d="M57 539v790q0 95 17 120.5t61 25.5h168q51 0 69.5 -19.5t18.5 -93.5v-899q0 -73 26.5 -107t82.5 -34q55 0 82.5 28t27.5 84v924q0 67 21 92t78 25h159q39 0 56.5 -25t17.5 -82v-893q0 -260 -113.5 -380t-359.5 -120q-117 0 -201 35.5t-135 106.5q-41 56 -58.5 142
t-17.5 280zM251 1748q-4 3 -6.5 7t-2.5 8q0 7 6 11.5t16 5.5h234q19 0 35.5 -7t21.5 -16l99 -172l3 -7.5l1 -2.5q-1 -9 -6 -13.5t-15 -5.5h-145q-18 0 -30.5 4.5t-20.5 12.5z" />
    <glyph glyph-name="Uacute" unicode="&#xda;" horiz-adv-x="1010" 
d="M57 539v790q0 95 17 120.5t61 25.5h168q51 0 69.5 -19.5t18.5 -93.5v-899q0 -73 26.5 -107t82.5 -34q55 0 82.5 28t27.5 84v924q0 67 21 92t78 25h159q39 0 56.5 -25t17.5 -82v-893q0 -260 -113.5 -380t-359.5 -120q-117 0 -201 35.5t-135 106.5q-41 56 -58.5 142
t-17.5 280zM369 1556q-10 1 -15 5.5t-6 13.5l1 2.5l3 7.5l99 172q5 9 21.5 16t35.5 7h234q10 -1 16 -5.5t6 -11.5q0 -4 -2.5 -8t-6.5 -7l-188 -175q-9 -8 -23 -12.5t-30 -4.5h-145z" />
    <glyph glyph-name="Ucircumflex" unicode="&#xdb;" horiz-adv-x="1010" 
d="M57 539v790q0 95 17 120.5t61 25.5h168q51 0 69.5 -19.5t18.5 -93.5v-899q0 -73 26.5 -107t82.5 -34q55 0 82.5 28t27.5 84v924q0 67 21 92t78 25h159q39 0 56.5 -25t17.5 -82v-893q0 -260 -113.5 -380t-359.5 -120q-117 0 -201 35.5t-135 106.5q-41 56 -58.5 142
t-17.5 280zM379 1757q9 12 21 17.5t30 5.5h150q16 0 28.5 -6t22.5 -17l139 -172q2 -2 3 -4.5t1 -5.5q0 -9 -5 -14t-13 -5h-135q-15 0 -29 5t-20 12l-54 57q-4 4 -7.5 6t-6.5 2t-6.5 -2t-7.5 -6l-58 -57q-6 -7 -20 -12t-29 -5h-135q-9 0 -13.5 5t-4.5 14q0 4 0.5 6t3.5 4z
" />
    <glyph glyph-name="Udieresis" unicode="&#xdc;" horiz-adv-x="1010" 
d="M57 539v790q0 95 17 120.5t61 25.5h168q51 0 69.5 -19.5t18.5 -93.5v-899q0 -73 26.5 -107t82.5 -34q55 0 82.5 28t27.5 84v924q0 67 21 92t78 25h159q39 0 56.5 -25t17.5 -82v-893q0 -260 -113.5 -380t-359.5 -120q-117 0 -201 35.5t-135 106.5q-41 56 -58.5 142
t-17.5 280zM787 1601q0 -19 -11.5 -26.5t-42.5 -7.5h-127q-27 0 -37 8.5t-10 29.5v127q0 21 12 29t42 8h124q29 0 39.5 -9t10.5 -32v-127zM449 1601q0 -19 -11.5 -26.5t-42.5 -7.5h-124q-29 0 -39.5 8.5t-10.5 29.5v127q0 21 12 29t42 8h125q28 0 38.5 -9t10.5 -32v-127z
" />
    <glyph glyph-name="Yacute" unicode="&#xdd;" horiz-adv-x="891" 
d="M373 1392l73 -468h17l65 415q10 66 21 91.5t31 31.5q18 6 73.5 9.5t147.5 3.5q50 0 74 -13.5t24 -40.5q0 -9 -5 -29.5t-13 -47.5l-226 -685q-1 -5 -6 -18q-33 -86 -33 -190v-13l5 -282q0 -21 2 -50.5t2 -37.5q0 -38 -19 -53t-69 -15q-22 0 -52 1t-36 1q-36 0 -74 -2
t-39 -2q-30 0 -42.5 13t-12.5 44v24q4 137 4 286v157q0 46 -26 122l-3 9l-233 688q-9 26 -13 44.5t-4 31.5q0 31 19.5 44.5t62.5 13.5q5 0 34 -2.5t54 -2.5q8 0 46 1.5t69 1.5q37 0 55.5 -17.5t26.5 -63.5zM309 1556q-10 1 -15 5.5t-6 13.5l1 2.5l3 7.5l99 172q5 9 21.5 16
t35.5 7h234q10 -1 16 -5.5t6 -11.5q0 -4 -2.5 -8t-6.5 -7l-188 -175q-9 -8 -23 -12.5t-30 -4.5h-145z" />
    <glyph glyph-name="Thorn" unicode="&#xde;" horiz-adv-x="1014" 
d="M395 889q0 -114 3 -200.5t8 -109.5q3 -18 25.5 -30t53.5 -12q66 0 92.5 46.5t26.5 178.5q0 139 -27 194.5t-92 55.5q-47 0 -68.5 -29.5t-21.5 -93.5zM94 131q0 6 -1 61t-1 103q0 88 4 314.5t4 363.5q0 169 -8 348q-2 39 -2 47q0 69 33.5 92t165.5 23h82q51 0 66.5 -13
t15.5 -61q0 -47 7.5 -70.5t22.5 -23.5q12 0 37.5 3t38.5 3q187 0 286 -139t99 -402q0 -255 -109.5 -410t-287.5 -155h-45q-57 0 -75.5 -20t-18.5 -74q0 -12 1 -31.5t1 -26.5q0 -32 -17.5 -47.5t-54.5 -15.5q-11 0 -37 2t-41 2q-21 0 -58 -4t-52 -4q-30 0 -44 17t-14 53
q0 16 1 38t1 27z" />
    <glyph glyph-name="germandbls" unicode="&#xdf;" horiz-adv-x="938" 
d="M63 98v1002q0 117 17 172.5t57 103.5q54 63 136 94t196 31q164 0 263 -86t99 -227q0 -83 -43 -167.5t-43 -94.5q0 -20 35 -91l35 -75q44 -101 64 -189.5t20 -181.5q0 -181 -77 -287t-208 -106q-100 0 -132.5 23t-32.5 102v180q0 39 7 49.5t29 14.5q39 5 50.5 19.5
t11.5 47.5q0 39 -42 159q-12 32 -18 50q-25 76 -39 137t-14 99q0 52 32 141.5t32 122.5q0 31 -15.5 47t-44.5 16q-30 0 -43.5 -19t-13.5 -65v-1040q0 -50 -21 -64t-84 -14h-161q-28 0 -40 22.5t-12 73.5z" />
    <glyph glyph-name="agrave" unicode="&#xe0;" horiz-adv-x="846" 
d="M334 483v-131q0 -52 18 -77t56 -25q41 0 57 24.5t16 92.5v122q0 57 -15.5 81t-51.5 24q-40 0 -60 -27.5t-20 -83.5zM485 76h-14q-17 -47 -56.5 -70.5t-99.5 -23.5q-120 0 -194 114.5t-74 302.5q0 196 79 314t206 118q32 0 75 -13t54 -13q15 0 21.5 8.5t6.5 30.5
q0 45 -33.5 71.5t-90.5 26.5q-50 0 -111 -18.5t-72 -18.5q-26 0 -37.5 15t-11.5 53v102q0 39 7.5 52.5t25.5 21.5q42 19 116 32t150 13q190 0 266 -66.5t76 -236.5v-92v-693q0 -8 1 -21t1 -17q0 -44 -13 -56t-79 -12h-141q-41 0 -48.5 10.5t-9.5 65.5zM171 1443q-4 3 -6.5 7
t-2.5 8q0 7 6 11.5t16 5.5h234q19 0 35.5 -7t21.5 -16l99 -172l3 -7.5l1 -2.5q-1 -9 -6 -13.5t-15 -5.5h-145q-18 0 -30.5 4.5t-20.5 12.5z" />
    <glyph glyph-name="aacute" unicode="&#xe1;" horiz-adv-x="846" 
d="M334 483v-131q0 -52 18 -77t56 -25q41 0 57 24.5t16 92.5v122q0 57 -15.5 81t-51.5 24q-40 0 -60 -27.5t-20 -83.5zM485 76h-14q-17 -47 -56.5 -70.5t-99.5 -23.5q-120 0 -194 114.5t-74 302.5q0 196 79 314t206 118q32 0 75 -13t54 -13q15 0 21.5 8.5t6.5 30.5
q0 45 -33.5 71.5t-90.5 26.5q-50 0 -111 -18.5t-72 -18.5q-26 0 -37.5 15t-11.5 53v102q0 39 7.5 52.5t25.5 21.5q42 19 116 32t150 13q190 0 266 -66.5t76 -236.5v-92v-693q0 -8 1 -21t1 -17q0 -44 -13 -56t-79 -12h-141q-41 0 -48.5 10.5t-9.5 65.5zM289 1251
q-10 1 -15 5.5t-6 13.5l1 2.5l3 7.5l99 172q5 9 21.5 16t35.5 7h234q10 -1 16 -5.5t6 -11.5q0 -4 -2.5 -8t-6.5 -7l-188 -175q-9 -8 -23 -12.5t-30 -4.5h-145z" />
    <glyph glyph-name="acircumflex" unicode="&#xe2;" horiz-adv-x="846" 
d="M334 483v-131q0 -52 18 -77t56 -25q41 0 57 24.5t16 92.5v122q0 57 -15.5 81t-51.5 24q-40 0 -60 -27.5t-20 -83.5zM485 76h-14q-17 -47 -56.5 -70.5t-99.5 -23.5q-120 0 -194 114.5t-74 302.5q0 196 79 314t206 118q32 0 75 -13t54 -13q15 0 21.5 8.5t6.5 30.5
q0 45 -33.5 71.5t-90.5 26.5q-50 0 -111 -18.5t-72 -18.5q-26 0 -37.5 15t-11.5 53v102q0 39 7.5 52.5t25.5 21.5q42 19 116 32t150 13q190 0 266 -66.5t76 -236.5v-92v-693q0 -8 1 -21t1 -17q0 -44 -13 -56t-79 -12h-141q-41 0 -48.5 10.5t-9.5 65.5zM299 1452
q9 12 21 17.5t30 5.5h150q16 0 28.5 -6t22.5 -17l139 -172q2 -2 3 -4.5t1 -5.5q0 -9 -5 -14t-13 -5h-135q-15 0 -29 5t-20 12l-54 57q-4 4 -7.5 6t-6.5 2t-6.5 -2t-7.5 -6l-58 -57q-6 -7 -20 -12t-29 -5h-135q-9 0 -13.5 5t-4.5 14q0 4 0.5 6t3.5 4z" />
    <glyph glyph-name="atilde" unicode="&#xe3;" horiz-adv-x="846" 
d="M334 483v-131q0 -52 18 -77t56 -25q41 0 57 24.5t16 92.5v122q0 57 -15.5 81t-51.5 24q-40 0 -60 -27.5t-20 -83.5zM485 76h-14q-17 -47 -56.5 -70.5t-99.5 -23.5q-120 0 -194 114.5t-74 302.5q0 196 79 314t206 118q32 0 75 -13t54 -13q15 0 21.5 8.5t6.5 30.5
q0 45 -33.5 71.5t-90.5 26.5q-50 0 -111 -18.5t-72 -18.5q-26 0 -37.5 15t-11.5 53v102q0 39 7.5 52.5t25.5 21.5q42 19 116 32t150 13q190 0 266 -66.5t76 -236.5v-92v-693q0 -8 1 -21t1 -17q0 -44 -13 -56t-79 -12h-141q-41 0 -48.5 10.5t-9.5 65.5zM698 1464
q14 0 20.5 -9t6.5 -28q0 -68 -54 -116.5t-134 -48.5q-53 0 -127.5 31.5t-98.5 31.5q-39 0 -53 -34t-31 -34h-86q-8 0 -13 6.5t-5 16.5q0 85 51 134.5t137 49.5q53 0 127.5 -31.5t98.5 -31.5q39 0 52 31.5t28 31.5h81z" />
    <glyph glyph-name="adieresis" unicode="&#xe4;" horiz-adv-x="846" 
d="M334 483v-131q0 -52 18 -77t56 -25q41 0 57 24.5t16 92.5v122q0 57 -15.5 81t-51.5 24q-40 0 -60 -27.5t-20 -83.5zM485 76h-14q-17 -47 -56.5 -70.5t-99.5 -23.5q-120 0 -194 114.5t-74 302.5q0 196 79 314t206 118q32 0 75 -13t54 -13q15 0 21.5 8.5t6.5 30.5
q0 45 -33.5 71.5t-90.5 26.5q-50 0 -111 -18.5t-72 -18.5q-26 0 -37.5 15t-11.5 53v102q0 39 7.5 52.5t25.5 21.5q42 19 116 32t150 13q190 0 266 -66.5t76 -236.5v-92v-693q0 -8 1 -21t1 -17q0 -44 -13 -56t-79 -12h-141q-41 0 -48.5 10.5t-9.5 65.5zM707 1296
q0 -19 -11.5 -26.5t-42.5 -7.5h-127q-27 0 -37 8.5t-10 29.5v127q0 21 12 29t42 8h124q29 0 39.5 -9t10.5 -32v-127zM369 1296q0 -19 -11.5 -26.5t-42.5 -7.5h-124q-29 0 -39.5 8.5t-10.5 29.5v127q0 21 12 29t42 8h125q28 0 38.5 -9t10.5 -32v-127z" />
    <glyph glyph-name="aring" unicode="&#xe5;" horiz-adv-x="846" 
d="M354 1466q0 -34 24 -58t58 -24t58 24t24 56q0 35 -23.5 58.5t-58.5 23.5t-58.5 -23t-23.5 -57zM223 1466q0 89 63 151t152 62q88 0 150.5 -62t62.5 -151t-62 -152t-151 -63q-90 0 -152.5 63t-62.5 152zM485 76h-14q-17 -47 -56.5 -70.5t-99.5 -23.5q-120 0 -194 114.5
t-74 302.5q0 196 79 314t206 118q32 0 75 -13t54 -13q15 0 21.5 8.5t6.5 30.5q0 45 -33.5 71.5t-90.5 26.5q-50 0 -111 -18.5t-72 -18.5q-26 0 -37.5 15t-11.5 53v102q0 39 7.5 52.5t25.5 21.5q42 19 116 32t150 13q190 0 266 -66.5t76 -236.5v-92v-693q0 -8 1 -21t1 -17
q0 -44 -13 -56t-79 -12h-141q-41 0 -48.5 10.5t-9.5 65.5zM334 483v-131q0 -52 18 -77t56 -25q41 0 57 24.5t16 92.5v122q0 57 -15.5 81t-51.5 24q-40 0 -60 -27.5t-20 -83.5z" />
    <glyph glyph-name="ae" unicode="&#xe6;" horiz-adv-x="1266" 
d="M811 709h63q30 0 40 11t10 54q0 83 -20 115.5t-68 32.5q-36 0 -52 -27t-16 -88q0 -62 9 -80t34 -18zM334 483v-131q0 -52 18 -77t56 -25q41 0 57 24.5t16 92.5v122q0 57 -15.5 81t-51.5 24q-40 0 -60 -27.5t-20 -83.5zM496 80h-17q-21 -48 -62.5 -73t-101.5 -25
q-120 0 -194 114.5t-74 302.5q0 196 79 314t206 118q32 0 75 -13t54 -13q15 0 21.5 8.5t6.5 30.5q0 45 -33.5 71.5t-90.5 26.5q-50 0 -111 -18.5t-72 -18.5q-26 0 -37.5 15t-11.5 53v102q0 39 7.5 52.5t25.5 21.5q40 19 114 32t152 13q73 0 129.5 -14t106.5 -43
q44 27 88.5 41t89.5 14q104 0 182 -44.5t129 -133.5q28 -50 39.5 -128.5t11.5 -252.5q0 -100 -16.5 -132t-58.5 -32h-332q-10 0 -21.5 -9t-11.5 -18q0 -78 43.5 -113.5t138.5 -35.5q51 0 104 26.5t64 26.5q34 0 53 -20t19 -56v-157q0 -59 -58.5 -92t-160.5 -33
q-69 0 -114 22.5t-69 69.5h-19q0 -6 0.5 -11.5t0.5 -15.5q0 -31 -14.5 -42t-81.5 -11h-119q-55 0 -59 80z" />
    <glyph glyph-name="ccedilla" unicode="&#xe7;" horiz-adv-x="584" 
d="M528 1112v-168q0 -72 -67 -80q-8 -1 -13 -2q-51 -7 -69.5 -52t-18.5 -214q0 -155 19 -200.5t70 -45.5h22q34 0 45.5 -14t11.5 -57v-213q0 -39 -22 -57.5t-68 -18.5q-217 0 -302 124t-85 453q0 366 84 496.5t303 130.5q51 0 70.5 -18t19.5 -64zM381 0q-1 -7 -1.5 -13.5
t-0.5 -17.5q1 -34 65 -37q32 -2 52 -4q58 -6 94.5 -44.5t36.5 -94.5q0 -82 -71 -120t-228 -38q-156 0 -203 20t-47 77q0 19 8.5 29t24.5 10q6 0 80 -14.5t143 -14.5q40 0 58 10.5t18 34.5t-17 36.5t-51 12.5h-12q-45 0 -56 10t-11 37l2 121h116z" />
    <glyph glyph-name="egrave" unicode="&#xe8;" horiz-adv-x="834" 
d="M387 709h64q30 0 40.5 12t10.5 53q0 83 -20 115.5t-68 32.5q-36 0 -53 -27.5t-17 -87.5q0 -62 9 -80t34 -18zM768 270v-157q0 -24 -6 -42t-15 -24q-34 -25 -109 -44t-149 -19q-235 0 -342.5 146t-107.5 470q0 312 91.5 452t293.5 140q105 0 183 -44.5t128 -133.5
q27 -48 38 -123t11 -258q0 -100 -16.5 -132t-58.5 -32h-330q-10 0 -21.5 -9t-11.5 -18q0 -78 42.5 -113.5t137.5 -35.5q51 0 105.5 26.5t64.5 26.5q34 0 53 -20t19 -56zM165 1443q-4 3 -6.5 7t-2.5 8q0 7 6 11.5t16 5.5h234q19 0 35.5 -7t21.5 -16l99 -172l3 -7.5l1 -2.5
q-1 -9 -6 -13.5t-15 -5.5h-145q-18 0 -30.5 4.5t-20.5 12.5z" />
    <glyph glyph-name="eacute" unicode="&#xe9;" horiz-adv-x="834" 
d="M387 709h64q30 0 40.5 12t10.5 53q0 83 -20 115.5t-68 32.5q-36 0 -53 -27.5t-17 -87.5q0 -62 9 -80t34 -18zM768 270v-157q0 -24 -6 -42t-15 -24q-34 -25 -109 -44t-149 -19q-235 0 -342.5 146t-107.5 470q0 312 91.5 452t293.5 140q105 0 183 -44.5t128 -133.5
q27 -48 38 -123t11 -258q0 -100 -16.5 -132t-58.5 -32h-330q-10 0 -21.5 -9t-11.5 -18q0 -78 42.5 -113.5t137.5 -35.5q51 0 105.5 26.5t64.5 26.5q34 0 53 -20t19 -56zM283 1251q-10 1 -15 5.5t-6 13.5l1 2.5l3 7.5l99 172q5 9 21.5 16t35.5 7h234q10 -1 16 -5.5t6 -11.5
q0 -4 -2.5 -8t-6.5 -7l-188 -175q-9 -8 -23 -12.5t-30 -4.5h-145z" />
    <glyph glyph-name="ecircumflex" unicode="&#xea;" horiz-adv-x="834" 
d="M387 709h64q30 0 40.5 12t10.5 53q0 83 -20 115.5t-68 32.5q-36 0 -53 -27.5t-17 -87.5q0 -62 9 -80t34 -18zM768 270v-157q0 -24 -6 -42t-15 -24q-34 -25 -109 -44t-149 -19q-235 0 -342.5 146t-107.5 470q0 312 91.5 452t293.5 140q105 0 183 -44.5t128 -133.5
q27 -48 38 -123t11 -258q0 -100 -16.5 -132t-58.5 -32h-330q-10 0 -21.5 -9t-11.5 -18q0 -78 42.5 -113.5t137.5 -35.5q51 0 105.5 26.5t64.5 26.5q34 0 53 -20t19 -56zM293 1452q9 12 21 17.5t30 5.5h150q16 0 28.5 -6t22.5 -17l139 -172q2 -2 3 -4.5t1 -5.5q0 -9 -5 -14
t-13 -5h-135q-15 0 -29 5t-20 12l-54 57q-4 4 -7.5 6t-6.5 2t-6.5 -2t-7.5 -6l-58 -57q-6 -7 -20 -12t-29 -5h-135q-9 0 -13.5 5t-4.5 14q0 4 0.5 6t3.5 4z" />
    <glyph glyph-name="edieresis" unicode="&#xeb;" horiz-adv-x="834" 
d="M387 709h64q30 0 40.5 12t10.5 53q0 83 -20 115.5t-68 32.5q-36 0 -53 -27.5t-17 -87.5q0 -62 9 -80t34 -18zM768 270v-157q0 -24 -6 -42t-15 -24q-34 -25 -109 -44t-149 -19q-235 0 -342.5 146t-107.5 470q0 312 91.5 452t293.5 140q105 0 183 -44.5t128 -133.5
q27 -48 38 -123t11 -258q0 -100 -16.5 -132t-58.5 -32h-330q-10 0 -21.5 -9t-11.5 -18q0 -78 42.5 -113.5t137.5 -35.5q51 0 105.5 26.5t64.5 26.5q34 0 53 -20t19 -56zM701 1296q0 -19 -11.5 -26.5t-42.5 -7.5h-127q-27 0 -37 8.5t-10 29.5v127q0 21 12 29t42 8h124
q29 0 39.5 -9t10.5 -32v-127zM363 1296q0 -19 -11.5 -26.5t-42.5 -7.5h-124q-29 0 -39.5 8.5t-10.5 29.5v127q0 21 12 29t42 8h125q28 0 38.5 -9t10.5 -32v-127z" />
    <glyph glyph-name="igrave" unicode="&#xec;" horiz-adv-x="469" 
d="M70 131v852q0 12 -1 43t-1 49q0 54 20 73t90 19h39q13 0 41 1t43 1q54 0 72 -13t18 -48v-74v-938q0 -65 -14.5 -81.5t-61.5 -16.5q-19 0 -48.5 1t-39.5 1q-30 0 -63 -1t-37 -1q-33 0 -45 16t-12 76v41zM-17 1443q-4 3 -6.5 7t-2.5 8q0 7 6 11.5t16 5.5h234q19 0 35.5 -7
t21.5 -16l99 -172l3 -7.5l1 -2.5q-1 -9 -6 -13.5t-15 -5.5h-145q-18 0 -30.5 4.5t-20.5 12.5z" />
    <glyph glyph-name="iacute" unicode="&#xed;" horiz-adv-x="469" 
d="M70 131v852q0 12 -1 43t-1 49q0 54 20 73t90 19h39q13 0 41 1t43 1q54 0 72 -13t18 -48v-74v-938q0 -65 -14.5 -81.5t-61.5 -16.5q-19 0 -48.5 1t-39.5 1q-30 0 -63 -1t-37 -1q-33 0 -45 16t-12 76v41zM101 1251q-10 1 -15 5.5t-6 13.5l1 2.5l3 7.5l99 172q5 9 21.5 16
t35.5 7h234q10 -1 16 -5.5t6 -11.5q0 -4 -2.5 -8t-6.5 -7l-188 -175q-9 -8 -23 -12.5t-30 -4.5h-145z" />
    <glyph glyph-name="icircumflex" unicode="&#xee;" horiz-adv-x="469" 
d="M70 131v852q0 12 -1 43t-1 49q0 54 20 73t90 19h39q13 0 41 1t43 1q54 0 72 -13t18 -48v-74v-938q0 -65 -14.5 -81.5t-61.5 -16.5q-19 0 -48.5 1t-39.5 1q-30 0 -63 -1t-37 -1q-33 0 -45 16t-12 76v41zM111 1452q9 12 21 17.5t30 5.5h150q16 0 28.5 -6t22.5 -17l139 -172
q2 -2 3 -4.5t1 -5.5q0 -9 -5 -14t-13 -5h-135q-15 0 -29 5t-20 12l-54 57q-4 4 -7.5 6t-6.5 2t-6.5 -2t-7.5 -6l-58 -57q-6 -7 -20 -12t-29 -5h-135q-9 0 -13.5 5t-4.5 14q0 4 0.5 6t3.5 4z" />
    <glyph glyph-name="idieresis" unicode="&#xef;" horiz-adv-x="469" 
d="M70 131v852q0 12 -1 43t-1 49q0 54 20 73t90 19h39q13 0 41 1t43 1q54 0 72 -13t18 -48v-74v-938q0 -65 -14.5 -81.5t-61.5 -16.5q-19 0 -48.5 1t-39.5 1q-30 0 -63 -1t-37 -1q-33 0 -45 16t-12 76v41zM519 1296q0 -19 -11.5 -26.5t-42.5 -7.5h-127q-27 0 -37 8.5
t-10 29.5v127q0 21 12 29t42 8h124q29 0 39.5 -9t10.5 -32v-127zM181 1296q0 -19 -11.5 -26.5t-42.5 -7.5h-124q-29 0 -39.5 8.5t-10.5 29.5v127q0 21 12 29t42 8h125q28 0 38.5 -9t10.5 -32v-127z" />
    <glyph glyph-name="eth" unicode="&#xf0;" horiz-adv-x="848" 
d="M365 393q0 -46 14 -70t41 -24q34 0 48.5 24t14.5 80v340q0 78 -14 107t-47 29q-30 0 -43.5 -24t-13.5 -77v-385zM440 1166q-10 31 -25 61t-32 55l-117 -27q-12 -3 -19 -4.5t-11 -1.5q-12 0 -18.5 6t-10.5 19l-23 69q0 2 -1 5t-1 4q0 10 13 18t41 14l71 17
q-14 24 -34.5 49t-20.5 29q0 26 43.5 38.5t132.5 12.5q60 0 88.5 -15.5t52.5 -56.5l82 19q2 0 7 1q18 3 24 3q10 0 17.5 -6t11.5 -19l22 -74q0 -1 1 -3t1 -3q0 -10 -11.5 -17.5t-41.5 -15.5l-45 -12q89 -151 129.5 -320.5t40.5 -404.5q0 -198 -11 -291t-36 -143
q-50 -97 -134 -143.5t-210 -46.5q-206 0 -290.5 134.5t-84.5 485.5q0 184 15.5 280.5t52.5 149.5q46 69 114 103t156 34q11 0 24.5 -0.5t36.5 -2.5z" />
    <glyph glyph-name="ntilde" unicode="&#xf1;" horiz-adv-x="924" 
d="M670 0q-80 0 -103.5 19.5t-23.5 95.5v536q0 143 -16.5 180t-57.5 37q-44 0 -66 -37.5t-22 -113.5v-443q0 -33 5 -94.5t5 -89.5q0 -53 -17 -71.5t-87 -18.5h-137q-46 0 -61 21t-15 90v825q0 8 -2 48.5t-2 72.5q0 81 23.5 102t105.5 21h116q46 0 60 -14t14 -58v-14l10 -2
q40 52 89 77t112 25q129 0 188.5 -95.5t59.5 -303.5v-631q0 -107 -21.5 -135.5t-78.5 -28.5h-78zM737 1464q14 0 20.5 -9t6.5 -28q0 -68 -54 -116.5t-134 -48.5q-53 0 -127.5 31.5t-98.5 31.5q-39 0 -53 -34t-31 -34h-86q-8 0 -13 6.5t-5 16.5q0 85 51 134.5t137 49.5
q53 0 127.5 -31.5t98.5 -31.5q39 0 52 31.5t28 31.5h81z" />
    <glyph glyph-name="ograve" unicode="&#xf2;" horiz-adv-x="848" 
d="M352 393q0 -46 17 -70t51 -24q42 0 60 24t18 80v340q0 83 -17.5 108.5t-62.5 25.5q-34 0 -50 -24t-16 -75v-385zM57 594q0 215 15.5 308.5t52.5 146.5q52 77 123 111t182 34q196 0 278.5 -122t82.5 -423q0 -242 -10.5 -334t-35.5 -143q-48 -98 -128 -144t-201 -46
q-196 0 -277.5 133.5t-81.5 478.5zM171 1443q-4 3 -6.5 7t-2.5 8q0 7 6 11.5t16 5.5h234q19 0 35.5 -7t21.5 -16l99 -172l3 -7.5l1 -2.5q-1 -9 -6 -13.5t-15 -5.5h-145q-18 0 -30.5 4.5t-20.5 12.5z" />
    <glyph glyph-name="oacute" unicode="&#xf3;" horiz-adv-x="848" 
d="M352 393q0 -46 17 -70t51 -24q42 0 60 24t18 80v340q0 83 -17.5 108.5t-62.5 25.5q-34 0 -50 -24t-16 -75v-385zM57 594q0 215 15.5 308.5t52.5 146.5q52 77 123 111t182 34q196 0 278.5 -122t82.5 -423q0 -242 -10.5 -334t-35.5 -143q-48 -98 -128 -144t-201 -46
q-196 0 -277.5 133.5t-81.5 478.5zM289 1251q-10 1 -15 5.5t-6 13.5l1 2.5l3 7.5l99 172q5 9 21.5 16t35.5 7h234q10 -1 16 -5.5t6 -11.5q0 -4 -2.5 -8t-6.5 -7l-188 -175q-9 -8 -23 -12.5t-30 -4.5h-145z" />
    <glyph glyph-name="ocircumflex" unicode="&#xf4;" horiz-adv-x="848" 
d="M352 393q0 -46 17 -70t51 -24q42 0 60 24t18 80v340q0 83 -17.5 108.5t-62.5 25.5q-34 0 -50 -24t-16 -75v-385zM57 594q0 215 15.5 308.5t52.5 146.5q52 77 123 111t182 34q196 0 278.5 -122t82.5 -423q0 -242 -10.5 -334t-35.5 -143q-48 -98 -128 -144t-201 -46
q-196 0 -277.5 133.5t-81.5 478.5zM299 1452q9 12 21 17.5t30 5.5h150q16 0 28.5 -6t22.5 -17l139 -172q2 -2 3 -4.5t1 -5.5q0 -9 -5 -14t-13 -5h-135q-15 0 -29 5t-20 12l-54 57q-4 4 -7.5 6t-6.5 2t-6.5 -2t-7.5 -6l-58 -57q-6 -7 -20 -12t-29 -5h-135q-9 0 -13.5 5
t-4.5 14q0 4 0.5 6t3.5 4z" />
    <glyph glyph-name="otilde" unicode="&#xf5;" horiz-adv-x="848" 
d="M352 393q0 -46 17 -70t51 -24q42 0 60 24t18 80v340q0 83 -17.5 108.5t-62.5 25.5q-34 0 -50 -24t-16 -75v-385zM57 594q0 215 15.5 308.5t52.5 146.5q52 77 123 111t182 34q196 0 278.5 -122t82.5 -423q0 -242 -10.5 -334t-35.5 -143q-48 -98 -128 -144t-201 -46
q-196 0 -277.5 133.5t-81.5 478.5zM698 1464q14 0 20.5 -9t6.5 -28q0 -68 -54 -116.5t-134 -48.5q-53 0 -127.5 31.5t-98.5 31.5q-39 0 -53 -34t-31 -34h-86q-8 0 -13 6.5t-5 16.5q0 85 51 134.5t137 49.5q53 0 127.5 -31.5t98.5 -31.5q39 0 52 31.5t28 31.5h81z" />
    <glyph glyph-name="odieresis" unicode="&#xf6;" horiz-adv-x="848" 
d="M352 393q0 -46 17 -70t51 -24q42 0 60 24t18 80v340q0 83 -17.5 108.5t-62.5 25.5q-34 0 -50 -24t-16 -75v-385zM57 594q0 215 15.5 308.5t52.5 146.5q52 77 123 111t182 34q196 0 278.5 -122t82.5 -423q0 -242 -10.5 -334t-35.5 -143q-48 -98 -128 -144t-201 -46
q-196 0 -277.5 133.5t-81.5 478.5zM707 1296q0 -19 -11.5 -26.5t-42.5 -7.5h-127q-27 0 -37 8.5t-10 29.5v127q0 21 12 29t42 8h124q29 0 39.5 -9t10.5 -32v-127zM369 1296q0 -19 -11.5 -26.5t-42.5 -7.5h-124q-29 0 -39.5 8.5t-10.5 29.5v127q0 21 12 29t42 8h125
q28 0 38.5 -9t10.5 -32v-127z" />
    <glyph glyph-name="divide" unicode="&#xf7;" horiz-adv-x="1706" 
d="M854 369q62 0 107 -45t45 -107q0 -61 -45 -105t-107 -44q-63 0 -107.5 43t-44.5 106t44.5 107.5t107.5 44.5zM254 711h1198v-199h-1198v199zM854 1155q62 0 107 -44.5t45 -106.5q0 -63 -44.5 -107.5t-107.5 -44.5t-107.5 44.5t-44.5 107.5t44.5 107t107.5 44z" />
    <glyph glyph-name="oslash" unicode="&#xf8;" horiz-adv-x="848" 
d="M662 1120l49 87q3 6 12 11t18 5q25 0 54.5 -21.5t29.5 -44.5q0 -9 -4 -20.5t-12 -26.5l-61 -102q22 -66 32.5 -150.5t10.5 -208.5q0 -242 -10.5 -334t-35.5 -143q-45 -95 -125 -143.5t-190 -48.5q-76 0 -136 19.5t-104 57.5l-55 -92q-3 -5 -14.5 -10.5t-20.5 -5.5
q-25 0 -53.5 22.5t-28.5 51.5q0 7 3 14.5t14 23.5l71 115q-25 56 -37 158.5t-12 259.5q0 215 15.5 308.5t52.5 146.5q53 77 124 111t179 34q80 0 135.5 -17.5t98.5 -56.5zM352 393q0 -46 17 -70t51 -24q42 0 60 24t18 80v340q0 83 -17.5 108.5t-62.5 25.5q-34 0 -50 -24
t-16 -75v-385z" />
    <glyph glyph-name="ugrave" unicode="&#xf9;" horiz-adv-x="924" 
d="M244 1176q80 0 103.5 -19.5t23.5 -93.5v-539q0 -142 16 -179.5t57 -37.5q44 0 66 38.5t22 113.5v442q0 32 -5 93.5t-5 90.5q0 53 17.5 72t87.5 19h137q46 0 61 -20.5t15 -88.5v-827q0 -10 2 -50t2 -71q0 -81 -24 -102t-105 -21h-117q-45 0 -59.5 14t-14.5 58v14l-10 2
q-39 -52 -88 -76t-113 -24q-128 0 -187.5 95t-59.5 302v631q0 107 21 135.5t79 28.5h78zM210 1443q-4 3 -6.5 7t-2.5 8q0 7 6 11.5t16 5.5h234q19 0 35.5 -7t21.5 -16l99 -172l3 -7.5l1 -2.5q-1 -9 -6 -13.5t-15 -5.5h-145q-18 0 -30.5 4.5t-20.5 12.5z" />
    <glyph glyph-name="uacute" unicode="&#xfa;" horiz-adv-x="924" 
d="M244 1176q80 0 103.5 -19.5t23.5 -93.5v-539q0 -142 16 -179.5t57 -37.5q44 0 66 38.5t22 113.5v442q0 32 -5 93.5t-5 90.5q0 53 17.5 72t87.5 19h137q46 0 61 -20.5t15 -88.5v-827q0 -10 2 -50t2 -71q0 -81 -24 -102t-105 -21h-117q-45 0 -59.5 14t-14.5 58v14l-10 2
q-39 -52 -88 -76t-113 -24q-128 0 -187.5 95t-59.5 302v631q0 107 21 135.5t79 28.5h78zM328 1251q-10 1 -15 5.5t-6 13.5l1 2.5l3 7.5l99 172q5 9 21.5 16t35.5 7h234q10 -1 16 -5.5t6 -11.5q0 -4 -2.5 -8t-6.5 -7l-188 -175q-9 -8 -23 -12.5t-30 -4.5h-145z" />
    <glyph glyph-name="ucircumflex" unicode="&#xfb;" horiz-adv-x="924" 
d="M244 1176q80 0 103.5 -19.5t23.5 -93.5v-539q0 -142 16 -179.5t57 -37.5q44 0 66 38.5t22 113.5v442q0 32 -5 93.5t-5 90.5q0 53 17.5 72t87.5 19h137q46 0 61 -20.5t15 -88.5v-827q0 -10 2 -50t2 -71q0 -81 -24 -102t-105 -21h-117q-45 0 -59.5 14t-14.5 58v14l-10 2
q-39 -52 -88 -76t-113 -24q-128 0 -187.5 95t-59.5 302v631q0 107 21 135.5t79 28.5h78zM338 1452q9 12 21 17.5t30 5.5h150q16 0 28.5 -6t22.5 -17l139 -172q2 -2 3 -4.5t1 -5.5q0 -9 -5 -14t-13 -5h-135q-15 0 -29 5t-20 12l-54 57q-4 4 -7.5 6t-6.5 2t-6.5 -2t-7.5 -6
l-58 -57q-6 -7 -20 -12t-29 -5h-135q-9 0 -13.5 5t-4.5 14q0 4 0.5 6t3.5 4z" />
    <glyph glyph-name="udieresis" unicode="&#xfc;" horiz-adv-x="924" 
d="M244 1176q80 0 103.5 -19.5t23.5 -93.5v-539q0 -142 16 -179.5t57 -37.5q44 0 66 38.5t22 113.5v442q0 32 -5 93.5t-5 90.5q0 53 17.5 72t87.5 19h137q46 0 61 -20.5t15 -88.5v-827q0 -10 2 -50t2 -71q0 -81 -24 -102t-105 -21h-117q-45 0 -59.5 14t-14.5 58v14l-10 2
q-39 -52 -88 -76t-113 -24q-128 0 -187.5 95t-59.5 302v631q0 107 21 135.5t79 28.5h78zM746 1296q0 -19 -11.5 -26.5t-42.5 -7.5h-127q-27 0 -37 8.5t-10 29.5v127q0 21 12 29t42 8h124q29 0 39.5 -9t10.5 -32v-127zM408 1296q0 -19 -11.5 -26.5t-42.5 -7.5h-124
q-29 0 -39.5 8.5t-10.5 29.5v127q0 21 12 29t42 8h125q28 0 38.5 -9t10.5 -32v-127z" />
    <glyph glyph-name="yacute" unicode="&#xfd;" horiz-adv-x="786" 
d="M45 76q0 39 12 57.5t37 18.5q18 0 35 -9.5t23 -9.5q22 0 31.5 7t9.5 24q0 10 -2 24.5t-5 29.5l-170 854q-1 7 -4.5 23.5t-3.5 20.5q0 27 19.5 43.5t52.5 16.5h176q51 0 59 -84v0l68 -732h37l57 758q3 33 18 45.5t54 12.5h149q41 0 61.5 -16t20.5 -48q0 -9 -2 -23t-6 -30
l-205 -965q-33 -151 -103 -215.5t-202 -64.5q-115 0 -166 20t-51 66v176zM258 1251q-10 1 -15 5.5t-6 13.5l1 2.5l3 7.5l99 172q5 9 21.5 16t35.5 7h234q10 -1 16 -5.5t6 -11.5q0 -4 -2.5 -8t-6.5 -7l-188 -175q-9 -8 -23 -12.5t-30 -4.5h-145z" />
    <glyph glyph-name="thorn" unicode="&#xfe;" horiz-adv-x="862" 
d="M78 -84v1458q0 3 -1 18.5t-1 28.5q0 46 18 60t72 14h123q47 0 61.5 -18.5t14.5 -81.5v-293q43 45 84.5 64.5t93.5 19.5q137 0 199.5 -142t62.5 -462q0 -308 -66.5 -450t-210.5 -142q-45 0 -83.5 13.5t-67.5 39.5v-119q0 -72 -16.5 -88t-69.5 -16h-129q-61 0 -72.5 12
t-11.5 84zM365 455q0 -99 16 -127.5t59 -28.5q40 0 55 26.5t15 108.5v291q0 96 -15.5 126t-56.5 30q-36 0 -54.5 -30.5t-18.5 -90.5v-305z" />
    <glyph glyph-name="ydieresis" unicode="&#xff;" horiz-adv-x="786" 
d="M45 76q0 39 12 57.5t37 18.5q18 0 35 -9.5t23 -9.5q22 0 31.5 7t9.5 24q0 10 -2 24.5t-5 29.5l-170 854q-1 7 -4.5 23.5t-3.5 20.5q0 27 19.5 43.5t52.5 16.5h176q51 0 59 -84v0l68 -732h37l57 758q3 33 18 45.5t54 12.5h149q41 0 61.5 -16t20.5 -48q0 -9 -2 -23t-6 -30
l-205 -965q-33 -151 -103 -215.5t-202 -64.5q-115 0 -166 20t-51 66v176zM676 1296q0 -19 -11.5 -26.5t-42.5 -7.5h-127q-27 0 -37 8.5t-10 29.5v127q0 21 12 29t42 8h124q29 0 39.5 -9t10.5 -32v-127zM338 1296q0 -19 -11.5 -26.5t-42.5 -7.5h-124q-29 0 -39.5 8.5
t-10.5 29.5v127q0 21 12 29t42 8h125q28 0 38.5 -9t10.5 -32v-127z" />
    <glyph glyph-name="Cacute" unicode="&#x106;" horiz-adv-x="725" 
d="M43 760q0 415 112.5 565t409.5 150q67 0 91 -23.5t24 -85.5q0 -7 -1 -36.5t-1 -51.5q0 -9 2 -34.5t2 -41.5q0 -35 -9 -54t-32 -32q-7 -3 -17.5 -4.5t-35.5 -1.5q-29 0 -44 -2t-28 -6q-65 -21 -89 -87.5t-24 -281.5q0 -246 30.5 -317.5t109.5 -71.5q18 0 45.5 2t36.5 2
q28 0 43.5 -21.5t15.5 -62.5q0 -74 4 -145v-15q0 -62 -31 -86t-112 -24q-161 0 -243.5 36.5t-143.5 125.5t-88 225t-27 379zM256 1556q-10 1 -15 5.5t-6 13.5l1 2.5l3 7.5l99 172q5 9 21.5 16t35.5 7h234q10 -1 16 -5.5t6 -11.5q0 -4 -2.5 -8t-6.5 -7l-188 -175
q-9 -8 -23 -12.5t-30 -4.5h-145z" />
    <glyph glyph-name="cacute" unicode="&#x107;" horiz-adv-x="584" 
d="M528 1112v-168q0 -72 -67 -80q-8 -1 -13 -2q-51 -7 -69.5 -52t-18.5 -214q0 -155 19 -200.5t70 -45.5h22q34 0 45.5 -14t11.5 -57v-213q0 -39 -22 -57.5t-68 -18.5q-217 0 -302 124t-85 453q0 366 84 496.5t303 130.5q51 0 70.5 -18t19.5 -64zM201 1251q-10 1 -15 5.5
t-6 13.5l1 2.5l3 7.5l99 172q5 9 21.5 16t35.5 7h234q10 -1 16 -5.5t6 -11.5q0 -4 -2.5 -8t-6.5 -7l-188 -175q-9 -8 -23 -12.5t-30 -4.5h-145z" />
    <glyph glyph-name="Ccaron" unicode="&#x10c;" horiz-adv-x="725" 
d="M43 760q0 415 112.5 565t409.5 150q67 0 91 -23.5t24 -85.5q0 -7 -1 -36.5t-1 -51.5q0 -9 2 -34.5t2 -41.5q0 -35 -9 -54t-32 -32q-7 -3 -17.5 -4.5t-35.5 -1.5q-29 0 -44 -2t-28 -6q-65 -21 -89 -87.5t-24 -281.5q0 -246 30.5 -317.5t109.5 -71.5q18 0 45.5 2t36.5 2
q28 0 43.5 -21.5t15.5 -62.5q0 -74 4 -145v-15q0 -62 -31 -86t-112 -24q-161 0 -243.5 36.5t-143.5 125.5t-88 225t-27 379zM266 1577l-145 172q-2 2 -3 4.5t-1 5.5q0 8 5.5 14.5t12.5 6.5h135q16 -1 29 -5.5t20 -11.5l58 -59q2 -3 6 -4.5t8 -1.5q5 0 8.5 1.5t5.5 4.5l54 59
q6 7 19.5 11.5t29.5 5.5h135q7 0 12.5 -6.5t5.5 -14.5q0 -3 -1 -5.5t-3 -4.5l-139 -172q-8 -11 -20 -16t-31 -5h-150q-18 0 -29.5 5t-21.5 16z" />
    <glyph glyph-name="ccaron" unicode="&#x10d;" horiz-adv-x="584" 
d="M528 1112v-168q0 -72 -67 -80q-8 -1 -13 -2q-51 -7 -69.5 -52t-18.5 -214q0 -155 19 -200.5t70 -45.5h22q34 0 45.5 -14t11.5 -57v-213q0 -39 -22 -57.5t-68 -18.5q-217 0 -302 124t-85 453q0 366 84 496.5t303 130.5q51 0 70.5 -18t19.5 -64zM211 1272l-145 172
q-2 2 -3 4.5t-1 5.5q0 8 5.5 14.5t12.5 6.5h135q16 -1 29 -5.5t20 -11.5l58 -59q2 -3 6 -4.5t8 -1.5q5 0 8.5 1.5t5.5 4.5l54 59q6 7 19.5 11.5t29.5 5.5h135q7 0 12.5 -6.5t5.5 -14.5q0 -3 -1 -5.5t-3 -4.5l-139 -172q-8 -11 -20 -16t-31 -5h-150q-18 0 -29.5 5t-21.5 16z
" />
    <glyph glyph-name="dcroat" unicode="&#x111;" horiz-adv-x="877" 
d="M575 1487h168q25 0 35 -15t10 -55v-35h64q15 0 21 -5.5t6 -18.5v-84q0 -10 -7.5 -18.5t-15.5 -8.5h-68v-1040q0 -25 2.5 -67t2.5 -60q0 -46 -20.5 -63t-74.5 -17h-120q-45 0 -58.5 12t-19.5 62q-44 -46 -85 -65t-93 -19q-137 0 -199 141t-62 459q0 293 68 434t209 141
q44 0 81 -13t68 -40v135h-92q-8 0 -15 8.5t-7 18.5v84q0 13 6.5 18.5t21.5 5.5h86v23q0 50 17.5 66t70.5 16zM356 717v-262q0 -97 16 -126.5t56 -29.5q37 0 55.5 30.5t18.5 92.5v326q0 52 -18.5 78t-55.5 26q-39 0 -55.5 -24t-16.5 -83v-28z" />
    <glyph glyph-name="Gbreve" unicode="&#x11e;" horiz-adv-x="948" 
d="M885 156q0 -58 -6.5 -80.5t-22.5 -34.5q-42 -32 -110.5 -49t-155.5 -17q-257 0 -407 194t-150 527q0 359 159.5 569t430.5 210q141 0 193 -32.5t52 -117.5q0 -142 -16 -177.5t-59 -35.5q-11 0 -56 11.5t-80 11.5q-140 0 -208 -94.5t-68 -288.5q0 -217 38 -316.5
t120 -99.5q34 0 48.5 24t14.5 89v114q0 16 -13 29.5t-37 22.5q-32 13 -46 39t-14 75q0 146 23 181.5t118 35.5h119q76 0 104.5 -31t28.5 -114v-43v-602zM250 1780h102q10 0 16.5 -6.5t12.5 -24.5q12 -35 34 -49.5t64 -14.5q56 0 84 61q4 8 6 13q3 7 13.5 14t17.5 7h104
q10 0 15.5 -10t5.5 -27q0 -88 -67.5 -139.5t-184.5 -51.5q-115 0 -183.5 51.5t-68.5 135.5q0 23 6.5 32t22.5 9z" />
    <glyph glyph-name="gbreve" unicode="&#x11f;" horiz-adv-x="844" 
d="M768 240v-50q0 -114 -18 -165t-60 -86q-63 -52 -147 -80.5t-176 -28.5q-167 0 -207.5 26.5t-40.5 157.5q0 50 17 79.5t46 29.5q11 0 63 -22.5t97 -22.5q74 0 105.5 28.5t31.5 96.5q0 17 -0.5 27t-1.5 17q-36 -29 -74.5 -44t-80.5 -15q-125 0 -196 130t-71 362
q0 255 71.5 384.5t211.5 129.5q36 0 69 -17.5t72 -58.5v19q0 24 8.5 35.5t26.5 11.5q2 0 13 -1q35 -1 69 -1q38 0 76 1t39 1q36 0 46.5 -16t10.5 -91v-18v-819zM414 887q-44 0 -61 -41t-17 -160q0 -126 18.5 -170.5t65.5 -44.5q38 0 52.5 28t14.5 124q0 30 -2 87t-2 85
q0 44 -18 68t-51 24zM199 1475h102q10 0 16.5 -6.5t12.5 -24.5q12 -35 34 -49.5t64 -14.5q56 0 84 61q4 8 6 13q3 7 13.5 14t17.5 7h104q10 0 15.5 -10t5.5 -27q0 -88 -67.5 -139.5t-184.5 -51.5q-115 0 -183.5 51.5t-68.5 135.5q0 23 6.5 32t22.5 9z" />
    <glyph glyph-name="Idotaccent" unicode="&#x130;" horiz-adv-x="465" 
d="M279 1475q47 -1 67.5 -5.5t32.5 -15.5q11 -11 15.5 -38t4.5 -97v-123q0 -223 -3 -506.5t-3 -343.5q0 -29 2 -103.5t2 -121.5q0 -73 -21.5 -97t-109.5 -24h-71q-90 0 -112 21t-22 114q0 18 2 108q7 465 7 922q0 98 -4 197v20q0 57 18.5 75t99.5 18h95zM356 1601
q0 -19 -12 -26.5t-45 -7.5h-142q-31 0 -42 8.5t-11 29.5v127q0 21 13 29t46 8h140q30 0 41.5 -9t11.5 -32v-127z" />
    <glyph glyph-name="dotlessi" unicode="&#x131;" horiz-adv-x="469" 
d="M70 131v852q0 12 -1 43t-1 49q0 54 20 73t90 19h39q13 0 41 1t43 1q54 0 72 -13t18 -48v-74v-938q0 -65 -14.5 -81.5t-61.5 -16.5q-19 0 -48.5 1t-39.5 1q-30 0 -63 -1t-37 -1q-33 0 -45 16t-12 76v41z" />
    <glyph glyph-name="Lslash" unicode="&#x141;" horiz-adv-x="729" 
d="M240 0q-7 0 -24 -2t-28 -2q-45 0 -62 31t-17 157q0 4 1 126t1 241l-62 -39q-6 -4 -8.5 -5t-5.5 -1q-8 0 -12.5 7t-4.5 19v197q0 14 6.5 27t14.5 18l72 41q2 40 3 85.5t1 131.5q0 55 -3 158.5t-3 152.5q0 81 14.5 106.5t54.5 25.5q2 0 13 -1q41 -1 79 -1q24 0 58.5 2
t44.5 2q25 0 37.5 -5.5t17.5 -17.5q5 -13 7.5 -38.5t2.5 -72.5q0 -21 -1 -89.5t-1 -114.5q0 -48 0.5 -73.5t1.5 -49.5l96 57q3 2 6.5 3t10.5 1q10 0 15 -6.5t5 -17.5v-193q0 -12 -5.5 -22.5t-16.5 -16.5l-111 -63v-64v-178q0 -113 18 -145.5t66 -32.5q10 0 37 3t43 3
q53 0 72.5 -25.5t19.5 -99.5v-108q0 -57 -28 -85t-86 -28q-20 0 -49 1t-37 1h-254z" />
    <glyph glyph-name="lslash" unicode="&#x142;" horiz-adv-x="512" 
d="M96 1309q0 11 -1 40t-1 48q0 57 22 77.5t91 20.5h5q18 -2 34 -2q5 0 38 1t60 1q36 0 51 -15t15 -50q0 -4 -1 -27t-1 -43v-354l67 47q1 1 2.5 1.5t3.5 0.5q8 0 14.5 -5.5t6.5 -13.5l2 -209q0 -6 -8 -16.5t-14 -13.5l-74 -39v-664q0 -64 -14.5 -80t-59.5 -16q-11 0 -40 2
t-46 2q-23 0 -54 -2t-38 -2q-35 0 -47.5 19.5t-12.5 97.5v16v442l-76 -53q-1 -1 -2.5 -1.5t-5.5 -0.5q-5 0 -8.5 7t-3.5 20v196q0 11 4.5 20t11.5 13l80 47v488z" />
    <glyph glyph-name="OE" unicode="&#x152;" horiz-adv-x="1290" 
d="M401 477q0 -103 16.5 -131.5t61.5 -28.5q38 0 53 24.5t15 92.5v578q0 87 -18 126.5t-58 39.5q-39 0 -54.5 -31t-15.5 -125v-545zM57 449v555q0 168 25 249.5t84 132.5q61 53 136 80t163 27q36 0 114.5 -7t120.5 -7q16 0 42 1t36 1h344q49 0 66.5 -21t17.5 -76v-131
q0 -59 -24.5 -80.5t-98.5 -21.5h-155q-31 0 -42.5 -18t-11.5 -95q0 -59 11.5 -78.5t42.5 -19.5h10l164 12h18q47 0 66.5 -23t19.5 -79v-143q0 -44 -21 -67.5t-61 -23.5q-3 0 -17 1q-69 4 -134 4q-37 0 -58.5 -15t-21.5 -39v-137q0 -42 17 -60t57 -18q12 0 32 1t27 1h160
q32 0 46.5 -25t14.5 -83v-160q0 -49 -27 -67.5t-112 -18.5h-389q-10 0 -24.5 1t-18.5 1q-26 0 -104 -13.5t-132 -13.5q-192 0 -287.5 118.5t-95.5 355.5z" />
    <glyph glyph-name="oe" unicode="&#x153;" horiz-adv-x="1266" 
d="M819 709h64q29 0 39 11t10 54q0 83 -20 115.5t-68 32.5q-36 0 -52 -27t-16 -88q0 -62 9 -80t34 -18zM651 1139q45 27 95.5 40t109.5 13q104 0 181.5 -44.5t127.5 -133.5q28 -50 40 -128.5t12 -252.5q0 -100 -17 -132t-59 -32h-330q-10 0 -21.5 -9t-11.5 -18
q0 -78 43 -113.5t137 -35.5q51 0 105.5 26.5t64.5 26.5q34 0 53 -20t19 -56v-157q0 -24 -5.5 -41.5t-14.5 -24.5q-37 -27 -113 -46t-158 -19q-72 0 -134 17.5t-113 53.5q-51 -37 -109.5 -54t-136.5 -17q-196 0 -277.5 133.5t-81.5 478.5q0 160 9 255.5t28 139.5
q40 97 121.5 150t192.5 53q84 0 140 -12.5t103 -40.5zM352 393q0 -46 17 -70t51 -24q42 0 60 24t18 80v340q0 83 -17.5 108.5t-62.5 25.5q-34 0 -50 -24t-16 -75v-385z" />
    <glyph glyph-name="Scedilla" unicode="&#x15e;" horiz-adv-x="887" 
d="M68 119l-2 155v9q0 56 21 80t71 24q9 0 64.5 -25.5t117.5 -25.5q55 0 79.5 21.5t24.5 68.5q0 69 -125 176q-52 45 -79 72q-91 88 -131.5 179.5t-40.5 209.5q0 207 115 311.5t345 104.5q142 0 176.5 -19t34.5 -112v-150q0 -64 -13.5 -82t-57.5 -18q-26 0 -75 13t-75 13
q-46 0 -70 -21t-24 -61q0 -54 135 -179l107 -101q76 -76 108.5 -154t32.5 -188q0 -228 -106 -336.5t-330 -108.5q-84 0 -155 11.5t-109 29.5q-22 11 -30.5 28t-8.5 60v15zM499 0q-1 -7 -1.5 -13.5t-0.5 -17.5q1 -34 65 -37q32 -2 52 -4q58 -6 94.5 -44.5t36.5 -94.5
q0 -82 -71 -120t-228 -38q-156 0 -203 20t-47 77q0 19 8.5 29t24.5 10q6 0 80 -14.5t143 -14.5q40 0 58 10.5t18 34.5t-17 36.5t-51 12.5h-12q-45 0 -56 10t-11 37l2 121h116z" />
    <glyph glyph-name="scedilla" unicode="&#x15f;" horiz-adv-x="682" 
d="M49 76l-4 133v31q0 51 12 70.5t41 19.5q8 0 48.5 -11.5t74.5 -11.5q51 0 72.5 17.5t21.5 56.5q0 51 -82 121q-25 22 -38 35q-76 71 -112 148.5t-36 170.5q0 153 91 246.5t237 93.5q145 0 179.5 -21t35.5 -82l2 -118q0 -43 -16.5 -64.5t-49.5 -21.5q-10 0 -37 5t-45 5
q-33 0 -53 -18.5t-20 -49.5q0 -33 78 -114q39 -41 61 -66q66 -73 96.5 -146.5t30.5 -156.5q0 -175 -96.5 -271.5t-270.5 -96.5q-114 0 -167.5 19.5t-53.5 61.5v15zM399 0q-1 -7 -1.5 -13.5t-0.5 -17.5q1 -34 65 -37q32 -2 52 -4q58 -6 94.5 -44.5t36.5 -94.5q0 -82 -71 -120
t-228 -38q-156 0 -203 20t-47 77q0 19 8.5 29t24.5 10q6 0 80 -14.5t143 -14.5q40 0 58 10.5t18 34.5t-17 36.5t-51 12.5h-12q-45 0 -56 10t-11 37l2 121h116z" />
    <glyph glyph-name="Scaron" unicode="&#x160;" horiz-adv-x="887" 
d="M68 119l-2 155v9q0 56 21 80t71 24q9 0 64.5 -25.5t117.5 -25.5q55 0 79.5 21.5t24.5 68.5q0 69 -125 176q-52 45 -79 72q-91 88 -131.5 179.5t-40.5 209.5q0 207 115 311.5t345 104.5q142 0 176.5 -19t34.5 -112v-150q0 -64 -13.5 -82t-57.5 -18q-26 0 -75 13t-75 13
q-46 0 -70 -21t-24 -61q0 -54 135 -179l107 -101q76 -76 108.5 -154t32.5 -188q0 -228 -106 -336.5t-330 -108.5q-84 0 -155 11.5t-109 29.5q-22 11 -30.5 28t-8.5 60v15zM317 1577l-145 172q-2 2 -3 4.5t-1 5.5q0 8 5.5 14.5t12.5 6.5h135q16 -1 29 -5.5t20 -11.5l58 -59
q2 -3 6 -4.5t8 -1.5q5 0 8.5 1.5t5.5 4.5l54 59q6 7 19.5 11.5t29.5 5.5h135q7 0 12.5 -6.5t5.5 -14.5q0 -3 -1 -5.5t-3 -4.5l-139 -172q-8 -11 -20 -16t-31 -5h-150q-18 0 -29.5 5t-21.5 16z" />
    <glyph glyph-name="scaron" unicode="&#x161;" horiz-adv-x="682" 
d="M49 76l-4 133v31q0 51 12 70.5t41 19.5q8 0 48.5 -11.5t74.5 -11.5q51 0 72.5 17.5t21.5 56.5q0 51 -82 121q-25 22 -38 35q-76 71 -112 148.5t-36 170.5q0 153 91 246.5t237 93.5q145 0 179.5 -21t35.5 -82l2 -118q0 -43 -16.5 -64.5t-49.5 -21.5q-10 0 -37 5t-45 5
q-33 0 -53 -18.5t-20 -49.5q0 -33 78 -114q39 -41 61 -66q66 -73 96.5 -146.5t30.5 -156.5q0 -175 -96.5 -271.5t-270.5 -96.5q-114 0 -167.5 19.5t-53.5 61.5v15zM217 1272l-145 172q-2 2 -3 4.5t-1 5.5q0 8 5.5 14.5t12.5 6.5h135q16 -1 29 -5.5t20 -11.5l58 -59
q2 -3 6 -4.5t8 -1.5q5 0 8.5 1.5t5.5 4.5l54 59q6 7 19.5 11.5t29.5 5.5h135q7 0 12.5 -6.5t5.5 -14.5q0 -3 -1 -5.5t-3 -4.5l-139 -172q-8 -11 -20 -16t-31 -5h-150q-18 0 -29.5 5t-21.5 16z" />
    <glyph glyph-name="Ydieresis" unicode="&#x178;" horiz-adv-x="891" 
d="M373 1392l73 -468h17l65 415q10 66 21 91.5t31 31.5q18 6 73.5 9.5t147.5 3.5q50 0 74 -13.5t24 -40.5q0 -9 -5 -29.5t-13 -47.5l-226 -685q-1 -5 -6 -18q-33 -86 -33 -190v-13l5 -282q0 -21 2 -50.5t2 -37.5q0 -38 -19 -53t-69 -15q-22 0 -52 1t-36 1q-36 0 -74 -2
t-39 -2q-30 0 -42.5 13t-12.5 44v24q4 137 4 286v157q0 46 -26 122l-3 9l-233 688q-9 26 -13 44.5t-4 31.5q0 31 19.5 44.5t62.5 13.5q5 0 34 -2.5t54 -2.5q8 0 46 1.5t69 1.5q37 0 55.5 -17.5t26.5 -63.5zM727 1601q0 -19 -11.5 -26.5t-42.5 -7.5h-127q-27 0 -37 8.5
t-10 29.5v127q0 21 12 29t42 8h124q29 0 39.5 -9t10.5 -32v-127zM389 1601q0 -19 -11.5 -26.5t-42.5 -7.5h-124q-29 0 -39.5 8.5t-10.5 29.5v127q0 21 12 29t42 8h125q28 0 38.5 -9t10.5 -32v-127z" />
    <glyph glyph-name="Zcaron" unicode="&#x17d;" horiz-adv-x="834" 
d="M39 78l2 168q0 57 60 197q20 47 30 73q68 172 161 375t93 229q0 14 -19 19.5t-87 5.5q-54 0 -116 -3q-17 -1 -22 -1q-47 0 -65.5 23.5t-18.5 88.5q0 12 1 26t1 15q0 3 -1 35.5t-1 63.5q0 42 25 59.5t86 17.5h545q21 0 32.5 -2.5t17.5 -8.5q12 -11 16.5 -34.5t4.5 -83.5
v-69q0 -8 -6 -32t-16 -50l-322 -787q-2 -5 -6 -14q-10 -24 -10 -35q0 -8 21.5 -12t86.5 -4h56q43 0 91.5 4t51.5 4q25 0 41 -21t16 -53q0 -24 -2 -64t-2 -54q0 -6 1 -25.5t1 -34.5q0 -53 -15.5 -73.5t-59.5 -20.5q-59 0 -154 2t-131 2q-29 0 -98 -2t-109 -2h-45
q-31 0 -66 -3q-8 -1 -10 -1q-32 0 -45.5 18.5t-13.5 63.5zM291 1577l-145 172q-2 2 -3 4.5t-1 5.5q0 8 5.5 14.5t12.5 6.5h135q16 -1 29 -5.5t20 -11.5l58 -59q2 -3 6 -4.5t8 -1.5q5 0 8.5 1.5t5.5 4.5l54 59q6 7 19.5 11.5t29.5 5.5h135q7 0 12.5 -6.5t5.5 -14.5
q0 -3 -1 -5.5t-3 -4.5l-139 -172q-8 -11 -20 -16t-31 -5h-150q-18 0 -29.5 5t-21.5 16z" />
    <glyph glyph-name="zcaron" unicode="&#x17e;" horiz-adv-x="653" 
d="M43 270l94 254q31 81 82 199t51 143q0 9 -5.5 15t-12.5 6q-4 0 -9 -1l-5 -1l-117 -2h-12q-42 0 -55 12t-13 70v20q0 41 -3 84q-1 9 -1 10q0 59 23 80t94 21q22 0 103.5 -4.5t139.5 -4.5q70 0 144 7q19 2 22 2q29 0 40 -20.5t11 -80.5v-49q0 -88 -39 -169q-8 -18 -12 -28
l-166 -440q-6 -16 -9 -28.5t-3 -18.5q0 -14 18 -19t80 -5q26 0 58.5 5t40.5 5q26 0 36.5 -31t10.5 -125v-55q0 -78 -12 -99.5t-44 -21.5q-5 0 -28 2q-79 6 -146 6q-127 0 -269 -11q-37 -3 -46 -3q-42 0 -53 22t-11 134q0 71 20 113q2 5 3 7zM203 1272l-145 172q-2 2 -3 4.5
t-1 5.5q0 8 5.5 14.5t12.5 6.5h135q16 -1 29 -5.5t20 -11.5l58 -59q2 -3 6 -4.5t8 -1.5q5 0 8.5 1.5t5.5 4.5l54 59q6 7 19.5 11.5t29.5 5.5h135q7 0 12.5 -6.5t5.5 -14.5q0 -3 -1 -5.5t-3 -4.5l-139 -172q-8 -11 -20 -16t-31 -5h-150q-18 0 -29.5 5t-21.5 16z" />
    <glyph glyph-name="florin" unicode="&#x192;" horiz-adv-x="915" 
d="M115 725q-16 0 -24.5 8.5t-8.5 24.5v145q0 12 7 19.5t20 7.5h174v170q0 228 81 315.5t287 87.5h45q91 0 113 -11t22 -42v-190q0 -47 -57 -47q-46 -1 -78 -7q-50 -10 -67 -39.5t-17 -150.5v-86h189q15 0 22.5 -8.5t7.5 -24.5v-145q0 -13 -6 -20t-18 -7h-195v-506
q0 -156 -34.5 -243.5t-110.5 -127.5q-41 -21 -103.5 -29.5t-207.5 -8.5q-54 0 -68 8t-14 30v203q0 37 13.5 47.5t59.5 10.5q88 0 112 29t24 132v455h-168z" />
    <glyph glyph-name="circumflex" unicode="&#x2c6;" 
d="M387 1452q9 12 21 17.5t30 5.5h150q16 0 28.5 -6t22.5 -17l139 -172q2 -2 3 -4.5t1 -5.5q0 -9 -5 -14t-13 -5h-135q-15 0 -29 5t-20 12l-54 57q-4 4 -7.5 6t-6.5 2t-6.5 -2t-7.5 -6l-58 -57q-6 -7 -20 -12t-29 -5h-135q-9 0 -13.5 5t-4.5 14q0 4 0.5 6t3.5 4z" />
    <glyph glyph-name="caron" unicode="&#x2c7;" 
d="M387 1272l-145 172q-2 2 -3 4.5t-1 5.5q0 8 5.5 14.5t12.5 6.5h135q16 -1 29 -5.5t20 -11.5l58 -59q2 -3 6 -4.5t8 -1.5q5 0 8.5 1.5t5.5 4.5l54 59q6 7 19.5 11.5t29.5 5.5h135q7 0 12.5 -6.5t5.5 -14.5q0 -3 -1 -5.5t-3 -4.5l-139 -172q-8 -11 -20 -16t-31 -5h-150
q-18 0 -29.5 5t-21.5 16z" />
    <glyph glyph-name="breve" unicode="&#x2d8;" 
d="M289 1475h102q10 0 16.5 -6.5t12.5 -24.5q12 -35 34 -49.5t64 -14.5q56 0 84 61q4 8 6 13q3 7 13.5 14t17.5 7h104q10 0 15.5 -10t5.5 -27q0 -88 -67.5 -139.5t-184.5 -51.5q-115 0 -183.5 51.5t-68.5 135.5q0 23 6.5 32t22.5 9z" />
    <glyph glyph-name="dotaccent" unicode="&#x2d9;" 
d="M637 1296q0 -19 -12 -26.5t-45 -7.5h-142q-31 0 -42 8.5t-11 29.5v127q0 21 13 29t46 8h140q30 0 41.5 -9t11.5 -32v-127z" />
    <glyph glyph-name="ring" unicode="&#x2da;" 
d="M430 1466q0 -34 23.5 -58t58.5 -24q33 0 57.5 24t24.5 56q0 35 -24 58.5t-58 23.5q-35 0 -58.5 -23t-23.5 -57zM297 1466q0 89 63 151t152 62q88 0 151.5 -62t63.5 -151t-63 -152t-152 -63q-90 0 -152.5 63t-62.5 152z" />
    <glyph glyph-name="ogonek" unicode="&#x2db;" 
d="M674 0q-35 -38 -52.5 -78t-17.5 -84q0 -40 23 -74q4 -6 4 -8q0 -13 -4 -17.5t-19 -4.5h-16h-156q-35 0 -47 17t-12 63q0 50 32 99t91 87h174z" />
    <glyph glyph-name="tilde" unicode="&#x2dc;" 
d="M786 1464q14 0 20.5 -9t6.5 -28q0 -68 -54 -116.5t-134 -48.5q-53 0 -127.5 31.5t-98.5 31.5q-39 0 -53 -34t-31 -34h-86q-8 0 -13 6.5t-5 16.5q0 85 51 134.5t137 49.5q53 0 127.5 -31.5t98.5 -31.5q39 0 52 31.5t28 31.5h81z" />
    <glyph glyph-name="hungarumlaut" unicode="&#x2dd;" 
d="M923 1443l-157 -175q-8 -8 -19 -12.5t-24 -4.5h-121q-7 0 -11.5 5t-4.5 12q0 5 0.5 7.5t1.5 4.5l84 172q5 10 17.5 16.5t29.5 6.5h192q8 0 14.5 -5.5t6.5 -11.5q0 -2 -5 -10q-2 -2 -4 -5zM569 1444l-157 -176q-8 -8 -19 -12.5t-24 -4.5h-121q-7 0 -12 5t-5 12q0 5 0.5 7
t2.5 6l82 172q5 9 18 15t31 7h192q8 -1 13 -5.5t5 -11.5q0 -3 -1 -6t-5 -8z" />
    <glyph glyph-name="Omega" unicode="&#x3a9;" horiz-adv-x="1575" 
d="M1227 256h291v-256h-609v291q126 86 192 217.5t66 296.5q0 203 -101.5 319.5t-279.5 116.5q-177 0 -278.5 -116.5t-101.5 -319.5q0 -164 66 -296.5t192 -217.5v-291h-609v256h291q-126 121 -187 260t-61 303q0 313 188 501.5t500 188.5q313 0 501 -188.5t188 -501.5
q0 -164 -61 -303t-187 -260z" />
    <glyph glyph-name="pi" unicode="&#x3c0;" horiz-adv-x="1319" 
d="M1354 1092l-39 -224h-176l-154 -868h-287l152 868h-238l-151 -868h-287l152 868h-25q-55 0 -84 -31t-39 -99l-213 -1q29 199 123 277t311 78h955z" />
    <glyph glyph-name="endash" unicode="&#x2013;" 
d="M0 473v232h1024v-232h-1024z" />
    <glyph glyph-name="emdash" unicode="&#x2014;" horiz-adv-x="2048" 
d="M0 473v232h2048v-232h-2048z" />
    <glyph glyph-name="quoteleft" unicode="&#x2018;" horiz-adv-x="455" 
d="M63 1223q0 29 22 64l7 11l84 150q8 14 23 21.5t37 7.5h83q19 0 28 -6.5t9 -18.5q0 -9 -30 -64t-52 -102h29q56 0 72 -14.5t16 -59.5v-227q0 -35 -16 -49t-60 -14h-182q-40 0 -55 16t-15 57v228z" />
    <glyph glyph-name="quoteright" unicode="&#x2019;" horiz-adv-x="455" 
d="M391 1163q0 -29 -22 -64q-4 -7 -6 -11l-84 -150q-8 -14 -23.5 -21.5t-36.5 -7.5h-84q-18 0 -27.5 6.5t-9.5 18.5q0 9 30.5 64t51.5 102h-33q-54 0 -69 14t-15 60v227q0 35 16.5 49t59.5 14h183q39 0 54 -16t15 -57v-228z" />
    <glyph glyph-name="quotesinglbase" unicode="&#x201a;" horiz-adv-x="455" 
d="M391 63q0 -27 -20 -61q-6 -9 -9 -14l-83 -150q-8 -14 -23.5 -21t-36.5 -7h-84q-18 0 -27.5 6t-9.5 18q0 9 30.5 64t51.5 102h-33q-54 0 -69 14t-15 60v227q0 36 16.5 50t59.5 14h183q39 0 54 -16.5t15 -57.5v-228z" />
    <glyph glyph-name="quotedblleft" unicode="&#x201c;" horiz-adv-x="868" 
d="M63 1223q0 29 22 64l7 11l84 150q8 14 23 21.5t37 7.5h83q19 0 28 -6.5t9 -18.5q0 -9 -30 -64t-52 -102h29q56 0 72 -14.5t16 -59.5v-227q0 -35 -16 -49t-60 -14h-182q-40 0 -55 16t-15 57v228zM479 1223q0 31 22 67q3 5 5 9l84 149q8 14 23 21.5t36 7.5h86q19 0 28 -6.5
t9 -18.5q0 -9 -30 -64t-52 -102h29q55 0 70.5 -14t15.5 -60v-227q0 -35 -16 -49t-60 -14h-182q-39 0 -53.5 15.5t-14.5 57.5v228z" />
    <glyph glyph-name="quotedblright" unicode="&#x201d;" horiz-adv-x="868" 
d="M805 1163q0 -28 -20 -61l-9 -15l-84 -149q-8 -14 -22 -21.5t-35 -7.5h-86q-19 0 -28 6.5t-9 18.5q0 9 30 64t52 102h-33q-54 0 -68 13.5t-14 60.5v227q0 35 16.5 49t59.5 14h180q40 0 55 -16t15 -57v-228zM391 1163q0 -29 -22 -64q-4 -7 -6 -11l-84 -150
q-8 -14 -23.5 -21.5t-36.5 -7.5h-84q-18 0 -27.5 6.5t-9.5 18.5q0 9 30.5 64t51.5 102h-33q-54 0 -69 14t-15 60v227q0 35 16.5 49t59.5 14h183q39 0 54 -16t15 -57v-228z" />
    <glyph glyph-name="quotedblbase" unicode="&#x201e;" horiz-adv-x="868" 
d="M805 63q0 -27 -20 -61q-6 -9 -9 -14l-84 -150q-8 -14 -22 -21t-35 -7h-86q-19 0 -28 6t-9 18q0 9 30 64t52 102h-33q-54 0 -68 13.5t-14 60.5v227q0 36 16.5 50t59.5 14h180q40 0 55 -16.5t15 -57.5v-228zM391 63q0 -27 -20 -61q-6 -9 -9 -14l-83 -150q-8 -14 -23.5 -21
t-36.5 -7h-84q-18 0 -27.5 6t-9.5 18q0 9 30.5 64t51.5 102h-33q-54 0 -69 14t-15 60v227q0 36 16.5 50t59.5 14h183q39 0 54 -16.5t15 -57.5v-228z" />
    <glyph glyph-name="dagger" unicode="&#x2020;" 
d="M580 1475q41 0 67.5 -21.5t26.5 -54.5v-324h162q44 0 56.5 -12.5t12.5 -44.5v-180q0 -53 -8.5 -66.5t-32.5 -13.5h-190v-864q0 -47 -16 -60.5t-62 -13.5h-174q-47 0 -59.5 11.5t-12.5 62.5v864h-176q-36 0 -45.5 11.5t-9.5 68.5v180q0 39 12 48t53 9h166v324
q0 37 22.5 56.5t65.5 19.5h142z" />
    <glyph glyph-name="daggerdbl" unicode="&#x2021;" 
d="M580 1475q41 0 67.5 -21.5t26.5 -54.5v-281h162q44 0 56.5 -12.5t12.5 -44.5v-180q0 -53 -8.5 -66.5t-32.5 -13.5h-190v-303h162q44 0 56.5 -12.5t12.5 -45.5v-180q0 -52 -8.5 -66t-32.5 -14h-190v-286q0 -47 -16 -60.5t-62 -13.5h-174q-47 0 -59.5 11.5t-12.5 62.5v286
h-176q-36 0 -45.5 11.5t-9.5 68.5v180q0 40 12 49t53 9h166v303h-176q-36 0 -45.5 11.5t-9.5 68.5v180q0 39 12 48t53 9h166v281q0 37 22.5 56.5t65.5 19.5h142z" />
    <glyph glyph-name="bullet" unicode="&#x2022;" horiz-adv-x="1208" 
d="M307 762q0 123 87 209t210 86q122 0 208.5 -86.5t86.5 -208.5t-87.5 -209.5t-209.5 -87.5q-123 0 -209 87t-86 210z" />
    <glyph glyph-name="ellipsis" unicode="&#x2026;" horiz-adv-x="2048" 
d="M506 63q0 -35 -16 -49t-60 -14h-182q-40 0 -55 16t-15 58v227q0 36 16.5 50t59.5 14h183q39 0 54 -16.5t15 -57.5v-228zM1188 63q0 -35 -16 -49t-60 -14h-182q-40 0 -55 16t-15 58v227q0 36 16.5 50t59.5 14h183q39 0 54 -16.5t15 -57.5v-228zM1872 63q0 -35 -16 -49
t-60 -14h-182q-40 0 -55 16t-15 58v227q0 36 16.5 50t59.5 14h183q39 0 54 -16.5t15 -57.5v-228z" />
    <glyph glyph-name="perthousand" unicode="&#x2030;" horiz-adv-x="1958" 
d="M1694 211v324q0 29 -10.5 41t-36.5 12t-37 -12.5t-11 -40.5v-324q0 -28 12 -41.5t36 -13.5t35.5 13t11.5 42zM1384 416q0 215 58.5 290.5t206.5 75.5q138 0 200 -73t62 -240v-166q0 -189 -62 -262.5t-211 -73.5q-64 0 -115.5 21.5t-84.5 62.5q-30 38 -42 107t-12 258z
M1081 211v324q0 29 -10.5 41t-36.5 12q-25 0 -36 -12.5t-11 -40.5v-324q0 -28 11.5 -41.5t35.5 -13.5q25 0 36 13t11 42zM772 416q0 215 58.5 290.5t205.5 75.5q139 0 200.5 -73t61.5 -240v-166q0 -189 -61.5 -262.5t-210.5 -73.5q-65 0 -116.5 21.5t-84.5 62.5
q-29 38 -41 107t-12 258zM232 10q-10 5 -15.5 16t-5.5 25q0 8 3 17t9 20l743 1398q10 18 20.5 26.5t23.5 9.5q4 0 10 -2t11 -5l84 -41q6 -3 10.5 -12.5t4.5 -19.5q0 -5 -9 -23l-5 -10l-735 -1399q-11 -20 -23.5 -30.5t-25.5 -10.5q-5 0 -16 3q-3 1 -5 1zM354 938v324
q0 28 -11 40.5t-36 12.5t-36 -12.5t-11 -40.5v-324q0 -30 11 -42.5t36 -12.5q26 0 36.5 12.5t10.5 42.5zM45 1141q0 216 58.5 292t205.5 76q66 0 120.5 -21.5t86.5 -60.5q31 -37 43 -109t12 -298q0 -181 -62 -254.5t-210 -73.5q-65 0 -116.5 21.5t-84.5 62.5q-29 38 -41 107
t-12 258z" />
    <glyph glyph-name="guilsinglleft" unicode="&#x2039;" horiz-adv-x="494" 
d="M406 772q0 -12 -5.5 -26.5t-11.5 -20.5l-104 -111q-7 -6 -10 -11t-3 -9q0 -5 2 -9.5t7 -9.5l100 -110q13 -15 20 -29.5t7 -27.5v-252q0 -9 -6.5 -15t-14.5 -6q-5 0 -10 2.5t-10 7.5l-275 273q-7 7 -12.5 20t-5.5 23v256q0 12 4.5 24t11.5 19l281 280q2 3 8 6t8 3
q7 0 13 -6t6 -13v-258z" />
    <glyph glyph-name="guilsinglright" unicode="&#x203a;" horiz-adv-x="494" 
d="M84 1030q0 8 5.5 13.5t12.5 5.5q3 0 8.5 -3t8.5 -6l280 -280q8 -7 12.5 -19t4.5 -24v-256q0 -10 -5.5 -23t-13.5 -20l-276 -273q-7 -6 -10.5 -8t-8.5 -2q-8 0 -14 6t-6 15v252q0 13 7 27.5t20 29.5l100 110q4 5 6 9.5t2 9.5q0 4 -3 9t-9 11l-105 111q-5 6 -10.5 20.5
t-5.5 26.5v258z" />
    <glyph glyph-name="franc" unicode="&#x20a3;" horiz-adv-x="1313" 
d="M61 178v1102q0 12 -1 44.5t-1 51.5q0 56 20 77.5t71 21.5q9 0 27.5 -1t27.5 -1t28 1t29 1h289q18 0 40 1t25 1q55 0 75 -23t20 -84q0 -13 -2 -45.5t-2 -50.5q0 -80 -24.5 -101.5t-160.5 -21.5h-57q-51 0 -63.5 -20t-12.5 -95q0 -78 15 -91t100 -13h14q25 0 64.5 4t54.5 4
q32 0 45.5 -20t13.5 -70q0 -13 -1 -40t-1 -40v-51q0 -70 -21 -93.5t-77 -23.5q-15 0 -55.5 2t-65.5 2q-51 0 -66.5 -19.5t-15.5 -84.5v-297q0 -38 3 -82.5t3 -50.5q0 -42 -18.5 -60t-61.5 -18q-18 0 -59.5 4t-64.5 4q-15 0 -43.5 -3t-42.5 -3q-29 0 -39.5 13.5t-10.5 62.5
v41q0 11 1 33t1 32zM872 0q-46 0 -60.5 21.5t-14.5 87.5v827q0 9 -2 49t-2 70q0 80 23 101.5t104 21.5h100q63 0 65 -111v-10l15 -2q20 66 49.5 105.5t58.5 39.5q35 0 49.5 -25t14.5 -92v-219q0 -74 -50 -83q-3 0 -6 -1q-59 -9 -82.5 -38.5t-23.5 -94.5v-375q0 -36 4 -93.5
t4 -78.5q0 -64 -13.5 -82t-68.5 -18h-164z" />
    <glyph glyph-name="trademark" unicode="&#x2122;" horiz-adv-x="1706" 
d="M803 1462h196l127 -332l123 332h197v-547h-135v410l-154 -410h-61l-158 410v-410h-135v547zM207 1462h485v-112h-168v-435h-149v435h-168v112z" />
    <glyph glyph-name="partialdiff" unicode="&#x2202;" horiz-adv-x="1094" 
d="M762 662q19 99 29 188.5t10 155.5q0 100 -26 157.5t-70 57.5t-146 -73t-160 -73q-42 0 -71 30t-29 73q0 64 86.5 118t210.5 54q192 0 309 -161.5t117 -432.5q0 -339 -156.5 -560t-396.5 -221q-171 0 -282 114.5t-111 291.5q0 198 116 329.5t287 131.5q102 0 170 -43.5
t113 -136.5zM700 518q0 116 -38.5 178t-110.5 62q-101 0 -167.5 -134t-66.5 -341q0 -117 38.5 -177.5t111.5 -60.5q101 0 167 133.5t66 339.5z" />
    <glyph glyph-name="Delta" unicode="&#x2206;" horiz-adv-x="1427" 
d="M713 1110l-326 -854h653zM563 1473h301l563 -1473h-1427z" />
    <glyph glyph-name="product" unicode="&#x220f;" horiz-adv-x="1612" 
d="M150 1473h1308v-1866h-344v1577h-620v-1577h-344v1866z" />
    <glyph glyph-name="summation" unicode="&#x2211;" horiz-adv-x="1470" 
d="M66 1473h1308v-265h-878l620 -645l-622 -690h933v-266h-1386v172l698 772l-673 690v232z" />
    <glyph glyph-name="minus" unicode="&#x2212;" horiz-adv-x="1706" 
d="M254 713h1198v-203h-1198v203z" />
    <glyph glyph-name="fraction" unicode="&#x2215;" horiz-adv-x="342" 
d="M-268 10q-8 5 -14.5 17t-6.5 24q0 8 3 18.5t8 19.5l745 1398q9 17 19.5 25.5t23.5 9.5q5 0 11 -2t9 -4l84 -41q6 -3 10.5 -13t4.5 -20q0 -5 -3 -12.5t-10 -20.5l-735 -1399q-11 -20 -23 -30.5t-26 -10.5q-4 0 -15 3q-4 1 -5 1z" />
    <glyph glyph-name="periodcentered" unicode="&#x2219;" horiz-adv-x="455" 
d="M227 897q66 0 112 -46.5t46 -111.5q0 -66 -46 -111.5t-112 -45.5t-112.5 46t-46.5 111q0 66 46.5 112t112.5 46z" />
    <glyph glyph-name="radical" unicode="&#x221a;" horiz-adv-x="1346" 
d="M1141 1694h207v-129h-103l-592 -1606h-100l-311 858l-140 -51l-30 113l331 116l236 -661z" />
    <glyph glyph-name="infinity" unicode="&#x221e;" horiz-adv-x="1706" 
d="M942 561q45 -75 106.5 -113t139.5 -38q94 0 152.5 55.5t58.5 144.5q0 87 -54 143t-135 56q-75 0 -138 -57.5t-130 -190.5zM766 659q-44 75 -105.5 112.5t-140.5 37.5q-94 0 -152.5 -56t-58.5 -145q0 -85 54 -141.5t135 -56.5q75 0 138 58t130 191zM858 457
q-68 -132 -146.5 -195t-174.5 -63q-140 0 -236 117.5t-96 293.5q0 184 85.5 297t223.5 113q92 0 170 -60t164 -198q68 132 148 196t175 64q139 0 235.5 -118.5t96.5 -293.5q0 -183 -86 -296t-223 -113q-93 0 -170.5 58.5t-165.5 197.5z" />
    <glyph glyph-name="integral" unicode="&#x222b;" horiz-adv-x="1186" 
d="M342 -252q102 0 121 639q3 136 6 211q16 508 123 732t328 224q98 0 157.5 -49t59.5 -129q0 -60 -38 -96.5t-100 -36.5q-46 0 -77 24t-41 68q-5 20 -7 54q-3 46 -30 47q-99 0 -119 -633l-6 -178q-11 -296 -31 -444.5t-59 -250.5q-56 -148 -148.5 -225.5t-214.5 -77.5
q-96 0 -156.5 49t-60.5 127q0 62 39 99t105 37q50 0 85 -31.5t35 -71.5q0 -58 6 -73t23 -15z" />
    <glyph glyph-name="approxequal" unicode="&#x2248;" horiz-adv-x="1706" 
d="M1530 596v-219q-106 -72 -198 -105.5t-181 -33.5q-95 0 -286.5 66.5t-301.5 66.5q-84 0 -174.5 -37t-210.5 -121v219q111 73 206.5 108t180.5 35q124 0 315.5 -65.5t274.5 -65.5q86 0 174 35.5t201 116.5zM1530 1008v-220q-106 -71 -196.5 -104t-180.5 -33
q-94 0 -286 65.5t-304 65.5q-82 0 -170 -35t-215 -122v219q107 71 204 107t183 36q125 0 316.5 -65.5t273.5 -65.5q84 0 171 35t204 117z" />
    <glyph glyph-name="notequal" unicode="&#x2260;" horiz-adv-x="1706" 
d="M1198 1233l148 -119l-154 -192h260v-191h-389l-191 -239h580v-193h-707l-245 -309l-148 119l154 190h-252v193h377l190 239h-567v191h696z" />
    <glyph glyph-name="lessequal" unicode="&#x2264;" horiz-adv-x="1706" 
d="M258 195h1192v-197h-1192v197zM1448 1241v-209l-834 -264l834 -262v-209l-1190 385v174z" />
    <glyph glyph-name="greaterequal" unicode="&#x2265;" horiz-adv-x="1706" 
d="M258 195h1192v-197h-1192v197zM260 1241l1188 -385v-174l-1188 -385v209l832 262l-832 264v209z" />
    <glyph glyph-name="lozenge" unicode="&#x25ca;" horiz-adv-x="1012" 
d="M506 1409l-385 -817l385 -825l385 825zM506 1653l500 -1061l-500 -1069l-500 1069z" />
    <glyph glyph-name="apple" unicode="&#xf000;" horiz-adv-x="1618" 
d="M836 1216q-1 6 -1.5 14t-0.5 23q0 124 95 229.5t236 131.5q1 -10 1.5 -23t0.5 -39q0 -131 -103.5 -234.5t-203.5 -103.5h-8q-3 0 -7.5 1t-8.5 1zM1505 403q-114 -247 -205 -342.5t-204 -95.5q-50 0 -131.5 33t-122.5 33q-45 0 -131 -33t-127 -33q-64 0 -128.5 44
t-129.5 132q-102 140 -157.5 295.5t-55.5 300.5q0 219 125 356.5t323 137.5q68 0 155 -34t124 -34q34 0 121.5 35t152.5 35q110 0 198 -40t161 -124q-102 -65 -151.5 -145.5t-49.5 -182.5q0 -113 60 -200t173 -138z" />
    <glyph glyph-name="fi" unicode="&#xf001;" horiz-adv-x="1010" 
d="M764 1235q-96 0 -121 19t-25 122v10q0 72 16 90.5t66 18.5q12 0 39.5 -1t42.5 -1q14 0 34.5 1t27.5 1q54 0 69 -19t15 -108q0 -87 -18 -110t-99 -23h-47zM926 1034v-938q0 -65 -15 -81.5t-61 -16.5q-17 0 -41.5 2t-32.5 2q-30 0 -63 -2t-37 -2q-33 0 -45.5 16.5
t-12.5 75.5v41v852q0 12 -1 43t-1 49q0 54 21 73t90 19h37q13 0 39.5 1t38.5 1q50 0 68 -13t18 -48q0 -2 -1 -10q-1 -32 -1 -64zM526 1270q0 -31 -13.5 -46.5t-39.5 -15.5q-8 0 -20 2t-17 2q-21 0 -31 -13t-10 -42q0 -11 3 -36q1 -7 1 -11h78q26 0 37.5 -15.5t11.5 -50.5
v-149q0 -40 -17 -55t-67 -15h-28v-739q0 -59 -16.5 -74.5t-63.5 -15.5q-18 0 -39 2t-25 2q-17 0 -47 -3t-43 -3q-36 0 -48.5 15.5t-12.5 86.5l-1 723q-5 -1 -10.5 -1.5t-15.5 -0.5q-30 0 -40.5 15.5t-10.5 70.5v139q0 38 12.5 53t42.5 15q3 0 10.5 -1t12.5 -1v186
q0 112 57.5 156.5t239.5 44.5q79 0 94.5 -15t15.5 -63v-147z" />
    <glyph glyph-name="fi" unicode="&#xfb01;" horiz-adv-x="1010" 
d="M764 1235q-96 0 -121 19t-25 122v10q0 72 16 90.5t66 18.5q12 0 39.5 -1t42.5 -1q14 0 34.5 1t27.5 1q54 0 69 -19t15 -108q0 -87 -18 -110t-99 -23h-47zM926 1034v-938q0 -65 -15 -81.5t-61 -16.5q-17 0 -41.5 2t-32.5 2q-30 0 -63 -2t-37 -2q-33 0 -45.5 16.5
t-12.5 75.5v41v852q0 12 -1 43t-1 49q0 54 21 73t90 19h37q13 0 39.5 1t38.5 1q50 0 68 -13t18 -48q0 -2 -1 -10q-1 -32 -1 -64zM526 1270q0 -31 -13.5 -46.5t-39.5 -15.5q-8 0 -20 2t-17 2q-21 0 -31 -13t-10 -42q0 -11 3 -36q1 -7 1 -11h78q26 0 37.5 -15.5t11.5 -50.5
v-149q0 -40 -17 -55t-67 -15h-28v-739q0 -59 -16.5 -74.5t-63.5 -15.5q-18 0 -39 2t-25 2q-17 0 -47 -3t-43 -3q-36 0 -48.5 15.5t-12.5 86.5l-1 723q-5 -1 -10.5 -1.5t-15.5 -0.5q-30 0 -40.5 15.5t-10.5 70.5v139q0 38 12.5 53t42.5 15q3 0 10.5 -1t12.5 -1v186
q0 112 57.5 156.5t239.5 44.5q79 0 94.5 -15t15.5 -63v-147z" />
    <glyph glyph-name="fl" unicode="&#xf002;" horiz-adv-x="1010" 
d="M623 1309v94q0 54 20.5 73t85.5 19q6 0 18.5 -1t18.5 -1q5 0 38.5 1t61.5 1q35 0 48.5 -14t13.5 -51v-70v-1266q0 -65 -14 -80.5t-58 -15.5q-11 0 -40 2t-46 2q-23 0 -53.5 -2t-36.5 -2q-33 0 -45 18t-12 84v31v1178zM526 1270q0 -31 -13.5 -46.5t-39.5 -15.5q-8 0 -20 2
t-17 2q-21 0 -31 -13t-10 -42q0 -11 3 -36q1 -7 1 -11h78q26 0 37.5 -15.5t11.5 -50.5v-149q0 -40 -17 -55t-67 -15h-28v-739q0 -59 -16.5 -74.5t-63.5 -15.5q-18 0 -39 2t-25 2q-17 0 -47 -3t-43 -3q-36 0 -48.5 15.5t-12.5 86.5l-1 723q-5 -1 -10.5 -1.5t-15.5 -0.5
q-30 0 -40.5 15.5t-10.5 70.5v139q0 38 12.5 53t42.5 15q3 0 10.5 -1t12.5 -1v186q0 112 57.5 156.5t239.5 44.5q79 0 94.5 -15t15.5 -63v-147z" />
    <glyph glyph-name="fl" unicode="&#xfb02;" horiz-adv-x="1010" 
d="M623 1309v94q0 54 20.5 73t85.5 19q6 0 18.5 -1t18.5 -1q5 0 38.5 1t61.5 1q35 0 48.5 -14t13.5 -51v-70v-1266q0 -65 -14 -80.5t-58 -15.5q-11 0 -40 2t-46 2q-23 0 -53.5 -2t-36.5 -2q-33 0 -45 18t-12 84v31v1178zM526 1270q0 -31 -13.5 -46.5t-39.5 -15.5q-8 0 -20 2
t-17 2q-21 0 -31 -13t-10 -42q0 -11 3 -36q1 -7 1 -11h78q26 0 37.5 -15.5t11.5 -50.5v-149q0 -40 -17 -55t-67 -15h-28v-739q0 -59 -16.5 -74.5t-63.5 -15.5q-18 0 -39 2t-25 2q-17 0 -47 -3t-43 -3q-36 0 -48.5 15.5t-12.5 86.5l-1 723q-5 -1 -10.5 -1.5t-15.5 -0.5
q-30 0 -40.5 15.5t-10.5 70.5v139q0 38 12.5 53t42.5 15q3 0 10.5 -1t12.5 -1v186q0 112 57.5 156.5t239.5 44.5q79 0 94.5 -15t15.5 -63v-147z" />
  </font>
</defs>
</svg>
